<?xml version="1.0" encoding="UTF-8" standalone="no"?>
<svg
   xmlns:dc="http://purl.org/dc/elements/1.1/"
   xmlns:cc="http://creativecommons.org/ns#"
   xmlns:rdf="http://www.w3.org/1999/02/22-rdf-syntax-ns#"
   xmlns:svg="http://www.w3.org/2000/svg"
   xmlns="http://www.w3.org/2000/svg"
   xmlns:sodipodi="http://sodipodi.sourceforge.net/DTD/sodipodi-0.dtd"
   xmlns:inkscape="http://www.inkscape.org/namespaces/inkscape"
   width="300mm"
   height="210mm"
   viewBox="0 0 300 210"
   version="1.1"
   id="svg8"
   inkscape:version="1.0 (4035a4fb49, 2020-05-01)"
   sodipodi:docname="v1.svg">
  <defs
     id="defs2" />
  <sodipodi:namedview
     id="base"
     pagecolor="#ffffff"
     bordercolor="#666666"
     borderopacity="1.0"
     inkscape:pageopacity="0.0"
     inkscape:pageshadow="2"
     inkscape:zoom="1.4"
     inkscape:cx="343.19643"
     inkscape:cy="138.07405"
     inkscape:document-units="mm"
     inkscape:current-layer="layer4"
     inkscape:document-rotation="0"
     showgrid="false"
     borderlayer="true"
     inkscape:showpageshadow="false"
     inkscape:window-width="1718"
     inkscape:window-height="1347"
     inkscape:window-x="1713"
     inkscape:window-y="0"
     inkscape:window-maximized="0" />
  <metadata
     id="metadata5">
    <rdf:RDF>
      <cc:Work
         rdf:about="">
        <dc:format>image/svg+xml</dc:format>
        <dc:type
           rdf:resource="http://purl.org/dc/dcmitype/StillImage" />
        <dc:title></dc:title>
      </cc:Work>
    </rdf:RDF>
  </metadata>
  <g
     style="display:none"
     inkscape:label="background"
     inkscape:groupmode="layer"
     id="layer1"
     sodipodi:insensitive="true">
    <rect
       style="fill:#000000;fill-opacity:0.0722891;stroke:none;stroke-width:0;stroke-miterlimit:1.5;stroke-dasharray:none"
       id="rect833"
       width="300"
       height="210"
       x="0"
       y="0" />
  </g>
  <g
     style="display:inline"
     inkscape:groupmode="layer"
     id="layer2"
     inkscape:label="cut_outermost">
    <circle
       id="path1052"
       style="fill:none;stroke:#000000;stroke-width:0.0999997;stroke-linecap:round;stroke-miterlimit:4;stroke-dasharray:none;stroke-opacity:1"
       cx="43.724476"
       cy="40.249969"
       r="33.325001" />
  </g>
  <g
     inkscape:groupmode="layer"
     id="layer4"
     inkscape:label="cut_innermost">
    <g
       style="stroke-width:1.01125"
       transform="matrix(0.98887238,0,0,0.98887238,0.1157214,0.07705841)"
       id="g2166">
      <path
         id="path848"
         style="fill:none;stroke:#000000;stroke-width:0.101125;stroke-linecap:round;stroke-miterlimit:4;stroke-dasharray:none;stroke-opacity:1"
         d="m 36.2144,71.3286 c 1.2233,0.3142 2.4644,0.555 3.7165,0.7211 l 3.1686,-5.4882 v -7.1582 z" />
      <path
         id="path856"
         style="fill:none;stroke:#000000;stroke-width:0.101125;stroke-linecap:round;stroke-miterlimit:4;stroke-dasharray:none;stroke-opacity:1"
         d="m 30.8676,69.4313 c 1.0973,0.5041 2.2226,0.945 3.3703,1.3207 l 8.8616,-15.3487 v -7.1582 z" />
      <path
         id="path864"
         style="fill:none;stroke:#000000;stroke-width:0.101125;stroke-linecap:round;stroke-miterlimit:4;stroke-dasharray:none;stroke-opacity:1"
         d="M 43.0995,41.625 H 40.4794 L 26.0223,66.6654 c 0.9811,0.6811 2,1.3063 3.0517,1.8724 L 43.0995,44.2451 Z" />
      <path
         id="path874"
         style="fill:none;stroke:#000000;stroke-width:0.101125;stroke-linecap:round;stroke-miterlimit:4;stroke-dasharray:none;stroke-opacity:1"
         d="M 38.17,41.625 H 34.0372 L 21.6771,63.0332 c 0.862,0.8625 1.7731,1.6746 2.7286,2.4322 z" />
      <path
         id="path882"
         style="fill:none;stroke:#000000;stroke-width:0.101125;stroke-linecap:round;stroke-miterlimit:4;stroke-dasharray:none;stroke-opacity:1"
         d="m 31.7278,41.625 h -4.1329 l -9.7117,16.8212 c 0.7256,1.0674 1.5157,2.0895 2.3658,3.0605 z" />
      <path
         id="path890"
         style="fill:none;stroke:#000000;stroke-width:0.101125;stroke-linecap:round;stroke-miterlimit:4;stroke-dasharray:none;stroke-opacity:1"
         d="m 25.2855,41.625 h -4.1328 l -6.3762,11.0439 c 0.546,1.3292 1.1817,2.6197 1.9027,3.8627 z" />
      <path
         id="path898"
         style="fill:none;stroke:#000000;stroke-width:0.101125;stroke-linecap:round;stroke-miterlimit:4;stroke-dasharray:none;stroke-opacity:1"
         d="m 18.8433,41.625 h -4.1328 l -1.9961,3.4573 c 0.2471,1.74 0.6385,3.4565 1.1701,5.1316 z" />
      <path
         id="path906"
         style="fill:none;stroke:#000000;stroke-width:0.101125;stroke-linecap:round;stroke-miterlimit:4;stroke-dasharray:none;stroke-opacity:1"
         d="m 40.3099,9.15229 c -1.2043,0.14501 -2.3993,0.35903 -3.5791,0.641 V 39.625 h 3.5791 z" />
      <path
         id="path914"
         style="fill:none;stroke:#000000;stroke-width:0.101125;stroke-linecap:round;stroke-miterlimit:4;stroke-dasharray:none;stroke-opacity:1"
         d="m 34.7308,10.341 c -1.2191,0.3772 -2.4143,0.8276 -3.5791,1.3488 V 39.625 h 3.5791 z" />
      <path
         id="path922"
         style="fill:none;stroke:#000000;stroke-width:0.101125;stroke-linecap:round;stroke-miterlimit:4;stroke-dasharray:none;stroke-opacity:1"
         d="m 29.1517,12.6705 c -1.2413,0.6637 -2.437,1.4094 -3.5791,2.232 V 39.625 h 3.5791 z" />
      <path
         id="path930"
         style="fill:none;stroke:#000000;stroke-width:0.101125;stroke-linecap:round;stroke-miterlimit:4;stroke-dasharray:none;stroke-opacity:1"
         d="m 23.5726,16.4685 c -1.2862,1.0929 -2.4831,2.2868 -3.5792,3.5703 V 39.625 h 3.5792 z" />
      <path
         id="path938"
         style="fill:none;stroke:#000000;stroke-width:0.101125;stroke-linecap:round;stroke-miterlimit:4;stroke-dasharray:none;stroke-opacity:1"
         d="m 14.4143,39.625 h 3.5791 V 22.6426 c -1.4687,2.1323 -2.6707,4.4365 -3.5791,6.8612 z" />
      <path
         id="path946"
         style="fill:none;stroke:#000000;stroke-width:0.101125;stroke-linecap:round;stroke-miterlimit:4;stroke-dasharray:none;stroke-opacity:1"
         d="m 45.0995,66.5615 3.1686,5.4882 c 1.2521,-0.1661 2.4931,-0.4069 3.7165,-0.7211 L 45.0995,59.4033 Z" />
      <path
         id="path954"
         style="fill:none;stroke:#000000;stroke-width:0.101125;stroke-linecap:round;stroke-miterlimit:4;stroke-dasharray:none;stroke-opacity:1"
         d="m 45.0995,55.4033 8.8616,15.3487 c 1.1476,-0.3757 2.2729,-0.8166 3.3703,-1.3207 L 45.0995,48.2451 Z" />
      <path
         id="path962"
         style="fill:none;stroke:#000000;stroke-width:0.101125;stroke-linecap:round;stroke-miterlimit:4;stroke-dasharray:none;stroke-opacity:1"
         d="m 69.3556,41.625 4.9588,8.5889 c 0.5316,-1.6751 0.923,-3.3916 1.1701,-5.1316 L 73.4884,41.625 Z" />
      <path
         id="path970"
         style="fill:none;stroke:#000000;stroke-width:0.101125;stroke-linecap:round;stroke-miterlimit:4;stroke-dasharray:none;stroke-opacity:1"
         d="m 62.9134,41.625 8.6063,14.9066 c 0.7211,-1.243 1.3568,-2.5335 1.9027,-3.8627 L 67.0462,41.625 Z" />
      <path
         id="path978"
         style="fill:none;stroke:#000000;stroke-width:0.101125;stroke-linecap:round;stroke-miterlimit:4;stroke-dasharray:none;stroke-opacity:1"
         d="m 56.4712,41.625 11.4787,19.8817 c 0.8502,-0.971 1.6403,-1.9931 2.3658,-3.0605 L 60.604,41.625 Z" />
      <path
         id="path986"
         style="fill:none;stroke:#000000;stroke-width:0.101125;stroke-linecap:round;stroke-miterlimit:4;stroke-dasharray:none;stroke-opacity:1"
         d="m 50.029,41.625 13.7642,23.8404 c 0.9556,-0.7576 1.8666,-1.5697 2.7286,-2.4322 L 54.1618,41.625 Z" />
      <path
         id="path994"
         style="fill:none;stroke:#000000;stroke-width:0.101125;stroke-linecap:round;stroke-miterlimit:4;stroke-dasharray:none;stroke-opacity:1"
         d="m 45.0995,41.625 v 2.6201 l 14.0254,24.2927 c 1.0517,-0.5661 2.0706,-1.1913 3.0518,-1.8724 L 47.7196,41.625 Z" />
      <path
         id="path1004"
         style="fill:none;stroke:#000000;stroke-width:0.101125;stroke-linecap:round;stroke-miterlimit:4;stroke-dasharray:none;stroke-opacity:1"
         d="m 64.6264,39.625 h 3.5791 V 20.0388 c -1.0961,-1.2835 -2.2929,-2.4774 -3.5791,-3.5703 z" />
      <path
         id="path1012"
         style="fill:none;stroke:#000000;stroke-width:0.101125;stroke-linecap:round;stroke-miterlimit:4;stroke-dasharray:none;stroke-opacity:1"
         d="m 59.0473,39.625 h 3.5791 V 14.9025 c -1.1422,-0.8226 -2.3379,-1.5683 -3.5791,-2.232 z" />
      <path
         id="path1020"
         style="fill:none;stroke:#000000;stroke-width:0.101125;stroke-linecap:round;stroke-miterlimit:4;stroke-dasharray:none;stroke-opacity:1"
         d="m 53.4682,39.625 h 3.5791 V 11.6898 c -1.1648,-0.5212 -2.36,-0.9716 -3.5791,-1.3488 z" />
      <path
         id="path1028"
         style="fill:none;stroke:#000000;stroke-width:0.101125;stroke-linecap:round;stroke-miterlimit:4;stroke-dasharray:none;stroke-opacity:1"
         d="m 47.889,39.625 h 3.5792 V 9.79329 C 50.2884,9.51132 49.0934,9.2973 47.889,9.15229 Z" />
      <path
         id="path1036"
         style="fill:none;stroke:#000000;stroke-width:0.101125;stroke-linecap:round;stroke-miterlimit:4;stroke-dasharray:none;stroke-opacity:1"
         d="M 73.7846,39.625 V 29.5038 C 72.8763,27.0791 71.6743,24.7749 70.2055,22.6426 V 39.625 Z" />
      <path
         id="path1044"
         style="fill:none;stroke:#000000;stroke-width:0.101125;stroke-linecap:round;stroke-miterlimit:4;stroke-dasharray:none;stroke-opacity:1"
         d="M 45.889,39.625 V 8.97552 c -1.1921,-0.0674 -2.387,-0.0674 -3.5791,0 V 39.625 Z" />
    </g>
  </g>
</svg>
