G75*
%MOIN*%
%OFA0B0*%
%FSLAX25Y25*%
%IPPOS*%
%LPD*%
%AMOC8*
5,1,8,0,0,1.08239X$1,22.5*
%
%ADD10C,0.00000*%
%ADD11OC8,0.05937*%
%ADD12R,0.15811X0.15811*%
%ADD13OC8,0.07087*%
%ADD14OC8,0.03575*%
%ADD15R,0.06600X0.06600*%
%ADD16OC8,0.06600*%
%ADD17C,0.05700*%
%ADD18C,0.07400*%
%ADD19C,0.00800*%
%ADD20OC8,0.02381*%
%ADD21C,0.01600*%
%ADD22C,0.04000*%
%ADD23C,0.03200*%
D10*
X0001400Y0001400D02*
X0001400Y0276991D01*
X0276991Y0276991D01*
X0276991Y0001400D01*
X0001400Y0001400D01*
X0091793Y0034195D02*
X0091797Y0034499D01*
X0091808Y0034804D01*
X0091827Y0035107D01*
X0091853Y0035411D01*
X0091886Y0035713D01*
X0091927Y0036015D01*
X0091976Y0036315D01*
X0092031Y0036615D01*
X0092094Y0036912D01*
X0092165Y0037208D01*
X0092242Y0037503D01*
X0092327Y0037795D01*
X0092419Y0038085D01*
X0092518Y0038373D01*
X0092624Y0038658D01*
X0092737Y0038941D01*
X0092857Y0039221D01*
X0092984Y0039498D01*
X0093117Y0039771D01*
X0093257Y0040041D01*
X0093404Y0040308D01*
X0093557Y0040571D01*
X0093717Y0040830D01*
X0093883Y0041085D01*
X0094055Y0041336D01*
X0094234Y0041583D01*
X0094418Y0041825D01*
X0094608Y0042063D01*
X0094804Y0042296D01*
X0095006Y0042524D01*
X0095213Y0042747D01*
X0095425Y0042965D01*
X0095643Y0043177D01*
X0095866Y0043384D01*
X0096094Y0043586D01*
X0096327Y0043782D01*
X0096565Y0043972D01*
X0096807Y0044156D01*
X0097054Y0044335D01*
X0097305Y0044507D01*
X0097560Y0044673D01*
X0097819Y0044833D01*
X0098082Y0044986D01*
X0098349Y0045133D01*
X0098619Y0045273D01*
X0098892Y0045406D01*
X0099169Y0045533D01*
X0099449Y0045653D01*
X0099732Y0045766D01*
X0100017Y0045872D01*
X0100305Y0045971D01*
X0100595Y0046063D01*
X0100887Y0046148D01*
X0101182Y0046225D01*
X0101478Y0046296D01*
X0101775Y0046359D01*
X0102075Y0046414D01*
X0102375Y0046463D01*
X0102677Y0046504D01*
X0102979Y0046537D01*
X0103283Y0046563D01*
X0103586Y0046582D01*
X0103891Y0046593D01*
X0104195Y0046597D01*
X0104499Y0046593D01*
X0104804Y0046582D01*
X0105107Y0046563D01*
X0105411Y0046537D01*
X0105713Y0046504D01*
X0106015Y0046463D01*
X0106315Y0046414D01*
X0106615Y0046359D01*
X0106912Y0046296D01*
X0107208Y0046225D01*
X0107503Y0046148D01*
X0107795Y0046063D01*
X0108085Y0045971D01*
X0108373Y0045872D01*
X0108658Y0045766D01*
X0108941Y0045653D01*
X0109221Y0045533D01*
X0109498Y0045406D01*
X0109771Y0045273D01*
X0110041Y0045133D01*
X0110308Y0044986D01*
X0110571Y0044833D01*
X0110830Y0044673D01*
X0111085Y0044507D01*
X0111336Y0044335D01*
X0111583Y0044156D01*
X0111825Y0043972D01*
X0112063Y0043782D01*
X0112296Y0043586D01*
X0112524Y0043384D01*
X0112747Y0043177D01*
X0112965Y0042965D01*
X0113177Y0042747D01*
X0113384Y0042524D01*
X0113586Y0042296D01*
X0113782Y0042063D01*
X0113972Y0041825D01*
X0114156Y0041583D01*
X0114335Y0041336D01*
X0114507Y0041085D01*
X0114673Y0040830D01*
X0114833Y0040571D01*
X0114986Y0040308D01*
X0115133Y0040041D01*
X0115273Y0039771D01*
X0115406Y0039498D01*
X0115533Y0039221D01*
X0115653Y0038941D01*
X0115766Y0038658D01*
X0115872Y0038373D01*
X0115971Y0038085D01*
X0116063Y0037795D01*
X0116148Y0037503D01*
X0116225Y0037208D01*
X0116296Y0036912D01*
X0116359Y0036615D01*
X0116414Y0036315D01*
X0116463Y0036015D01*
X0116504Y0035713D01*
X0116537Y0035411D01*
X0116563Y0035107D01*
X0116582Y0034804D01*
X0116593Y0034499D01*
X0116597Y0034195D01*
X0116593Y0033891D01*
X0116582Y0033586D01*
X0116563Y0033283D01*
X0116537Y0032979D01*
X0116504Y0032677D01*
X0116463Y0032375D01*
X0116414Y0032075D01*
X0116359Y0031775D01*
X0116296Y0031478D01*
X0116225Y0031182D01*
X0116148Y0030887D01*
X0116063Y0030595D01*
X0115971Y0030305D01*
X0115872Y0030017D01*
X0115766Y0029732D01*
X0115653Y0029449D01*
X0115533Y0029169D01*
X0115406Y0028892D01*
X0115273Y0028619D01*
X0115133Y0028349D01*
X0114986Y0028082D01*
X0114833Y0027819D01*
X0114673Y0027560D01*
X0114507Y0027305D01*
X0114335Y0027054D01*
X0114156Y0026807D01*
X0113972Y0026565D01*
X0113782Y0026327D01*
X0113586Y0026094D01*
X0113384Y0025866D01*
X0113177Y0025643D01*
X0112965Y0025425D01*
X0112747Y0025213D01*
X0112524Y0025006D01*
X0112296Y0024804D01*
X0112063Y0024608D01*
X0111825Y0024418D01*
X0111583Y0024234D01*
X0111336Y0024055D01*
X0111085Y0023883D01*
X0110830Y0023717D01*
X0110571Y0023557D01*
X0110308Y0023404D01*
X0110041Y0023257D01*
X0109771Y0023117D01*
X0109498Y0022984D01*
X0109221Y0022857D01*
X0108941Y0022737D01*
X0108658Y0022624D01*
X0108373Y0022518D01*
X0108085Y0022419D01*
X0107795Y0022327D01*
X0107503Y0022242D01*
X0107208Y0022165D01*
X0106912Y0022094D01*
X0106615Y0022031D01*
X0106315Y0021976D01*
X0106015Y0021927D01*
X0105713Y0021886D01*
X0105411Y0021853D01*
X0105107Y0021827D01*
X0104804Y0021808D01*
X0104499Y0021797D01*
X0104195Y0021793D01*
X0103891Y0021797D01*
X0103586Y0021808D01*
X0103283Y0021827D01*
X0102979Y0021853D01*
X0102677Y0021886D01*
X0102375Y0021927D01*
X0102075Y0021976D01*
X0101775Y0022031D01*
X0101478Y0022094D01*
X0101182Y0022165D01*
X0100887Y0022242D01*
X0100595Y0022327D01*
X0100305Y0022419D01*
X0100017Y0022518D01*
X0099732Y0022624D01*
X0099449Y0022737D01*
X0099169Y0022857D01*
X0098892Y0022984D01*
X0098619Y0023117D01*
X0098349Y0023257D01*
X0098082Y0023404D01*
X0097819Y0023557D01*
X0097560Y0023717D01*
X0097305Y0023883D01*
X0097054Y0024055D01*
X0096807Y0024234D01*
X0096565Y0024418D01*
X0096327Y0024608D01*
X0096094Y0024804D01*
X0095866Y0025006D01*
X0095643Y0025213D01*
X0095425Y0025425D01*
X0095213Y0025643D01*
X0095006Y0025866D01*
X0094804Y0026094D01*
X0094608Y0026327D01*
X0094418Y0026565D01*
X0094234Y0026807D01*
X0094055Y0027054D01*
X0093883Y0027305D01*
X0093717Y0027560D01*
X0093557Y0027819D01*
X0093404Y0028082D01*
X0093257Y0028349D01*
X0093117Y0028619D01*
X0092984Y0028892D01*
X0092857Y0029169D01*
X0092737Y0029449D01*
X0092624Y0029732D01*
X0092518Y0030017D01*
X0092419Y0030305D01*
X0092327Y0030595D01*
X0092242Y0030887D01*
X0092165Y0031182D01*
X0092094Y0031478D01*
X0092031Y0031775D01*
X0091976Y0032075D01*
X0091927Y0032375D01*
X0091886Y0032677D01*
X0091853Y0032979D01*
X0091827Y0033283D01*
X0091808Y0033586D01*
X0091797Y0033891D01*
X0091793Y0034195D01*
X0161793Y0034195D02*
X0161797Y0034499D01*
X0161808Y0034804D01*
X0161827Y0035107D01*
X0161853Y0035411D01*
X0161886Y0035713D01*
X0161927Y0036015D01*
X0161976Y0036315D01*
X0162031Y0036615D01*
X0162094Y0036912D01*
X0162165Y0037208D01*
X0162242Y0037503D01*
X0162327Y0037795D01*
X0162419Y0038085D01*
X0162518Y0038373D01*
X0162624Y0038658D01*
X0162737Y0038941D01*
X0162857Y0039221D01*
X0162984Y0039498D01*
X0163117Y0039771D01*
X0163257Y0040041D01*
X0163404Y0040308D01*
X0163557Y0040571D01*
X0163717Y0040830D01*
X0163883Y0041085D01*
X0164055Y0041336D01*
X0164234Y0041583D01*
X0164418Y0041825D01*
X0164608Y0042063D01*
X0164804Y0042296D01*
X0165006Y0042524D01*
X0165213Y0042747D01*
X0165425Y0042965D01*
X0165643Y0043177D01*
X0165866Y0043384D01*
X0166094Y0043586D01*
X0166327Y0043782D01*
X0166565Y0043972D01*
X0166807Y0044156D01*
X0167054Y0044335D01*
X0167305Y0044507D01*
X0167560Y0044673D01*
X0167819Y0044833D01*
X0168082Y0044986D01*
X0168349Y0045133D01*
X0168619Y0045273D01*
X0168892Y0045406D01*
X0169169Y0045533D01*
X0169449Y0045653D01*
X0169732Y0045766D01*
X0170017Y0045872D01*
X0170305Y0045971D01*
X0170595Y0046063D01*
X0170887Y0046148D01*
X0171182Y0046225D01*
X0171478Y0046296D01*
X0171775Y0046359D01*
X0172075Y0046414D01*
X0172375Y0046463D01*
X0172677Y0046504D01*
X0172979Y0046537D01*
X0173283Y0046563D01*
X0173586Y0046582D01*
X0173891Y0046593D01*
X0174195Y0046597D01*
X0174499Y0046593D01*
X0174804Y0046582D01*
X0175107Y0046563D01*
X0175411Y0046537D01*
X0175713Y0046504D01*
X0176015Y0046463D01*
X0176315Y0046414D01*
X0176615Y0046359D01*
X0176912Y0046296D01*
X0177208Y0046225D01*
X0177503Y0046148D01*
X0177795Y0046063D01*
X0178085Y0045971D01*
X0178373Y0045872D01*
X0178658Y0045766D01*
X0178941Y0045653D01*
X0179221Y0045533D01*
X0179498Y0045406D01*
X0179771Y0045273D01*
X0180041Y0045133D01*
X0180308Y0044986D01*
X0180571Y0044833D01*
X0180830Y0044673D01*
X0181085Y0044507D01*
X0181336Y0044335D01*
X0181583Y0044156D01*
X0181825Y0043972D01*
X0182063Y0043782D01*
X0182296Y0043586D01*
X0182524Y0043384D01*
X0182747Y0043177D01*
X0182965Y0042965D01*
X0183177Y0042747D01*
X0183384Y0042524D01*
X0183586Y0042296D01*
X0183782Y0042063D01*
X0183972Y0041825D01*
X0184156Y0041583D01*
X0184335Y0041336D01*
X0184507Y0041085D01*
X0184673Y0040830D01*
X0184833Y0040571D01*
X0184986Y0040308D01*
X0185133Y0040041D01*
X0185273Y0039771D01*
X0185406Y0039498D01*
X0185533Y0039221D01*
X0185653Y0038941D01*
X0185766Y0038658D01*
X0185872Y0038373D01*
X0185971Y0038085D01*
X0186063Y0037795D01*
X0186148Y0037503D01*
X0186225Y0037208D01*
X0186296Y0036912D01*
X0186359Y0036615D01*
X0186414Y0036315D01*
X0186463Y0036015D01*
X0186504Y0035713D01*
X0186537Y0035411D01*
X0186563Y0035107D01*
X0186582Y0034804D01*
X0186593Y0034499D01*
X0186597Y0034195D01*
X0186593Y0033891D01*
X0186582Y0033586D01*
X0186563Y0033283D01*
X0186537Y0032979D01*
X0186504Y0032677D01*
X0186463Y0032375D01*
X0186414Y0032075D01*
X0186359Y0031775D01*
X0186296Y0031478D01*
X0186225Y0031182D01*
X0186148Y0030887D01*
X0186063Y0030595D01*
X0185971Y0030305D01*
X0185872Y0030017D01*
X0185766Y0029732D01*
X0185653Y0029449D01*
X0185533Y0029169D01*
X0185406Y0028892D01*
X0185273Y0028619D01*
X0185133Y0028349D01*
X0184986Y0028082D01*
X0184833Y0027819D01*
X0184673Y0027560D01*
X0184507Y0027305D01*
X0184335Y0027054D01*
X0184156Y0026807D01*
X0183972Y0026565D01*
X0183782Y0026327D01*
X0183586Y0026094D01*
X0183384Y0025866D01*
X0183177Y0025643D01*
X0182965Y0025425D01*
X0182747Y0025213D01*
X0182524Y0025006D01*
X0182296Y0024804D01*
X0182063Y0024608D01*
X0181825Y0024418D01*
X0181583Y0024234D01*
X0181336Y0024055D01*
X0181085Y0023883D01*
X0180830Y0023717D01*
X0180571Y0023557D01*
X0180308Y0023404D01*
X0180041Y0023257D01*
X0179771Y0023117D01*
X0179498Y0022984D01*
X0179221Y0022857D01*
X0178941Y0022737D01*
X0178658Y0022624D01*
X0178373Y0022518D01*
X0178085Y0022419D01*
X0177795Y0022327D01*
X0177503Y0022242D01*
X0177208Y0022165D01*
X0176912Y0022094D01*
X0176615Y0022031D01*
X0176315Y0021976D01*
X0176015Y0021927D01*
X0175713Y0021886D01*
X0175411Y0021853D01*
X0175107Y0021827D01*
X0174804Y0021808D01*
X0174499Y0021797D01*
X0174195Y0021793D01*
X0173891Y0021797D01*
X0173586Y0021808D01*
X0173283Y0021827D01*
X0172979Y0021853D01*
X0172677Y0021886D01*
X0172375Y0021927D01*
X0172075Y0021976D01*
X0171775Y0022031D01*
X0171478Y0022094D01*
X0171182Y0022165D01*
X0170887Y0022242D01*
X0170595Y0022327D01*
X0170305Y0022419D01*
X0170017Y0022518D01*
X0169732Y0022624D01*
X0169449Y0022737D01*
X0169169Y0022857D01*
X0168892Y0022984D01*
X0168619Y0023117D01*
X0168349Y0023257D01*
X0168082Y0023404D01*
X0167819Y0023557D01*
X0167560Y0023717D01*
X0167305Y0023883D01*
X0167054Y0024055D01*
X0166807Y0024234D01*
X0166565Y0024418D01*
X0166327Y0024608D01*
X0166094Y0024804D01*
X0165866Y0025006D01*
X0165643Y0025213D01*
X0165425Y0025425D01*
X0165213Y0025643D01*
X0165006Y0025866D01*
X0164804Y0026094D01*
X0164608Y0026327D01*
X0164418Y0026565D01*
X0164234Y0026807D01*
X0164055Y0027054D01*
X0163883Y0027305D01*
X0163717Y0027560D01*
X0163557Y0027819D01*
X0163404Y0028082D01*
X0163257Y0028349D01*
X0163117Y0028619D01*
X0162984Y0028892D01*
X0162857Y0029169D01*
X0162737Y0029449D01*
X0162624Y0029732D01*
X0162518Y0030017D01*
X0162419Y0030305D01*
X0162327Y0030595D01*
X0162242Y0030887D01*
X0162165Y0031182D01*
X0162094Y0031478D01*
X0162031Y0031775D01*
X0161976Y0032075D01*
X0161927Y0032375D01*
X0161886Y0032677D01*
X0161853Y0032979D01*
X0161827Y0033283D01*
X0161808Y0033586D01*
X0161797Y0033891D01*
X0161793Y0034195D01*
X0161793Y0244195D02*
X0161797Y0244499D01*
X0161808Y0244804D01*
X0161827Y0245107D01*
X0161853Y0245411D01*
X0161886Y0245713D01*
X0161927Y0246015D01*
X0161976Y0246315D01*
X0162031Y0246615D01*
X0162094Y0246912D01*
X0162165Y0247208D01*
X0162242Y0247503D01*
X0162327Y0247795D01*
X0162419Y0248085D01*
X0162518Y0248373D01*
X0162624Y0248658D01*
X0162737Y0248941D01*
X0162857Y0249221D01*
X0162984Y0249498D01*
X0163117Y0249771D01*
X0163257Y0250041D01*
X0163404Y0250308D01*
X0163557Y0250571D01*
X0163717Y0250830D01*
X0163883Y0251085D01*
X0164055Y0251336D01*
X0164234Y0251583D01*
X0164418Y0251825D01*
X0164608Y0252063D01*
X0164804Y0252296D01*
X0165006Y0252524D01*
X0165213Y0252747D01*
X0165425Y0252965D01*
X0165643Y0253177D01*
X0165866Y0253384D01*
X0166094Y0253586D01*
X0166327Y0253782D01*
X0166565Y0253972D01*
X0166807Y0254156D01*
X0167054Y0254335D01*
X0167305Y0254507D01*
X0167560Y0254673D01*
X0167819Y0254833D01*
X0168082Y0254986D01*
X0168349Y0255133D01*
X0168619Y0255273D01*
X0168892Y0255406D01*
X0169169Y0255533D01*
X0169449Y0255653D01*
X0169732Y0255766D01*
X0170017Y0255872D01*
X0170305Y0255971D01*
X0170595Y0256063D01*
X0170887Y0256148D01*
X0171182Y0256225D01*
X0171478Y0256296D01*
X0171775Y0256359D01*
X0172075Y0256414D01*
X0172375Y0256463D01*
X0172677Y0256504D01*
X0172979Y0256537D01*
X0173283Y0256563D01*
X0173586Y0256582D01*
X0173891Y0256593D01*
X0174195Y0256597D01*
X0174499Y0256593D01*
X0174804Y0256582D01*
X0175107Y0256563D01*
X0175411Y0256537D01*
X0175713Y0256504D01*
X0176015Y0256463D01*
X0176315Y0256414D01*
X0176615Y0256359D01*
X0176912Y0256296D01*
X0177208Y0256225D01*
X0177503Y0256148D01*
X0177795Y0256063D01*
X0178085Y0255971D01*
X0178373Y0255872D01*
X0178658Y0255766D01*
X0178941Y0255653D01*
X0179221Y0255533D01*
X0179498Y0255406D01*
X0179771Y0255273D01*
X0180041Y0255133D01*
X0180308Y0254986D01*
X0180571Y0254833D01*
X0180830Y0254673D01*
X0181085Y0254507D01*
X0181336Y0254335D01*
X0181583Y0254156D01*
X0181825Y0253972D01*
X0182063Y0253782D01*
X0182296Y0253586D01*
X0182524Y0253384D01*
X0182747Y0253177D01*
X0182965Y0252965D01*
X0183177Y0252747D01*
X0183384Y0252524D01*
X0183586Y0252296D01*
X0183782Y0252063D01*
X0183972Y0251825D01*
X0184156Y0251583D01*
X0184335Y0251336D01*
X0184507Y0251085D01*
X0184673Y0250830D01*
X0184833Y0250571D01*
X0184986Y0250308D01*
X0185133Y0250041D01*
X0185273Y0249771D01*
X0185406Y0249498D01*
X0185533Y0249221D01*
X0185653Y0248941D01*
X0185766Y0248658D01*
X0185872Y0248373D01*
X0185971Y0248085D01*
X0186063Y0247795D01*
X0186148Y0247503D01*
X0186225Y0247208D01*
X0186296Y0246912D01*
X0186359Y0246615D01*
X0186414Y0246315D01*
X0186463Y0246015D01*
X0186504Y0245713D01*
X0186537Y0245411D01*
X0186563Y0245107D01*
X0186582Y0244804D01*
X0186593Y0244499D01*
X0186597Y0244195D01*
X0186593Y0243891D01*
X0186582Y0243586D01*
X0186563Y0243283D01*
X0186537Y0242979D01*
X0186504Y0242677D01*
X0186463Y0242375D01*
X0186414Y0242075D01*
X0186359Y0241775D01*
X0186296Y0241478D01*
X0186225Y0241182D01*
X0186148Y0240887D01*
X0186063Y0240595D01*
X0185971Y0240305D01*
X0185872Y0240017D01*
X0185766Y0239732D01*
X0185653Y0239449D01*
X0185533Y0239169D01*
X0185406Y0238892D01*
X0185273Y0238619D01*
X0185133Y0238349D01*
X0184986Y0238082D01*
X0184833Y0237819D01*
X0184673Y0237560D01*
X0184507Y0237305D01*
X0184335Y0237054D01*
X0184156Y0236807D01*
X0183972Y0236565D01*
X0183782Y0236327D01*
X0183586Y0236094D01*
X0183384Y0235866D01*
X0183177Y0235643D01*
X0182965Y0235425D01*
X0182747Y0235213D01*
X0182524Y0235006D01*
X0182296Y0234804D01*
X0182063Y0234608D01*
X0181825Y0234418D01*
X0181583Y0234234D01*
X0181336Y0234055D01*
X0181085Y0233883D01*
X0180830Y0233717D01*
X0180571Y0233557D01*
X0180308Y0233404D01*
X0180041Y0233257D01*
X0179771Y0233117D01*
X0179498Y0232984D01*
X0179221Y0232857D01*
X0178941Y0232737D01*
X0178658Y0232624D01*
X0178373Y0232518D01*
X0178085Y0232419D01*
X0177795Y0232327D01*
X0177503Y0232242D01*
X0177208Y0232165D01*
X0176912Y0232094D01*
X0176615Y0232031D01*
X0176315Y0231976D01*
X0176015Y0231927D01*
X0175713Y0231886D01*
X0175411Y0231853D01*
X0175107Y0231827D01*
X0174804Y0231808D01*
X0174499Y0231797D01*
X0174195Y0231793D01*
X0173891Y0231797D01*
X0173586Y0231808D01*
X0173283Y0231827D01*
X0172979Y0231853D01*
X0172677Y0231886D01*
X0172375Y0231927D01*
X0172075Y0231976D01*
X0171775Y0232031D01*
X0171478Y0232094D01*
X0171182Y0232165D01*
X0170887Y0232242D01*
X0170595Y0232327D01*
X0170305Y0232419D01*
X0170017Y0232518D01*
X0169732Y0232624D01*
X0169449Y0232737D01*
X0169169Y0232857D01*
X0168892Y0232984D01*
X0168619Y0233117D01*
X0168349Y0233257D01*
X0168082Y0233404D01*
X0167819Y0233557D01*
X0167560Y0233717D01*
X0167305Y0233883D01*
X0167054Y0234055D01*
X0166807Y0234234D01*
X0166565Y0234418D01*
X0166327Y0234608D01*
X0166094Y0234804D01*
X0165866Y0235006D01*
X0165643Y0235213D01*
X0165425Y0235425D01*
X0165213Y0235643D01*
X0165006Y0235866D01*
X0164804Y0236094D01*
X0164608Y0236327D01*
X0164418Y0236565D01*
X0164234Y0236807D01*
X0164055Y0237054D01*
X0163883Y0237305D01*
X0163717Y0237560D01*
X0163557Y0237819D01*
X0163404Y0238082D01*
X0163257Y0238349D01*
X0163117Y0238619D01*
X0162984Y0238892D01*
X0162857Y0239169D01*
X0162737Y0239449D01*
X0162624Y0239732D01*
X0162518Y0240017D01*
X0162419Y0240305D01*
X0162327Y0240595D01*
X0162242Y0240887D01*
X0162165Y0241182D01*
X0162094Y0241478D01*
X0162031Y0241775D01*
X0161976Y0242075D01*
X0161927Y0242375D01*
X0161886Y0242677D01*
X0161853Y0242979D01*
X0161827Y0243283D01*
X0161808Y0243586D01*
X0161797Y0243891D01*
X0161793Y0244195D01*
X0142148Y0270691D02*
X0142150Y0270770D01*
X0142156Y0270849D01*
X0142166Y0270928D01*
X0142180Y0271006D01*
X0142197Y0271083D01*
X0142219Y0271159D01*
X0142244Y0271234D01*
X0142274Y0271307D01*
X0142306Y0271379D01*
X0142343Y0271450D01*
X0142383Y0271518D01*
X0142426Y0271584D01*
X0142472Y0271648D01*
X0142522Y0271710D01*
X0142575Y0271769D01*
X0142630Y0271825D01*
X0142689Y0271879D01*
X0142750Y0271929D01*
X0142813Y0271977D01*
X0142879Y0272021D01*
X0142947Y0272062D01*
X0143017Y0272099D01*
X0143088Y0272133D01*
X0143162Y0272163D01*
X0143236Y0272189D01*
X0143312Y0272211D01*
X0143389Y0272230D01*
X0143467Y0272245D01*
X0143545Y0272256D01*
X0143624Y0272263D01*
X0143703Y0272266D01*
X0143782Y0272265D01*
X0143861Y0272260D01*
X0143940Y0272251D01*
X0144018Y0272238D01*
X0144095Y0272221D01*
X0144172Y0272201D01*
X0144247Y0272176D01*
X0144321Y0272148D01*
X0144394Y0272116D01*
X0144464Y0272081D01*
X0144533Y0272042D01*
X0144600Y0271999D01*
X0144665Y0271953D01*
X0144727Y0271905D01*
X0144787Y0271853D01*
X0144844Y0271798D01*
X0144898Y0271740D01*
X0144949Y0271680D01*
X0144997Y0271617D01*
X0145042Y0271552D01*
X0145084Y0271484D01*
X0145122Y0271415D01*
X0145156Y0271344D01*
X0145187Y0271271D01*
X0145215Y0271196D01*
X0145238Y0271121D01*
X0145258Y0271044D01*
X0145274Y0270967D01*
X0145286Y0270888D01*
X0145294Y0270810D01*
X0145298Y0270731D01*
X0145298Y0270651D01*
X0145294Y0270572D01*
X0145286Y0270494D01*
X0145274Y0270415D01*
X0145258Y0270338D01*
X0145238Y0270261D01*
X0145215Y0270186D01*
X0145187Y0270111D01*
X0145156Y0270038D01*
X0145122Y0269967D01*
X0145084Y0269898D01*
X0145042Y0269830D01*
X0144997Y0269765D01*
X0144949Y0269702D01*
X0144898Y0269642D01*
X0144844Y0269584D01*
X0144787Y0269529D01*
X0144727Y0269477D01*
X0144665Y0269429D01*
X0144600Y0269383D01*
X0144533Y0269340D01*
X0144464Y0269301D01*
X0144394Y0269266D01*
X0144321Y0269234D01*
X0144247Y0269206D01*
X0144172Y0269181D01*
X0144095Y0269161D01*
X0144018Y0269144D01*
X0143940Y0269131D01*
X0143861Y0269122D01*
X0143782Y0269117D01*
X0143703Y0269116D01*
X0143624Y0269119D01*
X0143545Y0269126D01*
X0143467Y0269137D01*
X0143389Y0269152D01*
X0143312Y0269171D01*
X0143236Y0269193D01*
X0143162Y0269219D01*
X0143088Y0269249D01*
X0143017Y0269283D01*
X0142947Y0269320D01*
X0142879Y0269361D01*
X0142813Y0269405D01*
X0142750Y0269453D01*
X0142689Y0269503D01*
X0142630Y0269557D01*
X0142575Y0269613D01*
X0142522Y0269672D01*
X0142472Y0269734D01*
X0142426Y0269798D01*
X0142383Y0269864D01*
X0142343Y0269932D01*
X0142306Y0270003D01*
X0142274Y0270075D01*
X0142244Y0270148D01*
X0142219Y0270223D01*
X0142197Y0270299D01*
X0142180Y0270376D01*
X0142166Y0270454D01*
X0142156Y0270533D01*
X0142150Y0270612D01*
X0142148Y0270691D01*
X0133093Y0270691D02*
X0133095Y0270770D01*
X0133101Y0270849D01*
X0133111Y0270928D01*
X0133125Y0271006D01*
X0133142Y0271083D01*
X0133164Y0271159D01*
X0133189Y0271234D01*
X0133219Y0271307D01*
X0133251Y0271379D01*
X0133288Y0271450D01*
X0133328Y0271518D01*
X0133371Y0271584D01*
X0133417Y0271648D01*
X0133467Y0271710D01*
X0133520Y0271769D01*
X0133575Y0271825D01*
X0133634Y0271879D01*
X0133695Y0271929D01*
X0133758Y0271977D01*
X0133824Y0272021D01*
X0133892Y0272062D01*
X0133962Y0272099D01*
X0134033Y0272133D01*
X0134107Y0272163D01*
X0134181Y0272189D01*
X0134257Y0272211D01*
X0134334Y0272230D01*
X0134412Y0272245D01*
X0134490Y0272256D01*
X0134569Y0272263D01*
X0134648Y0272266D01*
X0134727Y0272265D01*
X0134806Y0272260D01*
X0134885Y0272251D01*
X0134963Y0272238D01*
X0135040Y0272221D01*
X0135117Y0272201D01*
X0135192Y0272176D01*
X0135266Y0272148D01*
X0135339Y0272116D01*
X0135409Y0272081D01*
X0135478Y0272042D01*
X0135545Y0271999D01*
X0135610Y0271953D01*
X0135672Y0271905D01*
X0135732Y0271853D01*
X0135789Y0271798D01*
X0135843Y0271740D01*
X0135894Y0271680D01*
X0135942Y0271617D01*
X0135987Y0271552D01*
X0136029Y0271484D01*
X0136067Y0271415D01*
X0136101Y0271344D01*
X0136132Y0271271D01*
X0136160Y0271196D01*
X0136183Y0271121D01*
X0136203Y0271044D01*
X0136219Y0270967D01*
X0136231Y0270888D01*
X0136239Y0270810D01*
X0136243Y0270731D01*
X0136243Y0270651D01*
X0136239Y0270572D01*
X0136231Y0270494D01*
X0136219Y0270415D01*
X0136203Y0270338D01*
X0136183Y0270261D01*
X0136160Y0270186D01*
X0136132Y0270111D01*
X0136101Y0270038D01*
X0136067Y0269967D01*
X0136029Y0269898D01*
X0135987Y0269830D01*
X0135942Y0269765D01*
X0135894Y0269702D01*
X0135843Y0269642D01*
X0135789Y0269584D01*
X0135732Y0269529D01*
X0135672Y0269477D01*
X0135610Y0269429D01*
X0135545Y0269383D01*
X0135478Y0269340D01*
X0135409Y0269301D01*
X0135339Y0269266D01*
X0135266Y0269234D01*
X0135192Y0269206D01*
X0135117Y0269181D01*
X0135040Y0269161D01*
X0134963Y0269144D01*
X0134885Y0269131D01*
X0134806Y0269122D01*
X0134727Y0269117D01*
X0134648Y0269116D01*
X0134569Y0269119D01*
X0134490Y0269126D01*
X0134412Y0269137D01*
X0134334Y0269152D01*
X0134257Y0269171D01*
X0134181Y0269193D01*
X0134107Y0269219D01*
X0134033Y0269249D01*
X0133962Y0269283D01*
X0133892Y0269320D01*
X0133824Y0269361D01*
X0133758Y0269405D01*
X0133695Y0269453D01*
X0133634Y0269503D01*
X0133575Y0269557D01*
X0133520Y0269613D01*
X0133467Y0269672D01*
X0133417Y0269734D01*
X0133371Y0269798D01*
X0133328Y0269864D01*
X0133288Y0269932D01*
X0133251Y0270003D01*
X0133219Y0270075D01*
X0133189Y0270148D01*
X0133164Y0270223D01*
X0133142Y0270299D01*
X0133125Y0270376D01*
X0133111Y0270454D01*
X0133101Y0270533D01*
X0133095Y0270612D01*
X0133093Y0270691D01*
X0091793Y0244195D02*
X0091797Y0244499D01*
X0091808Y0244804D01*
X0091827Y0245107D01*
X0091853Y0245411D01*
X0091886Y0245713D01*
X0091927Y0246015D01*
X0091976Y0246315D01*
X0092031Y0246615D01*
X0092094Y0246912D01*
X0092165Y0247208D01*
X0092242Y0247503D01*
X0092327Y0247795D01*
X0092419Y0248085D01*
X0092518Y0248373D01*
X0092624Y0248658D01*
X0092737Y0248941D01*
X0092857Y0249221D01*
X0092984Y0249498D01*
X0093117Y0249771D01*
X0093257Y0250041D01*
X0093404Y0250308D01*
X0093557Y0250571D01*
X0093717Y0250830D01*
X0093883Y0251085D01*
X0094055Y0251336D01*
X0094234Y0251583D01*
X0094418Y0251825D01*
X0094608Y0252063D01*
X0094804Y0252296D01*
X0095006Y0252524D01*
X0095213Y0252747D01*
X0095425Y0252965D01*
X0095643Y0253177D01*
X0095866Y0253384D01*
X0096094Y0253586D01*
X0096327Y0253782D01*
X0096565Y0253972D01*
X0096807Y0254156D01*
X0097054Y0254335D01*
X0097305Y0254507D01*
X0097560Y0254673D01*
X0097819Y0254833D01*
X0098082Y0254986D01*
X0098349Y0255133D01*
X0098619Y0255273D01*
X0098892Y0255406D01*
X0099169Y0255533D01*
X0099449Y0255653D01*
X0099732Y0255766D01*
X0100017Y0255872D01*
X0100305Y0255971D01*
X0100595Y0256063D01*
X0100887Y0256148D01*
X0101182Y0256225D01*
X0101478Y0256296D01*
X0101775Y0256359D01*
X0102075Y0256414D01*
X0102375Y0256463D01*
X0102677Y0256504D01*
X0102979Y0256537D01*
X0103283Y0256563D01*
X0103586Y0256582D01*
X0103891Y0256593D01*
X0104195Y0256597D01*
X0104499Y0256593D01*
X0104804Y0256582D01*
X0105107Y0256563D01*
X0105411Y0256537D01*
X0105713Y0256504D01*
X0106015Y0256463D01*
X0106315Y0256414D01*
X0106615Y0256359D01*
X0106912Y0256296D01*
X0107208Y0256225D01*
X0107503Y0256148D01*
X0107795Y0256063D01*
X0108085Y0255971D01*
X0108373Y0255872D01*
X0108658Y0255766D01*
X0108941Y0255653D01*
X0109221Y0255533D01*
X0109498Y0255406D01*
X0109771Y0255273D01*
X0110041Y0255133D01*
X0110308Y0254986D01*
X0110571Y0254833D01*
X0110830Y0254673D01*
X0111085Y0254507D01*
X0111336Y0254335D01*
X0111583Y0254156D01*
X0111825Y0253972D01*
X0112063Y0253782D01*
X0112296Y0253586D01*
X0112524Y0253384D01*
X0112747Y0253177D01*
X0112965Y0252965D01*
X0113177Y0252747D01*
X0113384Y0252524D01*
X0113586Y0252296D01*
X0113782Y0252063D01*
X0113972Y0251825D01*
X0114156Y0251583D01*
X0114335Y0251336D01*
X0114507Y0251085D01*
X0114673Y0250830D01*
X0114833Y0250571D01*
X0114986Y0250308D01*
X0115133Y0250041D01*
X0115273Y0249771D01*
X0115406Y0249498D01*
X0115533Y0249221D01*
X0115653Y0248941D01*
X0115766Y0248658D01*
X0115872Y0248373D01*
X0115971Y0248085D01*
X0116063Y0247795D01*
X0116148Y0247503D01*
X0116225Y0247208D01*
X0116296Y0246912D01*
X0116359Y0246615D01*
X0116414Y0246315D01*
X0116463Y0246015D01*
X0116504Y0245713D01*
X0116537Y0245411D01*
X0116563Y0245107D01*
X0116582Y0244804D01*
X0116593Y0244499D01*
X0116597Y0244195D01*
X0116593Y0243891D01*
X0116582Y0243586D01*
X0116563Y0243283D01*
X0116537Y0242979D01*
X0116504Y0242677D01*
X0116463Y0242375D01*
X0116414Y0242075D01*
X0116359Y0241775D01*
X0116296Y0241478D01*
X0116225Y0241182D01*
X0116148Y0240887D01*
X0116063Y0240595D01*
X0115971Y0240305D01*
X0115872Y0240017D01*
X0115766Y0239732D01*
X0115653Y0239449D01*
X0115533Y0239169D01*
X0115406Y0238892D01*
X0115273Y0238619D01*
X0115133Y0238349D01*
X0114986Y0238082D01*
X0114833Y0237819D01*
X0114673Y0237560D01*
X0114507Y0237305D01*
X0114335Y0237054D01*
X0114156Y0236807D01*
X0113972Y0236565D01*
X0113782Y0236327D01*
X0113586Y0236094D01*
X0113384Y0235866D01*
X0113177Y0235643D01*
X0112965Y0235425D01*
X0112747Y0235213D01*
X0112524Y0235006D01*
X0112296Y0234804D01*
X0112063Y0234608D01*
X0111825Y0234418D01*
X0111583Y0234234D01*
X0111336Y0234055D01*
X0111085Y0233883D01*
X0110830Y0233717D01*
X0110571Y0233557D01*
X0110308Y0233404D01*
X0110041Y0233257D01*
X0109771Y0233117D01*
X0109498Y0232984D01*
X0109221Y0232857D01*
X0108941Y0232737D01*
X0108658Y0232624D01*
X0108373Y0232518D01*
X0108085Y0232419D01*
X0107795Y0232327D01*
X0107503Y0232242D01*
X0107208Y0232165D01*
X0106912Y0232094D01*
X0106615Y0232031D01*
X0106315Y0231976D01*
X0106015Y0231927D01*
X0105713Y0231886D01*
X0105411Y0231853D01*
X0105107Y0231827D01*
X0104804Y0231808D01*
X0104499Y0231797D01*
X0104195Y0231793D01*
X0103891Y0231797D01*
X0103586Y0231808D01*
X0103283Y0231827D01*
X0102979Y0231853D01*
X0102677Y0231886D01*
X0102375Y0231927D01*
X0102075Y0231976D01*
X0101775Y0232031D01*
X0101478Y0232094D01*
X0101182Y0232165D01*
X0100887Y0232242D01*
X0100595Y0232327D01*
X0100305Y0232419D01*
X0100017Y0232518D01*
X0099732Y0232624D01*
X0099449Y0232737D01*
X0099169Y0232857D01*
X0098892Y0232984D01*
X0098619Y0233117D01*
X0098349Y0233257D01*
X0098082Y0233404D01*
X0097819Y0233557D01*
X0097560Y0233717D01*
X0097305Y0233883D01*
X0097054Y0234055D01*
X0096807Y0234234D01*
X0096565Y0234418D01*
X0096327Y0234608D01*
X0096094Y0234804D01*
X0095866Y0235006D01*
X0095643Y0235213D01*
X0095425Y0235425D01*
X0095213Y0235643D01*
X0095006Y0235866D01*
X0094804Y0236094D01*
X0094608Y0236327D01*
X0094418Y0236565D01*
X0094234Y0236807D01*
X0094055Y0237054D01*
X0093883Y0237305D01*
X0093717Y0237560D01*
X0093557Y0237819D01*
X0093404Y0238082D01*
X0093257Y0238349D01*
X0093117Y0238619D01*
X0092984Y0238892D01*
X0092857Y0239169D01*
X0092737Y0239449D01*
X0092624Y0239732D01*
X0092518Y0240017D01*
X0092419Y0240305D01*
X0092327Y0240595D01*
X0092242Y0240887D01*
X0092165Y0241182D01*
X0092094Y0241478D01*
X0092031Y0241775D01*
X0091976Y0242075D01*
X0091927Y0242375D01*
X0091886Y0242677D01*
X0091853Y0242979D01*
X0091827Y0243283D01*
X0091808Y0243586D01*
X0091797Y0243891D01*
X0091793Y0244195D01*
D11*
X0251715Y0245298D03*
X0261715Y0243093D03*
X0271715Y0245298D03*
X0026676Y0034195D03*
X0016676Y0034195D03*
X0006676Y0034195D03*
D12*
X0034195Y0009274D03*
X0104195Y0009274D03*
X0174195Y0009274D03*
X0244195Y0009274D03*
X0269117Y0034195D03*
X0269117Y0104195D03*
X0269117Y0174195D03*
X0244195Y0269117D03*
X0174195Y0269117D03*
X0104195Y0269117D03*
X0034195Y0269117D03*
X0009274Y0244195D03*
X0009274Y0174195D03*
X0009274Y0104195D03*
D13*
X0125120Y0140613D03*
X0153270Y0140613D03*
D14*
X0144313Y0140180D03*
X0141754Y0136243D03*
X0139195Y0140180D03*
X0136636Y0136243D03*
X0134077Y0140180D03*
D15*
X0181502Y0168723D03*
D16*
X0183502Y0178723D03*
X0181502Y0188723D03*
X0183502Y0198723D03*
X0181502Y0208723D03*
X0183502Y0218723D03*
D17*
X0143132Y0088014D03*
X0135258Y0088014D03*
X0036833Y0154943D03*
X0036833Y0162817D03*
D18*
X0048644Y0265180D03*
X0058644Y0265180D03*
D19*
X0058244Y0265360D02*
X0053544Y0265360D01*
X0053544Y0265580D02*
X0058244Y0265580D01*
X0058244Y0270280D01*
X0058243Y0270280D01*
X0057450Y0270154D01*
X0056686Y0269906D01*
X0055971Y0269541D01*
X0055322Y0269070D01*
X0054754Y0268502D01*
X0054282Y0267853D01*
X0053918Y0267137D01*
X0053670Y0266374D01*
X0053544Y0265581D01*
X0053544Y0265580D01*
X0053544Y0266154D02*
X0053544Y0264205D01*
X0052798Y0262404D01*
X0051420Y0261026D01*
X0049619Y0260280D01*
X0047669Y0260280D01*
X0045868Y0261026D01*
X0044490Y0262404D01*
X0043744Y0264205D01*
X0043744Y0266154D01*
X0044490Y0267955D01*
X0045868Y0269334D01*
X0047669Y0270080D01*
X0049619Y0270080D01*
X0051420Y0269334D01*
X0052798Y0267955D01*
X0053544Y0266154D01*
X0053542Y0266159D02*
X0053636Y0266159D01*
X0053859Y0266957D02*
X0053212Y0266957D01*
X0052881Y0267756D02*
X0054233Y0267756D01*
X0054806Y0268554D02*
X0052199Y0268554D01*
X0051374Y0269353D02*
X0055711Y0269353D01*
X0057441Y0270151D02*
X0043501Y0270151D01*
X0043501Y0269517D02*
X0043501Y0275591D01*
X0094890Y0275591D01*
X0094890Y0269517D01*
X0103795Y0269517D01*
X0103795Y0268717D01*
X0094890Y0268717D01*
X0094890Y0261027D01*
X0094985Y0260671D01*
X0095169Y0260351D01*
X0095430Y0260091D01*
X0095749Y0259906D01*
X0096105Y0259811D01*
X0103795Y0259811D01*
X0103795Y0268716D01*
X0104595Y0268716D01*
X0104595Y0259811D01*
X0112285Y0259811D01*
X0112641Y0259906D01*
X0112960Y0260091D01*
X0113221Y0260351D01*
X0113405Y0260671D01*
X0113501Y0261027D01*
X0113501Y0268717D01*
X0104595Y0268717D01*
X0104595Y0269517D01*
X0113501Y0269517D01*
X0113501Y0275591D01*
X0164890Y0275591D01*
X0164890Y0269517D01*
X0173795Y0269517D01*
X0173795Y0268717D01*
X0164890Y0268717D01*
X0164890Y0261027D01*
X0164985Y0260671D01*
X0165169Y0260351D01*
X0165430Y0260091D01*
X0165749Y0259906D01*
X0166105Y0259811D01*
X0173795Y0259811D01*
X0173795Y0268716D01*
X0174595Y0268716D01*
X0174595Y0259811D01*
X0182285Y0259811D01*
X0182641Y0259906D01*
X0182960Y0260091D01*
X0183221Y0260351D01*
X0183405Y0260671D01*
X0183501Y0261027D01*
X0183501Y0268717D01*
X0174595Y0268717D01*
X0174595Y0269517D01*
X0183501Y0269517D01*
X0183501Y0275591D01*
X0234890Y0275591D01*
X0234890Y0269517D01*
X0243795Y0269517D01*
X0243795Y0268717D01*
X0234890Y0268717D01*
X0234890Y0261027D01*
X0234985Y0260671D01*
X0235169Y0260351D01*
X0235430Y0260091D01*
X0235749Y0259906D01*
X0236105Y0259811D01*
X0243795Y0259811D01*
X0243795Y0268716D01*
X0244595Y0268716D01*
X0244595Y0259811D01*
X0252285Y0259811D01*
X0252641Y0259906D01*
X0252960Y0260091D01*
X0253221Y0260351D01*
X0253405Y0260671D01*
X0253501Y0261027D01*
X0253501Y0268717D01*
X0244595Y0268717D01*
X0244595Y0269517D01*
X0253501Y0269517D01*
X0253501Y0275591D01*
X0275591Y0275591D01*
X0275591Y0247317D01*
X0273442Y0249466D01*
X0269988Y0249466D01*
X0267546Y0247024D01*
X0267546Y0243571D01*
X0269988Y0241129D01*
X0273442Y0241129D01*
X0275591Y0243278D01*
X0275591Y0183501D01*
X0269517Y0183501D01*
X0269517Y0174595D01*
X0268717Y0174595D01*
X0268717Y0183501D01*
X0261027Y0183501D01*
X0260671Y0183405D01*
X0260351Y0183221D01*
X0260091Y0182960D01*
X0259906Y0182641D01*
X0259811Y0182285D01*
X0259811Y0174595D01*
X0268716Y0174595D01*
X0268716Y0173795D01*
X0259811Y0173795D01*
X0259811Y0166105D01*
X0259906Y0165749D01*
X0260091Y0165430D01*
X0260351Y0165169D01*
X0260671Y0164985D01*
X0261027Y0164890D01*
X0268717Y0164890D01*
X0268717Y0173795D01*
X0269517Y0173795D01*
X0269517Y0164890D01*
X0275591Y0164890D01*
X0275591Y0113501D01*
X0269517Y0113501D01*
X0269517Y0104595D01*
X0268717Y0104595D01*
X0268717Y0113501D01*
X0261027Y0113501D01*
X0260671Y0113405D01*
X0260351Y0113221D01*
X0260091Y0112960D01*
X0259906Y0112641D01*
X0259811Y0112285D01*
X0259811Y0104595D01*
X0268716Y0104595D01*
X0268716Y0103795D01*
X0259811Y0103795D01*
X0259811Y0096105D01*
X0259906Y0095749D01*
X0260091Y0095430D01*
X0260351Y0095169D01*
X0260671Y0094985D01*
X0261027Y0094890D01*
X0268717Y0094890D01*
X0268717Y0103795D01*
X0269517Y0103795D01*
X0269517Y0094890D01*
X0275591Y0094890D01*
X0275591Y0043501D01*
X0269517Y0043501D01*
X0269517Y0034595D01*
X0268717Y0034595D01*
X0268717Y0043501D01*
X0261027Y0043501D01*
X0260671Y0043405D01*
X0260351Y0043221D01*
X0260091Y0042960D01*
X0259906Y0042641D01*
X0259811Y0042285D01*
X0259811Y0034595D01*
X0268716Y0034595D01*
X0268716Y0033795D01*
X0259811Y0033795D01*
X0259811Y0026105D01*
X0259906Y0025749D01*
X0260091Y0025430D01*
X0260351Y0025169D01*
X0260671Y0024985D01*
X0261027Y0024890D01*
X0268717Y0024890D01*
X0268717Y0033795D01*
X0269517Y0033795D01*
X0269517Y0024890D01*
X0275591Y0024890D01*
X0275591Y0002800D01*
X0253501Y0002800D01*
X0253501Y0008874D01*
X0244595Y0008874D01*
X0244595Y0009674D01*
X0243795Y0009674D01*
X0243795Y0008874D01*
X0234890Y0008874D01*
X0234890Y0002800D01*
X0183501Y0002800D01*
X0183501Y0008874D01*
X0174595Y0008874D01*
X0174595Y0009674D01*
X0173795Y0009674D01*
X0173795Y0008874D01*
X0164890Y0008874D01*
X0164890Y0002800D01*
X0113501Y0002800D01*
X0113501Y0008874D01*
X0104595Y0008874D01*
X0104595Y0009674D01*
X0103795Y0009674D01*
X0103795Y0008874D01*
X0094890Y0008874D01*
X0094890Y0002800D01*
X0043501Y0002800D01*
X0043501Y0008874D01*
X0034595Y0008874D01*
X0034595Y0009674D01*
X0033795Y0009674D01*
X0033795Y0008874D01*
X0024890Y0008874D01*
X0024890Y0002800D01*
X0002800Y0002800D01*
X0002800Y0032176D01*
X0004949Y0030027D01*
X0008402Y0030027D01*
X0010844Y0032469D01*
X0010844Y0035922D01*
X0008402Y0038364D01*
X0004949Y0038364D01*
X0002800Y0036215D01*
X0002800Y0094890D01*
X0008874Y0094890D01*
X0008874Y0103795D01*
X0009674Y0103795D01*
X0009674Y0094890D01*
X0017364Y0094890D01*
X0017720Y0094985D01*
X0018039Y0095169D01*
X0018300Y0095430D01*
X0018484Y0095749D01*
X0018580Y0096105D01*
X0018580Y0103795D01*
X0009674Y0103795D01*
X0009674Y0104595D01*
X0018580Y0104595D01*
X0018580Y0112285D01*
X0018484Y0112641D01*
X0018300Y0112960D01*
X0018039Y0113221D01*
X0017720Y0113405D01*
X0017364Y0113501D01*
X0009674Y0113501D01*
X0009674Y0104595D01*
X0008874Y0104595D01*
X0008874Y0113501D01*
X0002800Y0113501D01*
X0002800Y0164890D01*
X0008874Y0164890D01*
X0008874Y0173795D01*
X0009674Y0173795D01*
X0009674Y0164890D01*
X0017364Y0164890D01*
X0017720Y0164985D01*
X0018039Y0165169D01*
X0018300Y0165430D01*
X0018484Y0165749D01*
X0018580Y0166105D01*
X0018580Y0173795D01*
X0009674Y0173795D01*
X0009674Y0174595D01*
X0018580Y0174595D01*
X0018580Y0182285D01*
X0018484Y0182641D01*
X0018300Y0182960D01*
X0018039Y0183221D01*
X0017720Y0183405D01*
X0017364Y0183501D01*
X0009674Y0183501D01*
X0009674Y0174595D01*
X0008874Y0174595D01*
X0008874Y0183501D01*
X0002800Y0183501D01*
X0002800Y0234890D01*
X0008874Y0234890D01*
X0008874Y0243795D01*
X0009674Y0243795D01*
X0009674Y0234890D01*
X0017364Y0234890D01*
X0017720Y0234985D01*
X0018039Y0235169D01*
X0018300Y0235430D01*
X0018484Y0235749D01*
X0018580Y0236105D01*
X0018580Y0243795D01*
X0009674Y0243795D01*
X0009674Y0244595D01*
X0018580Y0244595D01*
X0018580Y0252285D01*
X0018484Y0252641D01*
X0018300Y0252960D01*
X0018039Y0253221D01*
X0017720Y0253405D01*
X0017364Y0253501D01*
X0009674Y0253501D01*
X0009674Y0244595D01*
X0008874Y0244595D01*
X0008874Y0253501D01*
X0002800Y0253501D01*
X0002800Y0275591D01*
X0024890Y0275591D01*
X0024890Y0269517D01*
X0033795Y0269517D01*
X0033795Y0268717D01*
X0024890Y0268717D01*
X0024890Y0261027D01*
X0024985Y0260671D01*
X0025169Y0260351D01*
X0025430Y0260091D01*
X0025749Y0259906D01*
X0026105Y0259811D01*
X0033795Y0259811D01*
X0033795Y0268716D01*
X0034595Y0268716D01*
X0034595Y0259811D01*
X0042285Y0259811D01*
X0042641Y0259906D01*
X0042960Y0260091D01*
X0043221Y0260351D01*
X0043405Y0260671D01*
X0043501Y0261027D01*
X0043501Y0268717D01*
X0034595Y0268717D01*
X0034595Y0269517D01*
X0043501Y0269517D01*
X0043501Y0268554D02*
X0045089Y0268554D01*
X0044407Y0267756D02*
X0043501Y0267756D01*
X0043501Y0266957D02*
X0044077Y0266957D01*
X0043746Y0266159D02*
X0043501Y0266159D01*
X0043501Y0265360D02*
X0043744Y0265360D01*
X0043744Y0264562D02*
X0043501Y0264562D01*
X0043501Y0263763D02*
X0043927Y0263763D01*
X0044258Y0262965D02*
X0043501Y0262965D01*
X0043501Y0262166D02*
X0044728Y0262166D01*
X0045526Y0261368D02*
X0043501Y0261368D01*
X0043347Y0260569D02*
X0046971Y0260569D01*
X0050318Y0260569D02*
X0056459Y0260569D01*
X0056686Y0260453D02*
X0057450Y0260205D01*
X0058243Y0260080D01*
X0058244Y0260080D01*
X0058244Y0264779D01*
X0059044Y0264779D01*
X0059044Y0260080D01*
X0059045Y0260080D01*
X0059838Y0260205D01*
X0060602Y0260453D01*
X0061317Y0260818D01*
X0061967Y0261289D01*
X0062534Y0261857D01*
X0063006Y0262507D01*
X0063370Y0263222D01*
X0063619Y0263985D01*
X0063744Y0264778D01*
X0063744Y0264780D01*
X0059044Y0264780D01*
X0059044Y0265580D01*
X0058244Y0265580D01*
X0058244Y0264780D01*
X0053544Y0264780D01*
X0053544Y0264778D01*
X0053670Y0263985D01*
X0053918Y0263222D01*
X0054282Y0262507D01*
X0054754Y0261857D01*
X0055322Y0261289D01*
X0055971Y0260818D01*
X0056686Y0260453D01*
X0058244Y0260569D02*
X0059044Y0260569D01*
X0059044Y0261368D02*
X0058244Y0261368D01*
X0058244Y0262166D02*
X0059044Y0262166D01*
X0059044Y0262965D02*
X0058244Y0262965D01*
X0058244Y0263763D02*
X0059044Y0263763D01*
X0059044Y0264562D02*
X0058244Y0264562D01*
X0059044Y0265360D02*
X0094890Y0265360D01*
X0094890Y0264562D02*
X0063710Y0264562D01*
X0063546Y0263763D02*
X0094890Y0263763D01*
X0094890Y0262965D02*
X0063239Y0262965D01*
X0062759Y0262166D02*
X0094890Y0262166D01*
X0094890Y0261368D02*
X0062045Y0261368D01*
X0060829Y0260569D02*
X0095044Y0260569D01*
X0100057Y0257375D02*
X0002800Y0257375D01*
X0002800Y0258173D02*
X0141738Y0258173D01*
X0141532Y0257968D02*
X0121060Y0237496D01*
X0121060Y0229622D01*
X0106099Y0214661D01*
X0106099Y0201606D01*
X0105309Y0200815D01*
X0105309Y0198835D01*
X0106709Y0197435D01*
X0108689Y0197435D01*
X0110090Y0198835D01*
X0110090Y0200815D01*
X0109299Y0201606D01*
X0109299Y0213336D01*
X0123323Y0227359D01*
X0124260Y0228296D01*
X0124260Y0236170D01*
X0143795Y0255706D01*
X0145289Y0255706D01*
X0146079Y0254915D01*
X0148059Y0254915D01*
X0149460Y0256315D01*
X0149460Y0258296D01*
X0148059Y0259696D01*
X0146079Y0259696D01*
X0145289Y0258905D01*
X0142470Y0258905D01*
X0141532Y0257968D01*
X0140939Y0257375D02*
X0108333Y0257375D01*
X0109522Y0257056D02*
X0106012Y0257997D01*
X0102378Y0257997D01*
X0098868Y0257056D01*
X0095721Y0255239D01*
X0093151Y0252670D01*
X0091334Y0249522D01*
X0090394Y0246012D01*
X0090394Y0242378D01*
X0091334Y0238868D01*
X0093151Y0235721D01*
X0095721Y0233151D01*
X0098868Y0231334D01*
X0102378Y0230394D01*
X0106012Y0230394D01*
X0109522Y0231334D01*
X0112670Y0233151D01*
X0115239Y0235721D01*
X0117056Y0238868D01*
X0117997Y0242378D01*
X0117997Y0246012D01*
X0117056Y0249522D01*
X0115239Y0252670D01*
X0112670Y0255239D01*
X0109522Y0257056D01*
X0110354Y0256576D02*
X0140140Y0256576D01*
X0139342Y0255778D02*
X0111737Y0255778D01*
X0112929Y0254979D02*
X0138543Y0254979D01*
X0137745Y0254181D02*
X0113728Y0254181D01*
X0114527Y0253382D02*
X0136946Y0253382D01*
X0136148Y0252584D02*
X0115289Y0252584D01*
X0115750Y0251785D02*
X0135349Y0251785D01*
X0134551Y0250987D02*
X0116211Y0250987D01*
X0116672Y0250188D02*
X0133752Y0250188D01*
X0132954Y0249390D02*
X0117092Y0249390D01*
X0117306Y0248591D02*
X0132155Y0248591D01*
X0131357Y0247793D02*
X0117520Y0247793D01*
X0117734Y0246994D02*
X0130558Y0246994D01*
X0129760Y0246196D02*
X0117948Y0246196D01*
X0117997Y0245397D02*
X0128961Y0245397D01*
X0128163Y0244599D02*
X0117997Y0244599D01*
X0117997Y0243800D02*
X0127364Y0243800D01*
X0126566Y0243002D02*
X0117997Y0243002D01*
X0117950Y0242203D02*
X0125767Y0242203D01*
X0124969Y0241405D02*
X0117736Y0241405D01*
X0117522Y0240606D02*
X0124170Y0240606D01*
X0123372Y0239808D02*
X0117308Y0239808D01*
X0117094Y0239009D02*
X0122573Y0239009D01*
X0121775Y0238211D02*
X0116677Y0238211D01*
X0116216Y0237412D02*
X0121060Y0237412D01*
X0121060Y0236614D02*
X0115755Y0236614D01*
X0115294Y0235815D02*
X0121060Y0235815D01*
X0121060Y0235017D02*
X0114535Y0235017D01*
X0113736Y0234218D02*
X0121060Y0234218D01*
X0121060Y0233420D02*
X0112938Y0233420D01*
X0111751Y0232621D02*
X0121060Y0232621D01*
X0121060Y0231823D02*
X0110368Y0231823D01*
X0108365Y0231024D02*
X0121060Y0231024D01*
X0121060Y0230226D02*
X0054181Y0230226D01*
X0054181Y0231024D02*
X0100026Y0231024D01*
X0098022Y0231823D02*
X0054181Y0231823D01*
X0054181Y0232621D02*
X0096639Y0232621D01*
X0095453Y0233420D02*
X0054181Y0233420D01*
X0054181Y0234218D02*
X0094654Y0234218D01*
X0093856Y0235017D02*
X0054181Y0235017D01*
X0054181Y0235815D02*
X0093097Y0235815D01*
X0092636Y0236614D02*
X0054181Y0236614D01*
X0054181Y0237412D02*
X0092175Y0237412D01*
X0091714Y0238211D02*
X0054181Y0238211D01*
X0054181Y0239009D02*
X0091296Y0239009D01*
X0091082Y0239808D02*
X0054212Y0239808D01*
X0054181Y0239777D02*
X0054972Y0240567D01*
X0054972Y0241685D01*
X0061118Y0247831D01*
X0073635Y0247831D01*
X0074426Y0247041D01*
X0076406Y0247041D01*
X0077806Y0248441D01*
X0077806Y0250422D01*
X0076406Y0251822D01*
X0074426Y0251822D01*
X0073635Y0251031D01*
X0059792Y0251031D01*
X0058855Y0250094D01*
X0052709Y0243948D01*
X0051591Y0243948D01*
X0050191Y0242548D01*
X0050191Y0240567D01*
X0050981Y0239777D01*
X0050981Y0227590D01*
X0050191Y0226800D01*
X0050191Y0224819D01*
X0051591Y0223419D01*
X0053571Y0223419D01*
X0054972Y0224819D01*
X0054972Y0226800D01*
X0054181Y0227590D01*
X0054181Y0239777D01*
X0054972Y0240606D02*
X0090869Y0240606D01*
X0090655Y0241405D02*
X0054972Y0241405D01*
X0055490Y0242203D02*
X0090441Y0242203D01*
X0090394Y0243002D02*
X0056288Y0243002D01*
X0057087Y0243800D02*
X0090394Y0243800D01*
X0090394Y0244599D02*
X0057885Y0244599D01*
X0058684Y0245397D02*
X0090394Y0245397D01*
X0090443Y0246196D02*
X0059482Y0246196D01*
X0060281Y0246994D02*
X0090657Y0246994D01*
X0090871Y0247793D02*
X0077158Y0247793D01*
X0077806Y0248591D02*
X0091085Y0248591D01*
X0091299Y0249390D02*
X0077806Y0249390D01*
X0077806Y0250188D02*
X0091719Y0250188D01*
X0092180Y0250987D02*
X0077241Y0250987D01*
X0076443Y0251785D02*
X0092641Y0251785D01*
X0093102Y0252584D02*
X0018499Y0252584D01*
X0018580Y0251785D02*
X0074389Y0251785D01*
X0075416Y0249431D02*
X0060455Y0249431D01*
X0052581Y0241557D01*
X0052581Y0225809D01*
X0050191Y0225434D02*
X0002800Y0225434D01*
X0002800Y0224636D02*
X0050374Y0224636D01*
X0051172Y0223837D02*
X0002800Y0223837D01*
X0002800Y0223039D02*
X0114477Y0223039D01*
X0115276Y0223837D02*
X0053990Y0223837D01*
X0054788Y0224636D02*
X0116074Y0224636D01*
X0116873Y0225434D02*
X0054972Y0225434D01*
X0054972Y0226233D02*
X0117671Y0226233D01*
X0118470Y0227032D02*
X0054740Y0227032D01*
X0054181Y0227830D02*
X0119268Y0227830D01*
X0120067Y0228629D02*
X0054181Y0228629D01*
X0054181Y0229427D02*
X0120865Y0229427D01*
X0122660Y0228959D02*
X0122660Y0236833D01*
X0143132Y0257306D01*
X0147069Y0257306D01*
X0145355Y0258972D02*
X0002800Y0258972D01*
X0002800Y0259770D02*
X0275591Y0259770D01*
X0275591Y0258972D02*
X0148784Y0258972D01*
X0149460Y0258173D02*
X0275591Y0258173D01*
X0275591Y0257375D02*
X0178333Y0257375D01*
X0179522Y0257056D02*
X0176012Y0257997D01*
X0172378Y0257997D01*
X0168868Y0257056D01*
X0165721Y0255239D01*
X0163151Y0252670D01*
X0161334Y0249522D01*
X0160394Y0246012D01*
X0160394Y0242378D01*
X0161334Y0238868D01*
X0163151Y0235721D01*
X0165721Y0233151D01*
X0168868Y0231334D01*
X0172378Y0230394D01*
X0176012Y0230394D01*
X0179522Y0231334D01*
X0182670Y0233151D01*
X0185239Y0235721D01*
X0187056Y0238868D01*
X0187997Y0242378D01*
X0187997Y0246012D01*
X0187056Y0249522D01*
X0185239Y0252670D01*
X0182670Y0255239D01*
X0179522Y0257056D01*
X0180354Y0256576D02*
X0275591Y0256576D01*
X0275591Y0255778D02*
X0181737Y0255778D01*
X0182929Y0254979D02*
X0275591Y0254979D01*
X0275591Y0254181D02*
X0183728Y0254181D01*
X0184527Y0253382D02*
X0275591Y0253382D01*
X0275591Y0252584D02*
X0185289Y0252584D01*
X0185750Y0251785D02*
X0275591Y0251785D01*
X0275591Y0250987D02*
X0186211Y0250987D01*
X0186672Y0250188D02*
X0275591Y0250188D01*
X0275591Y0249390D02*
X0273518Y0249390D01*
X0274316Y0248591D02*
X0275591Y0248591D01*
X0275591Y0247793D02*
X0275115Y0247793D01*
X0275314Y0243002D02*
X0275591Y0243002D01*
X0275591Y0242203D02*
X0274516Y0242203D01*
X0273717Y0241405D02*
X0275591Y0241405D01*
X0275591Y0240606D02*
X0265123Y0240606D01*
X0264915Y0240398D02*
X0265883Y0241366D01*
X0265883Y0244820D01*
X0263442Y0247261D01*
X0259988Y0247261D01*
X0257546Y0244820D01*
X0257546Y0241366D01*
X0258515Y0240398D01*
X0258515Y0207922D01*
X0250656Y0200063D01*
X0250169Y0198887D01*
X0250169Y0164143D01*
X0244169Y0158143D01*
X0180685Y0158143D01*
X0179509Y0157656D01*
X0178608Y0156756D01*
X0178121Y0155580D01*
X0178121Y0132553D01*
X0136018Y0132553D01*
X0134515Y0134056D01*
X0134515Y0134139D01*
X0135399Y0133255D01*
X0137874Y0133255D01*
X0139195Y0134577D01*
X0140517Y0133255D01*
X0142992Y0133255D01*
X0144742Y0135005D01*
X0144742Y0136992D01*
X0145634Y0136992D01*
X0147501Y0138859D01*
X0147501Y0140179D01*
X0144314Y0140179D01*
X0144314Y0140180D01*
X0147501Y0140180D01*
X0147501Y0141500D01*
X0145634Y0143367D01*
X0144313Y0143367D01*
X0142993Y0143367D01*
X0141613Y0141987D01*
X0140433Y0143167D01*
X0137958Y0143167D01*
X0136636Y0141845D01*
X0135315Y0143167D01*
X0132840Y0143167D01*
X0131090Y0141417D01*
X0131090Y0141152D01*
X0130129Y0140191D01*
X0130064Y0140126D01*
X0130064Y0140213D01*
X0125521Y0140213D01*
X0125521Y0141013D01*
X0130064Y0141013D01*
X0130064Y0142660D01*
X0127168Y0145556D01*
X0125520Y0145556D01*
X0125520Y0141013D01*
X0124720Y0141013D01*
X0124720Y0145556D01*
X0123073Y0145556D01*
X0120177Y0142660D01*
X0120177Y0141013D01*
X0124720Y0141013D01*
X0124720Y0140213D01*
X0120177Y0140213D01*
X0120177Y0138565D01*
X0123073Y0135669D01*
X0124720Y0135669D01*
X0124720Y0140213D01*
X0125520Y0140213D01*
X0125520Y0135669D01*
X0127168Y0135669D01*
X0128915Y0137416D01*
X0128915Y0132339D01*
X0129341Y0131310D01*
X0132145Y0128506D01*
X0132545Y0127540D01*
X0133446Y0126640D01*
X0134622Y0126153D01*
X0181958Y0126153D01*
X0183134Y0126640D01*
X0184034Y0127540D01*
X0184521Y0128716D01*
X0184521Y0151743D01*
X0246131Y0151743D01*
X0247307Y0152230D01*
X0255181Y0160104D01*
X0256081Y0161005D01*
X0256568Y0162181D01*
X0256568Y0196925D01*
X0263528Y0203884D01*
X0264428Y0204784D01*
X0264915Y0205960D01*
X0264915Y0240398D01*
X0264915Y0239808D02*
X0275591Y0239808D01*
X0275591Y0239009D02*
X0264915Y0239009D01*
X0264915Y0238211D02*
X0275591Y0238211D01*
X0275591Y0237412D02*
X0264915Y0237412D01*
X0264915Y0236614D02*
X0275591Y0236614D01*
X0275591Y0235815D02*
X0264915Y0235815D01*
X0264915Y0235017D02*
X0275591Y0235017D01*
X0275591Y0234218D02*
X0264915Y0234218D01*
X0264915Y0233420D02*
X0275591Y0233420D01*
X0275591Y0232621D02*
X0264915Y0232621D01*
X0264915Y0231823D02*
X0275591Y0231823D01*
X0275591Y0231024D02*
X0264915Y0231024D01*
X0264915Y0230226D02*
X0275591Y0230226D01*
X0275591Y0229427D02*
X0264915Y0229427D01*
X0264915Y0228629D02*
X0275591Y0228629D01*
X0275591Y0227830D02*
X0264915Y0227830D01*
X0264915Y0227032D02*
X0275591Y0227032D01*
X0275591Y0226233D02*
X0264915Y0226233D01*
X0264915Y0225434D02*
X0275591Y0225434D01*
X0275591Y0224636D02*
X0264915Y0224636D01*
X0264915Y0223837D02*
X0275591Y0223837D01*
X0275591Y0223039D02*
X0264915Y0223039D01*
X0264915Y0222240D02*
X0275591Y0222240D01*
X0275591Y0221442D02*
X0264915Y0221442D01*
X0264915Y0220643D02*
X0275591Y0220643D01*
X0275591Y0219845D02*
X0264915Y0219845D01*
X0264915Y0219046D02*
X0275591Y0219046D01*
X0275591Y0218248D02*
X0264915Y0218248D01*
X0264915Y0217449D02*
X0275591Y0217449D01*
X0275591Y0216651D02*
X0264915Y0216651D01*
X0264915Y0215852D02*
X0275591Y0215852D01*
X0275591Y0215054D02*
X0264915Y0215054D01*
X0264915Y0214255D02*
X0275591Y0214255D01*
X0275591Y0213457D02*
X0264915Y0213457D01*
X0264915Y0212658D02*
X0275591Y0212658D01*
X0275591Y0211860D02*
X0264915Y0211860D01*
X0264915Y0211061D02*
X0275591Y0211061D01*
X0275591Y0210263D02*
X0264915Y0210263D01*
X0264915Y0209464D02*
X0275591Y0209464D01*
X0275591Y0208666D02*
X0264915Y0208666D01*
X0264915Y0207867D02*
X0275591Y0207867D01*
X0275591Y0207069D02*
X0264915Y0207069D01*
X0264915Y0206270D02*
X0275591Y0206270D01*
X0275591Y0205472D02*
X0264713Y0205472D01*
X0264317Y0204673D02*
X0275591Y0204673D01*
X0275591Y0203875D02*
X0263518Y0203875D01*
X0262720Y0203076D02*
X0275591Y0203076D01*
X0275591Y0202278D02*
X0261921Y0202278D01*
X0261123Y0201479D02*
X0275591Y0201479D01*
X0275591Y0200681D02*
X0260324Y0200681D01*
X0259526Y0199882D02*
X0275591Y0199882D01*
X0275591Y0199084D02*
X0258727Y0199084D01*
X0257929Y0198285D02*
X0275591Y0198285D01*
X0275591Y0197487D02*
X0257130Y0197487D01*
X0256568Y0196688D02*
X0275591Y0196688D01*
X0275591Y0195890D02*
X0256568Y0195890D01*
X0256568Y0195091D02*
X0275591Y0195091D01*
X0275591Y0194293D02*
X0256568Y0194293D01*
X0256568Y0193494D02*
X0275591Y0193494D01*
X0275591Y0192696D02*
X0256568Y0192696D01*
X0256568Y0191897D02*
X0275591Y0191897D01*
X0275591Y0191099D02*
X0256568Y0191099D01*
X0256568Y0190300D02*
X0275591Y0190300D01*
X0275591Y0189501D02*
X0256568Y0189501D01*
X0256568Y0188703D02*
X0275591Y0188703D01*
X0275591Y0187904D02*
X0256568Y0187904D01*
X0256568Y0187106D02*
X0275591Y0187106D01*
X0275591Y0186307D02*
X0256568Y0186307D01*
X0256568Y0185509D02*
X0275591Y0185509D01*
X0275591Y0184710D02*
X0256568Y0184710D01*
X0256568Y0183912D02*
X0275591Y0183912D01*
X0269517Y0183113D02*
X0268717Y0183113D01*
X0268717Y0182315D02*
X0269517Y0182315D01*
X0269517Y0181516D02*
X0268717Y0181516D01*
X0268717Y0180718D02*
X0269517Y0180718D01*
X0269517Y0179919D02*
X0268717Y0179919D01*
X0268717Y0179121D02*
X0269517Y0179121D01*
X0269517Y0178322D02*
X0268717Y0178322D01*
X0268717Y0177524D02*
X0269517Y0177524D01*
X0269517Y0176725D02*
X0268717Y0176725D01*
X0268717Y0175927D02*
X0269517Y0175927D01*
X0269517Y0175128D02*
X0268717Y0175128D01*
X0268716Y0174330D02*
X0256568Y0174330D01*
X0256568Y0175128D02*
X0259811Y0175128D01*
X0259811Y0175927D02*
X0256568Y0175927D01*
X0256568Y0176725D02*
X0259811Y0176725D01*
X0259811Y0177524D02*
X0256568Y0177524D01*
X0256568Y0178322D02*
X0259811Y0178322D01*
X0259811Y0179121D02*
X0256568Y0179121D01*
X0256568Y0179919D02*
X0259811Y0179919D01*
X0259811Y0180718D02*
X0256568Y0180718D01*
X0256568Y0181516D02*
X0259811Y0181516D01*
X0259819Y0182315D02*
X0256568Y0182315D01*
X0256568Y0183113D02*
X0260244Y0183113D01*
X0259811Y0173531D02*
X0256568Y0173531D01*
X0256568Y0172733D02*
X0259811Y0172733D01*
X0259811Y0171934D02*
X0256568Y0171934D01*
X0256568Y0171136D02*
X0259811Y0171136D01*
X0259811Y0170337D02*
X0256568Y0170337D01*
X0256568Y0169539D02*
X0259811Y0169539D01*
X0259811Y0168740D02*
X0256568Y0168740D01*
X0256568Y0167942D02*
X0259811Y0167942D01*
X0259811Y0167143D02*
X0256568Y0167143D01*
X0256568Y0166345D02*
X0259811Y0166345D01*
X0260024Y0165546D02*
X0256568Y0165546D01*
X0256568Y0164748D02*
X0275591Y0164748D01*
X0275591Y0163949D02*
X0256568Y0163949D01*
X0256568Y0163151D02*
X0275591Y0163151D01*
X0275591Y0162352D02*
X0256568Y0162352D01*
X0256309Y0161554D02*
X0275591Y0161554D01*
X0275591Y0160755D02*
X0255832Y0160755D01*
X0255033Y0159957D02*
X0275591Y0159957D01*
X0275591Y0159158D02*
X0254235Y0159158D01*
X0253436Y0158360D02*
X0275591Y0158360D01*
X0275591Y0157561D02*
X0252638Y0157561D01*
X0251839Y0156763D02*
X0275591Y0156763D01*
X0275591Y0155964D02*
X0251041Y0155964D01*
X0250242Y0155166D02*
X0275591Y0155166D01*
X0275591Y0154367D02*
X0249444Y0154367D01*
X0248645Y0153568D02*
X0275591Y0153568D01*
X0275591Y0152770D02*
X0247847Y0152770D01*
X0246682Y0151971D02*
X0275591Y0151971D01*
X0275591Y0151173D02*
X0184521Y0151173D01*
X0184521Y0150374D02*
X0275591Y0150374D01*
X0275591Y0149576D02*
X0184521Y0149576D01*
X0184521Y0148777D02*
X0275591Y0148777D01*
X0275591Y0147979D02*
X0184521Y0147979D01*
X0184521Y0147180D02*
X0275591Y0147180D01*
X0275591Y0146382D02*
X0184521Y0146382D01*
X0184521Y0145583D02*
X0275591Y0145583D01*
X0275591Y0144785D02*
X0184521Y0144785D01*
X0184521Y0143986D02*
X0275591Y0143986D01*
X0275591Y0143188D02*
X0184521Y0143188D01*
X0184521Y0142389D02*
X0275591Y0142389D01*
X0275591Y0141591D02*
X0184521Y0141591D01*
X0184521Y0140792D02*
X0275591Y0140792D01*
X0275591Y0139994D02*
X0184521Y0139994D01*
X0184521Y0139195D02*
X0275591Y0139195D01*
X0275591Y0138397D02*
X0184521Y0138397D01*
X0184521Y0137598D02*
X0275591Y0137598D01*
X0275591Y0136800D02*
X0184521Y0136800D01*
X0184521Y0136001D02*
X0275591Y0136001D01*
X0275591Y0135203D02*
X0184521Y0135203D01*
X0184521Y0134404D02*
X0275591Y0134404D01*
X0275591Y0133606D02*
X0184521Y0133606D01*
X0184521Y0132807D02*
X0275591Y0132807D01*
X0275591Y0132009D02*
X0184521Y0132009D01*
X0184521Y0131210D02*
X0275591Y0131210D01*
X0275591Y0130412D02*
X0184521Y0130412D01*
X0184521Y0129613D02*
X0275591Y0129613D01*
X0275591Y0128815D02*
X0184521Y0128815D01*
X0184231Y0128016D02*
X0275591Y0128016D01*
X0275591Y0127218D02*
X0183712Y0127218D01*
X0182601Y0126419D02*
X0275591Y0126419D01*
X0275591Y0125621D02*
X0002800Y0125621D01*
X0002800Y0126419D02*
X0133979Y0126419D01*
X0132868Y0127218D02*
X0002800Y0127218D01*
X0002800Y0128016D02*
X0132348Y0128016D01*
X0131837Y0128815D02*
X0002800Y0128815D01*
X0002800Y0129613D02*
X0131038Y0129613D01*
X0130240Y0130412D02*
X0002800Y0130412D01*
X0002800Y0131210D02*
X0129441Y0131210D01*
X0129052Y0132009D02*
X0002800Y0132009D01*
X0002800Y0132807D02*
X0128915Y0132807D01*
X0128915Y0133606D02*
X0002800Y0133606D01*
X0002800Y0134404D02*
X0128915Y0134404D01*
X0128915Y0135203D02*
X0002800Y0135203D01*
X0002800Y0136001D02*
X0122741Y0136001D01*
X0121942Y0136800D02*
X0002800Y0136800D01*
X0002800Y0137598D02*
X0121144Y0137598D01*
X0120345Y0138397D02*
X0002800Y0138397D01*
X0002800Y0139195D02*
X0120177Y0139195D01*
X0120177Y0139994D02*
X0002800Y0139994D01*
X0002800Y0140792D02*
X0124720Y0140792D01*
X0124720Y0139994D02*
X0125520Y0139994D01*
X0125521Y0140792D02*
X0130730Y0140792D01*
X0131264Y0141591D02*
X0130064Y0141591D01*
X0130064Y0142389D02*
X0132062Y0142389D01*
X0129536Y0143188D02*
X0142814Y0143188D01*
X0142016Y0142389D02*
X0141210Y0142389D01*
X0144313Y0142389D02*
X0144313Y0142389D01*
X0144313Y0141591D02*
X0144313Y0141591D01*
X0144313Y0140792D02*
X0144313Y0140792D01*
X0144313Y0140180D02*
X0144313Y0143367D01*
X0144313Y0140180D01*
X0144313Y0140180D01*
X0144313Y0143188D02*
X0144313Y0143188D01*
X0145813Y0143188D02*
X0148854Y0143188D01*
X0148327Y0142660D02*
X0148327Y0141013D01*
X0152870Y0141013D01*
X0152870Y0145556D01*
X0151222Y0145556D01*
X0148327Y0142660D01*
X0148327Y0142389D02*
X0146611Y0142389D01*
X0147410Y0141591D02*
X0148327Y0141591D01*
X0147501Y0140792D02*
X0152870Y0140792D01*
X0152870Y0141013D02*
X0152870Y0140213D01*
X0148327Y0140213D01*
X0148327Y0138565D01*
X0151222Y0135669D01*
X0152870Y0135669D01*
X0152870Y0140213D01*
X0153670Y0140213D01*
X0153670Y0141013D01*
X0152870Y0141013D01*
X0152870Y0141591D02*
X0153670Y0141591D01*
X0153670Y0141013D02*
X0153670Y0145556D01*
X0155318Y0145556D01*
X0158213Y0142660D01*
X0158213Y0141013D01*
X0153670Y0141013D01*
X0153670Y0140792D02*
X0178121Y0140792D01*
X0178121Y0139994D02*
X0158213Y0139994D01*
X0158213Y0140213D02*
X0153670Y0140213D01*
X0153670Y0135669D01*
X0155318Y0135669D01*
X0158213Y0138565D01*
X0158213Y0140213D01*
X0158213Y0139195D02*
X0178121Y0139195D01*
X0178121Y0138397D02*
X0158045Y0138397D01*
X0157247Y0137598D02*
X0178121Y0137598D01*
X0178121Y0136800D02*
X0156448Y0136800D01*
X0155650Y0136001D02*
X0178121Y0136001D01*
X0178121Y0135203D02*
X0144742Y0135203D01*
X0144742Y0136001D02*
X0150891Y0136001D01*
X0150092Y0136800D02*
X0144742Y0136800D01*
X0146240Y0137598D02*
X0149294Y0137598D01*
X0148495Y0138397D02*
X0147038Y0138397D01*
X0147501Y0139195D02*
X0148327Y0139195D01*
X0148327Y0139994D02*
X0147501Y0139994D01*
X0149653Y0143986D02*
X0128738Y0143986D01*
X0127939Y0144785D02*
X0150451Y0144785D01*
X0152870Y0144785D02*
X0153670Y0144785D01*
X0153670Y0143986D02*
X0152870Y0143986D01*
X0152870Y0143188D02*
X0153670Y0143188D01*
X0153670Y0142389D02*
X0152870Y0142389D01*
X0152870Y0139994D02*
X0153670Y0139994D01*
X0153670Y0139195D02*
X0152870Y0139195D01*
X0152870Y0138397D02*
X0153670Y0138397D01*
X0153670Y0137598D02*
X0152870Y0137598D01*
X0152870Y0136800D02*
X0153670Y0136800D01*
X0153670Y0136001D02*
X0152870Y0136001D01*
X0158213Y0141591D02*
X0178121Y0141591D01*
X0178121Y0142389D02*
X0158213Y0142389D01*
X0157686Y0143188D02*
X0178121Y0143188D01*
X0178121Y0143986D02*
X0156887Y0143986D01*
X0156089Y0144785D02*
X0178121Y0144785D01*
X0178121Y0145583D02*
X0002800Y0145583D01*
X0002800Y0144785D02*
X0122302Y0144785D01*
X0121503Y0143986D02*
X0002800Y0143986D01*
X0002800Y0143188D02*
X0120705Y0143188D01*
X0120177Y0142389D02*
X0002800Y0142389D01*
X0002800Y0141591D02*
X0120177Y0141591D01*
X0124720Y0141591D02*
X0125520Y0141591D01*
X0125520Y0142389D02*
X0124720Y0142389D01*
X0124720Y0143188D02*
X0125520Y0143188D01*
X0125520Y0143986D02*
X0124720Y0143986D01*
X0124720Y0144785D02*
X0125520Y0144785D01*
X0125520Y0139195D02*
X0124720Y0139195D01*
X0124720Y0138397D02*
X0125520Y0138397D01*
X0125520Y0137598D02*
X0124720Y0137598D01*
X0124720Y0136800D02*
X0125520Y0136800D01*
X0125520Y0136001D02*
X0124720Y0136001D01*
X0127500Y0136001D02*
X0128915Y0136001D01*
X0128915Y0136800D02*
X0128298Y0136800D01*
X0134965Y0133606D02*
X0135048Y0133606D01*
X0135764Y0132807D02*
X0178121Y0132807D01*
X0178121Y0133606D02*
X0143342Y0133606D01*
X0144141Y0134404D02*
X0178121Y0134404D01*
X0178121Y0146382D02*
X0002800Y0146382D01*
X0002800Y0147180D02*
X0178121Y0147180D01*
X0178121Y0147979D02*
X0002800Y0147979D01*
X0002800Y0148777D02*
X0178121Y0148777D01*
X0178121Y0149576D02*
X0002800Y0149576D01*
X0002800Y0150374D02*
X0178121Y0150374D01*
X0178121Y0151173D02*
X0038795Y0151173D01*
X0039061Y0151308D02*
X0038465Y0151005D01*
X0037828Y0150798D01*
X0037168Y0150693D01*
X0037122Y0150693D01*
X0037122Y0154654D01*
X0036544Y0154654D01*
X0036544Y0150693D01*
X0036499Y0150693D01*
X0035838Y0150798D01*
X0035202Y0151005D01*
X0034606Y0151308D01*
X0034064Y0151702D01*
X0033591Y0152175D01*
X0033198Y0152716D01*
X0032894Y0153312D01*
X0032688Y0153948D01*
X0032583Y0154609D01*
X0032583Y0154654D01*
X0036544Y0154654D01*
X0036544Y0155232D01*
X0032583Y0155232D01*
X0032583Y0155278D01*
X0032688Y0155939D01*
X0032894Y0156575D01*
X0033198Y0157171D01*
X0033591Y0157712D01*
X0034064Y0158185D01*
X0034606Y0158578D01*
X0035202Y0158882D01*
X0035509Y0158982D01*
X0034539Y0159384D01*
X0033400Y0160523D01*
X0032783Y0162012D01*
X0032783Y0163623D01*
X0033400Y0165111D01*
X0034539Y0166251D01*
X0036027Y0166867D01*
X0037639Y0166867D01*
X0039127Y0166251D01*
X0040266Y0165111D01*
X0040883Y0163623D01*
X0040883Y0162012D01*
X0040266Y0160523D01*
X0039127Y0159384D01*
X0038157Y0158982D01*
X0038465Y0158882D01*
X0039061Y0158578D01*
X0039602Y0158185D01*
X0040075Y0157712D01*
X0040468Y0157171D01*
X0040772Y0156575D01*
X0040978Y0155939D01*
X0041083Y0155278D01*
X0041083Y0155232D01*
X0037122Y0155232D01*
X0037122Y0154654D01*
X0041083Y0154654D01*
X0041083Y0154609D01*
X0040978Y0153948D01*
X0040772Y0153312D01*
X0040468Y0152716D01*
X0040075Y0152175D01*
X0039602Y0151702D01*
X0039061Y0151308D01*
X0039872Y0151971D02*
X0178121Y0151971D01*
X0178121Y0152770D02*
X0040496Y0152770D01*
X0040855Y0153568D02*
X0178121Y0153568D01*
X0178121Y0154367D02*
X0041045Y0154367D01*
X0040970Y0155964D02*
X0178280Y0155964D01*
X0178121Y0155166D02*
X0037122Y0155166D01*
X0036544Y0155166D02*
X0002800Y0155166D01*
X0002800Y0155964D02*
X0032696Y0155964D01*
X0032990Y0156763D02*
X0002800Y0156763D01*
X0002800Y0157561D02*
X0033482Y0157561D01*
X0034305Y0158360D02*
X0002800Y0158360D01*
X0002800Y0159158D02*
X0035084Y0159158D01*
X0033966Y0159957D02*
X0002800Y0159957D01*
X0002800Y0160755D02*
X0033304Y0160755D01*
X0032973Y0161554D02*
X0002800Y0161554D01*
X0002800Y0162352D02*
X0032783Y0162352D01*
X0032783Y0163151D02*
X0002800Y0163151D01*
X0002800Y0163949D02*
X0032918Y0163949D01*
X0033249Y0164748D02*
X0002800Y0164748D01*
X0008874Y0165546D02*
X0009674Y0165546D01*
X0009674Y0166345D02*
X0008874Y0166345D01*
X0008874Y0167143D02*
X0009674Y0167143D01*
X0009674Y0167942D02*
X0008874Y0167942D01*
X0008874Y0168740D02*
X0009674Y0168740D01*
X0009674Y0169539D02*
X0008874Y0169539D01*
X0008874Y0170337D02*
X0009674Y0170337D01*
X0009674Y0171136D02*
X0008874Y0171136D01*
X0008874Y0171934D02*
X0009674Y0171934D01*
X0009674Y0172733D02*
X0008874Y0172733D01*
X0008874Y0173531D02*
X0009674Y0173531D01*
X0009674Y0174330D02*
X0126572Y0174330D01*
X0126572Y0175128D02*
X0018580Y0175128D01*
X0018580Y0175927D02*
X0126572Y0175927D01*
X0126572Y0176725D02*
X0018580Y0176725D01*
X0018580Y0177524D02*
X0126572Y0177524D01*
X0126572Y0178322D02*
X0018580Y0178322D01*
X0018580Y0179121D02*
X0126572Y0179121D01*
X0126572Y0179919D02*
X0018580Y0179919D01*
X0018580Y0180718D02*
X0126572Y0180718D01*
X0126572Y0181516D02*
X0018580Y0181516D01*
X0018572Y0182315D02*
X0126572Y0182315D01*
X0126572Y0183113D02*
X0018147Y0183113D01*
X0009674Y0183113D02*
X0008874Y0183113D01*
X0008874Y0182315D02*
X0009674Y0182315D01*
X0009674Y0181516D02*
X0008874Y0181516D01*
X0008874Y0180718D02*
X0009674Y0180718D01*
X0009674Y0179919D02*
X0008874Y0179919D01*
X0008874Y0179121D02*
X0009674Y0179121D01*
X0009674Y0178322D02*
X0008874Y0178322D01*
X0008874Y0177524D02*
X0009674Y0177524D01*
X0009674Y0176725D02*
X0008874Y0176725D01*
X0008874Y0175927D02*
X0009674Y0175927D01*
X0009674Y0175128D02*
X0008874Y0175128D01*
X0018580Y0173531D02*
X0126572Y0173531D01*
X0126572Y0172733D02*
X0018580Y0172733D01*
X0018580Y0171934D02*
X0126572Y0171934D01*
X0126572Y0171136D02*
X0018580Y0171136D01*
X0018580Y0170337D02*
X0126572Y0170337D01*
X0126572Y0169539D02*
X0018580Y0169539D01*
X0018580Y0168740D02*
X0126572Y0168740D01*
X0126572Y0167942D02*
X0018580Y0167942D01*
X0018580Y0167143D02*
X0126572Y0167143D01*
X0126572Y0166345D02*
X0038900Y0166345D01*
X0039832Y0165546D02*
X0126572Y0165546D01*
X0126572Y0164748D02*
X0040417Y0164748D01*
X0040748Y0163949D02*
X0126960Y0163949D01*
X0126572Y0164337D02*
X0127509Y0163400D01*
X0130873Y0160036D01*
X0190825Y0160036D01*
X0191762Y0160973D01*
X0195126Y0164337D01*
X0195126Y0178753D01*
X0195917Y0179544D01*
X0195917Y0181524D01*
X0194516Y0182924D01*
X0192536Y0182924D01*
X0191135Y0181524D01*
X0191135Y0179544D01*
X0191926Y0178753D01*
X0191926Y0165663D01*
X0189499Y0163236D01*
X0132198Y0163236D01*
X0129772Y0165663D01*
X0129772Y0218847D01*
X0131587Y0220663D01*
X0132705Y0220663D01*
X0134105Y0222063D01*
X0134105Y0224044D01*
X0132705Y0225444D01*
X0130725Y0225444D01*
X0129324Y0224044D01*
X0129324Y0222926D01*
X0127509Y0221110D01*
X0125228Y0221110D01*
X0124437Y0221901D01*
X0122457Y0221901D01*
X0121057Y0220500D01*
X0121057Y0218520D01*
X0122457Y0217120D01*
X0124437Y0217120D01*
X0125228Y0217910D01*
X0126572Y0217910D01*
X0126572Y0164337D01*
X0127758Y0163151D02*
X0040883Y0163151D01*
X0040883Y0162352D02*
X0128557Y0162352D01*
X0129355Y0161554D02*
X0040693Y0161554D01*
X0040363Y0160755D02*
X0130154Y0160755D01*
X0131535Y0161636D02*
X0128172Y0165000D01*
X0128172Y0219510D01*
X0123447Y0219510D01*
X0121057Y0219845D02*
X0115808Y0219845D01*
X0115010Y0219046D02*
X0121057Y0219046D01*
X0121329Y0218248D02*
X0114211Y0218248D01*
X0113413Y0217449D02*
X0122127Y0217449D01*
X0124767Y0217449D02*
X0126572Y0217449D01*
X0126572Y0216651D02*
X0112614Y0216651D01*
X0111816Y0215852D02*
X0126572Y0215852D01*
X0126572Y0215054D02*
X0111017Y0215054D01*
X0110219Y0214255D02*
X0126572Y0214255D01*
X0126572Y0213457D02*
X0109420Y0213457D01*
X0109299Y0212658D02*
X0126572Y0212658D01*
X0126572Y0211860D02*
X0109299Y0211860D01*
X0109299Y0211061D02*
X0126572Y0211061D01*
X0126572Y0210263D02*
X0109299Y0210263D01*
X0109299Y0209464D02*
X0126572Y0209464D01*
X0126572Y0208666D02*
X0109299Y0208666D01*
X0109299Y0207867D02*
X0126572Y0207867D01*
X0126572Y0207069D02*
X0109299Y0207069D01*
X0109299Y0206270D02*
X0126572Y0206270D01*
X0126572Y0205472D02*
X0109299Y0205472D01*
X0109299Y0204673D02*
X0126572Y0204673D01*
X0126572Y0203875D02*
X0109299Y0203875D01*
X0109299Y0203076D02*
X0126572Y0203076D01*
X0126572Y0202278D02*
X0109299Y0202278D01*
X0109426Y0201479D02*
X0126572Y0201479D01*
X0126572Y0200681D02*
X0110090Y0200681D01*
X0110090Y0199882D02*
X0126572Y0199882D01*
X0126572Y0199084D02*
X0110090Y0199084D01*
X0109540Y0198285D02*
X0126572Y0198285D01*
X0126572Y0197487D02*
X0108741Y0197487D01*
X0106657Y0197487D02*
X0002800Y0197487D01*
X0002800Y0198285D02*
X0105859Y0198285D01*
X0105309Y0199084D02*
X0002800Y0199084D01*
X0002800Y0199882D02*
X0105309Y0199882D01*
X0105309Y0200681D02*
X0002800Y0200681D01*
X0002800Y0201479D02*
X0105972Y0201479D01*
X0106099Y0202278D02*
X0002800Y0202278D01*
X0002800Y0203076D02*
X0106099Y0203076D01*
X0106099Y0203875D02*
X0002800Y0203875D01*
X0002800Y0204673D02*
X0106099Y0204673D01*
X0106099Y0205472D02*
X0002800Y0205472D01*
X0002800Y0206270D02*
X0106099Y0206270D01*
X0106099Y0207069D02*
X0002800Y0207069D01*
X0002800Y0207867D02*
X0106099Y0207867D01*
X0106099Y0208666D02*
X0002800Y0208666D01*
X0002800Y0209464D02*
X0106099Y0209464D01*
X0106099Y0210263D02*
X0002800Y0210263D01*
X0002800Y0211061D02*
X0106099Y0211061D01*
X0106099Y0211860D02*
X0002800Y0211860D01*
X0002800Y0212658D02*
X0106099Y0212658D01*
X0106099Y0213457D02*
X0002800Y0213457D01*
X0002800Y0214255D02*
X0106099Y0214255D01*
X0106492Y0215054D02*
X0002800Y0215054D01*
X0002800Y0215852D02*
X0107290Y0215852D01*
X0108089Y0216651D02*
X0002800Y0216651D01*
X0002800Y0217449D02*
X0108887Y0217449D01*
X0109686Y0218248D02*
X0002800Y0218248D01*
X0002800Y0219046D02*
X0110484Y0219046D01*
X0111283Y0219845D02*
X0002800Y0219845D01*
X0002800Y0220643D02*
X0112081Y0220643D01*
X0112880Y0221442D02*
X0002800Y0221442D01*
X0002800Y0222240D02*
X0113679Y0222240D01*
X0116607Y0220643D02*
X0121200Y0220643D01*
X0121998Y0221442D02*
X0117405Y0221442D01*
X0118204Y0222240D02*
X0128639Y0222240D01*
X0129324Y0223039D02*
X0119002Y0223039D01*
X0119801Y0223837D02*
X0129324Y0223837D01*
X0129917Y0224636D02*
X0120600Y0224636D01*
X0121398Y0225434D02*
X0130715Y0225434D01*
X0132715Y0225434D02*
X0135230Y0225434D01*
X0135230Y0226012D02*
X0135230Y0224032D01*
X0136630Y0222631D01*
X0138611Y0222631D01*
X0139401Y0223422D01*
X0147194Y0223422D01*
X0152553Y0218063D01*
X0152553Y0216945D01*
X0153953Y0215545D01*
X0155933Y0215545D01*
X0157334Y0216945D01*
X0157334Y0218926D01*
X0155933Y0220326D01*
X0154815Y0220326D01*
X0148519Y0226622D01*
X0139401Y0226622D01*
X0138611Y0227413D01*
X0136630Y0227413D01*
X0135230Y0226012D01*
X0135451Y0226233D02*
X0122197Y0226233D01*
X0122995Y0227032D02*
X0136249Y0227032D01*
X0137620Y0225022D02*
X0147857Y0225022D01*
X0154943Y0217935D01*
X0156415Y0219845D02*
X0179002Y0219845D01*
X0179002Y0220587D02*
X0179002Y0216859D01*
X0181638Y0214223D01*
X0185233Y0214223D01*
X0185233Y0211356D01*
X0183366Y0213223D01*
X0179638Y0213223D01*
X0177002Y0210587D01*
X0177002Y0210323D01*
X0144944Y0210323D01*
X0142370Y0212897D01*
X0142370Y0218123D01*
X0143161Y0218914D01*
X0143161Y0220894D01*
X0141760Y0222294D01*
X0139780Y0222294D01*
X0138380Y0220894D01*
X0138380Y0218914D01*
X0139170Y0218123D01*
X0139170Y0211572D01*
X0140107Y0210634D01*
X0143619Y0207123D01*
X0177002Y0207123D01*
X0177002Y0206859D01*
X0178499Y0205362D01*
X0139376Y0205362D01*
X0133808Y0199794D01*
X0132871Y0198857D01*
X0132871Y0178378D01*
X0132080Y0177587D01*
X0132080Y0175607D01*
X0133481Y0174206D01*
X0135461Y0174206D01*
X0136861Y0175607D01*
X0136861Y0177587D01*
X0136071Y0178378D01*
X0136071Y0197532D01*
X0140701Y0202162D01*
X0180578Y0202162D01*
X0179002Y0200587D01*
X0179002Y0200323D01*
X0168060Y0200323D01*
X0167123Y0199386D01*
X0157280Y0189543D01*
X0157280Y0177196D01*
X0156490Y0176406D01*
X0156490Y0174426D01*
X0157890Y0173025D01*
X0159870Y0173025D01*
X0161271Y0174426D01*
X0161271Y0176406D01*
X0160480Y0177196D01*
X0160480Y0188218D01*
X0169386Y0197123D01*
X0179002Y0197123D01*
X0179002Y0196859D01*
X0181638Y0194223D01*
X0185366Y0194223D01*
X0188002Y0196859D01*
X0188002Y0200587D01*
X0185583Y0203006D01*
X0185677Y0203099D01*
X0187496Y0204918D01*
X0188433Y0205855D01*
X0188433Y0216055D01*
X0187816Y0216672D01*
X0188002Y0216859D01*
X0188002Y0220587D01*
X0185366Y0223223D01*
X0181638Y0223223D01*
X0179002Y0220587D01*
X0179059Y0220643D02*
X0154498Y0220643D01*
X0153700Y0221442D02*
X0179858Y0221442D01*
X0180656Y0222240D02*
X0152901Y0222240D01*
X0152102Y0223039D02*
X0181455Y0223039D01*
X0185550Y0223039D02*
X0258515Y0223039D01*
X0258515Y0223837D02*
X0246903Y0223837D01*
X0246485Y0223419D02*
X0247885Y0224819D01*
X0247885Y0226800D01*
X0246485Y0228200D01*
X0244504Y0228200D01*
X0243714Y0227409D01*
X0167417Y0227409D01*
X0163480Y0231346D01*
X0129952Y0231346D01*
X0129162Y0232137D01*
X0127181Y0232137D01*
X0125781Y0230737D01*
X0125781Y0228756D01*
X0127181Y0227356D01*
X0129162Y0227356D01*
X0129952Y0228146D01*
X0162155Y0228146D01*
X0166092Y0224209D01*
X0243714Y0224209D01*
X0244504Y0223419D01*
X0246485Y0223419D01*
X0247702Y0224636D02*
X0258515Y0224636D01*
X0258515Y0225434D02*
X0247885Y0225434D01*
X0247885Y0226233D02*
X0258515Y0226233D01*
X0258515Y0227032D02*
X0247653Y0227032D01*
X0246855Y0227830D02*
X0258515Y0227830D01*
X0258515Y0228629D02*
X0166198Y0228629D01*
X0165399Y0229427D02*
X0258515Y0229427D01*
X0258515Y0230226D02*
X0164601Y0230226D01*
X0163802Y0231024D02*
X0170026Y0231024D01*
X0168022Y0231823D02*
X0129476Y0231823D01*
X0128172Y0229746D02*
X0162817Y0229746D01*
X0166754Y0225809D01*
X0245494Y0225809D01*
X0244086Y0223837D02*
X0151304Y0223837D01*
X0150505Y0224636D02*
X0165665Y0224636D01*
X0164867Y0225434D02*
X0149707Y0225434D01*
X0148908Y0226233D02*
X0164068Y0226233D01*
X0163270Y0227032D02*
X0138992Y0227032D01*
X0135230Y0224636D02*
X0133513Y0224636D01*
X0134105Y0223837D02*
X0135424Y0223837D01*
X0136223Y0223039D02*
X0134105Y0223039D01*
X0134105Y0222240D02*
X0139726Y0222240D01*
X0139018Y0223039D02*
X0147577Y0223039D01*
X0148376Y0222240D02*
X0141814Y0222240D01*
X0142613Y0221442D02*
X0149174Y0221442D01*
X0149973Y0220643D02*
X0143161Y0220643D01*
X0143161Y0219845D02*
X0150771Y0219845D01*
X0151570Y0219046D02*
X0143161Y0219046D01*
X0142495Y0218248D02*
X0152368Y0218248D01*
X0152553Y0217449D02*
X0142370Y0217449D01*
X0142370Y0216651D02*
X0152847Y0216651D01*
X0153646Y0215852D02*
X0142370Y0215852D01*
X0142370Y0215054D02*
X0180807Y0215054D01*
X0180009Y0215852D02*
X0156241Y0215852D01*
X0157039Y0216651D02*
X0179210Y0216651D01*
X0179002Y0217449D02*
X0157334Y0217449D01*
X0157334Y0218248D02*
X0179002Y0218248D01*
X0179002Y0219046D02*
X0157213Y0219046D01*
X0162471Y0227830D02*
X0129636Y0227830D01*
X0126707Y0227830D02*
X0123794Y0227830D01*
X0124260Y0228629D02*
X0125909Y0228629D01*
X0125781Y0229427D02*
X0124260Y0229427D01*
X0124260Y0230226D02*
X0125781Y0230226D01*
X0126069Y0231024D02*
X0124260Y0231024D01*
X0124260Y0231823D02*
X0126867Y0231823D01*
X0124260Y0232621D02*
X0166639Y0232621D01*
X0165453Y0233420D02*
X0124260Y0233420D01*
X0124260Y0234218D02*
X0164654Y0234218D01*
X0163856Y0235017D02*
X0124260Y0235017D01*
X0124260Y0235815D02*
X0163097Y0235815D01*
X0162636Y0236614D02*
X0124703Y0236614D01*
X0125502Y0237412D02*
X0162175Y0237412D01*
X0161714Y0238211D02*
X0126300Y0238211D01*
X0127099Y0239009D02*
X0161296Y0239009D01*
X0161082Y0239808D02*
X0127897Y0239808D01*
X0128696Y0240606D02*
X0160869Y0240606D01*
X0160655Y0241405D02*
X0129494Y0241405D01*
X0130293Y0242203D02*
X0160441Y0242203D01*
X0160394Y0243002D02*
X0131091Y0243002D01*
X0131890Y0243800D02*
X0160394Y0243800D01*
X0160394Y0244599D02*
X0132688Y0244599D01*
X0133487Y0245397D02*
X0160394Y0245397D01*
X0160443Y0246196D02*
X0134285Y0246196D01*
X0135084Y0246994D02*
X0160657Y0246994D01*
X0160871Y0247793D02*
X0135882Y0247793D01*
X0136681Y0248591D02*
X0161085Y0248591D01*
X0161299Y0249390D02*
X0137479Y0249390D01*
X0138278Y0250188D02*
X0161719Y0250188D01*
X0162180Y0250987D02*
X0139076Y0250987D01*
X0139875Y0251785D02*
X0162641Y0251785D01*
X0163102Y0252584D02*
X0140673Y0252584D01*
X0141472Y0253382D02*
X0163864Y0253382D01*
X0164663Y0254181D02*
X0142270Y0254181D01*
X0143069Y0254979D02*
X0146015Y0254979D01*
X0148124Y0254979D02*
X0165461Y0254979D01*
X0166654Y0255778D02*
X0148922Y0255778D01*
X0149460Y0256576D02*
X0168037Y0256576D01*
X0170057Y0257375D02*
X0149460Y0257375D01*
X0145408Y0268169D02*
X0144315Y0267717D01*
X0143131Y0267717D01*
X0142038Y0268169D01*
X0141201Y0269006D01*
X0140748Y0270100D01*
X0140748Y0271283D01*
X0141201Y0272376D01*
X0142038Y0273213D01*
X0143131Y0273666D01*
X0144315Y0273666D01*
X0145408Y0273213D01*
X0146245Y0272376D01*
X0146698Y0271283D01*
X0146698Y0270100D01*
X0146245Y0269006D01*
X0145408Y0268169D01*
X0145793Y0268554D02*
X0164890Y0268554D01*
X0164890Y0267756D02*
X0144409Y0267756D01*
X0143037Y0267756D02*
X0135354Y0267756D01*
X0135259Y0267717D02*
X0136353Y0268169D01*
X0137190Y0269006D01*
X0137643Y0270100D01*
X0137643Y0271283D01*
X0137190Y0272376D01*
X0136353Y0273213D01*
X0135259Y0273666D01*
X0134076Y0273666D01*
X0132983Y0273213D01*
X0132146Y0272376D01*
X0131693Y0271283D01*
X0131693Y0270100D01*
X0132146Y0269006D01*
X0132983Y0268169D01*
X0134076Y0267717D01*
X0135259Y0267717D01*
X0133982Y0267756D02*
X0113501Y0267756D01*
X0113501Y0268554D02*
X0132598Y0268554D01*
X0132002Y0269353D02*
X0104595Y0269353D01*
X0104595Y0268554D02*
X0103795Y0268554D01*
X0103795Y0267756D02*
X0104595Y0267756D01*
X0104595Y0266957D02*
X0103795Y0266957D01*
X0103795Y0266159D02*
X0104595Y0266159D01*
X0104595Y0265360D02*
X0103795Y0265360D01*
X0103795Y0264562D02*
X0104595Y0264562D01*
X0104595Y0263763D02*
X0103795Y0263763D01*
X0103795Y0262965D02*
X0104595Y0262965D01*
X0104595Y0262166D02*
X0103795Y0262166D01*
X0103795Y0261368D02*
X0104595Y0261368D01*
X0104595Y0260569D02*
X0103795Y0260569D01*
X0098037Y0256576D02*
X0002800Y0256576D01*
X0002800Y0255778D02*
X0096654Y0255778D01*
X0095461Y0254979D02*
X0002800Y0254979D01*
X0002800Y0254181D02*
X0094663Y0254181D01*
X0093864Y0253382D02*
X0017760Y0253382D01*
X0018580Y0250987D02*
X0059748Y0250987D01*
X0058949Y0250188D02*
X0018580Y0250188D01*
X0018580Y0249390D02*
X0058151Y0249390D01*
X0057352Y0248591D02*
X0018580Y0248591D01*
X0018580Y0247793D02*
X0056554Y0247793D01*
X0055755Y0246994D02*
X0018580Y0246994D01*
X0018580Y0246196D02*
X0054957Y0246196D01*
X0054158Y0245397D02*
X0018580Y0245397D01*
X0018580Y0244599D02*
X0053360Y0244599D01*
X0051443Y0243800D02*
X0009674Y0243800D01*
X0009674Y0243002D02*
X0008874Y0243002D01*
X0008874Y0242203D02*
X0009674Y0242203D01*
X0009674Y0241405D02*
X0008874Y0241405D01*
X0008874Y0240606D02*
X0009674Y0240606D01*
X0009674Y0239808D02*
X0008874Y0239808D01*
X0008874Y0239009D02*
X0009674Y0239009D01*
X0009674Y0238211D02*
X0008874Y0238211D01*
X0008874Y0237412D02*
X0009674Y0237412D01*
X0009674Y0236614D02*
X0008874Y0236614D01*
X0008874Y0235815D02*
X0009674Y0235815D01*
X0009674Y0235017D02*
X0008874Y0235017D01*
X0002800Y0234218D02*
X0050981Y0234218D01*
X0050981Y0233420D02*
X0002800Y0233420D01*
X0002800Y0232621D02*
X0050981Y0232621D01*
X0050981Y0231823D02*
X0002800Y0231823D01*
X0002800Y0231024D02*
X0050981Y0231024D01*
X0050981Y0230226D02*
X0002800Y0230226D01*
X0002800Y0229427D02*
X0050981Y0229427D01*
X0050981Y0228629D02*
X0002800Y0228629D01*
X0002800Y0227830D02*
X0050981Y0227830D01*
X0050422Y0227032D02*
X0002800Y0227032D01*
X0002800Y0226233D02*
X0050191Y0226233D01*
X0050981Y0235017D02*
X0017774Y0235017D01*
X0018502Y0235815D02*
X0050981Y0235815D01*
X0050981Y0236614D02*
X0018580Y0236614D01*
X0018580Y0237412D02*
X0050981Y0237412D01*
X0050981Y0238211D02*
X0018580Y0238211D01*
X0018580Y0239009D02*
X0050981Y0239009D01*
X0050950Y0239808D02*
X0018580Y0239808D01*
X0018580Y0240606D02*
X0050191Y0240606D01*
X0050191Y0241405D02*
X0018580Y0241405D01*
X0018580Y0242203D02*
X0050191Y0242203D01*
X0050645Y0243002D02*
X0018580Y0243002D01*
X0009674Y0244599D02*
X0008874Y0244599D01*
X0008874Y0245397D02*
X0009674Y0245397D01*
X0009674Y0246196D02*
X0008874Y0246196D01*
X0008874Y0246994D02*
X0009674Y0246994D01*
X0009674Y0247793D02*
X0008874Y0247793D01*
X0008874Y0248591D02*
X0009674Y0248591D01*
X0009674Y0249390D02*
X0008874Y0249390D01*
X0008874Y0250188D02*
X0009674Y0250188D01*
X0009674Y0250987D02*
X0008874Y0250987D01*
X0008874Y0251785D02*
X0009674Y0251785D01*
X0009674Y0252584D02*
X0008874Y0252584D01*
X0008874Y0253382D02*
X0009674Y0253382D01*
X0002800Y0260569D02*
X0025044Y0260569D01*
X0024890Y0261368D02*
X0002800Y0261368D01*
X0002800Y0262166D02*
X0024890Y0262166D01*
X0024890Y0262965D02*
X0002800Y0262965D01*
X0002800Y0263763D02*
X0024890Y0263763D01*
X0024890Y0264562D02*
X0002800Y0264562D01*
X0002800Y0265360D02*
X0024890Y0265360D01*
X0024890Y0266159D02*
X0002800Y0266159D01*
X0002800Y0266957D02*
X0024890Y0266957D01*
X0024890Y0267756D02*
X0002800Y0267756D01*
X0002800Y0268554D02*
X0024890Y0268554D01*
X0024890Y0270151D02*
X0002800Y0270151D01*
X0002800Y0269353D02*
X0033795Y0269353D01*
X0033795Y0268554D02*
X0034595Y0268554D01*
X0034595Y0267756D02*
X0033795Y0267756D01*
X0033795Y0266957D02*
X0034595Y0266957D01*
X0034595Y0266159D02*
X0033795Y0266159D01*
X0033795Y0265360D02*
X0034595Y0265360D01*
X0034595Y0264562D02*
X0033795Y0264562D01*
X0033795Y0263763D02*
X0034595Y0263763D01*
X0034595Y0262965D02*
X0033795Y0262965D01*
X0033795Y0262166D02*
X0034595Y0262166D01*
X0034595Y0261368D02*
X0033795Y0261368D01*
X0033795Y0260569D02*
X0034595Y0260569D01*
X0034595Y0269353D02*
X0045915Y0269353D01*
X0043501Y0270950D02*
X0094890Y0270950D01*
X0094890Y0271748D02*
X0043501Y0271748D01*
X0043501Y0272547D02*
X0094890Y0272547D01*
X0094890Y0273345D02*
X0043501Y0273345D01*
X0043501Y0274144D02*
X0094890Y0274144D01*
X0094890Y0274942D02*
X0043501Y0274942D01*
X0053544Y0264562D02*
X0053578Y0264562D01*
X0053742Y0263763D02*
X0053361Y0263763D01*
X0053030Y0262965D02*
X0054049Y0262965D01*
X0054530Y0262166D02*
X0052560Y0262166D01*
X0051762Y0261368D02*
X0055244Y0261368D01*
X0058244Y0266159D02*
X0059044Y0266159D01*
X0059044Y0265580D02*
X0059044Y0270280D01*
X0059045Y0270280D01*
X0059838Y0270154D01*
X0060602Y0269906D01*
X0061317Y0269541D01*
X0061967Y0269070D01*
X0062534Y0268502D01*
X0063006Y0267853D01*
X0063370Y0267137D01*
X0063619Y0266374D01*
X0063744Y0265581D01*
X0063744Y0265580D01*
X0059044Y0265580D01*
X0059044Y0266957D02*
X0058244Y0266957D01*
X0058244Y0267756D02*
X0059044Y0267756D01*
X0059044Y0268554D02*
X0058244Y0268554D01*
X0058244Y0269353D02*
X0059044Y0269353D01*
X0059044Y0270151D02*
X0058244Y0270151D01*
X0059847Y0270151D02*
X0094890Y0270151D01*
X0094890Y0268554D02*
X0062482Y0268554D01*
X0063055Y0267756D02*
X0094890Y0267756D01*
X0094890Y0266957D02*
X0063429Y0266957D01*
X0063653Y0266159D02*
X0094890Y0266159D01*
X0103795Y0269353D02*
X0061577Y0269353D01*
X0061079Y0247793D02*
X0073674Y0247793D01*
X0107699Y0213998D02*
X0122660Y0228959D01*
X0124896Y0221442D02*
X0127841Y0221442D01*
X0128172Y0219510D02*
X0131715Y0223054D01*
X0133484Y0221442D02*
X0138927Y0221442D01*
X0138380Y0220643D02*
X0131568Y0220643D01*
X0130769Y0219845D02*
X0138380Y0219845D01*
X0138380Y0219046D02*
X0129971Y0219046D01*
X0129772Y0218248D02*
X0139045Y0218248D01*
X0139170Y0217449D02*
X0129772Y0217449D01*
X0129772Y0216651D02*
X0139170Y0216651D01*
X0139170Y0215852D02*
X0129772Y0215852D01*
X0129772Y0215054D02*
X0139170Y0215054D01*
X0139170Y0214255D02*
X0129772Y0214255D01*
X0129772Y0213457D02*
X0139170Y0213457D01*
X0139170Y0212658D02*
X0129772Y0212658D01*
X0129772Y0211860D02*
X0139170Y0211860D01*
X0139681Y0211061D02*
X0129772Y0211061D01*
X0129772Y0210263D02*
X0140479Y0210263D01*
X0141278Y0209464D02*
X0129772Y0209464D01*
X0129772Y0208666D02*
X0142076Y0208666D01*
X0142875Y0207867D02*
X0129772Y0207867D01*
X0129772Y0207069D02*
X0177002Y0207069D01*
X0177591Y0206270D02*
X0129772Y0206270D01*
X0129772Y0205472D02*
X0178390Y0205472D01*
X0179895Y0201479D02*
X0140018Y0201479D01*
X0139220Y0200681D02*
X0179096Y0200681D01*
X0179173Y0196688D02*
X0168951Y0196688D01*
X0168152Y0195890D02*
X0179972Y0195890D01*
X0180770Y0195091D02*
X0167354Y0195091D01*
X0166555Y0194293D02*
X0181569Y0194293D01*
X0181902Y0193423D02*
X0183449Y0193423D01*
X0186202Y0190670D01*
X0186202Y0189123D01*
X0181902Y0189123D01*
X0181102Y0189123D01*
X0181102Y0188323D01*
X0176802Y0188323D01*
X0176802Y0186776D01*
X0179556Y0184023D01*
X0181102Y0184023D01*
X0181102Y0188323D01*
X0181902Y0188323D01*
X0181902Y0184023D01*
X0183449Y0184023D01*
X0186202Y0186776D01*
X0186202Y0188323D01*
X0181902Y0188323D01*
X0181902Y0189123D01*
X0181902Y0193423D01*
X0181902Y0192696D02*
X0181102Y0192696D01*
X0181102Y0193423D02*
X0179556Y0193423D01*
X0176802Y0190670D01*
X0176802Y0189123D01*
X0181102Y0189123D01*
X0181102Y0193423D01*
X0181102Y0191897D02*
X0181902Y0191897D01*
X0181902Y0191099D02*
X0181102Y0191099D01*
X0181102Y0190300D02*
X0181902Y0190300D01*
X0181902Y0189501D02*
X0181102Y0189501D01*
X0181102Y0188703D02*
X0160966Y0188703D01*
X0160480Y0187904D02*
X0176802Y0187904D01*
X0176802Y0187106D02*
X0160480Y0187106D01*
X0160480Y0186307D02*
X0177271Y0186307D01*
X0178069Y0185509D02*
X0160480Y0185509D01*
X0160480Y0184710D02*
X0178868Y0184710D01*
X0181102Y0184710D02*
X0181902Y0184710D01*
X0181902Y0185509D02*
X0181102Y0185509D01*
X0181102Y0186307D02*
X0181902Y0186307D01*
X0181902Y0187106D02*
X0181102Y0187106D01*
X0181102Y0187904D02*
X0181902Y0187904D01*
X0181902Y0188703D02*
X0250169Y0188703D01*
X0250169Y0189501D02*
X0186202Y0189501D01*
X0186202Y0190300D02*
X0250169Y0190300D01*
X0250169Y0191099D02*
X0185773Y0191099D01*
X0184975Y0191897D02*
X0250169Y0191897D01*
X0250169Y0192696D02*
X0184176Y0192696D01*
X0185436Y0194293D02*
X0250169Y0194293D01*
X0250169Y0195091D02*
X0186235Y0195091D01*
X0187033Y0195890D02*
X0250169Y0195890D01*
X0250169Y0196688D02*
X0187832Y0196688D01*
X0188002Y0197487D02*
X0250169Y0197487D01*
X0250169Y0198285D02*
X0188002Y0198285D01*
X0188002Y0199084D02*
X0250250Y0199084D01*
X0250581Y0199882D02*
X0188002Y0199882D01*
X0187908Y0200681D02*
X0251273Y0200681D01*
X0252072Y0201479D02*
X0187110Y0201479D01*
X0186311Y0202278D02*
X0252870Y0202278D01*
X0253669Y0203076D02*
X0185654Y0203076D01*
X0186452Y0203875D02*
X0254467Y0203875D01*
X0255266Y0204673D02*
X0187251Y0204673D01*
X0188049Y0205472D02*
X0256064Y0205472D01*
X0256863Y0206270D02*
X0188433Y0206270D01*
X0188433Y0207069D02*
X0204398Y0207069D01*
X0203734Y0207733D02*
X0205134Y0206332D01*
X0207115Y0206332D01*
X0207905Y0207123D01*
X0225134Y0207123D01*
X0233556Y0215545D01*
X0234674Y0215545D01*
X0236074Y0216945D01*
X0236074Y0218926D01*
X0234674Y0220326D01*
X0232693Y0220326D01*
X0231293Y0218926D01*
X0231293Y0217808D01*
X0223808Y0210323D01*
X0207905Y0210323D01*
X0207115Y0211113D01*
X0205134Y0211113D01*
X0203734Y0209713D01*
X0203734Y0207733D01*
X0203734Y0207867D02*
X0188433Y0207867D01*
X0188433Y0208666D02*
X0203734Y0208666D01*
X0203734Y0209464D02*
X0188433Y0209464D01*
X0188433Y0210263D02*
X0204284Y0210263D01*
X0205082Y0211061D02*
X0188433Y0211061D01*
X0188433Y0211860D02*
X0225345Y0211860D01*
X0226144Y0212658D02*
X0188433Y0212658D01*
X0188433Y0213457D02*
X0226942Y0213457D01*
X0227741Y0214255D02*
X0188433Y0214255D01*
X0188433Y0215054D02*
X0228539Y0215054D01*
X0229338Y0215852D02*
X0188433Y0215852D01*
X0187837Y0216651D02*
X0230136Y0216651D01*
X0230935Y0217449D02*
X0188002Y0217449D01*
X0188002Y0218248D02*
X0231293Y0218248D01*
X0231414Y0219046D02*
X0188002Y0219046D01*
X0188002Y0219845D02*
X0232212Y0219845D01*
X0233683Y0217935D02*
X0224471Y0208723D01*
X0206124Y0208723D01*
X0207851Y0207069D02*
X0257661Y0207069D01*
X0258460Y0207867D02*
X0225878Y0207867D01*
X0226677Y0208666D02*
X0258515Y0208666D01*
X0258515Y0209464D02*
X0227475Y0209464D01*
X0228274Y0210263D02*
X0258515Y0210263D01*
X0258515Y0211061D02*
X0229072Y0211061D01*
X0229871Y0211860D02*
X0258515Y0211860D01*
X0258515Y0212658D02*
X0230669Y0212658D01*
X0231468Y0213457D02*
X0258515Y0213457D01*
X0258515Y0214255D02*
X0232266Y0214255D01*
X0233065Y0215054D02*
X0258515Y0215054D01*
X0258515Y0215852D02*
X0234981Y0215852D01*
X0235780Y0216651D02*
X0258515Y0216651D01*
X0258515Y0217449D02*
X0236074Y0217449D01*
X0236074Y0218248D02*
X0258515Y0218248D01*
X0258515Y0219046D02*
X0235953Y0219046D01*
X0235155Y0219845D02*
X0258515Y0219845D01*
X0258515Y0220643D02*
X0187946Y0220643D01*
X0187147Y0221442D02*
X0258515Y0221442D01*
X0258515Y0222240D02*
X0186349Y0222240D01*
X0183502Y0218723D02*
X0186833Y0215392D01*
X0186833Y0206518D01*
X0184077Y0203762D01*
X0140039Y0203762D01*
X0134471Y0198194D01*
X0134471Y0176597D01*
X0136126Y0178322D02*
X0157280Y0178322D01*
X0157280Y0177524D02*
X0136861Y0177524D01*
X0136861Y0176725D02*
X0156809Y0176725D01*
X0156490Y0175927D02*
X0136861Y0175927D01*
X0136383Y0175128D02*
X0156490Y0175128D01*
X0156586Y0174330D02*
X0135585Y0174330D01*
X0133357Y0174330D02*
X0129772Y0174330D01*
X0129772Y0175128D02*
X0132559Y0175128D01*
X0132080Y0175927D02*
X0129772Y0175927D01*
X0129772Y0176725D02*
X0132080Y0176725D01*
X0132080Y0177524D02*
X0129772Y0177524D01*
X0129772Y0178322D02*
X0132816Y0178322D01*
X0132871Y0179121D02*
X0129772Y0179121D01*
X0129772Y0179919D02*
X0132871Y0179919D01*
X0132871Y0180718D02*
X0129772Y0180718D01*
X0129772Y0181516D02*
X0132871Y0181516D01*
X0132871Y0182315D02*
X0129772Y0182315D01*
X0129772Y0183113D02*
X0132871Y0183113D01*
X0132871Y0183912D02*
X0129772Y0183912D01*
X0129772Y0184710D02*
X0132871Y0184710D01*
X0132871Y0185509D02*
X0129772Y0185509D01*
X0129772Y0186307D02*
X0132871Y0186307D01*
X0132871Y0187106D02*
X0129772Y0187106D01*
X0129772Y0187904D02*
X0132871Y0187904D01*
X0132871Y0188703D02*
X0129772Y0188703D01*
X0129772Y0189501D02*
X0132871Y0189501D01*
X0132871Y0190300D02*
X0129772Y0190300D01*
X0129772Y0191099D02*
X0132871Y0191099D01*
X0132871Y0191897D02*
X0129772Y0191897D01*
X0129772Y0192696D02*
X0132871Y0192696D01*
X0132871Y0193494D02*
X0129772Y0193494D01*
X0129772Y0194293D02*
X0132871Y0194293D01*
X0132871Y0195091D02*
X0129772Y0195091D01*
X0129772Y0195890D02*
X0132871Y0195890D01*
X0132871Y0196688D02*
X0129772Y0196688D01*
X0129772Y0197487D02*
X0132871Y0197487D01*
X0132871Y0198285D02*
X0129772Y0198285D01*
X0129772Y0199084D02*
X0133097Y0199084D01*
X0133896Y0199882D02*
X0129772Y0199882D01*
X0129772Y0200681D02*
X0134694Y0200681D01*
X0135493Y0201479D02*
X0129772Y0201479D01*
X0129772Y0202278D02*
X0136291Y0202278D01*
X0137090Y0203076D02*
X0129772Y0203076D01*
X0129772Y0203875D02*
X0137888Y0203875D01*
X0138687Y0204673D02*
X0129772Y0204673D01*
X0126572Y0196688D02*
X0002800Y0196688D01*
X0002800Y0195890D02*
X0126572Y0195890D01*
X0126572Y0195091D02*
X0002800Y0195091D01*
X0002800Y0194293D02*
X0126572Y0194293D01*
X0126572Y0193494D02*
X0002800Y0193494D01*
X0002800Y0192696D02*
X0126572Y0192696D01*
X0126572Y0191897D02*
X0002800Y0191897D01*
X0002800Y0191099D02*
X0126572Y0191099D01*
X0126572Y0190300D02*
X0002800Y0190300D01*
X0002800Y0189501D02*
X0126572Y0189501D01*
X0126572Y0188703D02*
X0002800Y0188703D01*
X0002800Y0187904D02*
X0126572Y0187904D01*
X0126572Y0187106D02*
X0002800Y0187106D01*
X0002800Y0186307D02*
X0126572Y0186307D01*
X0126572Y0185509D02*
X0002800Y0185509D01*
X0002800Y0184710D02*
X0126572Y0184710D01*
X0126572Y0183912D02*
X0002800Y0183912D01*
X0018580Y0166345D02*
X0034766Y0166345D01*
X0033834Y0165546D02*
X0018367Y0165546D01*
X0032621Y0154367D02*
X0002800Y0154367D01*
X0002800Y0153568D02*
X0032811Y0153568D01*
X0033171Y0152770D02*
X0002800Y0152770D01*
X0002800Y0151971D02*
X0033795Y0151971D01*
X0034871Y0151173D02*
X0002800Y0151173D01*
X0002800Y0124822D02*
X0275591Y0124822D01*
X0275591Y0124024D02*
X0002800Y0124024D01*
X0002800Y0123225D02*
X0275591Y0123225D01*
X0275591Y0122427D02*
X0002800Y0122427D01*
X0002800Y0121628D02*
X0275591Y0121628D01*
X0275591Y0120830D02*
X0002800Y0120830D01*
X0002800Y0120031D02*
X0275591Y0120031D01*
X0275591Y0119232D02*
X0002800Y0119232D01*
X0002800Y0118434D02*
X0275591Y0118434D01*
X0275591Y0117635D02*
X0002800Y0117635D01*
X0002800Y0116837D02*
X0275591Y0116837D01*
X0275591Y0116038D02*
X0002800Y0116038D01*
X0002800Y0115240D02*
X0275591Y0115240D01*
X0275591Y0114441D02*
X0002800Y0114441D01*
X0002800Y0113643D02*
X0275591Y0113643D01*
X0269517Y0112844D02*
X0268717Y0112844D01*
X0268717Y0112046D02*
X0269517Y0112046D01*
X0269517Y0111247D02*
X0268717Y0111247D01*
X0268717Y0110449D02*
X0269517Y0110449D01*
X0269517Y0109650D02*
X0268717Y0109650D01*
X0268717Y0108852D02*
X0269517Y0108852D01*
X0269517Y0108053D02*
X0268717Y0108053D01*
X0268717Y0107255D02*
X0269517Y0107255D01*
X0269517Y0106456D02*
X0268717Y0106456D01*
X0268717Y0105658D02*
X0269517Y0105658D01*
X0269517Y0104859D02*
X0268717Y0104859D01*
X0268716Y0104061D02*
X0009674Y0104061D01*
X0009674Y0104859D02*
X0008874Y0104859D01*
X0008874Y0105658D02*
X0009674Y0105658D01*
X0009674Y0106456D02*
X0008874Y0106456D01*
X0008874Y0107255D02*
X0009674Y0107255D01*
X0009674Y0108053D02*
X0008874Y0108053D01*
X0008874Y0108852D02*
X0009674Y0108852D01*
X0009674Y0109650D02*
X0008874Y0109650D01*
X0008874Y0110449D02*
X0009674Y0110449D01*
X0009674Y0111247D02*
X0008874Y0111247D01*
X0008874Y0112046D02*
X0009674Y0112046D01*
X0009674Y0112844D02*
X0008874Y0112844D01*
X0018367Y0112844D02*
X0260024Y0112844D01*
X0259811Y0112046D02*
X0018580Y0112046D01*
X0018580Y0111247D02*
X0259811Y0111247D01*
X0259811Y0110449D02*
X0018580Y0110449D01*
X0018580Y0109650D02*
X0259811Y0109650D01*
X0259811Y0108852D02*
X0018580Y0108852D01*
X0018580Y0108053D02*
X0259811Y0108053D01*
X0259811Y0107255D02*
X0018580Y0107255D01*
X0018580Y0106456D02*
X0259811Y0106456D01*
X0259811Y0105658D02*
X0018580Y0105658D01*
X0018580Y0104859D02*
X0259811Y0104859D01*
X0259811Y0103262D02*
X0018580Y0103262D01*
X0018580Y0102464D02*
X0259811Y0102464D01*
X0259811Y0101665D02*
X0018580Y0101665D01*
X0018580Y0100867D02*
X0259811Y0100867D01*
X0259811Y0100068D02*
X0018580Y0100068D01*
X0018580Y0099270D02*
X0259811Y0099270D01*
X0259811Y0098471D02*
X0018580Y0098471D01*
X0018580Y0097673D02*
X0259811Y0097673D01*
X0259811Y0096874D02*
X0018580Y0096874D01*
X0018572Y0096076D02*
X0259819Y0096076D01*
X0260244Y0095277D02*
X0018147Y0095277D01*
X0009674Y0095277D02*
X0008874Y0095277D01*
X0008874Y0096076D02*
X0009674Y0096076D01*
X0009674Y0096874D02*
X0008874Y0096874D01*
X0008874Y0097673D02*
X0009674Y0097673D01*
X0009674Y0098471D02*
X0008874Y0098471D01*
X0008874Y0099270D02*
X0009674Y0099270D01*
X0009674Y0100068D02*
X0008874Y0100068D01*
X0008874Y0100867D02*
X0009674Y0100867D01*
X0009674Y0101665D02*
X0008874Y0101665D01*
X0008874Y0102464D02*
X0009674Y0102464D01*
X0009674Y0103262D02*
X0008874Y0103262D01*
X0002800Y0094479D02*
X0275591Y0094479D01*
X0275591Y0093680D02*
X0002800Y0093680D01*
X0002800Y0092882D02*
X0275591Y0092882D01*
X0275591Y0092083D02*
X0144363Y0092083D01*
X0144127Y0092160D02*
X0143467Y0092264D01*
X0143421Y0092264D01*
X0143421Y0088303D01*
X0142843Y0088303D01*
X0142843Y0092264D01*
X0142798Y0092264D01*
X0142137Y0092160D01*
X0141501Y0091953D01*
X0140905Y0091649D01*
X0140364Y0091256D01*
X0139891Y0090783D01*
X0139497Y0090242D01*
X0139194Y0089646D01*
X0139094Y0089338D01*
X0138692Y0090308D01*
X0137552Y0091448D01*
X0136064Y0092064D01*
X0134453Y0092064D01*
X0132964Y0091448D01*
X0131825Y0090308D01*
X0131208Y0088820D01*
X0131208Y0087209D01*
X0131825Y0085720D01*
X0132964Y0084581D01*
X0134453Y0083964D01*
X0136064Y0083964D01*
X0137552Y0084581D01*
X0138692Y0085720D01*
X0139094Y0086691D01*
X0139194Y0086383D01*
X0139497Y0085787D01*
X0139891Y0085245D01*
X0140364Y0084772D01*
X0140905Y0084379D01*
X0141501Y0084076D01*
X0142137Y0083869D01*
X0142798Y0083764D01*
X0142843Y0083764D01*
X0142843Y0087725D01*
X0143421Y0087725D01*
X0143421Y0083764D01*
X0143467Y0083764D01*
X0144127Y0083869D01*
X0144764Y0084076D01*
X0145360Y0084379D01*
X0145901Y0084772D01*
X0146374Y0085245D01*
X0146767Y0085787D01*
X0147071Y0086383D01*
X0147278Y0087019D01*
X0147382Y0087680D01*
X0147382Y0087725D01*
X0143421Y0087725D01*
X0143421Y0088303D01*
X0147382Y0088303D01*
X0147382Y0088349D01*
X0147278Y0089009D01*
X0147071Y0089646D01*
X0146767Y0090242D01*
X0146374Y0090783D01*
X0145901Y0091256D01*
X0145360Y0091649D01*
X0144764Y0091953D01*
X0144127Y0092160D01*
X0143421Y0092083D02*
X0142843Y0092083D01*
X0142843Y0091285D02*
X0143421Y0091285D01*
X0143421Y0090486D02*
X0142843Y0090486D01*
X0142843Y0089688D02*
X0143421Y0089688D01*
X0143421Y0088889D02*
X0142843Y0088889D01*
X0143421Y0088091D02*
X0275591Y0088091D01*
X0275591Y0088889D02*
X0147297Y0088889D01*
X0147050Y0089688D02*
X0275591Y0089688D01*
X0275591Y0090486D02*
X0146590Y0090486D01*
X0145861Y0091285D02*
X0275591Y0091285D01*
X0275591Y0087292D02*
X0147321Y0087292D01*
X0147107Y0086494D02*
X0275591Y0086494D01*
X0275591Y0085695D02*
X0146701Y0085695D01*
X0146025Y0084897D02*
X0275591Y0084897D01*
X0275591Y0084098D02*
X0144808Y0084098D01*
X0143421Y0084098D02*
X0142843Y0084098D01*
X0142843Y0084897D02*
X0143421Y0084897D01*
X0143421Y0085695D02*
X0142843Y0085695D01*
X0142843Y0086494D02*
X0143421Y0086494D01*
X0143421Y0087292D02*
X0142843Y0087292D01*
X0141457Y0084098D02*
X0136387Y0084098D01*
X0137868Y0084897D02*
X0140240Y0084897D01*
X0139564Y0085695D02*
X0138667Y0085695D01*
X0139012Y0086494D02*
X0139158Y0086494D01*
X0139215Y0089688D02*
X0138949Y0089688D01*
X0138514Y0090486D02*
X0139675Y0090486D01*
X0140403Y0091285D02*
X0137715Y0091285D01*
X0141902Y0092083D02*
X0002800Y0092083D01*
X0002800Y0091285D02*
X0132801Y0091285D01*
X0132003Y0090486D02*
X0002800Y0090486D01*
X0002800Y0089688D02*
X0131568Y0089688D01*
X0131237Y0088889D02*
X0002800Y0088889D01*
X0002800Y0088091D02*
X0131208Y0088091D01*
X0131208Y0087292D02*
X0002800Y0087292D01*
X0002800Y0086494D02*
X0131504Y0086494D01*
X0131850Y0085695D02*
X0002800Y0085695D01*
X0002800Y0084897D02*
X0132648Y0084897D01*
X0134130Y0084098D02*
X0002800Y0084098D01*
X0002800Y0083299D02*
X0275591Y0083299D01*
X0275591Y0082501D02*
X0002800Y0082501D01*
X0002800Y0081702D02*
X0275591Y0081702D01*
X0275591Y0080904D02*
X0002800Y0080904D01*
X0002800Y0080105D02*
X0275591Y0080105D01*
X0275591Y0079307D02*
X0002800Y0079307D01*
X0002800Y0078508D02*
X0275591Y0078508D01*
X0275591Y0077710D02*
X0002800Y0077710D01*
X0002800Y0076911D02*
X0275591Y0076911D01*
X0275591Y0076113D02*
X0002800Y0076113D01*
X0002800Y0075314D02*
X0275591Y0075314D01*
X0275591Y0074516D02*
X0002800Y0074516D01*
X0002800Y0073717D02*
X0275591Y0073717D01*
X0275591Y0072919D02*
X0002800Y0072919D01*
X0002800Y0072120D02*
X0275591Y0072120D01*
X0275591Y0071322D02*
X0002800Y0071322D01*
X0002800Y0070523D02*
X0275591Y0070523D01*
X0275591Y0069725D02*
X0002800Y0069725D01*
X0002800Y0068926D02*
X0275591Y0068926D01*
X0275591Y0068128D02*
X0002800Y0068128D01*
X0002800Y0067329D02*
X0275591Y0067329D01*
X0275591Y0066531D02*
X0002800Y0066531D01*
X0002800Y0065732D02*
X0275591Y0065732D01*
X0275591Y0064934D02*
X0002800Y0064934D01*
X0002800Y0064135D02*
X0275591Y0064135D01*
X0275591Y0063337D02*
X0002800Y0063337D01*
X0002800Y0062538D02*
X0275591Y0062538D01*
X0275591Y0061740D02*
X0002800Y0061740D01*
X0002800Y0060941D02*
X0275591Y0060941D01*
X0275591Y0060143D02*
X0002800Y0060143D01*
X0002800Y0059344D02*
X0275591Y0059344D01*
X0275591Y0058546D02*
X0002800Y0058546D01*
X0002800Y0057747D02*
X0275591Y0057747D01*
X0275591Y0056949D02*
X0002800Y0056949D01*
X0002800Y0056150D02*
X0275591Y0056150D01*
X0275591Y0055352D02*
X0002800Y0055352D01*
X0002800Y0054553D02*
X0275591Y0054553D01*
X0275591Y0053755D02*
X0002800Y0053755D01*
X0002800Y0052956D02*
X0275591Y0052956D01*
X0275591Y0052158D02*
X0002800Y0052158D01*
X0002800Y0051359D02*
X0275591Y0051359D01*
X0275591Y0050561D02*
X0002800Y0050561D01*
X0002800Y0049762D02*
X0275591Y0049762D01*
X0275591Y0048963D02*
X0002800Y0048963D01*
X0002800Y0048165D02*
X0275591Y0048165D01*
X0275591Y0047366D02*
X0178365Y0047366D01*
X0179522Y0047056D02*
X0176012Y0047997D01*
X0172378Y0047997D01*
X0168868Y0047056D01*
X0165721Y0045239D01*
X0163151Y0042670D01*
X0161334Y0039522D01*
X0160394Y0036012D01*
X0160394Y0032378D01*
X0161334Y0028868D01*
X0163151Y0025721D01*
X0165721Y0023151D01*
X0168868Y0021334D01*
X0172378Y0020394D01*
X0176012Y0020394D01*
X0179522Y0021334D01*
X0182670Y0023151D01*
X0185239Y0025721D01*
X0187056Y0028868D01*
X0187997Y0032378D01*
X0187997Y0036012D01*
X0187056Y0039522D01*
X0185239Y0042670D01*
X0182670Y0045239D01*
X0179522Y0047056D01*
X0180368Y0046568D02*
X0275591Y0046568D01*
X0275591Y0045769D02*
X0181751Y0045769D01*
X0182938Y0044971D02*
X0275591Y0044971D01*
X0275591Y0044172D02*
X0183736Y0044172D01*
X0184535Y0043374D02*
X0260616Y0043374D01*
X0259889Y0042575D02*
X0185294Y0042575D01*
X0185755Y0041777D02*
X0259811Y0041777D01*
X0259811Y0040978D02*
X0186216Y0040978D01*
X0186677Y0040180D02*
X0259811Y0040180D01*
X0259811Y0039381D02*
X0187094Y0039381D01*
X0187308Y0038583D02*
X0259811Y0038583D01*
X0259811Y0037784D02*
X0187522Y0037784D01*
X0187736Y0036986D02*
X0259811Y0036986D01*
X0259811Y0036187D02*
X0187950Y0036187D01*
X0187997Y0035389D02*
X0259811Y0035389D01*
X0259811Y0033792D02*
X0187997Y0033792D01*
X0187997Y0034590D02*
X0268716Y0034590D01*
X0268717Y0033792D02*
X0269517Y0033792D01*
X0269517Y0032993D02*
X0268717Y0032993D01*
X0268717Y0032195D02*
X0269517Y0032195D01*
X0269517Y0031396D02*
X0268717Y0031396D01*
X0268717Y0030598D02*
X0269517Y0030598D01*
X0269517Y0029799D02*
X0268717Y0029799D01*
X0268717Y0029001D02*
X0269517Y0029001D01*
X0269517Y0028202D02*
X0268717Y0028202D01*
X0268717Y0027404D02*
X0269517Y0027404D01*
X0269517Y0026605D02*
X0268717Y0026605D01*
X0268717Y0025807D02*
X0269517Y0025807D01*
X0269517Y0025008D02*
X0268717Y0025008D01*
X0275591Y0024210D02*
X0183728Y0024210D01*
X0184527Y0025008D02*
X0260631Y0025008D01*
X0259891Y0025807D02*
X0185289Y0025807D01*
X0185750Y0026605D02*
X0259811Y0026605D01*
X0259811Y0027404D02*
X0186211Y0027404D01*
X0186672Y0028202D02*
X0259811Y0028202D01*
X0259811Y0029001D02*
X0187092Y0029001D01*
X0187306Y0029799D02*
X0259811Y0029799D01*
X0259811Y0030598D02*
X0187520Y0030598D01*
X0187734Y0031396D02*
X0259811Y0031396D01*
X0259811Y0032195D02*
X0187948Y0032195D01*
X0187997Y0032993D02*
X0259811Y0032993D01*
X0268717Y0035389D02*
X0269517Y0035389D01*
X0269517Y0036187D02*
X0268717Y0036187D01*
X0268717Y0036986D02*
X0269517Y0036986D01*
X0269517Y0037784D02*
X0268717Y0037784D01*
X0268717Y0038583D02*
X0269517Y0038583D01*
X0269517Y0039381D02*
X0268717Y0039381D01*
X0268717Y0040180D02*
X0269517Y0040180D01*
X0269517Y0040978D02*
X0268717Y0040978D01*
X0268717Y0041777D02*
X0269517Y0041777D01*
X0269517Y0042575D02*
X0268717Y0042575D01*
X0268717Y0043374D02*
X0269517Y0043374D01*
X0275591Y0023411D02*
X0182930Y0023411D01*
X0181737Y0022613D02*
X0275591Y0022613D01*
X0275591Y0021814D02*
X0180354Y0021814D01*
X0178333Y0021016D02*
X0275591Y0021016D01*
X0275591Y0020217D02*
X0002800Y0020217D01*
X0002800Y0019419D02*
X0275591Y0019419D01*
X0275591Y0018620D02*
X0002800Y0018620D01*
X0002800Y0017822D02*
X0025044Y0017822D01*
X0024985Y0017720D02*
X0024890Y0017364D01*
X0024890Y0009674D01*
X0033795Y0009674D01*
X0033795Y0018580D01*
X0026105Y0018580D01*
X0025749Y0018484D01*
X0025430Y0018300D01*
X0025169Y0018039D01*
X0024985Y0017720D01*
X0024890Y0017023D02*
X0002800Y0017023D01*
X0002800Y0016225D02*
X0024890Y0016225D01*
X0024890Y0015426D02*
X0002800Y0015426D01*
X0002800Y0014628D02*
X0024890Y0014628D01*
X0024890Y0013829D02*
X0002800Y0013829D01*
X0002800Y0013030D02*
X0024890Y0013030D01*
X0024890Y0012232D02*
X0002800Y0012232D01*
X0002800Y0011433D02*
X0024890Y0011433D01*
X0024890Y0010635D02*
X0002800Y0010635D01*
X0002800Y0009836D02*
X0024890Y0009836D01*
X0024890Y0008239D02*
X0002800Y0008239D01*
X0002800Y0007441D02*
X0024890Y0007441D01*
X0024890Y0006642D02*
X0002800Y0006642D01*
X0002800Y0005844D02*
X0024890Y0005844D01*
X0024890Y0005045D02*
X0002800Y0005045D01*
X0002800Y0004247D02*
X0024890Y0004247D01*
X0024890Y0003448D02*
X0002800Y0003448D01*
X0002800Y0009038D02*
X0033795Y0009038D01*
X0033795Y0009836D02*
X0034595Y0009836D01*
X0034595Y0009674D02*
X0034595Y0018580D01*
X0042285Y0018580D01*
X0042641Y0018484D01*
X0042960Y0018300D01*
X0043221Y0018039D01*
X0043405Y0017720D01*
X0043501Y0017364D01*
X0043501Y0009674D01*
X0034595Y0009674D01*
X0034595Y0009038D02*
X0103795Y0009038D01*
X0103795Y0009674D02*
X0094890Y0009674D01*
X0094890Y0017364D01*
X0094985Y0017720D01*
X0095169Y0018039D01*
X0095430Y0018300D01*
X0095749Y0018484D01*
X0096105Y0018580D01*
X0103795Y0018580D01*
X0103795Y0009674D01*
X0103795Y0009836D02*
X0104595Y0009836D01*
X0104595Y0009674D02*
X0104595Y0018580D01*
X0112285Y0018580D01*
X0112641Y0018484D01*
X0112960Y0018300D01*
X0113221Y0018039D01*
X0113405Y0017720D01*
X0113501Y0017364D01*
X0113501Y0009674D01*
X0104595Y0009674D01*
X0104595Y0009038D02*
X0173795Y0009038D01*
X0173795Y0009674D02*
X0164890Y0009674D01*
X0164890Y0017364D01*
X0164985Y0017720D01*
X0165169Y0018039D01*
X0165430Y0018300D01*
X0165749Y0018484D01*
X0166105Y0018580D01*
X0173795Y0018580D01*
X0173795Y0009674D01*
X0173795Y0009836D02*
X0174595Y0009836D01*
X0174595Y0009674D02*
X0174595Y0018580D01*
X0182285Y0018580D01*
X0182641Y0018484D01*
X0182960Y0018300D01*
X0183221Y0018039D01*
X0183405Y0017720D01*
X0183501Y0017364D01*
X0183501Y0009674D01*
X0174595Y0009674D01*
X0174595Y0009038D02*
X0243795Y0009038D01*
X0243795Y0009674D02*
X0234890Y0009674D01*
X0234890Y0017364D01*
X0234985Y0017720D01*
X0235169Y0018039D01*
X0235430Y0018300D01*
X0235749Y0018484D01*
X0236105Y0018580D01*
X0243795Y0018580D01*
X0243795Y0009674D01*
X0243795Y0009836D02*
X0244595Y0009836D01*
X0244595Y0009674D02*
X0244595Y0018580D01*
X0252285Y0018580D01*
X0252641Y0018484D01*
X0252960Y0018300D01*
X0253221Y0018039D01*
X0253405Y0017720D01*
X0253501Y0017364D01*
X0253501Y0009674D01*
X0244595Y0009674D01*
X0244595Y0009038D02*
X0275591Y0009038D01*
X0275591Y0009836D02*
X0253501Y0009836D01*
X0253501Y0010635D02*
X0275591Y0010635D01*
X0275591Y0011433D02*
X0253501Y0011433D01*
X0253501Y0012232D02*
X0275591Y0012232D01*
X0275591Y0013030D02*
X0253501Y0013030D01*
X0253501Y0013829D02*
X0275591Y0013829D01*
X0275591Y0014628D02*
X0253501Y0014628D01*
X0253501Y0015426D02*
X0275591Y0015426D01*
X0275591Y0016225D02*
X0253501Y0016225D01*
X0253501Y0017023D02*
X0275591Y0017023D01*
X0275591Y0017822D02*
X0253347Y0017822D01*
X0244595Y0017822D02*
X0243795Y0017822D01*
X0243795Y0017023D02*
X0244595Y0017023D01*
X0244595Y0016225D02*
X0243795Y0016225D01*
X0243795Y0015426D02*
X0244595Y0015426D01*
X0244595Y0014628D02*
X0243795Y0014628D01*
X0243795Y0013829D02*
X0244595Y0013829D01*
X0244595Y0013030D02*
X0243795Y0013030D01*
X0243795Y0012232D02*
X0244595Y0012232D01*
X0244595Y0011433D02*
X0243795Y0011433D01*
X0243795Y0010635D02*
X0244595Y0010635D01*
X0234890Y0010635D02*
X0183501Y0010635D01*
X0183501Y0011433D02*
X0234890Y0011433D01*
X0234890Y0012232D02*
X0183501Y0012232D01*
X0183501Y0013030D02*
X0234890Y0013030D01*
X0234890Y0013829D02*
X0183501Y0013829D01*
X0183501Y0014628D02*
X0234890Y0014628D01*
X0234890Y0015426D02*
X0183501Y0015426D01*
X0183501Y0016225D02*
X0234890Y0016225D01*
X0234890Y0017023D02*
X0183501Y0017023D01*
X0183347Y0017822D02*
X0235044Y0017822D01*
X0234890Y0009836D02*
X0183501Y0009836D01*
X0183501Y0008239D02*
X0234890Y0008239D01*
X0234890Y0007441D02*
X0183501Y0007441D01*
X0183501Y0006642D02*
X0234890Y0006642D01*
X0234890Y0005844D02*
X0183501Y0005844D01*
X0183501Y0005045D02*
X0234890Y0005045D01*
X0234890Y0004247D02*
X0183501Y0004247D01*
X0183501Y0003448D02*
X0234890Y0003448D01*
X0253501Y0003448D02*
X0275591Y0003448D01*
X0275591Y0004247D02*
X0253501Y0004247D01*
X0253501Y0005045D02*
X0275591Y0005045D01*
X0275591Y0005844D02*
X0253501Y0005844D01*
X0253501Y0006642D02*
X0275591Y0006642D01*
X0275591Y0007441D02*
X0253501Y0007441D01*
X0253501Y0008239D02*
X0275591Y0008239D01*
X0269517Y0095277D02*
X0268717Y0095277D01*
X0268717Y0096076D02*
X0269517Y0096076D01*
X0269517Y0096874D02*
X0268717Y0096874D01*
X0268717Y0097673D02*
X0269517Y0097673D01*
X0269517Y0098471D02*
X0268717Y0098471D01*
X0268717Y0099270D02*
X0269517Y0099270D01*
X0269517Y0100068D02*
X0268717Y0100068D01*
X0268717Y0100867D02*
X0269517Y0100867D01*
X0269517Y0101665D02*
X0268717Y0101665D01*
X0268717Y0102464D02*
X0269517Y0102464D01*
X0269517Y0103262D02*
X0268717Y0103262D01*
X0244385Y0158360D02*
X0039362Y0158360D01*
X0038582Y0159158D02*
X0245184Y0159158D01*
X0245982Y0159957D02*
X0039700Y0159957D01*
X0040184Y0157561D02*
X0179414Y0157561D01*
X0178615Y0156763D02*
X0040676Y0156763D01*
X0037122Y0154367D02*
X0036544Y0154367D01*
X0036544Y0153568D02*
X0037122Y0153568D01*
X0037122Y0152770D02*
X0036544Y0152770D01*
X0036544Y0151971D02*
X0037122Y0151971D01*
X0037122Y0151173D02*
X0036544Y0151173D01*
X0107699Y0199825D02*
X0107699Y0213998D01*
X0136071Y0197487D02*
X0165224Y0197487D01*
X0166022Y0198285D02*
X0136824Y0198285D01*
X0137623Y0199084D02*
X0166821Y0199084D01*
X0167619Y0199882D02*
X0138421Y0199882D01*
X0136071Y0196688D02*
X0164425Y0196688D01*
X0163627Y0195890D02*
X0136071Y0195890D01*
X0136071Y0195091D02*
X0162828Y0195091D01*
X0162030Y0194293D02*
X0136071Y0194293D01*
X0136071Y0193494D02*
X0161231Y0193494D01*
X0160433Y0192696D02*
X0136071Y0192696D01*
X0136071Y0191897D02*
X0159634Y0191897D01*
X0158836Y0191099D02*
X0136071Y0191099D01*
X0136071Y0190300D02*
X0158037Y0190300D01*
X0157280Y0189501D02*
X0136071Y0189501D01*
X0136071Y0188703D02*
X0157280Y0188703D01*
X0157280Y0187904D02*
X0136071Y0187904D01*
X0136071Y0187106D02*
X0157280Y0187106D01*
X0157280Y0186307D02*
X0136071Y0186307D01*
X0136071Y0185509D02*
X0157280Y0185509D01*
X0157280Y0184710D02*
X0136071Y0184710D01*
X0136071Y0183912D02*
X0157280Y0183912D01*
X0157280Y0183113D02*
X0136071Y0183113D01*
X0136071Y0182315D02*
X0157280Y0182315D01*
X0157280Y0181516D02*
X0136071Y0181516D01*
X0136071Y0180718D02*
X0157280Y0180718D01*
X0157280Y0179919D02*
X0136071Y0179919D01*
X0136071Y0179121D02*
X0157280Y0179121D01*
X0160480Y0179121D02*
X0179002Y0179121D01*
X0179002Y0179919D02*
X0160480Y0179919D01*
X0160480Y0180718D02*
X0179133Y0180718D01*
X0179002Y0180587D02*
X0179002Y0176859D01*
X0181638Y0174223D01*
X0185366Y0174223D01*
X0188002Y0176859D01*
X0188002Y0180587D01*
X0185366Y0183223D01*
X0181638Y0183223D01*
X0179002Y0180587D01*
X0179932Y0181516D02*
X0160480Y0181516D01*
X0160480Y0182315D02*
X0180730Y0182315D01*
X0181529Y0183113D02*
X0160480Y0183113D01*
X0160480Y0183912D02*
X0250169Y0183912D01*
X0250169Y0184710D02*
X0184137Y0184710D01*
X0184935Y0185509D02*
X0250169Y0185509D01*
X0250169Y0186307D02*
X0185734Y0186307D01*
X0186202Y0187106D02*
X0250169Y0187106D01*
X0250169Y0187904D02*
X0186202Y0187904D01*
X0185476Y0183113D02*
X0250169Y0183113D01*
X0250169Y0182315D02*
X0195126Y0182315D01*
X0195917Y0181516D02*
X0250169Y0181516D01*
X0250169Y0180718D02*
X0195917Y0180718D01*
X0195917Y0179919D02*
X0250169Y0179919D01*
X0250169Y0179121D02*
X0195494Y0179121D01*
X0195126Y0178322D02*
X0250169Y0178322D01*
X0250169Y0177524D02*
X0195126Y0177524D01*
X0195126Y0176725D02*
X0250169Y0176725D01*
X0250169Y0175927D02*
X0195126Y0175927D01*
X0195126Y0175128D02*
X0250169Y0175128D01*
X0250169Y0174330D02*
X0195126Y0174330D01*
X0195126Y0173531D02*
X0250169Y0173531D01*
X0250169Y0172733D02*
X0195126Y0172733D01*
X0195126Y0171934D02*
X0250169Y0171934D01*
X0250169Y0171136D02*
X0195126Y0171136D01*
X0195126Y0170337D02*
X0250169Y0170337D01*
X0250169Y0169539D02*
X0195126Y0169539D01*
X0195126Y0168740D02*
X0250169Y0168740D01*
X0250169Y0167942D02*
X0195126Y0167942D01*
X0195126Y0167143D02*
X0250169Y0167143D01*
X0250169Y0166345D02*
X0195126Y0166345D01*
X0195126Y0165546D02*
X0250169Y0165546D01*
X0250169Y0164748D02*
X0195126Y0164748D01*
X0194738Y0163949D02*
X0249975Y0163949D01*
X0249176Y0163151D02*
X0193939Y0163151D01*
X0193141Y0162352D02*
X0248378Y0162352D01*
X0247579Y0161554D02*
X0192342Y0161554D01*
X0191544Y0160755D02*
X0246781Y0160755D01*
X0268717Y0165546D02*
X0269517Y0165546D01*
X0269517Y0166345D02*
X0268717Y0166345D01*
X0268717Y0167143D02*
X0269517Y0167143D01*
X0269517Y0167942D02*
X0268717Y0167942D01*
X0268717Y0168740D02*
X0269517Y0168740D01*
X0269517Y0169539D02*
X0268717Y0169539D01*
X0268717Y0170337D02*
X0269517Y0170337D01*
X0269517Y0171136D02*
X0268717Y0171136D01*
X0268717Y0171934D02*
X0269517Y0171934D01*
X0269517Y0172733D02*
X0268717Y0172733D01*
X0268717Y0173531D02*
X0269517Y0173531D01*
X0250169Y0193494D02*
X0165757Y0193494D01*
X0164958Y0192696D02*
X0178828Y0192696D01*
X0178030Y0191897D02*
X0164160Y0191897D01*
X0163361Y0191099D02*
X0177231Y0191099D01*
X0176802Y0190300D02*
X0162563Y0190300D01*
X0161764Y0189501D02*
X0176802Y0189501D01*
X0183502Y0198723D02*
X0168723Y0198723D01*
X0158880Y0188880D01*
X0158880Y0175416D01*
X0157384Y0173531D02*
X0129772Y0173531D01*
X0129772Y0172733D02*
X0131163Y0172733D01*
X0131512Y0173082D02*
X0130112Y0171682D01*
X0130112Y0169701D01*
X0131512Y0168301D01*
X0132064Y0168301D01*
X0132471Y0167894D01*
X0133642Y0166723D01*
X0177002Y0166723D01*
X0177002Y0164926D01*
X0177705Y0164223D01*
X0185299Y0164223D01*
X0186002Y0164926D01*
X0186002Y0172520D01*
X0185299Y0173223D01*
X0177705Y0173223D01*
X0177002Y0172520D01*
X0177002Y0170723D01*
X0135299Y0170723D01*
X0134893Y0171129D01*
X0134893Y0171682D01*
X0133493Y0173082D01*
X0131512Y0173082D01*
X0130365Y0171934D02*
X0129772Y0171934D01*
X0129772Y0171136D02*
X0130112Y0171136D01*
X0130112Y0170337D02*
X0129772Y0170337D01*
X0129772Y0169539D02*
X0130274Y0169539D01*
X0129772Y0168740D02*
X0131073Y0168740D01*
X0129772Y0167942D02*
X0132424Y0167942D01*
X0132471Y0167894D02*
X0132471Y0167894D01*
X0133222Y0167143D02*
X0129772Y0167143D01*
X0129772Y0166345D02*
X0177002Y0166345D01*
X0177002Y0165546D02*
X0129888Y0165546D01*
X0130687Y0164748D02*
X0177180Y0164748D01*
X0177002Y0171136D02*
X0134893Y0171136D01*
X0134640Y0171934D02*
X0177002Y0171934D01*
X0177215Y0172733D02*
X0133842Y0172733D01*
X0131485Y0163949D02*
X0190212Y0163949D01*
X0191011Y0164748D02*
X0185824Y0164748D01*
X0186002Y0165546D02*
X0191809Y0165546D01*
X0191926Y0166345D02*
X0186002Y0166345D01*
X0186002Y0167143D02*
X0191926Y0167143D01*
X0191926Y0167942D02*
X0186002Y0167942D01*
X0186002Y0168740D02*
X0191926Y0168740D01*
X0191926Y0169539D02*
X0186002Y0169539D01*
X0186002Y0170337D02*
X0191926Y0170337D01*
X0191926Y0171136D02*
X0186002Y0171136D01*
X0186002Y0171934D02*
X0191926Y0171934D01*
X0191926Y0172733D02*
X0185789Y0172733D01*
X0185473Y0174330D02*
X0191926Y0174330D01*
X0191926Y0175128D02*
X0186272Y0175128D01*
X0187070Y0175927D02*
X0191926Y0175927D01*
X0191926Y0176725D02*
X0187869Y0176725D01*
X0188002Y0177524D02*
X0191926Y0177524D01*
X0191926Y0178322D02*
X0188002Y0178322D01*
X0188002Y0179121D02*
X0191558Y0179121D01*
X0191135Y0179919D02*
X0188002Y0179919D01*
X0187871Y0180718D02*
X0191135Y0180718D01*
X0191135Y0181516D02*
X0187073Y0181516D01*
X0186274Y0182315D02*
X0191926Y0182315D01*
X0193526Y0180534D02*
X0193526Y0165000D01*
X0190162Y0161636D01*
X0131535Y0161636D01*
X0136092Y0142389D02*
X0137180Y0142389D01*
X0139023Y0134404D02*
X0139368Y0134404D01*
X0140166Y0133606D02*
X0138224Y0133606D01*
X0160377Y0173531D02*
X0191926Y0173531D01*
X0181531Y0174330D02*
X0161175Y0174330D01*
X0161271Y0175128D02*
X0180733Y0175128D01*
X0179934Y0175927D02*
X0161271Y0175927D01*
X0160951Y0176725D02*
X0179136Y0176725D01*
X0179002Y0177524D02*
X0160480Y0177524D01*
X0160480Y0178322D02*
X0179002Y0178322D01*
X0181502Y0208723D02*
X0144282Y0208723D01*
X0140770Y0212234D01*
X0140770Y0219904D01*
X0142370Y0214255D02*
X0181606Y0214255D01*
X0183931Y0212658D02*
X0185233Y0212658D01*
X0185233Y0211860D02*
X0184729Y0211860D01*
X0185233Y0213457D02*
X0142370Y0213457D01*
X0142609Y0212658D02*
X0179074Y0212658D01*
X0178275Y0211860D02*
X0143407Y0211860D01*
X0144206Y0211061D02*
X0177477Y0211061D01*
X0166996Y0227830D02*
X0244134Y0227830D01*
X0249905Y0240929D02*
X0251315Y0240929D01*
X0251315Y0244898D01*
X0247346Y0244898D01*
X0247346Y0243488D01*
X0249905Y0240929D01*
X0249430Y0241405D02*
X0187736Y0241405D01*
X0187950Y0242203D02*
X0248631Y0242203D01*
X0247833Y0243002D02*
X0187997Y0243002D01*
X0187997Y0243800D02*
X0247346Y0243800D01*
X0247346Y0244599D02*
X0187997Y0244599D01*
X0187997Y0245397D02*
X0251315Y0245397D01*
X0251315Y0245698D02*
X0251315Y0244898D01*
X0252115Y0244898D01*
X0252115Y0245698D01*
X0251315Y0245698D01*
X0251315Y0249666D01*
X0249905Y0249666D01*
X0247346Y0247107D01*
X0247346Y0245698D01*
X0251315Y0245698D01*
X0251315Y0246196D02*
X0252115Y0246196D01*
X0252115Y0245698D02*
X0252115Y0249666D01*
X0253524Y0249666D01*
X0256083Y0247107D01*
X0256083Y0245698D01*
X0252115Y0245698D01*
X0252115Y0245397D02*
X0258124Y0245397D01*
X0257546Y0244599D02*
X0256083Y0244599D01*
X0256083Y0244898D02*
X0252115Y0244898D01*
X0252115Y0240929D01*
X0253524Y0240929D01*
X0256083Y0243488D01*
X0256083Y0244898D01*
X0256083Y0243800D02*
X0257546Y0243800D01*
X0257546Y0243002D02*
X0255597Y0243002D01*
X0254799Y0242203D02*
X0257546Y0242203D01*
X0257546Y0241405D02*
X0254000Y0241405D01*
X0252115Y0241405D02*
X0251315Y0241405D01*
X0251315Y0242203D02*
X0252115Y0242203D01*
X0252115Y0243002D02*
X0251315Y0243002D01*
X0251315Y0243800D02*
X0252115Y0243800D01*
X0252115Y0244599D02*
X0251315Y0244599D01*
X0251315Y0246994D02*
X0252115Y0246994D01*
X0252115Y0247793D02*
X0251315Y0247793D01*
X0251315Y0248591D02*
X0252115Y0248591D01*
X0252115Y0249390D02*
X0251315Y0249390D01*
X0249629Y0249390D02*
X0187092Y0249390D01*
X0187306Y0248591D02*
X0248831Y0248591D01*
X0248032Y0247793D02*
X0187520Y0247793D01*
X0187734Y0246994D02*
X0247346Y0246994D01*
X0247346Y0246196D02*
X0187948Y0246196D01*
X0187522Y0240606D02*
X0258307Y0240606D01*
X0258515Y0239808D02*
X0187308Y0239808D01*
X0187094Y0239009D02*
X0258515Y0239009D01*
X0258515Y0238211D02*
X0186677Y0238211D01*
X0186216Y0237412D02*
X0258515Y0237412D01*
X0258515Y0236614D02*
X0185755Y0236614D01*
X0185294Y0235815D02*
X0258515Y0235815D01*
X0258515Y0235017D02*
X0184535Y0235017D01*
X0183736Y0234218D02*
X0258515Y0234218D01*
X0258515Y0233420D02*
X0182938Y0233420D01*
X0181751Y0232621D02*
X0258515Y0232621D01*
X0258515Y0231823D02*
X0180368Y0231823D01*
X0178365Y0231024D02*
X0258515Y0231024D01*
X0265883Y0241405D02*
X0269713Y0241405D01*
X0268914Y0242203D02*
X0265883Y0242203D01*
X0265883Y0243002D02*
X0268116Y0243002D01*
X0267546Y0243800D02*
X0265883Y0243800D01*
X0265883Y0244599D02*
X0267546Y0244599D01*
X0267546Y0245397D02*
X0265306Y0245397D01*
X0264507Y0246196D02*
X0267546Y0246196D01*
X0267546Y0246994D02*
X0263709Y0246994D01*
X0259721Y0246994D02*
X0256083Y0246994D01*
X0256083Y0246196D02*
X0258923Y0246196D01*
X0255398Y0247793D02*
X0268315Y0247793D01*
X0269114Y0248591D02*
X0254599Y0248591D01*
X0253801Y0249390D02*
X0269912Y0249390D01*
X0275591Y0260569D02*
X0253347Y0260569D01*
X0253501Y0261368D02*
X0275591Y0261368D01*
X0275591Y0262166D02*
X0253501Y0262166D01*
X0253501Y0262965D02*
X0275591Y0262965D01*
X0275591Y0263763D02*
X0253501Y0263763D01*
X0253501Y0264562D02*
X0275591Y0264562D01*
X0275591Y0265360D02*
X0253501Y0265360D01*
X0253501Y0266159D02*
X0275591Y0266159D01*
X0275591Y0266957D02*
X0253501Y0266957D01*
X0253501Y0267756D02*
X0275591Y0267756D01*
X0275591Y0268554D02*
X0253501Y0268554D01*
X0253501Y0270151D02*
X0275591Y0270151D01*
X0275591Y0269353D02*
X0244595Y0269353D01*
X0244595Y0268554D02*
X0243795Y0268554D01*
X0243795Y0267756D02*
X0244595Y0267756D01*
X0244595Y0266957D02*
X0243795Y0266957D01*
X0243795Y0266159D02*
X0244595Y0266159D01*
X0244595Y0265360D02*
X0243795Y0265360D01*
X0243795Y0264562D02*
X0244595Y0264562D01*
X0244595Y0263763D02*
X0243795Y0263763D01*
X0243795Y0262965D02*
X0244595Y0262965D01*
X0244595Y0262166D02*
X0243795Y0262166D01*
X0243795Y0261368D02*
X0244595Y0261368D01*
X0244595Y0260569D02*
X0243795Y0260569D01*
X0235044Y0260569D02*
X0183347Y0260569D01*
X0183501Y0261368D02*
X0234890Y0261368D01*
X0234890Y0262166D02*
X0183501Y0262166D01*
X0183501Y0262965D02*
X0234890Y0262965D01*
X0234890Y0263763D02*
X0183501Y0263763D01*
X0183501Y0264562D02*
X0234890Y0264562D01*
X0234890Y0265360D02*
X0183501Y0265360D01*
X0183501Y0266159D02*
X0234890Y0266159D01*
X0234890Y0266957D02*
X0183501Y0266957D01*
X0183501Y0267756D02*
X0234890Y0267756D01*
X0234890Y0268554D02*
X0183501Y0268554D01*
X0183501Y0270151D02*
X0234890Y0270151D01*
X0234890Y0270950D02*
X0183501Y0270950D01*
X0183501Y0271748D02*
X0234890Y0271748D01*
X0234890Y0272547D02*
X0183501Y0272547D01*
X0183501Y0273345D02*
X0234890Y0273345D01*
X0234890Y0274144D02*
X0183501Y0274144D01*
X0183501Y0274942D02*
X0234890Y0274942D01*
X0243795Y0269353D02*
X0174595Y0269353D01*
X0174595Y0268554D02*
X0173795Y0268554D01*
X0173795Y0267756D02*
X0174595Y0267756D01*
X0174595Y0266957D02*
X0173795Y0266957D01*
X0173795Y0266159D02*
X0174595Y0266159D01*
X0174595Y0265360D02*
X0173795Y0265360D01*
X0173795Y0264562D02*
X0174595Y0264562D01*
X0174595Y0263763D02*
X0173795Y0263763D01*
X0173795Y0262965D02*
X0174595Y0262965D01*
X0174595Y0262166D02*
X0173795Y0262166D01*
X0173795Y0261368D02*
X0174595Y0261368D01*
X0174595Y0260569D02*
X0173795Y0260569D01*
X0165044Y0260569D02*
X0113347Y0260569D01*
X0113501Y0261368D02*
X0164890Y0261368D01*
X0164890Y0262166D02*
X0113501Y0262166D01*
X0113501Y0262965D02*
X0164890Y0262965D01*
X0164890Y0263763D02*
X0113501Y0263763D01*
X0113501Y0264562D02*
X0164890Y0264562D01*
X0164890Y0265360D02*
X0113501Y0265360D01*
X0113501Y0266159D02*
X0164890Y0266159D01*
X0164890Y0266957D02*
X0113501Y0266957D01*
X0113501Y0270151D02*
X0131693Y0270151D01*
X0131693Y0270950D02*
X0113501Y0270950D01*
X0113501Y0271748D02*
X0131886Y0271748D01*
X0132316Y0272547D02*
X0113501Y0272547D01*
X0113501Y0273345D02*
X0133301Y0273345D01*
X0136034Y0273345D02*
X0142356Y0273345D01*
X0141371Y0272547D02*
X0137019Y0272547D01*
X0137450Y0271748D02*
X0140941Y0271748D01*
X0140748Y0270950D02*
X0137643Y0270950D01*
X0137643Y0270151D02*
X0140748Y0270151D01*
X0141057Y0269353D02*
X0137333Y0269353D01*
X0136738Y0268554D02*
X0141653Y0268554D01*
X0146388Y0269353D02*
X0173795Y0269353D01*
X0164890Y0270151D02*
X0146698Y0270151D01*
X0146698Y0270950D02*
X0164890Y0270950D01*
X0164890Y0271748D02*
X0146505Y0271748D01*
X0146075Y0272547D02*
X0164890Y0272547D01*
X0164890Y0273345D02*
X0145089Y0273345D01*
X0164890Y0274144D02*
X0113501Y0274144D01*
X0113501Y0274942D02*
X0164890Y0274942D01*
X0207167Y0211061D02*
X0224547Y0211061D01*
X0253501Y0270950D02*
X0275591Y0270950D01*
X0275591Y0271748D02*
X0253501Y0271748D01*
X0253501Y0272547D02*
X0275591Y0272547D01*
X0275591Y0273345D02*
X0253501Y0273345D01*
X0253501Y0274144D02*
X0275591Y0274144D01*
X0275591Y0274942D02*
X0253501Y0274942D01*
X0170026Y0047366D02*
X0108365Y0047366D01*
X0109522Y0047056D02*
X0106012Y0047997D01*
X0102378Y0047997D01*
X0098868Y0047056D01*
X0095721Y0045239D01*
X0093151Y0042670D01*
X0091334Y0039522D01*
X0090394Y0036012D01*
X0090394Y0032378D01*
X0091334Y0028868D01*
X0093151Y0025721D01*
X0095721Y0023151D01*
X0098868Y0021334D01*
X0102378Y0020394D01*
X0106012Y0020394D01*
X0109522Y0021334D01*
X0112670Y0023151D01*
X0115239Y0025721D01*
X0117056Y0028868D01*
X0117997Y0032378D01*
X0117997Y0036012D01*
X0117056Y0039522D01*
X0115239Y0042670D01*
X0112670Y0045239D01*
X0109522Y0047056D01*
X0110368Y0046568D02*
X0168022Y0046568D01*
X0166639Y0045769D02*
X0111751Y0045769D01*
X0112938Y0044971D02*
X0165453Y0044971D01*
X0164654Y0044172D02*
X0113736Y0044172D01*
X0114535Y0043374D02*
X0163856Y0043374D01*
X0163097Y0042575D02*
X0115294Y0042575D01*
X0115755Y0041777D02*
X0162636Y0041777D01*
X0162175Y0040978D02*
X0116216Y0040978D01*
X0116677Y0040180D02*
X0161714Y0040180D01*
X0161296Y0039381D02*
X0117094Y0039381D01*
X0117308Y0038583D02*
X0161082Y0038583D01*
X0160869Y0037784D02*
X0117522Y0037784D01*
X0117736Y0036986D02*
X0160655Y0036986D01*
X0160441Y0036187D02*
X0117950Y0036187D01*
X0117997Y0035389D02*
X0160394Y0035389D01*
X0160394Y0034590D02*
X0117997Y0034590D01*
X0117997Y0033792D02*
X0160394Y0033792D01*
X0160394Y0032993D02*
X0117997Y0032993D01*
X0117948Y0032195D02*
X0160443Y0032195D01*
X0160657Y0031396D02*
X0117734Y0031396D01*
X0117520Y0030598D02*
X0160871Y0030598D01*
X0161085Y0029799D02*
X0117306Y0029799D01*
X0117092Y0029001D02*
X0161299Y0029001D01*
X0161719Y0028202D02*
X0116672Y0028202D01*
X0116211Y0027404D02*
X0162180Y0027404D01*
X0162641Y0026605D02*
X0115750Y0026605D01*
X0115289Y0025807D02*
X0163102Y0025807D01*
X0163864Y0025008D02*
X0114527Y0025008D01*
X0113728Y0024210D02*
X0164663Y0024210D01*
X0165461Y0023411D02*
X0112930Y0023411D01*
X0111737Y0022613D02*
X0166654Y0022613D01*
X0168037Y0021814D02*
X0110354Y0021814D01*
X0108333Y0021016D02*
X0170057Y0021016D01*
X0173795Y0017822D02*
X0174595Y0017822D01*
X0174595Y0017023D02*
X0173795Y0017023D01*
X0173795Y0016225D02*
X0174595Y0016225D01*
X0174595Y0015426D02*
X0173795Y0015426D01*
X0173795Y0014628D02*
X0174595Y0014628D01*
X0174595Y0013829D02*
X0173795Y0013829D01*
X0173795Y0013030D02*
X0174595Y0013030D01*
X0174595Y0012232D02*
X0173795Y0012232D01*
X0173795Y0011433D02*
X0174595Y0011433D01*
X0174595Y0010635D02*
X0173795Y0010635D01*
X0164890Y0010635D02*
X0113501Y0010635D01*
X0113501Y0011433D02*
X0164890Y0011433D01*
X0164890Y0012232D02*
X0113501Y0012232D01*
X0113501Y0013030D02*
X0164890Y0013030D01*
X0164890Y0013829D02*
X0113501Y0013829D01*
X0113501Y0014628D02*
X0164890Y0014628D01*
X0164890Y0015426D02*
X0113501Y0015426D01*
X0113501Y0016225D02*
X0164890Y0016225D01*
X0164890Y0017023D02*
X0113501Y0017023D01*
X0113347Y0017822D02*
X0165044Y0017822D01*
X0164890Y0009836D02*
X0113501Y0009836D01*
X0113501Y0008239D02*
X0164890Y0008239D01*
X0164890Y0007441D02*
X0113501Y0007441D01*
X0113501Y0006642D02*
X0164890Y0006642D01*
X0164890Y0005844D02*
X0113501Y0005844D01*
X0113501Y0005045D02*
X0164890Y0005045D01*
X0164890Y0004247D02*
X0113501Y0004247D01*
X0113501Y0003448D02*
X0164890Y0003448D01*
X0104595Y0010635D02*
X0103795Y0010635D01*
X0103795Y0011433D02*
X0104595Y0011433D01*
X0104595Y0012232D02*
X0103795Y0012232D01*
X0103795Y0013030D02*
X0104595Y0013030D01*
X0104595Y0013829D02*
X0103795Y0013829D01*
X0103795Y0014628D02*
X0104595Y0014628D01*
X0104595Y0015426D02*
X0103795Y0015426D01*
X0103795Y0016225D02*
X0104595Y0016225D01*
X0104595Y0017023D02*
X0103795Y0017023D01*
X0103795Y0017822D02*
X0104595Y0017822D01*
X0100057Y0021016D02*
X0002800Y0021016D01*
X0002800Y0021814D02*
X0098037Y0021814D01*
X0096654Y0022613D02*
X0002800Y0022613D01*
X0002800Y0023411D02*
X0095461Y0023411D01*
X0094663Y0024210D02*
X0002800Y0024210D01*
X0002800Y0025008D02*
X0093864Y0025008D01*
X0093102Y0025807D02*
X0002800Y0025807D01*
X0002800Y0026605D02*
X0092641Y0026605D01*
X0092180Y0027404D02*
X0002800Y0027404D01*
X0002800Y0028202D02*
X0091719Y0028202D01*
X0091299Y0029001D02*
X0002800Y0029001D01*
X0002800Y0029799D02*
X0091085Y0029799D01*
X0090871Y0030598D02*
X0029256Y0030598D01*
X0028485Y0029827D02*
X0031044Y0032386D01*
X0031044Y0033795D01*
X0027076Y0033795D01*
X0027076Y0034595D01*
X0031044Y0034595D01*
X0031044Y0036005D01*
X0028485Y0038564D01*
X0027076Y0038564D01*
X0027076Y0034595D01*
X0026276Y0034595D01*
X0026276Y0033795D01*
X0027076Y0033795D01*
X0027076Y0029827D01*
X0028485Y0029827D01*
X0027076Y0030598D02*
X0026276Y0030598D01*
X0026276Y0029827D02*
X0026276Y0033795D01*
X0022307Y0033795D01*
X0022307Y0032386D01*
X0024866Y0029827D01*
X0026276Y0029827D01*
X0026276Y0031396D02*
X0027076Y0031396D01*
X0027076Y0032195D02*
X0026276Y0032195D01*
X0026276Y0032993D02*
X0027076Y0032993D01*
X0027076Y0033792D02*
X0026276Y0033792D01*
X0026276Y0034590D02*
X0020844Y0034590D01*
X0020844Y0033792D02*
X0022307Y0033792D01*
X0022307Y0032993D02*
X0020844Y0032993D01*
X0020844Y0032469D02*
X0018402Y0030027D01*
X0014949Y0030027D01*
X0012507Y0032469D01*
X0012507Y0035922D01*
X0014949Y0038364D01*
X0018402Y0038364D01*
X0020844Y0035922D01*
X0020844Y0032469D01*
X0020570Y0032195D02*
X0022498Y0032195D01*
X0023297Y0031396D02*
X0019772Y0031396D01*
X0018973Y0030598D02*
X0024095Y0030598D01*
X0022307Y0034595D02*
X0026276Y0034595D01*
X0026276Y0038564D01*
X0024866Y0038564D01*
X0022307Y0036005D01*
X0022307Y0034595D01*
X0022307Y0035389D02*
X0020844Y0035389D01*
X0020579Y0036187D02*
X0022490Y0036187D01*
X0023288Y0036986D02*
X0019780Y0036986D01*
X0018982Y0037784D02*
X0024087Y0037784D01*
X0026276Y0037784D02*
X0027076Y0037784D01*
X0027076Y0036986D02*
X0026276Y0036986D01*
X0026276Y0036187D02*
X0027076Y0036187D01*
X0027076Y0035389D02*
X0026276Y0035389D01*
X0027076Y0034590D02*
X0090394Y0034590D01*
X0090394Y0033792D02*
X0031044Y0033792D01*
X0031044Y0032993D02*
X0090394Y0032993D01*
X0090443Y0032195D02*
X0030853Y0032195D01*
X0030055Y0031396D02*
X0090657Y0031396D01*
X0090394Y0035389D02*
X0031044Y0035389D01*
X0030862Y0036187D02*
X0090441Y0036187D01*
X0090655Y0036986D02*
X0030063Y0036986D01*
X0029265Y0037784D02*
X0090869Y0037784D01*
X0091082Y0038583D02*
X0002800Y0038583D01*
X0002800Y0039381D02*
X0091296Y0039381D01*
X0091714Y0040180D02*
X0002800Y0040180D01*
X0002800Y0040978D02*
X0092175Y0040978D01*
X0092636Y0041777D02*
X0002800Y0041777D01*
X0002800Y0042575D02*
X0093097Y0042575D01*
X0093856Y0043374D02*
X0002800Y0043374D01*
X0002800Y0044172D02*
X0094654Y0044172D01*
X0095453Y0044971D02*
X0002800Y0044971D01*
X0002800Y0045769D02*
X0096639Y0045769D01*
X0098022Y0046568D02*
X0002800Y0046568D01*
X0002800Y0047366D02*
X0100026Y0047366D01*
X0095044Y0017822D02*
X0043347Y0017822D01*
X0043501Y0017023D02*
X0094890Y0017023D01*
X0094890Y0016225D02*
X0043501Y0016225D01*
X0043501Y0015426D02*
X0094890Y0015426D01*
X0094890Y0014628D02*
X0043501Y0014628D01*
X0043501Y0013829D02*
X0094890Y0013829D01*
X0094890Y0013030D02*
X0043501Y0013030D01*
X0043501Y0012232D02*
X0094890Y0012232D01*
X0094890Y0011433D02*
X0043501Y0011433D01*
X0043501Y0010635D02*
X0094890Y0010635D01*
X0094890Y0009836D02*
X0043501Y0009836D01*
X0043501Y0008239D02*
X0094890Y0008239D01*
X0094890Y0007441D02*
X0043501Y0007441D01*
X0043501Y0006642D02*
X0094890Y0006642D01*
X0094890Y0005844D02*
X0043501Y0005844D01*
X0043501Y0005045D02*
X0094890Y0005045D01*
X0094890Y0004247D02*
X0043501Y0004247D01*
X0043501Y0003448D02*
X0094890Y0003448D01*
X0034595Y0010635D02*
X0033795Y0010635D01*
X0033795Y0011433D02*
X0034595Y0011433D01*
X0034595Y0012232D02*
X0033795Y0012232D01*
X0033795Y0013030D02*
X0034595Y0013030D01*
X0034595Y0013829D02*
X0033795Y0013829D01*
X0033795Y0014628D02*
X0034595Y0014628D01*
X0034595Y0015426D02*
X0033795Y0015426D01*
X0033795Y0016225D02*
X0034595Y0016225D01*
X0034595Y0017023D02*
X0033795Y0017023D01*
X0033795Y0017822D02*
X0034595Y0017822D01*
X0014378Y0030598D02*
X0008973Y0030598D01*
X0009772Y0031396D02*
X0013579Y0031396D01*
X0012781Y0032195D02*
X0010570Y0032195D01*
X0010844Y0032993D02*
X0012507Y0032993D01*
X0012507Y0033792D02*
X0010844Y0033792D01*
X0010844Y0034590D02*
X0012507Y0034590D01*
X0012507Y0035389D02*
X0010844Y0035389D01*
X0010579Y0036187D02*
X0012772Y0036187D01*
X0013571Y0036986D02*
X0009780Y0036986D01*
X0008982Y0037784D02*
X0014370Y0037784D01*
X0004370Y0037784D02*
X0002800Y0037784D01*
X0002800Y0036986D02*
X0003571Y0036986D01*
X0003579Y0031396D02*
X0002800Y0031396D01*
X0002800Y0030598D02*
X0004378Y0030598D01*
X0002800Y0270950D02*
X0024890Y0270950D01*
X0024890Y0271748D02*
X0002800Y0271748D01*
X0002800Y0272547D02*
X0024890Y0272547D01*
X0024890Y0273345D02*
X0002800Y0273345D01*
X0002800Y0274144D02*
X0024890Y0274144D01*
X0024890Y0274942D02*
X0002800Y0274942D01*
D20*
X0052581Y0241557D03*
X0064392Y0229746D03*
X0052581Y0225809D03*
X0064392Y0213998D03*
X0080140Y0198250D03*
X0080140Y0190376D03*
X0091951Y0182502D03*
X0107699Y0199825D03*
X0122266Y0182502D03*
X0132502Y0170691D03*
X0137227Y0172660D03*
X0134471Y0176597D03*
X0139195Y0190376D03*
X0131321Y0198250D03*
X0139195Y0210061D03*
X0140770Y0219904D03*
X0137620Y0225022D03*
X0131715Y0223054D03*
X0131321Y0226991D03*
X0128172Y0229746D03*
X0123447Y0225809D03*
X0123447Y0219510D03*
X0125022Y0215967D03*
X0111636Y0225809D03*
X0147069Y0198250D03*
X0159668Y0215180D03*
X0154943Y0217935D03*
X0168329Y0221872D03*
X0149431Y0247463D03*
X0147069Y0257306D03*
X0202187Y0241557D03*
X0213998Y0229746D03*
X0213998Y0221872D03*
X0221872Y0221872D03*
X0221872Y0229746D03*
X0233683Y0217935D03*
X0245494Y0225809D03*
X0257306Y0210061D03*
X0206124Y0208723D03*
X0206124Y0198250D03*
X0205337Y0190376D03*
X0205337Y0182502D03*
X0193526Y0180534D03*
X0181321Y0154943D03*
X0205337Y0146282D03*
X0158880Y0175416D03*
X0151006Y0172266D03*
X0135258Y0129353D03*
X0064392Y0048644D03*
X0075416Y0249431D03*
D21*
X0132502Y0170691D02*
X0134471Y0168723D01*
X0181502Y0168723D01*
D22*
X0181321Y0154943D02*
X0181321Y0129353D01*
X0135258Y0129353D01*
X0181321Y0154943D02*
X0245494Y0154943D01*
X0253369Y0162817D01*
X0253369Y0198250D01*
X0261715Y0206597D01*
X0261715Y0243093D01*
D23*
X0134077Y0140180D02*
X0131715Y0137817D01*
X0131715Y0132896D01*
X0135258Y0129353D01*
M02*
