%
M48
M72
T01C0.0118
T02C0.0157
T03C0.0276
T04C0.0315
T05C0.0394
T06C0.0400
T07C0.0472
T08C0.1181
T09C0.2480
%
T01
X6439Y4864
X20534Y14628
X13723Y17266
X15101Y17227
X12227Y18250
X13132Y19825
X13920Y19038
X14707Y19825
X13920Y21006
X15967Y21518
X14943Y24746
X12502Y21597
X13132Y22699
X6439Y22975
X6439Y21400
X20219Y24156
X22187Y22187
X21400Y22187
X21400Y22975
X22187Y22975
X25731Y21006
X20534Y18250
X20612Y19825
X16833Y22187
X8014Y19038
X8014Y19825
X9195Y18250
X11164Y22581
X12345Y22581
X20534Y19038
X15494Y21794
X13762Y22502
X13250Y17069
X18132Y15494
X13526Y12935
X13447Y17660
X15888Y17542
X13171Y22305
X19353Y18053
X12345Y21951
X7542Y24943
X5258Y24156
X5258Y22581
X14077Y21990
X20612Y20872
X23368Y21794
X12817Y22975
X24549Y22581
X10770Y19983
X14707Y25731
T02
X13408Y14018
X13664Y13624
X13920Y14018
X14175Y13624
X14431Y14018
T03
X14313Y8801
X13526Y8801
X3683Y15494
X3683Y16282
T04
X13467Y27069
X14372Y27069
T05
X27171Y24530
X26171Y24309
X25171Y24530
X668Y3420
X1668Y3420
X2668Y3420
T06
X18150Y16872
X18350Y17872
X18150Y18872
X18350Y19872
X18150Y20872
X18350Y21872
X4864Y26518
X5864Y26518
T07
X12512Y14061
X15327Y14061
T08
X3420Y927
X10420Y927
X17420Y927
X24420Y927
X3420Y26912
X10420Y26912
X17420Y26912
X24420Y26912
X927Y24420
X927Y17420
X927Y10420
X26912Y3420
X26912Y10420
X26912Y17420
T09
X10420Y24420
X17420Y24420
X10420Y3420
X17420Y3420
M30
