G75*
%MOIN*%
%OFA0B0*%
%FSLAX25Y25*%
%IPPOS*%
%LPD*%
%AMOC8*
5,1,8,0,0,1.08239X$1,22.5*
%
%ADD10C,0.00000*%
%ADD11R,0.01575X0.04724*%
%ADD12R,0.04724X0.01575*%
%ADD13R,0.16535X0.11811*%
%ADD14R,0.04800X0.08800*%
%ADD15R,0.14173X0.08661*%
%ADD16R,0.03937X0.07087*%
%ADD17R,0.03937X0.04331*%
%ADD18R,0.02480X0.03268*%
%ADD19R,0.09843X0.04724*%
%ADD20R,0.04331X0.03937*%
%ADD21R,0.05787X0.05000*%
%ADD22R,0.05906X0.06299*%
%ADD23R,0.04409X0.04724*%
%ADD24R,0.06000X0.03000*%
%ADD25R,0.03937X0.05512*%
%ADD26R,0.21000X0.11000*%
%ADD27R,0.04750X0.14800*%
%ADD28R,0.05750X0.16500*%
%ADD29R,0.05650X0.05000*%
%ADD30R,0.12750X0.09000*%
%ADD31R,0.01575X0.02953*%
%ADD32R,0.03150X0.03150*%
D10*
X0001400Y0001400D02*
X0001400Y0276991D01*
X0276991Y0276991D01*
X0276991Y0001400D01*
X0001400Y0001400D01*
X0091793Y0034195D02*
X0091797Y0034499D01*
X0091808Y0034804D01*
X0091827Y0035107D01*
X0091853Y0035411D01*
X0091886Y0035713D01*
X0091927Y0036015D01*
X0091976Y0036315D01*
X0092031Y0036615D01*
X0092094Y0036912D01*
X0092165Y0037208D01*
X0092242Y0037503D01*
X0092327Y0037795D01*
X0092419Y0038085D01*
X0092518Y0038373D01*
X0092624Y0038658D01*
X0092737Y0038941D01*
X0092857Y0039221D01*
X0092984Y0039498D01*
X0093117Y0039771D01*
X0093257Y0040041D01*
X0093404Y0040308D01*
X0093557Y0040571D01*
X0093717Y0040830D01*
X0093883Y0041085D01*
X0094055Y0041336D01*
X0094234Y0041583D01*
X0094418Y0041825D01*
X0094608Y0042063D01*
X0094804Y0042296D01*
X0095006Y0042524D01*
X0095213Y0042747D01*
X0095425Y0042965D01*
X0095643Y0043177D01*
X0095866Y0043384D01*
X0096094Y0043586D01*
X0096327Y0043782D01*
X0096565Y0043972D01*
X0096807Y0044156D01*
X0097054Y0044335D01*
X0097305Y0044507D01*
X0097560Y0044673D01*
X0097819Y0044833D01*
X0098082Y0044986D01*
X0098349Y0045133D01*
X0098619Y0045273D01*
X0098892Y0045406D01*
X0099169Y0045533D01*
X0099449Y0045653D01*
X0099732Y0045766D01*
X0100017Y0045872D01*
X0100305Y0045971D01*
X0100595Y0046063D01*
X0100887Y0046148D01*
X0101182Y0046225D01*
X0101478Y0046296D01*
X0101775Y0046359D01*
X0102075Y0046414D01*
X0102375Y0046463D01*
X0102677Y0046504D01*
X0102979Y0046537D01*
X0103283Y0046563D01*
X0103586Y0046582D01*
X0103891Y0046593D01*
X0104195Y0046597D01*
X0104499Y0046593D01*
X0104804Y0046582D01*
X0105107Y0046563D01*
X0105411Y0046537D01*
X0105713Y0046504D01*
X0106015Y0046463D01*
X0106315Y0046414D01*
X0106615Y0046359D01*
X0106912Y0046296D01*
X0107208Y0046225D01*
X0107503Y0046148D01*
X0107795Y0046063D01*
X0108085Y0045971D01*
X0108373Y0045872D01*
X0108658Y0045766D01*
X0108941Y0045653D01*
X0109221Y0045533D01*
X0109498Y0045406D01*
X0109771Y0045273D01*
X0110041Y0045133D01*
X0110308Y0044986D01*
X0110571Y0044833D01*
X0110830Y0044673D01*
X0111085Y0044507D01*
X0111336Y0044335D01*
X0111583Y0044156D01*
X0111825Y0043972D01*
X0112063Y0043782D01*
X0112296Y0043586D01*
X0112524Y0043384D01*
X0112747Y0043177D01*
X0112965Y0042965D01*
X0113177Y0042747D01*
X0113384Y0042524D01*
X0113586Y0042296D01*
X0113782Y0042063D01*
X0113972Y0041825D01*
X0114156Y0041583D01*
X0114335Y0041336D01*
X0114507Y0041085D01*
X0114673Y0040830D01*
X0114833Y0040571D01*
X0114986Y0040308D01*
X0115133Y0040041D01*
X0115273Y0039771D01*
X0115406Y0039498D01*
X0115533Y0039221D01*
X0115653Y0038941D01*
X0115766Y0038658D01*
X0115872Y0038373D01*
X0115971Y0038085D01*
X0116063Y0037795D01*
X0116148Y0037503D01*
X0116225Y0037208D01*
X0116296Y0036912D01*
X0116359Y0036615D01*
X0116414Y0036315D01*
X0116463Y0036015D01*
X0116504Y0035713D01*
X0116537Y0035411D01*
X0116563Y0035107D01*
X0116582Y0034804D01*
X0116593Y0034499D01*
X0116597Y0034195D01*
X0116593Y0033891D01*
X0116582Y0033586D01*
X0116563Y0033283D01*
X0116537Y0032979D01*
X0116504Y0032677D01*
X0116463Y0032375D01*
X0116414Y0032075D01*
X0116359Y0031775D01*
X0116296Y0031478D01*
X0116225Y0031182D01*
X0116148Y0030887D01*
X0116063Y0030595D01*
X0115971Y0030305D01*
X0115872Y0030017D01*
X0115766Y0029732D01*
X0115653Y0029449D01*
X0115533Y0029169D01*
X0115406Y0028892D01*
X0115273Y0028619D01*
X0115133Y0028349D01*
X0114986Y0028082D01*
X0114833Y0027819D01*
X0114673Y0027560D01*
X0114507Y0027305D01*
X0114335Y0027054D01*
X0114156Y0026807D01*
X0113972Y0026565D01*
X0113782Y0026327D01*
X0113586Y0026094D01*
X0113384Y0025866D01*
X0113177Y0025643D01*
X0112965Y0025425D01*
X0112747Y0025213D01*
X0112524Y0025006D01*
X0112296Y0024804D01*
X0112063Y0024608D01*
X0111825Y0024418D01*
X0111583Y0024234D01*
X0111336Y0024055D01*
X0111085Y0023883D01*
X0110830Y0023717D01*
X0110571Y0023557D01*
X0110308Y0023404D01*
X0110041Y0023257D01*
X0109771Y0023117D01*
X0109498Y0022984D01*
X0109221Y0022857D01*
X0108941Y0022737D01*
X0108658Y0022624D01*
X0108373Y0022518D01*
X0108085Y0022419D01*
X0107795Y0022327D01*
X0107503Y0022242D01*
X0107208Y0022165D01*
X0106912Y0022094D01*
X0106615Y0022031D01*
X0106315Y0021976D01*
X0106015Y0021927D01*
X0105713Y0021886D01*
X0105411Y0021853D01*
X0105107Y0021827D01*
X0104804Y0021808D01*
X0104499Y0021797D01*
X0104195Y0021793D01*
X0103891Y0021797D01*
X0103586Y0021808D01*
X0103283Y0021827D01*
X0102979Y0021853D01*
X0102677Y0021886D01*
X0102375Y0021927D01*
X0102075Y0021976D01*
X0101775Y0022031D01*
X0101478Y0022094D01*
X0101182Y0022165D01*
X0100887Y0022242D01*
X0100595Y0022327D01*
X0100305Y0022419D01*
X0100017Y0022518D01*
X0099732Y0022624D01*
X0099449Y0022737D01*
X0099169Y0022857D01*
X0098892Y0022984D01*
X0098619Y0023117D01*
X0098349Y0023257D01*
X0098082Y0023404D01*
X0097819Y0023557D01*
X0097560Y0023717D01*
X0097305Y0023883D01*
X0097054Y0024055D01*
X0096807Y0024234D01*
X0096565Y0024418D01*
X0096327Y0024608D01*
X0096094Y0024804D01*
X0095866Y0025006D01*
X0095643Y0025213D01*
X0095425Y0025425D01*
X0095213Y0025643D01*
X0095006Y0025866D01*
X0094804Y0026094D01*
X0094608Y0026327D01*
X0094418Y0026565D01*
X0094234Y0026807D01*
X0094055Y0027054D01*
X0093883Y0027305D01*
X0093717Y0027560D01*
X0093557Y0027819D01*
X0093404Y0028082D01*
X0093257Y0028349D01*
X0093117Y0028619D01*
X0092984Y0028892D01*
X0092857Y0029169D01*
X0092737Y0029449D01*
X0092624Y0029732D01*
X0092518Y0030017D01*
X0092419Y0030305D01*
X0092327Y0030595D01*
X0092242Y0030887D01*
X0092165Y0031182D01*
X0092094Y0031478D01*
X0092031Y0031775D01*
X0091976Y0032075D01*
X0091927Y0032375D01*
X0091886Y0032677D01*
X0091853Y0032979D01*
X0091827Y0033283D01*
X0091808Y0033586D01*
X0091797Y0033891D01*
X0091793Y0034195D01*
X0161793Y0034195D02*
X0161797Y0034499D01*
X0161808Y0034804D01*
X0161827Y0035107D01*
X0161853Y0035411D01*
X0161886Y0035713D01*
X0161927Y0036015D01*
X0161976Y0036315D01*
X0162031Y0036615D01*
X0162094Y0036912D01*
X0162165Y0037208D01*
X0162242Y0037503D01*
X0162327Y0037795D01*
X0162419Y0038085D01*
X0162518Y0038373D01*
X0162624Y0038658D01*
X0162737Y0038941D01*
X0162857Y0039221D01*
X0162984Y0039498D01*
X0163117Y0039771D01*
X0163257Y0040041D01*
X0163404Y0040308D01*
X0163557Y0040571D01*
X0163717Y0040830D01*
X0163883Y0041085D01*
X0164055Y0041336D01*
X0164234Y0041583D01*
X0164418Y0041825D01*
X0164608Y0042063D01*
X0164804Y0042296D01*
X0165006Y0042524D01*
X0165213Y0042747D01*
X0165425Y0042965D01*
X0165643Y0043177D01*
X0165866Y0043384D01*
X0166094Y0043586D01*
X0166327Y0043782D01*
X0166565Y0043972D01*
X0166807Y0044156D01*
X0167054Y0044335D01*
X0167305Y0044507D01*
X0167560Y0044673D01*
X0167819Y0044833D01*
X0168082Y0044986D01*
X0168349Y0045133D01*
X0168619Y0045273D01*
X0168892Y0045406D01*
X0169169Y0045533D01*
X0169449Y0045653D01*
X0169732Y0045766D01*
X0170017Y0045872D01*
X0170305Y0045971D01*
X0170595Y0046063D01*
X0170887Y0046148D01*
X0171182Y0046225D01*
X0171478Y0046296D01*
X0171775Y0046359D01*
X0172075Y0046414D01*
X0172375Y0046463D01*
X0172677Y0046504D01*
X0172979Y0046537D01*
X0173283Y0046563D01*
X0173586Y0046582D01*
X0173891Y0046593D01*
X0174195Y0046597D01*
X0174499Y0046593D01*
X0174804Y0046582D01*
X0175107Y0046563D01*
X0175411Y0046537D01*
X0175713Y0046504D01*
X0176015Y0046463D01*
X0176315Y0046414D01*
X0176615Y0046359D01*
X0176912Y0046296D01*
X0177208Y0046225D01*
X0177503Y0046148D01*
X0177795Y0046063D01*
X0178085Y0045971D01*
X0178373Y0045872D01*
X0178658Y0045766D01*
X0178941Y0045653D01*
X0179221Y0045533D01*
X0179498Y0045406D01*
X0179771Y0045273D01*
X0180041Y0045133D01*
X0180308Y0044986D01*
X0180571Y0044833D01*
X0180830Y0044673D01*
X0181085Y0044507D01*
X0181336Y0044335D01*
X0181583Y0044156D01*
X0181825Y0043972D01*
X0182063Y0043782D01*
X0182296Y0043586D01*
X0182524Y0043384D01*
X0182747Y0043177D01*
X0182965Y0042965D01*
X0183177Y0042747D01*
X0183384Y0042524D01*
X0183586Y0042296D01*
X0183782Y0042063D01*
X0183972Y0041825D01*
X0184156Y0041583D01*
X0184335Y0041336D01*
X0184507Y0041085D01*
X0184673Y0040830D01*
X0184833Y0040571D01*
X0184986Y0040308D01*
X0185133Y0040041D01*
X0185273Y0039771D01*
X0185406Y0039498D01*
X0185533Y0039221D01*
X0185653Y0038941D01*
X0185766Y0038658D01*
X0185872Y0038373D01*
X0185971Y0038085D01*
X0186063Y0037795D01*
X0186148Y0037503D01*
X0186225Y0037208D01*
X0186296Y0036912D01*
X0186359Y0036615D01*
X0186414Y0036315D01*
X0186463Y0036015D01*
X0186504Y0035713D01*
X0186537Y0035411D01*
X0186563Y0035107D01*
X0186582Y0034804D01*
X0186593Y0034499D01*
X0186597Y0034195D01*
X0186593Y0033891D01*
X0186582Y0033586D01*
X0186563Y0033283D01*
X0186537Y0032979D01*
X0186504Y0032677D01*
X0186463Y0032375D01*
X0186414Y0032075D01*
X0186359Y0031775D01*
X0186296Y0031478D01*
X0186225Y0031182D01*
X0186148Y0030887D01*
X0186063Y0030595D01*
X0185971Y0030305D01*
X0185872Y0030017D01*
X0185766Y0029732D01*
X0185653Y0029449D01*
X0185533Y0029169D01*
X0185406Y0028892D01*
X0185273Y0028619D01*
X0185133Y0028349D01*
X0184986Y0028082D01*
X0184833Y0027819D01*
X0184673Y0027560D01*
X0184507Y0027305D01*
X0184335Y0027054D01*
X0184156Y0026807D01*
X0183972Y0026565D01*
X0183782Y0026327D01*
X0183586Y0026094D01*
X0183384Y0025866D01*
X0183177Y0025643D01*
X0182965Y0025425D01*
X0182747Y0025213D01*
X0182524Y0025006D01*
X0182296Y0024804D01*
X0182063Y0024608D01*
X0181825Y0024418D01*
X0181583Y0024234D01*
X0181336Y0024055D01*
X0181085Y0023883D01*
X0180830Y0023717D01*
X0180571Y0023557D01*
X0180308Y0023404D01*
X0180041Y0023257D01*
X0179771Y0023117D01*
X0179498Y0022984D01*
X0179221Y0022857D01*
X0178941Y0022737D01*
X0178658Y0022624D01*
X0178373Y0022518D01*
X0178085Y0022419D01*
X0177795Y0022327D01*
X0177503Y0022242D01*
X0177208Y0022165D01*
X0176912Y0022094D01*
X0176615Y0022031D01*
X0176315Y0021976D01*
X0176015Y0021927D01*
X0175713Y0021886D01*
X0175411Y0021853D01*
X0175107Y0021827D01*
X0174804Y0021808D01*
X0174499Y0021797D01*
X0174195Y0021793D01*
X0173891Y0021797D01*
X0173586Y0021808D01*
X0173283Y0021827D01*
X0172979Y0021853D01*
X0172677Y0021886D01*
X0172375Y0021927D01*
X0172075Y0021976D01*
X0171775Y0022031D01*
X0171478Y0022094D01*
X0171182Y0022165D01*
X0170887Y0022242D01*
X0170595Y0022327D01*
X0170305Y0022419D01*
X0170017Y0022518D01*
X0169732Y0022624D01*
X0169449Y0022737D01*
X0169169Y0022857D01*
X0168892Y0022984D01*
X0168619Y0023117D01*
X0168349Y0023257D01*
X0168082Y0023404D01*
X0167819Y0023557D01*
X0167560Y0023717D01*
X0167305Y0023883D01*
X0167054Y0024055D01*
X0166807Y0024234D01*
X0166565Y0024418D01*
X0166327Y0024608D01*
X0166094Y0024804D01*
X0165866Y0025006D01*
X0165643Y0025213D01*
X0165425Y0025425D01*
X0165213Y0025643D01*
X0165006Y0025866D01*
X0164804Y0026094D01*
X0164608Y0026327D01*
X0164418Y0026565D01*
X0164234Y0026807D01*
X0164055Y0027054D01*
X0163883Y0027305D01*
X0163717Y0027560D01*
X0163557Y0027819D01*
X0163404Y0028082D01*
X0163257Y0028349D01*
X0163117Y0028619D01*
X0162984Y0028892D01*
X0162857Y0029169D01*
X0162737Y0029449D01*
X0162624Y0029732D01*
X0162518Y0030017D01*
X0162419Y0030305D01*
X0162327Y0030595D01*
X0162242Y0030887D01*
X0162165Y0031182D01*
X0162094Y0031478D01*
X0162031Y0031775D01*
X0161976Y0032075D01*
X0161927Y0032375D01*
X0161886Y0032677D01*
X0161853Y0032979D01*
X0161827Y0033283D01*
X0161808Y0033586D01*
X0161797Y0033891D01*
X0161793Y0034195D01*
X0161793Y0244195D02*
X0161797Y0244499D01*
X0161808Y0244804D01*
X0161827Y0245107D01*
X0161853Y0245411D01*
X0161886Y0245713D01*
X0161927Y0246015D01*
X0161976Y0246315D01*
X0162031Y0246615D01*
X0162094Y0246912D01*
X0162165Y0247208D01*
X0162242Y0247503D01*
X0162327Y0247795D01*
X0162419Y0248085D01*
X0162518Y0248373D01*
X0162624Y0248658D01*
X0162737Y0248941D01*
X0162857Y0249221D01*
X0162984Y0249498D01*
X0163117Y0249771D01*
X0163257Y0250041D01*
X0163404Y0250308D01*
X0163557Y0250571D01*
X0163717Y0250830D01*
X0163883Y0251085D01*
X0164055Y0251336D01*
X0164234Y0251583D01*
X0164418Y0251825D01*
X0164608Y0252063D01*
X0164804Y0252296D01*
X0165006Y0252524D01*
X0165213Y0252747D01*
X0165425Y0252965D01*
X0165643Y0253177D01*
X0165866Y0253384D01*
X0166094Y0253586D01*
X0166327Y0253782D01*
X0166565Y0253972D01*
X0166807Y0254156D01*
X0167054Y0254335D01*
X0167305Y0254507D01*
X0167560Y0254673D01*
X0167819Y0254833D01*
X0168082Y0254986D01*
X0168349Y0255133D01*
X0168619Y0255273D01*
X0168892Y0255406D01*
X0169169Y0255533D01*
X0169449Y0255653D01*
X0169732Y0255766D01*
X0170017Y0255872D01*
X0170305Y0255971D01*
X0170595Y0256063D01*
X0170887Y0256148D01*
X0171182Y0256225D01*
X0171478Y0256296D01*
X0171775Y0256359D01*
X0172075Y0256414D01*
X0172375Y0256463D01*
X0172677Y0256504D01*
X0172979Y0256537D01*
X0173283Y0256563D01*
X0173586Y0256582D01*
X0173891Y0256593D01*
X0174195Y0256597D01*
X0174499Y0256593D01*
X0174804Y0256582D01*
X0175107Y0256563D01*
X0175411Y0256537D01*
X0175713Y0256504D01*
X0176015Y0256463D01*
X0176315Y0256414D01*
X0176615Y0256359D01*
X0176912Y0256296D01*
X0177208Y0256225D01*
X0177503Y0256148D01*
X0177795Y0256063D01*
X0178085Y0255971D01*
X0178373Y0255872D01*
X0178658Y0255766D01*
X0178941Y0255653D01*
X0179221Y0255533D01*
X0179498Y0255406D01*
X0179771Y0255273D01*
X0180041Y0255133D01*
X0180308Y0254986D01*
X0180571Y0254833D01*
X0180830Y0254673D01*
X0181085Y0254507D01*
X0181336Y0254335D01*
X0181583Y0254156D01*
X0181825Y0253972D01*
X0182063Y0253782D01*
X0182296Y0253586D01*
X0182524Y0253384D01*
X0182747Y0253177D01*
X0182965Y0252965D01*
X0183177Y0252747D01*
X0183384Y0252524D01*
X0183586Y0252296D01*
X0183782Y0252063D01*
X0183972Y0251825D01*
X0184156Y0251583D01*
X0184335Y0251336D01*
X0184507Y0251085D01*
X0184673Y0250830D01*
X0184833Y0250571D01*
X0184986Y0250308D01*
X0185133Y0250041D01*
X0185273Y0249771D01*
X0185406Y0249498D01*
X0185533Y0249221D01*
X0185653Y0248941D01*
X0185766Y0248658D01*
X0185872Y0248373D01*
X0185971Y0248085D01*
X0186063Y0247795D01*
X0186148Y0247503D01*
X0186225Y0247208D01*
X0186296Y0246912D01*
X0186359Y0246615D01*
X0186414Y0246315D01*
X0186463Y0246015D01*
X0186504Y0245713D01*
X0186537Y0245411D01*
X0186563Y0245107D01*
X0186582Y0244804D01*
X0186593Y0244499D01*
X0186597Y0244195D01*
X0186593Y0243891D01*
X0186582Y0243586D01*
X0186563Y0243283D01*
X0186537Y0242979D01*
X0186504Y0242677D01*
X0186463Y0242375D01*
X0186414Y0242075D01*
X0186359Y0241775D01*
X0186296Y0241478D01*
X0186225Y0241182D01*
X0186148Y0240887D01*
X0186063Y0240595D01*
X0185971Y0240305D01*
X0185872Y0240017D01*
X0185766Y0239732D01*
X0185653Y0239449D01*
X0185533Y0239169D01*
X0185406Y0238892D01*
X0185273Y0238619D01*
X0185133Y0238349D01*
X0184986Y0238082D01*
X0184833Y0237819D01*
X0184673Y0237560D01*
X0184507Y0237305D01*
X0184335Y0237054D01*
X0184156Y0236807D01*
X0183972Y0236565D01*
X0183782Y0236327D01*
X0183586Y0236094D01*
X0183384Y0235866D01*
X0183177Y0235643D01*
X0182965Y0235425D01*
X0182747Y0235213D01*
X0182524Y0235006D01*
X0182296Y0234804D01*
X0182063Y0234608D01*
X0181825Y0234418D01*
X0181583Y0234234D01*
X0181336Y0234055D01*
X0181085Y0233883D01*
X0180830Y0233717D01*
X0180571Y0233557D01*
X0180308Y0233404D01*
X0180041Y0233257D01*
X0179771Y0233117D01*
X0179498Y0232984D01*
X0179221Y0232857D01*
X0178941Y0232737D01*
X0178658Y0232624D01*
X0178373Y0232518D01*
X0178085Y0232419D01*
X0177795Y0232327D01*
X0177503Y0232242D01*
X0177208Y0232165D01*
X0176912Y0232094D01*
X0176615Y0232031D01*
X0176315Y0231976D01*
X0176015Y0231927D01*
X0175713Y0231886D01*
X0175411Y0231853D01*
X0175107Y0231827D01*
X0174804Y0231808D01*
X0174499Y0231797D01*
X0174195Y0231793D01*
X0173891Y0231797D01*
X0173586Y0231808D01*
X0173283Y0231827D01*
X0172979Y0231853D01*
X0172677Y0231886D01*
X0172375Y0231927D01*
X0172075Y0231976D01*
X0171775Y0232031D01*
X0171478Y0232094D01*
X0171182Y0232165D01*
X0170887Y0232242D01*
X0170595Y0232327D01*
X0170305Y0232419D01*
X0170017Y0232518D01*
X0169732Y0232624D01*
X0169449Y0232737D01*
X0169169Y0232857D01*
X0168892Y0232984D01*
X0168619Y0233117D01*
X0168349Y0233257D01*
X0168082Y0233404D01*
X0167819Y0233557D01*
X0167560Y0233717D01*
X0167305Y0233883D01*
X0167054Y0234055D01*
X0166807Y0234234D01*
X0166565Y0234418D01*
X0166327Y0234608D01*
X0166094Y0234804D01*
X0165866Y0235006D01*
X0165643Y0235213D01*
X0165425Y0235425D01*
X0165213Y0235643D01*
X0165006Y0235866D01*
X0164804Y0236094D01*
X0164608Y0236327D01*
X0164418Y0236565D01*
X0164234Y0236807D01*
X0164055Y0237054D01*
X0163883Y0237305D01*
X0163717Y0237560D01*
X0163557Y0237819D01*
X0163404Y0238082D01*
X0163257Y0238349D01*
X0163117Y0238619D01*
X0162984Y0238892D01*
X0162857Y0239169D01*
X0162737Y0239449D01*
X0162624Y0239732D01*
X0162518Y0240017D01*
X0162419Y0240305D01*
X0162327Y0240595D01*
X0162242Y0240887D01*
X0162165Y0241182D01*
X0162094Y0241478D01*
X0162031Y0241775D01*
X0161976Y0242075D01*
X0161927Y0242375D01*
X0161886Y0242677D01*
X0161853Y0242979D01*
X0161827Y0243283D01*
X0161808Y0243586D01*
X0161797Y0243891D01*
X0161793Y0244195D01*
X0142148Y0270691D02*
X0142150Y0270770D01*
X0142156Y0270849D01*
X0142166Y0270928D01*
X0142180Y0271006D01*
X0142197Y0271083D01*
X0142219Y0271159D01*
X0142244Y0271234D01*
X0142274Y0271307D01*
X0142306Y0271379D01*
X0142343Y0271450D01*
X0142383Y0271518D01*
X0142426Y0271584D01*
X0142472Y0271648D01*
X0142522Y0271710D01*
X0142575Y0271769D01*
X0142630Y0271825D01*
X0142689Y0271879D01*
X0142750Y0271929D01*
X0142813Y0271977D01*
X0142879Y0272021D01*
X0142947Y0272062D01*
X0143017Y0272099D01*
X0143088Y0272133D01*
X0143162Y0272163D01*
X0143236Y0272189D01*
X0143312Y0272211D01*
X0143389Y0272230D01*
X0143467Y0272245D01*
X0143545Y0272256D01*
X0143624Y0272263D01*
X0143703Y0272266D01*
X0143782Y0272265D01*
X0143861Y0272260D01*
X0143940Y0272251D01*
X0144018Y0272238D01*
X0144095Y0272221D01*
X0144172Y0272201D01*
X0144247Y0272176D01*
X0144321Y0272148D01*
X0144394Y0272116D01*
X0144464Y0272081D01*
X0144533Y0272042D01*
X0144600Y0271999D01*
X0144665Y0271953D01*
X0144727Y0271905D01*
X0144787Y0271853D01*
X0144844Y0271798D01*
X0144898Y0271740D01*
X0144949Y0271680D01*
X0144997Y0271617D01*
X0145042Y0271552D01*
X0145084Y0271484D01*
X0145122Y0271415D01*
X0145156Y0271344D01*
X0145187Y0271271D01*
X0145215Y0271196D01*
X0145238Y0271121D01*
X0145258Y0271044D01*
X0145274Y0270967D01*
X0145286Y0270888D01*
X0145294Y0270810D01*
X0145298Y0270731D01*
X0145298Y0270651D01*
X0145294Y0270572D01*
X0145286Y0270494D01*
X0145274Y0270415D01*
X0145258Y0270338D01*
X0145238Y0270261D01*
X0145215Y0270186D01*
X0145187Y0270111D01*
X0145156Y0270038D01*
X0145122Y0269967D01*
X0145084Y0269898D01*
X0145042Y0269830D01*
X0144997Y0269765D01*
X0144949Y0269702D01*
X0144898Y0269642D01*
X0144844Y0269584D01*
X0144787Y0269529D01*
X0144727Y0269477D01*
X0144665Y0269429D01*
X0144600Y0269383D01*
X0144533Y0269340D01*
X0144464Y0269301D01*
X0144394Y0269266D01*
X0144321Y0269234D01*
X0144247Y0269206D01*
X0144172Y0269181D01*
X0144095Y0269161D01*
X0144018Y0269144D01*
X0143940Y0269131D01*
X0143861Y0269122D01*
X0143782Y0269117D01*
X0143703Y0269116D01*
X0143624Y0269119D01*
X0143545Y0269126D01*
X0143467Y0269137D01*
X0143389Y0269152D01*
X0143312Y0269171D01*
X0143236Y0269193D01*
X0143162Y0269219D01*
X0143088Y0269249D01*
X0143017Y0269283D01*
X0142947Y0269320D01*
X0142879Y0269361D01*
X0142813Y0269405D01*
X0142750Y0269453D01*
X0142689Y0269503D01*
X0142630Y0269557D01*
X0142575Y0269613D01*
X0142522Y0269672D01*
X0142472Y0269734D01*
X0142426Y0269798D01*
X0142383Y0269864D01*
X0142343Y0269932D01*
X0142306Y0270003D01*
X0142274Y0270075D01*
X0142244Y0270148D01*
X0142219Y0270223D01*
X0142197Y0270299D01*
X0142180Y0270376D01*
X0142166Y0270454D01*
X0142156Y0270533D01*
X0142150Y0270612D01*
X0142148Y0270691D01*
X0133093Y0270691D02*
X0133095Y0270770D01*
X0133101Y0270849D01*
X0133111Y0270928D01*
X0133125Y0271006D01*
X0133142Y0271083D01*
X0133164Y0271159D01*
X0133189Y0271234D01*
X0133219Y0271307D01*
X0133251Y0271379D01*
X0133288Y0271450D01*
X0133328Y0271518D01*
X0133371Y0271584D01*
X0133417Y0271648D01*
X0133467Y0271710D01*
X0133520Y0271769D01*
X0133575Y0271825D01*
X0133634Y0271879D01*
X0133695Y0271929D01*
X0133758Y0271977D01*
X0133824Y0272021D01*
X0133892Y0272062D01*
X0133962Y0272099D01*
X0134033Y0272133D01*
X0134107Y0272163D01*
X0134181Y0272189D01*
X0134257Y0272211D01*
X0134334Y0272230D01*
X0134412Y0272245D01*
X0134490Y0272256D01*
X0134569Y0272263D01*
X0134648Y0272266D01*
X0134727Y0272265D01*
X0134806Y0272260D01*
X0134885Y0272251D01*
X0134963Y0272238D01*
X0135040Y0272221D01*
X0135117Y0272201D01*
X0135192Y0272176D01*
X0135266Y0272148D01*
X0135339Y0272116D01*
X0135409Y0272081D01*
X0135478Y0272042D01*
X0135545Y0271999D01*
X0135610Y0271953D01*
X0135672Y0271905D01*
X0135732Y0271853D01*
X0135789Y0271798D01*
X0135843Y0271740D01*
X0135894Y0271680D01*
X0135942Y0271617D01*
X0135987Y0271552D01*
X0136029Y0271484D01*
X0136067Y0271415D01*
X0136101Y0271344D01*
X0136132Y0271271D01*
X0136160Y0271196D01*
X0136183Y0271121D01*
X0136203Y0271044D01*
X0136219Y0270967D01*
X0136231Y0270888D01*
X0136239Y0270810D01*
X0136243Y0270731D01*
X0136243Y0270651D01*
X0136239Y0270572D01*
X0136231Y0270494D01*
X0136219Y0270415D01*
X0136203Y0270338D01*
X0136183Y0270261D01*
X0136160Y0270186D01*
X0136132Y0270111D01*
X0136101Y0270038D01*
X0136067Y0269967D01*
X0136029Y0269898D01*
X0135987Y0269830D01*
X0135942Y0269765D01*
X0135894Y0269702D01*
X0135843Y0269642D01*
X0135789Y0269584D01*
X0135732Y0269529D01*
X0135672Y0269477D01*
X0135610Y0269429D01*
X0135545Y0269383D01*
X0135478Y0269340D01*
X0135409Y0269301D01*
X0135339Y0269266D01*
X0135266Y0269234D01*
X0135192Y0269206D01*
X0135117Y0269181D01*
X0135040Y0269161D01*
X0134963Y0269144D01*
X0134885Y0269131D01*
X0134806Y0269122D01*
X0134727Y0269117D01*
X0134648Y0269116D01*
X0134569Y0269119D01*
X0134490Y0269126D01*
X0134412Y0269137D01*
X0134334Y0269152D01*
X0134257Y0269171D01*
X0134181Y0269193D01*
X0134107Y0269219D01*
X0134033Y0269249D01*
X0133962Y0269283D01*
X0133892Y0269320D01*
X0133824Y0269361D01*
X0133758Y0269405D01*
X0133695Y0269453D01*
X0133634Y0269503D01*
X0133575Y0269557D01*
X0133520Y0269613D01*
X0133467Y0269672D01*
X0133417Y0269734D01*
X0133371Y0269798D01*
X0133328Y0269864D01*
X0133288Y0269932D01*
X0133251Y0270003D01*
X0133219Y0270075D01*
X0133189Y0270148D01*
X0133164Y0270223D01*
X0133142Y0270299D01*
X0133125Y0270376D01*
X0133111Y0270454D01*
X0133101Y0270533D01*
X0133095Y0270612D01*
X0133093Y0270691D01*
X0091793Y0244195D02*
X0091797Y0244499D01*
X0091808Y0244804D01*
X0091827Y0245107D01*
X0091853Y0245411D01*
X0091886Y0245713D01*
X0091927Y0246015D01*
X0091976Y0246315D01*
X0092031Y0246615D01*
X0092094Y0246912D01*
X0092165Y0247208D01*
X0092242Y0247503D01*
X0092327Y0247795D01*
X0092419Y0248085D01*
X0092518Y0248373D01*
X0092624Y0248658D01*
X0092737Y0248941D01*
X0092857Y0249221D01*
X0092984Y0249498D01*
X0093117Y0249771D01*
X0093257Y0250041D01*
X0093404Y0250308D01*
X0093557Y0250571D01*
X0093717Y0250830D01*
X0093883Y0251085D01*
X0094055Y0251336D01*
X0094234Y0251583D01*
X0094418Y0251825D01*
X0094608Y0252063D01*
X0094804Y0252296D01*
X0095006Y0252524D01*
X0095213Y0252747D01*
X0095425Y0252965D01*
X0095643Y0253177D01*
X0095866Y0253384D01*
X0096094Y0253586D01*
X0096327Y0253782D01*
X0096565Y0253972D01*
X0096807Y0254156D01*
X0097054Y0254335D01*
X0097305Y0254507D01*
X0097560Y0254673D01*
X0097819Y0254833D01*
X0098082Y0254986D01*
X0098349Y0255133D01*
X0098619Y0255273D01*
X0098892Y0255406D01*
X0099169Y0255533D01*
X0099449Y0255653D01*
X0099732Y0255766D01*
X0100017Y0255872D01*
X0100305Y0255971D01*
X0100595Y0256063D01*
X0100887Y0256148D01*
X0101182Y0256225D01*
X0101478Y0256296D01*
X0101775Y0256359D01*
X0102075Y0256414D01*
X0102375Y0256463D01*
X0102677Y0256504D01*
X0102979Y0256537D01*
X0103283Y0256563D01*
X0103586Y0256582D01*
X0103891Y0256593D01*
X0104195Y0256597D01*
X0104499Y0256593D01*
X0104804Y0256582D01*
X0105107Y0256563D01*
X0105411Y0256537D01*
X0105713Y0256504D01*
X0106015Y0256463D01*
X0106315Y0256414D01*
X0106615Y0256359D01*
X0106912Y0256296D01*
X0107208Y0256225D01*
X0107503Y0256148D01*
X0107795Y0256063D01*
X0108085Y0255971D01*
X0108373Y0255872D01*
X0108658Y0255766D01*
X0108941Y0255653D01*
X0109221Y0255533D01*
X0109498Y0255406D01*
X0109771Y0255273D01*
X0110041Y0255133D01*
X0110308Y0254986D01*
X0110571Y0254833D01*
X0110830Y0254673D01*
X0111085Y0254507D01*
X0111336Y0254335D01*
X0111583Y0254156D01*
X0111825Y0253972D01*
X0112063Y0253782D01*
X0112296Y0253586D01*
X0112524Y0253384D01*
X0112747Y0253177D01*
X0112965Y0252965D01*
X0113177Y0252747D01*
X0113384Y0252524D01*
X0113586Y0252296D01*
X0113782Y0252063D01*
X0113972Y0251825D01*
X0114156Y0251583D01*
X0114335Y0251336D01*
X0114507Y0251085D01*
X0114673Y0250830D01*
X0114833Y0250571D01*
X0114986Y0250308D01*
X0115133Y0250041D01*
X0115273Y0249771D01*
X0115406Y0249498D01*
X0115533Y0249221D01*
X0115653Y0248941D01*
X0115766Y0248658D01*
X0115872Y0248373D01*
X0115971Y0248085D01*
X0116063Y0247795D01*
X0116148Y0247503D01*
X0116225Y0247208D01*
X0116296Y0246912D01*
X0116359Y0246615D01*
X0116414Y0246315D01*
X0116463Y0246015D01*
X0116504Y0245713D01*
X0116537Y0245411D01*
X0116563Y0245107D01*
X0116582Y0244804D01*
X0116593Y0244499D01*
X0116597Y0244195D01*
X0116593Y0243891D01*
X0116582Y0243586D01*
X0116563Y0243283D01*
X0116537Y0242979D01*
X0116504Y0242677D01*
X0116463Y0242375D01*
X0116414Y0242075D01*
X0116359Y0241775D01*
X0116296Y0241478D01*
X0116225Y0241182D01*
X0116148Y0240887D01*
X0116063Y0240595D01*
X0115971Y0240305D01*
X0115872Y0240017D01*
X0115766Y0239732D01*
X0115653Y0239449D01*
X0115533Y0239169D01*
X0115406Y0238892D01*
X0115273Y0238619D01*
X0115133Y0238349D01*
X0114986Y0238082D01*
X0114833Y0237819D01*
X0114673Y0237560D01*
X0114507Y0237305D01*
X0114335Y0237054D01*
X0114156Y0236807D01*
X0113972Y0236565D01*
X0113782Y0236327D01*
X0113586Y0236094D01*
X0113384Y0235866D01*
X0113177Y0235643D01*
X0112965Y0235425D01*
X0112747Y0235213D01*
X0112524Y0235006D01*
X0112296Y0234804D01*
X0112063Y0234608D01*
X0111825Y0234418D01*
X0111583Y0234234D01*
X0111336Y0234055D01*
X0111085Y0233883D01*
X0110830Y0233717D01*
X0110571Y0233557D01*
X0110308Y0233404D01*
X0110041Y0233257D01*
X0109771Y0233117D01*
X0109498Y0232984D01*
X0109221Y0232857D01*
X0108941Y0232737D01*
X0108658Y0232624D01*
X0108373Y0232518D01*
X0108085Y0232419D01*
X0107795Y0232327D01*
X0107503Y0232242D01*
X0107208Y0232165D01*
X0106912Y0232094D01*
X0106615Y0232031D01*
X0106315Y0231976D01*
X0106015Y0231927D01*
X0105713Y0231886D01*
X0105411Y0231853D01*
X0105107Y0231827D01*
X0104804Y0231808D01*
X0104499Y0231797D01*
X0104195Y0231793D01*
X0103891Y0231797D01*
X0103586Y0231808D01*
X0103283Y0231827D01*
X0102979Y0231853D01*
X0102677Y0231886D01*
X0102375Y0231927D01*
X0102075Y0231976D01*
X0101775Y0232031D01*
X0101478Y0232094D01*
X0101182Y0232165D01*
X0100887Y0232242D01*
X0100595Y0232327D01*
X0100305Y0232419D01*
X0100017Y0232518D01*
X0099732Y0232624D01*
X0099449Y0232737D01*
X0099169Y0232857D01*
X0098892Y0232984D01*
X0098619Y0233117D01*
X0098349Y0233257D01*
X0098082Y0233404D01*
X0097819Y0233557D01*
X0097560Y0233717D01*
X0097305Y0233883D01*
X0097054Y0234055D01*
X0096807Y0234234D01*
X0096565Y0234418D01*
X0096327Y0234608D01*
X0096094Y0234804D01*
X0095866Y0235006D01*
X0095643Y0235213D01*
X0095425Y0235425D01*
X0095213Y0235643D01*
X0095006Y0235866D01*
X0094804Y0236094D01*
X0094608Y0236327D01*
X0094418Y0236565D01*
X0094234Y0236807D01*
X0094055Y0237054D01*
X0093883Y0237305D01*
X0093717Y0237560D01*
X0093557Y0237819D01*
X0093404Y0238082D01*
X0093257Y0238349D01*
X0093117Y0238619D01*
X0092984Y0238892D01*
X0092857Y0239169D01*
X0092737Y0239449D01*
X0092624Y0239732D01*
X0092518Y0240017D01*
X0092419Y0240305D01*
X0092327Y0240595D01*
X0092242Y0240887D01*
X0092165Y0241182D01*
X0092094Y0241478D01*
X0092031Y0241775D01*
X0091976Y0242075D01*
X0091927Y0242375D01*
X0091886Y0242677D01*
X0091853Y0242979D01*
X0091827Y0243283D01*
X0091808Y0243586D01*
X0091797Y0243891D01*
X0091793Y0244195D01*
D11*
X0128172Y0215180D03*
X0131321Y0215180D03*
X0134471Y0215180D03*
X0137620Y0215180D03*
X0140770Y0215180D03*
X0143920Y0215180D03*
X0147069Y0215180D03*
X0150219Y0215180D03*
X0150219Y0181321D03*
X0147069Y0181321D03*
X0143920Y0181321D03*
X0140770Y0181321D03*
X0137620Y0181321D03*
X0134471Y0181321D03*
X0131321Y0181321D03*
X0128172Y0181321D03*
D12*
X0122266Y0187227D03*
X0122266Y0190376D03*
X0122266Y0193526D03*
X0122266Y0196676D03*
X0122266Y0199825D03*
X0122266Y0202975D03*
X0122266Y0206124D03*
X0122266Y0209274D03*
X0156124Y0209274D03*
X0156124Y0206124D03*
X0156124Y0202975D03*
X0156124Y0199825D03*
X0156124Y0196676D03*
X0156124Y0193526D03*
X0156124Y0190376D03*
X0156124Y0187227D03*
D13*
X0064392Y0152975D03*
X0064392Y0038802D03*
D14*
X0181276Y0147458D03*
X0190376Y0147458D03*
X0199476Y0147458D03*
D15*
X0190376Y0123057D03*
D16*
X0154353Y0229746D03*
X0144510Y0229746D03*
D17*
X0144510Y0237030D03*
X0136439Y0236243D03*
X0136439Y0229550D03*
X0144510Y0243723D03*
X0154353Y0243723D03*
X0154353Y0237030D03*
X0163998Y0217345D03*
X0163998Y0210652D03*
X0172266Y0210652D03*
X0172266Y0217345D03*
X0271715Y0230337D03*
X0271715Y0237030D03*
D18*
X0209865Y0176597D03*
X0209865Y0168723D03*
X0200809Y0168723D03*
X0200809Y0176597D03*
X0127975Y0162817D03*
X0118920Y0162817D03*
D19*
X0166754Y0145691D03*
X0166754Y0132699D03*
X0213998Y0132699D03*
X0213998Y0145691D03*
D20*
X0253959Y0206124D03*
X0260652Y0206124D03*
X0260652Y0233683D03*
X0253959Y0233683D03*
X0126794Y0170691D03*
X0120101Y0170691D03*
X0102778Y0197069D03*
X0096085Y0197069D03*
X0048054Y0236833D03*
X0041361Y0236833D03*
X0041361Y0245101D03*
X0048054Y0245101D03*
X0048054Y0255337D03*
X0041361Y0255337D03*
D21*
X0135258Y0120101D03*
X0135258Y0103172D03*
D22*
X0070888Y0221872D03*
X0070888Y0237620D03*
X0057896Y0253369D03*
X0126203Y0272660D03*
X0152187Y0272660D03*
D23*
X0070888Y0257306D03*
X0070888Y0249431D03*
X0057896Y0241557D03*
X0057896Y0233683D03*
X0057896Y0225809D03*
X0057896Y0217935D03*
D24*
X0054392Y0209687D03*
X0054392Y0194687D03*
X0054392Y0186065D03*
X0054392Y0171065D03*
X0074392Y0171065D03*
X0074392Y0186065D03*
X0074392Y0194687D03*
X0074392Y0209687D03*
X0223683Y0202561D03*
X0223683Y0217561D03*
X0243683Y0217561D03*
X0243683Y0202561D03*
D25*
X0147365Y0264786D03*
X0131026Y0264786D03*
D26*
X0210061Y0270361D03*
D27*
X0202661Y0252261D03*
X0217461Y0252261D03*
D28*
X0224436Y0254411D03*
X0195686Y0254411D03*
D29*
X0106959Y0162817D03*
X0100566Y0162817D03*
D30*
X0103762Y0162817D03*
D31*
X0262620Y0214294D03*
X0262620Y0214294D03*
X0262620Y0214294D03*
X0265176Y0214294D03*
X0267739Y0214294D03*
X0267739Y0221577D03*
X0265180Y0221577D03*
X0262620Y0221577D03*
D32*
X0102384Y0203762D03*
X0096479Y0203762D03*
X0033880Y0236833D03*
X0027975Y0236833D03*
M02*
