0
SECTION
2
HEADER
9
$ACADVER
1
AC1027
9
$ACADMAINTVER
70
8
9
$DWGCODEPAGE
3
ANSI_1252
9
$LASTSAVEDBY
1
macc
9
$REQUIREDVERSIONS
160
0
9
$INSBASE
10
0.0
20
0.0
30
0.0
9
$EXTMIN
10
1.000000000000000E+20
20
1.000000000000000E+20
30
1.000000000000000E+20
9
$EXTMAX
10
-1.000000000000000E+20
20
-1.000000000000000E+20
30
-1.000000000000000E+20
9
$LIMMIN
10
0.0
20
0.0
9
$LIMMAX
10
12.0
20
9.0
9
$ORTHOMODE
70
0
9
$REGENMODE
70
1
9
$FILLMODE
70
1
9
$QTEXTMODE
70
0
9
$MIRRTEXT
70
0
9
$LTSCALE
40
1.0
9
$ATTMODE
70
1
9
$TEXTSIZE
40
0.2
9
$TRACEWID
40
0.05
9
$TEXTSTYLE
7
STANDARD
9
$CLAYER
8
0
9
$CELTYPE
6
ByLayer
9
$CECOLOR
62
256
9
$CELTSCALE
40
1.0
9
$DISPSILH
70
0
9
$DIMSCALE
40
1.0
9
$DIMASZ
40
0.18
9
$DIMEXO
40
0.0625
9
$DIMDLI
40
0.38
9
$DIMRND
40
0.0
9
$DIMDLE
40
0.0
9
$DIMEXE
40
0.18
9
$DIMTP
40
0.0
9
$DIMTM
40
0.0
9
$DIMTXT
40
0.18
9
$DIMCEN
40
0.09
9
$DIMTSZ
40
0.0
9
$DIMTOL
70
0
9
$DIMLIM
70
0
9
$DIMTIH
70
1
9
$DIMTOH
70
1
9
$DIMSE1
70
0
9
$DIMSE2
70
0
9
$DIMTAD
70
0
9
$DIMZIN
70
0
9
$DIMBLK
1

9
$DIMASO
70
1
9
$DIMSHO
70
1
9
$DIMPOST
1

9
$DIMAPOST
1

9
$DIMALT
70
0
9
$DIMALTD
70
2
9
$DIMALTF
40
25.4
9
$DIMLFAC
40
1.0
9
$DIMTOFL
70
0
9
$DIMTVP
40
0.0
9
$DIMTIX
70
0
9
$DIMSOXD
70
0
9
$DIMSAH
70
0
9
$DIMBLK1
1

9
$DIMBLK2
1

9
$DIMSTYLE
2
STANDARD
9
$DIMCLRD
70
0
9
$DIMCLRE
70
0
9
$DIMCLRT
70
0
9
$DIMTFAC
40
1.0
9
$DIMGAP
40
0.09
9
$DIMJUST
70
0
9
$DIMSD1
70
0
9
$DIMSD2
70
0
9
$DIMTOLJ
70
1
9
$DIMTZIN
70
0
9
$DIMALTZ
70
0
9
$DIMALTTZ
70
0
9
$DIMUPT
70
0
9
$DIMDEC
70
4
9
$DIMTDEC
70
4
9
$DIMALTU
70
2
9
$DIMALTTD
70
2
9
$DIMTXSTY
7
STANDARD
9
$DIMAUNIT
70
0
9
$DIMADEC
70
0
9
$DIMALTRND
40
0.0
9
$DIMAZIN
70
0
9
$DIMDSEP
70
46
9
$DIMATFIT
70
3
9
$DIMFRAC
70
0
9
$DIMLDRBLK
1

9
$DIMLUNIT
70
2
9
$DIMLWD
70
-2
9
$DIMLWE
70
-2
9
$DIMTMOVE
70
0
9
$DIMFXL
40
1.0
9
$DIMFXLON
70
0
9
$DIMJOGANG
40
0.7853981633974483
9
$DIMTFILL
70
0
9
$DIMTFILLCLR
70
0
9
$DIMARCSYM
70
0
9
$DIMLTYPE
6

9
$DIMLTEX1
6

9
$DIMLTEX2
6

9
$DIMTXTDIRECTION
70
0
9
$LUNITS
70
2
9
$LUPREC
70
4
9
$SKETCHINC
40
0.1
9
$FILLETRAD
40
0.0
9
$AUNITS
70
0
9
$AUPREC
70
0
9
$MENU
1
.
9
$ELEVATION
40
0.0
9
$PELEVATION
40
0.0
9
$THICKNESS
40
0.0
9
$LIMCHECK
70
0
9
$CHAMFERA
40
0.0
9
$CHAMFERB
40
0.0
9
$CHAMFERC
40
0.0
9
$CHAMFERD
40
0.0
9
$SKPOLY
70
0
9
$TDCREATE
40
2458312.067262384
9
$TDUCREATE
40
2458311.983929051
9
$TDUPDATE
40
2458312.961305069
9
$TDUUPDATE
40
2458312.877971736
9
$TDINDWG
40
0.0045230903
9
$TDUSRTIMER
40
0.0045219676
9
$USRTIMER
70
1
9
$ANGBASE
50
0.0
9
$ANGDIR
70
0
9
$PDMODE
70
0
9
$PDSIZE
40
0.0
9
$PLINEWID
40
0.0
9
$SPLFRAME
70
0
9
$SPLINETYPE
70
6
9
$SPLINESEGS
70
8
9
$HANDSEED
5
1058
9
$SURFTAB1
70
6
9
$SURFTAB2
70
6
9
$SURFTYPE
70
6
9
$SURFU
70
6
9
$SURFV
70
6
9
$UCSBASE
2

9
$UCSNAME
2

9
$UCSORG
10
0.0
20
0.0
30
0.0
9
$UCSXDIR
10
1.0
20
0.0
30
0.0
9
$UCSYDIR
10
0.0
20
1.0
30
0.0
9
$UCSORTHOREF
2

9
$UCSORTHOVIEW
70
0
9
$UCSORGTOP
10
0.0
20
0.0
30
0.0
9
$UCSORGBOTTOM
10
0.0
20
0.0
30
0.0
9
$UCSORGLEFT
10
0.0
20
0.0
30
0.0
9
$UCSORGRIGHT
10
0.0
20
0.0
30
0.0
9
$UCSORGFRONT
10
0.0
20
0.0
30
0.0
9
$UCSORGBACK
10
0.0
20
0.0
30
0.0
9
$PUCSBASE
2

9
$PUCSNAME
2

9
$PUCSORG
10
0.0
20
0.0
30
0.0
9
$PUCSXDIR
10
1.0
20
0.0
30
0.0
9
$PUCSYDIR
10
0.0
20
1.0
30
0.0
9
$PUCSORTHOREF
2

9
$PUCSORTHOVIEW
70
0
9
$PUCSORGTOP
10
0.0
20
0.0
30
0.0
9
$PUCSORGBOTTOM
10
0.0
20
0.0
30
0.0
9
$PUCSORGLEFT
10
0.0
20
0.0
30
0.0
9
$PUCSORGRIGHT
10
0.0
20
0.0
30
0.0
9
$PUCSORGFRONT
10
0.0
20
0.0
30
0.0
9
$PUCSORGBACK
10
0.0
20
0.0
30
0.0
9
$USERI1
70
0
9
$USERI2
70
0
9
$USERI3
70
0
9
$USERI4
70
0
9
$USERI5
70
0
9
$USERR1
40
0.0
9
$USERR2
40
0.0
9
$USERR3
40
0.0
9
$USERR4
40
0.0
9
$USERR5
40
0.0
9
$WORLDVIEW
70
1
9
$SHADEDGE
70
3
9
$SHADEDIF
70
70
9
$TILEMODE
70
1
9
$MAXACTVP
70
64
9
$PINSBASE
10
0.0
20
0.0
30
0.0
9
$PLIMCHECK
70
0
9
$PEXTMIN
10
0.0
20
0.0
30
0.0
9
$PEXTMAX
10
0.0
20
0.0
30
0.0
9
$PLIMMIN
10
0.0
20
0.0
9
$PLIMMAX
10
12.0
20
9.0
9
$UNITMODE
70
0
9
$VISRETAIN
70
1
9
$PLINEGEN
70
0
9
$PSLTSCALE
70
1
9
$TREEDEPTH
70
3020
9
$CMLSTYLE
2
Standard
9
$CMLJUST
70
0
9
$CMLSCALE
40
1.0
9
$PROXYGRAPHICS
70
1
9
$MEASUREMENT
70
0
9
$CELWEIGHT
370
-1
9
$ENDCAPS
280
0
9
$JOINSTYLE
280
0
9
$LWDISPLAY
290
0
9
$INSUNITS
70
0
9
$HYPERLINKBASE
1

9
$STYLESHEET
1

9
$XEDIT
290
1
9
$CEPSNTYPE
380
0
9
$PSTYLEMODE
290
1
9
$FINGERPRINTGUID
2
{4B4ED3CC-337F-6143-9B17-EFB0F3F01845}
9
$VERSIONGUID
2
{A4861B96-12DA-254C-ACF2-0C3CF0F63D02}
9
$EXTNAMES
290
1
9
$PSVPSCALE
40
0.0
9
$OLESTARTUP
290
0
9
$SORTENTS
280
127
9
$INDEXCTL
280
0
9
$HIDETEXT
280
0
9
$XCLIPFRAME
280
2
9
$HALOGAP
280
0
9
$OBSCOLOR
70
257
9
$OBSLTYPE
280
0
9
$INTERSECTIONDISPLAY
280
0
9
$INTERSECTIONCOLOR
70
257
9
$DIMASSOC
280
1
9
$PROJECTNAME
1

9
$CAMERADISPLAY
290
0
9
$LENSLENGTH
40
50.0
9
$CAMERAHEIGHT
40
0.0
9
$STEPSPERSEC
40
2.0
9
$STEPSIZE
40
6.0
9
$3DDWFPREC
40
2.0
9
$PSOLWIDTH
40
0.25
9
$PSOLHEIGHT
40
4.0
9
$LOFTANG1
40
1.570796326794896
9
$LOFTANG2
40
1.570796326794896
9
$LOFTMAG1
40
0.0
9
$LOFTMAG2
40
0.0
9
$LOFTPARAM
70
7
9
$LOFTNORMALS
280
1
9
$LATITUDE
40
37.795
9
$LONGITUDE
40
-122.394
9
$NORTHDIRECTION
40
0.0
9
$TIMEZONE
70
-8000
9
$LIGHTGLYPHDISPLAY
280
1
9
$TILEMODELIGHTSYNCH
280
1
9
$CMATERIAL
347
222
9
$SOLIDHIST
280
0
9
$SHOWHIST
280
1
9
$DWFFRAME
280
2
9
$DGNFRAME
280
0
9
$REALWORLDSCALE
290
1
9
$INTERFERECOLOR
62
1
9
$INTERFEREOBJVS
345
244
9
$INTERFEREVPVS
346
241
9
$CSHADOW
280
0
9
$SHADOWPLANELOCATION
40
0.0
0
ENDSEC
0
SECTION
2
CLASSES
0
CLASS
1
ACDBDICTIONARYWDFLT
2
AcDbDictionaryWithDefault
3
ObjectDBX Classes
90
0
91
1
280
0
281
0
0
CLASS
1
MATERIAL
2
AcDbMaterial
3
ObjectDBX Classes
90
1153
91
3
280
0
281
0
0
CLASS
1
VISUALSTYLE
2
AcDbVisualStyle
3
ObjectDBX Classes
90
4095
91
24
280
0
281
0
0
CLASS
1
SCALE
2
AcDbScale
3
ObjectDBX Classes
90
1153
91
17
280
0
281
0
0
CLASS
1
TABLESTYLE
2
AcDbTableStyle
3
ObjectDBX Classes
90
4095
91
1
280
0
281
0
0
CLASS
1
MLEADERSTYLE
2
AcDbMLeaderStyle
3
ACDB_MLEADERSTYLE_CLASS
90
4095
91
1
280
0
281
0
0
CLASS
1
ACDBSECTIONVIEWSTYLE
2
AcDbSectionViewStyle
3
ObjectDBX Classes
90
1025
91
1
280
0
281
0
0
CLASS
1
ACDBDETAILVIEWSTYLE
2
AcDbDetailViewStyle
3
ObjectDBX Classes
90
1025
91
1
280
0
281
0
0
CLASS
1
DICTIONARYVAR
2
AcDbDictionaryVar
3
ObjectDBX Classes
90
0
91
9
280
0
281
0
0
CLASS
1
CELLSTYLEMAP
2
AcDbCellStyleMap
3
ObjectDBX Classes
90
1152
91
2
280
0
281
0
0
ENDSEC
0
SECTION
2
TABLES
0
TABLE
2
VPORT
5
219
330
0
100
AcDbSymbolTable
70
1
0
VPORT
5
285
330
219
100
AcDbSymbolTableRecord
100
AcDbViewportTableRecord
2
*ACTIVE
70
0
10
0.0
20
0.0
11
1.0
21
1.0
12
60.85393284500712
22
1.602311788490737
13
0.0
23
0.0
14
0.5
24
0.5
15
0.5
25
0.5
16
0.0
26
0.0
36
1.0
17
0.0
27
0.0
37
0.0
40
135.7601553851812
41
1.367970660146699
42
50.0
43
0.0
44
0.0
50
0.0
51
0.0
71
0
72
1000
73
1
74
3
75
0
76
1
77
0
78
0
281
0
65
1
110
0.0
120
0.0
130
0.0
111
1.0
121
0.0
131
0.0
112
0.0
122
1.0
132
0.0
79
0
146
0.0
348
240
60
3
61
5
292
1
282
0
141
0.0
142
0.0
63
250
421
3355443
1001
ACAD_NAV_VCDISPLAY
1070
3
0
ENDTAB
0
TABLE
2
LTYPE
5
216
330
0
100
AcDbSymbolTable
70
2
0
LTYPE
5
26B
330
216
100
AcDbSymbolTableRecord
100
AcDbLinetypeTableRecord
2
ByBlock
70
0
3

72
65
73
0
40
0.0
0
LTYPE
5
26C
330
216
100
AcDbSymbolTableRecord
100
AcDbLinetypeTableRecord
2
ByLayer
70
0
3

72
65
73
0
40
0.0
0
LTYPE
5
26D
330
216
100
AcDbSymbolTableRecord
100
AcDbLinetypeTableRecord
2
CONTINUOUS
70
0
3
Solid line
72
65
73
0
40
0.0
0
LTYPE
5
103D
330
216
100
AcDbSymbolTableRecord
100
AcDbLinetypeTableRecord
2
DOTTED
70
0
3
Dotted . . . . . . . . . . . . . . . . . . . .
72
65
73
2
40
3.0
49
0.0
74
0
49
-3.0
74
0
0
ENDTAB
0
TABLE
2
LAYER
5
213
102
{ACAD_XDICTIONARY
360
297
102
}
330
0
100
AcDbSymbolTable
70
4
0
LAYER
5
265
102
{ACAD_XDICTIONARY
360
292
102
}
330
213
100
AcDbSymbolTableRecord
100
AcDbLayerTableRecord
2
0
70
0
62
7
6
CONTINUOUS
370
-3
390
220
347
232
348
0
0
LAYER
5
2FB
330
213
100
AcDbSymbolTableRecord
100
AcDbLayerTableRecord
2
gear
70
0
62
7
6
CONTINUOUS
370
-3
390
220
347
232
348
0
1001
AcAecLayerStandard
1000

1000

1001
AcCmTransparency
1071
0
0
LAYER
5
2FE
330
213
100
AcDbSymbolTableRecord
100
AcDbLayerTableRecord
2
gear_texts
70
0
62
7
6
CONTINUOUS
370
-3
390
220
347
232
348
0
1001
AcAecLayerStandard
1000

1000

1001
AcCmTransparency
1071
0
0
LAYER
5
2FF
330
213
100
AcDbSymbolTableRecord
100
AcDbLayerTableRecord
2
gear_guides
70
0
62
5
6
CONTINUOUS
370
-3
390
220
347
232
348
0
1001
AcAecLayerStandard
1000

1000

1001
AcCmTransparency
1071
0
0
ENDTAB
0
TABLE
2
STYLE
5
214
330
0
100
AcDbSymbolTable
70
3
0
STYLE
5
266
330
214
100
AcDbSymbolTableRecord
100
AcDbTextStyleTableRecord
2
STANDARD
70
0
40
0.0
41
1.0
50
0.0
71
0
42
0.2
3
txt
4

0
STYLE
5
26A
330
214
100
AcDbSymbolTableRecord
100
AcDbTextStyleTableRecord
2
ANNOTATIVE
70
0
40
0.0
41
1.0
50
0.0
71
0
42
0.2
3
txt
4

1001
ACADANNOTATIVE
1000
AnnotativeData
1002
{
1070
1
1070
1
1002
}
0
STYLE
5
301
330
214
100
AcDbSymbolTableRecord
100
AcDbTextStyleTableRecord
2

70
1
40
0.0
41
1.0
50
0.0
71
0
42
0.2
3
ltypeshp.shx
4

0
ENDTAB
0
TABLE
2
VIEW
5
217
330
0
100
AcDbSymbolTable
70
1
0
ENDTAB
0
TABLE
2
UCS
5
218
330
0
100
AcDbSymbolTable
70
0
0
ENDTAB
0
TABLE
2
APPID
5
21A
330
0
100
AcDbSymbolTable
70
10
0
APPID
5
267
330
21A
100
AcDbSymbolTableRecord
100
AcDbRegAppTableRecord
2
ACAD
70
0
0
APPID
5
26E
330
21A
100
AcDbSymbolTableRecord
100
AcDbRegAppTableRecord
2
ACADANNOTATIVE
70
0
0
APPID
5
286
330
21A
100
AcDbSymbolTableRecord
100
AcDbRegAppTableRecord
2
ACADANNOPO
70
0
0
APPID
5
287
330
21A
100
AcDbSymbolTableRecord
100
AcDbRegAppTableRecord
2
ACAD_DSTYLE_DIMJAG
70
0
0
APPID
5
288
330
21A
100
AcDbSymbolTableRecord
100
AcDbRegAppTableRecord
2
ACAD_DSTYLE_DIMTALN
70
0
0
APPID
5
289
330
21A
100
AcDbSymbolTableRecord
100
AcDbRegAppTableRecord
2
ACAD_MLEADERVER
70
0
0
APPID
5
28A
330
21A
100
AcDbSymbolTableRecord
100
AcDbRegAppTableRecord
2
ACAD_NAV_VCDISPLAY
70
0
0
APPID
5
2E7
330
21A
100
AcDbSymbolTableRecord
100
AcDbRegAppTableRecord
2
ACAD_EXEMPT_FROM_CAD_STANDARDS
70
0
0
APPID
5
2FC
330
21A
100
AcDbSymbolTableRecord
100
AcDbRegAppTableRecord
2
AcAecLayerStandard
70
0
0
APPID
5
2FD
330
21A
100
AcDbSymbolTableRecord
100
AcDbRegAppTableRecord
2
AcCmTransparency
70
0
0
ENDTAB
0
TABLE
2
DIMSTYLE
5
21B
330
0
100
AcDbSymbolTable
70
2
100
AcDbDimStyleTable
71
1
340
268
0
DIMSTYLE
105
268
330
21B
100
AcDbSymbolTableRecord
100
AcDbDimStyleTableRecord
2
STANDARD
70
0
279
2
340
266
0
DIMSTYLE
105
269
330
21B
100
AcDbSymbolTableRecord
100
AcDbDimStyleTableRecord
2
ANNOTATIVE
70
0
40
0.0
279
2
340
266
1001
ACADANNOTATIVE
1000
AnnotativeData
1002
{
1070
1
1070
1
1002
}
0
ENDTAB
0
TABLE
2
BLOCK_RECORD
5
212
330
0
100
AcDbSymbolTable
70
2
0
BLOCK_RECORD
5
281
330
212
100
AcDbSymbolTableRecord
100
AcDbBlockTableRecord
2
*Model_Space
340
284
70
0
280
1
281
0
0
BLOCK_RECORD
5
27D
330
212
100
AcDbSymbolTableRecord
100
AcDbBlockTableRecord
2
*Paper_Space
340
280
70
0
280
1
281
0
0
BLOCK_RECORD
5
28C
330
212
100
AcDbSymbolTableRecord
100
AcDbBlockTableRecord
2
$MODEL_SPACE
340
0
70
0
280
1
281
0
0
BLOCK_RECORD
5
28E
330
212
100
AcDbSymbolTableRecord
100
AcDbBlockTableRecord
2
$PAPER_SPACE
340
0
70
0
280
1
281
0
0
ENDTAB
0
ENDSEC
0
SECTION
2
BLOCKS
0
BLOCK
5
282
330
281
100
AcDbEntity
8
0
100
AcDbBlockBegin
2
*Model_Space
70
0
10
0.0
20
0.0
30
0.0
3
*Model_Space
1

0
ENDBLK
5
283
330
281
100
AcDbEntity
8
0
100
AcDbBlockEnd
0
BLOCK
5
27E
330
27D
100
AcDbEntity
67
1
8
0
100
AcDbBlockBegin
2
*Paper_Space
70
0
10
0.0
20
0.0
30
0.0
3
*Paper_Space
1

0
ENDBLK
5
27F
330
27D
100
AcDbEntity
67
1
8
0
100
AcDbBlockEnd
0
BLOCK
5
28D
330
28C
100
AcDbEntity
8
0
100
AcDbBlockBegin
2
$MODEL_SPACE
70
0
10
0.0
20
0.0
30
0.0
3
$MODEL_SPACE
1

0
ENDBLK
5
21
330
28C
100
AcDbEntity
8
0
100
AcDbBlockEnd
0
BLOCK
5
28F
330
28E
100
AcDbEntity
8
0
100
AcDbBlockBegin
2
$PAPER_SPACE
70
0
10
0.0
20
0.0
30
0.0
3
$PAPER_SPACE
1

0
ENDBLK
5
5B
330
28E
100
AcDbEntity
8
0
100
AcDbBlockEnd
0
ENDSEC
0
SECTION
2
ENTITIES
0
LWPOLYLINE
5
1000
100
AcDbEntity
100
AcDbPolyline
90
3042
70
1
43
0
10
4.5875
20
0
10
4.587992
20
0.043372
10
4.599743
20
0.047203
10
4.611791
20
0.051251
10
4.624134
20
0.055521
10
4.63677
20
0.060019
10
4.649694
20
0.064751
10
4.662903
20
0.069722
10
4.676396
20
0.074937
10
4.690167
20
0.080403
10
4.704213
20
0.086124
10
4.718532
20
0.092105
10
4.73312
20
0.098353
10
4.747972
20
0.104872
10
4.763086
20
0.111668
10
4.778457
20
0.118746
10
4.794081
20
0.126111
10
4.809955
20
0.133767
10
4.826075
20
0.141721
10
4.842436
20
0.149977
10
4.859035
20
0.158539
10
4.875867
20
0.167414
10
4.892928
20
0.176606
10
4.910213
20
0.186119
10
4.927719
20
0.195958
10
4.94544
20
0.206129
10
4.963372
20
0.216635
10
4.981511
20
0.227481
10
4.999852
20
0.238672
10
5.018389
20
0.250212
10
5.037119
20
0.262106
10
5.056037
20
0.274358
10
5.075137
20
0.286972
10
5.094414
20
0.299952
10
5.113864
20
0.313303
10
5.115085
20
0.31415
10
5.115238
20
0.314256
10
5.115314
20
0.314309
10
5.115351
20
0.314336
10
5.106751
20
0.432107
10
5.106711
20
0.432128
10
5.106628
20
0.432169
10
5.106461
20
0.432252
10
5.10513
20
0.432912
10
5.083947
20
0.443296
10
5.062988
20
0.453339
10
5.042259
20
0.463044
10
5.021762
20
0.472418
10
5.001503
20
0.481465
10
4.981485
20
0.490189
10
4.961713
20
0.498597
10
4.942191
20
0.506693
10
4.922923
20
0.514483
10
4.903912
20
0.521971
10
4.885163
20
0.529163
10
4.866679
20
0.536064
10
4.848464
20
0.54268
10
4.830522
20
0.549015
10
4.812855
20
0.555076
10
4.795468
20
0.560867
10
4.778364
20
0.566395
10
4.761546
20
0.571664
10
4.745017
20
0.576681
10
4.728781
20
0.581451
10
4.712841
20
0.585979
10
4.697199
20
0.590271
10
4.681858
20
0.594334
10
4.666822
20
0.598172
10
4.652094
20
0.601792
10
4.637675
20
0.605199
10
4.623568
20
0.608399
10
4.609776
20
0.611398
10
4.596302
20
0.614202
10
4.583147
20
0.616817
10
4.570314
20
0.619249
10
4.557806
20
0.621503
10
4.545624
20
0.623587
10
4.538836
20
0.666427
10
4.528093
20
0.735887
10
4.521622
20
0.778776
10
4.532605
20
0.784442
10
4.543848
20
0.79037
10
4.555347
20
0.796565
10
4.567097
20
0.803032
10
4.579095
20
0.809776
10
4.591336
20
0.816801
10
4.603817
20
0.824113
10
4.616533
20
0.831717
10
4.62948
20
0.839617
10
4.642654
20
0.847818
10
4.65605
20
0.856325
10
4.669665
20
0.865143
10
4.683492
20
0.874275
10
4.697529
20
0.883727
10
4.71177
20
0.893502
10
4.72621
20
0.903606
10
4.740845
20
0.914043
10
4.75567
20
0.924816
10
4.77068
20
0.93593
10
4.785871
20
0.94739
10
4.801236
20
0.9592
10
4.816772
20
0.971362
10
4.832472
20
0.983882
10
4.848332
20
0.996764
10
4.864347
20
1.01001
10
4.880511
20
1.023626
10
4.896819
20
1.037614
10
4.913266
20
1.051978
10
4.929845
20
1.066722
10
4.946552
20
1.08185
10
4.963382
20
1.097365
10
4.980327
20
1.113269
10
4.997384
20
1.129568
10
4.998453
20
1.130599
10
4.998587
20
1.130729
10
4.998654
20
1.130793
10
4.998686
20
1.130825
10
4.971305
20
1.245692
10
4.971262
20
1.245706
10
4.971173
20
1.245733
10
4.970996
20
1.245788
10
4.969576
20
1.246227
10
4.947001
20
1.253078
10
4.924703
20
1.259628
10
4.902685
20
1.265883
10
4.88095
20
1.271847
10
4.859502
20
1.277527
10
4.838344
20
1.282928
10
4.81748
20
1.288055
10
4.796912
20
1.292915
10
4.776644
20
1.297513
10
4.756678
20
1.301855
10
4.737018
20
1.305946
10
4.717666
20
1.309793
10
4.698626
20
1.313401
10
4.679899
20
1.316776
10
4.661489
20
1.319924
10
4.643399
20
1.322851
10
4.625629
20
1.325564
10
4.608184
20
1.328067
10
4.591064
20
1.330367
10
4.574273
20
1.332471
10
4.557813
20
1.334383
10
4.541685
20
1.336111
10
4.525892
20
1.33766
10
4.510435
20
1.339037
10
4.495316
20
1.340247
10
4.480537
20
1.341297
10
4.4661
20
1.342193
10
4.452006
20
1.342941
10
4.438256
20
1.343547
10
4.424852
20
1.344018
10
4.411795
20
1.34436
10
4.399087
20
1.344579
10
4.386729
20
1.344681
10
4.373157
20
1.385877
10
4.351411
20
1.452714
10
4.338143
20
1.49401
10
4.348076
20
1.501365
10
4.358222
20
1.50902
10
4.368578
20
1.516979
10
4.379139
20
1.525247
10
4.389899
20
1.533828
10
4.400855
20
1.542726
10
4.412001
20
1.551945
10
4.423333
20
1.561491
10
4.434845
20
1.571365
10
4.446533
20
1.581574
10
4.458391
20
1.592119
10
4.470415
20
1.603006
10
4.482599
20
1.614238
10
4.494937
20
1.625819
10
4.507426
20
1.637753
10
4.520058
20
1.650042
10
4.53283
20
1.662691
10
4.545735
20
1.675703
10
4.558768
20
1.689081
10
4.571923
20
1.70283
10
4.585195
20
1.716951
10
4.598578
20
1.731448
10
4.612067
20
1.746324
10
4.625656
20
1.761583
10
4.639338
20
1.777227
10
4.653109
20
1.793259
10
4.666962
20
1.809682
10
4.680891
20
1.826499
10
4.694891
20
1.843711
10
4.708955
20
1.861323
10
4.723077
20
1.879336
10
4.737252
20
1.897754
10
4.751473
20
1.916577
10
4.752364
20
1.917767
10
4.752475
20
1.917916
10
4.75253
20
1.91799
10
4.752557
20
1.918027
10
4.707105
20
2.027014
10
4.70706
20
2.027021
10
4.706968
20
2.027034
10
4.706784
20
2.027059
10
4.705312
20
2.027264
10
4.681931
20
2.030406
10
4.658871
20
2.033295
10
4.636135
20
2.035936
10
4.613725
20
2.038337
10
4.591643
20
2.040503
10
4.569893
20
2.042439
10
4.548476
20
2.044154
10
4.527395
20
2.045651
10
4.506652
20
2.046938
10
4.486248
20
2.048021
10
4.466186
20
2.048905
10
4.446468
20
2.049598
10
4.427096
20
2.050105
10
4.40807
20
2.050433
10
4.389394
20
2.050587
10
4.371067
20
2.050574
10
4.353093
20
2.050401
10
4.335472
20
2.050074
10
4.318205
20
2.049598
10
4.301294
20
2.048981
10
4.28474
20
2.048228
10
4.268544
20
2.047346
10
4.252707
20
2.046342
10
4.237229
20
2.045221
10
4.222112
20
2.04399
10
4.207356
20
2.042656
10
4.192962
20
2.041224
10
4.17893
20
2.039702
10
4.165262
20
2.038095
10
4.151956
20
2.036409
10
4.139013
20
2.034652
10
4.126435
20
2.03283
10
4.11422
20
2.030948
10
4.094215
20
2.069434
10
4.06203
20
2.131918
10
4.04231
20
2.17055
10
4.050934
20
2.179403
10
4.059721
20
2.188586
10
4.068666
20
2.198104
10
4.077763
20
2.207958
10
4.087008
20
2.218154
10
4.096395
20
2.228695
10
4.105918
20
2.239583
10
4.115571
20
2.250822
10
4.125351
20
2.262416
10
4.135249
20
2.274367
10
4.145262
20
2.286678
10
4.155384
20
2.299353
10
4.165608
20
2.312394
10
4.175929
20
2.325804
10
4.186342
20
2.339586
10
4.196839
20
2.353743
10
4.207416
20
2.368277
10
4.218067
20
2.38319
10
4.228785
20
2.398486
10
4.239565
20
2.414166
10
4.2504
20
2.430234
10
4.261284
20
2.44669
10
4.272212
20
2.463537
10
4.283177
20
2.480778
10
4.294173
20
2.498415
10
4.305193
20
2.516448
10
4.316232
20
2.53488
10
4.327284
20
2.553714
10
4.338341
20
2.572949
10
4.349398
20
2.592589
10
4.360448
20
2.612634
10
4.371485
20
2.633087
10
4.382502
20
2.653948
10
4.38319
20
2.655265
10
4.383276
20
2.65543
10
4.383319
20
2.655512
10
4.38334
20
2.655553
10
4.320994
20
2.755837
10
4.320948
20
2.755837
10
4.320855
20
2.755835
10
4.32067
20
2.755831
10
4.319184
20
2.755797
10
4.295601
20
2.755147
10
4.272377
20
2.754299
10
4.249511
20
2.75326
10
4.227006
20
2.752034
10
4.204863
20
2.75063
10
4.183084
20
2.749053
10
4.161669
20
2.747309
10
4.140621
20
2.745406
10
4.11994
20
2.743349
10
4.099627
20
2.741144
10
4.079683
20
2.738799
10
4.060109
20
2.73632
10
4.040906
20
2.733713
10
4.022074
20
2.730984
10
4.003615
20
2.728141
10
3.985528
20
2.725189
10
3.967814
20
2.722134
10
3.950474
20
2.718984
10
3.933507
20
2.715745
10
3.916914
20
2.712423
10
3.900695
20
2.709025
10
3.88485
20
2.705556
10
3.869379
20
2.702025
10
3.854282
20
2.698436
10
3.839558
20
2.694796
10
3.825207
20
2.691112
10
3.811229
20
2.687389
10
3.797623
20
2.683636
10
3.784389
20
2.679857
10
3.771526
20
2.676059
10
3.759033
20
2.672249
10
3.74691
20
2.668432
10
3.735155
20
2.664615
10
3.709236
20
2.699394
10
3.667444
20
2.755905
10
3.641782
20
2.790874
10
3.648874
20
2.800996
10
3.656074
20
2.81147
10
3.663377
20
2.822299
10
3.670776
20
2.833485
10
3.678265
20
2.845032
10
3.68584
20
2.856942
10
3.693493
20
2.869216
10
3.701219
20
2.881859
10
3.709011
20
2.894871
10
3.716865
20
2.908255
10
3.724773
20
2.922013
10
3.732731
20
2.936147
10
3.740731
20
2.950659
10
3.748767
20
2.965552
10
3.756834
20
2.980825
10
3.764924
20
2.996483
10
3.773033
20
3.012525
10
3.781153
20
3.028954
10
3.789279
20
3.045771
10
3.797404
20
3.062977
10
3.805521
20
3.080575
10
3.813625
20
3.098564
10
3.821709
20
3.116946
10
3.829766
20
3.135723
10
3.83779
20
3.154894
10
3.845776
20
3.174462
10
3.853715
20
3.194427
10
3.861602
20
3.214789
10
3.869431
20
3.235549
10
3.877194
20
3.256708
10
3.884885
20
3.278267
10
3.892499
20
3.300225
10
3.900027
20
3.322582
10
3.900495
20
3.323993
10
3.900553
20
3.32417
10
3.900582
20
3.324258
10
3.900596
20
3.324301
10
3.82297
20
3.413286
10
3.822926
20
3.413279
10
3.822834
20
3.413262
10
3.822652
20
3.413228
10
3.821191
20
3.412956
10
3.798018
20
3.408532
10
3.77523
20
3.403969
10
3.752827
20
3.399275
10
3.73081
20
3.394456
10
3.709179
20
3.389517
10
3.687935
20
3.384467
10
3.667077
20
3.379311
10
3.646607
20
3.374056
10
3.626524
20
3.368708
10
3.606827
20
3.363274
10
3.587518
20
3.35776
10
3.568595
20
3.352173
10
3.550059
20
3.346519
10
3.531909
20
3.340805
10
3.514145
20
3.335037
10
3.496766
20
3.329222
10
3.479771
20
3.323366
10
3.46316
20
3.317475
10
3.446933
20
3.311556
10
3.431088
20
3.305615
10
3.415624
20
3.299659
10
3.400541
20
3.293694
10
3.385836
20
3.287726
10
3.37151
20
3.281762
10
3.357561
20
3.275807
10
3.343987
20
3.269869
10
3.330787
20
3.263953
10
3.31796
20
3.258065
10
3.305503
20
3.252212
10
3.293416
20
3.2464
10
3.281696
20
3.240635
10
3.270342
20
3.234923
10
3.259351
20
3.22927
10
3.228189
20
3.259441
10
3.177873
20
3.308516
10
3.146934
20
3.338916
10
3.152311
20
3.350044
10
3.157738
20
3.361537
10
3.163209
20
3.373398
10
3.168717
20
3.385626
10
3.174258
20
3.398225
10
3.179823
20
3.411195
10
3.185408
20
3.424539
10
3.191006
20
3.438257
10
3.196611
20
3.45235
10
3.202216
20
3.466821
10
3.207815
20
3.481669
10
3.213402
20
3.496897
10
3.21897
20
3.512504
10
3.224513
20
3.528493
10
3.230026
20
3.544863
10
3.2355
20
3.561615
10
3.24093
20
3.578751
10
3.24631
20
3.59627
10
3.251633
20
3.614172
10
3.256892
20
3.632459
10
3.262082
20
3.651131
10
3.267195
20
3.670187
10
3.272225
20
3.689628
10
3.277166
20
3.709454
10
3.282011
20
3.729664
10
3.286754
20
3.750259
10
3.291388
20
3.771239
10
3.295907
20
3.792603
10
3.300304
20
3.81435
10
3.304572
20
3.83648
10
3.308706
20
3.858993
10
3.312699
20
3.881888
10
3.316543
20
3.905164
10
3.316778
20
3.906632
10
3.316808
20
3.906815
10
3.316822
20
3.906907
10
3.316829
20
3.906952
10
3.225934
20
3.982333
10
3.225892
20
3.982318
10
3.225804
20
3.982286
10
3.225629
20
3.982224
10
3.224231
20
3.981721
10
3.202068
20
3.973637
10
3.180306
20
3.965478
10
3.158947
20
3.957251
10
3.137988
20
3.948962
10
3.117429
20
3.940618
10
3.09727
20
3.932225
10
3.07751
20
3.92379
10
3.058148
20
3.915319
10
3.039182
20
3.906819
10
3.020613
20
3.898296
10
3.002438
20
3.889756
10
2.984656
20
3.881206
10
2.967267
20
3.872652
10
2.950269
20
3.8641
10
2.93366
20
3.855558
10
2.917439
20
3.84703
10
2.901604
20
3.838523
10
2.886153
20
3.830044
10
2.871085
20
3.821599
10
2.856398
20
3.813194
10
2.84209
20
3.804834
10
2.828159
20
3.796527
10
2.814602
20
3.788277
10
2.801419
20
3.780092
10
2.788605
20
3.771977
10
2.776159
20
3.763938
10
2.764079
20
3.755981
10
2.752362
20
3.748112
10
2.741006
20
3.740337
10
2.730008
20
3.732661
10
2.719364
20
3.725091
10
2.709073
20
3.717631
10
2.699132
20
3.710289
10
2.663533
20
3.73507
10
2.605997
20
3.775438
10
2.570582
20
3.800482
10
2.574104
20
3.812328
10
2.577617
20
3.824543
10
2.581115
20
3.837127
10
2.584591
20
3.850081
10
2.588038
20
3.863405
10
2.591451
20
3.877101
10
2.594823
20
3.891167
10
2.598148
20
3.905605
10
2.601419
20
3.920416
10
2.604631
20
3.935598
10
2.607775
20
3.951152
10
2.610847
20
3.967079
10
2.61384
20
3.983378
10
2.616747
20
4.000048
10
2.619562
20
4.017091
10
2.622278
20
4.034504
10
2.624889
20
4.052289
10
2.627389
20
4.070444
10
2.629771
20
4.088968
10
2.632029
20
4.107862
10
2.634156
20
4.127124
10
2.636146
20
4.146754
10
2.637993
20
4.16675
10
2.63969
20
4.187112
10
2.64123
20
4.207838
10
2.642608
20
4.228927
10
2.643816
20
4.250378
10
2.64485
20
4.27219
10
2.645701
20
4.294361
10
2.646364
20
4.31689
10
2.646833
20
4.339774
10
2.647101
20
4.363013
10
2.647162
20
4.386604
10
2.647159
20
4.38809
10
2.647159
20
4.388276
10
2.647158
20
4.388369
10
2.647158
20
4.388415
10
2.545348
20
4.448239
10
2.545308
20
4.448217
10
2.545227
20
4.448172
10
2.545064
20
4.448082
10
2.543765
20
4.447362
10
2.523185
20
4.435827
10
2.503015
20
4.424283
10
2.483251
20
4.412737
10
2.463894
20
4.401193
10
2.44494
20
4.389659
10
2.426388
20
4.378141
10
2.408237
20
4.366646
10
2.390484
20
4.355178
10
2.373128
20
4.343746
10
2.356166
20
4.332354
10
2.339596
20
4.321009
10
2.323417
20
4.309718
10
2.307625
20
4.298485
10
2.292218
20
4.287318
10
2.277195
20
4.276221
10
2.262552
20
4.265202
10
2.248286
20
4.254265
10
2.234396
20
4.243418
10
2.220878
20
4.232665
10
2.207729
20
4.222012
10
2.194947
20
4.211466
10
2.182529
20
4.201031
10
2.170472
20
4.190714
10
2.158771
20
4.18052
10
2.147426
20
4.170455
10
2.136431
20
4.160523
10
2.125784
20
4.150732
10
2.115481
20
4.141085
10
2.105519
20
4.131589
10
2.095894
20
4.122248
10
2.086603
20
4.113068
10
2.077642
20
4.104055
10
2.069007
20
4.095213
10
2.029894
20
4.113962
10
1.966627
20
4.144579
10
1.927654
20
4.163617
10
1.92923
20
4.175875
10
1.930738
20
4.188495
10
1.932172
20
4.201477
10
1.933524
20
4.214821
10
1.93479
20
4.228526
10
1.935962
20
4.242591
10
1.937034
20
4.257017
10
1.938
20
4.271801
10
1.938853
20
4.286944
10
1.939587
20
4.302445
10
1.940196
20
4.318302
10
1.940673
20
4.334516
10
1.941013
20
4.351083
10
1.941208
20
4.368004
10
1.941252
20
4.385277
10
1.94114
20
4.402901
10
1.940865
20
4.420874
10
1.94042
20
4.439195
10
1.9398
20
4.457862
10
1.938997
20
4.476873
10
1.938007
20
4.496227
10
1.936823
20
4.515922
10
1.935438
20
4.535955
10
1.933846
20
4.556326
10
1.932042
20
4.57703
10
1.930019
20
4.598068
10
1.927771
20
4.619435
10
1.925292
20
4.64113
10
1.922576
20
4.663151
10
1.919617
20
4.685494
10
1.916409
20
4.708157
10
1.912946
20
4.731138
10
1.909221
20
4.754434
10
1.90898
20
4.7559
10
1.90895
20
4.756083
10
1.908934
20
4.756175
10
1.908926
20
4.75622
10
1.798839
20
4.798938
10
1.798803
20
4.79891
10
1.79873
20
4.798853
10
1.798584
20
4.798738
10
1.797417
20
4.797818
10
1.778954
20
4.783132
10
1.760896
20
4.768502
10
1.743241
20
4.753934
10
1.725986
20
4.739435
10
1.709128
20
4.72501
10
1.692664
20
4.710666
10
1.676592
20
4.696407
10
1.660908
20
4.682241
10
1.645611
20
4.668172
10
1.630696
20
4.654207
10
1.61616
20
4.640351
10
1.602002
20
4.62661
10
1.588216
20
4.61299
10
1.574801
20
4.599496
10
1.561752
20
4.586133
10
1.549066
20
4.572907
10
1.536739
20
4.559824
10
1.524769
20
4.546889
10
1.513151
20
4.534107
10
1.501881
20
4.521483
10
1.490957
20
4.509023
10
1.480373
20
4.496731
10
1.470127
20
4.484614
10
1.460213
20
4.472675
10
1.450629
20
4.46092
10
1.44137
20
4.449353
10
1.432431
20
4.43798
10
1.423809
20
4.426806
10
1.415499
20
4.415835
10
1.407497
20
4.405071
10
1.399799
20
4.39452
10
1.3924
20
4.384186
10
1.385295
20
4.374073
10
1.343681
20
4.386306
10
1.276323
20
4.406377
10
1.2348
20
4.418917
10
1.23439
20
4.431269
10
1.233854
20
4.443968
10
1.233186
20
4.457012
10
1.232381
20
4.470399
10
1.231432
20
4.48413
10
1.230332
20
4.498201
10
1.229076
20
4.512611
10
1.227658
20
4.527359
10
1.226071
20
4.542443
10
1.224309
20
4.557861
10
1.222367
20
4.573611
10
1.220237
20
4.589691
10
1.217914
20
4.606098
10
1.215392
20
4.622831
10
1.212666
20
4.639888
10
1.209728
20
4.657266
10
1.206573
20
4.674962
10
1.203195
20
4.692974
10
1.199588
20
4.7113
10
1.195747
20
4.729936
10
1.191665
20
4.748881
10
1.187337
20
4.76813
10
1.182756
20
4.787682
10
1.177917
20
4.807533
10
1.172815
20
4.82768
10
1.167444
20
4.848121
10
1.161797
20
4.868851
10
1.15587
20
4.889867
10
1.149657
20
4.911167
10
1.143152
20
4.932746
10
1.13635
20
4.954601
10
1.129245
20
4.976729
10
1.121833
20
4.999126
10
1.121359
20
5.000534
10
1.1213
20
5.00071
10
1.12127
20
5.000798
10
1.121255
20
5.000841
10
1.005741
20
5.025347
10
1.00571
20
5.025314
10
1.005647
20
5.025245
10
1.005521
20
5.025109
10
1.004516
20
5.024014
10
0.988649
20
5.006556
10
0.973172
20
4.989219
10
0.958082
20
4.972008
10
0.943376
20
4.954928
10
0.92905
20
4.937986
10
0.9151
20
4.921186
10
0.901524
20
4.904534
10
0.888316
20
4.888035
10
0.875473
20
4.871695
10
0.862991
20
4.855518
10
0.850867
20
4.83951
10
0.839096
20
4.823676
10
0.827674
20
4.808021
10
0.816596
20
4.792549
10
0.80586
20
4.777266
10
0.79546
20
4.762177
10
0.785392
20
4.747286
10
0.775651
20
4.732598
10
0.766234
20
4.718118
10
0.757136
20
4.70385
10
0.748351
20
4.689798
10
0.739876
20
4.675968
10
0.731706
20
4.662364
10
0.723837
20
4.648989
10
0.716262
20
4.635849
10
0.708978
20
4.622947
10
0.701979
20
4.610288
10
0.695261
20
4.597875
10
0.688819
20
4.585713
10
0.682648
20
4.573805
10
0.676742
20
4.562156
10
0.671096
20
4.550768
10
0.665706
20
4.539647
10
0.622668
20
4.545046
10
0.552962
20
4.554052
10
0.509966
20
4.559769
10
0.507579
20
4.571895
10
0.505013
20
4.584343
10
0.502262
20
4.597111
10
0.499319
20
4.610197
10
0.49618
20
4.623597
10
0.492838
20
4.63731
10
0.489286
20
4.651332
10
0.485521
20
4.665662
10
0.481535
20
4.680296
10
0.477322
20
4.695231
10
0.472878
20
4.710465
10
0.468197
20
4.725995
10
0.463272
20
4.741818
10
0.458099
20
4.75793
10
0.452672
20
4.774328
10
0.446984
20
4.791009
10
0.441031
20
4.80797
10
0.434808
20
4.825207
10
0.428308
20
4.842717
10
0.421527
20
4.860496
10
0.414459
20
4.87854
10
0.407099
20
4.896846
10
0.399441
20
4.91541
10
0.391481
20
4.934228
10
0.383213
20
4.953296
10
0.374632
20
4.97261
10
0.365734
20
4.992166
10
0.356512
20
5.011959
10
0.346963
20
5.031987
10
0.337081
20
5.052243
10
0.326861
20
5.072724
10
0.316299
20
5.093425
10
0.305389
20
5.114343
10
0.304696
20
5.115657
10
0.304609
20
5.115822
10
0.304565
20
5.115904
10
0.304544
20
5.115944
10
0.186594
20
5.121602
10
0.186569
20
5.121565
10
0.186518
20
5.121487
10
0.186416
20
5.121332
10
0.1856
20
5.12009
10
0.172738
20
5.100313
10
0.160243
20
5.080717
10
0.148109
20
5.061309
10
0.136333
20
5.042091
10
0.12491
20
5.02307
10
0.113836
20
5.00425
10
0.103107
20
4.985636
10
0.092716
20
4.967232
10
0.082661
20
4.949044
10
0.072936
20
4.931074
10
0.063536
20
4.913328
10
0.054458
20
4.895811
10
0.045695
20
4.878526
10
0.037243
20
4.861478
10
0.029097
20
4.844671
10
0.021252
20
4.828109
10
0.013703
20
4.811796
10
0.006445
20
4.795735
10
-0.000528
20
4.779932
10
-0.00722
20
4.764389
10
-0.013636
20
4.749111
10
-0.019783
20
4.7341
10
-0.025665
20
4.719361
10
-0.031287
20
4.704898
10
-0.036656
20
4.690713
10
-0.041776
20
4.676809
10
-0.046653
20
4.663191
10
-0.051293
20
4.649862
10
-0.055701
20
4.636823
10
-0.059882
20
4.62408
10
-0.063843
20
4.611634
10
-0.067589
20
4.599488
10
-0.071126
20
4.587646
10
-0.114472
20
4.586072
10
-0.18472
20
4.58378
10
-0.228077
20
4.582525
10
-0.232378
20
4.594112
10
-0.236907
20
4.605987
10
-0.241671
20
4.618148
10
-0.246674
20
4.630592
10
-0.251923
20
4.643315
10
-0.257421
20
4.656314
10
-0.263176
20
4.669586
10
-0.269191
20
4.683125
10
-0.275473
20
4.696931
10
-0.282027
20
4.710997
10
-0.288857
20
4.725321
10
-0.295969
20
4.739899
10
-0.303368
20
4.754726
10
-0.311059
20
4.7698
10
-0.319046
20
4.785115
10
-0.327336
20
4.800668
10
-0.335932
20
4.816455
10
-0.34484
20
4.83247
10
-0.354065
20
4.848711
10
-0.36361
20
4.865172
10
-0.373481
20
4.881848
10
-0.383682
20
4.898737
10
-0.394219
20
4.915832
10
-0.405094
20
4.933129
10
-0.416314
20
4.950624
10
-0.427882
20
4.968311
10
-0.439802
20
4.986186
10
-0.452079
20
5.004244
10
-0.464718
20
5.02248
10
-0.477721
20
5.040889
10
-0.491094
20
5.059466
10
-0.50484
20
5.078205
10
-0.518964
20
5.097101
10
-0.519859
20
5.098287
10
-0.519971
20
5.098436
10
-0.520027
20
5.09851
10
-0.520055
20
5.098546
10
-0.637385
20
5.08521
10
-0.637404
20
5.085169
10
-0.637442
20
5.085085
10
-0.637518
20
5.084915
10
-0.638124
20
5.083558
10
-0.647647
20
5.061974
10
-0.656837
20
5.040628
10
-0.6657
20
5.019524
10
-0.674241
20
4.998667
10
-0.682464
20
4.97806
10
-0.690376
20
4.957707
10
-0.697981
20
4.937613
10
-0.705285
20
4.917781
10
-0.712292
20
4.898214
10
-0.719008
20
4.878918
10
-0.72544
20
4.859894
10
-0.731591
20
4.841147
10
-0.737468
20
4.822681
10
-0.743076
20
4.804497
10
-0.74842
20
4.786601
10
-0.753507
20
4.768995
10
-0.758341
20
4.751682
10
-0.762929
20
4.734666
10
-0.767276
20
4.717948
10
-0.771388
20
4.701533
10
-0.775271
20
4.685424
10
-0.77893
20
4.669622
10
-0.782371
20
4.65413
10
-0.785601
20
4.638952
10
-0.788624
20
4.624089
10
-0.791448
20
4.609544
10
-0.794078
20
4.59532
10
-0.796519
20
4.581419
10
-0.798778
20
4.567843
10
-0.800862
20
4.554593
10
-0.802775
20
4.541673
10
-0.804524
20
4.529084
10
-0.806115
20
4.516828
10
-0.848647
20
4.508321
10
-0.917618
20
4.49479
10
-0.960212
20
4.486597
10
-0.966316
20
4.497343
10
-0.972692
20
4.508338
10
-0.979344
20
4.519578
10
-0.986279
20
4.531058
10
-0.9935
20
4.542775
10
-1.001013
20
4.554723
10
-1.008822
20
4.566899
10
-1.016932
20
4.579299
10
-1.025347
20
4.591917
10
-1.034072
20
4.60475
10
-1.043111
20
4.617793
10
-1.05247
20
4.631042
10
-1.062151
20
4.64449
10
-1.07216
20
4.658135
10
-1.082501
20
4.671971
10
-1.093179
20
4.685992
10
-1.104196
20
4.700196
10
-1.115557
20
4.714575
10
-1.127267
20
4.729125
10
-1.13933
20
4.743842
10
-1.151748
20
4.758719
10
-1.164526
20
4.773752
10
-1.177668
20
4.788936
10
-1.191178
20
4.804265
10
-1.205059
20
4.819733
10
-1.219314
20
4.835336
10
-1.233947
20
4.851067
10
-1.248962
20
4.866922
10
-1.264362
20
4.882895
10
-1.28015
20
4.898979
10
-1.29633
20
4.91517
10
-1.312904
20
4.931461
10
-1.329876
20
4.947848
10
-1.33095
20
4.948875
10
-1.331084
20
4.949003
10
-1.331152
20
4.949067
10
-1.331185
20
4.949098
10
-1.444856
20
4.917115
10
-1.444868
20
4.917071
10
-1.444892
20
4.916981
10
-1.44494
20
4.916802
10
-1.44532
20
4.915365
10
-1.451258
20
4.892533
10
-1.456905
20
4.869989
10
-1.462268
20
4.847737
10
-1.467352
20
4.82578
10
-1.472164
20
4.80412
10
-1.476708
20
4.782762
10
-1.480991
20
4.761708
10
-1.485019
20
4.740961
10
-1.488797
20
4.720524
10
-1.492331
20
4.7004
10
-1.495627
20
4.680591
10
-1.498692
20
4.6611
10
-1.50153
20
4.64193
10
-1.504148
20
4.623083
10
-1.506553
20
4.604561
10
-1.508749
20
4.586367
10
-1.510744
20
4.568503
10
-1.512543
20
4.550971
10
-1.514152
20
4.533773
10
-1.515578
20
4.51691
10
-1.516826
20
4.500386
10
-1.517903
20
4.484202
10
-1.518815
20
4.468359
10
-1.519568
20
4.452859
10
-1.520168
20
4.437704
10
-1.520622
20
4.422895
10
-1.520936
20
4.408433
10
-1.521116
20
4.39432
10
-1.521168
20
4.380557
10
-1.521099
20
4.367145
10
-1.520915
20
4.354086
10
-1.520621
20
4.341379
10
-1.520226
20
4.329026
10
-1.560843
20
4.313806
10
-1.62675
20
4.289387
10
-1.667478
20
4.274468
10
-1.675227
20
4.284096
10
-1.683284
20
4.293926
10
-1.691653
20
4.303953
10
-1.70034
20
4.314172
10
-1.709347
20
4.324578
10
-1.718679
20
4.335167
10
-1.72834
20
4.345933
10
-1.738334
20
4.356871
10
-1.748664
20
4.367976
10
-1.759335
20
4.379243
10
-1.770349
20
4.390667
10
-1.781712
20
4.402243
10
-1.793425
20
4.413964
10
-1.805494
20
4.425827
10
-1.81792
20
4.437824
10
-1.830708
20
4.449952
10
-1.843861
20
4.462204
10
-1.857382
20
4.474574
10
-1.871275
20
4.487058
10
-1.885541
20
4.499649
10
-1.900185
20
4.512342
10
-1.91521
20
4.52513
10
-1.930617
20
4.538009
10
-1.946411
20
4.550972
10
-1.962593
20
4.564014
10
-1.979166
20
4.577128
10
-1.996134
20
4.590308
10
-2.013498
20
4.603549
10
-2.03126
20
4.616844
10
-2.049424
20
4.630188
10
-2.067992
20
4.643574
10
-2.086964
20
4.656996
10
-2.106345
20
4.670447
10
-2.10757
20
4.671289
10
-2.107723
20
4.671394
10
-2.1078
20
4.671446
10
-2.107837
20
4.671472
10
-2.214906
20
4.621668
10
-2.214911
20
4.621623
10
-2.21492
20
4.621531
10
-2.214939
20
4.621346
10
-2.215084
20
4.619867
10
-2.217282
20
4.596378
10
-2.219239
20
4.57322
10
-2.220963
20
4.550396
10
-2.22246
20
4.527907
10
-2.223735
20
4.505757
10
-2.224794
20
4.483946
10
-2.225644
20
4.462478
10
-2.226292
20
4.441353
10
-2.226743
20
4.420575
10
-2.227003
20
4.400144
10
-2.227079
20
4.380063
10
-2.226977
20
4.360333
10
-2.226704
20
4.340956
10
-2.226265
20
4.321933
10
-2.225667
20
4.303265
10
-2.224917
20
4.284954
10
-2.22402
20
4.267001
10
-2.222983
20
4.249408
10
-2.221812
20
4.232174
10
-2.220515
20
4.215302
10
-2.219096
20
4.198792
10
-2.217563
20
4.182644
10
-2.215922
20
4.16686
10
-2.214179
20
4.15144
10
-2.21234
20
4.136385
10
-2.210413
20
4.121695
10
-2.208402
20
4.10737
10
-2.206316
20
4.093411
10
-2.20416
20
4.079818
10
-2.20194
20
4.066591
10
-2.199664
20
4.05373
10
-2.197336
20
4.041234
10
-2.194964
20
4.029105
10
-2.232613
20
4.007567
10
-2.29375
20
3.972892
10
-2.331557
20
3.951632
10
-2.34075
20
3.959893
10
-2.35028
20
3.968303
10
-2.36015
20
3.976857
10
-2.370363
20
3.985551
10
-2.380923
20
3.994377
10
-2.391832
20
4.003332
10
-2.403095
20
4.012409
10
-2.414714
20
4.021602
10
-2.426692
20
4.030907
10
-2.439032
20
4.040316
10
-2.451736
20
4.049825
10
-2.464808
20
4.059428
10
-2.47825
20
4.069119
10
-2.492065
20
4.078892
10
-2.506256
20
4.088741
10
-2.520823
20
4.09866
10
-2.535771
20
4.108643
10
-2.551102
20
4.118685
10
-2.566817
20
4.128778
10
-2.582918
20
4.138918
10
-2.599409
20
4.149097
10
-2.61629
20
4.15931
10
-2.633564
20
4.16955
10
-2.651233
20
4.179812
10
-2.669297
20
4.190089
10
-2.68776
20
4.200375
10
-2.706622
20
4.210663
10
-2.725885
20
4.220947
10
-2.74555
20
4.23122
10
-2.765619
20
4.241478
10
-2.786093
20
4.251712
10
-2.806973
20
4.261916
10
-2.828261
20
4.272085
10
-2.829605
20
4.272719
10
-2.829773
20
4.272798
10
-2.829857
20
4.272838
10
-2.829898
20
4.272856
10
-2.927591
20
4.206523
10
-2.927589
20
4.206478
10
-2.927583
20
4.206385
10
-2.927572
20
4.206199
10
-2.927478
20
4.204716
10
-2.925879
20
4.181179
10
-2.924097
20
4.158007
10
-2.922137
20
4.135202
10
-2.920007
20
4.112764
10
-2.917712
20
4.090696
10
-2.915259
20
4.068998
10
-2.912655
20
4.047671
10
-2.909905
20
4.026717
10
-2.907017
20
4.006135
10
-2.903997
20
3.985927
10
-2.90085
20
3.966094
10
-2.897585
20
3.946636
10
-2.894207
20
3.927553
10
-2.890722
20
3.908847
10
-2.887137
20
3.890517
10
-2.883459
20
3.872563
10
-2.879694
20
3.854987
10
-2.875849
20
3.837788
10
-2.871929
20
3.820965
10
-2.867942
20
3.804519
10
-2.863893
20
3.78845
10
-2.859789
20
3.772758
10
-2.855637
20
3.757441
10
-2.851443
20
3.742501
10
-2.847214
20
3.727935
10
-2.842955
20
3.713745
10
-2.838673
20
3.699928
10
-2.834374
20
3.686484
10
-2.830065
20
3.673413
10
-2.825753
20
3.660713
10
-2.821442
20
3.648384
10
-2.817141
20
3.636424
10
-2.812854
20
3.624832
10
-2.846561
20
3.597534
10
-2.901343
20
3.5535
10
-2.935251
20
3.526451
10
-2.94565
20
3.53313
10
-2.956405
20
3.539903
10
-2.967519
20
3.546763
10
-2.978994
20
3.553706
10
-2.990834
20
3.560724
10
-3.003038
20
3.567813
10
-3.015611
20
3.574965
10
-3.028555
20
3.582176
10
-3.04187
20
3.589439
10
-3.055559
20
3.596747
10
-3.069625
20
3.604095
10
-3.084068
20
3.611477
10
-3.09889
20
3.618886
10
-3.114094
20
3.626316
10
-3.12968
20
3.633761
10
-3.145651
20
3.641215
10
-3.162007
20
3.648671
10
-3.178749
20
3.656123
10
-3.19588
20
3.663565
10
-3.213399
20
3.67099
10
-3.231309
20
3.678393
10
-3.24961
20
3.685765
10
-3.268303
20
3.693102
10
-3.287389
20
3.700397
10
-3.306868
20
3.707643
10
-3.326741
20
3.714834
10
-3.347009
20
3.721963
10
-3.367673
20
3.729024
10
-3.388731
20
3.73601
10
-3.410186
20
3.742915
10
-3.432037
20
3.749732
10
-3.454283
20
3.756455
10
-3.476926
20
3.763077
10
-3.478354
20
3.763488
10
-3.478533
20
3.763539
10
-3.478622
20
3.763565
10
-3.478666
20
3.763576
10
-3.564453
20
3.682431
10
-3.564444
20
3.682387
10
-3.564423
20
3.682296
10
-3.564382
20
3.682115
10
-3.564052
20
3.680666
10
-3.558698
20
3.65769
10
-3.553222
20
3.635104
10
-3.547629
20
3.612908
10
-3.541927
20
3.591103
10
-3.536122
20
3.569689
10
-3.53022
20
3.548665
10
-3.524229
20
3.528032
10
-3.518153
20
3.50779
10
-3.512001
20
3.487938
10
-3.505778
20
3.468477
10
-3.499491
20
3.449405
10
-3.493147
20
3.430723
10
-3.486751
20
3.412429
10
-3.480311
20
3.394524
10
-3.473833
20
3.377006
10
-3.467322
20
3.359875
10
-3.460787
20
3.34313
10
-3.454232
20
3.326771
10
-3.447664
20
3.310795
10
-3.44109
20
3.295202
10
-3.434516
20
3.27999
10
-3.427949
20
3.265159
10
-3.421394
20
3.250707
10
-3.414857
20
3.236633
10
-3.408346
20
3.222934
10
-3.401866
20
3.209611
10
-3.395423
20
3.19666
10
-3.389023
20
3.18408
10
-3.382674
20
3.171869
10
-3.37638
20
3.160025
10
-3.370147
20
3.148547
10
-3.363983
20
3.137432
10
-3.357892
20
3.126678
10
-3.386783
20
3.094326
10
-3.433793
20
3.042075
10
-3.462922
20
3.009937
10
-3.474258
20
3.014862
10
-3.485961
20
3.019821
10
-3.498031
20
3.02481
10
-3.510472
20
3.029822
10
-3.523283
20
3.03485
10
-3.536467
20
3.039889
10
-3.550025
20
3.044933
10
-3.563957
20
3.049973
10
-3.578265
20
3.055006
10
-3.592949
20
3.060024
10
-3.608011
20
3.065021
10
-3.623452
20
3.06999
10
-3.639271
20
3.074925
10
-3.655469
20
3.07982
10
-3.672048
20
3.084669
10
-3.689007
20
3.089464
10
-3.706347
20
3.0942
10
-3.724069
20
3.09887
10
-3.742171
20
3.103468
10
-3.760655
20
3.107987
10
-3.77952
20
3.11242
10
-3.798767
20
3.116762
10
-3.818395
20
3.121005
10
-3.838403
20
3.125144
10
-3.858793
20
3.129171
10
-3.879562
20
3.133081
10
-3.900711
20
3.136866
10
-3.92224
20
3.140521
10
-3.944146
20
3.144039
10
-3.966431
20
3.147413
10
-3.989092
20
3.150637
10
-4.012129
20
3.153704
10
-4.035541
20
3.156608
10
-4.037017
20
3.156784
10
-4.037201
20
3.156806
10
-4.037293
20
3.156817
10
-4.037338
20
3.156822
10
-4.108998
20
3.062966
10
-4.108982
20
3.062924
10
-4.108947
20
3.062837
10
-4.108877
20
3.062665
10
-4.108319
20
3.061288
10
-4.099349
20
3.039468
10
-4.09032
20
3.018053
10
-4.08124
20
2.997042
10
-4.072114
20
2.976434
10
-4.062949
20
2.956228
10
-4.053751
20
2.936424
10
-4.044527
20
2.917019
10
-4.035283
20
2.898014
10
-4.026026
20
2.879406
10
-4.016762
20
2.861194
10
-4.007497
20
2.843378
10
-3.998238
20
2.825955
10
-3.988991
20
2.808925
10
-3.979762
20
2.792285
10
-3.970557
20
2.776033
10
-3.961383
20
2.760168
10
-3.952246
20
2.744689
10
-3.943152
20
2.729592
10
-3.934107
20
2.714876
10
-3.925117
20
2.70054
10
-3.916188
20
2.68658
10
-3.907326
20
2.672995
10
-3.898538
20
2.659781
10
-3.889828
20
2.646938
10
-3.881204
20
2.634461
10
-3.87267
20
2.622349
10
-3.864233
20
2.6106
10
-3.855899
20
2.599209
10
-3.847673
20
2.588175
10
-3.83956
20
2.577494
10
-3.831567
20
2.567165
10
-3.8237
20
2.557182
10
-3.815963
20
2.547545
10
-3.83929
20
2.510977
10
-3.87731
20
2.451862
10
-3.900906
20
2.415468
10
-3.912885
20
2.41851
10
-3.925232
20
2.421528
10
-3.937946
20
2.424516
10
-3.95103
20
2.427467
10
-3.964482
20
2.430376
10
-3.978304
20
2.433234
10
-3.992495
20
2.436037
10
-4.007055
20
2.438778
10
-4.021985
20
2.44145
10
-4.037284
20
2.444048
10
-4.052952
20
2.446564
10
-4.06899
20
2.448992
10
-4.085396
20
2.451326
10
-4.10217
20
2.453559
10
-4.119312
20
2.455685
10
-4.136821
20
2.457698
10
-4.154696
20
2.459591
10
-4.172937
20
2.461358
10
-4.191542
20
2.462992
10
-4.210512
20
2.464487
10
-4.229844
20
2.465837
10
-4.249538
20
2.467035
10
-4.269592
20
2.468075
10
-4.290005
20
2.468951
10
-4.310777
20
2.469655
10
-4.331904
20
2.470183
10
-4.353387
20
2.470527
10
-4.375223
20
2.470681
10
-4.39741
20
2.470639
10
-4.419947
20
2.470395
10
-4.442832
20
2.469942
10
-4.466063
20
2.469274
10
-4.489637
20
2.468385
10
-4.491122
20
2.468322
10
-4.491308
20
2.468314
10
-4.491401
20
2.46831
10
-4.491446
20
2.468307
10
-4.547122
20
2.364172
10
-4.547099
20
2.364132
10
-4.547051
20
2.364053
10
-4.546954
20
2.363894
10
-4.546182
20
2.362624
10
-4.533828
20
2.342526
10
-4.521482
20
2.322837
10
-4.509148
20
2.303555
10
-4.496835
20
2.284677
10
-4.484547
20
2.266203
10
-4.472291
20
2.24813
10
-4.460074
20
2.230457
10
-4.447902
20
2.21318
10
-4.435779
20
2.196298
10
-4.423714
20
2.179809
10
-4.411711
20
2.163709
10
-4.399777
20
2.147998
10
-4.387918
20
2.132671
10
-4.376139
20
2.117726
10
-4.364447
20
2.103162
10
-4.352847
20
2.088974
10
-4.341345
20
2.075161
10
-4.329946
20
2.061719
10
-4.318658
20
2.048644
10
-4.307484
20
2.035936
10
-4.296432
20
2.023589
10
-4.285506
20
2.011601
10
-4.274711
20
1.999968
10
-4.264055
20
1.988688
10
-4.25354
20
1.977757
10
-4.243175
20
1.967171
10
-4.232962
20
1.956926
10
-4.222908
20
1.94702
10
-4.213019
20
1.937449
10
-4.203298
20
1.928208
10
-4.193752
20
1.919294
10
-4.184385
20
1.910703
10
-4.175202
20
1.902431
10
-4.192362
20
1.862595
10
-4.220406
20
1.798147
10
-4.237859
20
1.758439
10
-4.250171
20
1.75952
10
-4.262841
20
1.760519
10
-4.275871
20
1.761428
10
-4.289258
20
1.762243
10
-4.303003
20
1.762955
10
-4.317104
20
1.76356
10
-4.331561
20
1.76405
10
-4.346372
20
1.76442
10
-4.361537
20
1.764663
10
-4.377055
20
1.764772
10
-4.392924
20
1.764742
10
-4.409143
20
1.764566
10
-4.425711
20
1.764238
10
-4.442626
20
1.763752
10
-4.459887
20
1.763101
10
-4.477492
20
1.762279
10
-4.49544
20
1.76128
10
-4.513728
20
1.760098
10
-4.532355
20
1.758726
10
-4.551318
20
1.757159
10
-4.570617
20
1.755391
10
-4.590248
20
1.753414
10
-4.610209
20
1.751224
10
-4.630499
20
1.748813
10
-4.651114
20
1.746177
10
-4.672053
20
1.743308
10
-4.693312
20
1.740202
10
-4.71489
20
1.736851
10
-4.736783
20
1.733251
10
-4.758989
20
1.729394
10
-4.781505
20
1.725276
10
-4.804328
20
1.72089
10
-4.827454
20
1.716231
10
-4.82891
20
1.715931
10
-4.829092
20
1.715893
10
-4.829183
20
1.715874
10
-4.829227
20
1.715865
10
-4.867478
20
1.604146
10
-4.867449
20
1.604112
10
-4.867388
20
1.604041
10
-4.867268
20
1.6039
10
-4.866302
20
1.60277
10
-4.850884
20
1.584914
10
-4.835539
20
1.56746
10
-4.820272
20
1.550406
10
-4.80509
20
1.533748
10
-4.789998
20
1.517485
10
-4.775002
20
1.501612
10
-4.760108
20
1.486127
10
-4.745321
20
1.471026
10
-4.730648
20
1.456308
10
-4.716094
20
1.441967
10
-4.701664
20
1.428002
10
-4.687364
20
1.414408
10
-4.6732
20
1.401182
10
-4.659176
20
1.38832
10
-4.645299
20
1.37582
10
-4.631573
20
1.363677
10
-4.618004
20
1.351887
10
-4.604598
20
1.340448
10
-4.591358
20
1.329354
10
-4.578291
20
1.318602
10
-4.565401
20
1.308188
10
-4.552693
20
1.298108
10
-4.540173
20
1.288357
10
-4.527844
20
1.278933
10
-4.515713
20
1.269829
10
-4.503783
20
1.261043
10
-4.492059
20
1.25257
10
-4.480547
20
1.244405
10
-4.46925
20
1.236544
10
-4.458173
20
1.228982
10
-4.44732
20
1.221714
10
-4.436696
20
1.214737
10
-4.426306
20
1.208046
10
-4.436853
20
1.165973
10
-4.454196
20
1.097861
10
-4.465053
20
1.055867
10
-4.477379
20
1.054959
10
-4.490046
20
1.053912
10
-4.503052
20
1.05272
10
-4.516397
20
1.051377
10
-4.530078
20
1.049875
10
-4.544093
20
1.04821
10
-4.558442
20
1.046375
10
-4.573121
20
1.044364
10
-4.588128
20
1.042171
10
-4.603463
20
1.03979
10
-4.619121
20
1.037214
10
-4.635102
20
1.034439
10
-4.651403
20
1.031458
10
-4.668021
20
1.028264
10
-4.684954
20
1.024853
10
-4.702199
20
1.021218
10
-4.719754
20
1.017353
10
-4.737616
20
1.013252
10
-4.755781
20
1.008911
10
-4.774248
20
1.004322
10
-4.793013
20
0.99948
10
-4.812072
20
0.99438
10
-4.831424
20
0.989016
10
-4.851064
20
0.983382
10
-4.87099
20
0.977473
10
-4.891197
20
0.971283
10
-4.911683
20
0.964806
10
-4.932444
20
0.958038
10
-4.953476
20
0.950972
10
-4.974776
20
0.943604
10
-4.996339
20
0.935927
10
-5.018163
20
0.927937
10
-5.040243
20
0.919628
10
-5.041631
20
0.919098
10
-5.041805
20
0.919032
10
-5.041892
20
0.918999
10
-5.041934
20
0.918982
10
-5.061768
20
0.802575
10
-5.061734
20
0.802545
10
-5.061663
20
0.802485
10
-5.061521
20
0.802365
10
-5.060387
20
0.801405
10
-5.042304
20
0.786253
10
-5.024358
20
0.771487
10
-5.006553
20
0.757102
10
-4.988896
20
0.743096
10
-4.97139
20
0.729464
10
-4.954042
20
0.716202
10
-4.936857
20
0.703307
10
-4.91984
20
0.690774
10
-4.902996
20
0.6786
10
-4.88633
20
0.666779
10
-4.869846
20
0.655309
10
-4.853551
20
0.644185
10
-4.837448
20
0.633403
10
-4.821543
20
0.622958
10
-4.805841
20
0.612845
10
-4.790345
20
0.603061
10
-4.775061
20
0.593601
10
-4.759992
20
0.58446
10
-4.745144
20
0.575633
10
-4.730522
20
0.567117
10
-4.716128
20
0.558905
10
-4.701968
20
0.550994
10
-4.688046
20
0.543379
10
-4.674365
20
0.536054
10
-4.66093
20
0.529014
10
-4.647746
20
0.522256
10
-4.634815
20
0.515772
10
-4.622142
20
0.50956
10
-4.60973
20
0.503613
10
-4.597583
20
0.497925
10
-4.585705
20
0.492493
10
-4.5741
20
0.487311
10
-4.56277
20
0.482372
10
-4.566432
20
0.439153
10
-4.572624
20
0.36914
10
-4.576605
20
0.325949
10
-4.588625
20
0.323076
10
-4.60096
20
0.320011
10
-4.613607
20
0.316747
10
-4.626563
20
0.313281
10
-4.639826
20
0.309604
10
-4.653393
20
0.305712
10
-4.667261
20
0.301599
10
-4.681428
20
0.29726
10
-4.695889
20
0.292688
10
-4.710643
20
0.287877
10
-4.725686
20
0.282824
10
-4.741015
20
0.277521
10
-4.756626
20
0.271963
10
-4.772517
20
0.266145
10
-4.788683
20
0.260062
10
-4.805122
20
0.253707
10
-4.821829
20
0.247076
10
-4.838802
20
0.240164
10
-4.856036
20
0.232964
10
-4.873527
20
0.225473
10
-4.891272
20
0.217684
10
-4.909267
20
0.209593
10
-4.927508
20
0.201194
10
-4.94599
20
0.192482
10
-4.964709
20
0.183453
10
-4.983662
20
0.174102
10
-5.002844
20
0.164423
10
-5.02225
20
0.154412
10
-5.041876
20
0.144064
10
-5.061718
20
0.133374
10
-5.081771
20
0.122338
10
-5.102031
20
0.11095
10
-5.122492
20
0.099208
10
-5.123777
20
0.098462
10
-5.123938
20
0.098368
10
-5.124018
20
0.098322
10
-5.124057
20
0.098298
10
-5.124962
20
-0.019783
10
-5.124923
20
-0.019807
10
-5.124844
20
-0.019855
10
-5.124684
20
-0.019951
10
-5.123411
20
-0.020716
10
-5.103132
20
-0.032771
10
-5.083049
20
-0.044467
10
-5.063168
20
-0.055809
10
-5.043492
20
-0.066802
10
-5.024026
20
-0.07745
10
-5.004776
20
-0.087757
10
-4.985745
20
-0.097728
10
-4.966937
20
-0.107369
10
-4.948358
20
-0.116684
10
-4.930012
20
-0.125678
10
-4.911902
20
-0.134355
10
-4.894033
20
-0.142721
10
-4.87641
20
-0.150781
10
-4.859035
20
-0.158539
10
-4.841914
20
-0.166002
10
-4.825049
20
-0.173174
10
-4.808445
20
-0.18006
10
-4.792106
20
-0.186665
10
-4.776034
20
-0.192996
10
-4.760235
20
-0.199056
10
-4.74471
20
-0.204853
10
-4.729464
20
-0.21039
10
-4.714501
20
-0.215673
10
-4.699822
20
-0.220709
10
-4.685432
20
-0.225502
10
-4.671334
20
-0.230058
10
-4.657531
20
-0.234383
10
-4.644025
20
-0.238483
10
-4.63082
20
-0.242362
10
-4.617918
20
-0.246027
10
-4.605323
20
-0.249483
10
-4.593037
20
-0.252737
10
-4.581062
20
-0.255794
10
-4.577743
20
-0.299041
10
-4.572624
20
-0.36914
10
-4.569625
20
-0.412411
10
-4.581029
20
-0.417175
10
-4.592712
20
-0.422179
10
-4.604672
20
-0.427429
10
-4.616904
20
-0.432929
10
-4.629406
20
-0.438686
10
-4.642173
20
-0.444703
10
-4.655201
20
-0.450988
10
-4.668488
20
-0.457544
10
-4.682029
20
-0.464376
10
-4.69582
20
-0.471491
10
-4.709858
20
-0.478892
10
-4.724137
20
-0.486585
10
-4.738655
20
-0.494575
10
-4.753407
20
-0.502867
10
-4.768388
20
-0.511465
10
-4.783594
20
-0.520374
10
-4.799022
20
-0.529599
10
-4.814666
20
-0.539145
10
-4.830522
20
-0.549015
10
-4.846585
20
-0.559216
10
-4.862851
20
-0.56975
10
-4.879315
20
-0.580623
10
-4.895972
20
-0.591839
10
-4.912817
20
-0.603403
10
-4.929846
20
-0.615318
10
-4.947053
20
-0.627588
10
-4.964434
20
-0.640219
10
-4.981983
20
-0.653213
10
-4.999695
20
-0.666576
10
-5.017565
20
-0.68031
10
-5.035588
20
-0.69442
10
-5.053759
20
-0.70891
10
-5.072071
20
-0.723783
10
-5.07322
20
-0.724725
10
-5.073364
20
-0.724843
10
-5.073436
20
-0.724902
10
-5.07347
20
-0.724931
10
-5.055421
20
-0.841628
10
-5.05538
20
-0.841646
10
-5.055293
20
-0.84168
10
-5.055121
20
-0.841749
10
-5.053741
20
-0.842301
10
-5.031791
20
-0.850947
10
-5.010092
20
-0.85927
10
-4.988648
20
-0.867276
10
-4.967464
20
-0.87497
10
-4.946543
20
-0.882357
10
-4.925888
20
-0.889443
10
-4.905504
20
-0.896233
10
-4.885394
20
-0.902732
10
-4.865561
20
-0.908945
10
-4.846009
20
-0.91488
10
-4.826742
20
-0.92054
10
-4.807763
20
-0.925931
10
-4.789075
20
-0.931059
10
-4.77068
20
-0.93593
10
-4.752583
20
-0.94055
10
-4.734787
20
-0.944924
10
-4.717293
20
-0.949057
10
-4.700106
20
-0.952956
10
-4.683227
20
-0.956626
10
-4.66666
20
-0.960074
10
-4.650407
20
-0.963305
10
-4.63447
20
-0.966325
10
-4.618853
20
-0.96914
10
-4.603557
20
-0.971755
10
-4.588584
20
-0.974178
10
-4.573938
20
-0.976414
10
-4.559619
20
-0.978469
10
-4.545631
20
-0.980348
10
-4.531975
20
-0.982059
10
-4.518652
20
-0.983607
10
-4.505665
20
-0.984998
10
-4.493016
20
-0.986239
10
-4.480706
20
-0.987335
10
-4.470493
20
-1.029491
10
-4.454196
20
-1.097861
10
-4.444294
20
-1.14009
10
-4.454786
20
-1.146622
10
-4.465516
20
-1.153435
10
-4.476478
20
-1.160535
10
-4.48767
20
-1.167927
10
-4.499086
20
-1.175614
10
-4.510722
20
-1.183602
10
-4.522574
20
-1.191894
10
-4.534637
20
-1.200497
10
-4.546907
20
-1.209413
10
-4.559378
20
-1.218648
10
-4.572047
20
-1.228205
10
-4.584907
20
-1.238089
10
-4.597955
20
-1.248304
10
-4.611186
20
-1.258855
10
-4.624594
20
-1.269745
10
-4.638174
20
-1.280978
10
-4.651922
20
-1.292558
10
-4.665832
20
-1.30449
10
-4.679899
20
-1.316776
10
-4.694118
20
-1.329421
10
-4.708484
20
-1.342428
10
-4.72299
20
-1.355801
10
-4.737632
20
-1.369544
10
-4.752405
20
-1.38366
10
-4.767302
20
-1.398152
10
-4.782318
20
-1.413024
10
-4.797447
20
-1.428279
10
-4.812684
20
-1.443921
10
-4.828024
20
-1.459951
10
-4.84346
20
-1.476374
10
-4.858986
20
-1.493193
10
-4.874597
20
-1.510409
10
-4.890286
20
-1.528027
10
-4.891269
20
-1.529142
10
-4.891392
20
-1.529281
10
-4.891454
20
-1.529351
10
-4.891483
20
-1.529385
10
-4.854948
20
-1.641676
10
-4.854904
20
-1.641687
10
-4.854814
20
-1.641707
10
-4.854632
20
-1.641747
10
-4.853182
20
-1.64207
10
-4.830129
20
-1.647083
10
-4.807376
20
-1.651818
10
-4.784926
20
-1.65628
10
-4.762782
20
-1.660477
10
-4.740946
20
-1.664412
10
-4.719422
20
-1.668093
10
-4.698213
20
-1.671525
10
-4.677321
20
-1.674714
10
-4.656748
20
-1.677666
10
-4.636498
20
-1.680387
10
-4.616572
20
-1.682883
10
-4.596974
20
-1.68516
10
-4.577705
20
-1.687224
10
-4.558768
20
-1.689081
10
-4.540164
20
-1.690738
10
-4.521896
20
-1.6922
10
-4.503966
20
-1.693474
10
-4.486376
20
-1.694565
10
-4.469127
20
-1.695481
10
-4.452221
20
-1.696226
10
-4.43566
20
-1.696808
10
-4.419446
20
-1.697232
10
-4.403579
20
-1.697506
10
-4.388061
20
-1.697634
10
-4.372894
20
-1.697624
10
-4.358079
20
-1.697481
10
-4.343616
20
-1.697212
10
-4.329507
20
-1.696823
10
-4.315753
20
-1.696321
10
-4.302355
20
-1.695712
10
-4.289313
20
-1.695002
10
-4.276629
20
-1.694198
10
-4.264302
20
-1.693305
10
-4.247459
20
-1.733276
10
-4.220406
20
-1.798147
10
-4.203858
20
-1.838241
10
-4.213167
20
-1.846371
10
-4.222664
20
-1.854818
10
-4.232346
20
-1.863584
10
-4.242207
20
-1.872675
10
-4.252242
20
-1.882094
10
-4.262447
20
-1.891845
10
-4.272815
20
-1.901932
10
-4.283342
20
-1.912358
10
-4.294022
20
-1.923127
10
-4.304851
20
-1.934242
10
-4.315822
20
-1.945708
10
-4.32693
20
-1.957527
10
-4.338171
20
-1.969703
10
-4.349538
20
-1.982239
10
-4.361025
20
-1.995139
10
-4.372628
20
-2.008405
10
-4.38434
20
-2.022041
10
-4.396156
20
-2.036049
10
-4.40807
20
-2.050433
10
-4.420077
20
-2.065195
10
-4.432169
20
-2.080338
10
-4.444343
20
-2.095865
10
-4.456591
20
-2.111779
10
-4.468907
20
-2.128081
10
-4.481287
20
-2.144776
10
-4.493723
20
-2.161864
10
-4.506209
20
-2.179348
10
-4.51874
20
-2.197231
10
-4.53131
20
-2.215515
10
-4.543911
20
-2.234201
10
-4.556538
20
-2.253292
10
-4.569185
20
-2.27279
10
-4.581845
20
-2.292697
10
-4.582637
20
-2.293954
10
-4.582736
20
-2.294112
10
-4.582785
20
-2.29419
10
-4.582809
20
-2.294229
10
-4.528735
20
-2.399205
10
-4.52869
20
-2.399209
10
-4.528597
20
-2.399214
10
-4.528411
20
-2.399225
10
-4.526928
20
-2.399311
10
-4.503369
20
-2.400561
10
-4.480152
20
-2.401585
10
-4.457276
20
-2.402388
10
-4.434746
20
-2.402978
10
-4.412562
20
-2.40336
10
-4.390726
20
-2.40354
10
-4.369241
20
-2.403525
10
-4.348108
20
-2.403322
10
-4.327328
20
-2.402935
10
-4.306903
20
-2.402373
10
-4.286835
20
-2.40164
10
-4.267126
20
-2.400744
10
-4.247775
20
-2.39969
10
-4.228785
20
-2.398486
10
-4.210157
20
-2.397137
10
-4.191891
20
-2.39565
10
-4.173989
20
-2.394031
10
-4.156451
20
-2.392286
10
-4.139279
20
-2.390423
10
-4.122472
20
-2.388447
10
-4.106032
20
-2.386365
10
-4.08996
20
-2.384183
10
-4.074255
20
-2.381907
10
-4.058917
20
-2.379544
10
-4.043948
20
-2.377101
10
-4.029348
20
-2.374584
10
-4.015115
20
-2.371999
10
-4.001252
20
-2.369352
10
-3.987756
20
-2.36665
10
-3.974629
20
-2.3639
10
-3.96187
20
-2.361107
10
-3.949479
20
-2.358278
10
-3.937455
20
-2.35542
10
-3.914419
20
-2.392171
10
-3.87731
20
-2.451862
10
-3.854545
20
-2.488783
10
-3.862429
20
-2.498301
10
-3.870448
20
-2.508161
10
-3.878598
20
-2.518367
10
-3.886873
20
-2.528922
10
-3.895268
20
-2.539829
10
-3.903776
20
-2.551091
10
-3.912392
20
-2.56271
10
-3.92111
20
-2.574689
10
-3.929924
20
-2.587032
10
-3.93883
20
-2.599741
10
-3.94782
20
-2.612818
10
-3.956888
20
-2.626266
10
-3.96603
20
-2.640088
10
-3.975239
20
-2.654285
10
-3.984508
20
-2.66886
10
-3.993833
20
-2.683815
10
-4.003206
20
-2.699153
10
-4.012622
20
-2.714876
10
-4.022074
20
-2.730984
10
-4.031557
20
-2.747481
10
-4.041064
20
-2.764368
10
-4.050589
20
-2.781647
10
-4.060126
20
-2.799319
10
-4.069668
20
-2.817386
10
-4.079209
20
-2.83585
10
-4.088743
20
-2.854712
10
-4.098263
20
-2.873973
10
-4.107763
20
-2.893634
10
-4.117237
20
-2.913697
10
-4.126677
20
-2.934163
10
-4.136079
20
-2.955033
10
-4.145434
20
-2.976307
10
-4.154737
20
-2.997987
10
-4.155317
20
-2.999355
10
-4.155389
20
-2.999526
10
-4.155425
20
-2.999612
10
-4.155442
20
-2.999654
10
-4.085229
20
-3.094597
10
-4.085184
20
-3.094593
10
-4.085092
20
-3.094583
10
-4.084907
20
-3.094564
10
-4.083429
20
-3.094411
10
-4.059975
20
-3.091865
10
-4.036894
20
-3.089152
10
-4.014186
20
-3.086275
10
-3.991852
20
-3.083243
10
-3.969894
20
-3.080061
10
-3.948312
20
-3.076737
10
-3.927108
20
-3.073276
10
-3.906281
20
-3.069685
10
-3.885832
20
-3.06597
10
-3.865762
20
-3.062138
10
-3.846072
20
-3.058196
10
-3.826761
20
-3.05415
10
-3.80783
20
-3.050006
10
-3.789279
20
-3.045771
10
-3.771108
20
-3.041451
10
-3.753318
20
-3.037053
10
-3.735907
20
-3.032584
10
-3.718876
20
-3.028049
10
-3.702225
20
-3.023455
10
-3.685953
20
-3.018808
10
-3.670061
20
-3.014116
10
-3.654546
20
-3.009384
10
-3.639409
20
-3.004618
10
-3.62465
20
-2.999826
10
-3.610266
20
-2.995013
10
-3.596259
20
-2.990186
10
-3.582625
20
-2.985352
10
-3.569366
20
-2.980515
10
-3.556479
20
-2.975684
10
-3.543963
20
-2.970863
10
-3.531817
20
-2.96606
10
-3.52004
20
-2.96128
10
-3.50863
20
-2.95653
10
-3.479997
20
-2.98911
10
-3.433793
20
-3.042075
10
-3.405401
20
-3.074866
10
-3.411656
20
-3.085525
10
-3.41799
20
-3.096545
10
-3.424397
20
-3.107926
10
-3.430872
20
-3.119672
10
-3.437408
20
-3.131784
10
-3.443999
20
-3.144264
10
-3.45064
20
-3.157115
10
-3.457323
20
-3.170338
10
-3.464044
20
-3.183935
10
-3.470795
20
-3.197908
10
-3.477571
20
-3.212257
10
-3.484365
20
-3.226986
10
-3.491171
20
-3.242095
10
-3.497983
20
-3.257586
10
-3.504795
20
-3.273459
10
-3.511599
20
-3.289717
10
-3.518391
20
-3.306359
10
-3.525163
20
-3.323388
10
-3.531909
20
-3.340805
10
-3.538623
20
-3.358609
10
-3.545298
20
-3.376803
10
-3.551928
20
-3.395386
10
-3.558506
20
-3.414359
10
-3.565026
20
-3.433723
10
-3.571482
20
-3.453478
10
-3.577867
20
-3.473625
10
-3.584174
20
-3.494163
10
-3.590397
20
-3.515094
10
-3.59653
20
-3.536417
10
-3.602565
20
-3.558132
10
-3.608497
20
-3.58024
10
-3.614319
20
-3.602739
10
-3.620024
20
-3.62563
10
-3.620376
20
-3.627074
10
-3.62042
20
-3.627254
10
-3.620442
20
-3.627345
10
-3.620452
20
-3.627389
10
-3.535918
20
-3.709839
10
-3.535874
20
-3.709828
10
-3.535785
20
-3.709804
10
-3.535605
20
-3.709755
10
-3.534171
20
-3.709367
10
-3.511429
20
-3.703092
10
-3.489082
20
-3.696711
10
-3.46713
20
-3.690229
10
-3.445572
20
-3.683654
10
-3.424409
20
-3.676991
10
-3.40364
20
-3.670248
10
-3.383265
20
-3.66343
10
-3.363283
20
-3.656545
10
-3.343696
20
-3.649598
10
-3.3245
20
-3.642596
10
-3.305697
20
-3.635547
10
-3.287285
20
-3.628455
10
-3.269264
20
-3.621328
10
-3.251633
20
-3.614172
10
-3.23439
20
-3.606994
10
-3.217536
20
-3.599799
10
-3.201067
20
-3.592594
10
-3.184985
20
-3.585386
10
-3.169286
20
-3.57818
10
-3.15397
20
-3.570984
10
-3.139036
20
-3.563803
10
-3.124482
20
-3.556643
10
-3.110305
20
-3.549512
10
-3.096505
20
-3.542414
10
-3.08308
20
-3.535356
10
-3.070028
20
-3.528345
10
-3.057347
20
-3.521386
10
-3.045035
20
-3.514485
10
-3.03309
20
-3.507649
10
-3.021509
20
-3.500883
10
-3.010291
20
-3.494193
10
-2.999434
20
-3.487586
10
-2.988934
20
-3.481067
10
-2.955445
20
-3.508633
10
-2.901343
20
-3.5535
10
-2.868058
20
-3.581312
10
-2.872522
20
-3.592837
10
-2.877007
20
-3.604729
10
-2.881506
20
-3.616991
10
-2.886012
20
-3.629623
10
-2.890521
20
-3.642627
10
-2.895025
20
-3.656003
10
-2.899518
20
-3.669753
10
-2.903994
20
-3.683877
10
-2.908446
20
-3.698376
10
-2.912869
20
-3.71325
10
-2.917255
20
-3.728501
10
-2.921598
20
-3.744129
10
-2.925893
20
-3.760134
10
-2.930132
20
-3.776517
10
-2.934309
20
-3.793277
10
-2.938417
20
-3.810416
10
-2.942451
20
-3.827932
10
-2.946404
20
-3.845827
10
-2.950269
20
-3.8641
10
-2.95404
20
-3.882751
10
-2.95771
20
-3.90178
10
-2.961273
20
-3.921185
10
-2.964723
20
-3.940968
10
-2.968052
20
-3.961127
10
-2.971256
20
-3.981662
10
-2.974326
20
-4.002572
10
-2.977257
20
-4.023857
10
-2.980042
20
-4.045515
10
-2.982674
20
-4.067545
10
-2.985148
20
-4.089947
10
-2.987457
20
-4.11272
10
-2.989594
20
-4.135862
10
-2.991553
20
-4.159372
10
-2.99167
20
-4.160853
10
-2.991684
20
-4.161039
10
-2.991691
20
-4.161131
10
-2.991694
20
-4.161177
10
-2.895029
20
-4.228999
10
-2.894987
20
-4.228981
10
-2.894903
20
-4.228943
10
-2.894734
20
-4.228866
10
-2.89338
20
-4.228252
10
-2.871939
20
-4.218411
10
-2.850905
20
-4.208528
10
-2.830277
20
-4.198609
10
-2.810053
20
-4.18866
10
-2.790232
20
-4.178689
10
-2.770814
20
-4.168701
10
-2.751797
20
-4.158703
10
-2.733179
20
-4.148702
10
-2.714959
20
-4.138703
10
-2.697135
20
-4.128713
10
-2.679707
20
-4.118738
10
-2.662671
20
-4.108785
10
-2.646026
20
-4.09886
10
-2.629771
20
-4.088968
10
-2.613903
20
-4.079117
10
-2.598421
20
-4.069311
10
-2.583322
20
-4.059558
10
-2.568604
20
-4.049864
10
-2.554264
20
-4.040233
10
-2.540301
20
-4.030673
10
-2.526712
20
-4.021189
10
-2.513495
20
-4.011788
10
-2.500646
20
-4.002474
10
-2.488163
20
-3.993255
10
-2.476044
20
-3.984135
10
-2.464286
20
-3.975121
10
-2.452885
20
-3.966218
10
-2.44184
20
-3.957431
10
-2.431146
20
-3.948767
10
-2.420801
20
-3.940232
10
-2.410801
20
-3.931829
10
-2.401144
20
-3.923566
10
-2.391825
20
-3.915447
10
-2.354348
20
-3.937283
10
-2.29375
20
-3.972892
10
-2.256435
20
-3.995004
10
-2.258992
20
-4.007095
10
-2.261511
20
-4.019553
10
-2.263985
20
-4.032378
10
-2.266407
20
-4.04557
10
-2.268771
20
-4.059128
10
-2.271071
20
-4.073054
10
-2.2733
20
-4.087346
10
-2.275453
20
-4.102005
10
-2.277521
20
-4.11703
10
-2.279501
20
-4.132422
10
-2.281384
20
-4.148179
10
-2.283164
20
-4.164301
10
-2.284835
20
-4.180787
10
-2.286391
20
-4.197638
10
-2.287826
20
-4.214851
10
-2.289132
20
-4.232427
10
-2.290304
20
-4.250364
10
-2.291335
20
-4.268661
10
-2.292218
20
-4.287318
10
-2.292949
20
-4.306332
10
-2.293519
20
-4.325703
10
-2.293923
20
-4.345429
10
-2.294155
20
-4.365509
10
-2.294207
20
-4.385941
10
-2.294075
20
-4.406724
10
-2.293751
20
-4.427856
10
-2.29323
20
-4.449334
10
-2.292505
20
-4.471159
10
-2.291569
20
-4.493326
10
-2.290418
20
-4.515835
10
-2.289044
20
-4.538683
10
-2.287441
20
-4.561868
10
-2.285603
20
-4.585388
10
-2.285481
20
-4.586869
10
-2.285465
20
-4.587054
10
-2.285457
20
-4.587147
10
-2.285453
20
-4.587192
10
-2.17916
20
-4.63863
10
-2.179122
20
-4.638605
10
-2.179045
20
-4.638554
10
-2.17889
20
-4.638451
10
-2.177652
20
-4.637628
10
-2.158068
20
-4.624475
10
-2.138891
20
-4.611346
10
-2.120121
20
-4.598246
10
-2.101755
20
-4.585182
10
-2.083791
20
-4.572161
10
-2.066226
20
-4.559187
10
-2.049059
20
-4.546269
10
-2.032286
20
-4.53341
10
-2.015906
20
-4.520618
10
-1.999916
20
-4.507898
10
-1.984313
20
-4.495257
10
-1.969094
20
-4.4827
10
-1.954258
20
-4.470233
10
-1.9398
20
-4.457862
10
-1.925718
20
-4.445593
10
-1.912009
20
-4.433431
10
-1.898669
20
-4.421382
10
-1.885697
20
-4.409452
10
-1.873088
20
-4.397646
10
-1.86084
20
-4.38597
10
-1.848948
20
-4.374429
10
-1.837409
20
-4.363029
10
-1.826221
20
-4.351775
10
-1.815379
20
-4.340673
10
-1.80488
20
-4.329727
10
-1.79472
20
-4.318943
10
-1.784895
20
-4.308327
10
-1.775402
20
-4.297882
10
-1.766236
20
-4.287615
10
-1.757394
20
-4.27753
10
-1.748872
20
-4.267633
10
-1.740665
20
-4.257927
10
-1.73277
20
-4.248419
10
-1.692275
20
-4.263961
10
-1.62675
20
-4.289387
10
-1.586371
20
-4.305227
10
-1.586956
20
-4.317572
10
-1.587443
20
-4.330273
10
-1.587828
20
-4.343329
10
-1.588102
20
-4.356738
10
-1.588261
20
-4.3705
10
-1.588297
20
-4.384614
10
-1.588205
20
-4.399079
10
-1.587978
20
-4.413893
10
-1.58761
20
-4.429056
10
-1.587095
20
-4.444565
10
-1.586426
20
-4.46042
10
-1.585597
20
-4.476619
10
-1.584602
20
-4.493161
10
-1.583435
20
-4.510043
10
-1.582089
20
-4.527263
10
-1.580559
20
-4.544821
10
-1.578838
20
-4.562714
10
-1.576921
20
-4.580939
10
-1.574801
20
-4.599496
10
-1.572471
20
-4.618381
10
-1.569927
20
-4.637592
10
-1.567161
20
-4.657128
10
-1.564169
20
-4.676985
10
-1.560944
20
-4.697161
10
-1.557479
20
-4.717653
10
-1.55377
20
-4.73846
10
-1.54981
20
-4.759577
10
-1.545593
20
-4.781002
10
-1.541114
20
-4.802733
10
-1.536367
20
-4.824765
10
-1.531345
20
-4.847097
10
-1.526044
20
-4.869725
10
-1.520457
20
-4.892645
10
-1.520099
20
-4.894087
10
-1.520054
20
-4.894267
10
-1.520031
20
-4.894358
10
-1.52002
20
-4.894401
10
-1.406852
20
-4.928123
10
-1.406818
20
-4.928092
10
-1.40675
20
-4.928029
10
-1.406614
20
-4.927903
10
-1.405524
20
-4.926892
10
-1.388303
20
-4.910768
10
-1.371481
20
-4.894732
10
-1.355056
20
-4.878791
10
-1.339023
20
-4.862951
10
-1.32338
20
-4.847216
10
-1.308124
20
-4.831593
10
-1.293251
20
-4.816088
10
-1.278759
20
-4.800705
10
-1.264643
20
-4.785451
10
-1.2509
20
-4.770331
10
-1.237527
20
-4.755351
10
-1.224519
20
-4.740515
10
-1.211875
20
-4.72583
10
-1.199588
20
-4.7113
10
-1.187657
20
-4.69693
10
-1.176076
20
-4.682727
10
-1.164843
20
-4.668694
10
-1.153952
20
-4.654838
10
-1.1434
20
-4.641162
10
-1.133183
20
-4.627672
10
-1.123297
20
-4.614374
10
-1.113736
20
-4.60127
10
-1.104498
20
-4.588367
10
-1.095578
20
-4.57567
10
-1.08697
20
-4.563181
10
-1.078672
20
-4.550907
10
-1.070677
20
-4.538852
10
-1.062982
20
-4.52702
10
-1.055582
20
-4.515416
10
-1.048472
20
-4.504043
10
-1.041648
20
-4.492907
10
-1.035104
20
-4.482011
10
-1.028837
20
-4.471359
10
-0.986373
20
-4.480204
10
-0.917618
20
-4.49479
10
-0.875221
20
-4.503948
10
-0.873818
20
-4.516227
10
-0.872262
20
-4.528841
10
-0.870547
20
-4.541789
10
-0.868667
20
-4.555069
10
-0.866616
20
-4.568678
10
-0.864388
20
-4.582615
10
-0.861976
20
-4.596878
10
-0.859376
20
-4.611464
10
-0.85658
20
-4.626371
10
-0.853584
20
-4.641597
10
-0.85038
20
-4.65714
10
-0.846963
20
-4.672996
10
-0.843328
20
-4.689163
10
-0.839468
20
-4.70564
10
-0.835377
20
-4.722421
10
-0.831051
20
-4.739506
10
-0.826482
20
-4.756891
10
-0.821666
20
-4.774573
10
-0.816596
20
-4.792549
10
-0.811268
20
-4.810816
10
-0.805675
20
-4.829371
10
-0.799811
20
-4.84821
10
-0.793672
20
-4.867329
10
-0.787252
20
-4.886727
10
-0.780545
20
-4.906398
10
-0.773547
20
-4.92634
10
-0.76625
20
-4.946548
10
-0.758651
20
-4.96702
10
-0.750744
20
-4.98775
10
-0.742524
20
-5.008736
10
-0.733986
20
-5.029973
10
-0.725123
20
-5.051458
10
-0.715932
20
-5.073185
10
-0.715347
20
-5.074551
10
-0.715274
20
-5.074722
10
-0.715237
20
-5.074807
10
-0.715219
20
-5.074849
10
-0.598107
20
-5.08998
10
-0.598079
20
-5.089944
10
-0.598022
20
-5.089871
10
-0.597907
20
-5.089724
10
-0.596994
20
-5.088552
10
-0.582583
20
-5.069874
10
-0.568551
20
-5.051348
10
-0.554895
20
-5.032979
10
-0.541611
20
-5.014771
10
-0.528695
20
-4.996731
10
-0.516142
20
-4.978863
10
-0.503949
20
-4.961173
10
-0.492112
20
-4.943665
10
-0.480625
20
-4.926344
10
-0.469486
20
-4.909215
10
-0.458689
20
-4.892284
10
-0.44823
20
-4.875554
10
-0.438105
20
-4.85903
10
-0.428308
20
-4.842717
10
-0.418836
20
-4.82662
10
-0.409684
20
-4.810743
10
-0.400847
20
-4.79509
10
-0.39232
20
-4.779666
10
-0.384099
20
-4.764475
10
-0.376178
20
-4.749521
10
-0.368553
20
-4.734808
10
-0.361218
20
-4.720341
10
-0.354169
20
-4.706123
10
-0.347401
20
-4.692159
10
-0.340908
20
-4.678452
10
-0.334686
20
-4.665005
10
-0.328729
20
-4.651824
10
-0.323032
20
-4.638911
10
-0.317589
20
-4.62627
10
-0.312396
20
-4.613904
10
-0.307446
20
-4.601817
10
-0.302735
20
-4.590012
10
-0.298257
20
-4.578493
10
-0.254925
20
-4.580412
10
-0.18472
20
-4.58378
10
-0.141403
20
-4.586018
10
-0.138048
20
-4.597913
10
-0.134489
20
-4.610114
10
-0.130719
20
-4.62262
10
-0.126734
20
-4.635426
10
-0.122526
20
-4.64853
10
-0.118091
20
-4.661929
10
-0.113423
20
-4.67562
10
-0.108516
20
-4.6896
10
-0.103366
20
-4.703866
10
-0.097965
20
-4.718414
10
-0.09231
20
-4.733242
10
-0.086394
20
-4.748344
10
-0.080212
20
-4.763719
10
-0.073759
20
-4.779363
10
-0.06703
20
-4.795271
10
-0.060019
20
-4.811441
10
-0.05272
20
-4.827868
10
-0.04513
20
-4.844548
10
-0.037243
20
-4.861478
10
-0.029053
20
-4.878654
10
-0.020556
20
-4.896071
10
-0.011746
20
-4.913725
10
-0.00262
20
-4.931613
10
0.006829
20
-4.949729
10
0.016604
20
-4.96807
10
0.026711
20
-4.986631
10
0.037155
20
-5.005407
10
0.047939
20
-5.024395
10
0.059069
20
-5.043588
10
0.070549
20
-5.062984
10
0.082384
20
-5.082576
10
0.094578
20
-5.102361
10
0.107135
20
-5.122332
10
0.107932
20
-5.123587
10
0.108031
20
-5.123743
10
0.108081
20
-5.123822
10
0.108106
20
-5.12386
10
0.226128
20
-5.120009
10
0.226151
20
-5.119969
10
0.226195
20
-5.119888
10
0.226285
20
-5.119725
10
0.226998
20
-5.118421
10
0.238227
20
-5.097674
10
0.249105
20
-5.077136
10
0.259637
20
-5.056814
10
0.269829
20
-5.036712
10
0.279684
20
-5.016833
10
0.289208
20
-4.997183
10
0.298405
20
-4.977766
10
0.307281
20
-4.958586
10
0.31584
20
-4.939647
10
0.324087
20
-4.920953
10
0.332028
20
-4.902509
10
0.339668
20
-4.884318
10
0.347012
20
-4.866384
10
0.354065
20
-4.848711
10
0.360832
20
-4.831303
10
0.367318
20
-4.814163
10
0.37353
20
-4.797295
10
0.379473
20
-4.780703
10
0.385151
20
-4.76439
10
0.39057
20
-4.748359
10
0.395737
20
-4.732614
10
0.400655
20
-4.717157
10
0.405332
20
-4.701993
10
0.409773
20
-4.687124
10
0.413983
20
-4.672552
10
0.417967
20
-4.658282
10
0.421733
20
-4.644316
10
0.425285
20
-4.630656
10
0.42863
20
-4.617306
10
0.431772
20
-4.604267
10
0.434719
20
-4.591542
10
0.437475
20
-4.579135
10
0.440047
20
-4.567046
10
0.483126
20
-4.561989
10
0.552962
20
-4.554052
10
0.596077
20
-4.549313
10
0.601296
20
-4.560516
10
0.606767
20
-4.571988
10
0.612494
20
-4.583727
10
0.618482
20
-4.595728
10
0.624737
20
-4.607987
10
0.631264
20
-4.620502
10
0.638068
20
-4.633267
10
0.645154
20
-4.646279
10
0.652526
20
-4.659533
10
0.66019
20
-4.673027
10
0.668151
20
-4.686755
10
0.676413
20
-4.700713
10
0.684981
20
-4.714897
10
0.693859
20
-4.729303
10
0.703054
20
-4.743926
10
0.712568
20
-4.758762
10
0.722407
20
-4.773805
10
0.732574
20
-4.789052
10
0.743076
20
-4.804497
10
0.753914
20
-4.820137
10
0.765095
20
-4.835965
10
0.776623
20
-4.851978
10
0.7885
20
-4.86817
10
0.800733
20
-4.884536
10
0.813324
20
-4.901071
10
0.826277
20
-4.91777
10
0.839597
20
-4.934628
10
0.853288
20
-4.95164
10
0.867352
20
-4.9688
10
0.881795
20
-4.986103
10
0.896619
20
-5.003543
10
0.911829
20
-5.021115
10
0.927427
20
-5.038814
10
0.928415
20
-5.039924
10
0.928539
20
-5.040063
10
0.928601
20
-5.040132
10
0.928631
20
-5.040166
10
1.044507
20
-5.017433
10
1.044523
20
-5.01739
10
1.044554
20
-5.017302
10
1.044616
20
-5.017127
10
1.045111
20
-5.015726
10
1.052866
20
-4.993446
10
1.060309
20
-4.971429
10
1.067445
20
-4.949681
10
1.07428
20
-4.928204
10
1.080819
20
-4.907002
10
1.087067
20
-4.886079
10
1.09303
20
-4.865438
10
1.098714
20
-4.845082
10
1.104125
20
-4.825015
10
1.109267
20
-4.805241
10
1.114146
20
-4.785761
10
1.118769
20
-4.76658
10
1.123141
20
-4.747701
10
1.127267
20
-4.729125
10
1.131154
20
-4.710857
10
1.134808
20
-4.692899
10
1.138233
20
-4.675253
10
1.141437
20
-4.657922
10
1.144425
20
-4.64091
10
1.147203
20
-4.624217
10
1.149777
20
-4.607847
10
1.152152
20
-4.591802
10
1.154336
20
-4.576083
10
1.156334
20
-4.560694
10
1.158152
20
-4.545637
10
1.159796
20
-4.530912
10
1.161272
20
-4.516522
10
1.162587
20
-4.50247
10
1.163747
20
-4.488756
10
1.164757
20
-4.475382
10
1.165624
20
-4.462349
10
1.166355
20
-4.44966
10
1.166955
20
-4.437316
10
1.208664
20
-4.425414
10
1.276323
20
-4.406377
10
1.318119
20
-4.394783
10
1.325068
20
-4.405003
10
1.332308
20
-4.41545
10
1.339844
20
-4.426118
10
1.34768
20
-4.437003
10
1.35582
20
-4.4481
10
1.36427
20
-4.459405
10
1.373033
20
-4.470914
10
1.382115
20
-4.482621
10
1.391518
20
-4.494521
10
1.401247
20
-4.50661
10
1.411307
20
-4.518884
10
1.421701
20
-4.531336
10
1.432433
20
-4.543962
10
1.443508
20
-4.556757
10
1.454929
20
-4.569716
10
1.466699
20
-4.582833
10
1.478824
20
-4.596103
10
1.491306
20
-4.609522
10
1.504148
20
-4.623083
10
1.517356
20
-4.636781
10
1.530931
20
-4.650611
10
1.544878
20
-4.664567
10
1.559199
20
-4.678644
10
1.573898
20
-4.692836
10
1.588978
20
-4.707137
10
1.604443
20
-4.721542
10
1.620295
20
-4.736045
10
1.636537
20
-4.750641
10
1.653172
20
-4.765322
10
1.670203
20
-4.780084
10
1.687633
20
-4.79492
10
1.705465
20
-4.809825
10
1.7237
20
-4.824793
10
1.724853
20
-4.82573
10
1.724997
20
-4.825847
10
1.725069
20
-4.825906
10
1.725105
20
-4.825934
10
1.835834
20
-4.784907
10
1.835843
20
-4.784863
10
1.835859
20
-4.784771
10
1.835892
20
-4.784589
10
1.836156
20
-4.783126
10
1.840237
20
-4.75989
10
1.844052
20
-4.736965
10
1.847607
20
-4.714354
10
1.850908
20
-4.692058
10
1.853961
20
-4.670082
10
1.856772
20
-4.648428
10
1.859347
20
-4.627097
10
1.861692
20
-4.606093
10
1.863813
20
-4.585419
10
1.865717
20
-4.565075
10
1.867409
20
-4.545065
10
1.868895
20
-4.525391
10
1.870181
20
-4.506055
10
1.871275
20
-4.487058
10
1.872181
20
-4.468403
10
1.872906
20
-4.450091
10
1.873457
20
-4.432124
10
1.873839
20
-4.414504
10
1.874059
20
-4.397232
10
1.874123
20
-4.38031
10
1.874038
20
-4.363739
10
1.873809
20
-4.347521
10
1.873443
20
-4.331656
10
1.872947
20
-4.316146
10
1.872325
20
-4.300991
10
1.871586
20
-4.286194
10
1.870735
20
-4.271754
10
1.869779
20
-4.257672
10
1.868724
20
-4.243949
10
1.867575
20
-4.230586
10
1.866341
20
-4.217584
10
1.865026
20
-4.204942
10
1.863638
20
-4.192661
10
1.902899
20
-4.174222
10
1.966627
20
-4.144579
10
2.006023
20
-4.126431
10
2.014521
20
-4.135404
10
2.023343
20
-4.144554
10
2.032492
20
-4.153875
10
2.041973
20
-4.163362
10
2.051788
20
-4.17301
10
2.061942
20
-4.182813
10
2.072438
20
-4.192767
10
2.083279
20
-4.202865
10
2.09447
20
-4.213103
10
2.106012
20
-4.223475
10
2.117911
20
-4.233976
10
2.130167
20
-4.2446
10
2.142786
20
-4.255341
10
2.15577
20
-4.266193
10
2.169122
20
-4.277152
10
2.182844
20
-4.288211
10
2.19694
20
-4.299365
10
2.211413
20
-4.310607
10
2.226265
20
-4.321933
10
2.241498
20
-4.333335
10
2.257116
20
-4.344808
10
2.273121
20
-4.356346
10
2.289515
20
-4.367944
10
2.3063
20
-4.379594
10
2.323479
20
-4.391291
10
2.341054
20
-4.403029
10
2.359027
20
-4.414801
10
2.3774
20
-4.426602
10
2.396175
20
-4.438425
10
2.415354
20
-4.450264
10
2.434938
20
-4.462112
10
2.454929
20
-4.473963
10
2.47533
20
-4.485812
10
2.476618
20
-4.486552
10
2.476779
20
-4.486645
10
2.47686
20
-4.486691
10
2.4769
20
-4.486713
10
2.579613
20
-4.428456
10
2.579615
20
-4.42841
10
2.579617
20
-4.428317
10
2.57962
20
-4.428132
10
2.579646
20
-4.426646
10
2.579946
20
-4.403056
10
2.580034
20
-4.379816
10
2.579916
20
-4.356927
10
2.579598
20
-4.334391
10
2.579086
20
-4.31221
10
2.578387
20
-4.290384
10
2.577508
20
-4.268917
10
2.576453
20
-4.247809
10
2.57523
20
-4.227062
10
2.573846
20
-4.206677
10
2.572306
20
-4.186655
10
2.570617
20
-4.166997
10
2.568785
20
-4.147704
10
2.566817
20
-4.128778
10
2.564719
20
-4.110219
10
2.562497
20
-4.092028
10
2.560159
20
-4.074206
10
2.55771
20
-4.056752
10
2.555156
20
-4.039669
10
2.552505
20
-4.022956
10
2.549763
20
-4.006613
10
2.546935
20
-3.990641
10
2.544029
20
-3.975041
10
2.541051
20
-3.959811
10
2.538007
20
-3.944952
10
2.534904
20
-3.930465
10
2.531747
20
-3.916348
10
2.528544
20
-3.902602
10
2.525301
20
-3.889227
10
2.522025
20
-3.876221
10
2.51872
20
-3.863585
10
2.515395
20
-3.851318
10
2.512055
20
-3.839419
10
2.547849
20
-3.814921
10
2.605997
20
-3.775438
10
2.641971
20
-3.751206
10
2.651799
20
-3.7587
10
2.661974
20
-3.766316
10
2.6725
20
-3.774048
10
2.68338
20
-3.781892
10
2.694616
20
-3.78984
10
2.706211
20
-3.797888
10
2.718168
20
-3.806029
10
2.730489
20
-3.814258
10
2.743176
20
-3.822568
10
2.756233
20
-3.830954
10
2.769662
20
-3.83941
10
2.783464
20
-3.84793
10
2.797642
20
-3.856508
10
2.812199
20
-3.865137
10
2.827136
20
-3.873813
10
2.842454
20
-3.882527
10
2.858157
20
-3.891275
10
2.874246
20
-3.900051
10
2.890722
20
-3.908847
10
2.907587
20
-3.917658
10
2.924843
20
-3.926477
10
2.942492
20
-3.935299
10
2.960534
20
-3.944116
10
2.978971
20
-3.952923
10
2.997804
20
-3.961713
10
3.017034
20
-3.970479
10
3.036663
20
-3.979216
10
3.056691
20
-3.987917
10
3.077119
20
-3.996575
10
3.097948
20
-4.005184
10
3.119179
20
-4.013737
10
3.140813
20
-4.022228
10
3.16285
20
-4.030651
10
3.16424
20
-4.031175
10
3.164414
20
-4.031241
10
3.164501
20
-4.031273
10
3.164544
20
-4.031289
10
3.256582
20
-3.957309
10
3.256577
20
-3.957264
10
3.256563
20
-3.957172
10
3.256537
20
-3.956988
10
3.256324
20
-3.955517
10
3.252837
20
-3.932185
10
3.249196
20
-3.909232
10
3.245407
20
-3.886658
10
3.241478
20
-3.864465
10
3.237415
20
-3.842653
10
3.233224
20
-3.821223
10
3.228912
20
-3.800175
10
3.224485
20
-3.779509
10
3.21995
20
-3.759227
10
3.215314
20
-3.739327
10
3.210582
20
-3.719812
10
3.205761
20
-3.700679
10
3.200858
20
-3.681931
10
3.19588
20
-3.663565
10
3.190832
20
-3.645583
10
3.185721
20
-3.627984
10
3.180554
20
-3.610767
10
3.175337
20
-3.593933
10
3.170076
20
-3.57748
10
3.164778
20
-3.561409
10
3.15945
20
-3.545718
10
3.154097
20
-3.530407
10
3.148726
20
-3.515474
10
3.143343
20
-3.500919
10
3.137955
20
-3.486741
10
3.132568
20
-3.472939
10
3.127188
20
-3.459512
10
3.121822
20
-3.446458
10
3.116475
20
-3.433776
10
3.111155
20
-3.421464
10
3.105866
20
-3.409522
10
3.100616
20
-3.397947
10
3.09541
20
-3.386737
10
3.126811
20
-3.356815
10
3.177873
20
-3.308516
10
3.209494
20
-3.278827
10
3.220397
20
-3.284647
10
3.231662
20
-3.290532
10
3.243292
20
-3.296476
10
3.255289
20
-3.302473
10
3.267654
20
-3.308516
10
3.28039
20
-3.314599
10
3.293498
20
-3.320717
10
3.306979
20
-3.326863
10
3.320836
20
-3.33303
10
3.335069
20
-3.339213
10
3.34968
20
-3.345406
10
3.36467
20
-3.351601
10
3.380041
20
-3.357794
10
3.395793
20
-3.363976
10
3.411928
20
-3.370143
10
3.428446
20
-3.376288
10
3.445349
20
-3.382404
10
3.462637
20
-3.388485
10
3.480311
20
-3.394524
10
3.498371
20
-3.400515
10
3.516819
20
-3.406452
10
3.535654
20
-3.412329
10
3.554876
20
-3.418138
10
3.574487
20
-3.423873
10
3.594486
20
-3.429528
10
3.614874
20
-3.435096
10
3.63565
20
-3.440571
10
3.656814
20
-3.445947
10
3.678367
20
-3.451216
10
3.700307
20
-3.456372
10
3.722636
20
-3.461409
10
3.745351
20
-3.46632
10
3.768453
20
-3.471098
10
3.76991
20
-3.471393
10
3.770092
20
-3.471429
10
3.770183
20
-3.471448
10
3.770228
20
-3.471456
10
3.849208
20
-3.383671
10
3.849195
20
-3.383627
10
3.849167
20
-3.383538
10
3.849111
20
-3.383361
10
3.848665
20
-3.381943
10
3.84148
20
-3.359473
10
3.834204
20
-3.337401
10
3.826844
20
-3.315727
10
3.819406
20
-3.294452
10
3.811896
20
-3.273574
10
3.804322
20
-3.253093
10
3.796689
20
-3.233009
10
3.789005
20
-3.213322
10
3.781275
20
-3.194029
10
3.773506
20
-3.175132
10
3.765705
20
-3.156627
10
3.757878
20
-3.138516
10
3.750031
20
-3.120797
10
3.742171
20
-3.103468
10
3.734304
20
-3.086528
10
3.726436
20
-3.069977
10
3.718574
20
-3.053812
10
3.710725
20
-3.038033
10
3.702893
20
-3.022637
10
3.695086
20
-3.007624
10
3.687309
20
-2.99299
10
3.679569
20
-2.978736
10
3.671872
20
-2.964858
10
3.664225
20
-2.951356
10
3.656632
20
-2.938226
10
3.649101
20
-2.925466
10
3.641637
20
-2.913076
10
3.634246
20
-2.901052
10
3.626934
20
-2.889391
10
3.619708
20
-2.878093
10
3.612572
20
-2.867153
10
3.605533
20
-2.85657
10
3.598597
20
-2.846341
10
3.624791
20
-2.811769
10
3.667444
20
-2.755905
10
3.693893
20
-2.721528
10
3.705588
20
-2.725524
10
3.717651
20
-2.729526
10
3.730084
20
-2.733527
10
3.742888
20
-2.737522
10
3.756062
20
-2.741503
10
3.769609
20
-2.745465
10
3.783529
20
-2.7494
10
3.797821
20
-2.753304
10
3.812488
20
-2.757169
10
3.827528
20
-2.760989
10
3.842943
20
-2.764757
10
3.858733
20
-2.768468
10
3.874898
20
-2.772115
10
3.891438
20
-2.77569
10
3.908354
20
-2.779189
10
3.925644
20
-2.782604
10
3.943309
20
-2.78593
10
3.961348
20
-2.789158
10
3.979762
20
-2.792285
10
3.998549
20
-2.795301
10
4.01771
20
-2.798202
10
4.037244
20
-2.800981
10
4.057149
20
-2.803631
10
4.077426
20
-2.806147
10
4.098074
20
-2.80852
10
4.11909
20
-2.810746
10
4.140476
20
-2.812818
10
4.162228
20
-2.814728
10
4.184347
20
-2.816472
10
4.20683
20
-2.818042
10
4.229677
20
-2.819432
10
4.252887
20
-2.820635
10
4.276456
20
-2.821646
10
4.277941
20
-2.821703
10
4.278127
20
-2.82171
10
4.27822
20
-2.821713
10
4.278265
20
-2.821714
10
4.34214
20
-2.722397
10
4.342121
20
-2.722356
10
4.342079
20
-2.722273
10
4.341995
20
-2.722107
10
4.341328
20
-2.720779
10
4.330631
20
-2.699752
10
4.319909
20
-2.679133
10
4.309167
20
-2.65892
10
4.298413
20
-2.639114
10
4.287651
20
-2.619711
10
4.27689
20
-2.60071
10
4.266134
20
-2.582111
10
4.255391
20
-2.563911
10
4.244667
20
-2.546108
10
4.233967
20
-2.528701
10
4.223299
20
-2.511688
10
4.212668
20
-2.495067
10
4.20208
20
-2.478836
10
4.191542
20
-2.462992
10
4.18106
20
-2.447534
10
4.170639
20
-2.432459
10
4.160286
20
-2.417765
10
4.150006
20
-2.403449
10
4.139806
20
-2.389509
10
4.129692
20
-2.375942
10
4.119669
20
-2.362746
10
4.109743
20
-2.349918
10
4.099919
20
-2.337454
10
4.090205
20
-2.325353
10
4.080604
20
-2.313611
10
4.071124
20
-2.302225
10
4.061769
20
-2.291193
10
4.052545
20
-2.28051
10
4.043457
20
-2.270173
10
4.034512
20
-2.26018
10
4.025714
20
-2.250527
10
4.017068
20
-2.24121
10
4.008581
20
-2.232226
10
4.02889
20
-2.1939
10
4.06203
20
-2.131918
10
4.082621
20
-2.093742
10
4.094806
20
-2.095811
10
4.107355
20
-2.097826
10
4.120269
20
-2.099781
10
4.133548
20
-2.10167
10
4.14719
20
-2.103486
10
4.161197
20
-2.105224
10
4.175568
20
-2.106876
10
4.190301
20
-2.108436
10
4.205398
20
-2.109898
10
4.220856
20
-2.111256
10
4.236677
20
-2.112503
10
4.252857
20
-2.113633
10
4.269398
20
-2.114639
10
4.286297
20
-2.115515
10
4.303555
20
-2.116255
10
4.321169
20
-2.116853
10
4.339138
20
-2.117301
10
4.357462
20
-2.117595
10
4.376139
20
-2.117726
10
4.395167
20
-2.11769
10
4.414545
20
-2.11748
10
4.434272
20
-2.11709
10
4.454345
20
-2.116513
10
4.474762
20
-2.115743
10
4.495523
20
-2.114774
10
4.516625
20
-2.113599
10
4.538065
20
-2.112213
10
4.559842
20
-2.11061
10
4.581954
20
-2.108783
10
4.604399
20
-2.106726
10
4.627173
20
-2.104433
10
4.650275
20
-2.101898
10
4.673701
20
-2.099115
10
4.675176
20
-2.098932
10
4.675361
20
-2.09891
10
4.675453
20
-2.098898
10
4.675498
20
-2.098892
10
4.722614
20
-1.990614
10
4.722588
20
-1.990577
10
4.722533
20
-1.990502
10
4.722424
20
-1.990351
10
4.721552
20
-1.989148
10
4.707621
20
-1.970109
10
4.69373
20
-1.951477
10
4.679886
20
-1.933249
10
4.666093
20
-1.915424
10
4.652359
20
-1.897999
10
4.638688
20
-1.88097
10
4.625089
20
-1.864337
10
4.611565
20
-1.848096
10
4.598124
20
-1.832244
10
4.584771
20
-1.816779
10
4.571512
20
-1.801698
10
4.558352
20
-1.786997
10
4.545298
20
-1.772675
10
4.532355
20
-1.758726
10
4.519528
20
-1.74515
10
4.506824
20
-1.731942
10
4.494248
20
-1.719099
10
4.481805
20
-1.706617
10
4.469501
20
-1.694494
10
4.457341
20
-1.682725
10
4.445331
20
-1.671308
10
4.433476
20
-1.660238
10
4.42178
20
-1.649512
10
4.41025
20
-1.639126
10
4.398891
20
-1.629076
10
4.387707
20
-1.619358
10
4.376703
20
-1.609969
10
4.365885
20
-1.600904
10
4.355257
20
-1.592159
10
4.344824
20
-1.58373
10
4.334592
20
-1.575613
10
4.324564
20
-1.567804
10
4.314745
20
-1.560298
10
4.328644
20
-1.51921
10
4.351411
20
-1.452714
10
4.365612
20
-1.411731
10
4.377971
20
-1.411818
10
4.390681
20
-1.411794
10
4.403742
20
-1.411652
10
4.417151
20
-1.411386
10
4.430908
20
-1.410991
10
4.445012
20
-1.410459
10
4.459462
20
-1.409784
10
4.474255
20
-1.408961
10
4.489391
20
-1.407982
10
4.504867
20
-1.406843
10
4.520682
20
-1.405536
10
4.536834
20
-1.404055
10
4.553322
20
-1.402395
10
4.570143
20
-1.400549
10
4.587296
20
-1.398512
10
4.604778
20
-1.396276
10
4.622587
20
-1.393836
10
4.64072
20
-1.391186
10
4.659176
20
-1.38832
10
4.677952
20
-1.385233
10
4.697046
20
-1.381917
10
4.716454
20
-1.378367
10
4.736174
20
-1.374577
10
4.756204
20
-1.370542
10
4.776541
20
-1.366255
10
4.797181
20
-1.361711
10
4.818121
20
-1.356904
10
4.839359
20
-1.351828
10
4.860892
20
-1.346478
10
4.882716
20
-1.340847
10
4.904827
20
-1.33493
10
4.927223
20
-1.328722
10
4.9499
20
-1.322217
10
4.951326
20
-1.321801
10
4.951505
20
-1.321749
10
4.951594
20
-1.321723
10
4.951637
20
-1.321709
10
4.980774
20
-1.207276
10
4.980743
20
-1.207243
10
4.980677
20
-1.207177
10
4.980545
20
-1.207046
10
4.979491
20
-1.205998
10
4.962687
20
-1.189441
10
4.945987
20
-1.173278
10
4.929397
20
-1.157508
10
4.912924
20
-1.142126
10
4.896572
20
-1.127129
10
4.880348
20
-1.112514
10
4.864256
20
-1.098278
10
4.848302
20
-1.084417
10
4.832492
20
-1.070926
10
4.816831
20
-1.057803
10
4.801324
20
-1.045044
10
4.785977
20
-1.032645
10
4.770794
20
-1.020602
10
4.755781
20
-1.008911
10
4.740943
20
-0.997567
10
4.726285
20
-0.986568
10
4.711811
20
-0.975909
10
4.697528
20
-0.965585
10
4.683438
20
-0.955592
10
4.669548
20
-0.945926
10
4.655862
20
-0.936583
10
4.642384
20
-0.927559
10
4.62912
20
-0.918847
10
4.616073
20
-0.910445
10
4.603248
20
-0.902348
10
4.59065
20
-0.89455
10
4.578283
20
-0.887048
10
4.566151
20
-0.879835
10
4.554258
20
-0.872909
10
4.542608
20
-0.866263
10
4.531206
20
-0.859892
10
4.520055
20
-0.853793
10
4.50916
20
-0.847959
10
4.516287
20
-0.805174
10
4.528093
20
-0.735887
10
4.535536
20
-0.693156
10
4.547749
20
-0.691259
10
4.560291
20
-0.689196
10
4.573159
20
-0.686961
10
4.586352
20
-0.684548
10
4.599868
20
-0.681951
10
4.613704
20
-0.679163
10
4.627858
20
-0.67618
10
4.642328
20
-0.672994
10
4.65711
20
-0.669601
10
4.672203
20
-0.665993
10
4.687604
20
-0.662166
10
4.70331
20
-0.658114
10
4.719318
20
-0.65383
10
4.735625
20
-0.64931
10
4.752229
20
-0.644547
10
4.769126
20
-0.639536
10
4.786312
20
-0.634271
10
4.803786
20
-0.628747
10
4.821543
20
-0.622958
10
4.839581
20
-0.616898
10
4.857895
20
-0.610562
10
4.876483
20
-0.603945
10
4.89534
20
-0.597041
10
4.914463
20
-0.589845
10
4.933848
20
-0.582352
10
4.953492
20
-0.574555
10
4.973391
20
-0.566451
10
4.993539
20
-0.558034
10
5.013935
20
-0.549299
10
5.034573
20
-0.540241
10
5.055449
20
-0.530854
10
5.076559
20
-0.521134
10
5.097898
20
-0.511075
10
5.09924
20
-0.510435
10
5.099407
20
-0.510355
10
5.099491
20
-0.510315
10
5.099532
20
-0.510295
10
5.109935
20
-0.392669
10
5.109899
20
-0.392642
10
5.109823
20
-0.392588
10
5.109672
20
-0.39248
10
5.108464
20
-0.391614
10
5.089221
20
-0.377967
10
5.070145
20
-0.364692
10
5.05124
20
-0.351787
10
5.032513
20
-0.339247
10
5.013967
20
-0.327068
10
4.995608
20
-0.315245
10
4.977441
20
-0.303774
10
4.959471
20
-0.292651
10
4.941701
20
-0.281872
10
4.924138
20
-0.271431
10
4.906785
20
-0.261325
10
4.889648
20
-0.251548
10
4.87273
20
-0.242096
10
4.856036
20
-0.232964
10
4.83957
20
-0.224148
10
4.823337
20
-0.215643
10
4.807341
20
-0.207443
10
4.791587
20
-0.199544
10
4.776077
20
-0.191941
10
4.760816
20
-0.184629
10
4.745808
20
-0.177602
10
4.731058
20
-0.170856
10
4.716567
20
-0.164386
10
4.702342
20
-0.158185
10
4.688384
20
-0.15225
10
4.674699
20
-0.146574
10
4.661288
20
-0.141152
10
4.648156
20
-0.13598
10
4.635306
20
-0.13105
10
4.622741
20
-0.126359
10
4.610464
20
-0.1219
10
4.59848
20
-0.117668
10
4.586789
20
-0.113658
10
4.586962
20
-0.070284
8
gear
0
LWPOLYLINE
5
1004
100
AcDbEntity
100
AcDbPolyline
90
5
70
0
43
0
10
3.656831
20
2.238357
10
3.64108
20
2.263889
10
3.62515
20
2.28931
10
3.609043
20
2.314619
10
3.592759
20
2.339815
8
gear_texts
0
LWPOLYLINE
5
1005
100
AcDbEntity
100
AcDbPolyline
90
2
70
0
43
0
10
3.574419
20
2.257273
10
3.675881
20
2.321347
8
gear_texts
0
LWPOLYLINE
5
1006
100
AcDbEntity
100
AcDbPolyline
90
5
70
0
43
0
10
3.708006
20
2.269681
10
3.666557
20
2.27973
10
3.62515
20
2.28931
10
3.58379
20
2.298424
10
3.542482
20
2.307072
8
gear_texts
0
LWPOLYLINE
5
1007
100
AcDbEntity
100
AcDbPolyline
90
5
70
0
43
0
10
3.605657
20
2.207033
10
3.615603
20
2.248048
10
3.62515
20
2.28931
10
3.634296
20
2.330815
10
3.643037
20
2.372559
8
gear_texts
0
LWPOLYLINE
5
1008
100
AcDbEntity
100
AcDbPolyline
90
9
70
0
43
0
10
3.680649
20
2.079563
10
3.639993
20
2.090325
10
3.625277
20
2.115743
10
3.636189
20
2.15636
10
3.739404
20
2.21757
10
3.780739
20
2.206472
10
3.796085
20
2.179964
10
3.785126
20
2.138592
10
3.680649
20
2.079563
8
gear_texts
0
LWPOLYLINE
5
1009
100
AcDbEntity
100
AcDbPolyline
90
7
70
0
43
0
10
3.965537
20
1.85392
10
3.802477
20
1.777688
10
3.830576
20
1.823594
10
3.858217
20
1.869978
10
3.885394
20
1.916838
10
3.912103
20
1.964168
10
3.75124
20
1.883403
8
gear_texts
0
LWPOLYLINE
5
1010
100
AcDbEntity
100
AcDbPolyline
90
5
70
0
43
0
10
3.98448
20
1.662745
10
3.972749
20
1.690584
10
3.960822
20
1.71834
10
3.948702
20
1.746012
10
3.936388
20
1.773599
8
gear_texts
0
LWPOLYLINE
5
1011
100
AcDbEntity
100
AcDbPolyline
90
5
70
0
43
0
10
3.929108
20
1.639638
10
3.91754
20
1.66709
10
3.905779
20
1.694461
10
3.893827
20
1.721748
10
3.881685
20
1.748951
8
gear_texts
0
LWPOLYLINE
5
1012
100
AcDbEntity
100
AcDbPolyline
90
13
70
0
43
0
10
4.035203
20
1.61799
10
4.074348
20
1.600686
10
4.085448
20
1.572138
10
4.096349
20
1.543514
10
4.078902
20
1.504432
10
4.050755
20
1.494051
10
4.012129
20
1.51178
10
3.994462
20
1.473288
10
3.966316
20
1.462907
10
3.927909
20
1.480045
10
3.917457
20
1.507493
10
3.906813
20
1.534866
10
3.923823
20
1.57333
8
gear_texts
0
LWPOLYLINE
5
1013
100
AcDbEntity
100
AcDbPolyline
90
2
70
0
43
0
10
4.001453
20
1.539815
10
4.012129
20
1.51178
8
gear_texts
0
LWPOLYLINE
5
1014
100
AcDbEntity
100
AcDbPolyline
90
14
70
0
43
0
10
4.081334
20
1.313533
10
4.072043
20
1.342058
10
4.062553
20
1.370517
10
4.052864
20
1.398909
10
4.071266
20
1.43722
10
4.099555
20
1.447206
10
4.137939
20
1.428274
10
4.147831
20
1.399286
10
4.157521
20
1.370229
10
4.138449
20
1.331914
10
4.052777
20
1.304342
10
4.015059
20
1.323277
10
3.977275
20
1.341748
10
3.96779
20
1.369544
8
gear_texts
0
LWPOLYLINE
5
1015
100
AcDbEntity
100
AcDbPolyline
90
11
70
0
43
0
10
4.14075
20
1.112135
10
4.14843
20
1.083135
10
4.155908
20
1.054082
10
4.163181
20
1.024977
10
4.199431
20
1.00279
10
4.22861
20
1.009758
10
4.250572
20
1.046493
10
4.243145
20
1.076208
10
4.235511
20
1.105871
10
4.22767
20
1.13548
10
4.053831
20
1.08879
8
gear_texts
0
LWPOLYLINE
5
1016
100
AcDbEntity
100
AcDbPolyline
90
2
70
0
43
0
10
4.095955
20
0.917691
10
4.213052
20
0.943926
8
gear_texts
0
LWPOLYLINE
5
1017
100
AcDbEntity
100
AcDbPolyline
90
2
70
0
43
0
10
4.242327
20
0.950485
10
4.271601
20
0.957044
8
gear_texts
0
LWPOLYLINE
5
1018
100
AcDbEntity
100
AcDbPolyline
90
4
70
0
43
0
10
4.160386
20
0.750299
10
4.125548
20
0.77386
10
4.149479
20
0.808444
10
4.29671
20
0.83713
8
gear_texts
0
LWPOLYLINE
5
1019
100
AcDbEntity
100
AcDbPolyline
90
5
70
0
43
0
10
4.248957
20
0.766272
10
4.243491
20
0.795983
10
4.237818
20
0.825655
10
4.231937
20
0.855287
10
4.225849
20
0.884877
8
gear_texts
0
LWPOLYLINE
5
1020
100
AcDbEntity
100
AcDbPolyline
90
10
70
0
43
0
10
4.158489
20
0.570945
10
4.154392
20
0.600028
10
4.150092
20
0.629082
10
4.145589
20
0.658104
10
4.170478
20
0.692006
10
4.229668
20
0.701827
10
4.264105
20
0.676919
10
4.268737
20
0.647066
10
4.27316
20
0.617182
10
4.277373
20
0.587267
8
gear_texts
0
LWPOLYLINE
5
1021
100
AcDbEntity
100
AcDbPolyline
90
6
70
0
43
0
10
4.225622
20
0.520025
10
4.258957
20
0.493901
10
4.292133
20
0.467336
10
4.295298
20
0.437293
10
4.268386
20
0.404398
10
4.178787
20
0.395909
8
gear_texts
0
LWPOLYLINE
5
1022
100
AcDbEntity
100
AcDbPolyline
90
2
70
0
43
0
10
4.166071
20
0.512696
10
4.344723
20
0.534682
8
gear_texts
0
LWPOLYLINE
5
1023
100
AcDbEntity
100
AcDbPolyline
90
10
70
0
43
0
10
4.193159
20
0.190841
10
4.194392
20
0.161497
10
4.195419
20
0.132144
10
4.196241
20
0.102786
10
4.226853
20
0.073947
10
4.346835
20
0.076046
10
4.376187
20
0.107193
10
4.37533
20
0.137811
10
4.374259
20
0.168422
10
4.372973
20
0.199025
8
gear_texts
0
LWPOLYLINE
5
1024
100
AcDbEntity
100
AcDbPolyline
90
2
70
0
43
0
10
4.374259
20
0.168422
10
4.194392
20
0.161497
8
gear_texts
0
LWPOLYLINE
5
1025
100
AcDbEntity
100
AcDbPolyline
90
5
70
0
43
0
10
4.316205
20
-0.105724
10
4.316839
20
-0.075521
10
4.317262
20
-0.045314
10
4.317474
20
-0.015105
10
4.317474
20
0.015105
8
gear_texts
0
LWPOLYLINE
5
1026
100
AcDbEntity
100
AcDbPolyline
90
5
70
0
43
0
10
4.256223
20
-0.104255
10
4.256849
20
-0.074471
10
4.257266
20
-0.044684
10
4.257474
20
-0.014895
10
4.257474
20
0.014895
8
gear_texts
0
LWPOLYLINE
5
1027
100
AcDbEntity
100
AcDbPolyline
90
14
70
0
43
0
10
4.278031
20
-0.28479
10
4.279919
20
-0.25485
10
4.281598
20
-0.224897
10
4.283066
20
-0.194933
10
4.314303
20
-0.166114
10
4.344281
20
-0.167268
10
4.372973
20
-0.199025
10
4.371474
20
-0.229618
10
4.36976
20
-0.260199
10
4.337899
20
-0.288776
10
4.248097
20
-0.282797
10
4.220025
20
-0.251283
10
4.191721
20
-0.220176
10
4.193159
20
-0.190841
8
gear_texts
0
LWPOLYLINE
5
1028
100
AcDbEntity
100
AcDbPolyline
90
2
70
0
43
0
10
4.213821
20
-0.339805
10
4.183918
20
-0.337394
8
gear_texts
0
LWPOLYLINE
5
1029
100
AcDbEntity
100
AcDbPolyline
90
7
70
0
43
0
10
4.357985
20
-0.412887
10
4.354989
20
-0.44337
10
4.35178
20
-0.473831
10
4.348358
20
-0.504269
10
4.344723
20
-0.534682
10
4.258957
20
-0.493901
10
4.172838
20
-0.454347
8
gear_texts
0
LWPOLYLINE
5
1030
100
AcDbEntity
100
AcDbPolyline
90
15
70
0
43
0
10
4.318454
20
-0.71656
10
4.323362
20
-0.686326
10
4.328059
20
-0.656058
10
4.332543
20
-0.625759
10
4.336816
20
-0.595428
10
4.277373
20
-0.587267
10
4.27316
20
-0.617182
10
4.268737
20
-0.647066
10
4.264105
20
-0.676919
10
4.229668
20
-0.701827
10
4.170478
20
-0.692006
10
4.145589
20
-0.658104
10
4.150092
20
-0.629082
10
4.154392
20
-0.600028
10
4.18821
20
-0.575025
8
gear_texts
0
LWPOLYLINE
5
1031
100
AcDbEntity
100
AcDbPolyline
90
11
70
0
43
0
10
4.190234
20
-0.90807
10
4.183778
20
-0.937367
10
4.177117
20
-0.966618
10
4.170251
20
-0.995822
10
4.192311
20
-1.032149
10
4.221442
20
-1.039321
10
4.25779
20
-1.016726
10
4.2648
20
-0.986909
10
4.271601
20
-0.957044
10
4.278193
20
-0.927132
10
4.102276
20
-0.889009
8
gear_texts
0
LWPOLYLINE
5
1032
100
AcDbEntity
100
AcDbPolyline
90
5
70
0
43
0
10
4.145298
20
-1.207191
10
4.153643
20
-1.178157
10
4.161785
20
-1.149065
10
4.169723
20
-1.119917
10
4.177457
20
-1.090714
8
gear_texts
0
LWPOLYLINE
5
1033
100
AcDbEntity
100
AcDbPolyline
90
5
70
0
43
0
10
4.087691
20
-1.190415
10
4.09592
20
-1.161784
10
4.103949
20
-1.133097
10
4.111777
20
-1.104354
10
4.119403
20
-1.075556
8
gear_texts
0
LWPOLYLINE
5
1034
100
AcDbEntity
100
AcDbPolyline
90
9
70
0
43
0
10
4.034127
20
-1.360927
10
4.043551
20
-1.332667
10
4.052777
20
-1.304342
10
4.061804
20
-1.275952
10
4.070632
20
-1.247501
10
4.099965
20
-1.28794
10
4.12893
20
-1.328851
10
4.157521
20
-1.370229
10
3.986566
20
-1.313886
8
gear_texts
0
LWPOLYLINE
5
1035
100
AcDbEntity
100
AcDbPolyline
90
11
70
0
43
0
10
3.990581
20
-1.567776
10
3.979513
20
-1.59566
10
3.968251
20
-1.623466
10
3.956794
20
-1.651192
10
3.972749
20
-1.690584
10
4.000353
20
-1.702331
10
4.039852
20
-1.685852
10
4.05155
20
-1.657544
10
4.063048
20
-1.629155
10
4.074348
20
-1.600686
10
3.906813
20
-1.534866
8
gear_texts
0
LWPOLYLINE
5
1036
100
AcDbEntity
100
AcDbPolyline
90
7
70
0
43
0
10
3.838952
20
-1.697484
10
3.893827
20
-1.721748
10
3.936388
20
-1.773599
10
3.978412
20
-1.826128
10
3.911184
20
-1.82851
10
3.84412
20
-1.830041
10
3.789945
20
-1.804251
8
gear_texts
0
LWPOLYLINE
5
1037
100
AcDbEntity
100
AcDbPolyline
90
5
70
0
43
0
10
3.893827
20
-1.721748
10
3.881685
20
-1.748951
10
3.869352
20
-1.776068
10
3.85683
20
-1.803099
10
3.84412
20
-1.830041
8
gear_texts
0
LWPOLYLINE
5
1038
100
AcDbEntity
100
AcDbPolyline
90
5
70
0
43
0
10
3.816969
20
-2.017808
10
3.830995
20
-1.991051
10
3.844832
20
-1.964197
10
3.858482
20
-1.937247
10
3.871942
20
-1.910201
8
gear_texts
0
LWPOLYLINE
5
1039
100
AcDbEntity
100
AcDbPolyline
90
5
70
0
43
0
10
3.763925
20
-1.989767
10
3.777756
20
-1.963382
10
3.791401
20
-1.936901
10
3.804861
20
-1.910325
10
3.818134
20
-1.883655
8
gear_texts
0
LWPOLYLINE
5
1040
100
AcDbEntity
100
AcDbPolyline
90
15
70
0
43
0
10
3.625277
20
-2.115743
10
3.639993
20
-2.090325
10
3.654529
20
-2.064805
10
3.668888
20
-2.039184
10
3.683066
20
-2.013463
10
3.735713
20
-2.042243
10
3.747553
20
-2.082907
10
3.732887
20
-2.109077
10
3.718039
20
-2.135145
10
3.728918
20
-2.176229
10
3.754829
20
-2.191351
10
3.796085
20
-2.179964
10
3.811245
20
-2.15335
10
3.826219
20
-2.126629
10
3.814682
20
-2.085415
8
gear_texts
0
LWPOLYLINE
5
1041
100
AcDbEntity
100
AcDbPolyline
90
14
70
0
43
0
10
3.672404
20
-2.212715
10
3.656831
20
-2.238357
10
3.64108
20
-2.263889
10
3.62515
20
-2.28931
10
3.58379
20
-2.298424
10
3.558538
20
-2.282228
10
3.549054
20
-2.241255
10
3.564649
20
-2.216367
10
3.58007
20
-2.191371
10
3.621011
20
-2.18175
10
3.6981
20
-2.228198
10
3.708006
20
-2.269681
10
3.717511
20
-2.311411
10
3.701247
20
-2.337366
8
gear_texts
0
LINE
5
1001
100
AcDbEntity
100
AcDbLine
10
0.1
20
0
30
0
11
-0.1
21
0
31
0
8
gear_guides
0
LINE
5
1002
100
AcDbEntity
100
AcDbLine
10
0
20
0.1
30
0
11
0
21
-0.1
31
0
8
gear_guides
0
CIRCLE
5
1003
100
AcDbEntity
100
AcDbCircle
10
4.862054
20
0.355039
30
0
40
0.098125
8
gear_guides
0
CIRCLE
5
1042
100
AcDbEntity
100
AcDbCircle
10
0
20
0
30
0
40
4.875
8
gear_guides
0
CIRCLE
5
1043
100
AcDbEntity
100
AcDbCircle
10
0
20
0
30
0
40
5.125
8
gear_guides
0
CIRCLE
5
1044
100
AcDbEntity
100
AcDbCircle
10
0
20
0
30
0
40
4.381621
8
gear_guides
0
ENDSEC
0
SECTION
2
OBJECTS
0
DICTIONARY
5
21D
330
0
100
AcDbDictionary
281
1
3
ACAD_CIP_PREVIOUS_PRODUCT_INFO
350
291
3
ACAD_COLOR
350
273
3
ACAD_DETAILVIEWSTYLE
350
27B
3
ACAD_GROUP
350
21E
3
ACAD_LAYOUT
350
272
3
ACAD_MATERIAL
350
221
3
ACAD_MLEADERSTYLE
350
276
3
ACAD_MLINESTYLE
350
26F
3
ACAD_PLOTSETTINGS
350
271
3
ACAD_PLOTSTYLENAME
350
21F
3
ACAD_SCALELIST
350
253
3
ACAD_SECTIONVIEWSTYLE
350
278
3
ACAD_TABLESTYLE
350
274
3
ACAD_VISUALSTYLE
350
23A
3
ACDB_RECOMPOSE_DATA
350
1057
3
AcDbVariableDictionary
350
29D
0
DICTIONARY
5
297
330
213
100
AcDbDictionary
280
1
281
1
3
ACAD_LAYERSTATES
360
298
0
DICTIONARY
5
292
330
265
100
AcDbDictionary
280
1
281
1
3
ADSK_XREC_LAYER_RECONCILED
360
293
0
XRECORD
5
291
102
{ACAD_REACTORS
330
21D
102
}
330
21D
100
AcDbXrecord
280
1
300
ACDMAC
300
2013
300
ACDMAC_F_S
0
DICTIONARY
5
273
102
{ACAD_REACTORS
330
21D
102
}
330
21D
100
AcDbDictionary
281
1
0
DICTIONARY
5
27B
102
{ACAD_REACTORS
330
21D
102
}
330
21D
100
AcDbDictionary
281
1
3
Imperial24
350
27C
0
DICTIONARY
5
21E
102
{ACAD_REACTORS
330
21D
102
}
330
21D
100
AcDbDictionary
281
1
0
DICTIONARY
5
272
102
{ACAD_REACTORS
330
21D
102
}
330
21D
100
AcDbDictionary
281
1
3
Layout1
350
280
3
Model
350
284
0
DICTIONARY
5
221
102
{ACAD_REACTORS
330
21D
102
}
330
21D
100
AcDbDictionary
281
1
3
ByBlock
350
22A
3
ByLayer
350
222
3
Global
350
232
0
DICTIONARY
5
276
102
{ACAD_REACTORS
330
21D
102
}
330
21D
100
AcDbDictionary
281
1
3
Standard
350
277
0
DICTIONARY
5
26F
102
{ACAD_REACTORS
330
21D
102
}
330
21D
100
AcDbDictionary
281
1
3
Standard
350
270
0
DICTIONARY
5
271
102
{ACAD_REACTORS
330
21D
102
}
330
21D
100
AcDbDictionary
281
1
0
ACDBDICTIONARYWDFLT
5
21F
102
{ACAD_REACTORS
330
21D
102
}
330
21D
100
AcDbDictionary
281
1
3
Normal
350
220
100
AcDbDictionaryWithDefault
340
220
0
DICTIONARY
5
253
102
{ACAD_REACTORS
330
21D
102
}
330
21D
100
AcDbDictionary
281
1
3
A0
350
254
3
A1
350
255
3
A2
350
256
3
A3
350
257
3
A4
350
258
3
A5
350
259
3
A6
350
25A
3
A7
350
25B
3
A8
350
25C
3
A9
350
25D
3
B0
350
25E
3
B1
350
25F
3
B2
350
260
3
B3
350
261
3
B4
350
262
3
B5
350
263
3
B6
350
264
0
DICTIONARY
5
278
102
{ACAD_REACTORS
330
21D
102
}
330
21D
100
AcDbDictionary
281
1
3
Imperial24
350
27A
0
DICTIONARY
5
274
102
{ACAD_REACTORS
330
21D
102
}
330
21D
100
AcDbDictionary
281
1
3
Standard
350
275
0
DICTIONARY
5
23A
102
{ACAD_REACTORS
330
21D
102
}
330
21D
100
AcDbDictionary
281
1
3
2dWireframe
350
240
3
Basic
350
23F
3
Brighten
350
246
3
ColorChange
350
24A
3
Conceptual
350
243
3
Dim
350
245
3
EdgeColorOff
350
252
3
Facepattern
350
249
3
Flat
350
23B
3
FlatWithEdges
350
23C
3
Gouraud
350
23D
3
GouraudWithEdges
350
23E
3
Hidden
350
242
3
JitterOff
350
250
3
Linepattern
350
248
3
OverhangOff
350
251
3
Realistic
350
244
3
Shaded
350
24F
3
Shaded with edges
350
24E
3
Shades of Gray
350
24B
3
Sketchy
350
24C
3
Thicken
350
247
3
Wireframe
350
241
3
X-Ray
350
24D
0
XRECORD
5
1057
102
{ACAD_REACTORS
330
21D
102
}
330
21D
100
AcDbXrecord
280
1
90
1
330
275
0
DICTIONARY
5
29D
102
{ACAD_REACTORS
330
21D
102
}
330
21D
100
AcDbDictionary
281
1
3
CANNOSCALE
350
2A3
3
CMLEADERSTYLE
350
29F
3
CTABLESTYLE
350
29E
3
CVIEWDETAILSTYLE
350
2A0
3
CVIEWSECTIONSTYLE
350
2A1
3
LAYEREVAL
350
2A5
3
LAYERNOTIFY
350
2A6
3
LIGHTINGUNITS
350
2A4
3
MSLTSCALE
350
2A2
0
DICTIONARY
5
298
102
{ACAD_REACTORS
330
297
102
}
330
297
100
AcDbDictionary
281
1
0
XRECORD
5
293
102
{ACAD_REACTORS
330
292
102
}
330
292
100
AcDbXrecord
280
1
290
1
0
ACDBDETAILVIEWSTYLE
5
27C
102
{ACAD_REACTORS
330
27B
102
}
330
27B
100
AcDbModelDocViewStyle
70
0
3
Imperial24
290
0
100
AcDbDetailViewStyle
70
0
71
0
90
3
71
1
340
266
62
256
40
0.24
340
0
62
256
40
0.24
300

40
0.36
280
3
71
2
340
26D
90
25
62
256
71
3
340
266
62
256
40
0.24
90
1
40
0.75
90
1
300
%<AcVar ViewType  "%tc1">% %<AcVar ViewDetailId>%PSCALE %<AcVar ViewScale  "%sn">%
71
4
340
26D
90
25
62
256
340
26D
90
25
62
256
280
0
0
LAYOUT
5
280
102
{ACAD_REACTORS
330
272
102
}
330
272
100
AcDbPlotSettings
1

2
HP_LaserJet_P1505
4

6

40
0.0
41
0.0
42
0.0
43
0.0
44
0.0
45
0.0
46
0.0
47
0.0
48
0.0
49
0.0
140
0.0
141
0.0
142
1.0
143
1.0
70
688
72
0
73
0
74
5
7

75
16
147
1.0
76
0
77
2
78
300
148
0.0
149
0.0
100
AcDbLayout
1
Layout1
70
1
71
1
10
0.0
20
0.0
11
12.0
21
9.0
12
0.0
22
0.0
32
0.0
14
0.0
24
0.0
34
0.0
15
0.0
25
0.0
35
0.0
146
0.0
13
0.0
23
0.0
33
0.0
16
1.0
26
0.0
36
0.0
17
0.0
27
1.0
37
0.0
76
0
330
27D
0
LAYOUT
5
284
102
{ACAD_REACTORS
330
272
102
}
330
272
100
AcDbPlotSettings
1

2
HP_LaserJet_P1505
4

6

40
0.0
41
0.0
42
0.0
43
0.0
44
0.0
45
0.0
46
0.0
47
0.0
48
0.0
49
0.0
140
0.0
141
0.0
142
1.0
143
1.0
70
1712
72
0
73
0
74
0
7

75
0
147
1.0
76
0
77
2
78
300
148
0.0
149
0.0
100
AcDbLayout
1
Model
70
1
71
0
10
0.0
20
0.0
11
12.0
21
9.0
12
0.0
22
0.0
32
0.0
14
0.0
24
0.0
34
0.0
15
0.0
25
0.0
35
0.0
146
0.0
13
0.0
23
0.0
33
0.0
16
1.0
26
0.0
36
0.0
17
0.0
27
1.0
37
0.0
76
0
330
281
331
285
0
MATERIAL
5
22A
102
{ACAD_XDICTIONARY
360
22B
102
}
102
{ACAD_REACTORS
330
221
102
}
330
221
100
AcDbMaterial
1
ByBlock
72
0
43
0.0208333333333333
43
0.0
43
0.0
43
0.0
43
0.0
43
0.0208333333333333
43
0.0
43
0.0
43
0.0
43
0.0
43
1.0
43
0.0
43
0.0
43
0.0
43
0.0
43
1.0
77
0
47
0.0208333333333333
47
0.0
47
0.0
47
0.0
47
0.0
47
0.0208333333333333
47
0.0
47
0.0
47
0.0
47
0.0
47
1.0
47
0.0
47
0.0
47
0.0
47
0.0
47
1.0
171
0
49
0.0208333333333333
49
0.0
49
0.0
49
0.0
49
0.0
49
0.0208333333333333
49
0.0
49
0.0
49
0.0
49
0.0
49
1.0
49
0.0
49
0.0
49
0.0
49
0.0
49
1.0
175
0
142
0.0208333333333333
142
0.0
142
0.0
142
0.0
142
0.0
142
0.0208333333333333
142
0.0
142
0.0
142
0.0
142
0.0
142
1.0
142
0.0
142
0.0
142
0.0
142
0.0
142
1.0
179
0
144
0.0208333333333333
144
0.0
144
0.0
144
0.0
144
0.0
144
0.0208333333333333
144
0.0
144
0.0
144
0.0
144
0.0
144
1.0
144
0.0
144
0.0
144
0.0
144
0.0
144
1.0
147
0.0208333333333333
147
0.0
147
0.0
147
0.0
147
0.0
147
0.0208333333333333
147
0.0
147
0.0
147
0.0
147
0.0
147
1.0
147
0.0
147
0.0
147
0.0
147
0.0
147
1.0
0
MATERIAL
5
222
102
{ACAD_XDICTIONARY
360
223
102
}
102
{ACAD_REACTORS
330
221
102
}
330
221
100
AcDbMaterial
1
ByLayer
72
0
43
0.0208333333333333
43
0.0
43
0.0
43
0.0
43
0.0
43
0.0208333333333333
43
0.0
43
0.0
43
0.0
43
0.0
43
1.0
43
0.0
43
0.0
43
0.0
43
0.0
43
1.0
77
0
47
0.0208333333333333
47
0.0
47
0.0
47
0.0
47
0.0
47
0.0208333333333333
47
0.0
47
0.0
47
0.0
47
0.0
47
1.0
47
0.0
47
0.0
47
0.0
47
0.0
47
1.0
171
0
49
0.0208333333333333
49
0.0
49
0.0
49
0.0
49
0.0
49
0.0208333333333333
49
0.0
49
0.0
49
0.0
49
0.0
49
1.0
49
0.0
49
0.0
49
0.0
49
0.0
49
1.0
175
0
142
0.0208333333333333
142
0.0
142
0.0
142
0.0
142
0.0
142
0.0208333333333333
142
0.0
142
0.0
142
0.0
142
0.0
142
1.0
142
0.0
142
0.0
142
0.0
142
0.0
142
1.0
179
0
144
0.0208333333333333
144
0.0
144
0.0
144
0.0
144
0.0
144
0.0208333333333333
144
0.0
144
0.0
144
0.0
144
0.0
144
1.0
144
0.0
144
0.0
144
0.0
144
0.0
144
1.0
147
0.0208333333333333
147
0.0
147
0.0
147
0.0
147
0.0
147
0.0208333333333333
147
0.0
147
0.0
147
0.0
147
0.0
147
1.0
147
0.0
147
0.0
147
0.0
147
0.0
147
1.0
0
MATERIAL
5
232
102
{ACAD_XDICTIONARY
360
233
102
}
102
{ACAD_REACTORS
330
221
102
}
330
221
100
AcDbMaterial
1
Global
72
0
43
0.0208333333333333
43
0.0
43
0.0
43
0.0
43
0.0
43
0.0208333333333333
43
0.0
43
0.0
43
0.0
43
0.0
43
1.0
43
0.0
43
0.0
43
0.0
43
0.0
43
1.0
77
0
47
0.0208333333333333
47
0.0
47
0.0
47
0.0
47
0.0
47
0.0208333333333333
47
0.0
47
0.0
47
0.0
47
0.0
47
1.0
47
0.0
47
0.0
47
0.0
47
0.0
47
1.0
171
0
49
0.0208333333333333
49
0.0
49
0.0
49
0.0
49
0.0
49
0.0208333333333333
49
0.0
49
0.0
49
0.0
49
0.0
49
1.0
49
0.0
49
0.0
49
0.0
49
0.0
49
1.0
175
0
142
0.0208333333333333
142
0.0
142
0.0
142
0.0
142
0.0
142
0.0208333333333333
142
0.0
142
0.0
142
0.0
142
0.0
142
1.0
142
0.0
142
0.0
142
0.0
142
0.0
142
1.0
179
0
144
0.0208333333333333
144
0.0
144
0.0
144
0.0
144
0.0
144
0.0208333333333333
144
0.0
144
0.0
144
0.0
144
0.0
144
1.0
144
0.0
144
0.0
144
0.0
144
0.0
144
1.0
147
0.0208333333333333
147
0.0
147
0.0
147
0.0
147
0.0
147
0.0208333333333333
147
0.0
147
0.0
147
0.0
147
0.0
147
1.0
147
0.0
147
0.0
147
0.0
147
0.0
147
1.0
0
MLEADERSTYLE
5
277
102
{ACAD_REACTORS
330
276
102
}
330
276
100
AcDbMLeaderStyle
179
2
170
2
171
1
172
0
90
2
40
0.0
41
0.0
173
1
91
-1056964608
340
26B
92
-2
290
1
42
0.09
291
1
43
0.36
3
Standard
44
0.18
300

342
266
174
1
178
6
175
1
176
0
93
-1056964608
45
0.18
292
0
297
0
46
0.18
94
-1056964608
47
1.0
49
1.0
140
1.0
293
1
141
0.0
294
1
177
0
142
1.0
295
0
296
0
143
0.125
271
0
272
9
273
9
298
0
0
MLINESTYLE
5
270
102
{ACAD_REACTORS
330
26F
102
}
330
26F
100
AcDbMlineStyle
2
STANDARD
70
0
3

62
256
51
90.0
52
90.0
71
2
49
0.5
62
256
6
BYLAYER
49
-0.5
62
256
6
BYLAYER
0
ACDBPLACEHOLDER
5
220
102
{ACAD_REACTORS
330
21F
102
}
330
21F
0
SCALE
5
254
102
{ACAD_REACTORS
330
253
102
}
330
253
100
AcDbScale
70
0
300
1:1
140
1.0
141
1.0
290
1
0
SCALE
5
255
102
{ACAD_REACTORS
330
253
102
}
330
253
100
AcDbScale
70
0
300
1/128" = 1'-0"
140
0.0078125
141
12.0
290
0
0
SCALE
5
256
102
{ACAD_REACTORS
330
253
102
}
330
253
100
AcDbScale
70
0
300
1/64" = 1'-0"
140
0.015625
141
12.0
290
0
0
SCALE
5
257
102
{ACAD_REACTORS
330
253
102
}
330
253
100
AcDbScale
70
0
300
1/32" = 1'-0"
140
0.03125
141
12.0
290
0
0
SCALE
5
258
102
{ACAD_REACTORS
330
253
102
}
330
253
100
AcDbScale
70
0
300
1/16" = 1'-0"
140
0.0625
141
12.0
290
0
0
SCALE
5
259
102
{ACAD_REACTORS
330
253
102
}
330
253
100
AcDbScale
70
0
300
3/32" = 1'-0"
140
0.09375
141
12.0
290
0
0
SCALE
5
25A
102
{ACAD_REACTORS
330
253
102
}
330
253
100
AcDbScale
70
0
300
1/8" = 1'-0"
140
0.125
141
12.0
290
0
0
SCALE
5
25B
102
{ACAD_REACTORS
330
253
102
}
330
253
100
AcDbScale
70
0
300
3/16" = 1'-0"
140
0.1875
141
12.0
290
0
0
SCALE
5
25C
102
{ACAD_REACTORS
330
253
102
}
330
253
100
AcDbScale
70
0
300
1/4" = 1'-0"
140
0.25
141
12.0
290
0
0
SCALE
5
25D
102
{ACAD_REACTORS
330
253
102
}
330
253
100
AcDbScale
70
0
300
3/8" = 1'-0"
140
0.375
141
12.0
290
0
0
SCALE
5
25E
102
{ACAD_REACTORS
330
253
102
}
330
253
100
AcDbScale
70
0
300
1/2" = 1'-0"
140
0.5
141
12.0
290
0
0
SCALE
5
25F
102
{ACAD_REACTORS
330
253
102
}
330
253
100
AcDbScale
70
0
300
3/4" = 1'-0"
140
0.75
141
12.0
290
0
0
SCALE
5
260
102
{ACAD_REACTORS
330
253
102
}
330
253
100
AcDbScale
70
0
300
1" = 1'-0"
140
1.0
141
12.0
290
0
0
SCALE
5
261
102
{ACAD_REACTORS
330
253
102
}
330
253
100
AcDbScale
70
0
300
1-1/2" = 1'-0"
140
1.5
141
12.0
290
0
0
SCALE
5
262
102
{ACAD_REACTORS
330
253
102
}
330
253
100
AcDbScale
70
0
300
3" = 1'-0"
140
3.0
141
12.0
290
0
0
SCALE
5
263
102
{ACAD_REACTORS
330
253
102
}
330
253
100
AcDbScale
70
0
300
6" = 1'-0"
140
6.0
141
12.0
290
0
0
SCALE
5
264
102
{ACAD_REACTORS
330
253
102
}
330
253
100
AcDbScale
70
0
300
1'-0" = 1'-0"
140
12.0
141
12.0
290
0
0
ACDBSECTIONVIEWSTYLE
5
27A
102
{ACAD_REACTORS
330
278
102
}
330
278
100
AcDbModelDocViewStyle
70
0
3
Imperial24
290
0
100
AcDbSectionViewStyle
70
0
71
0
90
78
71
1
340
266
62
256
40
0.24
340
0
340
0
62
256
40
0.24
300
I, O, Q, S, X, Z
40
0.48
90
3
40
0.18
90
1
71
2
340
279
90
25
62
256
340
26D
90
50
62
256
40
0.24
40
0.0
40
0.24
71
3
340
266
62
256
40
0.24
90
1
40
0.75
90
1
300
%<AcVar ViewType  "%tc1">% %<AcVar ViewSectionStartId>%-%<AcVar ViewSectionEndId>%PSCALE %<AcVar ViewScale  "%sn">%
71
4
62
256
62
257
300
ANSI31
40
1.0
90
0
290
0
290
0
90
6
40
0.0
40
1.570796326794896
40
0.2617993877991494
40
1.308996938995747
40
-0.2617993877991494
40
1.832595714594044
0
TABLESTYLE
5
275
102
{ACAD_XDICTIONARY
360
2A7
102
}
102
{ACAD_REACTORS
330
274
102
}
330
274
100
AcDbTableStyle
280
0
3
Standard
70
0
71
0
40
0.06
41
0.06
280
0
281
0
7
STANDARD
140
0.18
170
2
62
0
63
7
283
0
90
512
91
0
1

274
-2
284
1
64
0
275
-2
285
1
65
0
276
-2
286
1
66
0
277
-2
287
1
67
0
278
-2
288
1
68
0
279
-2
289
1
69
0
7
STANDARD
140
0.25
170
5
62
0
63
7
283
0
90
512
91
0
1

274
-2
284
1
64
0
275
-2
285
1
65
0
276
-2
286
1
66
0
277
-2
287
1
67
0
278
-2
288
1
68
0
279
-2
289
1
69
0
7
STANDARD
140
0.18
170
5
62
0
63
7
283
0
90
512
91
0
1

274
-2
284
1
64
0
275
-2
285
1
65
0
276
-2
286
1
66
0
277
-2
287
1
67
0
278
-2
288
1
68
0
279
-2
289
1
69
0
0
VISUALSTYLE
5
240
102
{ACAD_REACTORS
330
23A
102
}
330
23A
100
AcDbVisualStyle
2
2dWireframe
70
4
177
3
291
0
70
58
90
0
176
1
90
2
176
1
90
0
176
1
90
0
176
1
40
0.6
176
1
40
30.0
176
1
62
7
420
16777215
176
1
90
1
176
1
90
4
176
1
62
7
176
1
62
257
176
1
90
1
176
1
90
1
176
1
40
1.0
176
1
90
0
176
1
62
257
176
1
40
1.0
176
1
90
1
176
1
90
6
176
1
90
2
176
1
62
7
176
1
90
5
176
1
90
0
176
1
90
0
176
1
290
0
176
1
90
1
176
1
40
0.0
176
1
90
0
176
1
290
1
176
1
290
1
176
1
290
0
176
1
290
0
176
1
290
0
176
1
290
0
176
1
290
0
176
1
290
0
176
1
290
0
176
1
90
50
176
1
40
0.0
176
1
40
1.0
176
1
90
0
176
1
62
18
176
1
90
50
176
1
90
3
176
1
62
5
420
255
176
1
290
0
176
1
90
50
176
1
90
50
176
1
90
50
176
1
290
0
176
1
90
50
176
1
62
256
176
0
40
1.0
176
0
90
2
176
1
1
strokes_ogs.tif
176
1
290
0
176
1
40
1.0
176
1
40
1.0
176
1
1001
ACAD
1000
AcDbSavedByObjectVersion
1070
0
0
VISUALSTYLE
5
23F
102
{ACAD_REACTORS
330
23A
102
}
330
23A
100
AcDbVisualStyle
2
Basic
70
7
177
3
291
1
70
58
90
1
176
1
90
0
176
1
90
1
176
1
90
0
176
1
40
0.6
176
1
40
30.0
176
1
62
7
420
16777215
176
1
90
0
176
1
90
4
176
1
62
7
176
1
62
257
176
1
90
1
176
1
90
1
176
1
40
1.0
176
1
90
8
176
1
62
7
176
1
40
1.0
176
1
90
1
176
1
90
6
176
1
90
2
176
1
62
7
176
1
90
5
176
1
90
0
176
1
90
0
176
1
290
0
176
1
90
1
176
1
40
0.0
176
1
90
0
176
1
290
0
176
1
290
1
176
1
290
1
176
1
290
0
176
1
290
0
176
1
290
0
176
1
290
0
176
1
290
0
176
1
290
0
176
1
90
50
176
1
40
0.0
176
1
40
1.0
176
1
90
0
176
1
62
18
176
1
90
50
176
1
90
3
176
1
62
5
420
255
176
1
290
0
176
1
90
50
176
1
90
50
176
1
90
50
176
1
290
0
176
1
90
50
176
1
62
256
176
0
40
1.0
176
0
90
2
176
1
1
strokes_ogs.tif
176
1
290
0
176
1
40
1.0
176
1
40
1.0
176
1
1001
ACAD
1000
AcDbSavedByObjectVersion
1070
0
0
VISUALSTYLE
5
246
102
{ACAD_REACTORS
330
23A
102
}
330
23A
100
AcDbVisualStyle
2
Brighten
70
12
177
3
291
1
70
58
90
2
176
1
90
2
176
1
90
0
176
1
90
0
176
1
40
0.6
176
1
40
30.0
176
1
62
7
420
16777215
176
1
90
1
176
1
90
4
176
1
62
7
176
1
62
257
176
1
90
1
176
1
90
1
176
1
40
1.0
176
1
90
8
176
1
62
7
176
1
40
1.0
176
1
90
1
176
1
90
6
176
1
90
2
176
1
62
7
176
1
90
5
176
1
90
0
176
1
90
0
176
1
290
0
176
1
90
1
176
1
40
50.0
176
1
90
0
176
1
290
0
176
1
290
1
176
1
290
1
176
1
290
0
176
1
290
0
176
1
290
0
176
1
290
0
176
1
290
0
176
1
290
0
176
1
90
50
176
1
40
0.0
176
1
40
1.0
176
1
90
0
176
1
62
18
176
1
90
50
176
1
90
3
176
1
62
5
420
255
176
1
290
0
176
1
90
50
176
1
90
50
176
1
90
50
176
1
290
0
176
1
90
50
176
1
62
256
176
0
40
1.0
176
0
90
2
176
1
1
strokes_ogs.tif
176
1
290
0
176
1
40
1.0
176
1
40
1.0
176
1
1001
ACAD
1000
AcDbSavedByObjectVersion
1070
0
0
VISUALSTYLE
5
24A
102
{ACAD_REACTORS
330
23A
102
}
330
23A
100
AcDbVisualStyle
2
ColorChange
70
16
177
3
291
1
70
58
90
2
176
1
90
2
176
1
90
3
176
1
90
0
176
1
40
0.6
176
1
40
30.0
176
1
62
8
420
8421504
176
1
90
1
176
1
90
4
176
1
62
7
176
1
62
257
176
1
90
1
176
1
90
1
176
1
40
1.0
176
1
90
8
176
1
62
8
420
8421504
176
1
40
1.0
176
1
90
1
176
1
90
6
176
1
90
2
176
1
62
7
176
1
90
5
176
1
90
0
176
1
90
0
176
1
290
0
176
1
90
1
176
1
40
0.0
176
1
90
0
176
1
290
0
176
1
290
1
176
1
290
1
176
1
290
0
176
1
290
0
176
1
290
0
176
1
290
0
176
1
290
0
176
1
290
0
176
1
90
50
176
1
40
0.0
176
1
40
1.0
176
1
90
0
176
1
62
18
176
1
90
50
176
1
90
3
176
1
62
5
420
255
176
1
290
0
176
1
90
50
176
1
90
50
176
1
90
50
176
1
290
0
176
1
90
50
176
1
62
256
176
0
40
1.0
176
0
90
2
176
1
1
strokes_ogs.tif
176
1
290
0
176
1
40
1.0
176
1
40
1.0
176
1
1001
ACAD
1000
AcDbSavedByObjectVersion
1070
0
0
VISUALSTYLE
5
243
102
{ACAD_REACTORS
330
23A
102
}
330
23A
100
AcDbVisualStyle
2
Conceptual
70
9
177
3
291
0
70
58
90
3
176
1
90
2
176
1
90
0
176
1
90
0
176
1
40
0.6
176
1
40
30.0
176
1
62
7
420
16777215
176
1
90
2
176
1
90
2
176
1
62
7
176
1
62
257
176
1
90
1
176
1
90
1
176
1
40
179.0
176
1
90
8
176
1
62
7
176
1
40
1.0
176
1
90
1
176
1
90
6
176
1
90
2
176
1
62
7
176
1
90
3
176
1
90
0
176
1
90
0
176
1
290
0
176
1
90
1
176
1
40
0.0
176
1
90
0
176
1
290
0
176
1
290
1
176
1
290
1
176
1
290
0
176
1
290
0
176
1
290
0
176
1
290
0
176
1
290
0
176
1
290
0
176
1
90
50
176
1
40
0.0
176
1
40
1.0
176
1
90
0
176
1
62
18
176
1
90
50
176
1
90
3
176
1
62
5
420
255
176
1
290
0
176
1
90
50
176
1
90
50
176
1
90
50
176
1
290
0
176
1
90
50
176
1
62
256
176
0
40
1.0
176
0
90
2
176
1
1
strokes_ogs.tif
176
1
290
0
176
1
40
1.0
176
1
40
1.0
176
1
1001
ACAD
1000
AcDbSavedByObjectVersion
1070
0
0
VISUALSTYLE
5
245
102
{ACAD_REACTORS
330
23A
102
}
330
23A
100
AcDbVisualStyle
2
Dim
70
11
177
3
291
1
70
58
90
2
176
1
90
2
176
1
90
0
176
1
90
0
176
1
40
0.6
176
1
40
30.0
176
1
62
7
420
16777215
176
1
90
1
176
1
90
4
176
1
62
7
176
1
62
257
176
1
90
1
176
1
90
1
176
1
40
1.0
176
1
90
8
176
1
62
7
176
1
40
1.0
176
1
90
1
176
1
90
6
176
1
90
2
176
1
62
7
176
1
90
5
176
1
90
0
176
1
90
0
176
1
290
0
176
1
90
1
176
1
40
-50.0
176
1
90
0
176
1
290
0
176
1
290
1
176
1
290
1
176
1
290
0
176
1
290
0
176
1
290
0
176
1
290
0
176
1
290
0
176
1
290
0
176
1
90
50
176
1
40
0.0
176
1
40
1.0
176
1
90
0
176
1
62
18
176
1
90
50
176
1
90
3
176
1
62
5
420
255
176
1
290
0
176
1
90
50
176
1
90
50
176
1
90
50
176
1
290
0
176
1
90
50
176
1
62
256
176
0
40
1.0
176
0
90
2
176
1
1
strokes_ogs.tif
176
1
290
0
176
1
40
1.0
176
1
40
1.0
176
1
1001
ACAD
1000
AcDbSavedByObjectVersion
1070
0
0
VISUALSTYLE
5
252
102
{ACAD_REACTORS
330
23A
102
}
330
23A
100
AcDbVisualStyle
2
EdgeColorOff
70
22
177
3
291
1
70
58
90
2
176
0
90
2
176
0
90
0
176
0
90
0
176
0
40
0.6
176
0
40
30.0
176
0
62
7
420
16777215
176
0
90
1
176
0
90
4
176
0
62
7
176
0
62
257
176
0
90
1
176
0
90
1
176
0
40
1.0
176
0
90
8
176
2
62
7
176
0
40
1.0
176
0
90
1
176
0
90
6
176
0
90
2
176
0
62
7
176
0
90
5
176
0
90
0
176
0
90
0
176
0
290
0
176
0
90
1
176
0
40
0.0
176
0
90
0
176
0
290
0
176
1
290
1
176
1
290
1
176
1
290
0
176
1
290
0
176
1
290
0
176
1
290
0
176
1
290
0
176
1
290
0
176
1
90
50
176
0
40
0.0
176
0
40
1.0
176
0
90
0
176
0
62
18
176
0
90
50
176
0
90
3
176
0
62
5
420
255
176
0
290
0
176
1
90
50
176
0
90
50
176
0
90
50
176
0
290
0
176
1
90
50
176
0
62
256
176
0
40
1.0
176
0
90
2
176
0
1
strokes_ogs.tif
176
0
290
0
176
1
40
1.0
176
0
40
1.0
176
0
1001
ACAD
1000
AcDbSavedByObjectVersion
1070
0
0
VISUALSTYLE
5
249
102
{ACAD_REACTORS
330
23A
102
}
330
23A
100
AcDbVisualStyle
2
Facepattern
70
15
177
3
291
1
70
58
90
2
176
1
90
2
176
1
90
0
176
1
90
0
176
1
40
0.6
176
1
40
30.0
176
1
62
7
420
16777215
176
1
90
1
176
1
90
4
176
1
62
7
176
1
62
257
176
1
90
1
176
1
90
1
176
1
40
1.0
176
1
90
8
176
1
62
7
176
1
40
1.0
176
1
90
1
176
1
90
6
176
1
90
2
176
1
62
7
176
1
90
5
176
1
90
0
176
1
90
0
176
1
290
0
176
1
90
1
176
1
40
0.0
176
1
90
0
176
1
290
0
176
1
290
1
176
1
290
1
176
1
290
0
176
1
290
0
176
1
290
0
176
1
290
0
176
1
290
0
176
1
290
0
176
1
90
50
176
1
40
0.0
176
1
40
1.0
176
1
90
0
176
1
62
18
176
1
90
50
176
1
90
3
176
1
62
5
420
255
176
1
290
0
176
1
90
50
176
1
90
50
176
1
90
50
176
1
290
0
176
1
90
50
176
1
62
256
176
0
40
1.0
176
0
90
2
176
1
1
strokes_ogs.tif
176
1
290
0
176
1
40
1.0
176
1
40
1.0
176
1
1001
ACAD
1000
AcDbSavedByObjectVersion
1070
0
0
VISUALSTYLE
5
23B
102
{ACAD_REACTORS
330
23A
102
}
330
23A
100
AcDbVisualStyle
2
Flat
70
0
177
3
291
1
70
58
90
2
176
1
90
1
176
1
90
1
176
1
90
2
176
1
40
0.6
176
1
40
30.0
176
1
62
7
420
16777215
176
1
90
0
176
1
90
0
176
1
62
7
176
1
62
257
176
1
90
1
176
1
90
1
176
1
40
1.0
176
1
90
8
176
1
62
7
176
1
40
1.0
176
1
90
1
176
1
90
6
176
1
90
2
176
1
62
7
176
1
90
5
176
1
90
0
176
1
90
0
176
1
290
0
176
1
90
13
176
1
40
0.0
176
1
90
0
176
1
290
0
176
1
290
1
176
1
290
1
176
1
290
0
176
1
290
0
176
1
290
0
176
1
290
0
176
1
290
0
176
1
290
0
176
1
90
50
176
1
40
0.0
176
1
40
1.0
176
1
90
0
176
1
62
18
176
1
90
50
176
1
90
3
176
1
62
5
420
255
176
1
290
0
176
1
90
50
176
1
90
50
176
1
90
50
176
1
290
0
176
1
90
50
176
1
62
256
176
0
40
1.0
176
0
90
2
176
1
1
strokes_ogs.tif
176
1
290
0
176
1
40
1.0
176
1
40
1.0
176
1
1001
ACAD
1000
AcDbSavedByObjectVersion
1070
0
0
VISUALSTYLE
5
23C
102
{ACAD_REACTORS
330
23A
102
}
330
23A
100
AcDbVisualStyle
2
FlatWithEdges
70
1
177
3
291
1
70
58
90
2
176
1
90
1
176
1
90
1
176
1
90
2
176
1
40
0.6
176
1
40
30.0
176
1
62
7
420
16777215
176
1
90
1
176
1
90
0
176
1
62
7
176
1
62
257
176
1
90
1
176
1
90
1
176
1
40
1.0
176
1
90
0
176
1
62
257
176
1
40
1.0
176
1
90
1
176
1
90
6
176
1
90
2
176
1
62
7
176
1
90
5
176
1
90
0
176
1
90
0
176
1
290
0
176
1
90
13
176
1
40
0.0
176
1
90
0
176
1
290
0
176
1
290
1
176
1
290
1
176
1
290
0
176
1
290
0
176
1
290
0
176
1
290
0
176
1
290
0
176
1
290
0
176
1
90
50
176
1
40
0.0
176
1
40
1.0
176
1
90
0
176
1
62
18
176
1
90
50
176
1
90
3
176
1
62
5
420
255
176
1
290
0
176
1
90
50
176
1
90
50
176
1
90
50
176
1
290
0
176
1
90
50
176
1
62
256
176
0
40
1.0
176
0
90
2
176
1
1
strokes_ogs.tif
176
1
290
0
176
1
40
1.0
176
1
40
1.0
176
1
1001
ACAD
1000
AcDbSavedByObjectVersion
1070
0
0
VISUALSTYLE
5
23D
102
{ACAD_REACTORS
330
23A
102
}
330
23A
100
AcDbVisualStyle
2
Gouraud
70
2
177
3
291
1
70
58
90
2
176
1
90
2
176
1
90
1
176
1
90
2
176
1
40
0.6
176
1
40
30.0
176
1
62
7
420
16777215
176
1
90
0
176
1
90
0
176
1
62
7
176
1
62
257
176
1
90
1
176
1
90
1
176
1
40
1.0
176
1
90
0
176
1
62
7
176
1
40
1.0
176
1
90
1
176
1
90
6
176
1
90
2
176
1
62
7
176
1
90
5
176
1
90
0
176
1
90
0
176
1
290
0
176
1
90
13
176
1
40
0.0
176
1
90
0
176
1
290
0
176
1
290
1
176
1
290
1
176
1
290
0
176
1
290
0
176
1
290
0
176
1
290
0
176
1
290
0
176
1
290
0
176
1
90
50
176
1
40
0.0
176
1
40
1.0
176
1
90
0
176
1
62
18
176
1
90
50
176
1
90
3
176
1
62
5
420
255
176
1
290
0
176
1
90
50
176
1
90
50
176
1
90
50
176
1
290
0
176
1
90
50
176
1
62
256
176
0
40
1.0
176
0
90
2
176
1
1
strokes_ogs.tif
176
1
290
0
176
1
40
1.0
176
1
40
1.0
176
1
1001
ACAD
1000
AcDbSavedByObjectVersion
1070
0
0
VISUALSTYLE
5
23E
102
{ACAD_REACTORS
330
23A
102
}
330
23A
100
AcDbVisualStyle
2
GouraudWithEdges
70
3
177
3
291
1
70
58
90
2
176
1
90
2
176
1
90
1
176
1
90
2
176
1
40
0.6
176
1
40
30.0
176
1
62
7
420
16777215
176
1
90
1
176
1
90
0
176
1
62
7
176
1
62
257
176
1
90
1
176
1
90
1
176
1
40
1.0
176
1
90
0
176
1
62
257
176
1
40
1.0
176
1
90
1
176
1
90
6
176
1
90
2
176
1
62
7
176
1
90
5
176
1
90
0
176
1
90
0
176
1
290
0
176
1
90
13
176
1
40
0.0
176
1
90
0
176
1
290
0
176
1
290
1
176
1
290
1
176
1
290
0
176
1
290
0
176
1
290
0
176
1
290
0
176
1
290
0
176
1
290
0
176
1
90
50
176
1
40
0.0
176
1
40
1.0
176
1
90
0
176
1
62
18
176
1
90
50
176
1
90
3
176
1
62
5
420
255
176
1
290
0
176
1
90
50
176
1
90
50
176
1
90
50
176
1
290
0
176
1
90
50
176
1
62
256
176
0
40
1.0
176
0
90
2
176
1
1
strokes_ogs.tif
176
1
290
0
176
1
40
1.0
176
1
40
1.0
176
1
1001
ACAD
1000
AcDbSavedByObjectVersion
1070
0
0
VISUALSTYLE
5
242
102
{ACAD_REACTORS
330
23A
102
}
330
23A
100
AcDbVisualStyle
2
Hidden
70
6
177
3
291
0
70
58
90
1
176
1
90
2
176
1
90
2
176
1
90
0
176
1
40
0.6
176
1
40
30.0
176
1
62
7
420
16777215
176
1
90
2
176
1
90
2
176
1
62
7
176
1
62
257
176
1
90
2
176
1
90
1
176
1
40
40.0
176
1
90
0
176
1
62
257
176
1
40
1.0
176
1
90
1
176
1
90
6
176
1
90
2
176
1
62
7
176
1
90
3
176
1
90
0
176
1
90
0
176
1
290
0
176
1
90
1
176
1
40
0.0
176
1
90
0
176
1
290
0
176
1
290
1
176
1
290
1
176
1
290
0
176
1
290
0
176
1
290
0
176
1
290
0
176
1
290
0
176
1
290
0
176
1
90
50
176
1
40
0.0
176
1
40
1.0
176
1
90
0
176
1
62
18
176
1
90
50
176
1
90
3
176
1
62
5
420
255
176
1
290
0
176
1
90
50
176
1
90
50
176
1
90
50
176
1
290
0
176
1
90
50
176
1
62
256
176
0
40
1.0
176
0
90
2
176
1
1
strokes_ogs.tif
176
1
290
0
176
1
40
1.0
176
1
40
1.0
176
1
1001
ACAD
1000
AcDbSavedByObjectVersion
1070
0
0
VISUALSTYLE
5
250
102
{ACAD_REACTORS
330
23A
102
}
330
23A
100
AcDbVisualStyle
2
JitterOff
70
20
177
3
291
1
70
58
90
2
176
0
90
2
176
0
90
0
176
0
90
0
176
0
40
0.6
176
0
40
30.0
176
0
62
7
420
16777215
176
0
90
1
176
0
90
4
176
0
62
7
176
0
62
257
176
0
90
1
176
0
90
1
176
0
40
1.0
176
0
90
10
176
2
62
7
176
0
40
1.0
176
0
90
1
176
0
90
6
176
0
90
2
176
0
62
7
176
0
90
5
176
0
90
0
176
0
90
0
176
0
290
0
176
0
90
1
176
0
40
0.0
176
0
90
0
176
0
290
0
176
1
290
1
176
1
290
1
176
1
290
0
176
1
290
0
176
1
290
0
176
1
290
0
176
1
290
0
176
1
290
0
176
1
90
50
176
0
40
0.0
176
0
40
1.0
176
0
90
0
176
0
62
18
176
0
90
50
176
0
90
3
176
0
62
5
420
255
176
0
290
0
176
1
90
50
176
0
90
50
176
0
90
50
176
0
290
0
176
1
90
50
176
0
62
256
176
0
40
1.0
176
0
90
2
176
0
1
strokes_ogs.tif
176
0
290
0
176
1
40
1.0
176
0
40
1.0
176
0
1001
ACAD
1000
AcDbSavedByObjectVersion
1070
0
0
VISUALSTYLE
5
248
102
{ACAD_REACTORS
330
23A
102
}
330
23A
100
AcDbVisualStyle
2
Linepattern
70
14
177
3
291
1
70
58
90
2
176
1
90
2
176
1
90
0
176
1
90
0
176
1
40
0.6
176
1
40
30.0
176
1
62
7
420
16777215
176
1
90
1
176
1
90
4
176
1
62
7
176
1
62
257
176
1
90
7
176
1
90
7
176
1
40
1.0
176
1
90
8
176
1
62
7
176
1
40
1.0
176
1
90
1
176
1
90
6
176
1
90
2
176
1
62
7
176
1
90
5
176
1
90
0
176
1
90
0
176
1
290
0
176
1
90
1
176
1
40
0.0
176
1
90
0
176
1
290
0
176
1
290
1
176
1
290
1
176
1
290
0
176
1
290
0
176
1
290
0
176
1
290
0
176
1
290
0
176
1
290
0
176
1
90
50
176
1
40
0.0
176
1
40
1.0
176
1
90
0
176
1
62
18
176
1
90
50
176
1
90
3
176
1
62
5
420
255
176
1
290
0
176
1
90
50
176
1
90
50
176
1
90
50
176
1
290
0
176
1
90
50
176
1
62
256
176
0
40
1.0
176
0
90
2
176
1
1
strokes_ogs.tif
176
1
290
0
176
1
40
1.0
176
1
40
1.0
176
1
1001
ACAD
1000
AcDbSavedByObjectVersion
1070
0
0
VISUALSTYLE
5
251
102
{ACAD_REACTORS
330
23A
102
}
330
23A
100
AcDbVisualStyle
2
OverhangOff
70
21
177
3
291
1
70
58
90
2
176
0
90
2
176
0
90
0
176
0
90
0
176
0
40
0.6
176
0
40
30.0
176
0
62
7
420
16777215
176
0
90
1
176
0
90
4
176
0
62
7
176
0
62
257
176
0
90
1
176
0
90
1
176
0
40
1.0
176
0
90
9
176
2
62
7
176
0
40
1.0
176
0
90
1
176
0
90
6
176
0
90
2
176
0
62
7
176
0
90
5
176
0
90
0
176
0
90
0
176
0
290
0
176
0
90
1
176
0
40
0.0
176
0
90
0
176
0
290
0
176
1
290
1
176
1
290
1
176
1
290
0
176
1
290
0
176
1
290
0
176
1
290
0
176
1
290
0
176
1
290
0
176
1
90
50
176
0
40
0.0
176
0
40
1.0
176
0
90
0
176
0
62
18
176
0
90
50
176
0
90
3
176
0
62
5
420
255
176
0
290
0
176
1
90
50
176
0
90
50
176
0
90
50
176
0
290
0
176
1
90
50
176
0
62
256
176
0
40
1.0
176
0
90
2
176
0
1
strokes_ogs.tif
176
0
290
0
176
1
40
1.0
176
0
40
1.0
176
0
1001
ACAD
1000
AcDbSavedByObjectVersion
1070
0
0
VISUALSTYLE
5
244
102
{ACAD_REACTORS
330
23A
102
}
330
23A
100
AcDbVisualStyle
2
Realistic
70
8
177
3
291
0
70
58
90
2
176
1
90
3
176
1
90
0
176
1
90
2
176
1
40
0.6
176
1
40
30.0
176
1
62
7
420
16777215
176
1
90
0
176
1
90
0
176
1
62
7
176
1
62
257
176
1
90
1
176
1
90
1
176
1
40
1.0
176
1
90
8
176
1
62
257
176
1
40
1.0
176
1
90
1
176
1
90
6
176
1
90
2
176
1
62
7
176
1
90
3
176
1
90
0
176
1
90
0
176
1
290
0
176
1
90
13
176
1
40
0.0
176
1
90
0
176
1
290
0
176
1
290
1
176
1
290
1
176
1
290
0
176
1
290
0
176
1
290
0
176
1
290
0
176
1
290
0
176
1
290
0
176
1
90
50
176
1
40
0.0
176
1
40
1.0
176
1
90
0
176
1
62
18
176
1
90
50
176
1
90
3
176
1
62
5
420
255
176
1
290
0
176
1
90
50
176
1
90
50
176
1
90
50
176
1
290
0
176
1
90
50
176
1
62
256
176
0
40
1.0
176
0
90
2
176
1
1
strokes_ogs.tif
176
1
290
0
176
1
40
1.0
176
1
40
1.0
176
1
1001
ACAD
1000
AcDbSavedByObjectVersion
1070
0
0
VISUALSTYLE
5
24F
102
{ACAD_REACTORS
330
23A
102
}
330
23A
100
AcDbVisualStyle
2
Shaded
70
27
177
3
291
0
70
58
90
2
176
1
90
2
176
1
90
1
176
1
90
2
176
1
40
0.6
176
1
40
30.0
176
1
62
7
420
16777215
176
1
90
0
176
1
90
4
176
1
62
7
176
1
62
257
176
1
90
1
176
1
90
1
176
1
40
1.0
176
1
90
8
176
1
62
257
176
1
40
1.0
176
1
90
1
176
1
90
6
176
1
90
2
176
1
62
8
420
7895160
176
1
90
3
176
1
90
0
176
1
90
0
176
1
290
0
176
1
90
5
176
1
40
0.0
176
1
90
0
176
1
290
0
176
1
290
1
176
1
290
1
176
1
290
0
176
1
290
0
176
1
290
0
176
1
290
0
176
1
290
0
176
1
290
0
176
1
90
50
176
1
40
0.0
176
1
40
1.0
176
1
90
0
176
1
62
18
176
1
90
50
176
1
90
3
176
1
62
5
420
255
176
1
290
0
176
1
90
50
176
1
90
50
176
1
90
50
176
1
290
0
176
1
90
50
176
1
62
256
176
0
40
1.0
176
0
90
2
176
1
1
strokes_ogs.tif
176
1
290
0
176
1
40
1.0
176
1
40
1.0
176
1
1001
ACAD
1000
AcDbSavedByObjectVersion
1070
0
0
VISUALSTYLE
5
24E
102
{ACAD_REACTORS
330
23A
102
}
330
23A
100
AcDbVisualStyle
2
Shaded with edges
70
26
177
3
291
0
70
58
90
2
176
1
90
2
176
1
90
1
176
1
90
2
176
1
40
0.6
176
1
40
30.0
176
1
62
7
420
16777215
176
1
90
1
176
1
90
10
176
1
62
7
176
1
62
257
176
1
90
2
176
1
90
1
176
1
40
1.0
176
1
90
8
176
1
62
257
176
1
40
1.0
176
1
90
1
176
1
90
6
176
1
90
2
176
1
62
7
176
1
90
3
176
1
90
0
176
1
90
0
176
1
290
0
176
1
90
5
176
1
40
0.0
176
1
90
0
176
1
290
0
176
1
290
1
176
1
290
1
176
1
290
0
176
1
290
0
176
1
290
0
176
1
290
0
176
1
290
0
176
1
290
0
176
1
90
50
176
1
40
0.0
176
1
40
1.0
176
1
90
0
176
1
62
18
176
1
90
50
176
1
90
3
176
1
62
5
420
255
176
1
290
0
176
1
90
50
176
1
90
50
176
1
90
50
176
1
290
0
176
1
90
50
176
1
62
256
176
0
40
1.0
176
0
90
2
176
1
1
strokes_ogs.tif
176
1
290
0
176
1
40
1.0
176
1
40
1.0
176
1
1001
ACAD
1000
AcDbSavedByObjectVersion
1070
0
0
VISUALSTYLE
5
24B
102
{ACAD_REACTORS
330
23A
102
}
330
23A
100
AcDbVisualStyle
2
Shades of Gray
70
23
177
3
291
0
70
58
90
2
176
1
90
2
176
1
90
3
176
1
90
0
176
1
40
0.6
176
1
40
30.0
176
1
62
7
420
16777215
176
1
90
2
176
1
90
2
176
1
62
7
176
1
62
7
176
1
90
1
176
1
90
1
176
1
40
40.0
176
1
90
8
176
1
62
7
176
1
40
1.0
176
1
90
1
176
1
90
6
176
1
90
2
176
1
62
7
176
1
90
3
176
1
90
0
176
1
90
0
176
1
290
0
176
1
90
1
176
1
40
0.0
176
1
90
0
176
1
290
0
176
1
290
1
176
1
290
1
176
1
290
0
176
1
290
0
176
1
290
0
176
1
290
0
176
1
290
0
176
1
290
0
176
1
90
50
176
1
40
0.0
176
1
40
1.0
176
1
90
0
176
1
62
18
176
1
90
50
176
1
90
3
176
1
62
5
420
255
176
1
290
0
176
1
90
50
176
1
90
50
176
1
90
50
176
1
290
0
176
1
90
50
176
1
62
256
176
0
40
1.0
176
0
90
2
176
1
1
strokes_ogs.tif
176
1
290
0
176
1
40
1.0
176
1
40
1.0
176
1
1001
ACAD
1000
AcDbSavedByObjectVersion
1070
0
0
VISUALSTYLE
5
24C
102
{ACAD_REACTORS
330
23A
102
}
330
23A
100
AcDbVisualStyle
2
Sketchy
70
24
177
3
291
0
70
58
90
1
176
1
90
2
176
1
90
2
176
1
90
0
176
1
40
0.6
176
1
40
30.0
176
1
62
7
420
16777215
176
1
90
2
176
1
90
2
176
1
62
7
176
1
62
7
176
1
90
1
176
1
90
1
176
1
40
40.0
176
1
90
11
176
1
62
7
176
1
40
1.0
176
1
90
1
176
1
90
6
176
1
90
2
176
1
62
7
176
1
90
6
176
1
90
0
176
1
90
0
176
1
290
0
176
1
90
1
176
1
40
0.0
176
1
90
0
176
1
290
0
176
1
290
1
176
1
290
1
176
1
290
0
176
1
290
0
176
1
290
0
176
1
290
0
176
1
290
0
176
1
290
0
176
1
90
50
176
1
40
0.0
176
1
40
1.0
176
1
90
0
176
1
62
18
176
1
90
50
176
1
90
3
176
1
62
5
420
255
176
1
290
0
176
1
90
50
176
1
90
50
176
1
90
50
176
1
290
0
176
1
90
50
176
1
62
256
176
0
40
1.0
176
0
90
2
176
1
1
strokes_ogs.tif
176
1
290
0
176
1
40
1.0
176
1
40
1.0
176
1
1001
ACAD
1000
AcDbSavedByObjectVersion
1070
0
0
VISUALSTYLE
5
247
102
{ACAD_REACTORS
330
23A
102
}
330
23A
100
AcDbVisualStyle
2
Thicken
70
13
177
3
291
1
70
58
90
2
176
1
90
2
176
1
90
0
176
1
90
0
176
1
40
0.6
176
1
40
30.0
176
1
62
7
420
16777215
176
1
90
1
176
1
90
4
176
1
62
7
176
1
62
257
176
1
90
1
176
1
90
1
176
1
40
1.0
176
1
90
12
176
1
62
7
176
1
40
1.0
176
1
90
1
176
1
90
6
176
1
90
2
176
1
62
7
176
1
90
5
176
1
90
0
176
1
90
0
176
1
290
0
176
1
90
1
176
1
40
0.0
176
1
90
0
176
1
290
0
176
1
290
1
176
1
290
1
176
1
290
0
176
1
290
0
176
1
290
0
176
1
290
0
176
1
290
0
176
1
290
0
176
1
90
50
176
1
40
0.0
176
1
40
1.0
176
1
90
0
176
1
62
18
176
1
90
50
176
1
90
3
176
1
62
5
420
255
176
1
290
0
176
1
90
50
176
1
90
50
176
1
90
50
176
1
290
0
176
1
90
50
176
1
62
256
176
0
40
1.0
176
0
90
2
176
1
1
strokes_ogs.tif
176
1
290
0
176
1
40
1.0
176
1
40
1.0
176
1
1001
ACAD
1000
AcDbSavedByObjectVersion
1070
0
0
VISUALSTYLE
5
241
102
{ACAD_REACTORS
330
23A
102
}
330
23A
100
AcDbVisualStyle
2
Wireframe
70
5
177
3
291
0
70
58
90
0
176
1
90
2
176
1
90
0
176
1
90
0
176
1
40
0.6
176
1
40
30.0
176
1
62
7
420
16777215
176
1
90
1
176
1
90
4
176
1
62
7
176
1
62
257
176
1
90
1
176
1
90
1
176
1
40
1.0
176
1
90
0
176
1
62
257
176
1
40
1.0
176
1
90
1
176
1
90
6
176
1
90
2
176
1
62
7
176
1
90
3
176
1
90
0
176
1
90
0
176
1
290
0
176
1
90
1
176
1
40
0.0
176
1
90
0
176
1
290
0
176
1
290
1
176
1
290
1
176
1
290
0
176
1
290
0
176
1
290
0
176
1
290
0
176
1
290
0
176
1
290
0
176
1
90
50
176
1
40
0.0
176
1
40
1.0
176
1
90
0
176
1
62
18
176
1
90
50
176
1
90
3
176
1
62
5
420
255
176
1
290
0
176
1
90
50
176
1
90
50
176
1
90
50
176
1
290
0
176
1
90
50
176
1
62
256
176
0
40
1.0
176
0
90
2
176
1
1
strokes_ogs.tif
176
1
290
0
176
1
40
1.0
176
1
40
1.0
176
1
1001
ACAD
1000
AcDbSavedByObjectVersion
1070
0
0
VISUALSTYLE
5
24D
102
{ACAD_REACTORS
330
23A
102
}
330
23A
100
AcDbVisualStyle
2
X-Ray
70
25
177
3
291
0
70
58
90
2
176
1
90
2
176
1
90
1
176
1
90
1
176
1
40
0.5
176
1
40
30.0
176
1
62
7
420
16777215
176
1
90
1
176
1
90
0
176
1
62
7
176
1
62
257
176
1
90
1
176
1
90
1
176
1
40
1.0
176
1
90
8
176
1
62
7
176
1
40
1.0
176
1
90
1
176
1
90
6
176
1
90
2
176
1
62
7
176
1
90
3
176
1
90
0
176
1
90
0
176
1
290
0
176
1
90
13
176
1
40
0.0
176
1
90
0
176
1
290
0
176
1
290
1
176
1
290
1
176
1
290
0
176
1
290
0
176
1
290
0
176
1
290
0
176
1
290
0
176
1
290
0
176
1
90
50
176
1
40
0.0
176
1
40
1.0
176
1
90
0
176
1
62
18
176
1
90
50
176
1
90
3
176
1
62
5
420
255
176
1
290
0
176
1
90
50
176
1
90
50
176
1
90
50
176
1
290
0
176
1
90
50
176
1
62
256
176
0
40
1.0
176
0
90
2
176
1
1
strokes_ogs.tif
176
1
290
0
176
1
40
1.0
176
1
40
1.0
176
1
1001
ACAD
1000
AcDbSavedByObjectVersion
1070
0
0
DICTIONARYVAR
5
2A3
102
{ACAD_REACTORS
330
29D
102
}
330
29D
100
DictionaryVariables
280
0
1
1:1
0
DICTIONARYVAR
5
29F
102
{ACAD_REACTORS
330
29D
102
}
330
29D
100
DictionaryVariables
280
0
1
STANDARD
0
DICTIONARYVAR
5
29E
102
{ACAD_REACTORS
330
29D
102
}
330
29D
100
DictionaryVariables
280
0
1
STANDARD
0
DICTIONARYVAR
5
2A0
102
{ACAD_REACTORS
330
29D
102
}
330
29D
100
DictionaryVariables
280
0
1
Imperial24
0
DICTIONARYVAR
5
2A1
102
{ACAD_REACTORS
330
29D
102
}
330
29D
100
DictionaryVariables
280
0
1
Imperial24
0
DICTIONARYVAR
5
2A5
102
{ACAD_REACTORS
330
29D
102
}
330
29D
100
DictionaryVariables
280
0
1
1
0
DICTIONARYVAR
5
2A6
102
{ACAD_REACTORS
330
29D
102
}
330
29D
100
DictionaryVariables
280
0
1
15
0
DICTIONARYVAR
5
2A4
102
{ACAD_REACTORS
330
29D
102
}
330
29D
100
DictionaryVariables
280
0
1
0
0
DICTIONARYVAR
5
2A2
102
{ACAD_REACTORS
330
29D
102
}
330
29D
100
DictionaryVariables
280
0
1
0
0
DICTIONARY
5
22B
330
22A
100
AcDbDictionary
280
1
281
1
3
BUMPTILE
360
22D
3
DIFFUSETILE
360
22C
3
OPACITYTILE
360
230
3
REFLECTIONTILE
360
22F
3
REFRACTIONTILE
360
231
3
SPECULARTILE
360
22E
0
DICTIONARY
5
223
330
222
100
AcDbDictionary
280
1
281
1
3
BUMPTILE
360
225
3
DIFFUSETILE
360
224
3
OPACITYTILE
360
228
3
REFLECTIONTILE
360
227
3
REFRACTIONTILE
360
229
3
SPECULARTILE
360
226
0
DICTIONARY
5
233
330
232
100
AcDbDictionary
280
1
281
1
3
BUMPTILE
360
235
3
DIFFUSETILE
360
234
3
OPACITYTILE
360
238
3
REFLECTIONTILE
360
237
3
REFRACTIONTILE
360
239
3
SPECULARTILE
360
236
0
DICTIONARY
5
2A7
330
275
100
AcDbDictionary
280
1
281
1
3
ACAD_ROUNDTRIP_2008_TABLESTYLE_CELLSTYLEMAP
360
1056
0
XRECORD
5
22D
102
{ACAD_REACTORS
330
22B
102
}
330
22B
100
AcDbXrecord
280
1
270
1
271
1
0
XRECORD
5
22C
102
{ACAD_REACTORS
330
22B
102
}
330
22B
100
AcDbXrecord
280
1
270
1
271
1
0
XRECORD
5
230
102
{ACAD_REACTORS
330
22B
102
}
330
22B
100
AcDbXrecord
280
1
270
1
271
1
0
XRECORD
5
22F
102
{ACAD_REACTORS
330
22B
102
}
330
22B
100
AcDbXrecord
280
1
270
1
271
1
0
XRECORD
5
231
102
{ACAD_REACTORS
330
22B
102
}
330
22B
100
AcDbXrecord
280
1
270
1
271
1
0
XRECORD
5
22E
102
{ACAD_REACTORS
330
22B
102
}
330
22B
100
AcDbXrecord
280
1
270
1
271
1
0
XRECORD
5
225
102
{ACAD_REACTORS
330
223
102
}
330
223
100
AcDbXrecord
280
1
270
1
271
1
0
XRECORD
5
224
102
{ACAD_REACTORS
330
223
102
}
330
223
100
AcDbXrecord
280
1
270
1
271
1
0
XRECORD
5
228
102
{ACAD_REACTORS
330
223
102
}
330
223
100
AcDbXrecord
280
1
270
1
271
1
0
XRECORD
5
227
102
{ACAD_REACTORS
330
223
102
}
330
223
100
AcDbXrecord
280
1
270
1
271
1
0
XRECORD
5
229
102
{ACAD_REACTORS
330
223
102
}
330
223
100
AcDbXrecord
280
1
270
1
271
1
0
XRECORD
5
226
102
{ACAD_REACTORS
330
223
102
}
330
223
100
AcDbXrecord
280
1
270
1
271
1
0
XRECORD
5
235
102
{ACAD_REACTORS
330
233
102
}
330
233
100
AcDbXrecord
280
1
270
1
271
1
0
XRECORD
5
234
102
{ACAD_REACTORS
330
233
102
}
330
233
100
AcDbXrecord
280
1
270
1
271
1
0
XRECORD
5
238
102
{ACAD_REACTORS
330
233
102
}
330
233
100
AcDbXrecord
280
1
270
1
271
1
0
XRECORD
5
237
102
{ACAD_REACTORS
330
233
102
}
330
233
100
AcDbXrecord
280
1
270
1
271
1
0
XRECORD
5
239
102
{ACAD_REACTORS
330
233
102
}
330
233
100
AcDbXrecord
280
1
270
1
271
1
0
XRECORD
5
236
102
{ACAD_REACTORS
330
233
102
}
330
233
100
AcDbXrecord
280
1
270
1
271
1
0
CELLSTYLEMAP
5
1056
102
{ACAD_REACTORS
330
2A7
102
}
330
2A7
100
AcDbCellStyleMap
90
3
300
CELLSTYLE
1
TABLEFORMAT_BEGIN
90
5
170
1
91
0
92
32768
62
257
93
1
300
CONTENTFORMAT
1
CONTENTFORMAT_BEGIN
90
0
91
0
92
512
93
0
300

40
0.0
140
1.0
94
5
62
0
340
266
144
0.25
309
CONTENTFORMAT_END
171
1
301
MARGIN
1
CELLMARGIN_BEGIN
40
0.06
40
0.06
40
0.06
40
0.06
40
0.18
40
0.18
309
CELLMARGIN_END
94
6
95
1
302
GRIDFORMAT
1
GRIDFORMAT_BEGIN
90
0
91
1
62
0
92
-2
340
0
93
0
40
0.045
309
GRIDFORMAT_END
95
2
302
GRIDFORMAT
1
GRIDFORMAT_BEGIN
90
0
91
1
62
0
92
-2
340
0
93
0
40
0.045
309
GRIDFORMAT_END
95
4
302
GRIDFORMAT
1
GRIDFORMAT_BEGIN
90
0
91
1
62
0
92
-2
340
0
93
0
40
0.045
309
GRIDFORMAT_END
95
8
302
GRIDFORMAT
1
GRIDFORMAT_BEGIN
90
0
91
1
62
0
92
-2
340
0
93
0
40
0.045
309
GRIDFORMAT_END
95
16
302
GRIDFORMAT
1
GRIDFORMAT_BEGIN
90
0
91
1
62
0
92
-2
340
0
93
0
40
0.045
309
GRIDFORMAT_END
95
32
302
GRIDFORMAT
1
GRIDFORMAT_BEGIN
90
0
91
1
62
0
92
-2
340
0
93
0
40
0.045
309
GRIDFORMAT_END
309
TABLEFORMAT_END
1
CELLSTYLE_BEGIN
90
1
91
1
300
_TITLE
309
CELLSTYLE_END
300
CELLSTYLE
1
TABLEFORMAT_BEGIN
90
5
170
1
91
0
92
0
62
257
93
1
300
CONTENTFORMAT
1
CONTENTFORMAT_BEGIN
90
0
91
0
92
512
93
0
300

40
0.0
140
1.0
94
5
62
0
340
266
144
0.18
309
CONTENTFORMAT_END
171
1
301
MARGIN
1
CELLMARGIN_BEGIN
40
0.06
40
0.06
40
0.06
40
0.06
40
0.18
40
0.18
309
CELLMARGIN_END
94
6
95
1
302
GRIDFORMAT
1
GRIDFORMAT_BEGIN
90
0
91
1
62
0
92
-2
340
0
93
0
40
0.045
309
GRIDFORMAT_END
95
2
302
GRIDFORMAT
1
GRIDFORMAT_BEGIN
90
0
91
1
62
0
92
-2
340
0
93
0
40
0.045
309
GRIDFORMAT_END
95
4
302
GRIDFORMAT
1
GRIDFORMAT_BEGIN
90
0
91
1
62
0
92
-2
340
0
93
0
40
0.045
309
GRIDFORMAT_END
95
8
302
GRIDFORMAT
1
GRIDFORMAT_BEGIN
90
0
91
1
62
0
92
-2
340
0
93
0
40
0.045
309
GRIDFORMAT_END
95
16
302
GRIDFORMAT
1
GRIDFORMAT_BEGIN
90
0
91
1
62
0
92
-2
340
0
93
0
40
0.045
309
GRIDFORMAT_END
95
32
302
GRIDFORMAT
1
GRIDFORMAT_BEGIN
90
0
91
1
62
0
92
-2
340
0
93
0
40
0.045
309
GRIDFORMAT_END
309
TABLEFORMAT_END
1
CELLSTYLE_BEGIN
90
2
91
1
300
_HEADER
309
CELLSTYLE_END
300
CELLSTYLE
1
TABLEFORMAT_BEGIN
90
5
170
1
91
0
92
0
62
257
93
1
300
CONTENTFORMAT
1
CONTENTFORMAT_BEGIN
90
0
91
0
92
512
93
0
300

40
0.0
140
1.0
94
2
62
0
340
266
144
0.18
309
CONTENTFORMAT_END
171
1
301
MARGIN
1
CELLMARGIN_BEGIN
40
0.06
40
0.06
40
0.06
40
0.06
40
0.18
40
0.18
309
CELLMARGIN_END
94
6
95
1
302
GRIDFORMAT
1
GRIDFORMAT_BEGIN
90
0
91
1
62
0
92
-2
340
0
93
0
40
0.045
309
GRIDFORMAT_END
95
2
302
GRIDFORMAT
1
GRIDFORMAT_BEGIN
90
0
91
1
62
0
92
-2
340
0
93
0
40
0.045
309
GRIDFORMAT_END
95
4
302
GRIDFORMAT
1
GRIDFORMAT_BEGIN
90
0
91
1
62
0
92
-2
340
0
93
0
40
0.045
309
GRIDFORMAT_END
95
8
302
GRIDFORMAT
1
GRIDFORMAT_BEGIN
90
0
91
1
62
0
92
-2
340
0
93
0
40
0.045
309
GRIDFORMAT_END
95
16
302
GRIDFORMAT
1
GRIDFORMAT_BEGIN
90
0
91
1
62
0
92
-2
340
0
93
0
40
0.045
309
GRIDFORMAT_END
95
32
302
GRIDFORMAT
1
GRIDFORMAT_BEGIN
90
0
91
1
62
0
92
-2
340
0
93
0
40
0.045
309
GRIDFORMAT_END
309
TABLEFORMAT_END
1
CELLSTYLE_BEGIN
90
3
91
2
300
_DATA
309
CELLSTYLE_END
0
ENDSEC
0
SECTION
2
ACDSDATA
70
2
71
2
0
ACDSSCHEMA
90
0
1
AcDb_Thumbnail_Schema
2
AcDbDs::ID
280
10
91
8
2
Thumbnail_Data
280
15
91
0
101
ACDSRECORD
95
0
90
1
2
AcDbDs::TreatedAsObjectData
280
1
291
1
101
ACDSRECORD
95
0
90
2
2
AcDbDs::Legacy
280
1
291
1
101
ACDSRECORD
1
AcDbDs::ID
90
3
2
AcDs:Indexable
280
1
291
1
101
ACDSRECORD
1
AcDbDs::ID
90
4
2
AcDbDs::HandleAttribute
280
7
282
1
0
ACDSSCHEMA
90
1
1
AcDbDs::TreatedAsObjectDataSchema
2
AcDbDs::TreatedAsObjectData
280
1
91
0
0
ACDSSCHEMA
90
2
1
AcDbDs::LegacySchema
2
AcDbDs::Legacy
280
1
91
0
0
ACDSSCHEMA
90
3
1
AcDbDs::IndexedPropertySchema
2
AcDs:Indexable
280
1
91
0
0
ACDSSCHEMA
90
4
1
AcDbDs::HandleAttributeSchema
2
AcDbDs::HandleAttribute
280
7
91
1
284
1
0
ACDSRECORD
90
0
2
AcDbDs::ID
280
10
320
284
2
Thumbnail_Data
280
15
94
1130
310
89504E470D0A1A0A0000000D4948445200000100000000BB0803000000BDD6B05600000300504C54452128300000000000000000000000000000000000000000000000000000000000000000330000660000990000CC0000FF0033000033330033660033990033CC0033FF0066000066330066660066990066CC0066FF0099
310
000099330099660099990099CC0099FF00CC0000CC3300CC6600CC9900CCCC00CCFF00FF0000FF3300FF6600FF9900FFCC00FFFF3300003300333300663300993300CC3300FF3333003333333333663333993333CC3333FF3366003366333366663366993366CC3366FF3399003399333399663399993399CC3399FF33CC00
310
33CC3333CC6633CC9933CCCC33CCFF33FF0033FF3333FF6633FF9933FFCC33FFFF6600006600336600666600996600CC6600FF6633006633336633666633996633CC6633FF6666006666336666666666996666CC6666FF6699006699336699666699996699CC6699FF66CC0066CC3366CC6666CC9966CCCC66CCFF66FF0066
310
FF3366FF6666FF9966FFCC66FFFF9900009900339900669900999900CC9900FF9933009933339933669933999933CC9933FF9966009966339966669966999966CC9966FF9999009999339999669999999999CC9999FF99CC0099CC3399CC6699CC9999CCCC99CCFF99FF0099FF3399FF6699FF9999FFCC99FFFFCC0000CC00
310
33CC0066CC0099CC00CCCC00FFCC3300CC3333CC3366CC3399CC33CCCC33FFCC6600CC6633CC6666CC6699CC66CCCC66FFCC9900CC9933CC9966CC9999CC99CCCC99FFCCCC00CCCC33CCCC66CCCC99CCCCCCCCCCFFCCFF00CCFF33CCFF66CCFF99CCFFCCCCFFFFFF0000FF0033FF0066FF0099FF00CCFF00FFFF3300FF3333
310
FF3366FF3399FF33CCFF33FFFF6600FF6633FF6666FF6699FF66CCFF66FFFF9900FF9933FF9966FF9999FF99CCFF99FFFFCC00FFCC33FFCC66FFCC99FFCCCCFFCCFFFFFF00FFFF33FFFF66FFFF99FFFFCCFFFFFF0000000D0D0D1A1A1A2828283535354343435050505D5D5D6B6B6B787878868686939393A1A1A1AEAEAEBB
310
BBBBC9C9C9D6D6D6E4E4E4F1F1F1FFFFFF000000000000000000000000000000000000000000000000000000000000544354A80000004549444154789CEDC13101000000C2A0F54F6D094FA000000000000000000000000000000000000000000000000000000000000000000000000000000000000000000000E062BBBB00
310
01006808E50000000049454E44AE4260824BBACA0DB465ABDB4063B2B20534072BDA4047AC9A0DF4A42AD9407A015D99E20BA8D8407A019D89143066171752C0D0E513E84D54AE01050C5E7F7B0A18BA7C020A18BA7C02F105C4FF0C2920FE4024FE484C01F1C7E2F11723AEC65C8EBA1E372071982F7D48A87EFCC5989C41
310
49A3B22F9BB861E9DF3E73F299D3F25FC9D901000000000000000000000000000000000000000000E0344F3123803F1ED9B2780000000049454E44AE426082FADAD667F149BFC5000000000000000000000000000000000000000070A90F51C3A687E5D1137C0000000049454E44AE426082
0
ENDSEC
0
EOF
