<?xml version="1.0" encoding="utf-8"?><!-- Generator: Iparigrafika Gear Generator by Abel Vincze http://geargenerator.com/ --><svg version="1.2" class="svggear" xmlns="http://www.w3.org/2000/svg" xmlns:xlink="http://www.w3.org/1999/xlink" x="0px" y="0px" width="176px" height="176px" viewBox="-88 -88 176 176" overflow="scroll" xml:space="preserve"><path id="gearpoly1" data-id="1" class="gear" fill="#ddd" stroke="#444" stroke-width="1" stroke-miterlimit="10" d="M35.625,0 44.946547,-0.00008 45.023472,-0.003413 45.185437,-0.017184 45.431515,-0.048802 45.760296,-0.105613 46.16989,-0.194863 46.657934,-0.323676 47.221599,-0.499024 47.857599,-0.727702 48.5622,-1.016298 49.331235,-1.371171 50.160117,-1.798423 51.043849,-2.303876 51.977047,-2.893047 52.95395,-3.571128 53.968446,-4.34296 55.014086,-5.213014 56.084106,-6.185372 57.171452,-7.263708 58.2688,-8.45127 59.36858,-9.750864 60.463001,-11.164838 61.005715,-11.915322 61.275505,-12.301527 61.276841,-12.304419 60.555325,-15.469409 60.552868,-15.471436 60.142348,-15.702552 59.327988,-16.143668 57.728866,-16.9436 56.17449,-17.638131 54.670862,-18.232754 53.223586,-18.733278 51.837856,-19.145804 50.518439,-19.476701 49.269658,-19.732578 48.095388,-19.92026 46.99904,-20.04676 45.983555,-20.119252 45.051394,-20.145043 44.204536,-20.131544 43.444472,-20.086243 42.7722,-20.016677 42.18823,-19.930401 41.692577,-19.834963 41.28477,-19.737872 40.963852,-19.646572 40.728383,-19.568413 40.576453,-19.510625 40.505683,-19.480289 32.105108,-15.440293 25.190679,-25.190679 31.781952,-31.782064 31.833989,-31.838816 31.938778,-31.963079 32.090424,-32.159441 32.282736,-32.432095 32.509253,-32.784831 32.763268,-33.221015 33.03785,-33.743577 33.325869,-34.354995 33.62003,-35.057292 33.912887,-35.852015 34.196882,-36.740236 34.464366,-37.722538 34.707629,-38.799016 34.918928,-39.969266 35.090518,-41.232391 35.214676,-42.58699 35.283734,-44.03117 35.290104,-45.562539 35.226313,-47.178214 35.085023,-48.874827 34.859066,-50.648531 34.712149,-51.56296 34.629832,-52.026819 34.628732,-52.029808 31.880557,-53.757605 31.877386,-53.757301 31.423681,-53.630443 30.535925,-53.366519 28.839539,-52.801407 27.249321,-52.193405 25.765633,-51.550641 24.388331,-50.881186 23.116772,-50.193028 21.949823,-49.494038 20.88587,-48.791949 19.922824,-48.094326 19.05814,-47.40854 18.288824,-46.741743 17.61145,-46.100843 17.022176,-45.492479 16.516762,-44.922999 16.090585,-44.398441 15.738661,-43.924505 15.455667,-43.506541 15.235958,-43.149524 15.073593,-42.858041 14.962358,-42.636273 14.895789,-42.48798 14.867199,-42.416488 11.783803,-33.619676 0,-35.625 -0.00008,-44.946547 -0.003413,-45.023472 -0.017184,-45.185437 -0.048802,-45.431515 -0.105613,-45.760296 -0.194863,-46.16989 -0.323676,-46.657934 -0.499024,-47.221599 -0.727702,-47.857599 -1.016298,-48.5622 -1.371171,-49.331235 -1.798423,-50.160117 -2.303876,-51.043849 -2.893047,-51.977047 -3.571128,-52.95395 -4.34296,-53.968446 -5.213014,-55.014086 -6.185372,-56.084106 -7.263708,-57.171452 -8.45127,-58.2688 -9.750864,-59.36858 -11.164838,-60.463001 -11.915322,-61.005715 -12.301527,-61.275505 -12.304419,-61.276841 -15.469409,-60.555325 -15.471436,-60.552868 -15.702552,-60.142348 -16.143668,-59.327988 -16.9436,-57.728866 -17.638131,-56.17449 -18.232754,-54.670862 -18.733278,-53.223586 -19.145804,-51.837856 -19.476701,-50.518439 -19.732578,-49.269658 -19.92026,-48.095388 -20.04676,-46.99904 -20.119252,-45.983555 -20.145043,-45.051394 -20.131544,-44.204536 -20.086243,-43.444472 -20.016677,-42.7722 -19.930401,-42.18823 -19.834963,-41.692577 -19.737872,-41.28477 -19.646572,-40.963852 -19.568413,-40.728383 -19.510625,-40.576453 -19.480289,-40.505683 -15.440293,-32.105108 -25.190679,-25.190679 -31.782064,-31.781952 -31.838816,-31.833989 -31.963079,-31.938778 -32.159441,-32.090424 -32.432095,-32.282736 -32.784831,-32.509253 -33.221015,-32.763268 -33.743577,-33.03785 -34.354995,-33.325869 -35.057292,-33.62003 -35.852015,-33.912887 -36.740236,-34.196882 -37.722538,-34.464366 -38.799016,-34.707629 -39.969266,-34.918928 -41.232391,-35.090518 -42.58699,-35.214676 -44.03117,-35.283734 -45.562539,-35.290104 -47.178214,-35.226313 -48.874827,-35.085023 -50.648531,-34.859066 -51.56296,-34.712149 -52.026819,-34.629832 -52.029808,-34.628732 -53.757605,-31.880557 -53.757301,-31.877386 -53.630443,-31.423681 -53.366519,-30.535925 -52.801407,-28.839539 -52.193405,-27.249321 -51.550641,-25.765633 -50.881186,-24.388331 -50.193028,-23.116772 -49.494038,-21.949823 -48.791949,-20.88587 -48.094326,-19.922824 -47.40854,-19.05814 -46.741743,-18.288824 -46.100843,-17.61145 -45.492479,-17.022176 -44.922999,-16.516762 -44.398441,-16.090585 -43.924505,-15.738661 -43.506541,-15.455667 -43.149524,-15.235958 -42.858041,-15.073593 -42.636273,-14.962358 -42.48798,-14.895789 -42.416488,-14.867199 -33.619676,-11.783803 -35.625,0 -44.946547,0.00008 -45.023472,0.003413 -45.185437,0.017184 -45.431515,0.048802 -45.760296,0.105613 -46.16989,0.194863 -46.657934,0.323676 -47.221599,0.499024 -47.857599,0.727702 -48.5622,1.016298 -49.331235,1.371171 -50.160117,1.798423 -51.043849,2.303876 -51.977047,2.893047 -52.95395,3.571128 -53.968446,4.34296 -55.014086,5.213014 -56.084106,6.185372 -57.171452,7.263708 -58.2688,8.45127 -59.36858,9.750864 -60.463001,11.164838 -61.005715,11.915322 -61.275505,12.301527 -61.276841,12.304419 -60.555325,15.469409 -60.552868,15.471436 -60.142348,15.702552 -59.327988,16.143668 -57.728866,16.9436 -56.17449,17.638131 -54.670862,18.232754 -53.223586,18.733278 -51.837856,19.145804 -50.518439,19.476701 -49.269658,19.732578 -48.095388,19.92026 -46.99904,20.04676 -45.983555,20.119252 -45.051394,20.145043 -44.204536,20.131544 -43.444472,20.086243 -42.7722,20.016677 -42.18823,19.930401 -41.692577,19.834963 -41.28477,19.737872 -40.963852,19.646572 -40.728383,19.568413 -40.576453,19.510625 -40.505683,19.480289 -32.105108,15.440293 -25.190679,25.190679 -31.781952,31.782064 -31.833989,31.838816 -31.938778,31.963079 -32.090424,32.159441 -32.282736,32.432095 -32.509253,32.784831 -32.763268,33.221015 -33.03785,33.743577 -33.325869,34.354995 -33.62003,35.057292 -33.912887,35.852015 -34.196882,36.740236 -34.464366,37.722538 -34.707629,38.799016 -34.918928,39.969266 -35.090518,41.232391 -35.214676,42.58699 -35.283734,44.03117 -35.290104,45.562539 -35.226313,47.178214 -35.085023,48.874827 -34.859066,50.648531 -34.712149,51.56296 -34.629832,52.026819 -34.628732,52.029808 -31.880557,53.757605 -31.877386,53.757301 -31.423681,53.630443 -30.535925,53.366519 -28.839539,52.801407 -27.249321,52.193405 -25.765633,51.550641 -24.388331,50.881186 -23.116772,50.193028 -21.949823,49.494038 -20.88587,48.791949 -19.922824,48.094326 -19.05814,47.40854 -18.288824,46.741743 -17.61145,46.100843 -17.022176,45.492479 -16.516762,44.922999 -16.090585,44.398441 -15.738661,43.924505 -15.455667,43.506541 -15.235958,43.149524 -15.073593,42.858041 -14.962358,42.636273 -14.895789,42.48798 -14.867199,42.416488 -11.783803,33.619676 0,35.625 0.00008,44.946547 0.003413,45.023472 0.017184,45.185437 0.048802,45.431515 0.105613,45.760296 0.194863,46.16989 0.323676,46.657934 0.499024,47.221599 0.727702,47.857599 1.016298,48.5622 1.371171,49.331235 1.798423,50.160117 2.303876,51.043849 2.893047,51.977047 3.571128,52.95395 4.34296,53.968446 5.213014,55.014086 6.185372,56.084106 7.263708,57.171452 8.45127,58.2688 9.750864,59.36858 11.164838,60.463001 11.915322,61.005715 12.301527,61.275505 12.304419,61.276841 15.469409,60.555325 15.471436,60.552868 15.702552,60.142348 16.143668,59.327988 16.9436,57.728866 17.638131,56.17449 18.232754,54.670862 18.733278,53.223586 19.145804,51.837856 19.476701,50.518439 19.732578,49.269658 19.92026,48.095388 20.04676,46.99904 20.119252,45.983555 20.145043,45.051394 20.131544,44.204536 20.086243,43.444472 20.016677,42.7722 19.930401,42.18823 19.834963,41.692577 19.737872,41.28477 19.646572,40.963852 19.568413,40.728383 19.510625,40.576453 19.480289,40.505683 15.440293,32.105108 25.190679,25.190679 31.782064,31.781952 31.838816,31.833989 31.963079,31.938778 32.159441,32.090424 32.432095,32.282736 32.784831,32.509253 33.221015,32.763268 33.743577,33.03785 34.354995,33.325869 35.057292,33.62003 35.852015,33.912887 36.740236,34.196882 37.722538,34.464366 38.799016,34.707629 39.969266,34.918928 41.232391,35.090518 42.58699,35.214676 44.03117,35.283734 45.562539,35.290104 47.178214,35.226313 48.874827,35.085023 50.648531,34.859066 51.56296,34.712149 52.026819,34.629832 52.029808,34.628732 53.757605,31.880557 53.757301,31.877386 53.630443,31.423681 53.366519,30.535925 52.801407,28.839539 52.193405,27.249321 51.550641,25.765633 50.881186,24.388331 50.193028,23.116772 49.494038,21.949823 48.791949,20.88587 48.094326,19.922824 47.40854,19.05814 46.741743,18.288824 46.100843,17.61145 45.492479,17.022176 44.922999,16.516762 44.398441,16.090585 43.924505,15.738661 43.506541,15.455667 43.149524,15.235958 42.858041,15.073593 42.636273,14.962358 42.48798,14.895789 42.416488,14.867199 33.619676,11.783803 z"/><g class="guides"><polyline fill="none" stroke="#444" stroke-width="0.5" stroke-miterlimit="10" points="10,0 -10,0"/><polyline fill="none" stroke="#444" stroke-width="0.5" stroke-miterlimit="10" points="0,10 0,-10"/></g><circle fill="#c00" class="firstmarker" stroke="none" stroke-miterlimit="10" cx="48.749308" cy="-11.113279" r="4.90625"/><g class="geartext"><g class="text"><polyline fill="none" stroke="#444" stroke-width="0.5" stroke-linecap="square" stroke-miterlimit="1"  points="-14.28 -23.08 -15 -22.62 -15.7 -22.14 -16.38 -21.64 -17.05 -21.12 "/><polyline fill="none" stroke="#444" stroke-width="0.5" stroke-linecap="square" stroke-miterlimit="1"  points="-14.72 -20.76 -16.68 -23.53 "/><polyline fill="none" stroke="#444" stroke-width="0.5" stroke-linecap="square" stroke-miterlimit="1"  points="-15.18 -24.52 -15.47 -23.33 -15.7 -22.14 -15.87 -20.97 -15.98 -19.8 "/><polyline fill="none" stroke="#444" stroke-width="0.5" stroke-linecap="square" stroke-miterlimit="1"  points="-13.39 -21.64 -14.53 -21.92 -15.7 -22.14 -16.89 -22.32 -18.12 -22.44 "/><polyline fill="none" stroke="#444" stroke-width="0.5" stroke-linecap="square" stroke-miterlimit="1"  points="-13.62 -25.42 -13.19 -26.6 -10.93 -22.04 "/><polyline fill="none" stroke="#444" stroke-width="0.5" stroke-linecap="square" stroke-miterlimit="1"  points="-10.24 -22.37 -10.93 -22.04 -11.61 -21.68 "/><polyline fill="none" stroke="#444" stroke-width="0.5" stroke-linecap="square" stroke-miterlimit="1"  points="-2.53 -29.58 -2.1 -24.51 -3.01 -25.69 -4 -26.85 -5.06 -27.96 -6.2 -29.03 -5.14 -24.06 "/><polyline fill="none" stroke="#444" stroke-width="0.5" stroke-linecap="square" stroke-miterlimit="1"  points="2.85 -27.85 1.98 -27.92 1.11 -27.97 0.23 -27.99 -0.64 -27.98 "/><polyline fill="none" stroke="#444" stroke-width="0.5" stroke-linecap="square" stroke-miterlimit="1"  points="2.68 -26.16 1.86 -26.23 1.04 -26.27 0.22 -26.29 -0.6 -26.29 "/><polyline fill="none" stroke="#444" stroke-width="0.5" stroke-linecap="square" stroke-miterlimit="1"  points="5.28 -26.62 4.31 -25.94 4.17 -25.1 4.79 -24.13 5.54 -23.97 6.28 -23.78 7.27 -24.39 7.51 -25.2 6.93 -26.24 6.11 -26.45 5.28 -26.62 4.59 -27.61 4.72 -28.45 5.78 -29.12 6.68 -28.93 7.58 -28.7 8.23 -27.64 7.99 -26.83 6.93 -26.24 "/><polyline fill="none" stroke="#444" stroke-width="0.5" stroke-linecap="square" stroke-miterlimit="1"  points="13.21 -23.71 13.94 -23.29 14.67 -22.84 15.37 -22.37 16.57 -22.56 17.07 -23.25 16.81 -24.47 16.04 -24.98 15.25 -25.47 14.45 -25.93 11.97 -21.49 "/><polyline fill="none" stroke="#444" stroke-width="0.5" stroke-linecap="square" stroke-miterlimit="1"  points="15.77 -18.88 17.94 -21.48 "/><polyline fill="none" stroke="#444" stroke-width="0.5" stroke-linecap="square" stroke-miterlimit="1"  points="18.49 -22.14 19.03 -22.79 "/><polyline fill="none" stroke="#444" stroke-width="0.5" stroke-linecap="square" stroke-miterlimit="1"  points="19.67 -16.15 18.51 -16.2 18.62 -17.35 21.72 -20.24 "/><polyline fill="none" stroke="#444" stroke-width="0.5" stroke-linecap="square" stroke-miterlimit="1"  points="21.63 -17.76 21.07 -18.43 20.48 -19.08 19.87 -19.71 19.25 -20.32 "/><polyline fill="none" stroke="#444" stroke-width="0.5" stroke-linecap="square" stroke-miterlimit="1"  points="21.59 -11.79 21.21 -12.46 20.81 -13.12 20.39 -13.76 20.64 -14.89 22.01 -15.88 23.2 -15.66 23.68 -14.93 24.13 -14.18 24.56 -13.42 "/><polyline fill="none" stroke="#444" stroke-width="0.5" stroke-linecap="square" stroke-miterlimit="1"  points="23.82 -11.14 24.93 -10.73 26.05 -10.25 26.35 -9.43 25.83 -8.34 23.41 -7.56 "/><polyline fill="none" stroke="#444" stroke-width="0.5" stroke-linecap="square" stroke-miterlimit="1"  points="22.28 -10.42 26.89 -12.58 "/><polyline fill="none" stroke="#444" stroke-width="0.5" stroke-linecap="square" stroke-miterlimit="1"  points="24.49 -2.3 24.55 -1.54 24.59 -0.77 24.6 0 25.43 0.8 28.83 0.9 29.69 0 29.67 -0.93 29.63 -1.85 29.56 -2.78 "/><polyline fill="none" stroke="#444" stroke-width="0.5" stroke-linecap="square" stroke-miterlimit="1"  points="29.63 -1.85 24.55 -1.54 "/><polyline fill="none" stroke="#444" stroke-width="0.5" stroke-linecap="square" stroke-miterlimit="1"  points="27.32 6.07 27.5 5.22 27.65 4.36 27.77 3.49 27.87 2.62 "/><polyline fill="none" stroke="#444" stroke-width="0.5" stroke-linecap="square" stroke-miterlimit="1"  points="25.67 5.71 25.83 4.9 25.97 4.09 26.09 3.28 26.18 2.46 "/><polyline fill="none" stroke="#444" stroke-width="0.5" stroke-linecap="square" stroke-miterlimit="1"  points="22.6 9.72 22.89 9.01 23.16 8.29 23.41 7.56 23.63 6.83 25.26 7.3 25.83 8.34 25.55 9.15 25.26 9.94 25.71 11.06 26.49 11.4 27.62 10.87 27.95 10.01 28.25 9.13 27.71 8 "/><polyline fill="none" stroke="#444" stroke-width="0.5" stroke-linecap="square" stroke-miterlimit="1"  points="22.01 15.88 21.5 16.56 20.98 17.23 20.43 17.87 20.48 19.08 21.1 19.66 22.34 19.55 22.94 18.84 23.52 18.11 24.08 17.37 19.95 14.39 "/><polyline fill="none" stroke="#444" stroke-width="0.5" stroke-linecap="square" stroke-miterlimit="1"  points="16.57 22.56 17.26 22.03 17.94 21.48 18.6 20.91 19.25 20.32 "/><polyline fill="none" stroke="#444" stroke-width="0.5" stroke-linecap="square" stroke-miterlimit="1"  points="15.56 21.2 16.22 20.7 16.85 20.18 17.48 19.65 18.08 19.09 "/><polyline fill="none" stroke="#444" stroke-width="0.5" stroke-linecap="square" stroke-miterlimit="1"  points="11.34 23.72 12.07 23.36 12.8 22.97 13.51 22.56 14.21 22.13 14.09 23.53 13.9 24.95 13.63 26.37 11.29 21.85 "/><polyline fill="none" stroke="#444" stroke-width="0.5" stroke-linecap="square" stroke-miterlimit="1"  points="6.11 26.45 5.28 26.62 4.45 26.78 3.61 26.9 2.85 27.85 2.94 28.69 3.95 29.42 4.86 29.29 5.78 29.12 6.68 28.93 5.54 23.97 "/><polyline fill="none" stroke="#444" stroke-width="0.5" stroke-linecap="square" stroke-miterlimit="1"  points="0.97 24.58 1.04 26.27 0.23 27.99 -0.68 29.68 -1.52 27.95 -2.24 26.2 -2.1 24.51 "/><polyline fill="none" stroke="#444" stroke-width="0.5" stroke-linecap="square" stroke-miterlimit="1"  points="1.04 26.27 0.22 26.29 -0.6 26.29 -1.42 26.26 -2.24 26.2 "/><polyline fill="none" stroke="#444" stroke-width="0.5" stroke-linecap="square" stroke-miterlimit="1"  points="-7.55 26.95 -6.7 27.18 -5.85 27.37 -4.99 27.54 -4.13 27.69 "/><polyline fill="none" stroke="#444" stroke-width="0.5" stroke-linecap="square" stroke-miterlimit="1"  points="-7.09 25.32 -6.29 25.53 -5.49 25.71 -4.69 25.87 -3.88 26.01 "/><polyline fill="none" stroke="#444" stroke-width="0.5" stroke-linecap="square" stroke-miterlimit="1"  points="-10.93 22.04 -10.24 22.37 -9.53 22.68 -8.82 22.96 -8.1 23.23 -8.66 24.83 -9.73 25.34 -10.52 25.02 -11.3 24.68 -12.44 25.08 -12.81 25.84 -12.35 26.99 -11.5 27.37 -10.64 27.71 -9.49 27.23 "/><polyline fill="none" stroke="#444" stroke-width="0.5" stroke-linecap="square" stroke-miterlimit="1"  points="-13.56 23.52 -14.28 23.08 -15 22.62 -15.7 22.14 -15.87 20.97 -15.36 20.29 -14.23 20.07 -13.59 20.5 -12.95 20.92 -12.71 22.05 -13.98 24.25 -15.18 24.52 -16.4 24.74 -17.17 24.22 "/></g></g><g class="guides gearguides" opacity="0.2"><circle class="pitch" fill="none" stroke="#f00" stroke-miterlimit="10" cx="0" cy="0" r="50"/><circle class="outer" fill="none" stroke="#ccc" stroke-miterlimit="10" stroke-dasharray="2,2" cx="0" cy="0" r="62.5"/><circle class="base" fill="none" stroke="#00f" stroke-miterlimit="10" stroke-dasharray="2,2" cx="0" cy="0" r="44.94"/></g></svg>