<?xml version="1.0" encoding="utf-8"?><!-- Generator: Iparigrafika Gear Generator by Abel Vincze http://geargenerator.com/ --><svg version="1.2" class="svggear" xmlns="http://www.w3.org/2000/svg" xmlns:xlink="http://www.w3.org/1999/xlink" x="0px" y="0px" width="564px" height="564px" viewBox="-282 -282 564 564" overflow="scroll" xml:space="preserve"><path id="gearpoly0" data-id="0" class="gear" fill="#ddd" stroke="#444" stroke-width="1" stroke-miterlimit="10" d="M229.375,0 229.399619,-2.168594 229.987134,-2.360143 230.589548,-2.562531 231.206712,-2.776041 231.838475,-3.000952 232.484681,-3.237542 233.145169,-3.486087 233.819776,-3.746861 234.508335,-4.020137 235.210674,-4.306184 235.92662,-4.60527 236.655993,-4.917663 237.398611,-5.243624 238.154289,-5.583416 238.922838,-5.937298 239.704064,-6.305528 240.49777,-6.688359 241.303758,-7.086045 242.121822,-7.498834 242.951757,-7.926975 243.793351,-8.370712 244.646391,-8.830287 245.510659,-9.305942 246.385935,-9.797911 247.271994,-10.306431 248.168609,-10.831733 249.07555,-11.374045 249.992583,-11.933594 250.919471,-12.510604 251.855972,-13.105294 252.801845,-13.717883 253.756842,-14.348584 254.720713,-14.997611 255.693207,-15.66517 255.754268,-15.707513 255.761903,-15.712811 255.76572,-15.71546 255.767561,-15.716781 255.337564,-21.605347 255.335551,-21.606386 255.331389,-21.608453 255.323065,-21.612585 255.256501,-21.645608 254.197347,-22.164812 253.149416,-22.666932 252.112927,-23.15221 251.088098,-23.620893 250.07514,-24.07323 249.074263,-24.509469 248.085672,-24.929865 247.10957,-25.334673 246.146155,-25.724151 245.195622,-26.098558 244.258163,-26.458157 243.333964,-26.803213 242.423211,-27.133993 241.526083,-27.450764 240.642756,-27.753798 239.773403,-28.043369 238.918194,-28.319749 238.077293,-28.583218 237.250862,-28.834052 236.439058,-29.072533 235.642034,-29.298943 234.859941,-29.513567 234.092923,-29.716689 233.341124,-29.908597 232.604681,-30.089581 231.883728,-30.259931 231.178394,-30.419938 230.488806,-30.569897 229.815086,-30.710103 229.157352,-30.840852 228.515718,-30.962441 227.890294,-31.07517 227.281184,-31.179338 226.941795,-33.321351 226.404654,-36.794338 226.081087,-38.938798 226.630267,-39.22211 227.192415,-39.518512 227.767338,-39.828257 228.354841,-40.151597 228.954727,-40.488782 229.566792,-40.840058 230.190832,-41.20567 230.826638,-41.585859 231.473997,-41.980865 232.132695,-42.390925 232.802511,-42.816271 233.483225,-43.257136 234.174611,-43.713747 234.87644,-44.18633 235.588481,-44.675109 236.310499,-45.180302 237.042256,-45.702127 237.783511,-46.240798 238.534019,-46.796525 239.293534,-47.369517 240.061807,-47.959978 240.838582,-48.568111 241.623606,-49.194114 242.416619,-49.838183 243.217359,-50.500509 244.025562,-51.181282 244.840962,-51.880688 245.663287,-52.598908 246.492266,-53.336123 247.327624,-54.092507 248.169082,-54.868234 249.016361,-55.663471 249.869177,-56.478385 249.922655,-56.529974 249.929341,-56.536428 249.932685,-56.539656 249.934289,-56.541254 248.565268,-62.284589 248.563114,-62.285292 248.558675,-62.286664 248.549796,-62.289408 248.478796,-62.311326 247.350072,-62.653905 246.235166,-62.981423 245.134255,-63.294153 244.047515,-63.592372 242.975115,-63.876361 241.917221,-64.146399 240.873996,-64.40277 239.845598,-64.645758 238.832183,-64.87565 237.8339,-65.092732 236.850897,-65.297296 235.883316,-65.489632 234.931295,-65.670032 233.994971,-65.838792 233.074473,-65.996207 232.169928,-66.142573 231.281459,-66.27819 230.409184,-66.403356 229.553218,-66.518373 228.713672,-66.623544 227.89065,-66.71917 227.084257,-66.805558 226.294589,-66.883011 225.521742,-66.951837 224.765803,-67.012344 224.02686,-67.064838 223.304993,-67.10963 222.60028,-67.14703 221.912794,-67.177348 221.242604,-67.200895 220.589775,-67.217985 219.954366,-67.228928 219.336435,-67.23404 218.657837,-69.293873 217.570546,-72.635721 216.907174,-74.700508 217.403796,-75.068246 217.911118,-75.450984 218.428909,-75.848942 218.956937,-76.262337 219.494966,-76.691384 220.042757,-77.136293 220.600067,-77.597273 221.166653,-78.07453 221.742265,-78.568265 222.326655,-79.078676 222.919567,-79.605961 223.520746,-80.15031 224.129933,-80.711915 224.746866,-81.29096 225.371281,-81.887628 226.00291,-82.502099 226.641484,-83.134548 227.286731,-83.785149 227.938376,-84.45407 228.596141,-85.141476 229.259748,-85.847531 229.928913,-86.572393 230.603353,-87.316216 231.28278,-88.079152 231.966907,-88.861349 232.65544,-89.662951 233.348088,-90.484099 234.044554,-91.324929 234.744541,-92.185574 235.447748,-93.066165 236.153874,-93.966825 236.862616,-94.887677 237.573666,-95.828839 237.618177,-95.888339 237.623741,-95.895782 237.626523,-95.899504 237.627851,-95.90134 235.355262,-101.350693 235.353024,-101.351041 235.348422,-101.351684 235.339218,-101.352968 235.265621,-101.363212 234.09656,-101.520296 232.943554,-101.664728 231.806735,-101.79681 230.68623,-101.916842 229.582162,-102.025128 228.49465,-102.121972 227.42381,-102.207677 226.369752,-102.282552 225.332583,-102.346903 224.312405,-102.401039 223.309317,-102.445269 222.323413,-102.479903 221.354783,-102.505253 220.403513,-102.52163 219.469684,-102.529348 218.553374,-102.52872 217.654656,-102.520059 216.773598,-102.503682 215.910267,-102.479904 215.064722,-102.449039 214.237019,-102.411406 213.427211,-102.36732 212.635344,-102.317099 211.861464,-102.26106 211.105609,-102.199522 210.367814,-102.132802 209.64811,-102.061218 208.946524,-101.98509 208.263078,-101.904734 207.597789,-101.820471 206.950672,-101.732618 206.321736,-101.641493 205.710988,-101.547415 204.710757,-103.471719 203.101476,-106.595878 202.115479,-108.527513 202.54668,-108.970153 202.986037,-109.429315 203.433286,-109.905179 203.888163,-110.397923 204.350401,-110.907719 204.819729,-111.434739 205.295876,-111.979148 205.778567,-112.541111 206.267525,-113.120787 206.762471,-113.718332 207.263123,-114.333898 207.769197,-114.967634 208.280408,-115.619686 208.796466,-116.290196 209.317083,-116.979301 209.841964,-117.687135 210.370817,-118.413829 210.903344,-119.159509 211.439248,-119.924299 211.978228,-120.708316 212.519982,-121.511678 213.064206,-122.334494 213.610594,-123.176873 214.15884,-124.038917 214.708633,-124.920726 215.259665,-125.822397 215.811621,-126.744019 216.36419,-127.685682 216.917054,-128.647468 217.469899,-129.629457 218.022405,-130.631725 218.574253,-131.654342 219.125123,-132.697377 219.159513,-132.763246 219.163811,-132.771486 219.16596,-132.775606 219.166976,-132.77763 216.049679,-137.791867 216.047414,-137.791852 216.042768,-137.791748 216.033477,-137.791539 215.959191,-137.789845 214.780071,-137.757364 213.618827,-137.714971 212.475542,-137.662983 211.350293,-137.60172 210.243152,-137.531498 209.154188,-137.452638 208.083467,-137.36546 207.031048,-137.270282 205.996987,-137.167426 204.981336,-137.057213 203.984143,-136.939963 203.005451,-136.815999 202.045298,-136.685641 201.103719,-136.549212 200.180745,-136.407033 199.276402,-136.259426 198.390711,-136.106714 197.52369,-135.949217 196.675353,-135.787258 195.845708,-135.621159 195.034761,-135.451239 194.242511,-135.277822 193.468956,-135.101227 192.714086,-134.921775 191.977891,-134.739786 191.260353,-134.555579 190.561452,-134.369474 189.881163,-134.181789 189.219456,-133.992842 188.5763,-133.80295 187.951656,-133.612429 187.345482,-133.421596 186.757733,-133.230766 185.461775,-134.969702 183.372184,-137.795257 182.089099,-139.543713 182.443712,-140.049791 182.803725,-140.573484 183.168848,-141.11493 183.538793,-141.67426 183.913267,-142.251603 184.291978,-142.847083 184.67463,-143.460822 185.060925,-144.092937 185.450565,-144.74354 185.843248,-145.412742 186.238673,-146.100647 186.636535,-146.807357 187.036529,-147.532969 187.438348,-148.277577 187.841682,-149.041271 188.246222,-149.824135 188.651656,-150.626253 189.057672,-151.4477 189.463955,-152.288551 189.87019,-153.148875 190.27606,-154.028736 190.681247,-154.928197 191.085433,-155.847314 191.488297,-156.786139 191.889519,-157.744723 192.288777,-158.723108 192.685747,-159.721336 193.080107,-160.739442 193.47153,-161.777459 193.859693,-162.835415 194.24427,-163.913331 194.624932,-165.011229 195.001354,-166.129123 195.024732,-166.199655 195.027653,-166.208477 195.029113,-166.212889 195.029792,-166.21505 191.148523,-170.664304 191.146289,-170.663926 191.14172,-170.663078 191.132583,-170.661381 191.05953,-170.647793 189.90089,-170.426588 188.761485,-170.198468 187.641344,-169.963758 186.540494,-169.722785 185.458954,-169.475875 184.396743,-169.223354 183.353871,-168.965548 182.330349,-168.702783 181.326178,-168.435384 180.341359,-168.163677 179.375887,-167.887984 178.429754,-167.608632 177.502945,-167.325943 176.595445,-167.04024 175.70723,-166.751847 174.838275,-166.461085 173.988551,-166.168276 173.158022,-165.873739 172.346651,-165.577794 171.554394,-165.280761 170.781205,-164.982957 170.027033,-164.6847 169.291823,-164.386305 168.575515,-164.088087 167.878046,-163.79036 167.199349,-163.493438 166.539352,-163.197631 165.897979,-162.903251 165.275151,-162.610605 164.670784,-162.320003 164.08479,-162.031749 163.517078,-161.746151 162.967552,-161.46351 161.409431,-162.972041 158.893649,-165.425811 157.346707,-166.945804 157.615548,-167.502212 157.886892,-168.076874 158.160433,-168.669878 158.435864,-169.281308 158.712877,-169.911245 158.991162,-170.559763 159.270408,-171.226936 159.550302,-171.912831 159.830532,-172.617512 160.110783,-173.341039 160.390739,-174.083466 160.670085,-174.844845 160.948503,-175.625225 161.225674,-176.424647 161.50128,-177.24315 161.775001,-178.08077 162.046517,-178.937536 162.315505,-179.813476 162.581645,-180.70861 162.844614,-181.622957 163.104088,-182.556531 163.359745,-183.50934 163.61126,-184.481391 163.858309,-185.472683 164.100567,-186.483213 164.337711,-187.512974 164.569413,-188.561954 164.79535,-189.630136 165.015195,-190.7175 165.228624,-191.82402 165.43531,-192.949669 165.634928,-194.094412 165.827152,-195.258211 165.838913,-195.33158 165.840381,-195.340757 165.841115,-195.345345 165.841438,-195.347588 161.29672,-199.116626 161.294576,-199.115894 161.290202,-199.114324 161.281456,-199.111184 161.211529,-199.086053 160.103376,-198.681854 159.015319,-198.273914 157.947334,-197.86256 156.899394,-197.448119 155.871467,-197.030915 154.863518,-196.611274 153.875507,-196.189518 152.907389,-195.765971 151.959116,-195.340955 151.030635,-194.914789 150.12189,-194.487795 149.23282,-194.060289 148.36336,-193.632591 147.513441,-193.205015 146.68299,-192.777877 145.87193,-192.35149 145.080179,-191.926166 144.307653,-191.502217 143.554261,-191.079952 142.819911,-190.659679 142.104506,-190.241703 141.407944,-189.82633 140.73012,-189.413863 140.070926,-189.004604 139.430248,-188.598851 138.807969,-188.196903 138.20397,-187.799056 137.618124,-187.405604 137.050306,-187.016839 136.500381,-186.633053 135.968215,-186.254532 135.453668,-185.881564 134.956597,-185.514433 133.176668,-186.753489 130.299851,-188.771924 128.529118,-190.024087 128.705224,-190.616415 128.880871,-191.227161 129.055746,-191.856365 129.22953,-192.50406 129.401907,-193.170275 129.572558,-193.855035 129.741166,-194.558363 129.90741,-195.280274 130.070972,-196.020781 130.231532,-196.779893 130.38877,-197.557615 130.542364,-198.353945 130.691995,-199.16888 130.837341,-200.002411 130.978081,-200.854525 131.113893,-201.725206 131.244458,-202.614431 131.369452,-203.522176 131.488556,-204.448411 131.601447,-205.393101 131.707806,-206.356207 131.80731,-207.337689 131.899641,-208.337497 131.984476,-209.355582 132.061497,-210.391887 132.130384,-211.446353 132.190818,-212.518917 132.242481,-213.609509 132.285054,-214.718057 132.31822,-215.844485 132.341663,-216.988711 132.355066,-218.150651 132.358114,-219.330214 132.357954,-219.40452 132.357931,-219.413813 132.357919,-219.41846 132.357878,-219.420725 127.267417,-222.411931 127.265418,-222.410865 127.261353,-222.408614 127.253223,-222.404111 127.188233,-222.368089 126.159269,-221.791363 125.15074,-221.21417 124.162571,-220.636826 123.194682,-220.05965 122.246991,-219.482958 121.31941,-218.907065 120.411848,-218.332283 119.524208,-217.758924 118.656392,-217.187297 117.808297,-216.617712 116.979815,-216.050474 116.170835,-215.485887 115.381242,-214.924256 114.610917,-214.365881 113.859738,-213.81106 113.127578,-213.260091 112.414307,-212.71327 111.71979,-212.170889 111.043891,-211.63324 110.386468,-211.100611 109.747375,-210.573289 109.126464,-210.051559 108.523582,-209.535702 107.938574,-209.026 107.37128,-208.52273 106.821536,-208.026166 106.289177,-207.536583 105.774033,-207.05425 105.275929,-206.579435 104.79469,-206.112404 104.330134,-205.65342 103.882078,-205.202743 103.450336,-204.760631 101.494698,-205.698121 98.331356,-207.228943 96.382693,-208.180845 96.461501,-208.793752 96.536904,-209.424765 96.608582,-210.073873 96.676219,-210.741057 96.739495,-211.426296 96.798093,-212.129563 96.851695,-212.850829 96.899984,-213.590059 96.942643,-214.347215 96.979353,-215.122252 97.009799,-215.915125 97.033664,-216.725781 97.050633,-217.554165 97.060388,-218.400217 97.062617,-219.263873 97.057004,-220.145065 97.043236,-221.043719 97.020999,-221.95976 96.989982,-222.893105 96.949873,-223.843671 96.900361,-224.811367 96.841136,-225.796099 96.77189,-226.797771 96.692315,-227.816281 96.602103,-228.851521 96.50095,-229.903383 96.38855,-230.971751 96.2646,-232.056507 96.128798,-233.15753 95.980843,-234.274691 95.820436,-235.40786 95.647277,-236.556903 95.461071,-237.72168 95.448993,-237.794998 95.44748,-237.804167 95.446723,-237.808752 95.446319,-237.810981 89.941954,-239.946884 89.940152,-239.945511 89.936501,-239.942637 89.929199,-239.936889 89.870829,-239.890908 88.947703,-239.156593 88.044822,-238.425095 87.162062,-237.696714 86.299293,-236.971752 85.456383,-236.250508 84.633193,-235.533278 83.829585,-234.820356 83.045413,-234.112034 82.280531,-233.408603 81.534786,-232.710349 80.808024,-232.017559 80.100086,-231.330514 79.41081,-230.649496 78.74003,-229.974783 78.087578,-229.306649 77.453281,-228.645369 76.836963,-227.991212 76.238444,-227.344447 75.657543,-226.705338 75.094072,-226.074148 74.547844,-225.451137 74.018665,-224.836562 73.50634,-224.230677 73.010669,-223.633733 72.531452,-223.04598 72.068482,-222.467662 71.621551,-221.899022 71.19045,-221.3403 70.774962,-220.791732 70.374871,-220.253553 69.989958,-219.725993 69.619998,-219.209279 69.264767,-218.703635 67.18407,-219.315279 63.816131,-220.318842 61.740006,-220.945829 61.719477,-221.563441 61.692682,-222.198378 61.659308,-222.850578 61.619044,-223.519972 61.571581,-224.206487 61.516608,-224.910047 61.453817,-225.630572 61.3829,-226.367975 61.30355,-227.122168 61.21546,-227.893058 61.118326,-228.680547 61.011844,-229.484534 60.89571,-230.304912 60.769623,-231.141573 60.633283,-231.994403 60.48639,-232.863283 60.328645,-233.748091 60.159754,-234.648702 59.979419,-235.564985 59.787348,-236.496807 59.583247,-237.444029 59.366827,-238.40651 59.137799,-239.384103 58.895873,-240.376658 58.640766,-241.384021 58.372192,-242.406035 58.089869,-243.442538 57.793517,-244.493364 57.482858,-245.558344 57.157613,-246.637305 56.81751,-247.730069 56.462274,-248.836455 56.091636,-249.95628 56.067954,-250.026711 56.064989,-250.035518 56.063506,-250.039922 56.06275,-250.042058 50.287043,-251.267339 50.285484,-251.265695 50.282341,-251.262272 50.276056,-251.255427 50.225817,-251.200678 49.432438,-250.327793 48.65859,-249.460935 47.904102,-248.600382 47.168798,-247.746411 46.452498,-246.899294 45.755021,-246.059303 45.07618,-245.226705 44.415786,-244.401766 43.773646,-243.584748 43.149567,-242.775911 42.543347,-241.975511 41.954786,-241.183802 41.383679,-240.401035 40.829818,-239.627459 40.292991,-238.863317 39.772985,-238.108851 39.269582,-237.364301 38.782563,-236.629902 38.311704,-235.905887 37.85678,-235.192484 37.417563,-234.489919 36.993822,-233.798416 36.585322,-233.118195 36.191827,-232.44947 35.813097,-231.792456 35.448891,-231.147361 35.098965,-230.514392 34.763071,-229.893752 34.44096,-229.28564 34.132381,-228.690251 33.837078,-228.107778 33.554796,-227.538409 33.285276,-226.98233 31.133409,-227.252286 27.648101,-227.702598 25.498286,-227.988432 25.378951,-228.594753 25.250651,-229.21717 25.113089,-229.85557 24.965969,-230.509837 24.808995,-231.179848 24.641875,-231.865479 24.464317,-232.5666 24.276031,-233.283079 24.076727,-234.014777 23.866119,-234.761553 23.64392,-235.523263 23.409848,-236.299757 23.163621,-237.090883 22.904957,-237.896484 22.633579,-238.716399 22.349209,-239.550463 22.051575,-240.39851 21.740402,-241.260366 21.41542,-242.135856 21.076361,-243.024801 20.722959,-243.927017 20.354949,-244.842317 19.972069,-245.770511 19.57406,-246.711406 19.160663,-247.664802 18.731625,-248.630499 18.286691,-249.608292 17.825613,-250.597972 17.348141,-251.599327 16.854031,-252.612143 16.34304,-253.636199 15.814928,-254.671274 15.269457,-255.717143 15.234783,-255.782863 15.230444,-255.791081 15.228274,-255.79519 15.227185,-255.797176 9.329723,-256.080102 9.328449,-256.078229 9.325895,-256.074347 9.320789,-256.066582 9.279984,-256.004483 8.636899,-255.015635 8.012126,-254.035868 7.405451,-253.065431 6.816655,-252.104567 6.245519,-251.153518 5.691817,-250.212521 5.155325,-249.281811 4.635813,-248.36162 4.133048,-247.452176 3.646796,-246.553704 3.17682,-245.666424 2.72288,-244.790556 2.284734,-243.926314 1.862135,-243.073909 1.454837,-242.23355 1.062589,-241.40544 0.685139,-240.58978 0.322233,-239.786768 -0.026388,-238.996597 -0.360983,-238.219457 -0.681813,-237.455536 -0.989142,-236.705015 -1.283237,-235.968073 -1.564365,-235.244888 -1.832798,-234.535629 -2.088807,-233.840466 -2.332666,-233.159562 -2.564653,-232.493077 -2.785044,-231.84117 -2.994121,-231.203991 -3.192164,-230.581691 -3.379457,-229.974414 -3.556286,-229.382303 -5.723591,-229.303579 -9.236,-229.188976 -11.403827,-229.126255 -11.618877,-229.705581 -11.845358,-230.299357 -12.083545,-230.907423 -12.333712,-231.529618 -12.59613,-232.165773 -12.871069,-232.815717 -13.158795,-233.479277 -13.459575,-234.156273 -13.77367,-234.846525 -14.101343,-235.549847 -14.44285,-236.26605 -14.79845,-236.994941 -15.168394,-237.736324 -15.552936,-238.49 -15.952324,-239.255765 -16.366804,-240.033413 -16.79662,-240.822734 -17.242015,-241.623513 -17.703227,-242.435535 -18.180492,-243.258579 -18.674043,-244.092422 -19.184112,-244.936837 -19.710927,-245.791593 -20.254712,-246.656458 -20.81569,-247.531194 -21.394082,-248.415563 -21.990102,-249.309321 -22.603966,-250.212223 -23.235883,-251.12402 -23.886061,-252.044458 -24.554705,-252.973285 -25.242016,-253.910241 -25.948193,-254.855066 -25.99296,-254.914373 -25.998561,-254.921788 -26.001362,-254.925496 -26.002755,-254.927282 -31.869232,-254.260525 -31.870189,-254.258472 -31.872087,-254.25423 -31.875881,-254.245747 -31.906197,-254.177906 -32.382331,-253.098705 -32.841848,-252.031406 -33.284998,-250.976218 -33.712035,-249.933347 -34.123217,-248.902997 -34.518801,-247.885366 -34.89905,-246.880649 -35.264226,-245.889039 -35.614595,-244.910723 -35.950424,-243.945885 -36.271984,-242.994706 -36.579547,-242.057364 -36.873386,-241.13403 -37.153776,-240.224874 -37.420997,-239.330061 -37.675327,-238.449754 -37.917048,-237.58411 -38.146443,-236.733282 -38.363797,-235.897421 -38.569396,-235.076672 -38.76353,-234.271178 -38.946487,-233.481077 -39.11856,-232.706503 -39.280041,-231.947586 -39.431224,-231.204453 -39.572406,-230.477225 -39.703883,-229.76602 -39.825954,-229.070954 -39.938918,-228.392135 -40.043076,-227.729669 -40.138731,-227.08366 -40.226185,-226.454203 -40.305742,-225.841394 -42.432353,-225.416029 -45.880894,-224.739481 -48.010586,-224.329828 -48.315782,-224.867155 -48.634578,-225.416911 -48.967222,-225.978896 -49.313956,-226.552903 -49.675023,-227.138725 -50.050659,-227.73615 -50.441102,-228.344962 -50.846585,-228.964943 -51.267337,-229.595872 -51.703587,-230.237524 -52.155559,-230.889671 -52.623476,-231.552081 -53.107556,-232.22452 -53.608016,-232.906751 -54.125069,-233.598533 -54.658925,-234.299624 -55.209792,-235.009775 -55.777873,-235.728739 -56.363369,-236.456262 -56.966479,-237.192089 -57.587397,-237.935962 -58.226314,-238.687621 -58.883419,-239.446802 -59.558897,-240.213237 -60.252929,-240.986659 -60.965693,-241.766795 -61.697364,-242.553371 -62.448114,-243.346109 -63.21811,-244.144732 -64.007518,-244.948955 -64.816497,-245.758496 -65.645206,-246.573066 -66.493798,-247.392377 -66.547499,-247.443735 -66.554217,-247.450156 -66.557576,-247.453366 -66.559239,-247.454906 -72.24279,-245.855734 -72.243406,-245.853554 -72.244598,-245.849062 -72.246982,-245.84008 -72.266023,-245.768255 -72.562876,-244.626652 -72.845235,-243.499462 -73.113382,-242.386853 -73.367602,-241.288985 -73.608179,-240.20602 -73.835401,-239.138111 -74.049557,-238.085409 -74.250939,-237.048061 -74.439838,-236.026211 -74.616548,-235.019996 -74.781364,-234.029553 -74.934583,-233.055012 -75.076503,-232.0965 -75.207424,-231.15414 -75.327646,-230.22805 -75.437472,-229.318345 -75.537203,-228.425136 -75.627145,-227.548528 -75.707603,-226.688625 -75.778883,-225.845525 -75.841292,-225.019321 -75.895139,-224.210103 -75.940733,-223.417957 -75.978384,-222.642964 -76.008403,-221.885203 -76.031101,-221.144745 -76.04679,-220.42166 -76.055783,-219.716013 -76.058394,-219.027864 -76.054937,-218.357269 -76.045725,-217.704281 -76.031075,-217.068947 -76.011301,-216.451311 -78.042139,-215.690323 -81.337496,-214.469351 -83.373897,-213.723376 -83.761334,-214.204788 -84.164189,-214.696287 -84.582674,-215.197634 -85.016995,-215.708588 -85.467358,-216.228904 -85.933964,-216.758336 -86.417011,-217.296633 -86.916695,-217.843542 -87.433206,-218.398807 -87.966735,-218.96217 -88.517466,-219.53337 -89.085581,-220.112143 -89.67126,-220.698222 -90.274676,-221.291339 -90.896003,-221.891222 -91.535409,-222.497597 -92.193058,-223.110187 -92.869113,-223.728713 -93.56373,-224.352895 -94.277065,-224.982448 -95.009268,-225.617086 -95.760486,-226.256521 -96.530863,-226.900464 -97.320538,-227.54862 -98.129648,-228.200695 -98.958324,-228.856393 -99.806696,-229.515415 -100.674888,-230.177459 -101.563021,-230.842224 -102.471213,-231.509403 -103.399575,-232.17869 -104.348219,-232.849778 -105.317249,-233.522355 -105.378493,-233.564434 -105.386154,-233.569694 -105.389985,-233.572324 -105.391872,-233.573577 -110.745298,-231.083408 -110.745556,-231.081157 -110.746013,-231.076533 -110.746925,-231.067285 -110.754198,-230.993336 -110.864081,-229.818897 -110.961969,-228.661011 -111.048169,-227.519795 -111.122986,-226.395366 -111.186727,-225.287833 -111.239702,-224.197304 -111.28222,-223.123881 -111.314592,-222.067663 -111.337128,-221.028743 -111.350142,-220.007213 -111.353945,-219.003158 -111.348853,-218.016659 -111.335179,-217.047793 -111.31324,-216.096635 -111.28335,-215.163253 -111.245826,-214.247711 -111.200985,-213.350071 -111.149144,-212.470387 -111.090622,-211.608714 -111.025736,-210.765097 -110.954805,-209.939581 -110.878147,-209.132204 -110.796081,-208.343003 -110.708927,-207.572007 -110.617004,-206.819242 -110.52063,-206.084732 -110.420125,-205.368495 -110.315808,-204.670543 -110.207998,-203.990886 -110.097014,-203.32953 -109.983176,-202.686475 -109.8668,-202.061719 -109.748206,-201.455253 -111.630674,-200.37835 -114.6875,-198.644577 -116.577867,-197.5816 -117.037511,-197.994629 -117.513991,-198.415141 -118.007478,-198.842866 -118.518138,-199.277533 -119.046134,-199.718869 -119.591624,-200.166595 -120.154765,-200.620435 -120.735708,-201.080107 -121.334602,-201.545327 -121.951591,-202.015811 -122.586817,-202.49127 -123.240417,-202.971416 -123.912525,-203.455957 -124.60327,-203.944598 -125.312779,-204.437045 -126.041174,-204.932999 -126.788573,-205.432162 -127.555092,-205.934232 -128.34084,-206.438906 -129.145924,-206.945879 -129.970449,-207.454846 -130.814511,-207.965497 -131.678207,-208.477523 -132.561628,-208.990613 -133.46486,-209.504454 -134.387987,-210.018732 -135.331087,-210.533131 -136.294236,-211.047334 -137.277504,-211.561023 -138.280957,-212.073878 -139.304659,-212.585579 -140.348668,-213.095803 -141.413038,-213.604227 -141.480239,-213.635937 -141.488644,-213.6399 -141.492848,-213.641881 -141.494912,-213.642815 -146.379561,-210.326143 -146.379455,-210.323881 -146.379163,-210.319243 -146.378581,-210.309968 -146.373897,-210.23581 -146.293964,-209.058954 -146.204846,-207.900359 -146.106866,-206.760095 -146.000343,-205.638225 -145.885598,-204.534809 -145.762954,-203.449904 -145.632732,-202.383562 -145.495255,-201.335828 -145.350845,-200.306748 -145.199825,-199.296359 -145.042518,-198.304695 -144.879246,-197.331788 -144.710333,-196.377663 -144.5361,-195.442341 -144.356872,-194.525841 -144.172971,-193.628174 -143.984719,-192.749351 -143.792439,-191.889375 -143.596452,-191.048247 -143.397081,-190.225964 -143.194646,-189.422516 -142.989469,-188.637892 -142.781869,-187.872074 -142.572167,-187.125043 -142.360682,-186.396772 -142.147732,-185.687233 -141.933636,-184.996393 -141.718711,-184.324213 -141.503273,-183.670651 -141.287637,-183.035663 -141.07212,-182.419196 -140.857033,-181.821199 -140.642691,-181.24161 -142.328034,-179.876684 -145.067158,-177.675013 -146.762532,-176.322566 -147.282478,-176.656514 -147.820243,-176.995147 -148.375951,-177.338172 -148.949724,-177.685295 -149.541677,-178.036219 -150.151924,-178.390645 -150.780573,-178.748274 -151.427729,-179.108803 -152.093494,-179.471929 -152.777965,-179.837348 -153.481234,-180.204753 -154.203391,-180.573837 -154.944521,-180.944289 -155.704705,-181.315799 -156.48402,-181.688055 -157.282539,-182.060744 -158.100331,-182.433552 -158.937461,-182.806162 -159.793989,-183.178258 -160.669972,-183.549521 -161.565463,-183.919634 -162.480509,-184.288275 -163.415156,-184.655124 -164.369442,-185.019859 -165.343403,-185.382157 -166.337072,-185.741695 -167.350474,-186.098149 -168.383634,-186.451193 -169.436571,-186.800503 -170.509298,-187.145752 -171.601826,-187.486613 -172.714161,-187.822759 -173.846304,-188.153862 -173.917721,-188.174381 -173.926654,-188.176945 -173.93112,-188.178226 -173.933307,-188.178817 -178.22267,-184.121542 -178.222202,-184.119326 -178.221171,-184.114795 -178.219108,-184.105734 -178.202589,-184.033287 -177.93491,-182.884493 -177.661095,-181.755197 -177.381472,-180.645416 -177.096368,-179.555162 -176.806109,-178.484441 -176.511022,-177.433259 -176.211433,-176.401615 -175.907668,-175.389502 -175.600052,-174.396913 -175.28891,-173.423833 -174.974566,-172.470246 -174.657343,-171.536128 -174.337564,-170.621454 -174.015552,-169.726193 -173.691628,-168.850311 -173.366113,-167.993769 -173.039325,-167.156524 -172.711585,-166.338529 -172.38321,-165.539732 -172.054517,-164.760078 -171.725822,-163.999507 -171.397439,-163.257957 -171.069681,-162.535358 -170.742863,-161.831639 -170.417293,-161.146724 -170.093283,-160.480533 -169.771141,-159.832982 -169.451174,-159.203983 -169.133687,-158.593443 -168.818985,-158.001268 -168.50737,-157.427356 -168.199143,-156.871605 -167.894604,-156.333905 -169.339173,-154.716306 -171.689653,-152.10376 -173.146124,-150.496869 -173.712906,-150.743087 -174.298028,-150.991072 -174.901565,-151.240513 -175.52359,-151.491101 -176.16417,-151.742525 -176.823368,-151.994471 -177.501244,-152.246626 -178.197853,-152.498675 -178.913246,-152.750303 -179.64747,-153.001193 -180.400568,-153.251028 -181.172578,-153.499489 -181.963535,-153.746259 -182.773469,-153.991016 -183.602407,-154.233441 -184.450368,-154.473212 -185.317373,-154.710009 -186.203433,-154.943509 -187.108558,-155.173389 -188.032752,-155.399327 -188.976017,-155.621 -189.938348,-155.838083 -190.919737,-156.050254 -191.920173,-156.257187 -192.939639,-156.45856 -193.978114,-156.654046 -195.035572,-156.843323 -196.111985,-157.026065 -197.20732,-157.201948 -198.321537,-157.370649 -199.454595,-157.531842 -200.606447,-157.685204 -201.777043,-157.830411 -201.850826,-157.839208 -201.860054,-157.840305 -201.864668,-157.840854 -201.866922,-157.841086 -205.449906,-153.14829 -205.449088,-153.146177 -205.447343,-153.14187 -205.443854,-153.133257 -205.415928,-153.064399 -204.967435,-151.97342 -204.516015,-150.902672 -204.061991,-149.852116 -203.60569,-148.821714 -203.147434,-147.81142 -202.687547,-146.821186 -202.22635,-145.850958 -201.764165,-144.90068 -201.30131,-143.970289 -200.838104,-143.059722 -200.374864,-142.168907 -199.911906,-141.297772 -199.449544,-140.446239 -198.988092,-139.614226 -198.527862,-138.801648 -198.069163,-138.008414 -197.612304,-137.234431 -197.157592,-136.479602 -196.705333,-135.743824 -196.255831,-135.026993 -195.809388,-134.328998 -195.366305,-133.649726 -194.926879,-132.989061 -194.491408,-132.34688 -194.060187,-131.72306 -193.633508,-131.117471 -193.211663,-130.52998 -192.79494,-129.960453 -192.383628,-129.408749 -191.978009,-128.874724 -191.578367,-128.35823 -191.184983,-127.859119 -190.798135,-127.377233 -191.964516,-125.548856 -193.865476,-122.593099 -195.045323,-120.773383 -195.644261,-120.925494 -196.261585,-121.076407 -196.89732,-121.225804 -197.551487,-121.373368 -198.224103,-121.518779 -198.915179,-121.661719 -199.624725,-121.80187 -200.352745,-121.938911 -201.099238,-122.072523 -201.8642,-122.202387 -202.647621,-122.328181 -203.44949,-122.449586 -204.269789,-122.566281 -205.108497,-122.677946 -205.965587,-122.784261 -206.84103,-122.884905 -207.734792,-122.979558 -208.646834,-123.0679 -209.577113,-123.149611 -210.525582,-123.224372 -211.492191,-123.291864 -212.476883,-123.351768 -213.479598,-123.403765 -214.500273,-123.447537 -215.538839,-123.482768 -216.595224,-123.50914 -217.669351,-123.526337 -218.761139,-123.534044 -219.870502,-123.531946 -220.997352,-123.519728 -222.141595,-123.497079 -223.303132,-123.463685 -224.481861,-123.419234 -224.5561,-123.416082 -224.565385,-123.415685 -224.570027,-123.415486 -224.572289,-123.415354 -227.356097,-118.208577 -227.354951,-118.206623 -227.352538,-118.202652 -227.347712,-118.19471 -227.309101,-118.131223 -226.691412,-117.126316 -226.074077,-116.141846 -225.457412,-115.177725 -224.841731,-114.233863 -224.227347,-113.310161 -223.614571,-112.406521 -223.003711,-111.522839 -222.395075,-110.659006 -221.788969,-109.814911 -221.185696,-108.990438 -220.585558,-108.185468 -219.988856,-107.399878 -219.395886,-106.63354 -218.806946,-105.886324 -218.222328,-105.158094 -217.642325,-104.448713 -217.067227,-103.758039 -216.497321,-103.085925 -215.932892,-102.432223 -215.374223,-101.796779 -214.821595,-101.179438 -214.275286,-100.580038 -213.735573,-99.998417 -213.202728,-99.434407 -212.677023,-98.887837 -212.158726,-98.358535 -211.648104,-97.846321 -211.145419,-97.351016 -210.650933,-96.872435 -210.164904,-96.410391 -209.687586,-95.964694 -209.219233,-95.535149 -208.760094,-95.121559 -209.618078,-93.129758 -211.020285,-89.907341 -211.89295,-87.921929 -212.508533,-87.975994 -213.142071,-88.025927 -213.793538,-88.071411 -214.462904,-88.112127 -215.150135,-88.14776 -215.855192,-88.177993 -216.578032,-88.20251 -217.318606,-88.220994 -218.076865,-88.23313 -218.852753,-88.238603 -219.646208,-88.237099 -220.457168,-88.228303 -221.285563,-88.211901 -222.131322,-88.187582 -222.994368,-88.155033 -223.874618,-88.113943 -224.77199,-88.064001 -225.686392,-88.004897 -226.617731,-87.936323 -227.565911,-87.857971 -228.530828,-87.769533 -229.512378,-87.670706 -230.510449,-87.561182 -231.524928,-87.44066 -232.555697,-87.308837 -233.602632,-87.165412 -234.665608,-87.010084 -235.744494,-86.842556 -236.839155,-86.662531 -237.949452,-86.469712 -239.075244,-86.263806 -240.216382,-86.044521 -241.372717,-85.811565 -241.445489,-85.796545 -241.45459,-85.794663 -241.459141,-85.793722 -241.461352,-85.793229 -243.373884,-80.207324 -243.37244,-80.205579 -243.369421,-80.202047 -243.363383,-80.194982 -243.315089,-80.13851 -242.5442,-79.245701 -241.776939,-78.373007 -241.013604,-77.520292 -240.25449,-76.687414 -239.49989,-75.874228 -238.750095,-75.080587 -238.005393,-74.306336 -237.26607,-73.551322 -236.532411,-72.815384 -235.804695,-72.09836 -235.083203,-71.400083 -234.36821,-70.720384 -233.65999,-70.059089 -232.958814,-69.416021 -232.264951,-68.791001 -231.578666,-68.183845 -230.900223,-67.594367 -230.229883,-67.022377 -229.567902,-66.467681 -228.914535,-65.930083 -228.270035,-65.409384 -227.63465,-64.90538 -227.008627,-64.417867 -226.392209,-63.946635 -225.785636,-63.491472 -225.189145,-63.052164 -224.60297,-62.628493 -224.027343,-62.220239 -223.46249,-61.827177 -222.908638,-61.449081 -222.366006,-61.085722 -221.834814,-60.736868 -221.315277,-60.402285 -221.842643,-58.298647 -222.709779,-54.89303 -223.252661,-52.793343 -223.868945,-52.747962 -224.502289,-52.695622 -225.152616,-52.636014 -225.819845,-52.568829 -226.503893,-52.493761 -227.204669,-52.410504 -227.92208,-52.318751 -228.65603,-52.218199 -229.406417,-52.108545 -230.173134,-51.989486 -230.956073,-51.860722 -231.75512,-51.721953 -232.570158,-51.57288 -233.401063,-51.413206 -234.247711,-51.242637 -235.109971,-51.060876 -235.98771,-50.867632 -236.88079,-50.662613 -237.789069,-50.44553 -238.712402,-50.216094 -239.650637,-49.974018 -240.603623,-49.719019 -241.571201,-49.450812 -242.55321,-49.169117 -243.549484,-48.873653 -244.559855,-48.564145 -245.584149,-48.240316 -246.62219,-47.901892 -247.673797,-47.548601 -248.738787,-47.180176 -249.81697,-46.796347 -250.908155,-46.396849 -252.012147,-45.981421 -252.081567,-45.954922 -252.090248,-45.951605 -252.094589,-45.949946 -252.096692,-45.949104 -253.088416,-40.128744 -253.08671,-40.127253 -253.083164,-40.124251 -253.076071,-40.118246 -253.019344,-40.070253 -252.115221,-39.312664 -251.217906,-38.574349 -250.32767,-37.855124 -249.444784,-37.154802 -248.569512,-36.473193 -247.702117,-35.810104 -246.84286,-35.165339 -245.991999,-34.538697 -245.149787,-33.929977 -244.316477,-33.338972 -243.492316,-32.765473 -242.67755,-32.209269 -241.872423,-31.670144 -241.077171,-31.14788 -240.292033,-30.642257 -239.517241,-30.153052 -238.753025,-29.680037 -237.999611,-29.222984 -237.257223,-28.781661 -236.526081,-28.355832 -235.806401,-27.945261 -235.098396,-27.549707 -234.402278,-27.168928 -233.718251,-26.802678 -233.04652,-26.450711 -232.387283,-26.112776 -231.740738,-25.788621 -231.107076,-25.47799 -230.486486,-25.180627 -229.879155,-24.896271 -229.285264,-24.624662 -228.704991,-24.365535 -228.13851,-24.118624 -228.3216,-21.957633 -228.631208,-18.457019 -228.830246,-16.297438 -229.431269,-16.153786 -230.048015,-16.000528 -230.680359,-15.837372 -231.328171,-15.664026 -231.991318,-15.480201 -232.669664,-15.285609 -233.363067,-15.079964 -234.071383,-14.86298 -234.794462,-14.634376 -235.532153,-14.393869 -236.284298,-14.14118 -237.050737,-13.876031 -237.831307,-13.598148 -238.625839,-13.307255 -239.434162,-13.003082 -240.256099,-12.685359 -241.091474,-12.353819 -241.940101,-12.008195 -242.801795,-11.648224 -243.676367,-11.273646 -244.563621,-10.884202 -245.463361,-10.479635 -246.375385,-10.059691 -247.29949,-9.624118 -248.235467,-9.172668 -249.183106,-8.705093 -250.14219,-8.221148 -251.112501,-7.720593 -252.093819,-7.203188 -253.085917,-6.668697 -254.088568,-6.116886 -255.101538,-5.547524 -256.124595,-4.960382 -256.188865,-4.92309 -256.196902,-4.918424 -256.20092,-4.91609 -256.202861,-4.914922 -256.248091,0.98915 -256.246168,0.990347 -256.242186,0.992742 -256.234222,0.997531 -256.17053,1.035804 -255.156589,1.63855 -254.15246,2.223365 -253.158382,2.790473 -252.174589,3.340101 -251.201313,3.872479 -250.238784,4.387841 -249.287227,4.886422 -248.346864,5.368461 -247.417913,5.834199 -246.50059,6.283878 -245.595106,6.717746 -244.70167,7.13605 -243.820486,7.539042 -242.951757,7.926975 -242.095678,8.300105 -241.252446,8.658689 -240.422249,9.00299 -239.605275,9.333268 -238.801708,9.649789 -238.011726,9.95282 -237.235505,10.24263 -236.473218,10.51949 -235.725032,10.783672 -234.991113,11.035453 -234.271621,11.275109 -233.566713,11.502919 -232.876542,11.719164 -232.201257,11.924125 -231.541003,12.118088 -230.895923,12.301339 -230.266153,12.474164 -229.651828,12.636853 -229.053076,12.789696 -228.887147,14.952073 -228.631208,18.457019 -228.481247,20.620562 -229.051444,20.858765 -229.635619,21.108971 -230.233602,21.37145 -230.845218,21.646467 -231.470291,21.934288 -232.108637,22.235174 -232.760073,22.549386 -233.42441,22.877182 -234.101455,23.218816 -234.791012,23.574543 -235.492883,23.944612 -236.206864,24.329272 -236.93275,24.728769 -237.670331,25.143347 -238.419393,25.573245 -239.179721,26.018701 -239.951094,26.479952 -240.73329,26.95723 -241.526083,27.450764 -242.329242,27.960783 -243.142535,28.487509 -243.965726,29.031166 -244.798577,29.591971 -245.640844,30.170139 -246.492283,30.765885 -247.352645,31.379417 -248.221679,32.010943 -249.099131,32.660664 -249.984743,33.328783 -250.878255,34.015497 -251.779405,34.720999 -252.687926,35.44548 -253.60355,36.189128 -253.661006,36.236246 -253.66819,36.242141 -253.671782,36.245089 -253.67351,36.246554 -252.771075,42.081425 -252.768985,42.082299 -252.76467,42.084024 -252.756041,42.087473 -252.687035,42.115033 -251.589537,42.547327 -250.5046,42.963495 -249.432424,43.363797 -248.373204,43.748496 -247.327133,44.117856 -246.294399,44.472144 -245.275186,44.811628 -244.269675,45.13658 -243.278045,45.447272 -242.300467,45.743979 -241.337112,46.026978 -240.388145,46.296548 -239.453728,46.55297 -238.534019,46.796525 -237.629173,47.027498 -236.739338,47.246176 -235.864663,47.452844 -235.005288,47.647794 -234.161353,47.831315 -233.332992,48.0037 -232.520334,48.165242 -231.723507,48.316237 -230.942632,48.456981 -230.177829,48.587772 -229.42921,48.70891 -228.696887,48.820695 -227.980966,48.923428 -227.281547,49.017412 -226.59873,49.102951 -225.932608,49.18035 -225.283271,49.249915 -224.650803,49.311953 -224.035287,49.36677 -223.524638,51.474528 -222.709779,54.89303 -222.214704,57.004501 -222.739307,57.331085 -223.275781,57.67176 -223.823915,58.026762 -224.383496,58.396328 -224.954304,58.78069 -225.536119,59.180078 -226.128715,59.594719 -226.731867,60.024837 -227.345342,60.470653 -227.968908,60.932385 -228.602326,61.41025 -229.245358,61.90446 -229.89776,62.415224 -230.559286,62.942749 -231.229688,63.487238 -231.908713,64.048891 -232.596108,64.627906 -233.291614,65.224476 -233.994971,65.838792 -234.705917,66.471042 -235.424185,67.121409 -236.149508,67.790074 -236.881613,68.477215 -237.620229,69.183006 -238.365077,69.907618 -239.115881,70.651217 -239.872357,71.413967 -240.634223,72.196028 -241.401193,72.997557 -242.172978,73.818707 -242.949288,74.659628 -243.729829,75.520464 -244.514306,76.401358 -244.56346,76.457083 -244.569605,76.464054 -244.572678,76.467541 -244.574149,76.469263 -242.74742,82.083813 -242.745217,82.084341 -242.740681,82.085351 -242.731611,82.087372 -242.659077,82.103505 -241.506447,82.35415 -240.368802,82.590892 -239.246297,82.814022 -238.139084,83.023828 -237.04731,83.220603 -235.971117,83.404641 -234.910646,83.576236 -233.866031,83.735684 -232.837403,83.883284 -231.824889,84.019335 -230.828613,84.144136 -229.848693,84.25799 -228.885244,84.3612 -227.938376,84.45407 -227.008196,84.536904 -226.094807,84.610011 -225.198306,84.673695 -224.318788,84.728267 -223.456343,84.774035 -222.611056,84.811308 -221.783009,84.840399 -220.972279,84.861619 -220.178939,84.875279 -219.403059,84.881694 -218.644704,84.881176 -217.903932,84.87404 -217.180802,84.860601 -216.475365,84.841174 -215.787669,84.816073 -215.117757,84.785617 -214.465669,84.75012 -213.831441,84.709899 -213.215102,84.665271 -212.372957,86.66382 -211.020285,89.907341 -210.192917,91.912053 -210.658338,92.31856 -211.133217,92.740879 -211.617307,93.179212 -212.110359,93.633755 -212.612119,94.104704 -213.122333,94.592249 -213.640743,95.09658 -214.167088,95.61788 -214.701105,96.156331 -215.242528,96.712111 -215.791089,97.285396 -216.346517,97.876355 -216.908538,98.485158 -217.476877,99.111967 -218.051255,99.756945 -218.631391,100.420249 -219.217004,101.102031 -219.807807,101.802443 -220.403513,102.52163 -221.003832,103.259736 -221.608473,104.016899 -222.217141,104.793256 -222.829541,105.588937 -223.445375,106.40407 -224.064342,107.23878 -224.686141,108.093187 -225.310467,108.967407 -225.937016,109.861552 -226.56548,110.775733 -227.195548,111.710052 -227.826912,112.664611 -228.459257,113.639508 -229.09227,114.634834 -229.131849,114.697722 -229.136796,114.705589 -229.13927,114.709522 -229.140445,114.711459 -226.436735,119.960274 -226.434476,119.960441 -226.429837,119.960711 -226.42056,119.961251 -226.346378,119.96554 -225.168467,120.028044 -224.007578,120.079229 -222.863817,120.119407 -221.737287,120.148887 -220.628086,120.167981 -219.536308,120.177002 -218.462044,120.176263 -217.405379,120.166079 -216.366395,120.146764 -215.345169,120.118634 -214.341774,120.082005 -213.35628,120.037194 -212.388752,119.98452 -211.439248,119.924299 -210.507826,119.856849 -209.594538,119.782491 -208.699431,119.701542 -207.822549,119.614322 -206.96393,119.521151 -206.12361,119.422349 -205.30162,119.318235 -204.497985,119.209129 -203.712728,119.095352 -202.945866,118.977224 -202.197414,118.855064 -201.46738,118.729193 -200.75577,118.599929 -200.062585,118.467593 -199.38782,118.332504 -198.731469,118.19498 -198.09352,118.055341 -197.473956,117.913903 -196.872758,117.770985 -195.720929,119.608564 -193.865476,122.593099 -192.727244,124.439131 -193.12143,124.915033 -193.522414,125.408059 -193.929922,125.918369 -194.343675,126.446117 -194.763392,126.991455 -195.188791,127.554531 -195.619587,128.135489 -196.055494,128.73447 -196.496222,129.351611 -196.94148,129.987045 -197.390976,130.6409 -197.844415,131.313304 -198.301499,132.004377 -198.761931,132.714238 -199.225409,133.443 -199.691632,134.190774 -200.160295,134.957667 -200.631093,135.74378 -201.103719,136.549212 -201.577864,137.374057 -202.053217,138.218407 -202.529467,139.082347 -203.0063,139.96596 -203.483402,140.869324 -203.960457,141.792514 -204.437148,142.7356 -204.913155,143.698648 -205.388159,144.68172 -205.861839,145.684875 -206.333873,146.708165 -206.803939,147.751641 -207.271711,148.815348 -207.736865,149.899327 -207.765843,149.96775 -207.769464,149.976308 -207.771275,149.980588 -207.772125,149.982688 -204.261458,154.729827 -204.259201,154.729629 -204.254579,154.729152 -204.245335,154.728196 -204.171426,154.72053 -202.998743,154.593274 -201.844676,154.457577 -200.709281,154.313763 -199.59261,154.162153 -198.49471,154.003071 -197.415624,153.836842 -196.355389,153.663788 -195.314042,153.484235 -194.29161,153.298505 -193.288122,153.106923 -192.303597,152.909813 -191.338053,152.707499 -190.391503,152.500303 -189.463955,152.288551 -188.555415,152.072565 -187.665881,151.852667 -186.795351,151.629181 -185.943815,151.402429 -185.111261,151.172733 -184.297672,150.940413 -183.503027,150.705791 -182.727301,150.469186 -181.970463,150.230918 -181.232482,149.991307 -180.513317,149.750668 -179.812929,149.509321 -179.131269,149.267581 -178.468288,149.025764 -177.823932,148.784185 -177.198141,148.543156 -176.590853,148.30299 -176.002,148.063999 -175.431513,147.826493 -173.999831,149.45551 -171.689653,152.10376 -170.270036,153.743301 -170.582777,154.276272 -170.899482,154.827236 -171.219854,155.396306 -171.543591,155.983591 -171.870395,156.589194 -172.199962,157.213217 -172.531987,157.855757 -172.866165,158.516906 -173.20219,159.196752 -173.539751,159.895382 -173.878541,160.612874 -174.218246,161.349307 -174.558556,162.104753 -174.899155,162.879279 -175.23973,163.672951 -175.579963,164.485829 -175.919539,165.31797 -176.25814,166.169424 -176.595445,167.04024 -176.931135,167.930463 -177.264889,168.84013 -177.596386,169.769278 -177.925303,170.717938 -178.251317,171.686136 -178.574104,172.673896 -178.89334,173.681236 -179.208699,174.70817 -179.519856,175.754708 -179.826485,176.820855 -180.128259,177.906614 -180.424852,179.011981 -180.715936,180.136949 -181.001184,181.281507 -181.018811,181.353692 -181.021013,181.36272 -181.022113,181.367235 -181.022615,181.369444 -176.795916,185.491958 -176.79372,185.491401 -176.789234,185.490188 -176.780264,185.487762 -176.708541,185.46834 -175.571457,185.15462 -174.454103,184.835555 -173.356481,184.511473 -172.27859,184.182699 -171.220426,183.849562 -170.181978,183.512388 -169.163233,183.171502 -168.164173,182.82723 -167.184775,182.479896 -166.225013,182.129824 -165.284856,181.777337 -164.36427,181.422759 -163.463214,181.066409 -162.581645,180.70861 -161.719517,180.34968 -160.876776,179.989939 -160.053369,179.629705 -159.249234,179.269293 -158.464307,178.90902 -157.69852,178.5492 -156.951802,178.190146 -156.224075,177.83217 -155.51526,177.475583 -154.825271,177.120693 -154.154021,176.767809 -153.501417,176.417237 -152.867362,176.069282 -152.251757,175.724247 -151.654497,175.382433 -151.075474,175.044142 -150.514575,174.70967 -149.971685,174.379316 -149.446684,174.053373 -147.772229,175.431636 -145.067158,177.675013 -143.402924,179.0656 -143.626121,179.641837 -143.850344,180.236469 -144.075281,180.849561 -144.300619,181.481171 -144.526045,182.131355 -144.751244,182.800164 -144.975899,183.487643 -145.199694,184.193836 -145.422312,184.918781 -145.643434,185.662512 -145.862742,186.425059 -146.079917,187.206448 -146.294637,188.0067 -146.506583,188.825833 -146.715433,189.663859 -146.920866,190.520788 -147.12256,191.396624 -147.320193,192.291368 -147.513441,193.205015 -147.701983,194.137557 -147.885494,195.088983 -148.063652,196.059274 -148.236134,197.048411 -148.402616,198.056368 -148.562776,199.083115 -148.716288,200.128619 -148.862832,201.192842 -149.002083,202.27574 -149.133719,203.377268 -149.257418,204.497375 -149.372856,205.636004 -149.479713,206.793098 -149.577668,207.968591 -149.583487,208.042669 -149.584212,208.051933 -149.584574,208.056566 -149.584715,208.058827 -144.751453,211.449946 -144.749375,211.449044 -144.745141,211.447127 -144.736676,211.443293 -144.668998,211.412617 -143.596963,210.920559 -142.54526,210.42639 -141.513838,209.930433 -140.502645,209.433011 -139.511623,208.934447 -138.540709,208.43506 -137.589839,207.93517 -136.658941,207.435096 -135.747943,206.935153 -134.856765,206.435658 -133.985325,205.936924 -133.133538,205.439265 -132.301313,204.94299 -131.488556,204.448411 -130.695168,203.955834 -129.921048,203.465567 -129.166089,202.977913 -128.430181,202.493176 -127.713211,202.011658 -127.01506,201.533656 -126.335608,201.05947 -125.674728,200.589394 -125.032292,200.123722 -124.408167,199.662747 -123.802216,199.206756 -123.214299,198.756039 -122.644271,198.31088 -122.091985,197.871563 -121.55729,197.438369 -121.040031,197.011576 -120.540049,196.591462 -120.057182,196.1783 -119.591264,195.772361 -117.717404,196.864175 -114.6875,198.644577 -112.821752,199.750195 -112.949623,200.354772 -113.075557,200.977672 -113.199234,201.618907 -113.320337,202.278485 -113.438547,202.95641 -113.553545,203.652682 -113.665011,204.367296 -113.772627,205.100243 -113.876073,205.851511 -113.975029,206.621081 -114.069176,207.408933 -114.158194,208.21504 -114.241765,209.039373 -114.319568,209.881896 -114.391285,210.742573 -114.456596,211.621358 -114.515184,212.518206 -114.56673,213.433066 -114.610917,214.365881 -114.647426,215.316591 -114.675942,216.285133 -114.696148,217.271438 -114.707727,218.275434 -114.710366,219.297044 -114.703749,220.336187 -114.687563,221.392777 -114.661496,222.466725 -114.625235,223.557938 -114.578469,224.666317 -114.520888,225.791761 -114.452182,226.934163 -114.372045,228.093414 -114.280168,229.269397 -114.274029,229.343449 -114.273258,229.35271 -114.272873,229.357341 -114.272649,229.359596 -108.958003,231.93149 -108.956096,231.930267 -108.952225,231.927695 -108.944485,231.922553 -108.882604,231.881418 -107.903383,231.223766 -106.944569,230.567291 -106.006061,229.912305 -105.087755,229.259118 -104.189542,228.608039 -103.311308,227.959373 -102.452939,227.313427 -101.614315,226.670501 -100.79531,226.030899 -99.995797,225.394917 -99.215645,224.762853 -98.454718,224.135002 -97.712878,223.511656 -96.989982,222.893105 -96.285883,222.279639 -95.600432,221.671543 -94.933475,221.0691 -94.284854,220.472593 -93.654409,219.882299 -93.041976,219.298497 -92.447388,218.721459 -91.870472,218.151458 -91.311054,217.588763 -90.768957,217.03364 -90.243999,216.486353 -89.735995,215.947164 -89.244758,215.416331 -88.770095,214.89411 -88.311814,214.380755 -87.869715,213.876515 -87.443598,213.381638 -87.03326,212.896368 -86.638493,212.420949 -84.61376,213.198035 -81.337496,214.469351 -79.318555,215.261364 -79.34779,215.878624 -79.372172,216.513659 -79.391387,217.166429 -79.405118,217.836892 -79.41305,218.525001 -79.414868,219.230703 -79.410259,219.953943 -79.398908,220.694662 -79.380503,221.452795 -79.35473,222.228273 -79.321277,223.021024 -79.279834,223.830972 -79.23009,224.658036 -79.171735,225.502129 -79.104461,226.363164 -79.02796,227.241046 -78.941925,228.135679 -78.84605,229.04696 -78.74003,229.974783 -78.623562,230.919038 -78.496344,231.879612 -78.358073,232.856386 -78.20845,233.849238 -78.047177,234.858042 -77.873956,235.882666 -77.688491,236.922977 -77.490487,237.978837 -77.279653,239.050102 -77.055696,240.136626 -76.818327,241.238259 -76.567257,242.354847 -76.3022,243.48623 -76.022872,244.632247 -76.004934,244.704355 -76.002688,244.713373 -76.001564,244.717882 -76.000982,244.720071 -70.342598,246.406131 -70.340912,246.404617 -70.337504,246.401459 -70.330688,246.395141 -70.276207,246.344613 -69.415162,245.538399 -68.574071,244.73662 -67.752784,243.939569 -66.951147,243.147534 -66.169006,242.360802 -65.406199,241.579659 -64.662563,240.804385 -63.93793,240.03526 -63.232131,239.272562 -62.54499,238.516566 -61.876331,237.767542 -61.225973,237.02576 -60.593731,236.291486 -59.979419,235.564985 -59.382845,234.846518 -58.803816,234.136342 -58.242134,233.434714 -57.697599,232.741885 -57.170008,232.058105 -56.659155,231.383622 -56.164829,230.718678 -55.686819,230.063514 -55.224908,229.418369 -54.778879,228.783476 -54.34851,228.159067 -53.933576,227.545371 -53.533852,226.942612 -53.149106,226.351013 -52.779107,225.770791 -52.42362,225.202163 -52.082405,224.645341 -51.755223,224.100533 -51.441831,223.567945 -49.318665,224.010178 -45.880894,224.739481 -43.76105,225.197377 -43.69089,225.811333 -43.61309,226.442056 -43.527344,227.089455 -43.433347,227.753438 -43.330796,228.433908 -43.219389,229.130764 -43.098823,229.843899 -42.9688,230.573205 -42.82902,231.318567 -42.679185,232.079869 -42.518999,232.856988 -42.348168,233.6498 -42.166398,234.458173 -41.973397,235.281975 -41.768874,236.121068 -41.552542,236.975311 -41.324111,237.844557 -41.083298,238.728657 -40.829818,239.627459 -40.563389,240.540804 -40.283731,241.468531 -39.990565,242.410476 -39.683616,243.36647 -39.362607,244.336339 -39.027268,245.319908 -38.677327,246.316997 -38.312516,247.327422 -37.932569,248.350994 -37.537221,249.387523 -37.126211,250.436813 -36.69928,251.498667 -36.256169,252.572881 -35.796624,253.65925 -35.767351,253.727547 -35.763687,253.736087 -35.761855,253.740358 -35.760929,253.742425 -29.905357,254.498983 -29.903936,254.497218 -29.901078,254.493554 -29.895364,254.486225 -29.849694,254.427611 -29.129125,253.493716 -28.42754,252.5674 -27.744744,251.648926 -27.08054,250.738557 -26.434728,249.836549 -25.807104,248.943158 -25.19746,248.058636 -24.605587,247.183232 -24.031273,246.317193 -23.474301,245.460761 -22.934453,244.614176 -22.411507,243.777675 -21.905238,242.951492 -21.41542,242.135856 -20.941822,241.330995 -20.484211,240.537133 -20.042352,239.754491 -19.616006,238.983284 -19.204934,238.223728 -18.80889,237.476032 -18.42763,236.740404 -18.060906,236.017046 -17.708466,235.306159 -17.370056,234.60794 -17.045423,233.922581 -16.734306,233.250272 -16.436448,232.591199 -16.151584,231.945543 -15.87945,231.313483 -15.61978,230.695194 -15.372305,230.090848 -15.136753,229.500612 -14.912853,228.924649 -12.746241,229.020575 -9.236,229.188976 -7.070156,229.300896 -6.902419,229.895647 -6.724452,230.505722 -6.535966,231.130983 -6.336676,231.77129 -6.126298,232.426498 -5.90455,233.096458 -5.671151,233.781018 -5.425822,234.480022 -5.168288,235.19331 -4.898272,235.920718 -4.615502,236.662079 -4.319707,237.41722 -4.010618,238.185967 -3.687969,238.968142 -3.351495,239.763561 -3.000934,240.572039 -2.636025,241.393386 -2.25651,242.227408 -1.862135,243.073909 -1.452645,243.932689 -1.027791,244.803542 -0.587323,245.686262 -0.130996,246.580637 0.341433,247.486454 0.830206,248.403494 1.335559,249.331536 1.85773,250.270356 2.396949,251.219726 2.953448,252.179414 3.527453,253.149185 4.11919,254.128803 4.728878,255.118027 5.356738,256.116612 5.396588,256.179328 5.401574,256.187171 5.404067,256.191092 5.405313,256.192984 11.306418,256.000444 11.307537,255.998475 11.30977,255.994399 11.314234,255.986249 11.349911,255.921068 11.911341,254.883679 12.455249,253.856816 12.98187,252.840709 13.491439,251.835582 13.984196,250.84166 14.460382,249.85916 14.920244,248.888298 15.364027,247.929288 15.791982,246.982337 16.20436,246.047651 16.601415,245.125432 16.983405,244.215877 17.350589,243.319181 17.703227,242.435535 18.041583,241.565127 18.365924,240.708139 18.676516,239.864752 18.973631,239.035142 19.257539,238.219481 19.528514,237.417938 19.786834,236.630677 20.032775,235.85786 20.266617,235.099644 20.488642,234.356182 20.699132,233.627623 20.898373,232.914114 21.086652,232.215795 21.264257,231.532805 21.431477,230.865277 21.588604,230.213341 21.73593,229.577123 21.873751,228.956745 22.002361,228.352324 24.156303,228.09946 27.648101,227.702598 29.803851,227.465642 30.06482,228.025785 30.338346,228.599411 30.62469,229.18634 30.924112,229.786387 31.236868,230.399363 31.563214,231.025077 31.903402,231.663332 32.257681,232.313931 32.626301,232.97667 33.009504,233.651345 33.407535,234.337745 33.820633,235.035659 34.249034,235.74487 34.692975,236.465159 35.152686,237.196304 35.628396,237.938078 36.120333,238.690253 36.62872,239.452597 37.153776,240.224874 37.695721,241.006845 38.254769,241.79827 38.831131,242.598902 39.425016,243.408496 40.036631,244.2268 40.666177,245.05356 41.313855,245.88852 41.979861,246.73142 42.664387,247.581998 43.367624,248.43999 44.089759,249.305127 44.830974,250.177138 45.59145,251.05575 46.371364,251.940688 46.420757,251.9962 46.426937,252.003141 46.430027,252.006611 46.43156,252.008279 52.225362,250.871629 52.226151,250.869505 52.227701,250.865124 52.2308,250.856363 52.255559,250.786303 52.64331,249.672289 53.015454,248.571475 53.37226,247.48405 53.713996,246.410199 54.040936,245.350103 54.353352,244.303941 54.651522,243.271885 54.935722,242.254105 55.206233,241.250769 55.463336,240.262036 55.707316,239.288067 55.938456,238.329015 56.157044,237.385031 56.363369,236.456262 56.557721,235.542848 56.740391,234.644931 56.911672,233.762643 57.07186,232.896115 57.221251,232.045475 57.360141,231.210844 57.48883,230.392341 57.607617,229.59008 57.716805,228.804171 57.816694,228.034722 57.90759,227.281833 57.989796,226.545602 58.063619,225.826125 58.129364,225.123489 58.18734,224.437782 58.237854,223.769083 58.281216,223.117471 58.317736,222.483019 58.347725,221.865795 60.433212,221.270688 63.816131,220.318842 65.905954,219.739148 66.253397,220.250175 66.615397,220.772496 66.992183,221.305892 67.383981,221.850137 67.791016,222.405006 68.213507,222.970267 68.651673,223.545687 69.105728,224.13103 69.575885,224.726057 70.062351,225.330525 70.565334,225.944188 71.085035,226.566798 71.621655,227.198105 72.175389,227.837853 72.74643,228.485787 73.33497,229.141646 73.941194,229.805168 74.565285,230.476089 75.207424,231.15414 75.867788,231.839051 76.546549,232.530549 77.243878,233.228359 77.959941,233.932203 78.694901,234.6418 79.448917,235.356867 80.222144,236.077119 81.014736,236.80227 81.82684,237.532028 82.658602,238.266101 83.510163,239.004196 84.38166,239.746015 85.273227,240.491261 86.184995,241.239632 86.242654,241.286502 86.249867,241.292362 86.253474,241.295291 86.255255,241.296692 91.791696,239.24537 91.792134,239.243147 91.792962,239.238575 91.794615,239.22943 91.807815,239.156306 92.011845,237.994518 92.202587,236.848263 92.380337,235.717684 92.54539,234.60292 92.698044,233.504108 92.838599,232.421378 92.967353,231.354857 93.08461,230.304669 93.190672,229.270932 93.285842,228.253761 93.370426,227.253268 93.44473,226.269558 93.509062,225.302734 93.56373,224.352895 93.609043,223.420134 93.645312,222.504542 93.672846,221.606204 93.691959,220.725202 93.702962,219.861613 93.70617,219.015511 93.701895,218.186964 93.690452,217.376037 93.672157,216.582791 93.647325,215.807282 93.616272,215.049562 93.579314,214.309679 93.536768,213.587676 93.488951,212.883594 93.436181,212.197466 93.378774,211.529324 93.317049,210.879194 93.251323,210.247099 93.181914,209.633058 95.144932,208.711122 98.331356,207.228943 100.301127,206.321525 100.726046,206.7702 101.167144,207.227689 101.624613,207.693737 102.098641,208.168086 102.589412,208.650476 103.097106,209.140644 103.621902,209.638327 104.163973,210.143254 104.72349,210.655157 105.30062,211.173762 105.895528,211.698794 106.508373,212.229976 107.139312,212.767027 107.788498,213.309666 108.456081,213.857608 109.142206,214.410565 109.847016,214.96825 110.570649,215.530371 111.31324,216.096635 112.074919,216.666747 112.855815,217.240409 113.65605,217.817324 114.475745,218.397188 115.315014,218.9797 116.17397,219.564555 117.052722,220.151446 117.951372,220.740065 118.870021,221.330102 119.808765,221.921245 120.767697,222.513182 121.746905,223.105597 122.746473,223.698175 123.76648,224.290597 123.830911,224.327611 123.838971,224.332237 123.843001,224.334551 123.844983,224.335647 128.980674,221.422782 128.98075,221.420517 128.980833,221.415871 128.980998,221.40658 128.982297,221.332285 128.997321,220.152813 129.001721,218.990805 128.995811,217.846353 128.979906,216.71955 128.954322,215.610479 128.919374,214.519224 128.87538,213.44586 128.822656,212.390462 128.761521,211.353099 128.692293,210.333834 128.615291,209.332728 128.530835,208.349838 128.439245,207.385214 128.34084,206.438906 128.235941,205.510955 128.124868,204.601402 128.007942,203.71028 127.885485,202.837621 127.757817,201.983451 127.625258,201.147791 127.48813,200.330659 127.346754,199.532069 127.20145,198.75203 127.052539,197.990547 126.900341,197.247621 126.745177,196.523247 126.587364,195.817419 126.427224,195.130125 126.265074,194.461347 126.101233,193.811066 125.936019,193.179257 125.769749,192.565891 125.60274,191.970934 127.392449,190.746047 130.299851,188.771924 132.098554,187.560283 132.589942,187.934987 133.098715,188.315794 133.62502,188.702423 134.169,189.09459 134.730796,189.492008 135.310544,189.894389 135.908378,190.301443 136.524425,190.712878 137.158812,191.128399 137.811659,191.54771 138.483084,191.970513 139.1732,192.396509 139.882118,192.825396 140.609942,193.256871 141.356776,193.690629 142.122717,194.126364 142.907858,194.563767 143.712291,195.00253 144.5361,195.442341 145.379369,195.882888 146.242174,196.323857 147.12459,196.764934 148.026687,197.205801 148.948529,197.646141 149.890179,198.085636 150.851695,198.523965 151.833129,198.960808 152.83453,199.395843 153.855945,199.828746 154.897412,200.259194 155.958969,200.686862 157.040649,201.111423 158.142479,201.532553 158.212013,201.558752 158.22071,201.562026 158.225059,201.563663 158.227192,201.564427 162.82912,197.86546 162.828832,197.863213 162.828169,197.858613 162.826841,197.849415 162.816206,197.775875 162.641834,196.609267 162.459778,195.4616 162.270362,194.332917 162.073911,193.223257 161.87075,192.132652 161.661205,191.061134 161.445601,190.008728 161.224262,188.975454 160.997514,187.961331 160.765681,186.96637 160.529088,185.990581 160.288059,185.033966 160.042918,184.096527 159.793989,183.178258 159.541594,182.279151 159.286058,181.399193 159.0277,180.538368 158.766844,179.696653 158.50381,178.874023 158.238919,178.070448 157.97249,177.285895 157.704842,176.520325 157.436293,175.773696 157.16716,175.045961 156.897759,174.337069 156.628406,173.646967 156.359414,172.975594 156.091098,172.322888 155.823768,171.688781 155.557737,171.073203 155.293313,170.476078 155.030805,169.897326 154.770521,169.336865 156.340568,167.84075 158.893649,165.425811 160.474698,163.941329 161.019829,164.232355 161.583099,164.526618 162.164608,164.823816 162.764452,165.123643 163.382723,165.425797 164.019511,165.729969 164.674898,166.035853 165.348967,166.343138 166.041792,166.651515 166.753447,166.960673 167.484,167.270297 168.233514,167.580073 169.00205,167.889688 169.789663,168.198824 170.596405,168.507165 171.422323,168.814391 172.267462,169.120185 173.13186,169.424226 174.015552,169.726193 174.918569,170.025765 175.840938,170.322621 176.78268,170.616436 177.743815,170.906887 178.724355,171.193651 179.724312,171.476403 180.743689,171.754819 181.782488,172.028572 182.840706,172.297336 183.918336,172.560787 185.015365,172.818598 186.131778,173.070441 187.267555,173.315992 188.42267,173.554922 188.495506,173.569627 188.504616,173.571464 188.509172,173.572382 188.511399,173.572794 192.460378,169.183526 192.459733,169.181354 192.45834,169.176921 192.455555,169.168055 192.43326,169.097173 192.074009,167.973643 191.710212,166.870043 191.342195,165.78636 190.970286,164.722582 190.594812,163.67869 190.216097,162.654662 189.834466,161.650469 189.450245,160.666082 189.063756,159.701464 188.675323,158.756576 188.285266,157.831375 187.893906,156.925812 187.501564,156.039835 187.108558,155.173389 186.715205,154.326412 186.321822,153.498841 185.928724,152.690606 185.536225,151.901636 185.144639,151.131852 184.754275,150.381175 184.365445,149.64952 183.978457,148.936798 183.593618,148.242915 183.211233,147.567776 182.831607,146.91128 182.455041,146.273321 182.081837,145.653791 181.712294,145.052579 181.346709,144.469566 180.985377,143.904634 180.628591,143.357658 180.276645,142.82851 179.929826,142.31706 181.239548,140.588466 183.372184,137.795257 184.694631,136.07638 185.279387,136.276192 185.882566,136.47629 186.504218,136.676358 187.14439,136.876081 187.803124,137.075144 188.480458,137.27323 189.176425,137.470021 189.891057,137.665199 190.624378,137.858446 191.376409,138.049442 192.147169,138.237867 192.936668,138.423402 193.744917,138.605725 194.57192,138.784516 195.417676,138.959453 196.282182,139.130215 197.165429,139.296479 198.067405,139.457923 198.988092,139.614226 199.92747,139.765065 200.885514,139.910117 201.862192,140.049061 202.857472,140.181575 203.871315,140.307336 204.903679,140.426022 205.954516,140.537312 207.023776,140.640885 208.111403,140.736419 209.217338,140.823595 210.341517,140.902091 211.483872,140.971588 212.644329,141.031767 213.822813,141.082309 213.897065,141.085141 213.906352,141.085492 213.910995,141.085667 213.91326,141.085717 217.107013,136.119828 217.106028,136.117788 217.103942,136.113635 217.09977,136.105331 217.066394,136.038943 216.531569,134.987591 215.995452,133.956639 215.458367,132.946024 214.920632,131.95568 214.382567,130.985537 213.844491,130.035519 213.306719,129.105548 212.769566,128.195541 212.233347,127.305412 211.698373,126.43507 211.164954,125.584419 210.6334,124.753362 210.104018,123.941794 209.577113,123.149611 209.052989,122.376701 208.531949,121.622949 208.014292,120.888238 207.500316,120.172446 206.990318,119.475446 206.484593,118.797109 205.983432,118.137301 205.487127,117.495885 204.995965,116.872721 204.510232,116.267664 204.030212,115.680565 203.556187,115.111273 203.088437,114.559632 202.627238,114.025484 202.172865,113.508666 201.72559,113.009011 201.285684,112.52635 200.853414,112.060511 200.429044,111.611317 201.44452,109.695014 203.101476,106.595878 204.131071,104.687124 204.740307,104.790548 205.367772,104.891297 206.013467,104.989055 206.677387,105.083501 207.359522,105.174317 208.05986,105.261186 208.778382,105.343787 209.515069,105.421803 210.269892,105.494914 211.042823,105.562803 211.833827,105.62515 212.642864,105.681637 213.469894,105.731947 214.314867,105.775762 215.177733,105.812765 216.058435,105.842639 216.956915,105.865067 217.873108,105.879734 218.806946,105.886324 219.758355,105.884522 220.72726,105.874015 221.713579,105.85449 222.717227,105.825633 223.738114,105.787134 224.776148,105.73868 225.831229,105.679963 226.903257,105.610673 227.992125,105.530503 229.097722,105.439145 230.219935,105.336293 231.358644,105.221644 232.513727,105.094893 233.685058,104.955739 233.758803,104.946623 233.768025,104.94548 233.772637,104.944908 233.77488,104.944594 236.13069,99.530698 236.12939,99.528842 236.126665,99.525078 236.121216,99.517551 236.077622,99.457376 235.381074,98.505431 234.686524,97.573828 233.994279,96.662455 233.304646,95.771195 232.617927,94.899926 231.934425,94.048524 231.254439,93.216861 230.578267,92.404804 229.906205,91.612218 229.238546,90.838962 228.575581,90.084893 227.917599,89.349865 227.264888,88.633726 226.617731,87.936323 225.976411,87.257497 225.341208,86.597087 224.712398,85.954928 224.090257,85.330853 223.475057,84.724688 222.867068,84.136259 222.266557,83.565388 221.673788,83.011891 221.089024,82.475585 220.512523,81.95628 219.944542,81.453784 219.385335,80.967904 218.835152,80.498439 218.294242,80.045189 217.76285,79.60795 217.241217,79.186514 216.729583,78.780669 216.228185,78.390204 215.737255,78.0149 216.432184,75.960519 217.570546,72.635721 218.280623,70.586527 218.898559,70.590883 219.534061,70.589675 220.187076,70.58259 220.857548,70.569313 221.545418,70.549531 222.250621,70.522933 222.973089,70.489205 223.71275,70.448038 224.469527,70.39912 225.243338,70.342143 226.0341,70.276796 226.841722,70.202774 227.666112,70.119767 228.507171,70.027472 229.364799,69.925582 230.238889,69.813794 231.129331,69.691805 232.036012,69.559314 232.958814,69.416021 233.897614,69.261626 234.852286,69.095832 235.822701,68.918343 236.808723,68.728864 237.810214,68.527101 238.827033,68.312763 239.859032,68.085559 240.906063,67.845201 241.96797,67.591402 243.044595,67.323877 244.135777,67.042341 245.241349,66.746515 246.361142,66.436117 247.494982,66.11087 247.56631,66.090043 247.575229,66.087435 247.57969,66.086131 247.581854,66.085461 249.038706,60.363775 249.037126,60.362152 249.033832,60.358874 249.027246,60.352318 248.974564,60.299916 248.134333,59.472032 247.299338,58.663907 246.469863,57.87538 245.646192,57.106286 244.828605,56.356457 244.017379,55.625722 243.212791,54.913907 242.415112,54.220831 241.624613,53.546315 240.841561,52.890172 240.06622,52.252216 239.298853,51.632254 238.539717,51.030091 237.789069,50.44553 237.047163,49.878369 236.314248,49.328406 235.590572,48.795431 234.876379,48.279235 234.17191,47.779605 233.477403,47.296325 232.793094,46.829175 232.119214,46.377933 231.455993,45.942374 230.803655,45.522271 230.162424,45.117394 229.532517,44.727508 228.914152,44.352378 228.30754,43.991766 227.712891,43.64543 227.13041,43.313127 226.5603,42.99461 226.00276,42.689631 225.457984,42.397938 225.814368,40.258687 226.404654,36.794338 226.776821,34.657775 227.387454,34.562951 228.014533,34.459818 228.657955,34.348073 229.317615,34.227416 229.993403,34.097549 230.685208,33.958172 231.39291,33.80899 232.116388,33.649705 232.855518,33.480026 233.610169,33.299658 234.380208,33.108311 235.165498,32.905695 235.965897,32.691522 236.78126,32.465506 237.611437,32.227363 238.456276,31.976809 239.315619,31.713563 240.189306,31.437346 241.077171,31.14788 241.979048,30.84489 242.894762,30.528103 243.824138,30.197247 244.766997,29.852052 245.723154,29.492252 246.692423,29.11758 247.674613,28.727774 248.669528,28.322573 249.676971,27.901719 250.69674,27.464955 251.72863,27.012028 252.772432,26.542686 253.827933,26.05668 254.894917,25.553765 254.961979,25.521765 254.970365,25.517761 254.974559,25.515758 254.976587,25.51475 255.496751,19.633462 255.494931,19.632114 255.491154,19.629406 255.483601,19.623992 255.423196,19.580719 254.461044,18.898338 253.507229,18.234621 252.562007,17.589362 251.625631,16.962354 250.69835,16.353386 249.780412,15.762244 248.872059,15.188711 247.973533,14.632567 247.085071,14.09359 246.206906,13.571555 245.339271,13.066234 244.482391,12.577394 243.636493,12.104803 242.801795,11.648224 241.978518,11.207419 241.166873,10.782144 240.367074,10.372158 239.579325,9.977211 238.803833,9.597056 238.040796,9.231441 237.290413,8.880111 236.552875,8.54281 235.828374,8.21928 235.117094,7.90926 234.41922,7.612486 233.734928,7.328693 233.064396,7.057614 232.407793,6.798979 231.765288,6.552517 231.137045,6.317953 230.523224,6.095013 229.923982,5.883419 229.33947,5.682892 229.348079,3.514175 z"/><g class="guides"><polyline fill="none" stroke="#444" stroke-width="0.5" stroke-miterlimit="10" points="10,0 -10,0"/><polyline fill="none" stroke="#444" stroke-width="0.5" stroke-miterlimit="10" points="0,10 0,-10"/></g><circle fill="#c00" class="firstmarker" stroke="none" stroke-miterlimit="10" cx="243.102717" cy="-17.751946" r="4.90625"/><g class="geartext"><g class="text"><polyline fill="none" stroke="#444" stroke-width="0.5" stroke-linecap="square" stroke-miterlimit="1"  points="182.84 -111.92 182.05 -113.19 181.26 -114.47 180.45 -115.73 179.64 -116.99 "/><polyline fill="none" stroke="#444" stroke-width="0.5" stroke-linecap="square" stroke-miterlimit="1"  points="178.72 -112.86 183.79 -116.07 "/><polyline fill="none" stroke="#444" stroke-width="0.5" stroke-linecap="square" stroke-miterlimit="1"  points="185.4 -113.48 183.33 -113.99 181.26 -114.47 179.19 -114.92 177.12 -115.35 "/><polyline fill="none" stroke="#444" stroke-width="0.5" stroke-linecap="square" stroke-miterlimit="1"  points="180.28 -110.35 180.78 -112.4 181.26 -114.47 181.71 -116.54 182.15 -118.63 "/><polyline fill="none" stroke="#444" stroke-width="0.5" stroke-linecap="square" stroke-miterlimit="1"  points="184.03 -103.98 182 -104.52 181.26 -105.79 181.81 -107.82 186.97 -110.88 189.04 -110.32 189.8 -109 189.26 -106.93 184.03 -103.98 "/><polyline fill="none" stroke="#444" stroke-width="0.5" stroke-linecap="square" stroke-miterlimit="1"  points="198.28 -92.7 190.12 -88.88 191.53 -91.18 192.91 -93.5 194.27 -95.84 195.61 -98.21 187.56 -94.17 "/><polyline fill="none" stroke="#444" stroke-width="0.5" stroke-linecap="square" stroke-miterlimit="1"  points="199.22 -83.14 198.64 -84.53 198.04 -85.92 197.44 -87.3 196.82 -88.68 "/><polyline fill="none" stroke="#444" stroke-width="0.5" stroke-linecap="square" stroke-miterlimit="1"  points="196.46 -81.98 195.88 -83.35 195.29 -84.72 194.69 -86.09 194.08 -87.45 "/><polyline fill="none" stroke="#444" stroke-width="0.5" stroke-linecap="square" stroke-miterlimit="1"  points="201.76 -80.9 203.72 -80.03 204.27 -78.61 204.82 -77.18 203.95 -75.22 202.54 -74.7 200.61 -75.59 199.72 -73.66 198.32 -73.15 196.4 -74 195.87 -75.37 195.34 -76.74 196.19 -78.67 "/><polyline fill="none" stroke="#444" stroke-width="0.5" stroke-linecap="square" stroke-miterlimit="1"  points="200.07 -76.99 200.61 -75.59 "/><polyline fill="none" stroke="#444" stroke-width="0.5" stroke-linecap="square" stroke-miterlimit="1"  points="204.07 -65.68 203.6 -67.1 203.13 -68.53 202.64 -69.95 203.56 -71.86 204.98 -72.36 206.9 -71.41 207.39 -69.96 207.88 -68.51 206.92 -66.6 202.64 -65.22 200.75 -66.16 198.86 -67.09 198.39 -68.48 "/><polyline fill="none" stroke="#444" stroke-width="0.5" stroke-linecap="square" stroke-miterlimit="1"  points="207.04 -55.61 207.42 -54.16 207.8 -52.7 208.16 -51.25 209.97 -50.14 211.43 -50.49 212.53 -52.32 212.16 -53.81 211.78 -55.29 211.38 -56.77 202.69 -54.44 "/><polyline fill="none" stroke="#444" stroke-width="0.5" stroke-linecap="square" stroke-miterlimit="1"  points="204.8 -45.88 210.65 -47.2 "/><polyline fill="none" stroke="#444" stroke-width="0.5" stroke-linecap="square" stroke-miterlimit="1"  points="212.12 -47.52 213.58 -47.85 "/><polyline fill="none" stroke="#444" stroke-width="0.5" stroke-linecap="square" stroke-miterlimit="1"  points="208.02 -37.51 206.28 -38.69 207.47 -40.42 214.84 -41.86 "/><polyline fill="none" stroke="#444" stroke-width="0.5" stroke-linecap="square" stroke-miterlimit="1"  points="212.45 -38.31 212.17 -39.8 211.89 -41.28 211.6 -42.76 211.29 -44.24 "/><polyline fill="none" stroke="#444" stroke-width="0.5" stroke-linecap="square" stroke-miterlimit="1"  points="207.92 -28.55 207.72 -30 207.5 -31.45 207.28 -32.91 208.52 -34.6 211.48 -35.09 213.21 -33.85 213.44 -32.35 213.66 -30.86 213.87 -29.36 "/><polyline fill="none" stroke="#444" stroke-width="0.5" stroke-linecap="square" stroke-miterlimit="1"  points="211.28 -26 212.95 -24.7 214.61 -23.37 214.76 -21.86 213.42 -20.22 208.94 -19.8 "/><polyline fill="none" stroke="#444" stroke-width="0.5" stroke-linecap="square" stroke-miterlimit="1"  points="208.3 -25.63 217.24 -26.73 "/><polyline fill="none" stroke="#444" stroke-width="0.5" stroke-linecap="square" stroke-miterlimit="1"  points="209.66 -9.54 209.72 -8.07 209.77 -6.61 209.81 -5.14 211.34 -3.7 217.34 -3.8 218.81 -5.36 218.77 -6.89 218.71 -8.42 218.65 -9.95 "/><polyline fill="none" stroke="#444" stroke-width="0.5" stroke-linecap="square" stroke-miterlimit="1"  points="218.71 -8.42 209.72 -8.07 "/><polyline fill="none" stroke="#444" stroke-width="0.5" stroke-linecap="square" stroke-miterlimit="1"  points="215.81 5.29 215.84 3.78 215.86 2.27 215.87 0.76 215.87 -0.76 "/><polyline fill="none" stroke="#444" stroke-width="0.5" stroke-linecap="square" stroke-miterlimit="1"  points="212.81 5.21 212.84 3.72 212.86 2.23 212.87 0.74 212.87 -0.74 "/><polyline fill="none" stroke="#444" stroke-width="0.5" stroke-linecap="square" stroke-miterlimit="1"  points="213.9 14.24 214 12.74 214.08 11.24 214.15 9.75 215.72 8.31 217.21 8.36 218.65 9.95 218.57 11.48 218.49 13.01 216.89 14.44 212.4 14.14 211 12.56 209.59 11.01 209.66 9.54 "/><polyline fill="none" stroke="#444" stroke-width="0.5" stroke-linecap="square" stroke-miterlimit="1"  points="210.69 16.99 209.2 16.87 "/><polyline fill="none" stroke="#444" stroke-width="0.5" stroke-linecap="square" stroke-miterlimit="1"  points="217.9 20.64 217.75 22.17 217.59 23.69 217.42 25.21 217.24 26.73 212.95 24.7 208.64 22.72 "/><polyline fill="none" stroke="#444" stroke-width="0.5" stroke-linecap="square" stroke-miterlimit="1"  points="215.92 35.83 216.17 34.32 216.4 32.8 216.63 31.29 216.84 29.77 213.87 29.36 213.66 30.86 213.44 32.35 213.21 33.85 211.48 35.09 208.52 34.6 207.28 32.91 207.5 31.45 207.72 30 209.41 28.75 "/><polyline fill="none" stroke="#444" stroke-width="0.5" stroke-linecap="square" stroke-miterlimit="1"  points="209.51 45.4 209.19 46.87 208.86 48.33 208.51 49.79 209.62 51.61 211.07 51.97 212.89 50.84 213.24 49.35 213.58 47.85 213.91 46.36 205.11 44.45 "/><polyline fill="none" stroke="#444" stroke-width="0.5" stroke-linecap="square" stroke-miterlimit="1"  points="207.26 60.36 207.68 58.91 208.09 57.45 208.49 56 208.87 54.54 "/><polyline fill="none" stroke="#444" stroke-width="0.5" stroke-linecap="square" stroke-miterlimit="1"  points="204.38 59.52 204.8 58.09 205.2 56.65 205.59 55.22 205.97 53.78 "/><polyline fill="none" stroke="#444" stroke-width="0.5" stroke-linecap="square" stroke-miterlimit="1"  points="201.71 68.05 202.18 66.63 202.64 65.22 203.09 63.8 203.53 62.38 205 64.4 206.45 66.44 207.88 68.51 199.33 65.69 "/><polyline fill="none" stroke="#444" stroke-width="0.5" stroke-linecap="square" stroke-miterlimit="1"  points="199.53 78.39 198.98 79.78 198.41 81.17 197.84 82.56 198.64 84.53 200.02 85.12 201.99 84.29 202.58 82.88 203.15 81.46 203.72 80.03 195.34 76.74 "/><polyline fill="none" stroke="#444" stroke-width="0.5" stroke-linecap="square" stroke-miterlimit="1"  points="191.95 84.87 194.69 86.09 196.82 88.68 198.92 91.31 195.56 91.43 192.21 91.5 189.5 90.21 "/><polyline fill="none" stroke="#444" stroke-width="0.5" stroke-linecap="square" stroke-miterlimit="1"  points="194.69 86.09 194.08 87.45 193.47 88.8 192.84 90.15 192.21 91.5 "/><polyline fill="none" stroke="#444" stroke-width="0.5" stroke-linecap="square" stroke-miterlimit="1"  points="190.85 100.89 191.55 99.55 192.24 98.21 192.92 96.86 193.6 95.51 "/><polyline fill="none" stroke="#444" stroke-width="0.5" stroke-linecap="square" stroke-miterlimit="1"  points="188.2 99.49 188.89 98.17 189.57 96.85 190.24 95.52 190.91 94.18 "/><polyline fill="none" stroke="#444" stroke-width="0.5" stroke-linecap="square" stroke-miterlimit="1"  points="181.26 105.79 182 104.52 182.73 103.24 183.44 101.96 184.15 100.67 186.79 102.11 187.38 104.15 186.64 105.45 185.9 106.76 186.45 108.81 187.74 109.57 189.8 109 190.56 107.67 191.31 106.33 190.73 104.27 "/><polyline fill="none" stroke="#444" stroke-width="0.5" stroke-linecap="square" stroke-miterlimit="1"  points="183.62 110.64 182.84 111.92 182.05 113.19 181.26 114.47 179.19 114.92 177.93 114.11 177.45 112.06 178.23 110.82 179 109.57 181.05 109.09 184.9 111.41 185.4 113.48 185.88 115.57 185.06 116.87 "/></g></g><g class="guides gearguides" opacity="0.2"><circle class="pitch" fill="none" stroke="#f00" stroke-miterlimit="10" cx="0" cy="0" r="243.75"/><circle class="outer" fill="none" stroke="#ccc" stroke-miterlimit="10" stroke-dasharray="2,2" cx="0" cy="0" r="256.25"/><circle class="base" fill="none" stroke="#00f" stroke-miterlimit="10" stroke-dasharray="2,2" cx="0" cy="0" r="219.08"/></g></svg>