<?xml version="1.0" encoding="utf-8"?><!-- Generator: Iparigrafika Gear Generator by Abel Vincze http://geargenerator.com/ --><svg version="1.2" class="svggear" xmlns="http://www.w3.org/2000/svg" xmlns:xlink="http://www.w3.org/1999/xlink" x="0px" y="0px" width="488px" height="488px" viewBox="-244 -244 488 488" overflow="scroll" xml:space="preserve"><path id="gearpoly3" data-id="3" class="gear" fill="#ddd" stroke="#444" stroke-width="1" stroke-miterlimit="10" d="M191.875,0 191.951896,-1.191205 192.469244,-1.336673 193.004931,-1.493431 193.558775,-1.66188 194.130585,-1.842423 194.720165,-2.035458 195.327313,-2.241379 195.95182,-2.46058 196.593471,-2.693449 197.252044,-2.940374 197.927311,-3.201738 198.61904,-3.47792 199.326988,-3.769297 200.050912,-4.076243 200.790557,-4.399127 201.545666,-4.738314 202.315975,-5.094168 203.101213,-5.467047 203.901104,-5.857305 204.715366,-6.265293 205.543712,-6.691358 206.385849,-7.135842 207.241477,-7.599084 208.110291,-8.081418 208.991982,-8.583173 209.886234,-9.104675 210.792726,-9.646244 211.71113,-10.208196 212.641117,-10.790843 213.582347,-11.394492 214.53448,-12.019444 215.497168,-12.665996 216.470059,-13.33444 217.452795,-14.025063 217.947742,-14.37878 218.19609,-14.557755 218.258267,-14.60272 218.260211,-14.604126 218.261864,-14.605514 217.795169,-20.416341 217.793315,-20.417446 217.791171,-20.418524 217.722615,-20.45299 217.448886,-20.590034 216.90383,-20.860223 215.823467,-21.385149 214.756364,-21.889751 213.702826,-22.37437 212.663155,-22.839351 211.637647,-23.285041 210.626591,-23.711794 209.630271,-24.119965 208.648965,-24.509916 207.682944,-24.88201 206.732474,-25.236615 205.797816,-25.574104 204.879222,-25.894849 203.976941,-26.199231 203.091212,-26.48763 202.222272,-26.760432 201.370349,-27.018025 200.535665,-27.2608 199.718436,-27.489151 198.918872,-27.703475 198.137175,-27.904173 197.373543,-28.091645 196.628165,-28.266299 195.901224,-28.428541 195.192899,-28.578781 194.503358,-28.717433 193.832766,-28.84491 193.18128,-28.96163 192.549049,-29.06801 191.936218,-29.164473 191.342923,-29.251441 190.769295,-29.329338 190.215455,-29.39859 189.681522,-29.459625 189.415495,-30.623288 188.407569,-36.312583 188.257638,-37.496813 188.738107,-37.737562 189.234447,-37.992866 189.746403,-38.263087 190.273711,-38.548583 190.816105,-38.849708 191.37331,-39.166811 191.945047,-39.50024 192.531032,-39.850334 193.130973,-40.217433 193.744574,-40.601868 194.371534,-41.00397 195.011546,-41.424062 195.664297,-41.862464 196.32947,-42.319491 197.006741,-42.795455 197.695784,-43.29066 198.396264,-43.805407 199.107843,-44.339993 199.830178,-44.894709 200.562922,-45.46984 201.305721,-46.065667 202.058217,-46.682466 202.820049,-47.320508 203.590849,-47.980057 204.370245,-48.661373 205.157863,-49.364709 205.953321,-50.090316 206.756234,-50.838435 207.566214,-51.609304 208.382868,-52.403154 209.205798,-53.220212 210.034603,-54.060697 210.868879,-54.924824 211.28794,-55.365818 211.497929,-55.588559 211.550473,-55.644478 211.552115,-55.646227 211.553477,-55.647902 209.995508,-61.265397 209.993479,-61.266132 209.99117,-61.266785 209.91733,-61.287653 209.622611,-61.370417 209.036272,-61.532571 207.87609,-61.843551 206.732774,-62.137084 205.60656,-62.413562 204.497679,-62.673381 203.406356,-62.916938 202.332808,-63.144635 201.277245,-63.356876 200.239874,-63.554066 199.220891,-63.736615 198.220488,-63.904935 197.23885,-64.059439 196.276155,-64.200543 195.332575,-64.328667 194.408272,-64.444229 193.503407,-64.547653 192.61813,-64.639364 191.752584,-64.719786 190.906908,-64.789349 190.081231,-64.848481 189.275679,-64.897615 188.490367,-64.937181 187.725405,-64.967615 186.980897,-64.989351 186.256939,-65.002825 185.553619,-65.008474 184.871021,-65.006737 184.209218,-64.998053 183.56828,-64.982861 182.948268,-64.961601 182.349236,-64.934716 181.771231,-64.902645 181.214294,-64.865831 180.678459,-64.824715 180.197015,-65.917004 178.130597,-71.312734 177.759258,-72.447189 178.185483,-72.774516 178.624537,-73.11914 179.076101,-73.481366 179.53985,-73.861496 180.015454,-74.259828 180.502577,-74.676653 181.000881,-75.112258 181.51002,-75.566924 182.029645,-76.040928 182.559403,-76.534541 183.098935,-77.04803 183.647878,-77.581653 184.205865,-78.135666 184.772524,-78.71032 185.34748,-79.305856 185.930352,-79.922514 186.520757,-80.560526 187.118306,-81.220119 187.722607,-81.901513 188.333265,-82.604923 188.949879,-83.330559 189.572047,-84.078622 190.199361,-84.849311 190.831411,-85.642816 191.467784,-86.459321 192.10806,-87.299006 192.751821,-88.162041 193.398642,-89.048593 194.048097,-89.958821 194.699756,-90.892878 195.353185,-91.850911 196.00795,-92.83306 196.663612,-93.839458 196.991642,-94.351791 197.155682,-94.610247 197.196693,-94.6751 197.197975,-94.677128 197.198995,-94.679031 194.606063,-99.900163 194.603931,-99.9005 194.601541,-99.900705 194.525086,-99.907221 194.22003,-99.932714 193.613598,-99.980972 192.415529,-100.066766 191.237323,-100.13862 190.079137,-100.196965 188.941125,-100.242231 187.823429,-100.274853 186.726189,-100.295265 185.649536,-100.303903 184.593592,-100.301206 183.558476,-100.287613 182.544297,-100.263564 181.551159,-100.229499 180.579157,-100.185863 179.62838,-100.133097 178.698911,-100.071645 177.790825,-100.001954 176.904189,-99.924467 176.039065,-99.83963 175.195506,-99.747891 174.37356,-99.649694 173.573266,-99.545488 172.794658,-99.435718 172.037761,-99.320832 171.302593,-99.201276 170.589168,-99.077496 169.897489,-98.94994 169.227555,-98.819051 168.579355,-98.685277 167.952875,-98.549061 167.348091,-98.410848 166.764972,-98.271081 166.203482,-98.130201 165.663577,-97.988651 165.145206,-97.846871 164.465745,-98.828307 161.415522,-103.735457 160.836196,-104.779135 161.192771,-105.181211 161.558671,-105.602698 161.933523,-106.043837 162.316951,-106.504863 162.708575,-106.986005 163.108011,-107.487486 163.514871,-108.009523 163.928763,-108.552328 164.349292,-109.116106 164.77606,-109.701057 165.208663,-110.307373 165.646697,-110.935241 166.089753,-111.584842 166.537418,-112.256352 166.989278,-112.949937 167.444913,-113.665761 167.903904,-114.403978 168.365826,-115.164738 168.830252,-115.948183 169.296753,-116.754449 169.764897,-117.583667 170.234249,-118.435958 170.704373,-119.31144 171.17483,-120.210221 171.645177,-121.132405 172.114972,-122.078088 172.583769,-123.04736 173.05112,-124.040302 173.516577,-125.056991 173.979687,-126.097496 174.44,-127.161879 174.897059,-128.250194 175.35041,-129.36249 175.575552,-129.927644 175.687715,-130.212475 175.715712,-130.283918 175.716586,-130.286152 175.717228,-130.288213 172.183048,-134.924277 172.180891,-134.924204 172.178505,-134.923953 172.102198,-134.915882 171.79783,-134.883182 171.193225,-134.8158 170.00057,-134.673308 168.830057,-134.520886 167.681759,-134.358988 166.555745,-134.188066 165.452075,-134.008573 164.3708,-133.820962 163.311968,-133.625687 162.275618,-133.4232 161.26178,-133.213955 160.27048,-132.998406 159.301735,-132.777004 158.355557,-132.550204 157.431948,-132.318456 156.530906,-132.082212 155.652419,-131.841923 154.79647,-131.598039 153.963035,-131.35101 153.152083,-131.101284 152.363574,-130.849308 151.597464,-130.595528 150.8537,-130.340389 150.132223,-130.084335 149.432968,-129.827809 148.75586,-129.571249 148.100821,-129.315097 147.467764,-129.059788 146.856595,-128.805758 146.267215,-128.553442 145.699517,-128.30327 145.153387,-128.055673 144.628706,-127.811077 144.125346,-127.569907 143.643174,-127.332587 142.790255,-128.167698 138.866469,-132.40891 138.100095,-133.32409 138.374133,-133.786382 138.653653,-134.269499 138.938245,-134.773607 139.227494,-135.298866 139.520985,-135.845429 139.818296,-136.413441 140.119007,-137.003043 140.422693,-137.614369 140.728927,-138.247544 141.03728,-138.90269 141.34732,-139.57992 141.658613,-140.27934 141.970724,-141.001051 142.283216,-141.745147 142.595648,-142.511713 142.907579,-143.300831 143.218567,-144.112572 143.528166,-144.947003 143.835932,-145.804183 144.141415,-146.684165 144.444169,-147.586995 144.743742,-148.51271 145.039685,-149.461342 145.331544,-150.432915 145.618867,-151.427448 145.9012,-152.444951 146.178089,-153.485427 146.449079,-154.548872 146.713715,-155.635277 146.97154,-156.744623 147.222098,-157.876885 147.464933,-159.032032 147.699588,-160.210025 147.813705,-160.807574 147.869936,-161.108485 147.883906,-161.183935 147.884342,-161.186294 147.884582,-161.188439 143.536889,-165.071875 143.534784,-165.071396 143.532489,-165.070697 143.459088,-165.048332 143.16641,-164.95862 142.585482,-164.778034 141.441347,-164.412405 140.320832,-164.041217 139.223926,-163.664928 138.150607,-163.283995 137.100851,-162.898875 136.074622,-162.510022 135.071881,-162.11789 134.092579,-161.722932 133.136663,-161.325598 132.20407,-160.926339 131.294732,-160.525603 130.408575,-160.123835 129.545515,-159.721481 128.705465,-159.318983 127.888329,-158.916782 127.094004,-158.515316 126.322381,-158.115022 125.573344,-157.716335 124.846771,-157.319686 124.142534,-156.925505 123.460496,-156.534219 122.800516,-156.146252 122.162445,-155.762026 121.546128,-155.38196 120.951403,-155.006469 120.378104,-154.635967 119.826055,-154.270864 119.295077,-153.911566 118.784983,-153.558478 118.295581,-153.211999 117.826671,-152.872526 117.37805,-152.540454 116.949505,-152.21617 115.953953,-152.874774 111.29842,-156.296761 110.372697,-157.050365 110.554293,-157.556164 110.737331,-158.08345 110.921377,-158.632308 111.105993,-159.202816 111.290742,-159.795045 111.475184,-160.409059 111.658878,-161.044916 111.841382,-161.702667 112.022253,-162.382356 112.201046,-163.084018 112.377316,-163.807685 112.550618,-164.553378 112.720504,-165.321115 112.886527,-166.110903 113.048239,-166.922745 113.205192,-167.756635 113.356937,-168.612562 113.503025,-169.490506 113.643006,-170.390441 113.776431,-171.312334 113.902852,-172.256144 114.021819,-173.221825 114.132884,-174.209321 114.235597,-175.218572 114.329511,-176.249509 114.414179,-177.302056 114.489153,-178.37613 114.553987,-179.471643 114.608237,-180.588498 114.651458,-181.72659 114.683206,-182.885809 114.703039,-184.066038 114.710517,-185.267152 114.709485,-185.8755 114.707752,-186.181614 114.707191,-186.258344 114.707173,-186.260743 114.707002,-186.262895 109.702932,-189.253346 109.700956,-189.252477 109.698835,-189.251357 109.630994,-189.215504 109.360582,-189.072024 108.824329,-188.78476 107.770065,-188.20921 106.740048,-187.632671 105.734177,-187.055591 104.752347,-186.478415 103.794445,-185.901587 102.860353,-185.325546 101.949944,-184.75073 101.063085,-184.177575 100.199639,-183.606513 99.35946,-183.037975 98.542395,-182.472387 97.748287,-181.910174 96.97697,-181.351756 96.228274,-180.797551 95.502021,-180.247974 94.798029,-179.703436 94.116106,-179.164346 93.456057,-178.631107 92.817681,-178.104122 92.20077,-177.583786 91.605108,-177.070494 91.030478,-176.564636 90.476653,-176.066598 89.943402,-175.576761 89.430487,-175.095504 88.937665,-174.6232 88.464689,-174.160218 88.011304,-173.706926 87.577251,-173.263682 87.162264,-172.830844 86.766074,-172.408765 86.388405,-171.997791 86.028975,-171.598265 84.926773,-172.056557 79.707756,-174.535639 78.656141,-175.10043 78.738733,-175.631456 78.818674,-176.183854 78.895521,-176.757625 78.968832,-177.352761 79.038162,-177.969252 79.103068,-178.607076 79.163106,-179.266207 79.217831,-179.94661 79.266802,-180.648246 79.309573,-181.371065 79.345703,-182.115013 79.37475,-182.880029 79.396271,-183.666042 79.409825,-184.472978 79.414973,-185.300753 79.411275,-186.149278 79.398292,-187.018454 79.375588,-187.90818 79.342726,-188.818344 79.299271,-189.748828 79.24479,-190.699508 79.178851,-191.670252 79.101023,-192.660922 79.010878,-193.671373 78.907989,-194.701453 78.791931,-195.751002 78.66228,-196.819856 78.518616,-197.907841 78.360519,-199.01478 78.187573,-200.140485 77.999364,-201.284764 77.795479,-202.447418 77.575509,-203.628241 77.459366,-204.2254 77.399732,-204.525654 77.38466,-204.600892 77.384188,-204.603244 77.383613,-204.605325 71.904026,-206.594708 71.90225,-206.593481 71.900379,-206.591979 71.840549,-206.543936 71.602178,-206.351873 71.129981,-205.968313 70.203693,-205.203643 69.3014,-204.442591 68.422919,-203.685577 67.568063,-202.933019 66.736638,-202.185331 65.928442,-201.442921 65.14327,-200.706197 64.380909,-199.975561 63.64114,-199.251411 62.923741,-198.534142 62.22848,-197.824145 61.555121,-197.121805 60.903425,-196.427505 60.273143,-195.741624 59.664022,-195.064534 59.075806,-194.396606 58.50823,-193.738203 57.961025,-193.089686 57.433918,-192.45141 56.926629,-191.823726 56.438873,-191.206981 55.970362,-190.601515 55.520799,-190.007664 55.089887,-189.425761 54.677319,-188.856131 54.282788,-188.299095 53.905979,-187.754969 53.546574,-187.224064 53.204249,-186.706685 52.878676,-186.203133 52.569525,-185.713701 52.276458,-185.23868 51.999134,-184.778352 50.830118,-185.019769 45.236246,-186.466345 44.096748,-186.82191 44.077349,-187.35897 44.051304,-187.916515 44.018176,-188.49446 43.977532,-189.092716 43.928938,-189.711186 43.871961,-190.349767 43.806173,-191.008349 43.731142,-191.686814 43.646442,-192.385037 43.551646,-193.102889 43.44633,-193.840231 43.330072,-194.596919 43.20245,-195.372801 43.063046,-196.167719 42.911443,-196.98151 42.747227,-197.814 42.569987,-198.665013 42.379311,-199.534363 42.174793,-200.42186 41.956028,-201.327305 41.722614,-202.250494 41.474152,-203.191217 41.210245,-204.149255 40.9305,-205.124386 40.634527,-206.116379 40.321937,-207.124997 39.992348,-208.149999 39.645377,-209.191135 39.280648,-210.248149 38.897786,-211.320781 38.496422,-212.408763 38.076188,-213.511821 37.636721,-214.629675 37.409663,-215.194062 37.294283,-215.477605 37.265245,-215.54863 37.264336,-215.550851 37.263378,-215.552785 31.506321,-216.469199 31.50481,-216.467658 31.503256,-216.46583 31.4536,-216.407331 31.255885,-216.173627 30.86481,-215.707635 30.099976,-214.781482 29.358018,-213.863423 28.638679,-212.953836 27.941694,-212.053095 27.266794,-211.16157 26.613706,-210.279625 25.982148,-209.40762 25.371838,-208.545909 24.782485,-207.694843 24.213793,-206.854768 23.665464,-206.026022 23.137193,-205.20894 22.628671,-204.403853 22.139582,-203.611085 21.66961,-202.830955 21.21843,-202.063776 20.785714,-201.309856 20.371131,-200.5695 19.974344,-199.843003 19.595012,-199.130657 19.23279,-198.432748 18.887331,-197.749558 18.558279,-197.081359 18.24528,-196.42842 17.947971,-195.791005 17.665989,-195.16937 17.398966,-194.563766 17.14653,-193.974437 16.908306,-193.401623 16.683915,-192.845555 16.472976,-192.306461 16.275103,-191.78456 16.089909,-191.280067 14.89633,-191.295883 9.12978,-191.657671 7.943583,-191.791159 7.822896,-192.314843 7.691805,-192.857382 7.549899,-193.418614 7.396769,-193.998367 7.232006,-194.596464 7.055208,-195.212722 6.86597,-195.846952 6.663895,-196.498956 6.448586,-197.168533 6.219649,-197.855472 5.976694,-198.559558 5.719332,-199.280569 5.44718,-200.018277 5.159855,-200.772448 4.856982,-201.542841 4.538184,-202.329209 4.203091,-203.1313 3.851335,-203.948855 3.482553,-204.781608 3.096385,-205.629289 2.692474,-206.491621 2.270469,-207.368322 1.830022,-208.259102 1.370788,-209.163669 0.892427,-210.081722 0.394604,-211.012956 -0.123013,-211.957059 -0.660749,-212.913715 -1.218929,-213.882603 -1.797868,-214.863394 -2.397881,-215.855755 -3.019276,-216.85935 -3.662357,-217.873834 -3.992122,-218.385051 -4.159078,-218.641633 -4.201033,-218.70588 -4.202346,-218.707888 -4.203653,-218.709606 -10.030104,-218.519929 -10.031297,-218.51813 -10.032476,-218.51604 -10.070164,-218.449201 -10.220078,-218.182303 -10.515896,-217.650721 -11.091633,-216.596559 -11.646438,-215.554674 -12.180638,-214.525388 -12.694561,-213.50902 -13.188542,-212.50588 -13.662919,-211.516275 -14.118035,-210.540505 -14.554237,-209.578865 -14.971875,-208.631643 -15.371304,-207.699123 -15.752882,-206.781582 -16.116973,-205.87929 -16.463943,-204.992514 -16.79416,-204.121511 -17.107999,-203.266536 -17.405836,-202.427834 -17.688052,-201.605647 -17.955029,-200.800209 -18.207156,-200.011749 -18.44482,-199.240487 -18.668416,-198.48664 -18.878338,-197.750416 -19.074985,-197.032019 -19.258759,-196.331645 -19.430063,-195.649482 -19.589304,-194.985716 -19.73689,-194.340521 -19.873234,-193.714068 -19.998747,-193.106521 -20.113846,-192.518036 -20.218949,-191.948764 -20.314476,-191.398847 -20.400847,-190.868422 -21.57585,-190.658066 -27.30666,-189.921989 -28.496683,-189.828576 -28.714297,-190.319956 -28.945695,-190.827882 -29.19125,-191.352115 -29.451333,-191.892411 -29.726308,-192.448519 -30.01654,-193.020181 -30.322386,-193.607136 -30.644202,-194.209115 -30.982338,-194.825843 -31.337142,-195.457042 -31.708956,-196.102424 -32.09812,-196.7617 -32.504966,-197.434572 -32.929825,-198.120738 -33.373024,-198.819889 -33.834882,-199.531714 -34.315716,-200.255893 -34.815838,-200.992103 -35.335555,-201.740015 -35.87517,-202.499294 -36.434978,-203.269602 -37.015274,-204.050595 -37.616343,-204.841923 -38.238469,-205.643232 -38.881928,-206.454165 -39.546992,-207.274356 -40.233927,-208.103438 -40.942994,-208.941039 -41.67445,-209.786782 -42.428543,-210.640283 -43.205519,-211.501159 -44.005616,-212.369017 -44.829067,-213.243464 -45.249622,-213.683034 -45.462119,-213.903384 -45.515475,-213.958529 -45.517144,-213.960252 -45.518753,-213.961692 -51.204016,-212.67278 -51.204846,-212.670787 -51.205609,-212.668512 -51.229966,-212.595749 -51.32666,-212.305302 -51.51653,-211.727342 -51.882361,-210.583272 -52.229962,-209.455217 -52.559715,-208.343434 -52.872002,-207.248172 -53.16721,-206.169674 -53.445731,-205.108176 -53.707957,-204.063908 -53.954284,-203.037094 -54.185112,-202.027952 -54.400842,-201.036691 -54.601879,-200.063517 -54.78863,-199.108626 -54.961506,-198.17221 -55.120918,-197.254454 -55.26728,-196.355534 -55.401009,-195.475623 -55.522525,-194.614885 -55.632248,-193.773476 -55.730601,-192.951549 -55.818008,-192.149247 -55.894897,-191.366707 -55.961694,-190.60406 -56.01883,-189.861429 -56.066736,-189.138932 -56.105845,-188.436678 -56.136589,-187.75477 -56.159405,-187.093303 -56.174727,-186.452369 -56.182993,-185.832047 -56.184641,-185.232414 -56.180109,-184.653538 -56.169837,-184.095481 -56.154264,-183.558296 -57.268223,-183.12937 -62.756165,-181.322032 -63.907005,-181.005094 -64.213681,-181.44641 -64.537023,-181.901365 -64.877352,-182.369653 -65.234986,-182.850964 -65.610237,-183.344982 -66.003411,-183.851387 -66.414812,-184.369853 -66.844738,-184.90005 -67.29348,-185.44164 -67.761328,-185.994285 -68.248562,-186.557639 -68.755461,-187.131351 -69.282297,-187.715067 -69.829337,-188.308427 -70.396841,-188.911069 -70.985067,-189.522623 -71.594263,-190.142716 -72.224676,-190.770973 -72.876545,-191.407012 -73.550102,-192.050448 -74.245576,-192.700891 -74.963189,-193.357948 -75.703156,-194.021223 -76.465688,-194.690313 -77.250988,-195.364816 -78.059256,-196.044321 -78.890682,-196.728418 -79.745453,-197.41669 -80.623748,-198.10872 -81.52574,-198.804084 -82.451596,-199.502359 -83.401478,-200.203115 -84.375539,-200.90592 -84.871683,-201.257956 -85.122041,-201.434108 -85.184869,-201.478159 -85.186834,-201.479536 -85.188686,-201.480645 -90.527281,-199.139082 -90.527719,-199.136968 -90.528037,-199.13459 -90.538184,-199.058532 -90.578163,-198.755034 -90.655222,-198.151586 -90.797925,-196.958956 -90.925759,-195.785503 -91.039146,-194.631406 -91.13851,-193.496836 -91.224277,-192.381959 -91.296874,-191.286933 -91.356733,-190.21191 -91.404282,-189.157034 -91.439957,-188.122444 -91.464192,-187.108269 -91.477421,-186.114635 -91.480084,-185.141657 -91.472617,-184.189447 -91.455462,-183.258107 -91.429057,-182.347733 -91.393846,-181.458414 -91.35027,-180.590233 -91.298772,-179.743265 -91.239797,-178.917577 -91.173788,-178.113232 -91.10119,-177.330282 -91.022449,-176.568776 -90.938009,-175.828752 -90.848316,-175.110245 -90.753815,-174.413281 -90.654952,-173.737877 -90.552171,-173.084047 -90.445919,-172.451794 -90.336639,-171.841119 -90.224776,-171.25201 -90.110773,-170.684453 -89.995073,-170.138424 -89.878119,-169.613894 -90.890773,-168.981902 -95.9375,-166.168624 -97.007561,-165.639615 -97.392215,-166.014918 -97.795815,-166.400458 -98.218618,-166.795876 -98.660878,-167.200806 -99.12284,-167.614881 -99.604748,-168.037726 -100.106834,-168.468964 -100.629331,-168.908215 -101.172461,-169.355094 -101.736442,-169.809211 -102.321487,-170.270174 -102.927802,-170.737587 -103.555586,-171.21105 -104.205034,-171.69016 -104.876333,-172.17451 -105.569666,-172.66369 -106.285207,-173.157286 -107.023126,-173.654883 -107.783586,-174.156061 -108.566742,-174.660398 -109.372745,-175.167467 -110.201739,-175.676842 -111.053859,-176.18809 -111.929237,-176.700779 -112.827997,-177.214473 -113.750255,-177.728733 -114.696122,-178.243119 -115.665703,-178.757187 -116.659093,-179.270493 -117.676384,-179.782588 -118.717658,-180.293024 -119.782993,-180.80135 -120.872458,-181.307113 -121.426259,-181.558891 -121.70543,-181.684479 -121.77546,-181.715844 -121.77765,-181.716824 -121.779678,-181.717562 -126.578654,-178.407979 -126.578684,-178.40582 -126.578547,-178.403425 -126.574116,-178.326821 -126.555935,-178.021242 -126.517398,-177.414115 -126.431816,-176.216031 -126.335262,-175.039591 -126.228186,-173.884891 -126.111035,-172.752019 -125.98426,-171.641058 -125.848311,-170.552082 -125.703638,-169.485157 -125.550692,-168.440346 -125.389925,-167.4177 -125.221787,-166.417267 -125.046731,-165.439085 -124.865208,-164.483187 -124.67767,-163.549597 -124.484567,-162.638334 -124.28635,-161.749409 -124.083471,-160.882825 -123.876378,-160.03858 -123.665521,-159.216664 -123.451349,-158.417059 -123.23431,-157.639741 -123.01485,-156.884679 -122.793415,-156.151836 -122.570451,-155.441167 -122.3464,-154.752618 -122.121706,-154.086133 -121.896808,-153.441645 -121.672147,-152.819081 -121.44816,-152.218363 -121.225284,-151.639404 -121.003953,-151.082112 -120.784599,-150.546386 -120.567653,-150.032121 -120.353544,-149.539204 -121.228293,-148.726987 -125.651403,-145.00945 -126.602012,-144.28749 -127.050741,-144.583214 -127.520011,-144.885406 -128.010007,-145.193662 -128.520908,-145.507576 -129.052886,-145.82674 -129.606109,-146.150742 -130.180735,-146.479167 -130.776918,-146.811597 -131.394805,-147.147612 -132.034536,-147.486789 -132.696247,-147.828701 -133.380063,-148.172922 -134.086106,-148.51902 -134.81449,-148.866563 -135.565322,-149.215115 -136.338703,-149.564241 -137.134727,-149.913501 -137.953482,-150.262454 -138.795047,-150.610657 -139.659497,-150.957666 -140.546898,-151.303035 -141.45731,-151.646316 -142.390786,-151.987061 -143.347372,-152.324819 -144.327108,-152.659138 -145.330024,-152.989566 -146.356146,-153.31565 -147.405493,-153.636934 -148.478075,-153.952963 -149.573897,-154.26328 -150.692955,-154.56743 -151.835239,-154.864954 -153.000732,-155.155394 -153.592175,-155.297815 -153.890069,-155.3683 -153.964768,-155.385845 -153.967104,-155.386392 -153.969236,-155.386734 -158.055145,-151.228746 -158.054766,-151.226621 -158.054178,-151.224295 -158.03533,-151.149914 -157.959646,-150.853298 -157.806906,-150.264436 -157.496131,-149.104199 -157.17868,-147.967292 -156.85501,-146.853723 -156.525579,-145.763495 -156.190845,-144.696603 -155.851262,-143.653034 -155.507286,-142.63277 -155.159373,-141.635785 -154.807973,-140.662045 -154.453541,-139.711511 -154.096527,-138.784136 -153.737379,-137.879865 -153.376547,-136.998638 -153.014476,-136.140388 -152.651611,-135.30504 -152.288396,-134.492512 -151.925271,-133.702716 -151.562676,-132.935557 -151.201048,-132.190934 -150.840822,-131.468739 -150.482432,-130.768855 -150.126308,-130.091163 -149.772877,-129.435532 -149.422567,-128.801828 -149.0758,-128.189911 -148.732996,-127.599632 -148.394574,-127.030836 -148.060948,-126.483364 -147.732531,-125.957047 -147.409731,-125.451713 -147.092955,-124.967181 -146.782605,-124.503267 -146.47908,-124.059778 -147.184307,-123.096691 -150.823938,-118.609255 -151.620735,-117.720439 -152.117321,-117.925896 -152.635301,-118.133817 -153.17478,-118.34377 -153.735857,-118.555323 -154.318625,-118.768042 -154.923167,-118.981491 -155.549564,-119.195232 -156.197886,-119.408826 -156.868198,-119.621833 -157.560559,-119.83381 -158.275018,-120.044314 -159.011621,-120.252901 -159.770404,-120.459125 -160.551398,-120.66254 -161.354626,-120.862698 -162.180104,-121.059151 -163.027841,-121.251451 -163.897839,-121.439147 -164.790094,-121.62179 -165.704594,-121.79893 -166.64132,-121.970116 -167.600247,-122.134897 -168.58134,-122.292823 -169.58456,-122.443442 -170.60986,-122.586304 -171.657187,-122.720958 -172.726477,-122.846953 -173.817665,-122.963841 -174.930673,-123.071172 -176.065419,-123.168496 -177.221815,-123.255366 -178.399763,-123.331334 -179.599161,-123.395955 -180.206869,-123.423871 -180.512719,-123.436705 -180.589389,-123.439796 -180.591786,-123.439892 -180.593944,-123.439824 -183.819111,-118.583713 -183.818337,-118.581698 -183.817319,-118.579525 -183.784734,-118.510055 -183.654284,-118.233123 -183.392861,-117.683808 -182.868126,-116.603353 -182.341251,-115.547069 -181.812686,-114.514879 -181.282881,-113.506698 -180.752285,-112.522435 -180.221342,-111.561991 -179.690496,-110.625263 -179.160189,-109.712137 -178.630859,-108.822497 -178.102942,-107.956217 -177.576872,-107.113166 -177.05308,-106.293206 -176.531996,-105.496192 -176.014043,-104.721974 -175.499645,-103.970394 -174.989221,-103.241288 -174.483189,-102.534487 -173.98196,-101.849814 -173.485947,-101.187086 -172.995555,-100.546114 -172.511187,-99.926704 -172.033244,-99.328655 -171.562122,-98.75176 -171.098213,-98.195805 -170.641906,-97.660572 -170.193586,-97.145836 -169.753635,-96.651366 -169.322428,-96.176926 -168.90034,-95.722274 -168.487738,-95.287162 -168.084988,-94.871337 -167.69245,-94.47454 -167.310479,-94.096508 -167.820697,-93.01736 -170.545302,-87.922214 -171.159491,-86.898664 -171.685986,-87.006429 -172.233954,-87.112564 -172.803418,-87.216626 -173.394392,-87.318172 -174.006886,-87.416757 -174.640899,-87.511938 -175.296427,-87.60327 -175.973456,-87.690309 -176.671966,-87.772609 -177.391932,-87.849725 -178.133318,-87.921213 -178.896085,-87.986627 -179.680184,-88.045524 -180.485561,-88.097459 -181.312154,-88.141988 -182.159893,-88.178668 -183.028703,-88.207057 -183.918501,-88.226714 -184.829198,-88.237196 -185.760696,-88.238064 -186.712891,-88.22888 -187.685673,-88.209206 -188.678924,-88.178604 -189.69252,-88.136641 -190.726329,-88.082881 -191.780212,-88.016894 -192.854024,-87.938248 -193.947613,-87.846515 -195.06082,-87.741268 -196.193479,-87.622081 -197.345417,-87.488532 -198.516456,-87.340199 -199.706408,-87.176665 -200.308417,-87.089066 -200.611169,-87.043787 -200.687038,-87.032311 -200.68941,-87.031952 -200.691516,-87.031477 -202.939375,-81.652755 -202.938234,-81.650923 -202.936823,-81.648983 -202.89168,-81.586934 -202.711177,-81.339694 -202.35052,-80.849782 -201.630791,-79.888158 -200.913533,-78.950675 -200.199177,-78.037169 -199.488147,-77.147473 -198.780866,-76.281413 -198.077753,-75.438807 -197.379224,-74.61947 -196.68569,-73.823207 -195.997559,-73.04982 -195.315238,-72.299104 -194.639127,-71.570848 -193.969622,-70.864833 -193.307118,-70.180839 -192.652004,-69.518635 -192.004664,-68.877987 -191.36548,-68.258656 -190.734829,-67.660395 -190.113084,-67.082952 -189.500612,-66.526072 -188.897777,-65.989491 -188.304938,-65.472942 -187.722451,-64.976152 -187.150664,-64.498842 -186.589923,-64.040729 -186.040569,-63.601525 -185.502937,-63.180936 -184.977356,-62.778663 -184.464154,-62.394403 -183.96365,-62.027848 -183.476159,-61.678685 -183.001992,-61.346595 -182.541453,-61.031258 -182.094842,-60.732345 -182.39161,-59.57614 -184.102714,-54.057434 -184.512096,-52.936146 -185.049471,-52.942323 -185.607623,-52.942837 -186.18649,-52.937246 -186.786003,-52.925114 -187.406085,-52.906003 -188.046654,-52.879476 -188.70762,-52.845098 -189.388886,-52.802435 -190.090349,-52.751054 -190.811898,-52.690522 -191.553416,-52.62041 -192.314779,-52.540288 -193.095854,-52.449728 -193.896506,-52.348306 -194.716588,-52.235597 -195.555949,-52.111178 -196.414431,-51.974631 -197.29187,-51.825537 -198.188092,-51.663479 -199.102921,-51.488045 -200.036171,-51.298822 -200.98765,-51.095403 -201.957161,-50.877381 -202.944498,-50.644351 -203.94945,-50.395914 -204.9718,-50.13167 -206.011323,-49.851225 -207.067789,-49.554187 -208.140961,-49.240166 -209.230595,-48.908776 -210.336442,-48.559634 -211.458246,-48.192362 -212.595745,-47.806582 -213.170297,-47.606636 -213.459008,-47.504879 -213.531335,-47.479253 -213.533596,-47.47845 -213.535574,-47.477585 -214.724882,-41.770654 -214.723414,-41.769071 -214.721662,-41.767433 -214.665592,-41.715049 -214.441561,-41.506438 -213.994705,-41.093633 -213.105993,-40.285597 -212.224277,-39.500797 -211.349948,-38.738993 -210.483392,-37.999938 -209.624989,-37.283382 -208.775118,-36.589069 -207.934151,-35.916735 -207.102457,-35.266114 -206.280398,-34.636933 -205.468333,-34.028913 -204.666616,-33.441772 -203.875596,-32.875221 -203.095618,-32.328967 -202.327019,-31.802711 -201.570134,-31.296151 -200.825292,-30.808978 -200.092816,-30.340879 -199.373025,-29.891538 -198.666231,-29.460632 -197.972741,-29.047835 -197.292858,-28.652817 -196.626879,-28.27524 -195.975094,-27.914768 -195.337788,-27.571055 -194.715241,-27.243753 -194.107728,-26.932512 -193.515515,-26.636976 -192.938865,-26.356784 -192.378035,-26.091574 -191.833274,-25.840979 -191.304827,-25.604628 -190.792933,-25.382146 -190.297823,-25.173157 -190.370414,-23.981682 -191.006175,-18.238878 -191.195954,-17.060377 -191.724787,-16.964744 -192.27295,-16.859617 -192.840297,-16.744576 -193.42668,-16.619205 -194.031939,-16.483088 -194.655912,-16.335812 -195.298428,-16.176967 -195.959309,-16.006144 -196.638371,-15.822939 -197.335426,-15.626947 -198.050274,-15.417768 -198.782715,-15.195005 -199.532537,-14.958263 -200.299525,-14.707149 -201.083457,-14.441275 -201.884104,-14.160255 -202.70123,-13.863706 -203.534596,-13.55125 -204.383953,-13.22251 -205.249049,-12.877113 -206.129623,-12.514692 -207.02541,-12.13488 -207.936139,-11.737316 -208.861533,-11.321643 -209.801307,-10.887507 -210.755174,-10.434558 -211.722837,-9.96245 -212.703996,-9.470842 -213.698345,-8.959396 -214.705572,-8.42778 -215.72536,-7.875665 -216.757385,-7.302727 -217.801318,-6.708646 -218.327647,-6.403578 -218.591884,-6.249021 -218.658053,-6.21017 -218.660122,-6.208954 -218.6619,-6.20773 -218.749672,-0.378853 -218.747931,-0.377576 -218.7459,-0.376299 -218.68093,-0.335473 -218.421467,-0.17303 -217.904563,0.147747 -216.87899,0.77299 -215.864683,1.376742 -214.861982,1.959312 -213.871218,2.521014 -212.892719,3.062167 -211.926807,3.583094 -210.973797,4.084124 -210.034002,4.565588 -209.107725,5.027824 -208.195266,5.471171 -207.296921,5.895976 -206.412975,6.302587 -205.543712,6.691358 -204.689409,7.062645 -203.850335,7.41681 -203.026755,7.754217 -202.218928,8.075234 -201.427105,8.380234 -200.651534,8.669591 -199.892455,8.943684 -199.150101,9.202896 -198.4247,9.447612 -197.716473,9.678219 -197.025636,9.89511 -196.352398,10.098679 -195.69696,10.289322 -195.059518,10.467441 -194.440263,10.633437 -193.839376,10.787717 -193.257034,10.930687 -192.693407,11.062758 -192.148659,11.184342 -191.622944,11.295855 -191.468736,12.479536 -191.006175,18.238878 -190.969491,19.431999 -191.470669,19.625986 -191.98903,19.832953 -192.524354,20.053286 -193.076413,20.287366 -193.644974,20.535569 -194.229799,20.798271 -194.830642,21.075843 -195.447251,21.368651 -196.079371,21.677059 -196.726737,22.001427 -197.38908,22.342112 -198.066126,22.699465 -198.757594,23.073834 -199.463198,23.465563 -200.182646,23.874992 -200.915641,24.302457 -201.661879,24.748289 -202.421052,25.212814 -203.192845,25.696356 -203.976941,26.199231 -204.773013,26.721753 -205.580733,27.26423 -206.399764,27.826966 -207.229768,28.410259 -208.070399,29.014403 -208.921306,29.639687 -209.782135,30.286395 -210.652526,30.954805 -211.532114,31.64519 -212.420531,32.357818 -213.317401,33.092951 -214.222346,33.850848 -215.134984,34.631759 -215.594067,35.030922 -215.824278,35.232693 -215.8819,35.283365 -215.883701,35.28495 -215.885215,35.286488 -214.868279,41.026641 -214.866328,41.027565 -214.864092,41.028435 -214.79257,41.056227 -214.507053,41.166631 -213.938782,41.383786 -212.813414,41.80364 -211.703177,42.204523 -210.608344,42.586802 -209.529182,42.95085 -208.465951,43.297042 -207.418908,43.625755 -206.3883,43.937372 -205.37437,44.232278 -204.377354,44.510861 -203.397481,44.773513 -202.434974,45.020628 -201.490051,45.252604 -200.562922,45.46984 -199.65379,45.672739 -198.762853,45.861708 -197.890302,46.037154 -197.03632,46.199488 -196.201086,46.349122 -195.384769,46.486473 -194.587534,46.611956 -193.809539,46.725992 -193.050935,46.829002 -192.311864,46.92141 -191.592464,47.003639 -190.892866,47.076118 -190.213194,47.139274 -189.553562,47.193537 -188.914082,47.239339 -188.294857,47.277112 -187.695982,47.307289 -187.117546,47.330307 -186.559631,47.346599 -186.022314,47.356605 -185.646879,48.489711 -184.102714,54.057434 -183.840894,55.222051 -184.296303,55.507381 -184.766127,55.808709 -185.250079,56.126371 -185.747861,56.460698 -186.259175,56.812017 -186.783715,57.180651 -187.321169,57.566916 -187.871221,57.971127 -188.433551,58.393591 -189.007831,58.834613 -189.59373,59.29449 -190.190911,59.773517 -190.799034,60.271981 -191.417751,60.790168 -192.046713,61.328355 -192.685563,61.886815 -193.333941,62.465817 -193.991483,63.065622 -194.657819,63.686488 -195.332575,64.328667 -196.015373,64.992404 -196.705831,65.677939 -197.403564,66.385508 -198.108179,67.11534 -198.819284,67.867657 -199.536478,68.642677 -200.259361,69.440611 -200.987525,70.261664 -201.720562,71.106036 -202.458058,71.97392 -203.199595,72.865502 -203.944754,73.780965 -204.693112,74.720481 -205.068356,75.199313 -205.256221,75.441006 -205.303212,75.501667 -205.304681,75.503564 -205.305877,75.505361 -203.220986,80.949325 -203.218896,80.949863 -203.216536,80.950294 -203.141046,80.964049 -202.839795,81.018423 -202.240697,81.124108 -201.056208,81.323397 -199.890166,81.506922 -198.742771,81.675095 -197.614214,81.828331 -196.504681,81.967049 -195.41435,82.091667 -194.343393,82.202609 -193.291974,82.300298 -192.260253,82.385161 -191.24838,82.457624 -190.256501,82.518118 -189.284752,82.567073 -188.333265,82.604923 -187.402163,82.632102 -186.491564,82.649045 -185.601578,82.656189 -184.732307,82.653972 -183.883847,82.642833 -183.056289,82.623212 -182.249713,82.59555 -181.464196,82.560289 -180.699806,82.517871 -179.956603,82.468738 -179.234642,82.413334 -178.53397,82.352104 -177.854627,82.285489 -177.196647,82.213936 -176.560055,82.137888 -175.944871,82.057789 -175.351107,81.974083 -174.778768,81.887215 -174.227853,81.797627 -173.698352,81.705763 -173.11526,82.747342 -170.545302,87.922214 -170.067808,89.016234 -170.460988,89.382595 -170.865295,89.767392 -171.280383,90.170902 -171.705898,90.593394 -172.141484,91.035131 -172.58678,91.496372 -173.041421,91.977371 -173.505036,92.478375 -173.977251,92.999627 -174.457689,93.541362 -174.945968,94.10381 -175.441701,94.687198 -175.944499,95.291743 -176.453968,95.917658 -176.969711,96.565151 -177.491327,97.234422 -178.018412,97.925667 -178.550557,98.639074 -179.087351,99.374825 -179.62838,100.133097 -180.173227,100.914059 -180.721469,101.717877 -181.272684,102.544706 -181.826445,103.394698 -182.382322,104.267997 -182.939882,105.164741 -183.498691,106.085062 -184.058312,107.029083 -184.618303,107.996924 -185.178223,108.988696 -185.737627,110.004504 -186.296068,111.044445 -186.853096,112.108611 -187.13094,112.649805 -187.26967,112.922684 -187.304331,112.991142 -187.305414,112.993282 -187.306248,112.995273 -184.228758,117.94629 -184.226603,117.946423 -184.224204,117.946399 -184.147476,117.945619 -183.841378,117.941999 -183.233105,117.932393 -182.032306,117.903915 -180.852604,117.863448 -179.694117,117.811436 -178.556955,117.748322 -177.44122,117.674553 -176.347008,117.590573 -175.274408,117.49683 -174.223503,117.393771 -173.194366,117.281846 -172.187065,117.161501 -171.201662,117.033187 -170.238209,116.897353 -169.296753,116.754449 -168.377334,116.604925 -167.479984,116.449229 -166.604729,116.287813 -165.751586,116.121126 -164.920568,115.949616 -164.111677,115.773734 -163.324913,115.593926 -162.560264,115.410642 -161.817715,115.224328 -161.097241,115.035432 -160.398812,114.844397 -159.72239,114.65167 -159.067931,114.457693 -158.435383,114.262909 -157.824687,114.067759 -157.23578,113.872683 -156.668587,113.67812 -156.123031,113.484506 -155.599026,113.292275 -155.096479,113.101863 -154.326804,114.014268 -150.823938,118.609255 -150.148028,119.593139 -150.464768,120.027289 -150.788946,120.481648 -151.120168,120.956422 -151.458036,121.451808 -151.802152,121.967997 -152.15211,122.505177 -152.507505,123.063525 -152.867926,123.643215 -153.23296,124.244414 -153.602192,124.867282 -153.975203,125.511974 -154.351571,126.178637 -154.730872,126.867412 -155.112679,127.578434 -155.496563,128.311831 -155.882092,129.067724 -156.268833,129.846229 -156.656348,130.647452 -157.0442,131.471496 -157.431948,132.318456 -157.81915,133.188418 -158.205362,134.081465 -158.590137,134.99767 -158.973029,135.937102 -159.353587,136.89982 -159.731362,137.885877 -160.105901,138.895322 -160.476751,139.928193 -160.843457,140.984523 -161.205565,142.064338 -161.562617,143.167656 -161.914156,144.29449 -162.259723,145.444843 -162.430125,146.028839 -162.514705,146.323042 -162.535784,146.396822 -162.536442,146.399129 -162.536884,146.401242 -158.578022,150.680368 -158.575881,150.680091 -158.57353,150.679614 -158.498336,150.664327 -158.198455,150.602843 -157.602992,150.478294 -156.429282,150.223078 -155.278558,149.960083 -154.15085,149.689765 -153.046181,149.412583 -151.96457,149.128992 -150.906025,148.839449 -149.87055,148.544409 -148.85814,148.244328 -147.868783,147.939659 -146.902461,147.630856 -145.959148,147.318373 -145.038813,147.002659 -144.141415,146.684165 -143.266909,146.363342 -142.415241,146.040636 -141.586351,145.716493 -140.780171,145.39136 -139.996629,145.065678 -139.235642,144.739891 -138.497125,144.414436 -137.780981,144.089754 -137.087111,143.766279 -136.415406,143.444445 -135.765752,143.124684 -135.138027,142.807426 -134.532105,142.493097 -133.947851,142.182123 -133.385124,141.874925 -132.843777,141.571923 -132.323656,141.273533 -131.824601,140.980171 -131.346445,140.692246 -130.889015,140.410167 -129.960576,141.160421 -125.651403,145.00945 -124.801507,145.847637 -125.03036,146.333884 -125.262691,146.841384 -125.498076,147.370262 -125.736087,147.920637 -125.976294,148.492623 -126.218266,149.086325 -126.46157,149.701841 -126.705771,150.339266 -126.950431,150.998684 -127.195112,151.680174 -127.439373,152.383808 -127.682773,153.109652 -127.924868,153.857763 -128.165213,154.628193 -128.403364,155.420987 -128.638872,156.236182 -128.871291,157.073809 -129.100171,157.933891 -129.325063,158.816445 -129.545515,159.721481 -129.761079,160.649001 -129.971301,161.599 -130.17573,162.571468 -130.373913,163.566385 -130.565399,164.583726 -130.749734,165.623459 -130.926466,166.685544 -131.095142,167.769933 -131.25531,168.876573 -131.406518,170.005404 -131.548313,171.156356 -131.680244,172.329356 -131.801861,173.52432 -131.858661,174.130011 -131.886034,174.434904 -131.89277,174.51134 -131.892979,174.51373 -131.893014,174.515889 -127.195863,177.968466 -127.193814,177.967789 -127.191595,177.966875 -127.120653,177.937633 -126.837827,177.820507 -126.276696,177.585518 -125.172497,177.112788 -124.09234,176.636769 -123.036169,176.157916 -122.00392,175.676683 -120.995525,175.193521 -120.010906,174.708879 -119.04998,174.223206 -118.112656,173.736948 -117.198836,173.250548 -116.308418,172.764448 -115.441291,172.279088 -114.597337,171.794905 -113.776431,171.312334 -112.978445,170.831806 -112.20324,170.353753 -111.450673,169.878599 -110.720595,169.406771 -110.012847,168.938689 -109.327269,168.474771 -108.663689,168.015433 -108.021934,167.561086 -107.401821,167.112141 -106.803162,166.669002 -106.225763,166.232072 -105.669424,165.801749 -105.133939,165.37843 -104.619096,164.962504 -104.124675,164.554361 -103.650455,164.154384 -103.196203,163.762953 -102.761686,163.380445 -102.346661,163.007232 -101.950881,162.643681 -100.897233,163.204669 -95.9375,166.168624 -94.944334,166.83082 -95.077029,167.351591 -95.209117,167.893889 -95.340157,168.457756 -95.469707,169.04323 -95.597324,169.650338 -95.722565,170.279104 -95.844985,170.929544 -95.96414,171.601664 -96.079583,172.295468 -96.190869,173.010949 -96.297553,173.748094 -96.399187,174.506884 -96.495326,175.287293 -96.585523,176.089286 -96.669333,176.912824 -96.746308,177.757858 -96.816005,178.624333 -96.877977,179.512188 -96.93178,180.421354 -96.97697,181.351756 -97.013104,182.303309 -97.039738,183.275926 -97.056432,184.269508 -97.062745,185.283953 -97.058237,186.319148 -97.042471,187.374977 -97.015008,188.451315 -96.975414,189.548031 -96.923254,190.664984 -96.858096,191.802032 -96.77951,192.95902 -96.687066,194.13579 -96.580336,195.332176 -96.521482,195.937671 -96.490659,196.242234 -96.482807,196.318564 -96.482561,196.32095 -96.482186,196.323076 -91.216515,198.824319 -91.21463,198.823266 -91.212625,198.821949 -91.148499,198.77981 -90.89295,198.611276 -90.386432,198.274338 -89.391651,197.60118 -88.421101,196.929342 -87.47464,196.259261 -86.55212,195.59137 -85.653387,194.926099 -84.77828,194.263875 -83.926633,193.605123 -83.098272,192.950262 -82.293019,192.29971 -81.510687,191.653882 -80.751085,191.013188 -80.014014,190.378036 -79.299271,189.748828 -78.606645,189.125964 -77.935922,188.509841 -77.286878,187.90085 -76.659287,187.29938 -76.052915,186.705815 -75.467522,186.120534 -74.902865,185.543913 -74.358693,184.976325 -73.834749,184.418135 -73.330774,183.869707 -72.846499,183.3314 -72.381653,182.803566 -71.935958,182.286555 -71.509133,181.780711 -71.100889,181.286374 -70.710934,180.803878 -70.338971,180.333553 -69.984696,179.875724 -69.647802,179.430711 -69.327977,178.998829 -68.187202,179.350275 -62.756165,181.322032 -61.655626,181.784303 -61.687366,182.320776 -61.714437,182.878271 -61.736396,183.456748 -61.752804,184.056159 -61.763219,184.676448 -61.767201,185.317554 -61.764313,185.979407 -61.754114,186.661932 -61.736168,187.365045 -61.710038,188.088657 -61.675287,188.832671 -61.631483,189.596984 -61.578191,190.381484 -61.51498,191.186054 -61.44142,192.01057 -61.357081,192.854901 -61.261536,193.718908 -61.154361,194.602447 -61.035131,195.505365 -60.903425,196.427505 -60.758822,197.368702 -60.600907,198.328782 -60.429262,199.307569 -60.243476,200.304875 -60.043138,201.320511 -59.827839,202.354276 -59.597174,203.405965 -59.350741,204.475368 -59.088139,205.562266 -58.808971,206.666434 -58.512843,207.787642 -58.199365,208.925651 -57.868147,210.080218 -57.695765,210.663632 -57.60786,210.956859 -57.585705,211.030323 -57.585011,211.03262 -57.584241,211.034636 -51.940364,212.494144 -51.938713,212.492753 -51.936993,212.491081 -51.882,212.437567 -51.662965,212.223715 -51.229366,211.797007 -50.379959,210.94775 -49.554094,210.104376 -48.75155,209.267285 -47.9721,208.436876 -47.215511,207.613541 -46.481546,206.797669 -45.769959,205.989645 -45.080501,205.189851 -44.412918,204.39866 -43.766947,203.616446 -43.142324,202.843575 -42.538776,202.080408 -41.956028,201.327305 -41.393797,200.584617 -40.851796,199.852693 -40.329734,199.131875 -39.827313,198.422502 -39.344232,197.724906 -38.880183,197.039416 -38.434856,196.366354 -38.007935,195.706037 -37.599098,195.058777 -37.20802,194.424882 -36.834372,193.804653 -36.47782,193.198385 -36.138025,192.606369 -35.814644,192.028889 -35.507332,191.466224 -35.215737,190.918648 -34.939505,190.386429 -34.678276,189.869826 -34.43169,189.369098 -34.199379,188.884493 -33.012708,189.013695 -27.30666,189.921989 -26.138523,190.167628 -26.068161,190.700413 -25.989236,191.252957 -25.901321,191.825136 -25.803993,192.416819 -25.696829,193.02787 -25.57941,193.658144 -25.451317,194.30749 -25.312134,194.97575 -25.161447,195.662761 -24.998844,196.368351 -24.823917,197.092344 -24.636257,197.834554 -24.43546,198.594792 -24.221126,199.37286 -23.992854,200.168554 -23.750249,200.981665 -23.492916,201.811977 -23.220467,202.659266 -22.932513,203.523303 -22.628671,204.403853 -22.308559,205.300675 -21.971801,206.21352 -21.618022,207.142134 -21.246851,208.086258 -20.857923,209.045625 -20.450874,210.019963 -20.025344,211.008994 -19.580978,212.012434 -19.117425,213.029992 -18.634337,214.061374 -18.13137,215.106277 -17.608187,216.164394 -17.064451,217.235413 -16.784773,217.775661 -16.642963,218.046953 -16.607305,218.114896 -16.606189,218.11702 -16.605051,218.118855 -10.786953,218.483876 -10.785594,218.482198 -10.784222,218.48023 -10.740351,218.417276 -10.565746,218.165837 -10.220737,217.664781 -9.547403,216.67012 -8.896072,215.68569 -8.266452,214.711844 -7.658244,213.748929 -7.071145,212.797288 -6.504848,211.857256 -5.959039,210.929166 -5.433403,210.013344 -4.927617,209.11011 -4.441356,208.219781 -3.974287,207.342665 -3.526076,206.479068 -3.096385,205.629289 -2.684869,204.793619 -2.29118,203.972348 -1.914968,203.165755 -1.555876,202.374117 -1.213546,201.597704 -0.887613,200.83678 -0.577712,200.091602 -0.283471,199.362423 -0.004517,198.649487 0.259528,197.953036 0.509045,197.273301 0.744417,196.610511 0.966032,195.964887 1.174279,195.336643 1.369553,194.725987 1.552249,194.133122 1.722766,193.558242 1.881506,193.001538 2.028873,192.463192 2.165273,191.943379 3.354952,191.845667 9.12978,191.657671 10.323295,191.677799 10.493215,192.18764 10.675283,192.715262 10.869895,193.260463 11.077441,193.823035 11.298311,194.402762 11.532888,194.999424 11.781556,195.612794 12.044693,196.242637 12.322674,196.888715 12.615872,197.550782 12.924655,198.228585 13.249388,198.921868 13.590432,199.630366 13.948143,200.35381 14.322876,201.091925 14.71498,201.844429 15.124799,202.611035 15.552675,203.391451 15.998946,204.185379 16.463943,204.992514 16.947994,205.812547 17.451424,206.645164 17.974551,207.490044 18.51769,208.346862 19.081152,209.215286 19.66524,210.094982 20.270255,210.985608 20.896493,211.886817 21.544243,212.798259 22.213791,213.719577 22.905418,214.650411 23.619397,215.590393 24.355998,216.539155 24.732865,217.016711 24.923454,217.256262 24.971326,217.316229 24.972824,217.318103 24.974288,217.319689 30.756327,216.577032 30.757343,216.575128 30.758318,216.572935 30.789482,216.502817 30.913347,216.222876 31.157295,215.665582 31.630221,214.561466 32.083477,213.471561 32.517418,212.396158 32.932402,211.33554 33.328792,210.289986 33.706953,209.25977 34.067255,208.245157 34.410072,207.246407 34.73578,206.263776 35.044758,205.29751 35.337391,204.347852 35.614065,203.415037 35.87517,202.499294 36.121098,201.600847 36.352245,200.71991 36.56901,199.856695 36.771794,199.011405 36.961001,198.184236 37.137038,197.37538 37.300313,196.585019 37.451238,195.813331 37.590228,195.060487 37.717697,194.32665 37.834063,193.611978 37.939748,192.916621 38.035173,192.240723 38.120761,191.584421 38.196939,190.947845 38.264133,190.331118 38.322772,189.734357 38.373286,189.157672 38.416107,188.601164 38.451667,188.064931 39.601354,187.743837 45.236246,186.466345 46.412001,186.260235 46.675339,186.728705 46.95397,187.212335 47.248245,187.710853 47.558508,188.22398 47.8851,188.751431 48.228357,189.292917 48.588612,189.848142 48.966193,190.416804 49.361422,190.998598 49.774618,191.593212 50.206096,192.20033 50.656165,192.819628 51.12513,193.450779 51.61329,194.093453 52.12094,194.74731 52.64837,195.412009 53.195865,196.087203 53.763704,196.772539 54.352161,197.467662 54.961506,198.17221 55.592002,198.885817 56.243908,199.608113 56.917476,200.338722 57.612954,201.077266 58.330584,201.823362 59.0706,202.576621 59.833234,203.336652 60.61871,204.103059 61.427246,204.875443 62.259055,205.653398 63.114344,206.436519 63.993314,207.224394 64.896158,208.016607 65.356592,208.414211 65.589072,208.613363 65.647429,208.663187 65.649254,208.664744 65.650992,208.666024 71.187993,206.84253 71.18863,206.840467 71.189173,206.83813 71.206504,206.763381 71.275151,206.465058 71.409222,205.871667 71.664646,204.698002 71.903445,203.542014 72.126023,202.403921 72.332784,201.283933 72.524139,200.182257 72.700496,199.09909 72.862271,198.034625 73.009878,196.989046 73.143735,195.962531 73.264263,194.955252 73.371884,193.967375 73.467021,192.999056 73.550102,192.050448 73.621554,191.121694 73.681805,190.212932 73.731289,189.324294 73.770436,188.455902 73.799681,187.607873 73.819459,186.780319 73.830207,185.973341 73.832362,185.187036 73.826363,184.421493 73.812649,183.676794 73.79166,182.953014 73.763838,182.250222 73.729624,181.568479 73.68946,180.90784 73.643788,180.268351 73.593051,179.650052 73.537693,179.052978 73.478156,178.477154 73.414883,177.9226 73.348318,177.389327 74.416461,176.856456 79.707756,174.535639 80.823257,174.110741 81.170494,174.520908 81.535618,174.943067 81.91892,175.376885 82.320686,175.822021 82.741197,176.278132 83.180728,176.744871 83.63955,177.221883 84.117927,177.708812 84.616119,178.205294 85.13438,178.710965 85.672958,179.225453 86.232097,179.748383 86.812033,180.279377 87.412998,180.818052 88.035218,181.364019 88.678911,181.91689 89.344293,182.476268 90.031571,183.041756 90.740947,183.61295 91.472617,184.189447 92.226771,184.770836 93.003591,185.356704 93.803256,185.946637 94.625936,186.540215 95.471796,187.137015 96.340995,187.736613 97.233684,188.33858 98.150009,188.942485 99.090108,189.547894 100.054115,190.15437 101.042154,190.761474 102.054345,191.368765 103.090802,191.975798 103.618162,192.279078 103.884131,192.430635 103.950862,192.468514 103.952949,192.469697 103.954898,192.470626 109.046739,189.6322 109.046975,189.630054 109.047065,189.627656 109.049937,189.550978 109.060885,189.245054 109.080234,188.637014 109.108924,187.436219 109.124636,186.255928 109.127805,185.096279 109.118871,183.957401 109.098274,182.83942 109.066454,181.742451 109.023854,180.666606 108.970916,179.611987 108.908085,178.57869 108.835806,177.566804 108.754525,176.576411 108.664688,175.607587 108.566742,174.660398 108.461135,173.734905 108.348313,172.831164 108.228726,171.949219 108.102822,171.089111 107.971048,170.250873 107.833853,169.434531 107.691685,168.640102 107.544992,167.867598 107.394221,167.117025 107.23982,166.388379 107.082235,165.681651 106.921911,164.996825 106.759294,164.333877 106.594829,163.692777 106.428958,163.073488 106.262125,162.475965 106.09477,161.900157 105.927333,161.346007 105.760254,160.813448 105.593969,160.302411 106.541963,159.577021 111.29842,156.296761 112.31335,155.668431 112.731937,156.005471 113.170357,156.350901 113.628832,156.704338 114.107581,157.065396 114.606812,157.433682 115.126731,157.808804 115.667536,158.190364 116.22942,158.57796 116.812569,158.971187 117.417163,159.369638 118.043376,159.772902 118.691376,160.180564 119.361323,160.592209 120.053373,161.007415 120.767673,161.425761 121.504366,161.84682 122.263586,162.270165 123.045464,162.695366 123.85012,163.121988 124.67767,163.549597 125.528223,163.977755 126.401882,164.406022 127.298741,164.833956 128.21889,165.261114 129.16241,165.687049 130.129375,166.111315 131.119855,166.533461 132.13391,166.953037 133.171595,167.36959 134.232957,167.782667 135.318037,168.191812 136.426867,168.59657 137.559475,168.996482 138.134702,169.194478 138.424547,169.292961 138.49724,169.317527 138.499513,169.318294 138.501603,169.318837 142.964253,165.568068 142.964078,165.565916 142.963713,165.563545 142.952021,165.487708 142.904875,165.185242 142.808801,164.584527 142.609721,163.400003 142.401777,162.238068 142.185425,161.098775 141.961118,159.982169 141.729314,158.888289 141.490466,157.817166 141.245031,156.768825 140.993462,155.743283 140.736214,154.74055 140.47374,153.760629 140.206495,152.803516 139.93493,151.869201 139.659497,150.957666 139.380648,150.068885 139.098831,149.202826 138.814496,148.359451 138.52809,147.538715 138.24006,146.740563 137.950851,145.964937 137.660905,145.21177 137.370666,144.480988 137.080573,143.772512 136.791065,143.086255 136.502578,142.422122 136.215547,141.780013 135.930405,141.159821 135.647583,140.561432 135.367509,139.984725 135.090608,139.429574 134.817305,138.895844 134.548021,138.383395 134.283174,137.89208 134.023179,137.421747 134.816761,136.530058 138.866469,132.40891 139.744146,131.599859 140.218953,131.85159 140.714823,132.107806 141.231902,132.368089 141.77033,132.632018 142.330238,132.899169 142.911753,133.169117 143.514996,133.441433 144.140079,133.715687 144.787109,133.991446 145.456184,134.268277 146.147399,134.545741 146.860839,134.823402 147.596584,135.100819 148.354706,135.377551 149.13527,135.653155 149.938336,135.927185 150.763955,136.199196 151.612172,136.468741 152.483026,136.735372 153.376547,136.998638 154.292759,137.258091 155.23168,137.513277 156.193319,137.763747 157.177679,138.009046 158.184757,138.248722 159.214541,138.482321 160.267013,138.709388 161.342148,138.929471 162.439914,139.142113 163.560272,139.346861 164.703174,139.54326 165.868567,139.730856 167.056391,139.909194 167.658693,139.99475 167.961938,140.036599 168.037967,140.046964 168.040345,140.047287 168.042499,140.047424 171.714665,135.519874 171.714086,135.517795 171.713279,135.515535 171.687446,135.443282 171.58391,135.155204 171.375887,134.583527 170.956232,133.458085 170.532148,132.356501 170.104092,131.278741 169.672521,130.224764 169.237887,129.194522 168.800644,128.187958 168.361244,127.20501 167.920136,126.245611 167.477768,125.309683 167.034587,124.397144 166.591036,123.507904 166.147559,122.641867 165.704594,121.79893 165.262581,120.978983 164.821954,120.18191 164.383148,119.407587 163.946593,118.655884 163.512716,117.926667 163.081945,117.21979 162.654702,116.535106 162.231406,115.872459 161.812475,115.231687 161.398324,114.612621 160.989362,114.015086 160.585999,113.438902 160.188638,112.883881 159.797681,112.34983 159.413525,111.836549 159.036565,111.343834 158.667192,110.871472 158.305792,110.419246 157.952749,109.986933 157.608443,109.574304 158.21893,108.548542 161.415522,103.735457 162.124224,102.774924 162.638092,102.932248 163.17349,103.08999 163.730483,103.247712 164.309129,103.404973 164.909478,103.561333 165.531573,103.71635 166.17545,103.869581 166.84114,104.020581 167.528665,104.168906 168.23804,104.31411 168.969274,104.455747 169.722369,104.593371 170.49732,104.726535 171.294113,104.85479 172.11273,104.97769 172.953144,105.094787 173.815321,105.205633 174.699222,105.309781 175.604798,105.406783 176.531996,105.496192 177.480752,105.577562 178.451,105.650445 179.442662,105.714397 180.455657,105.768971 181.489895,105.813725 182.545278,105.848215 183.621704,105.871997 184.719061,105.884632 185.837232,105.885678 186.976091,105.874697 188.135508,105.851251 189.315344,105.814905 190.515453,105.765223 191.123063,105.735246 191.428748,105.71895 191.505365,105.714738 191.50776,105.714606 191.509901,105.714333 194.258862,100.573639 194.2579,100.571707 194.25668,100.569641 194.21764,100.503583 194.061456,100.240304 193.749001,99.718327 193.123939,98.692644 192.499043,97.691226 191.874755,96.713952 191.251516,95.760698 190.629762,94.831328 190.009927,93.925702 189.392444,93.043675 188.77774,92.185093 188.16624,91.349798 187.558369,90.537622 186.954544,89.748394 186.355182,88.981937 185.760696,88.238064 185.171494,87.516586 184.587983,86.817306 184.010565,86.140021 183.439638,85.484521 182.875597,84.850593 182.318833,84.238015 181.769733,83.646561 181.22868,83.075998 180.696053,82.526088 180.172227,81.996588 179.657571,81.487248 179.152454,80.997813 178.657235,80.528023 178.172273,80.077612 177.697921,79.646309 177.234526,79.233838 176.782433,78.839916 176.34198,78.464258 175.913501,78.106572 175.497326,77.766559 175.902654,76.643799 178.130597,71.312734 178.644711,70.235437 179.179065,70.292667 179.734641,70.346234 180.311418,70.395693 180.909369,70.440603 181.52846,70.480521 182.16865,70.515004 182.829891,70.543611 183.512128,70.5659 184.215299,70.58143 184.939335,70.58976 185.68416,70.59045 186.449691,70.583063 187.235838,70.56716 188.042504,70.542303 188.869587,70.508058 189.716974,70.46399 190.584549,70.409665 191.472186,70.344651 192.379756,70.268519 193.307118,70.180839 194.254129,70.081184 195.220636,69.96913 196.206481,69.844253 197.211498,69.706131 198.235515,69.554345 199.278354,69.388479 200.339828,69.208117 201.419745,69.012847 202.517907,68.802259 203.634108,68.575946 204.768136,68.333502 205.919772,68.074527 207.088791,67.798621 207.679747,67.654195 207.976824,67.580342 208.051259,67.561707 208.053586,67.561123 208.055637,67.56045 209.782038,61.992411 209.780728,61.990696 209.779139,61.988898 209.728302,61.931422 209.525115,61.702459 209.119522,61.249048 208.311643,60.360193 207.50852,59.495135 206.710564,58.653669 205.918183,57.83559 205.13178,57.040682 204.351756,56.268727 203.578507,55.519499 202.812423,54.792767 202.053894,54.088293 201.303302,53.405835 200.561027,52.745144 199.827443,52.105967 199.102921,51.488045 198.387827,50.891112 197.682521,50.314899 196.98736,49.75913 196.302697,49.223525 195.628877,48.707798 194.966243,48.211658 194.315133,47.73481 193.675878,47.276953 193.048805,46.837781 192.434236,46.416984 191.832488,46.014248 191.243872,45.629252 190.668695,45.261672 190.107256,44.911181 189.559851,44.577444 189.02677,44.260124 188.508297,43.958881 188.004709,43.673368 187.516281,43.403235 187.043279,43.148129 187.228798,41.968949 188.407569,36.312583 188.708512,35.157457 189.244041,35.112526 189.799714,35.059981 190.375428,34.999391 190.971073,34.930327 191.586531,34.852359 192.221678,34.765063 192.876383,34.668012 193.550509,34.560784 194.243912,34.442957 194.95644,34.314112 195.687935,34.173831 196.438234,34.021699 197.207165,33.857304 197.99455,33.680234 198.800205,33.490081 199.623939,33.28644 200.465554,33.068907 201.324847,32.837082 202.201607,32.590567 203.095618,32.328967 204.006655,32.05189 204.93449,31.758948 205.878886,31.449755 206.839601,31.123929 207.816388,30.781089 208.80899,30.420862 209.817148,30.042874 210.840595,29.646757 211.879058,29.232146 212.932257,28.798681 213.999909,28.346002 215.081722,27.873759 216.1774,27.3816 216.730344,27.127945 217.008075,26.999204 217.077639,26.966819 217.079813,26.965806 217.0817,26.964756 217.723144,21.170616 217.721533,21.16918 217.719632,21.167715 217.658837,21.120898 217.41599,20.934527 216.931918,20.566068 215.970422,19.846168 215.018099,19.148734 214.075315,18.47349 213.14243,17.820153 212.219802,17.188438 211.307781,16.578054 210.406712,15.988704 209.516938,15.420086 208.638794,14.871896 207.77261,14.343821 206.918712,13.835547 206.07742,13.346752 205.249049,12.877113 204.433907,12.4263 203.632297,11.99398 202.844519,11.579815 202.070865,11.183462 201.31162,10.804576 200.567066,10.442807 199.837478,10.097799 199.123125,9.769196 198.42427,9.456635 197.741171,9.15975 197.074079,8.878173 196.423239,8.611531 195.788891,8.359447 195.171267,8.121542 194.570594,7.897434 193.987094,7.686735 193.420979,7.489057 192.872459,7.304008 192.341734,7.131192 191.829,6.970213 191.788006,5.777233 z"/><g class="guides"><polyline fill="none" stroke="#444" stroke-width="0.5" stroke-miterlimit="10" points="10,0 -10,0"/><polyline fill="none" stroke="#444" stroke-width="0.5" stroke-miterlimit="10" points="0,10 0,-10"/></g><circle fill="#c00" class="firstmarker" stroke="none" stroke-miterlimit="10" cx="205.587996" cy="-16.511769" r="4.90625"/><g class="geartext"><g class="text"><polyline fill="none" stroke="#444" stroke-width="0.5" stroke-linecap="square" stroke-miterlimit="1"  points="138.64 -109.83 137.71 -111 136.76 -112.17 135.8 -113.32 134.84 -114.47 "/><polyline fill="none" stroke="#444" stroke-width="0.5" stroke-linecap="square" stroke-miterlimit="1"  points="134.44 -110.27 139.08 -114.07 "/><polyline fill="none" stroke="#444" stroke-width="0.5" stroke-linecap="square" stroke-miterlimit="1"  points="140.99 -111.69 138.87 -111.95 136.76 -112.17 134.65 -112.36 132.55 -112.53 "/><polyline fill="none" stroke="#444" stroke-width="0.5" stroke-linecap="square" stroke-miterlimit="1"  points="136.29 -107.97 136.54 -110.06 136.76 -112.17 136.96 -114.28 137.12 -116.41 "/><polyline fill="none" stroke="#444" stroke-width="0.5" stroke-linecap="square" stroke-miterlimit="1"  points="142.87 -109.29 144.99 -108.97 145.91 -107.74 146.82 -106.5 146.49 -104.38 145.27 -103.51 143.17 -103.86 142.83 -101.77 141.61 -100.9 139.53 -101.21 138.67 -102.39 137.79 -103.57 138.1 -105.64 "/><polyline fill="none" stroke="#444" stroke-width="0.5" stroke-linecap="square" stroke-miterlimit="1"  points="142.29 -105.07 143.17 -103.86 "/><polyline fill="none" stroke="#444" stroke-width="0.5" stroke-linecap="square" stroke-miterlimit="1"  points="156.88 -91.03 149.09 -86.52 150.29 -88.92 151.46 -91.36 152.59 -93.82 153.7 -96.3 146.07 -91.52 "/><polyline fill="none" stroke="#444" stroke-width="0.5" stroke-linecap="square" stroke-miterlimit="1"  points="158.63 -81.56 157.94 -82.91 157.23 -84.24 156.51 -85.57 155.78 -86.9 "/><polyline fill="none" stroke="#444" stroke-width="0.5" stroke-linecap="square" stroke-miterlimit="1"  points="155.97 -80.19 155.28 -81.51 154.58 -82.83 153.88 -84.13 153.16 -85.44 "/><polyline fill="none" stroke="#444" stroke-width="0.5" stroke-linecap="square" stroke-miterlimit="1"  points="161.34 -79.52 163.36 -78.81 164.02 -77.42 164.67 -76.02 163.95 -74.01 162.58 -73.39 160.59 -74.14 159.84 -72.16 158.48 -71.54 156.5 -72.25 155.88 -73.58 155.25 -74.89 155.96 -76.87 "/><polyline fill="none" stroke="#444" stroke-width="0.5" stroke-linecap="square" stroke-miterlimit="1"  points="159.95 -75.5 160.59 -74.14 "/><polyline fill="none" stroke="#444" stroke-width="0.5" stroke-linecap="square" stroke-miterlimit="1"  points="165.18 -71.22 167.16 -70.39 167.75 -68.97 168.33 -67.55 167.5 -65.57 166.1 -65.03 164.15 -65.87 163.31 -63.93 161.91 -63.39 159.97 -64.2 159.42 -65.55 158.86 -66.9 159.67 -68.84 "/><polyline fill="none" stroke="#444" stroke-width="0.5" stroke-linecap="square" stroke-miterlimit="1"  points="163.59 -67.26 164.15 -65.87 "/><polyline fill="none" stroke="#444" stroke-width="0.5" stroke-linecap="square" stroke-miterlimit="1"  points="168.24 -54.59 168.7 -53.17 169.14 -51.73 169.57 -50.3 171.44 -49.27 172.88 -49.69 173.89 -51.58 173.44 -53.05 172.99 -54.52 172.52 -55.98 163.96 -53.2 "/><polyline fill="none" stroke="#444" stroke-width="0.5" stroke-linecap="square" stroke-miterlimit="1"  points="166.45 -44.8 172.25 -46.36 "/><polyline fill="none" stroke="#444" stroke-width="0.5" stroke-linecap="square" stroke-miterlimit="1"  points="173.69 -46.75 175.14 -47.14 "/><polyline fill="none" stroke="#444" stroke-width="0.5" stroke-linecap="square" stroke-miterlimit="1"  points="169.98 -36.59 168.2 -37.7 169.34 -39.47 176.64 -41.17 "/><polyline fill="none" stroke="#444" stroke-width="0.5" stroke-linecap="square" stroke-miterlimit="1"  points="174.38 -37.54 174.06 -39.01 173.72 -40.49 173.37 -41.96 173.01 -43.43 "/><polyline fill="none" stroke="#444" stroke-width="0.5" stroke-linecap="square" stroke-miterlimit="1"  points="170.14 -27.65 169.9 -29.1 169.65 -30.54 169.38 -31.97 170.58 -33.7 173.52 -34.28 175.28 -33.09 175.55 -31.6 175.82 -30.11 176.06 -28.62 "/><polyline fill="none" stroke="#444" stroke-width="0.5" stroke-linecap="square" stroke-miterlimit="1"  points="173.56 -25.2 175.25 -23.93 176.93 -22.63 177.12 -21.13 175.8 -19.46 171.33 -18.97 "/><polyline fill="none" stroke="#444" stroke-width="0.5" stroke-linecap="square" stroke-miterlimit="1"  points="170.59 -24.77 179.49 -26.06 "/><polyline fill="none" stroke="#444" stroke-width="0.5" stroke-linecap="square" stroke-miterlimit="1"  points="172.15 -8.77 172.22 -7.31 172.28 -5.85 172.32 -4.39 173.85 -2.95 179.85 -3.05 181.32 -4.61 181.27 -6.15 181.21 -7.69 181.14 -9.22 "/><polyline fill="none" stroke="#444" stroke-width="0.5" stroke-linecap="square" stroke-miterlimit="1"  points="181.21 -7.69 172.22 -7.31 "/><polyline fill="none" stroke="#444" stroke-width="0.5" stroke-linecap="square" stroke-miterlimit="1"  points="178.27 6.05 178.32 4.54 178.35 3.03 178.37 1.51 178.38 0 "/><polyline fill="none" stroke="#444" stroke-width="0.5" stroke-linecap="square" stroke-miterlimit="1"  points="175.27 5.95 175.32 4.46 175.35 2.97 175.37 1.49 175.38 0 "/><polyline fill="none" stroke="#444" stroke-width="0.5" stroke-linecap="square" stroke-miterlimit="1"  points="176.56 10.49 175.15 8.92 173.65 8.84 172.07 10.23 171.98 11.69 171.87 13.14 173.25 14.73 174.74 14.85 176.36 13.49 176.47 11.99 176.56 10.49 178.14 9.07 179.64 9.15 181.06 10.76 180.96 12.3 180.85 13.83 179.23 15.24 177.73 15.11 176.36 13.49 "/><polyline fill="none" stroke="#444" stroke-width="0.5" stroke-linecap="square" stroke-miterlimit="1"  points="172.98 17.66 171.48 17.51 "/><polyline fill="none" stroke="#444" stroke-width="0.5" stroke-linecap="square" stroke-miterlimit="1"  points="170.37 26.21 170.59 24.77 170.79 23.32 170.98 21.87 171.16 20.42 174.14 20.77 175.45 22.44 175.25 23.93 175.04 25.41 176.3 27.12 177.78 27.35 179.49 26.06 179.71 24.54 179.91 23.01 178.61 21.31 "/><polyline fill="none" stroke="#444" stroke-width="0.5" stroke-linecap="square" stroke-miterlimit="1"  points="177.63 36.66 177.94 35.15 178.23 33.64 178.51 32.13 178.77 30.62 175.82 30.11 175.55 31.6 175.28 33.09 174.99 34.57 173.22 35.75 170.29 35.15 169.11 33.41 169.38 31.97 169.65 30.54 171.38 29.35 "/><polyline fill="none" stroke="#444" stroke-width="0.5" stroke-linecap="square" stroke-miterlimit="1"  points="170.8 45.97 170.4 47.41 169.99 48.86 169.57 50.3 170.57 52.17 172.01 52.61 173.89 51.58 174.32 50.1 174.74 48.62 175.14 47.14 166.45 44.8 "/><polyline fill="none" stroke="#444" stroke-width="0.5" stroke-linecap="square" stroke-miterlimit="1"  points="167.7 60.78 168.21 59.36 168.71 57.93 169.19 56.49 169.67 55.06 "/><polyline fill="none" stroke="#444" stroke-width="0.5" stroke-linecap="square" stroke-miterlimit="1"  points="164.88 59.76 165.38 58.36 165.87 56.95 166.35 55.54 166.81 54.13 "/><polyline fill="none" stroke="#444" stroke-width="0.5" stroke-linecap="square" stroke-miterlimit="1"  points="161.63 68.07 162.2 66.69 162.76 65.31 163.31 63.93 163.84 62.54 165.17 64.66 166.47 66.8 167.75 68.97 159.42 65.55 "/><polyline fill="none" stroke="#444" stroke-width="0.5" stroke-linecap="square" stroke-miterlimit="1"  points="158.65 78.2 157.98 79.54 157.3 80.88 156.61 82.21 157.23 84.24 158.55 84.95 160.59 84.3 161.3 82.94 162 81.56 162.69 80.19 154.61 76.21 "/><polyline fill="none" stroke="#444" stroke-width="0.5" stroke-linecap="square" stroke-miterlimit="1"  points="150.54 83.97 153.16 85.44 155.03 88.21 156.88 91.03 153.52 90.83 150.17 90.58 147.6 89.03 "/><polyline fill="none" stroke="#444" stroke-width="0.5" stroke-linecap="square" stroke-miterlimit="1"  points="153.16 85.44 152.43 86.73 151.69 88.02 150.93 89.3 150.17 90.58 "/><polyline fill="none" stroke="#444" stroke-width="0.5" stroke-linecap="square" stroke-miterlimit="1"  points="147.86 99.78 148.7 98.52 149.53 97.26 150.35 95.99 151.16 94.71 "/><polyline fill="none" stroke="#444" stroke-width="0.5" stroke-linecap="square" stroke-miterlimit="1"  points="145.37 98.1 146.2 96.87 147.01 95.62 147.82 94.37 148.61 93.11 "/><polyline fill="none" stroke="#444" stroke-width="0.5" stroke-linecap="square" stroke-miterlimit="1"  points="137.79 103.57 138.67 102.39 139.53 101.21 140.38 100.03 141.23 98.83 143.69 100.55 144.05 102.64 143.17 103.86 142.29 105.07 142.59 107.17 143.79 108.07 145.91 107.74 146.82 106.5 147.71 105.25 147.37 103.13 "/><polyline fill="none" stroke="#444" stroke-width="0.5" stroke-linecap="square" stroke-miterlimit="1"  points="139.57 108.65 138.64 109.83 137.71 111 136.76 112.17 134.65 112.36 133.5 111.4 133.28 109.31 134.2 108.18 135.12 107.04 137.2 106.81 140.75 109.57 140.99 111.69 141.21 113.83 140.24 115.02 "/></g></g><g class="guides gearguides" opacity="0.2"><circle class="pitch" fill="none" stroke="#f00" stroke-miterlimit="10" cx="0" cy="0" r="206.25"/><circle class="outer" fill="none" stroke="#ccc" stroke-miterlimit="10" stroke-dasharray="2,2" cx="0" cy="0" r="218.75"/><circle class="base" fill="none" stroke="#00f" stroke-miterlimit="10" stroke-dasharray="2,2" cx="0" cy="0" r="185.38"/></g></svg>