<?xml version="1.0" encoding="utf-8"?><!-- Generator: Iparigrafika Gear Generator by Abel Vincze http://geargenerator.com/ --><svg version="1.2" class="svggear" xmlns="http://www.w3.org/2000/svg" xmlns:xlink="http://www.w3.org/1999/xlink" x="0px" y="0px" width="238px" height="238px" viewBox="-119 -119 238 238" overflow="scroll" xml:space="preserve"><path id="gearpoly4" data-id="4" class="gear" fill="#ddd" stroke="#444" stroke-width="1" stroke-miterlimit="10" d="M66.875,0 73.038138,-0.000129 73.098653,-0.002117 73.211655,-0.008765 73.3769,-0.022894 73.594029,-0.047308 73.862572,-0.084801 74.181946,-0.138145 74.551454,-0.21009 74.970293,-0.30336 75.437545,-0.420647 75.952186,-0.564609 76.513085,-0.737864 77.119003,-0.94299 77.768598,-1.182516 78.460422,-1.458922 79.19293,-1.774634 79.964474,-2.132022 80.773311,-2.533393 81.6176,-2.98099 82.495409,-3.476988 83.404715,-4.023492 84.343407,-4.62253 85.309287,-5.276055 86.300074,-5.985936 87.313407,-6.753961 88.34685,-7.581828 89.39789,-8.471147 90.463942,-9.423436 91.542355,-10.440117 92.630413,-11.522513 92.90361,-11.803526 92.971971,-11.874435 92.989065,-11.892203 92.991202,-11.894425 92.992128,-11.896493 92.283138,-16.519229 92.281635,-16.520924 92.27893,-16.522404 92.257297,-16.534233 92.170827,-16.581395 91.82597,-16.767617 90.463539,-17.474181 89.130003,-18.12094 87.827558,-18.709972 86.558307,-19.243428 85.324261,-19.72353 84.127333,-20.152566 82.969342,-20.532888 81.852002,-20.866909 80.77693,-21.157096 79.745636,-21.405969 78.759528,-21.616098 77.819904,-21.790095 76.927958,-21.930617 76.084771,-22.040353 75.291316,-22.122028 74.548453,-22.178395 73.856933,-22.212234 73.217391,-22.226343 72.63035,-22.223539 72.096219,-22.20665 71.615294,-22.178515 71.187755,-22.141976 70.813668,-22.099876 70.492988,-22.055054 70.225552,-22.010344 70.011086,-21.968564 69.849202,-21.932521 69.739402,-21.904998 69.681073,-21.888758 63.801176,-20.041844 59.214872,-31.078362 64.671999,-33.94263 64.724659,-33.972512 64.821628,-34.030914 64.961379,-34.120217 65.142291,-34.24274 65.362651,-34.400736 65.620652,-34.59639 65.914401,-34.831814 66.241919,-35.109044 66.601144,-35.430039 66.989934,-35.796677 67.40607,-36.21075 67.847257,-36.673964 68.311131,-37.187935 68.795259,-37.754187 69.297143,-38.37415 69.814225,-39.049156 70.343888,-39.780437 70.883461,-40.569125 71.43022,-41.416248 71.981398,-42.322729 72.534181,-43.289383 73.085717,-44.316917 73.633117,-45.405927 74.173461,-46.556899 74.7038,-47.770203 75.221162,-49.046099 75.722553,-50.384728 76.204966,-51.786118 76.665379,-53.250178 76.776689,-53.625963 76.804267,-53.720519 76.811146,-53.744196 76.812005,-53.747157 76.811864,-53.749418 74.035792,-57.513164 74.033673,-57.513966 74.030591,-57.514019 74.005938,-57.51444 73.907455,-57.516015 73.515558,-57.520643 71.980828,-57.513122 70.499477,-57.466074 69.072483,-57.382359 67.700708,-57.26486 66.3849,-57.116479 65.12569,-56.940132 63.923595,-56.738745 62.779012,-56.515252 61.692227,-56.272589 60.663404,-56.013689 59.692597,-55.741482 58.779741,-55.458884 57.924658,-55.168801 57.127056,-54.874119 56.38653,-54.577702 55.702563,-54.282388 55.074526,-53.990985 54.501683,-53.706268 53.983187,-53.430973 53.518087,-53.167796 53.105324,-52.919386 52.743737,-52.688345 52.432065,-52.477221 52.168946,-52.288506 51.952922,-52.124633 51.782437,-51.987971 51.655847,-51.880825 51.571413,-51.805429 51.527313,-51.763942 47.179227,-47.396056 37.98933,-55.037046 41.490285,-60.109283 41.523026,-60.160214 41.581747,-60.25699 41.663989,-60.40101 41.76724,-60.593573 41.888934,-60.835878 42.026457,-61.129019 42.177153,-61.473989 42.33832,-61.871669 42.507224,-62.322837 42.681096,-62.828158 42.857136,-63.388189 43.032522,-64.003375 43.204407,-64.674047 43.369931,-65.400424 43.526216,-66.182611 43.670379,-67.020599 43.799529,-67.914263 43.910775,-68.863363 44.001229,-69.867545 44.06801,-70.926339 44.108248,-72.03916 44.11909,-73.205307 44.097701,-74.423968 44.041268,-75.694213 43.947009,-77.015001 43.812172,-78.385181 43.634041,-79.803486 43.409937,-81.268544 43.13723,-82.778869 43.061154,-83.163339 43.041631,-83.25988 43.036718,-83.284042 43.036103,-83.287063 43.034928,-83.289 38.827738,-85.331525 38.825489,-85.331251 38.822735,-85.329866 38.800711,-85.318781 38.712777,-85.274409 38.363618,-85.096384 37.008178,-84.376499 35.718371,-83.646422 34.493734,-82.909139 33.333692,-82.167603 32.237558,-81.424732 31.204536,-80.6834 30.233722,-79.946439 29.324108,-79.216632 28.474578,-78.49671 27.683917,-77.789348 26.950812,-77.097164 26.273847,-76.422711 25.651517,-75.768478 25.082222,-75.136886 24.56427,-74.530282 24.095887,-73.950939 23.67521,-73.401051 23.300297,-72.882733 22.969127,-72.398015 22.679606,-71.94884 22.429564,-71.537064 22.216765,-71.164449 22.038908,-70.832667 21.893628,-70.543291 21.778503,-70.297797 21.691056,-70.097561 21.628759,-69.943858 21.589035,-69.83786 21.569266,-69.78063 19.749085,-63.892404 8.06089,-66.387406 8.803646,-72.505623 8.808968,-72.565937 8.815988,-72.678916 8.821881,-72.844659 8.823817,-73.063148 8.818967,-73.334253 8.804508,-73.657727 8.777627,-74.033214 8.735522,-74.460241 8.675411,-74.938224 8.594532,-75.466465 8.490149,-76.044158 8.359554,-76.670384 8.200075,-77.344114 8.009074,-78.064211 7.783958,-78.829433 7.522175,-79.63843 7.221225,-80.489749 6.87866,-81.381834 6.492086,-82.313029 6.059171,-83.28158 5.577647,-84.285633 5.045312,-85.323244 4.460032,-86.392374 3.819752,-87.490894 3.122489,-88.616591 2.366342,-89.767162 1.549495,-90.940228 0.670215,-92.133325 -0.273138,-93.343918 -0.519172,-93.648996 -0.581324,-93.725406 -0.596903,-93.744517 -0.598851,-93.746906 -0.600792,-93.748075 -5.275282,-93.601463 -5.277146,-93.600175 -5.278941,-93.597668 -5.293291,-93.577619 -5.350533,-93.497464 -5.576965,-93.177568 -6.4426,-91.910237 -7.245384,-90.664383 -7.987113,-89.442434 -8.669671,-88.246739 -9.29502,-87.07956 -9.865201,-85.943074 -10.382331,-84.839368 -10.848597,-83.770437 -11.266254,-82.738181 -11.637621,-81.744405 -11.96508,-80.790815 -12.251068,-79.879015 -12.498077,-79.01051 -12.708648,-78.186698 -12.885368,-77.408873 -13.030867,-76.678221 -13.147812,-75.995822 -13.238907,-75.362643 -13.306883,-74.779544 -13.3545,-74.247272 -13.384539,-73.766462 -13.3998,-73.337636 -13.403098,-72.961203 -13.397257,-72.637458 -13.385108,-72.366582 -13.369485,-72.148644 -13.353217,-71.983596 -13.33913,-71.871279 -13.330039,-71.811417 -12.205334,-65.751771 -23.714202,-62.529211 -25.899802,-68.2918 -25.923119,-68.347677 -25.969407,-68.450979 -26.041213,-68.600475 -26.141036,-68.794837 -26.271319,-69.032634 -26.434448,-69.312337 -26.632747,-69.632322 -26.868478,-69.990869 -27.143834,-70.386166 -27.460935,-70.816315 -27.821829,-71.279327 -28.228486,-71.773132 -28.682796,-72.295576 -29.186565,-72.844428 -29.741512,-73.417382 -30.349269,-74.012057 -31.011374,-74.626004 -31.729274,-75.256708 -32.504316,-75.901591 -33.33775,-76.558014 -34.230725,-77.223284 -35.184287,-77.894654 -36.199375,-78.569328 -37.276824,-79.244467 -38.417357,-79.917187 -39.621589,-80.584569 -40.890022,-81.243659 -42.223045,-81.891473 -43.620934,-82.525001 -43.980562,-82.680796 -44.071105,-82.719571 -44.09378,-82.729253 -44.096616,-82.730463 -44.098877,-82.730596 -48.169799,-80.428434 -48.170851,-80.426427 -48.171276,-80.423373 -48.174664,-80.398951 -48.1881,-80.301376 -48.239932,-79.912894 -48.417456,-78.388448 -48.549308,-76.912227 -48.638209,-75.485546 -48.686917,-74.10961 -48.69822,-72.78551 -48.67494,-71.514225 -48.619918,-70.29662 -48.536018,-69.133444 -48.426122,-68.025332 -48.293121,-66.972804 -48.139916,-65.976264 -47.969412,-65.036 -47.784513,-64.152186 -47.588119,-63.32488 -47.383124,-62.554024 -47.172406,-61.839447 -46.958829,-61.180865 -46.745237,-60.57788 -46.534447,-60.029981 -46.32925,-59.536549 -46.132405,-59.096853 -45.946633,-58.710054 -45.774616,-58.375206 -45.618992,-58.091259 -45.482353,-57.857056 -45.367238,-57.671342 -45.276132,-57.53276 -45.211462,-57.439854 -45.175593,-57.391074 -41.363658,-52.548201 -50.056656,-44.346328 -54.669917,-48.433147 -54.716531,-48.471789 -54.805523,-48.541746 -54.93858,-48.640749 -55.117293,-48.766458 -55.343163,-48.916471 -55.61759,-49.088326 -55.94188,-49.279504 -56.317235,-49.487432 -56.744754,-49.709487 -57.225433,-49.943 -57.760161,-50.185261 -58.349721,-50.433521 -58.994784,-50.684994 -59.695913,-50.936865 -60.45356,-51.186293 -61.268061,-51.430413 -62.139641,-51.666341 -63.068412,-51.891177 -64.05437,-52.102012 -65.097395,-52.29593 -66.197251,-52.470011 -67.353589,-52.621337 -68.565943,-52.746997 -69.833728,-52.844087 -71.156249,-52.909719 -72.532691,-52.941022 -73.962127,-52.935147 -75.443515,-52.889271 -76.975699,-52.800601 -77.366536,-52.771423 -77.464727,-52.763679 -77.489304,-52.761714 -77.492377,-52.761468 -77.494442,-52.760534 -80.029196,-48.830219 -80.029195,-48.827954 -80.028151,-48.825052 -80.019803,-48.801853 -79.986353,-48.709211 -79.851712,-48.34114 -79.300456,-46.90881 -78.731172,-45.540406 -78.146878,-44.235828 -77.550577,-42.994862 -76.945246,-41.817177 -76.333836,-40.702329 -75.719267,-39.649763 -75.104423,-38.658812 -74.492149,-37.728699 -73.885249,-36.85854 -73.286477,-36.047346 -72.698541,-35.294021 -72.124092,-34.59737 -71.565726,-33.956095 -71.025977,-33.368802 -70.507315,-32.834001 -70.012144,-32.35011 -69.542796,-31.915454 -69.10153,-31.528273 -68.690528,-31.18672 -68.311893,-30.888867 -67.967645,-30.632706 -67.65972,-30.416154 -67.389965,-30.237053 -67.160138,-30.093176 -66.971903,-29.982231 -66.82683,-29.901861 -66.726392,-29.849651 -66.671963,-29.823127 -61.046067,-27.30647 -64.931734,-16.004235 -70.915813,-17.479045 -70.975046,-17.491598 -71.086355,-17.512185 -71.250179,-17.538013 -71.466842,-17.566271 -71.736554,-17.594134 -72.059413,-17.618771 -72.435402,-17.637346 -72.864391,-17.647021 -73.346134,-17.644963 -73.880274,-17.628346 -74.466337,-17.594357 -75.103737,-17.540197 -75.791778,-17.46309 -76.529648,-17.36028 -77.316425,-17.229042 -78.151078,-17.066682 -79.032466,-16.870541 -79.959338,-16.638003 -80.93034,-16.366491 -81.944011,-16.053478 -82.998785,-15.69649 -84.092996,-15.293106 -85.224879,-14.840964 -86.392567,-14.337763 -87.594102,-13.781272 -88.827428,-13.169325 -90.0904,-12.49983 -91.380784,-11.770774 -92.696259,-10.980219 -93.028769,-10.772752 -93.112113,-10.720264 -93.132963,-10.707102 -93.135569,-10.705456 -93.136963,-10.70367 -93.554868,-6.04559 -93.553814,-6.043584 -93.551542,-6.041501 -93.533368,-6.024838 -93.460698,-5.958353 -93.170427,-5.695012 -92.016678,-4.682929 -90.876672,-3.735827 -89.753038,-2.852216 -88.648334,-2.03051 -87.565043,-1.269032 -86.505571,-0.56602 -85.472245,0.080376 -84.46731,0.672088 -83.492923,1.211124 -82.551157,1.699571 -81.64399,2.139585 -80.773311,2.533393 -79.940911,2.883287 -79.148487,3.191623 -78.397635,3.460811 -77.689848,3.693319 -77.02652,3.891666 -76.408939,4.058418 -75.838285,4.196183 -75.315633,4.307611 -74.841949,4.395386 -74.418089,4.462225 -74.044798,4.510873 -73.72271,4.544098 -73.452345,4.564688 -73.234113,4.575448 -73.068307,4.579193 -72.955111,4.578747 -72.89459,4.576938 -66.743557,4.190843 -64.931734,16.004235 -70.915752,17.479296 -70.974033,17.495708 -71.08216,17.529207 -71.239222,17.58247 -71.444199,17.658137 -71.695966,17.758807 -71.993293,17.887032 -72.334847,18.045316 -72.719194,18.23611 -73.1448,18.46181 -73.610034,18.72475 -74.113172,19.027203 -74.652393,19.371374 -75.225789,19.759397 -75.831362,20.193336 -76.46703,20.675175 -77.130626,21.206821 -77.819904,21.790095 -78.532543,22.426738 -79.266145,23.118397 -80.018241,23.866631 -80.786297,24.672907 -81.567711,25.538591 -82.359822,26.464955 -83.15991,27.453169 -83.965201,28.504299 -84.772871,29.619306 -85.580048,30.799046 -86.383817,32.044265 -87.181224,33.355598 -87.379231,33.693826 -87.428636,33.779035 -87.440982,33.800377 -87.442524,33.803046 -87.442929,33.805276 -85.648247,38.124011 -85.646382,38.125297 -85.643402,38.126086 -85.619566,38.132394 -85.524322,38.157493 -85.144921,38.255774 -83.652987,38.615755 -82.203422,38.924585 -80.797859,39.184805 -79.437826,39.399008 -78.124743,39.569832 -76.859921,39.699957 -75.644562,39.792103 -74.479753,39.84902 -73.366474,39.873493 -72.305589,39.86833 -71.297848,39.836362 -70.343888,39.780437 -69.444231,39.703418 -68.599284,39.608177 -67.809339,39.497593 -67.074573,39.374544 -66.395049,39.241908 -65.770714,39.102555 -65.201403,38.959344 -64.686835,38.81512 -64.226617,38.672709 -63.820246,38.534915 -63.467106,38.404513 -63.16647,38.284251 -62.917505,38.176838 -62.71927,38.084947 -62.570716,38.01121 -62.470692,37.95821 -62.417945,37.928483 -57.150903,34.728085 -50.056656,44.346328 -54.669746,48.433341 -54.713724,48.474957 -54.793898,48.554868 -54.908217,48.675021 -55.054551,48.837279 -55.230696,49.04342 -55.434377,49.295132 -55.66325,49.594013 -55.914905,49.941568 -56.186873,50.339204 -56.476623,50.788231 -56.781572,51.28986 -57.099085,51.845196 -57.426478,52.455245 -57.761025,53.120902 -58.099959,53.842959 -58.440476,54.622096 -58.779741,55.458884 -59.114889,56.353783 -59.443031,57.307138 -59.761257,58.319184 -60.066642,59.390038 -60.356246,60.519705 -60.627123,61.708072 -60.87632,62.954911 -61.100885,64.259878 -61.297872,65.622511 -61.464339,67.042233 -61.597359,68.518349 -61.69402,70.05005 -61.712165,70.441555 -61.716313,70.539963 -61.717325,70.564598 -61.717451,70.567678 -61.716774,70.56984 -58.120645,73.55986 -58.118396,73.560132 -58.115391,73.559446 -58.091354,73.553955 -57.995356,73.531916 -57.613739,73.442623 -56.125405,73.068035 -54.698359,72.667843 -53.332865,72.245059 -52.02907,71.802688 -50.787007,71.343725 -49.60659,70.871153 -48.487621,70.387938 -47.429783,69.897023 -46.432651,69.401326 -45.495683,68.903736 -44.618229,68.407109 -43.799529,67.914263 -43.038715,67.427974 -42.334812,66.950976 -41.686741,66.485953 -41.093322,66.035536 -40.553272,65.602302 -40.065212,65.188768 -39.627665,64.797388 -39.239062,64.430553 -38.897741,64.090581 -38.601954,63.77972 -38.349864,63.500142 -38.139553,63.253943 -37.969023,63.043133 -37.836198,62.869644 -37.738927,62.735316 -37.674991,62.641904 -37.6421,62.591069 -34.465666,57.309541 -23.714202,62.529211 -25.89956,68.291891 -25.919161,68.349178 -25.953015,68.457195 -25.998401,68.616712 -26.052569,68.828388 -26.112739,69.092776 -26.176113,69.410311 -26.239873,69.78132 -26.301186,70.206014 -26.35721,70.684493 -26.405098,71.216741 -26.441999,71.802628 -26.465065,72.44191 -26.471453,73.134228 -26.458334,73.87911 -26.422888,74.67597 -26.362318,75.524108 -26.273847,76.422711 -26.154726,77.370855 -26.002235,78.367505 -25.813689,79.411514 -25.586443,80.501627 -25.317893,81.636483 -25.00548,82.814613 -24.646698,84.034442 -24.239093,85.294293 -23.780269,86.592389 -23.26789,87.926852 -22.699688,89.295705 -22.07346,90.69688 -21.907586,91.051972 -21.865526,91.141036 -21.854974,91.16332 -21.853654,91.166106 -21.852049,91.167705 -17.278304,92.144032 -17.276186,92.143228 -17.273844,92.141224 -17.255112,92.125191 -17.180352,92.061064 -16.883943,91.804652 -15.74017,90.781308 -14.662561,89.763775 -13.649953,88.754841 -12.701081,87.757237 -11.814579,86.77363 -10.988987,85.806621 -10.22275,84.858744 -9.514221,83.932459 -8.861666,83.030151 -8.263264,82.154126 -7.717111,81.306612 -7.221225,80.489749 -6.773547,79.705594 -6.371944,78.956113 -6.014213,78.243182 -5.698086,77.568582 -5.42123,76.933999 -5.181253,76.34102 -4.975707,75.791132 -4.802093,75.285723 -4.657861,74.826073 -4.540419,74.41336 -4.44713,74.048654 -4.375324,73.732919 -4.322295,73.467007 -4.285309,73.251663 -4.261606,73.087518 -4.248404,72.975093 -4.242905,72.914795 -3.884759,66.762072 8.06089,66.387406 8.803903,72.505592 8.81317,72.565426 8.833391,72.676803 8.867335,72.83914 8.917743,73.051744 8.987332,73.313809 9.078783,73.624424 9.194743,73.982567 9.337818,74.387109 9.510571,74.836817 9.715516,75.330353 9.955118,75.866279 10.231783,76.443054 10.547862,77.05904 10.905643,77.712504 11.307348,78.401616 11.755129,79.124456 12.251068,79.879015 12.797169,80.663197 13.39536,81.47482 14.047484,82.311623 14.755301,83.171264 15.520485,84.051328 16.344616,84.949324 17.229185,85.862694 18.175584,86.788814 19.185108,87.724995 20.258952,88.668488 21.398208,89.616491 22.603863,90.566147 22.915758,90.80348 22.99439,90.862796 23.014089,90.877624 23.016553,90.879477 23.018717,90.880147 27.522289,89.619117 27.52379,89.61742 27.524933,89.614557 27.534068,89.591656 27.570464,89.500131 27.71376,89.135342 28.250949,87.697678 28.732253,86.295907 29.159998,84.931958 29.536573,83.607661 29.864426,82.324742 30.14606,81.084827 30.384029,79.889435 30.580934,78.739981 30.739419,77.637769 30.86217,76.583996 30.951904,75.579749 31.011374,74.626004 31.043358,73.723623 31.050659,72.873356 31.036098,72.075841 31.002513,71.331601 30.952752,70.641044 30.889669,70.004464 30.816126,69.422041 30.734978,68.893841 30.649078,68.419813 30.561271,67.999795 30.474387,67.633511 30.391239,67.320572 30.314618,67.060475 30.247292,66.852609 30.191999,66.69625 30.151442,66.590567 30.12829,66.534621 27.586098,60.920217 37.98933,55.037046 41.490498,60.109136 41.52651,60.15781 41.596174,60.247032 41.701671,60.375 41.845107,60.539825 42.028513,60.739533 42.253839,60.972069 42.522954,61.2353 42.837641,61.527013 43.199595,61.844928 43.610423,62.18669 44.071637,62.54988 44.584652,62.932016 45.15079,63.330556 45.771269,63.7429 46.447207,64.166397 47.179619,64.598346 47.969412,65.036 48.817388,65.476573 49.724239,65.917236 50.690547,66.355131 51.716784,66.787367 52.803306,67.211026 53.950358,67.623169 55.158069,68.020839 56.426453,68.401063 57.755407,68.760861 59.144712,69.097243 60.594032,69.407219 62.102914,69.687802 62.489377,69.753005 62.586568,69.768984 62.610901,69.772959 62.613944,69.773455 62.616172,69.773043 66.017857,66.563542 66.018398,66.561342 66.018079,66.558275 66.015525,66.533752 66.005218,66.435797 65.962575,66.046199 65.770116,64.523566 65.544854,63.058687 65.289745,61.652188 65.007754,60.304577 64.701851,59.016248 64.375009,57.787476 64.030193,56.61842 63.670366,55.509122 63.298474,54.45951 62.917452,53.469396 62.530211,52.538478 62.139641,51.666341 61.748605,50.852458 61.359931,50.096192 60.976414,49.396794 60.60081,48.75341 60.23583,48.165077 59.884141,47.630729 59.548355,47.149197 59.231035,46.71921 58.934684,46.339399 58.661743,46.008298 58.41459,45.724346 58.195535,45.485893 58.006818,45.291196 57.850604,45.138427 57.72898,45.025675 57.643956,44.950945 57.597456,44.912167 52.737313,41.122274 59.214872,31.078362 64.67212,33.942401 64.726626,33.968764 64.829775,34.015391 64.982657,34.079674 65.186262,34.158961 65.441469,34.250562 65.74905,34.351748 66.109668,34.459763 66.523876,34.57182 66.992113,34.685111 67.514708,34.796805 68.091875,34.904057 68.723715,35.004012 69.410216,35.093804 70.151248,35.170565 70.946571,35.231429 71.795826,35.273532 72.698541,35.294021 73.654131,35.290055 74.661894,35.258808 75.721018,35.197479 76.830575,35.103288 77.989527,34.973488 79.196723,34.805361 80.450905,34.596229 81.750702,34.343454 83.094638,34.044443 84.481132,33.696652 85.908494,33.29759 87.374936,32.844821 87.747433,32.722957 87.840917,32.691939 87.864311,32.68415 87.867235,32.683176 87.869016,32.681775 89.389529,28.259062 89.388986,28.256862 89.387279,28.254295 89.37362,28.233768 89.318973,28.151823 89.100158,27.826668 88.222142,26.567884 87.341919,25.375482 86.462398,24.248644 85.586442,23.186442 84.716862,22.187843 83.856419,21.251711 83.007812,20.376806 82.173684,19.561792 81.356612,18.805233 80.559104,18.105601 79.7836,17.461274 79.032466,16.870541 78.30799,16.331608 77.612381,15.842593 76.947768,15.401536 76.316192,15.0064 75.719606,14.655072 75.159877,14.345369 74.638774,14.07504 74.157977,13.841771 73.719063,13.643187 73.323515,13.476853 72.972714,13.340285 72.667936,13.230944 72.410355,13.14625 72.201039,13.083577 72.040948,13.04026 71.930934,13.013603 71.871739,13.000876 65.807045,11.903714 z"/><g class="guides"><polyline fill="none" stroke="#444" stroke-width="0.5" stroke-miterlimit="10" points="10,0 -10,0"/><polyline fill="none" stroke="#444" stroke-width="0.5" stroke-miterlimit="10" points="0,10 0,-10"/></g><circle fill="#c00" class="firstmarker" stroke="none" stroke-miterlimit="10" cx="80.310935" cy="-12.317312" r="4.90625"/><g class="geartext"><g class="text"><polyline fill="none" stroke="#444" stroke-width="0.5" stroke-linecap="square" stroke-miterlimit="1"  points="-32.8 -40.19 -33.95 -39.22 -35.07 -38.22 -36.16 -37.19 -37.22 -36.13 "/><polyline fill="none" stroke="#444" stroke-width="0.5" stroke-linecap="square" stroke-miterlimit="1"  points="-33.04 -36.01 -37.1 -40.43 "/><polyline fill="none" stroke="#444" stroke-width="0.5" stroke-linecap="square" stroke-miterlimit="1"  points="-34.7 -42.51 -34.93 -40.35 -35.07 -38.22 -35.12 -36.12 -35.07 -34.04 "/><polyline fill="none" stroke="#444" stroke-width="0.5" stroke-linecap="square" stroke-miterlimit="1"  points="-30.91 -37.86 -32.97 -38.09 -35.07 -38.22 -37.21 -38.27 -39.38 -38.22 "/><polyline fill="none" stroke="#444" stroke-width="0.5" stroke-linecap="square" stroke-miterlimit="1"  points="-24.64 -43.94 -25.9 -43.21 -27.14 -42.44 -28.36 -41.64 -29.55 -40.8 -29.48 -43.29 -29.29 -45.81 -28.99 -48.35 -24.36 -40.63 "/><polyline fill="none" stroke="#444" stroke-width="0.5" stroke-linecap="square" stroke-miterlimit="1"  points="-10.82 -55.33 -9.09 -46.49 -10.93 -48.41 -12.88 -50.25 -14.95 -52.02 -17.13 -53.71 -14.39 -45.14 "/><polyline fill="none" stroke="#444" stroke-width="0.5" stroke-linecap="square" stroke-miterlimit="1"  points="-1.04 -53.36 -2.59 -53.31 -4.13 -53.22 -5.66 -53.07 -7.2 -52.89 "/><polyline fill="none" stroke="#444" stroke-width="0.5" stroke-linecap="square" stroke-miterlimit="1"  points="-0.99 -50.37 -2.44 -50.32 -3.89 -50.22 -5.35 -50.09 -6.79 -49.92 "/><polyline fill="none" stroke="#444" stroke-width="0.5" stroke-linecap="square" stroke-miterlimit="1"  points="2.1 -54.83 3.78 -56.25 3.18 -47.27 "/><polyline fill="none" stroke="#444" stroke-width="0.5" stroke-linecap="square" stroke-miterlimit="1"  points="4.55 -47.16 3.18 -47.27 1.81 -47.34 "/><polyline fill="none" stroke="#444" stroke-width="0.5" stroke-linecap="square" stroke-miterlimit="1"  points="8.41 -54.23 10.25 -55.44 11.85 -55.12 13.44 -54.75 14.62 -52.89 14.22 -51.45 12.36 -50.38 13.42 -48.56 13.02 -47.11 11.29 -46.01 9.96 -46.32 8.61 -46.59 7.49 -48.3 "/><polyline fill="none" stroke="#444" stroke-width="0.5" stroke-linecap="square" stroke-miterlimit="1"  points="10.9 -50.72 12.36 -50.38 "/><polyline fill="none" stroke="#444" stroke-width="0.5" stroke-linecap="square" stroke-miterlimit="1"  points="23.59 -46.2 24.91 -45.5 26.22 -44.76 27.5 -43.99 29.59 -44.42 30.42 -45.67 29.89 -47.8 28.49 -48.65 27.07 -49.45 25.63 -50.21 21.54 -42.2 "/><polyline fill="none" stroke="#444" stroke-width="0.5" stroke-linecap="square" stroke-miterlimit="1"  points="28.5 -37.84 32.11 -42.64 "/><polyline fill="none" stroke="#444" stroke-width="0.5" stroke-linecap="square" stroke-miterlimit="1"  points="33.01 -43.83 33.91 -45.03 "/><polyline fill="none" stroke="#444" stroke-width="0.5" stroke-linecap="square" stroke-miterlimit="1"  points="35.7 -33.38 33.66 -33.34 33.71 -35.39 38.89 -40.82 "/><polyline fill="none" stroke="#444" stroke-width="0.5" stroke-linecap="square" stroke-miterlimit="1"  points="38.99 -36.45 37.92 -37.56 36.82 -38.65 35.68 -39.69 34.52 -40.71 "/><polyline fill="none" stroke="#444" stroke-width="0.5" stroke-linecap="square" stroke-miterlimit="1"  points="39.67 -25.9 38.91 -27.03 38.11 -28.15 37.28 -29.24 37.57 -31.26 39.88 -33.18 42 -32.94 42.93 -31.71 43.83 -30.46 44.7 -29.18 "/><polyline fill="none" stroke="#444" stroke-width="0.5" stroke-linecap="square" stroke-miterlimit="1"  points="43.7 -25.05 45.73 -24.49 47.76 -23.82 48.43 -22.43 47.68 -20.43 43.55 -18.66 "/><polyline fill="none" stroke="#444" stroke-width="0.5" stroke-linecap="square" stroke-miterlimit="1"  points="41.1 -23.56 48.91 -28.04 "/><polyline fill="none" stroke="#444" stroke-width="0.5" stroke-linecap="square" stroke-miterlimit="1"  points="46.41 -9.52 46.66 -8.18 46.88 -6.83 47.06 -5.47 48.69 -4.23 54.67 -4.75 56 -6.51 55.79 -8.12 55.53 -9.73 55.22 -11.33 "/><polyline fill="none" stroke="#444" stroke-width="0.5" stroke-linecap="square" stroke-miterlimit="1"  points="55.53 -9.73 46.66 -8.18 "/><polyline fill="none" stroke="#444" stroke-width="0.5" stroke-linecap="square" stroke-miterlimit="1"  points="53.17 4.62 53.29 3.09 53.35 1.54 53.37 0 53.35 -1.54 "/><polyline fill="none" stroke="#444" stroke-width="0.5" stroke-linecap="square" stroke-miterlimit="1"  points="50.19 4.36 50.29 2.91 50.35 1.46 50.37 0 50.35 -1.46 "/><polyline fill="none" stroke="#444" stroke-width="0.5" stroke-linecap="square" stroke-miterlimit="1"  points="54.3 7.91 55.53 9.73 55.22 11.33 54.87 12.92 53.03 14.12 51.58 13.73 50.49 11.89 48.68 12.96 47.23 12.58 46.11 10.86 46.41 9.52 46.66 8.18 48.37 7.04 "/><polyline fill="none" stroke="#444" stroke-width="0.5" stroke-linecap="square" stroke-miterlimit="1"  points="50.82 10.43 50.49 11.89 "/><polyline fill="none" stroke="#444" stroke-width="0.5" stroke-linecap="square" stroke-miterlimit="1"  points="46.42 15.28 45 14.82 "/><polyline fill="none" stroke="#444" stroke-width="0.5" stroke-linecap="square" stroke-miterlimit="1"  points="41.77 22.36 42.39 21.14 42.99 19.91 43.55 18.66 44.07 17.39 46.86 18.49 47.68 20.43 47.07 21.8 46.42 23.15 47.06 25.19 48.38 25.9 50.45 25.16 51.15 23.69 51.82 22.2 51.04 20.15 "/><polyline fill="none" stroke="#444" stroke-width="0.5" stroke-linecap="square" stroke-miterlimit="1"  points="44.36 34.79 45.35 33.49 46.3 32.17 47.21 30.82 48.08 29.44 45.52 27.87 44.7 29.18 43.83 30.46 42.93 31.71 40.82 32.01 38.46 30.16 38.11 28.15 38.91 27.03 39.67 25.9 41.68 25.52 "/><polyline fill="none" stroke="#444" stroke-width="0.5" stroke-linecap="square" stroke-miterlimit="1"  points="33.55 39.56 32.39 40.52 31.21 41.44 30 42.32 29.59 44.42 30.42 45.67 32.6 45.99 33.91 45.03 35.2 44.03 36.46 43 30.64 36.13 "/><polyline fill="none" stroke="#444" stroke-width="0.5" stroke-linecap="square" stroke-miterlimit="1"  points="21.48 48.86 22.88 48.22 24.27 47.54 25.63 46.82 26.98 46.06 "/><polyline fill="none" stroke="#444" stroke-width="0.5" stroke-linecap="square" stroke-miterlimit="1"  points="20.27 46.12 21.6 45.51 22.9 44.87 24.19 44.19 25.46 43.47 "/><polyline fill="none" stroke="#444" stroke-width="0.5" stroke-linecap="square" stroke-miterlimit="1"  points="12.01 48.92 13.42 48.56 14.81 48.15 16.2 47.7 17.57 47.21 16.84 49.59 15.99 51.97 15.01 54.34 12.62 45.66 "/><polyline fill="none" stroke="#444" stroke-width="0.5" stroke-linecap="square" stroke-miterlimit="1"  points="1.98 51.84 0.49 51.87 -1.01 51.87 -2.51 51.81 -4.13 53.22 -4.24 54.71 -2.73 56.31 -1.1 56.36 0.53 56.37 2.16 56.33 1.81 47.34 "/><polyline fill="none" stroke="#444" stroke-width="0.5" stroke-linecap="square" stroke-miterlimit="1"  points="-6.39 46.94 -6.79 49.92 -8.72 52.66 -10.82 55.33 -11.75 52.07 -12.51 48.8 -11.76 45.89 "/><polyline fill="none" stroke="#444" stroke-width="0.5" stroke-linecap="square" stroke-miterlimit="1"  points="-6.79 49.92 -8.23 49.7 -9.67 49.44 -11.09 49.14 -12.51 48.8 "/><polyline fill="none" stroke="#444" stroke-width="0.5" stroke-linecap="square" stroke-miterlimit="1"  points="-21.98 48.64 -20.56 49.26 -19.13 49.83 -17.68 50.36 -16.22 50.85 "/><polyline fill="none" stroke="#444" stroke-width="0.5" stroke-linecap="square" stroke-miterlimit="1"  points="-20.74 45.91 -19.41 46.49 -18.05 47.03 -16.69 47.53 -15.31 47.99 "/><polyline fill="none" stroke="#444" stroke-width="0.5" stroke-linecap="square" stroke-miterlimit="1"  points="-26.67 39.16 -25.52 39.91 -24.36 40.63 -23.17 41.32 -21.97 41.97 -23.36 44.63 -25.38 45.24 -26.67 44.49 -27.95 43.7 -30.04 44.12 -30.89 45.36 -30.37 47.49 -28.99 48.35 -27.58 49.17 -25.45 48.62 "/><polyline fill="none" stroke="#444" stroke-width="0.5" stroke-linecap="square" stroke-miterlimit="1"  points="-31.63 41.12 -32.8 40.19 -33.95 39.22 -35.07 38.22 -35.12 36.12 -34.07 35.04 -32.03 34.91 -31.01 35.82 -29.96 36.7 -29.8 38.74 -32.54 42.31 -34.7 42.51 -36.9 42.62 -38.12 41.54 "/></g></g><g class="guides gearguides" opacity="0.2"><circle class="pitch" fill="none" stroke="#f00" stroke-miterlimit="10" cx="0" cy="0" r="81.25"/><circle class="outer" fill="none" stroke="#ccc" stroke-miterlimit="10" stroke-dasharray="2,2" cx="0" cy="0" r="93.75"/><circle class="base" fill="none" stroke="#00f" stroke-miterlimit="10" stroke-dasharray="2,2" cx="0" cy="0" r="73.03"/></g></svg>