0
SECTION
2
HEADER
9
$ACADVER
1
AC1027
9
$ACADMAINTVER
70
8
9
$DWGCODEPAGE
3
ANSI_1252
9
$LASTSAVEDBY
1
macc
9
$REQUIREDVERSIONS
160
0
9
$INSBASE
10
0.0
20
0.0
30
0.0
9
$EXTMIN
10
1.000000000000000E+20
20
1.000000000000000E+20
30
1.000000000000000E+20
9
$EXTMAX
10
-1.000000000000000E+20
20
-1.000000000000000E+20
30
-1.000000000000000E+20
9
$LIMMIN
10
0.0
20
0.0
9
$LIMMAX
10
12.0
20
9.0
9
$ORTHOMODE
70
0
9
$REGENMODE
70
1
9
$FILLMODE
70
1
9
$QTEXTMODE
70
0
9
$MIRRTEXT
70
0
9
$LTSCALE
40
1.0
9
$ATTMODE
70
1
9
$TEXTSIZE
40
0.2
9
$TRACEWID
40
0.05
9
$TEXTSTYLE
7
STANDARD
9
$CLAYER
8
0
9
$CELTYPE
6
ByLayer
9
$CECOLOR
62
256
9
$CELTSCALE
40
1.0
9
$DISPSILH
70
0
9
$DIMSCALE
40
1.0
9
$DIMASZ
40
0.18
9
$DIMEXO
40
0.0625
9
$DIMDLI
40
0.38
9
$DIMRND
40
0.0
9
$DIMDLE
40
0.0
9
$DIMEXE
40
0.18
9
$DIMTP
40
0.0
9
$DIMTM
40
0.0
9
$DIMTXT
40
0.18
9
$DIMCEN
40
0.09
9
$DIMTSZ
40
0.0
9
$DIMTOL
70
0
9
$DIMLIM
70
0
9
$DIMTIH
70
1
9
$DIMTOH
70
1
9
$DIMSE1
70
0
9
$DIMSE2
70
0
9
$DIMTAD
70
0
9
$DIMZIN
70
0
9
$DIMBLK
1

9
$DIMASO
70
1
9
$DIMSHO
70
1
9
$DIMPOST
1

9
$DIMAPOST
1

9
$DIMALT
70
0
9
$DIMALTD
70
2
9
$DIMALTF
40
25.4
9
$DIMLFAC
40
1.0
9
$DIMTOFL
70
0
9
$DIMTVP
40
0.0
9
$DIMTIX
70
0
9
$DIMSOXD
70
0
9
$DIMSAH
70
0
9
$DIMBLK1
1

9
$DIMBLK2
1

9
$DIMSTYLE
2
STANDARD
9
$DIMCLRD
70
0
9
$DIMCLRE
70
0
9
$DIMCLRT
70
0
9
$DIMTFAC
40
1.0
9
$DIMGAP
40
0.09
9
$DIMJUST
70
0
9
$DIMSD1
70
0
9
$DIMSD2
70
0
9
$DIMTOLJ
70
1
9
$DIMTZIN
70
0
9
$DIMALTZ
70
0
9
$DIMALTTZ
70
0
9
$DIMUPT
70
0
9
$DIMDEC
70
4
9
$DIMTDEC
70
4
9
$DIMALTU
70
2
9
$DIMALTTD
70
2
9
$DIMTXSTY
7
STANDARD
9
$DIMAUNIT
70
0
9
$DIMADEC
70
0
9
$DIMALTRND
40
0.0
9
$DIMAZIN
70
0
9
$DIMDSEP
70
46
9
$DIMATFIT
70
3
9
$DIMFRAC
70
0
9
$DIMLDRBLK
1

9
$DIMLUNIT
70
2
9
$DIMLWD
70
-2
9
$DIMLWE
70
-2
9
$DIMTMOVE
70
0
9
$DIMFXL
40
1.0
9
$DIMFXLON
70
0
9
$DIMJOGANG
40
0.7853981633974483
9
$DIMTFILL
70
0
9
$DIMTFILLCLR
70
0
9
$DIMARCSYM
70
0
9
$DIMLTYPE
6

9
$DIMLTEX1
6

9
$DIMLTEX2
6

9
$DIMTXTDIRECTION
70
0
9
$LUNITS
70
2
9
$LUPREC
70
4
9
$SKETCHINC
40
0.1
9
$FILLETRAD
40
0.0
9
$AUNITS
70
0
9
$AUPREC
70
0
9
$MENU
1
.
9
$ELEVATION
40
0.0
9
$PELEVATION
40
0.0
9
$THICKNESS
40
0.0
9
$LIMCHECK
70
0
9
$CHAMFERA
40
0.0
9
$CHAMFERB
40
0.0
9
$CHAMFERC
40
0.0
9
$CHAMFERD
40
0.0
9
$SKPOLY
70
0
9
$TDCREATE
40
2458312.067262384
9
$TDUCREATE
40
2458311.983929051
9
$TDUPDATE
40
2458312.961305069
9
$TDUUPDATE
40
2458312.877971736
9
$TDINDWG
40
0.0045230903
9
$TDUSRTIMER
40
0.0045219676
9
$USRTIMER
70
1
9
$ANGBASE
50
0.0
9
$ANGDIR
70
0
9
$PDMODE
70
0
9
$PDSIZE
40
0.0
9
$PLINEWID
40
0.0
9
$SPLFRAME
70
0
9
$SPLINETYPE
70
6
9
$SPLINESEGS
70
8
9
$HANDSEED
5
1058
9
$SURFTAB1
70
6
9
$SURFTAB2
70
6
9
$SURFTYPE
70
6
9
$SURFU
70
6
9
$SURFV
70
6
9
$UCSBASE
2

9
$UCSNAME
2

9
$UCSORG
10
0.0
20
0.0
30
0.0
9
$UCSXDIR
10
1.0
20
0.0
30
0.0
9
$UCSYDIR
10
0.0
20
1.0
30
0.0
9
$UCSORTHOREF
2

9
$UCSORTHOVIEW
70
0
9
$UCSORGTOP
10
0.0
20
0.0
30
0.0
9
$UCSORGBOTTOM
10
0.0
20
0.0
30
0.0
9
$UCSORGLEFT
10
0.0
20
0.0
30
0.0
9
$UCSORGRIGHT
10
0.0
20
0.0
30
0.0
9
$UCSORGFRONT
10
0.0
20
0.0
30
0.0
9
$UCSORGBACK
10
0.0
20
0.0
30
0.0
9
$PUCSBASE
2

9
$PUCSNAME
2

9
$PUCSORG
10
0.0
20
0.0
30
0.0
9
$PUCSXDIR
10
1.0
20
0.0
30
0.0
9
$PUCSYDIR
10
0.0
20
1.0
30
0.0
9
$PUCSORTHOREF
2

9
$PUCSORTHOVIEW
70
0
9
$PUCSORGTOP
10
0.0
20
0.0
30
0.0
9
$PUCSORGBOTTOM
10
0.0
20
0.0
30
0.0
9
$PUCSORGLEFT
10
0.0
20
0.0
30
0.0
9
$PUCSORGRIGHT
10
0.0
20
0.0
30
0.0
9
$PUCSORGFRONT
10
0.0
20
0.0
30
0.0
9
$PUCSORGBACK
10
0.0
20
0.0
30
0.0
9
$USERI1
70
0
9
$USERI2
70
0
9
$USERI3
70
0
9
$USERI4
70
0
9
$USERI5
70
0
9
$USERR1
40
0.0
9
$USERR2
40
0.0
9
$USERR3
40
0.0
9
$USERR4
40
0.0
9
$USERR5
40
0.0
9
$WORLDVIEW
70
1
9
$SHADEDGE
70
3
9
$SHADEDIF
70
70
9
$TILEMODE
70
1
9
$MAXACTVP
70
64
9
$PINSBASE
10
0.0
20
0.0
30
0.0
9
$PLIMCHECK
70
0
9
$PEXTMIN
10
0.0
20
0.0
30
0.0
9
$PEXTMAX
10
0.0
20
0.0
30
0.0
9
$PLIMMIN
10
0.0
20
0.0
9
$PLIMMAX
10
12.0
20
9.0
9
$UNITMODE
70
0
9
$VISRETAIN
70
1
9
$PLINEGEN
70
0
9
$PSLTSCALE
70
1
9
$TREEDEPTH
70
3020
9
$CMLSTYLE
2
Standard
9
$CMLJUST
70
0
9
$CMLSCALE
40
1.0
9
$PROXYGRAPHICS
70
1
9
$MEASUREMENT
70
0
9
$CELWEIGHT
370
-1
9
$ENDCAPS
280
0
9
$JOINSTYLE
280
0
9
$LWDISPLAY
290
0
9
$INSUNITS
70
0
9
$HYPERLINKBASE
1

9
$STYLESHEET
1

9
$XEDIT
290
1
9
$CEPSNTYPE
380
0
9
$PSTYLEMODE
290
1
9
$FINGERPRINTGUID
2
{4B4ED3CC-337F-6143-9B17-EFB0F3F01845}
9
$VERSIONGUID
2
{A4861B96-12DA-254C-ACF2-0C3CF0F63D02}
9
$EXTNAMES
290
1
9
$PSVPSCALE
40
0.0
9
$OLESTARTUP
290
0
9
$SORTENTS
280
127
9
$INDEXCTL
280
0
9
$HIDETEXT
280
0
9
$XCLIPFRAME
280
2
9
$HALOGAP
280
0
9
$OBSCOLOR
70
257
9
$OBSLTYPE
280
0
9
$INTERSECTIONDISPLAY
280
0
9
$INTERSECTIONCOLOR
70
257
9
$DIMASSOC
280
1
9
$PROJECTNAME
1

9
$CAMERADISPLAY
290
0
9
$LENSLENGTH
40
50.0
9
$CAMERAHEIGHT
40
0.0
9
$STEPSPERSEC
40
2.0
9
$STEPSIZE
40
6.0
9
$3DDWFPREC
40
2.0
9
$PSOLWIDTH
40
0.25
9
$PSOLHEIGHT
40
4.0
9
$LOFTANG1
40
1.570796326794896
9
$LOFTANG2
40
1.570796326794896
9
$LOFTMAG1
40
0.0
9
$LOFTMAG2
40
0.0
9
$LOFTPARAM
70
7
9
$LOFTNORMALS
280
1
9
$LATITUDE
40
37.795
9
$LONGITUDE
40
-122.394
9
$NORTHDIRECTION
40
0.0
9
$TIMEZONE
70
-8000
9
$LIGHTGLYPHDISPLAY
280
1
9
$TILEMODELIGHTSYNCH
280
1
9
$CMATERIAL
347
222
9
$SOLIDHIST
280
0
9
$SHOWHIST
280
1
9
$DWFFRAME
280
2
9
$DGNFRAME
280
0
9
$REALWORLDSCALE
290
1
9
$INTERFERECOLOR
62
1
9
$INTERFEREOBJVS
345
244
9
$INTERFEREVPVS
346
241
9
$CSHADOW
280
0
9
$SHADOWPLANELOCATION
40
0.0
0
ENDSEC
0
SECTION
2
CLASSES
0
CLASS
1
ACDBDICTIONARYWDFLT
2
AcDbDictionaryWithDefault
3
ObjectDBX Classes
90
0
91
1
280
0
281
0
0
CLASS
1
MATERIAL
2
AcDbMaterial
3
ObjectDBX Classes
90
1153
91
3
280
0
281
0
0
CLASS
1
VISUALSTYLE
2
AcDbVisualStyle
3
ObjectDBX Classes
90
4095
91
24
280
0
281
0
0
CLASS
1
SCALE
2
AcDbScale
3
ObjectDBX Classes
90
1153
91
17
280
0
281
0
0
CLASS
1
TABLESTYLE
2
AcDbTableStyle
3
ObjectDBX Classes
90
4095
91
1
280
0
281
0
0
CLASS
1
MLEADERSTYLE
2
AcDbMLeaderStyle
3
ACDB_MLEADERSTYLE_CLASS
90
4095
91
1
280
0
281
0
0
CLASS
1
ACDBSECTIONVIEWSTYLE
2
AcDbSectionViewStyle
3
ObjectDBX Classes
90
1025
91
1
280
0
281
0
0
CLASS
1
ACDBDETAILVIEWSTYLE
2
AcDbDetailViewStyle
3
ObjectDBX Classes
90
1025
91
1
280
0
281
0
0
CLASS
1
DICTIONARYVAR
2
AcDbDictionaryVar
3
ObjectDBX Classes
90
0
91
9
280
0
281
0
0
CLASS
1
CELLSTYLEMAP
2
AcDbCellStyleMap
3
ObjectDBX Classes
90
1152
91
2
280
0
281
0
0
ENDSEC
0
SECTION
2
TABLES
0
TABLE
2
VPORT
5
219
330
0
100
AcDbSymbolTable
70
1
0
VPORT
5
285
330
219
100
AcDbSymbolTableRecord
100
AcDbViewportTableRecord
2
*ACTIVE
70
0
10
0.0
20
0.0
11
1.0
21
1.0
12
60.85393284500712
22
1.602311788490737
13
0.0
23
0.0
14
0.5
24
0.5
15
0.5
25
0.5
16
0.0
26
0.0
36
1.0
17
0.0
27
0.0
37
0.0
40
135.7601553851812
41
1.367970660146699
42
50.0
43
0.0
44
0.0
50
0.0
51
0.0
71
0
72
1000
73
1
74
3
75
0
76
1
77
0
78
0
281
0
65
1
110
0.0
120
0.0
130
0.0
111
1.0
121
0.0
131
0.0
112
0.0
122
1.0
132
0.0
79
0
146
0.0
348
240
60
3
61
5
292
1
282
0
141
0.0
142
0.0
63
250
421
3355443
1001
ACAD_NAV_VCDISPLAY
1070
3
0
ENDTAB
0
TABLE
2
LTYPE
5
216
330
0
100
AcDbSymbolTable
70
2
0
LTYPE
5
26B
330
216
100
AcDbSymbolTableRecord
100
AcDbLinetypeTableRecord
2
ByBlock
70
0
3

72
65
73
0
40
0.0
0
LTYPE
5
26C
330
216
100
AcDbSymbolTableRecord
100
AcDbLinetypeTableRecord
2
ByLayer
70
0
3

72
65
73
0
40
0.0
0
LTYPE
5
26D
330
216
100
AcDbSymbolTableRecord
100
AcDbLinetypeTableRecord
2
CONTINUOUS
70
0
3
Solid line
72
65
73
0
40
0.0
0
LTYPE
5
103D
330
216
100
AcDbSymbolTableRecord
100
AcDbLinetypeTableRecord
2
DOTTED
70
0
3
Dotted . . . . . . . . . . . . . . . . . . . .
72
65
73
2
40
3.0
49
0.0
74
0
49
-3.0
74
0
0
ENDTAB
0
TABLE
2
LAYER
5
213
102
{ACAD_XDICTIONARY
360
297
102
}
330
0
100
AcDbSymbolTable
70
4
0
LAYER
5
265
102
{ACAD_XDICTIONARY
360
292
102
}
330
213
100
AcDbSymbolTableRecord
100
AcDbLayerTableRecord
2
0
70
0
62
7
6
CONTINUOUS
370
-3
390
220
347
232
348
0
0
LAYER
5
2FB
330
213
100
AcDbSymbolTableRecord
100
AcDbLayerTableRecord
2
gear
70
0
62
7
6
CONTINUOUS
370
-3
390
220
347
232
348
0
1001
AcAecLayerStandard
1000

1000

1001
AcCmTransparency
1071
0
0
LAYER
5
2FE
330
213
100
AcDbSymbolTableRecord
100
AcDbLayerTableRecord
2
gear_texts
70
0
62
7
6
CONTINUOUS
370
-3
390
220
347
232
348
0
1001
AcAecLayerStandard
1000

1000

1001
AcCmTransparency
1071
0
0
LAYER
5
2FF
330
213
100
AcDbSymbolTableRecord
100
AcDbLayerTableRecord
2
gear_guides
70
0
62
5
6
CONTINUOUS
370
-3
390
220
347
232
348
0
1001
AcAecLayerStandard
1000

1000

1001
AcCmTransparency
1071
0
0
ENDTAB
0
TABLE
2
STYLE
5
214
330
0
100
AcDbSymbolTable
70
3
0
STYLE
5
266
330
214
100
AcDbSymbolTableRecord
100
AcDbTextStyleTableRecord
2
STANDARD
70
0
40
0.0
41
1.0
50
0.0
71
0
42
0.2
3
txt
4

0
STYLE
5
26A
330
214
100
AcDbSymbolTableRecord
100
AcDbTextStyleTableRecord
2
ANNOTATIVE
70
0
40
0.0
41
1.0
50
0.0
71
0
42
0.2
3
txt
4

1001
ACADANNOTATIVE
1000
AnnotativeData
1002
{
1070
1
1070
1
1002
}
0
STYLE
5
301
330
214
100
AcDbSymbolTableRecord
100
AcDbTextStyleTableRecord
2

70
1
40
0.0
41
1.0
50
0.0
71
0
42
0.2
3
ltypeshp.shx
4

0
ENDTAB
0
TABLE
2
VIEW
5
217
330
0
100
AcDbSymbolTable
70
1
0
ENDTAB
0
TABLE
2
UCS
5
218
330
0
100
AcDbSymbolTable
70
0
0
ENDTAB
0
TABLE
2
APPID
5
21A
330
0
100
AcDbSymbolTable
70
10
0
APPID
5
267
330
21A
100
AcDbSymbolTableRecord
100
AcDbRegAppTableRecord
2
ACAD
70
0
0
APPID
5
26E
330
21A
100
AcDbSymbolTableRecord
100
AcDbRegAppTableRecord
2
ACADANNOTATIVE
70
0
0
APPID
5
286
330
21A
100
AcDbSymbolTableRecord
100
AcDbRegAppTableRecord
2
ACADANNOPO
70
0
0
APPID
5
287
330
21A
100
AcDbSymbolTableRecord
100
AcDbRegAppTableRecord
2
ACAD_DSTYLE_DIMJAG
70
0
0
APPID
5
288
330
21A
100
AcDbSymbolTableRecord
100
AcDbRegAppTableRecord
2
ACAD_DSTYLE_DIMTALN
70
0
0
APPID
5
289
330
21A
100
AcDbSymbolTableRecord
100
AcDbRegAppTableRecord
2
ACAD_MLEADERVER
70
0
0
APPID
5
28A
330
21A
100
AcDbSymbolTableRecord
100
AcDbRegAppTableRecord
2
ACAD_NAV_VCDISPLAY
70
0
0
APPID
5
2E7
330
21A
100
AcDbSymbolTableRecord
100
AcDbRegAppTableRecord
2
ACAD_EXEMPT_FROM_CAD_STANDARDS
70
0
0
APPID
5
2FC
330
21A
100
AcDbSymbolTableRecord
100
AcDbRegAppTableRecord
2
AcAecLayerStandard
70
0
0
APPID
5
2FD
330
21A
100
AcDbSymbolTableRecord
100
AcDbRegAppTableRecord
2
AcCmTransparency
70
0
0
ENDTAB
0
TABLE
2
DIMSTYLE
5
21B
330
0
100
AcDbSymbolTable
70
2
100
AcDbDimStyleTable
71
1
340
268
0
DIMSTYLE
105
268
330
21B
100
AcDbSymbolTableRecord
100
AcDbDimStyleTableRecord
2
STANDARD
70
0
279
2
340
266
0
DIMSTYLE
105
269
330
21B
100
AcDbSymbolTableRecord
100
AcDbDimStyleTableRecord
2
ANNOTATIVE
70
0
40
0.0
279
2
340
266
1001
ACADANNOTATIVE
1000
AnnotativeData
1002
{
1070
1
1070
1
1002
}
0
ENDTAB
0
TABLE
2
BLOCK_RECORD
5
212
330
0
100
AcDbSymbolTable
70
2
0
BLOCK_RECORD
5
281
330
212
100
AcDbSymbolTableRecord
100
AcDbBlockTableRecord
2
*Model_Space
340
284
70
0
280
1
281
0
0
BLOCK_RECORD
5
27D
330
212
100
AcDbSymbolTableRecord
100
AcDbBlockTableRecord
2
*Paper_Space
340
280
70
0
280
1
281
0
0
BLOCK_RECORD
5
28C
330
212
100
AcDbSymbolTableRecord
100
AcDbBlockTableRecord
2
$MODEL_SPACE
340
0
70
0
280
1
281
0
0
BLOCK_RECORD
5
28E
330
212
100
AcDbSymbolTableRecord
100
AcDbBlockTableRecord
2
$PAPER_SPACE
340
0
70
0
280
1
281
0
0
ENDTAB
0
ENDSEC
0
SECTION
2
BLOCKS
0
BLOCK
5
282
330
281
100
AcDbEntity
8
0
100
AcDbBlockBegin
2
*Model_Space
70
0
10
0.0
20
0.0
30
0.0
3
*Model_Space
1

0
ENDBLK
5
283
330
281
100
AcDbEntity
8
0
100
AcDbBlockEnd
0
BLOCK
5
27E
330
27D
100
AcDbEntity
67
1
8
0
100
AcDbBlockBegin
2
*Paper_Space
70
0
10
0.0
20
0.0
30
0.0
3
*Paper_Space
1

0
ENDBLK
5
27F
330
27D
100
AcDbEntity
67
1
8
0
100
AcDbBlockEnd
0
BLOCK
5
28D
330
28C
100
AcDbEntity
8
0
100
AcDbBlockBegin
2
$MODEL_SPACE
70
0
10
0.0
20
0.0
30
0.0
3
$MODEL_SPACE
1

0
ENDBLK
5
21
330
28C
100
AcDbEntity
8
0
100
AcDbBlockEnd
0
BLOCK
5
28F
330
28E
100
AcDbEntity
8
0
100
AcDbBlockBegin
2
$PAPER_SPACE
70
0
10
0.0
20
0.0
30
0.0
3
$PAPER_SPACE
1

0
ENDBLK
5
5B
330
28E
100
AcDbEntity
8
0
100
AcDbBlockEnd
0
ENDSEC
0
SECTION
2
ENTITIES
0
LWPOLYLINE
5
1000
100
AcDbEntity
100
AcDbPolyline
90
2640
70
1
43
0
10
3.8375
20
0
10
3.839038
20
0.023824
10
3.849385
20
0.026733
10
3.860099
20
0.029869
10
3.871175
20
0.033238
10
3.882612
20
0.036848
10
3.894403
20
0.040709
10
3.906546
20
0.044828
10
3.919036
20
0.049212
10
3.931869
20
0.053869
10
3.945041
20
0.058807
10
3.958546
20
0.064035
10
3.972381
20
0.069558
10
3.98654
20
0.075386
10
4.001018
20
0.081525
10
4.015811
20
0.087983
10
4.030913
20
0.094766
10
4.046319
20
0.101883
10
4.062024
20
0.109341
10
4.078022
20
0.117146
10
4.094307
20
0.125306
10
4.110874
20
0.133827
10
4.127717
20
0.142717
10
4.14483
20
0.151982
10
4.162206
20
0.161628
10
4.17984
20
0.171663
10
4.197725
20
0.182093
10
4.215855
20
0.192925
10
4.234223
20
0.204164
10
4.252822
20
0.215817
10
4.271647
20
0.22789
10
4.29069
20
0.240389
10
4.309943
20
0.25332
10
4.329401
20
0.266689
10
4.349056
20
0.280501
10
4.358955
20
0.287576
10
4.363922
20
0.291155
10
4.365165
20
0.292054
10
4.365204
20
0.292083
10
4.365237
20
0.29211
10
4.355903
20
0.408327
10
4.355866
20
0.408349
10
4.355823
20
0.40837
10
4.354452
20
0.40906
10
4.348978
20
0.411801
10
4.338077
20
0.417204
10
4.316469
20
0.427703
10
4.295127
20
0.437795
10
4.274057
20
0.447487
10
4.253263
20
0.456787
10
4.232753
20
0.465701
10
4.212532
20
0.474236
10
4.192605
20
0.482399
10
4.172979
20
0.490198
10
4.153659
20
0.49764
10
4.134649
20
0.504732
10
4.115956
20
0.511482
10
4.097584
20
0.517897
10
4.079539
20
0.523985
10
4.061824
20
0.529753
10
4.044445
20
0.535209
10
4.027407
20
0.540361
10
4.010713
20
0.545216
10
3.994369
20
0.549783
10
3.978377
20
0.55407
10
3.962744
20
0.558083
10
3.947471
20
0.561833
10
3.932563
20
0.565326
10
3.918024
20
0.568571
10
3.903858
20
0.571576
10
3.890067
20
0.574349
10
3.876655
20
0.576898
10
3.863626
20
0.579233
10
3.850981
20
0.58136
10
3.838724
20
0.583289
10
3.826858
20
0.585029
10
3.815386
20
0.586587
10
3.804309
20
0.587972
10
3.79363
20
0.589193
10
3.78831
20
0.612466
10
3.768151
20
0.726252
10
3.765153
20
0.749936
10
3.774762
20
0.754751
10
3.784689
20
0.759857
10
3.794928
20
0.765262
10
3.805474
20
0.770972
10
3.816322
20
0.776994
10
3.827466
20
0.783336
10
3.838901
20
0.790005
10
3.850621
20
0.797007
10
3.862619
20
0.804349
10
3.874891
20
0.812037
10
3.887431
20
0.820079
10
3.900231
20
0.828481
10
3.913286
20
0.837249
10
3.926589
20
0.84639
10
3.940135
20
0.855909
10
3.953916
20
0.865813
10
3.967925
20
0.876108
10
3.982157
20
0.8868
10
3.996604
20
0.897894
10
4.011258
20
0.909397
10
4.026114
20
0.921313
10
4.041164
20
0.933649
10
4.056401
20
0.94641
10
4.071817
20
0.959601
10
4.087405
20
0.973227
10
4.103157
20
0.987294
10
4.119066
20
1.001806
10
4.135125
20
1.016769
10
4.151324
20
1.032186
10
4.167657
20
1.048063
10
4.184116
20
1.064404
10
4.200692
20
1.081214
10
4.217378
20
1.098496
10
4.225759
20
1.107316
10
4.229959
20
1.111771
10
4.231009
20
1.11289
10
4.231042
20
1.112925
10
4.23107
20
1.112958
10
4.19991
20
1.225308
10
4.19987
20
1.225323
10
4.199823
20
1.225336
10
4.198347
20
1.225753
10
4.192452
20
1.227408
10
4.180725
20
1.230651
10
4.157522
20
1.236871
10
4.134655
20
1.242742
10
4.112131
20
1.248271
10
4.089954
20
1.253468
10
4.068127
20
1.258339
10
4.046656
20
1.262893
10
4.025545
20
1.267138
10
4.004797
20
1.271081
10
3.984418
20
1.274732
10
3.96441
20
1.278099
10
3.944777
20
1.281189
10
3.925523
20
1.284011
10
3.906651
20
1.286573
10
3.888165
20
1.288885
10
3.870068
20
1.290953
10
3.852363
20
1.292787
10
3.835052
20
1.294396
10
3.818138
20
1.295787
10
3.801625
20
1.29697
10
3.785514
20
1.297952
10
3.769807
20
1.298744
10
3.754508
20
1.299352
10
3.739618
20
1.299787
10
3.725139
20
1.300056
10
3.711072
20
1.300169
10
3.69742
20
1.300135
10
3.684184
20
1.299961
10
3.671366
20
1.299657
10
3.658965
20
1.299232
10
3.646985
20
1.298694
10
3.635425
20
1.298053
10
3.624286
20
1.297317
10
3.613569
20
1.296494
10
3.60394
20
1.31834
10
3.562612
20
1.426255
10
3.555185
20
1.448944
10
3.56371
20
1.45549
10
3.572491
20
1.462383
10
3.581522
20
1.469627
10
3.590797
20
1.47723
10
3.600309
20
1.485197
10
3.610052
20
1.493533
10
3.620018
20
1.502245
10
3.6302
20
1.511338
10
3.640593
20
1.520819
10
3.651188
20
1.530691
10
3.661979
20
1.540961
10
3.672958
20
1.551633
10
3.684117
20
1.562713
10
3.69545
20
1.574206
10
3.70695
20
1.586117
10
3.718607
20
1.59845
10
3.730415
20
1.611211
10
3.742366
20
1.624402
10
3.754452
20
1.63803
10
3.766665
20
1.652098
10
3.778998
20
1.666611
10
3.791441
20
1.681572
10
3.803987
20
1.696986
10
3.816628
20
1.712856
10
3.829356
20
1.729186
10
3.842161
20
1.74598
10
3.855036
20
1.763241
10
3.867973
20
1.780972
10
3.880962
20
1.799176
10
3.893995
20
1.817858
10
3.907064
20
1.837018
10
3.920159
20
1.856661
10
3.933272
20
1.876789
10
3.939833
20
1.887036
10
3.943114
20
1.892205
10
3.943934
20
1.893502
10
3.94396
20
1.893543
10
3.94398
20
1.893581
10
3.892121
20
1.998003
10
3.892079
20
1.99801
10
3.892031
20
1.998014
10
3.890502
20
1.998144
10
3.884401
20
1.998654
10
3.872272
20
1.999619
10
3.848311
20
2.001335
10
3.824746
20
2.002772
10
3.801583
20
2.003939
10
3.778822
20
2.004845
10
3.756469
20
2.005497
10
3.734524
20
2.005905
10
3.712991
20
2.006078
10
3.691872
20
2.006024
10
3.67117
20
2.005752
10
3.650886
20
2.005271
10
3.631023
20
2.00459
10
3.611583
20
2.003717
10
3.592568
20
2.002662
10
3.573978
20
2.001433
10
3.555816
20
2.000039
10
3.538084
20
1.998489
10
3.520781
20
1.996793
10
3.50391
20
1.994958
10
3.487471
20
1.992994
10
3.471465
20
1.99091
10
3.455893
20
1.988714
10
3.440755
20
1.986417
10
3.426052
20
1.984026
10
3.411783
20
1.98155
10
3.39795
20
1.978999
10
3.384551
20
1.976381
10
3.371587
20
1.973706
10
3.359057
20
1.970981
10
3.346962
20
1.968217
10
3.335299
20
1.965422
10
3.32407
20
1.962604
10
3.313272
20
1.959773
10
3.302904
20
1.956937
10
3.289315
20
1.976566
10
3.22831
20
2.074709
10
3.216724
20
2.095583
10
3.223855
20
2.103624
10
3.231173
20
2.112054
10
3.23867
20
2.120877
10
3.246339
20
2.130097
10
3.254172
20
2.13972
10
3.26216
20
2.14975
10
3.270297
20
2.16019
10
3.278575
20
2.171047
10
3.286986
20
2.182322
10
3.295521
20
2.194021
10
3.304173
20
2.206147
10
3.312934
20
2.218705
10
3.321795
20
2.231697
10
3.330748
20
2.245127
10
3.339786
20
2.258999
10
3.348898
20
2.273315
10
3.358078
20
2.28808
10
3.367317
20
2.303295
10
3.376605
20
2.318964
10
3.385935
20
2.335089
10
3.395298
20
2.351673
10
3.404685
20
2.368719
10
3.414087
20
2.386229
10
3.423497
20
2.404204
10
3.432904
20
2.422648
10
3.442299
20
2.441562
10
3.451675
20
2.460947
10
3.461022
20
2.480806
10
3.470332
20
2.50114
10
3.479594
20
2.52195
10
3.4888
20
2.543238
10
3.497941
20
2.565004
10
3.507008
20
2.58725
10
3.511511
20
2.598553
10
3.513754
20
2.60425
10
3.514314
20
2.605678
10
3.514332
20
2.605723
10
3.514345
20
2.605764
10
3.443661
20
2.698486
10
3.443618
20
2.698484
10
3.44357
20
2.698479
10
3.442044
20
2.698318
10
3.435957
20
2.697664
10
3.423864
20
2.696316
10
3.400011
20
2.693466
10
3.376601
20
2.690418
10
3.353635
20
2.68718
10
3.331115
20
2.683761
10
3.309041
20
2.680171
10
3.287416
20
2.676419
10
3.266239
20
2.672514
10
3.245512
20
2.668464
10
3.225236
20
2.664279
10
3.20541
20
2.659968
10
3.186035
20
2.65554
10
3.167111
20
2.651004
10
3.148639
20
2.646369
10
3.130618
20
2.641644
10
3.113048
20
2.636838
10
3.095929
20
2.631961
10
3.079261
20
2.62702
10
3.063042
20
2.622026
10
3.047271
20
2.616986
10
3.031949
20
2.611911
10
3.017074
20
2.606808
10
3.002644
20
2.601687
10
2.988659
20
2.596556
10
2.975117
20
2.591425
10
2.962016
20
2.586302
10
2.949355
20
2.581196
10
2.937132
20
2.576115
10
2.925344
20
2.571069
10
2.91399
20
2.566065
10
2.903068
20
2.561113
10
2.892574
20
2.556222
10
2.882507
20
2.551398
10
2.872863
20
2.546652
10
2.855805
20
2.563354
10
2.777329
20
2.648178
10
2.762002
20
2.666482
10
2.767483
20
2.675728
10
2.773073
20
2.68539
10
2.778765
20
2.695472
10
2.78455
20
2.705977
10
2.79042
20
2.716909
10
2.796366
20
2.728269
10
2.80238
20
2.740061
10
2.808454
20
2.752287
10
2.814579
20
2.764951
10
2.820746
20
2.778054
10
2.826946
20
2.791598
10
2.833172
20
2.805587
10
2.839414
20
2.820021
10
2.845664
20
2.834903
10
2.851913
20
2.850234
10
2.858152
20
2.866017
10
2.864371
20
2.882251
10
2.870563
20
2.89894
10
2.876719
20
2.916084
10
2.882828
20
2.933683
10
2.888883
20
2.95174
10
2.894875
20
2.970254
10
2.900794
20
2.989227
10
2.906631
20
3.008658
10
2.912377
20
3.028549
10
2.918024
20
3.048899
10
2.923562
20
3.069709
10
2.928982
20
3.090977
10
2.934274
20
3.112706
10
2.939431
20
3.134892
10
2.944442
20
3.157538
10
2.949299
20
3.180641
10
2.953992
20
3.2042
10
2.956274
20
3.216151
10
2.957399
20
3.22217
10
2.957678
20
3.223679
10
2.957687
20
3.223726
10
2.957692
20
3.223769
10
2.870738
20
3.301438
10
2.870696
20
3.301428
10
2.87065
20
3.301414
10
2.869182
20
3.300967
10
2.863328
20
3.299172
10
2.85171
20
3.295561
10
2.828827
20
3.288248
10
2.806417
20
3.280824
10
2.784479
20
3.273299
10
2.763012
20
3.26568
10
2.742017
20
3.257977
10
2.721492
20
3.2502
10
2.701438
20
3.242358
10
2.681852
20
3.234459
10
2.662733
20
3.226512
10
2.644081
20
3.218527
10
2.625895
20
3.210512
10
2.608171
20
3.202477
10
2.59091
20
3.19443
10
2.574109
20
3.18638
10
2.557767
20
3.178336
10
2.54188
20
3.170306
10
2.526448
20
3.1623
10
2.511467
20
3.154327
10
2.496935
20
3.146394
10
2.482851
20
3.13851
10
2.46921
20
3.130684
10
2.45601
20
3.122925
10
2.443249
20
3.115241
10
2.430923
20
3.107639
10
2.419028
20
3.100129
10
2.407562
20
3.092719
10
2.396521
20
3.085417
10
2.385902
20
3.078231
10
2.3757
20
3.07117
10
2.365912
20
3.06424
10
2.356533
20
3.057451
10
2.347561
20
3.050809
10
2.33899
20
3.044323
10
2.319079
20
3.057495
10
2.225968
20
3.125935
10
2.207454
20
3.141007
10
2.211086
20
3.151123
10
2.214747
20
3.161669
10
2.218428
20
3.172646
10
2.22212
20
3.184056
10
2.225815
20
3.195901
10
2.229504
20
3.208181
10
2.233178
20
3.220898
10
2.236828
20
3.234053
10
2.240445
20
3.247647
10
2.244021
20
3.26168
10
2.247546
20
3.276154
10
2.251012
20
3.291068
10
2.25441
20
3.306422
10
2.257731
20
3.322218
10
2.260965
20
3.338455
10
2.264104
20
3.355133
10
2.267139
20
3.372251
10
2.27006
20
3.38981
10
2.27286
20
3.407809
10
2.275529
20
3.426247
10
2.278057
20
3.445123
10
2.280436
20
3.464436
10
2.282658
20
3.484186
10
2.284712
20
3.504371
10
2.28659
20
3.52499
10
2.288284
20
3.546041
10
2.289783
20
3.567523
10
2.29108
20
3.589433
10
2.292165
20
3.61177
10
2.293029
20
3.634532
10
2.293664
20
3.657716
10
2.294061
20
3.681321
10
2.29421
20
3.705343
10
2.29419
20
3.71751
10
2.294155
20
3.723632
10
2.294144
20
3.725167
10
2.294143
20
3.725215
10
2.29414
20
3.725258
10
2.194059
20
3.785067
10
2.194019
20
3.78505
10
2.193977
20
3.785027
10
2.19262
20
3.78431
10
2.187212
20
3.78144
10
2.176487
20
3.775695
10
2.155401
20
3.764184
10
2.134801
20
3.752653
10
2.114684
20
3.741112
10
2.095047
20
3.729568
10
2.075889
20
3.718032
10
2.057207
20
3.706511
10
2.038999
20
3.695015
10
2.021262
20
3.683552
10
2.003993
20
3.67213
10
1.987189
20
3.66076
10
1.970848
20
3.649448
10
1.954966
20
3.638203
10
1.939539
20
3.627035
10
1.924565
20
3.615951
10
1.91004
20
3.604959
10
1.895961
20
3.594069
10
1.882322
20
3.583287
10
1.869121
20
3.572622
10
1.856354
20
3.562082
10
1.844015
20
3.551676
10
1.832102
20
3.54141
10
1.82061
20
3.531293
10
1.809533
20
3.521332
10
1.798868
20
3.511535
10
1.78861
20
3.50191
10
1.778753
20
3.492464
10
1.769294
20
3.483204
10
1.760226
20
3.474139
10
1.751545
20
3.465274
10
1.743245
20
3.456617
10
1.735321
20
3.448175
10
1.727768
20
3.439956
10
1.72058
20
3.431965
10
1.698535
20
3.441131
10
1.594155
20
3.490713
10
1.573123
20
3.502009
10
1.574775
20
3.512629
10
1.576373
20
3.523677
10
1.57791
20
3.535152
10
1.579377
20
3.547055
10
1.580763
20
3.559385
10
1.582061
20
3.572142
10
1.583262
20
3.585324
10
1.584357
20
3.598932
10
1.585336
20
3.612965
10
1.586191
20
3.627421
10
1.586914
20
3.6423
10
1.587495
20
3.657601
10
1.587925
20
3.673321
10
1.588197
20
3.68946
10
1.588299
20
3.706015
10
1.588226
20
3.722986
10
1.587966
20
3.740369
10
1.587512
20
3.758164
10
1.586855
20
3.776367
10
1.585985
20
3.794977
10
1.584896
20
3.81399
10
1.583577
20
3.833405
10
1.58202
20
3.853218
10
1.580218
20
3.873427
10
1.57816
20
3.894029
10
1.575839
20
3.91502
10
1.573246
20
3.936397
10
1.570372
20
3.958157
10
1.56721
20
3.980296
10
1.563751
20
4.00281
10
1.559987
20
4.025695
10
1.55591
20
4.048948
10
1.55151
20
4.072565
10
1.549187
20
4.084508
10
1.547995
20
4.090513
10
1.547693
20
4.092018
10
1.547684
20
4.092065
10
1.547672
20
4.092106
10
1.438081
20
4.131894
10
1.438045
20
4.13187
10
1.438008
20
4.13184
10
1.436811
20
4.130879
10
1.432044
20
4.127037
10
1.4226
20
4.119366
10
1.404074
20
4.104073
10
1.386028
20
4.088852
10
1.368458
20
4.073712
10
1.351361
20
4.05866
10
1.334733
20
4.043707
10
1.318569
20
4.028858
10
1.302865
20
4.014124
10
1.287618
20
3.999511
10
1.272823
20
3.985028
10
1.258475
20
3.970683
10
1.24457
20
3.956483
10
1.231102
20
3.942436
10
1.218068
20
3.92855
10
1.205463
20
3.914832
10
1.19328
20
3.901291
10
1.181516
20
3.887932
10
1.170165
20
3.874764
10
1.159221
20
3.861794
10
1.148678
20
3.849028
10
1.138533
20
3.836475
10
1.128777
20
3.82414
10
1.119407
20
3.81203
10
1.110416
20
3.800153
10
1.101798
20
3.788515
10
1.093546
20
3.777123
10
1.085656
20
3.765982
10
1.07812
20
3.755099
10
1.070931
20
3.744481
10
1.064085
20
3.734134
10
1.057574
20
3.724063
10
1.05139
20
3.714274
10
1.045529
20
3.704774
10
1.039983
20
3.695567
10
1.016602
20
3.700395
10
0.904725
20
3.729327
10
0.881935
20
3.736438
10
0.881547
20
3.747179
10
0.881026
20
3.75833
10
0.880364
20
3.769889
10
0.879551
20
3.781854
10
0.878579
20
3.794224
10
0.877439
20
3.806995
10
0.876123
20
3.820167
10
0.874623
20
3.833736
10
0.872929
20
3.847701
10
0.871033
20
3.862058
10
0.868927
20
3.876805
10
0.866601
20
3.891938
10
0.864049
20
3.907456
10
0.861261
20
3.923354
10
0.858229
20
3.93963
10
0.854945
20
3.95628
10
0.8514
20
3.9733
10
0.847586
20
3.990687
10
0.843496
20
4.008437
10
0.839121
20
4.026546
10
0.834452
20
4.04501
10
0.829483
20
4.063824
10
0.824205
20
4.082985
10
0.81861
20
4.102488
10
0.812691
20
4.122328
10
0.806439
20
4.1425
10
0.799847
20
4.163
10
0.792908
20
4.183823
10
0.785613
20
4.204963
10
0.777956
20
4.226416
10
0.769928
20
4.248175
10
0.761524
20
4.270236
10
0.752734
20
4.292594
10
0.748193
20
4.303881
10
0.745886
20
4.309552
10
0.745305
20
4.310973
10
0.745287
20
4.311017
10
0.745268
20
4.311056
10
0.630126
20
4.329384
10
0.630096
20
4.329353
10
0.630065
20
4.329317
10
0.629072
20
4.328147
10
0.625118
20
4.323473
10
0.617296
20
4.314153
10
0.602
20
4.29563
10
0.58716
20
4.277268
10
0.572774
20
4.259077
10
0.558834
20
4.241062
10
0.545336
20
4.223231
10
0.532274
20
4.205592
10
0.519643
20
4.188152
10
0.507437
20
4.170918
10
0.49565
20
4.153897
10
0.484276
20
4.137095
10
0.473309
20
4.12052
10
0.462744
20
4.104179
10
0.452573
20
4.088077
10
0.442792
20
4.072222
10
0.433392
20
4.056619
10
0.424369
20
4.041276
10
0.415714
20
4.026197
10
0.407423
20
4.01139
10
0.399487
20
3.99686
10
0.3919
20
3.982613
10
0.384656
20
3.968655
10
0.377747
20
3.954991
10
0.371166
20
3.941627
10
0.364906
20
3.928568
10
0.358959
20
3.91582
10
0.35332
20
3.903387
10
0.347979
20
3.891275
10
0.342931
20
3.879489
10
0.338166
20
3.868032
10
0.333678
20
3.856911
10
0.32946
20
3.846129
10
0.325502
20
3.835691
10
0.321798
20
3.825601
10
0.297927
20
3.825918
10
0.182596
20
3.833153
10
0.158872
20
3.835823
10
0.156458
20
3.846297
10
0.153836
20
3.857148
10
0.150998
20
3.868372
10
0.147935
20
3.879967
10
0.14464
20
3.891929
10
0.141104
20
3.904254
10
0.137319
20
3.916939
10
0.133278
20
3.929979
10
0.128972
20
3.943371
10
0.124393
20
3.957109
10
0.119534
20
3.971191
10
0.114387
20
3.985611
10
0.108944
20
4.000366
10
0.103197
20
4.015449
10
0.09714
20
4.030857
10
0.090764
20
4.046584
10
0.084062
20
4.062626
10
0.077027
20
4.078977
10
0.069651
20
4.095632
10
0.061928
20
4.112586
10
0.053849
20
4.129832
10
0.045409
20
4.147366
10
0.0366
20
4.165182
10
0.027416
20
4.183273
10
0.017849
20
4.201634
10
0.007892
20
4.220259
10
-0.00246
20
4.239141
10
-0.013215
20
4.258274
10
-0.024379
20
4.277652
10
-0.035957
20
4.297268
10
-0.047958
20
4.317115
10
-0.060386
20
4.337187
10
-0.073247
20
4.357477
10
-0.079842
20
4.367701
10
-0.083182
20
4.372833
10
-0.084021
20
4.374118
10
-0.084047
20
4.374158
10
-0.084073
20
4.374192
10
-0.200602
20
4.370399
10
-0.200626
20
4.370363
10
-0.20065
20
4.370321
10
-0.201403
20
4.368984
10
-0.204402
20
4.363646
10
-0.210318
20
4.353014
10
-0.221833
20
4.331931
10
-0.232929
20
4.311093
10
-0.243613
20
4.290508
10
-0.253891
20
4.27018
10
-0.263771
20
4.250118
10
-0.273258
20
4.230326
10
-0.282361
20
4.21081
10
-0.291085
20
4.191577
10
-0.299437
20
4.172633
10
-0.307426
20
4.153982
10
-0.315058
20
4.135632
10
-0.322339
20
4.117586
10
-0.329279
20
4.09985
10
-0.335883
20
4.08243
10
-0.34216
20
4.065331
10
-0.348117
20
4.048557
10
-0.353761
20
4.032113
10
-0.359101
20
4.016004
10
-0.364143
20
4.000235
10
-0.368896
20
3.98481
10
-0.373368
20
3.969733
10
-0.377567
20
3.955008
10
-0.3815
20
3.94064
10
-0.385175
20
3.926633
10
-0.388601
20
3.91299
10
-0.391786
20
3.899714
10
-0.394738
20
3.88681
10
-0.397465
20
3.874281
10
-0.399975
20
3.86213
10
-0.402277
20
3.850361
10
-0.404379
20
3.838975
10
-0.40629
20
3.827977
10
-0.408017
20
3.817368
10
-0.431517
20
3.813161
10
-0.546133
20
3.79844
10
-0.569934
20
3.796572
10
-0.574286
20
3.806399
10
-0.578914
20
3.816558
10
-0.583825
20
3.827042
10
-0.589027
20
3.837848
10
-0.594526
20
3.84897
10
-0.600331
20
3.860404
10
-0.606448
20
3.872143
10
-0.612884
20
3.884182
10
-0.619647
20
3.896517
10
-0.626743
20
3.909141
10
-0.634179
20
3.922048
10
-0.641962
20
3.935234
10
-0.650099
20
3.948691
10
-0.658597
20
3.962415
10
-0.66746
20
3.976398
10
-0.676698
20
3.990634
10
-0.686314
20
4.005118
10
-0.696317
20
4.019842
10
-0.706711
20
4.0348
10
-0.717503
20
4.049986
10
-0.7287
20
4.065392
10
-0.740305
20
4.081012
10
-0.752327
20
4.096838
10
-0.764769
20
4.112865
10
-0.777639
20
4.129083
10
-0.79094
20
4.145487
10
-0.804679
20
4.162069
10
-0.81886
20
4.178821
10
-0.833489
20
4.195736
10
-0.848571
20
4.212806
10
-0.86411
20
4.230023
10
-0.880112
20
4.24738
10
-0.896581
20
4.264869
10
-0.904992
20
4.273661
10
-0.909242
20
4.278068
10
-0.91031
20
4.279171
10
-0.910343
20
4.279205
10
-0.910375
20
4.279234
10
-1.02408
20
4.253456
10
-1.024097
20
4.253416
10
-1.024112
20
4.25337
10
-1.024599
20
4.251915
10
-1.026533
20
4.246106
10
-1.030331
20
4.234547
10
-1.037647
20
4.211665
10
-1.044599
20
4.189104
10
-1.051194
20
4.166869
10
-1.05744
20
4.144963
10
-1.063344
20
4.123393
10
-1.068915
20
4.102164
10
-1.074159
20
4.081278
10
-1.079086
20
4.060742
10
-1.083702
20
4.040559
10
-1.088017
20
4.020734
10
-1.092038
20
4.00127
10
-1.095773
20
3.982173
10
-1.09923
20
3.963444
10
-1.102418
20
3.945089
10
-1.105346
20
3.927111
10
-1.10802
20
3.909512
10
-1.110451
20
3.892298
10
-1.112645
20
3.87547
10
-1.114612
20
3.859031
10
-1.11636
20
3.842985
10
-1.117898
20
3.827334
10
-1.119234
20
3.812081
10
-1.120377
20
3.797229
10
-1.121335
20
3.782779
10
-1.122117
20
3.768734
10
-1.122732
20
3.755095
10
-1.123188
20
3.741866
10
-1.123495
20
3.729047
10
-1.12366
20
3.716641
10
-1.123693
20
3.704648
10
-1.123602
20
3.693071
10
-1.123397
20
3.68191
10
-1.123085
20
3.671166
10
-1.145364
20
3.662587
10
-1.255123
20
3.626441
10
-1.27814
20
3.620102
10
-1.284274
20
3.628928
10
-1.29074
20
3.638027
10
-1.297547
20
3.647393
10
-1.3047
20
3.657019
10
-1.312205
20
3.6669
10
-1.320068
20
3.677028
10
-1.328296
20
3.687397
10
-1.336895
20
3.698001
10
-1.34587
20
3.708833
10
-1.355227
20
3.719886
10
-1.364971
20
3.731153
10
-1.375109
20
3.742627
10
-1.385646
20
3.754301
10
-1.396587
20
3.766169
10
-1.407937
20
3.778221
10
-1.419701
20
3.790452
10
-1.431885
20
3.802854
10
-1.444494
20
3.815419
10
-1.457531
20
3.82814
10
-1.471002
20
3.841009
10
-1.484912
20
3.854018
10
-1.499264
20
3.867159
10
-1.514063
20
3.880424
10
-1.529314
20
3.893806
10
-1.54502
20
3.907296
10
-1.561185
20
3.920886
10
-1.577814
20
3.934568
10
-1.594909
20
3.948334
10
-1.612475
20
3.962174
10
-1.630515
20
3.976082
10
-1.649032
20
3.990047
10
-1.66803
20
4.004062
10
-1.687511
20
4.018118
10
-1.697434
20
4.025159
10
-1.702441
20
4.028682
10
-1.703697
20
4.029563
10
-1.703737
20
4.029591
10
-1.703774
20
4.029613
10
-1.810546
20
3.982782
10
-1.810554
20
3.982739
10
-1.810561
20
3.982692
10
-1.810764
20
3.981171
10
-1.811563
20
3.975101
10
-1.813104
20
3.963032
10
-1.815959
20
3.939179
10
-1.818515
20
3.91571
10
-1.820783
20
3.892628
10
-1.82277
20
3.869937
10
-1.824486
20
3.847639
10
-1.825937
20
3.825739
10
-1.827135
20
3.804238
10
-1.828086
20
3.783141
10
-1.828799
20
3.762449
10
-1.829284
20
3.742165
10
-1.829548
20
3.722293
10
-1.829602
20
3.702833
10
-1.829452
20
3.683789
10
-1.829109
20
3.665162
10
-1.828581
20
3.646955
10
-1.827877
20
3.629168
10
-1.827005
20
3.611805
10
-1.825975
20
3.594865
10
-1.824796
20
3.578352
10
-1.823476
20
3.562265
10
-1.822024
20
3.546606
10
-1.820449
20
3.531376
10
-1.81876
20
3.516575
10
-1.816966
20
3.502205
10
-1.815076
20
3.488266
10
-1.813099
20
3.474758
10
-1.811043
20
3.461681
10
-1.808918
20
3.449036
10
-1.806733
20
3.436822
10
-1.804496
20
3.42504
10
-1.802215
20
3.413689
10
-1.799901
20
3.402768
10
-1.797562
20
3.392278
10
-1.817815
20
3.379638
10
-1.91875
20
3.323372
10
-1.940151
20
3.312792
10
-1.947844
20
3.320298
10
-1.955916
20
3.328009
10
-1.964372
20
3.335918
10
-1.973218
20
3.344016
10
-1.982457
20
3.352298
10
-1.992095
20
3.360755
10
-2.002137
20
3.369379
10
-2.012587
20
3.378164
10
-2.023449
20
3.387102
10
-2.034729
20
3.396184
10
-2.04643
20
3.405403
10
-2.058556
20
3.414752
10
-2.071112
20
3.424221
10
-2.084101
20
3.433803
10
-2.097527
20
3.44349
10
-2.111393
20
3.453274
10
-2.125704
20
3.463146
10
-2.140463
20
3.473098
10
-2.155672
20
3.483121
10
-2.171335
20
3.493208
10
-2.187455
20
3.503349
10
-2.204035
20
3.513537
10
-2.221077
20
3.523762
10
-2.238585
20
3.534016
10
-2.25656
20
3.544289
10
-2.275005
20
3.554575
10
-2.293922
20
3.564862
10
-2.313314
20
3.575144
10
-2.333182
20
3.58541
10
-2.353528
20
3.595652
10
-2.374353
20
3.60586
10
-2.39566
20
3.616027
10
-2.417449
20
3.626142
10
-2.428525
20
3.631178
10
-2.434109
20
3.63369
10
-2.435509
20
3.634317
10
-2.435553
20
3.634336
10
-2.435594
20
3.634351
10
-2.531573
20
3.56816
10
-2.531574
20
3.568116
10
-2.531571
20
3.568069
10
-2.531482
20
3.566536
10
-2.531119
20
3.560425
10
-2.530348
20
3.548282
10
-2.528636
20
3.524321
10
-2.526705
20
3.500792
10
-2.524564
20
3.477698
10
-2.522221
20
3.45504
10
-2.519685
20
3.432821
10
-2.516966
20
3.411042
10
-2.514073
20
3.389703
10
-2.511014
20
3.368807
10
-2.507798
20
3.348354
10
-2.504436
20
3.328345
10
-2.500935
20
3.308782
10
-2.497304
20
3.289664
10
-2.493553
20
3.270992
10
-2.489691
20
3.252767
10
-2.485727
20
3.234988
10
-2.481669
20
3.217657
10
-2.477528
20
3.200772
10
-2.47331
20
3.184333
10
-2.469027
20
3.168341
10
-2.464686
20
3.152795
10
-2.460297
20
3.137694
10
-2.455868
20
3.123037
10
-2.451409
20
3.108823
10
-2.446928
20
3.095052
10
-2.442434
20
3.081723
10
-2.437936
20
3.068833
10
-2.433443
20
3.056382
10
-2.428963
20
3.044367
10
-2.424506
20
3.032788
10
-2.420079
20
3.021642
10
-2.415692
20
3.010928
10
-2.411353
20
3.000642
10
-2.407071
20
2.990784
10
-2.424566
20
2.97454
10
-2.513028
20
2.900189
10
-2.53204
20
2.88575
10
-2.541015
20
2.891664
10
-2.5504
20
2.897708
10
-2.5602
20
2.903873
10
-2.570418
20
2.910152
10
-2.581058
20
2.916535
10
-2.592122
20
2.923015
10
-2.603615
20
2.929583
10
-2.615538
20
2.936232
10
-2.627896
20
2.942952
10
-2.640691
20
2.949736
10
-2.653925
20
2.956574
10
-2.667601
20
2.963458
10
-2.681722
20
2.97038
10
-2.69629
20
2.977331
10
-2.711306
20
2.984302
10
-2.726774
20
2.991285
10
-2.742695
20
2.99827
10
-2.75907
20
3.005249
10
-2.775901
20
3.012213
10
-2.79319
20
3.019153
10
-2.810938
20
3.026061
10
-2.829146
20
3.032926
10
-2.847816
20
3.039741
10
-2.866947
20
3.046496
10
-2.886542
20
3.053183
10
-2.9066
20
3.059791
10
-2.927123
20
3.066313
10
-2.94811
20
3.072739
10
-2.969562
20
3.079059
10
-2.991478
20
3.085266
10
-3.013859
20
3.091349
10
-3.036705
20
3.097299
10
-3.060015
20
3.103108
10
-3.071843
20
3.105956
10
-3.077801
20
3.107366
10
-3.079295
20
3.107717
10
-3.079342
20
3.107728
10
-3.079385
20
3.107735
10
-3.161103
20
3.024575
10
-3.161095
20
3.024532
10
-3.161084
20
3.024486
10
-3.160707
20
3.022998
10
-3.159193
20
3.017066
10
-3.156138
20
3.005289
10
-3.149923
20
2.982084
10
-3.143574
20
2.959346
10
-3.1371
20
2.937074
10
-3.130512
20
2.91527
10
-3.123817
20
2.893932
10
-3.117025
20
2.873061
10
-3.110146
20
2.852655
10
-3.103187
20
2.832716
10
-3.096159
20
2.813241
10
-3.089071
20
2.79423
10
-3.081931
20
2.775683
10
-3.074748
20
2.757597
10
-3.067531
20
2.739973
10
-3.06029
20
2.722808
10
-3.053032
20
2.706101
10
-3.045768
20
2.68985
10
-3.038505
20
2.674054
10
-3.031254
20
2.658711
10
-3.024021
20
2.643819
10
-3.016816
20
2.629375
10
-3.009649
20
2.615377
10
-3.002526
20
2.601823
10
-2.995458
20
2.588711
10
-2.988451
20
2.576037
10
-2.981516
20
2.563798
10
-2.97466
20
2.551993
10
-2.967891
20
2.540617
10
-2.961219
20
2.529667
10
-2.954651
20
2.519141
10
-2.948195
20
2.509034
10
-2.941859
20
2.499344
10
-2.935652
20
2.490065
10
-2.929582
20
2.481196
10
-2.943686
20
2.461934
10
-3.016479
20
2.372185
10
-3.032415
20
2.354409
10
-3.042346
20
2.358518
10
-3.052706
20
2.362676
10
-3.063496
20
2.366875
10
-3.074717
20
2.371106
10
-3.086372
20
2.375361
10
-3.098463
20
2.37963
10
-3.110991
20
2.383905
10
-3.123958
20
2.388177
10
-3.137364
20
2.392437
10
-3.151211
20
2.396676
10
-3.1655
20
2.400886
10
-3.180232
20
2.405058
10
-3.195408
20
2.409183
10
-3.211028
20
2.413251
10
-3.227093
20
2.417254
10
-3.243602
20
2.421183
10
-3.260557
20
2.425029
10
-3.277957
20
2.428783
10
-3.295802
20
2.432436
10
-3.314092
20
2.435979
10
-3.332826
20
2.439402
10
-3.352005
20
2.442698
10
-3.371627
20
2.445856
10
-3.391691
20
2.448869
10
-3.412197
20
2.451726
10
-3.433144
20
2.454419
10
-3.45453
20
2.456939
10
-3.476353
20
2.459277
10
-3.498613
20
2.461423
10
-3.521308
20
2.46337
10
-3.544436
20
2.465107
10
-3.567995
20
2.466627
10
-3.591983
20
2.467919
10
-3.604137
20
2.468477
10
-3.610254
20
2.468734
10
-3.611788
20
2.468796
10
-3.611836
20
2.468798
10
-3.611879
20
2.468796
10
-3.676382
20
2.371674
10
-3.676367
20
2.371634
10
-3.676346
20
2.371591
10
-3.675695
20
2.370201
10
-3.673086
20
2.364662
10
-3.667857
20
2.353676
10
-3.657363
20
2.332067
10
-3.646825
20
2.310941
10
-3.636254
20
2.290298
10
-3.625658
20
2.270134
10
-3.615046
20
2.250449
10
-3.604427
20
2.23124
10
-3.59381
20
2.212505
10
-3.583204
20
2.194243
10
-3.572617
20
2.17645
10
-3.562059
20
2.159124
10
-3.551537
20
2.142263
10
-3.541062
20
2.125864
10
-3.53064
20
2.109924
10
-3.520281
20
2.094439
10
-3.509993
20
2.079408
10
-3.499784
20
2.064826
10
-3.489664
20
2.05069
10
-3.479639
20
2.036996
10
-3.469719
20
2.023742
10
-3.459911
20
2.010922
10
-3.450224
20
1.998534
10
-3.440665
20
1.986573
10
-3.431242
20
1.975035
10
-3.421964
20
1.963916
10
-3.412838
20
1.953211
10
-3.403872
20
1.942917
10
-3.395073
20
1.933027
10
-3.386449
20
1.923539
10
-3.378007
20
1.914445
10
-3.369755
20
1.905743
10
-3.3617
20
1.897427
10
-3.353849
20
1.889491
10
-3.34621
20
1.88193
10
-3.356414
20
1.860347
10
-3.410906
20
1.758444
10
-3.42319
20
1.737973
10
-3.43372
20
1.740129
10
-3.444679
20
1.742251
10
-3.456068
20
1.744333
10
-3.467888
20
1.746363
10
-3.480138
20
1.748335
10
-3.492818
20
1.750239
10
-3.505929
20
1.752065
10
-3.519469
20
1.753806
10
-3.533439
20
1.755452
10
-3.547839
20
1.756995
10
-3.562666
20
1.758424
10
-3.577922
20
1.759733
10
-3.593604
20
1.76091
10
-3.609711
20
1.761949
10
-3.626243
20
1.76284
10
-3.643198
20
1.763573
10
-3.660574
20
1.764141
10
-3.67837
20
1.764534
10
-3.696584
20
1.764744
10
-3.715214
20
1.764761
10
-3.734258
20
1.764578
10
-3.753713
20
1.764184
10
-3.773578
20
1.763572
10
-3.79385
20
1.762733
10
-3.814527
20
1.761658
10
-3.835604
20
1.760338
10
-3.85708
20
1.758765
10
-3.878952
20
1.75693
10
-3.901216
20
1.754825
10
-3.92387
20
1.752442
10
-3.946908
20
1.749771
10
-3.970329
20
1.746804
10
-3.994128
20
1.743533
10
-4.006168
20
1.741781
10
-4.012223
20
1.740876
10
-4.013741
20
1.740646
10
-4.013788
20
1.740639
10
-4.01383
20
1.74063
10
-4.058788
20
1.633055
10
-4.058765
20
1.633018
10
-4.058736
20
1.63298
10
-4.057834
20
1.631739
10
-4.054224
20
1.626794
10
-4.04701
20
1.616996
10
-4.032616
20
1.597763
10
-4.018271
20
1.579013
10
-4.003984
20
1.560743
10
-3.989763
20
1.542949
10
-3.975617
20
1.525628
10
-3.961555
20
1.508776
10
-3.947584
20
1.492389
10
-3.933714
20
1.476464
10
-3.919951
20
1.460996
10
-3.906305
20
1.445982
10
-3.892783
20
1.431417
10
-3.879392
20
1.417297
10
-3.866142
20
1.403617
10
-3.85304
20
1.390373
10
-3.840093
20
1.37756
10
-3.82731
20
1.365173
10
-3.814697
20
1.353208
10
-3.802262
20
1.341659
10
-3.790012
20
1.330521
10
-3.777956
20
1.31979
10
-3.766099
20
1.309459
10
-3.754449
20
1.299523
10
-3.743013
20
1.289977
10
-3.731798
20
1.280815
10
-3.720811
20
1.27203
10
-3.710059
20
1.263619
10
-3.699547
20
1.255573
10
-3.689283
20
1.247888
10
-3.679273
20
1.240557
10
-3.669523
20
1.233574
10
-3.66004
20
1.226932
10
-3.650829
20
1.220625
10
-3.641897
20
1.214647
10
-3.647832
20
1.191523
10
-3.682054
20
1.081149
10
-3.690242
20
1.058723
10
-3.700989
20
1.058846
10
-3.712152
20
1.058857
10
-3.72373
20
1.058745
10
-3.73572
20
1.058502
10
-3.748122
20
1.05812
10
-3.760933
20
1.05759
10
-3.774152
20
1.056902
10
-3.787778
20
1.056049
10
-3.801807
20
1.055021
10
-3.816238
20
1.05381
10
-3.831068
20
1.052408
10
-3.846296
20
1.050806
10
-3.861917
20
1.048995
10
-3.87793
20
1.046966
10
-3.894332
20
1.044712
10
-3.911119
20
1.042224
10
-3.928289
20
1.039493
10
-3.945837
20
1.036511
10
-3.963762
20
1.03327
10
-3.982058
20
1.029761
10
-4.000723
20
1.025976
10
-4.019753
20
1.021908
10
-4.039143
20
1.017548
10
-4.05889
20
1.012887
10
-4.078989
20
1.007918
10
-4.099436
20
1.002633
10
-4.120226
20
0.997025
10
-4.141356
20
0.991084
10
-4.162819
20
0.984803
10
-4.184612
20
0.978176
10
-4.206729
20
0.971193
10
-4.229165
20
0.963847
10
-4.251915
20
0.956132
10
-4.263406
20
0.952133
10
-4.26918
20
0.950098
10
-4.270627
20
0.949585
10
-4.270672
20
0.949569
10
-4.270711
20
0.949552
10
-4.294498
20
0.835413
10
-4.294468
20
0.835381
10
-4.294433
20
0.835349
10
-4.293312
20
0.834301
10
-4.288831
20
0.830129
10
-4.279894
20
0.821873
10
-4.26212
20
0.805712
10
-4.244486
20
0.790016
10
-4.226999
20
0.77478
10
-4.209668
20
0.759999
10
-4.1925
20
0.745668
10
-4.175502
20
0.731781
10
-4.158683
20
0.718335
10
-4.142049
20
0.705322
10
-4.125608
20
0.692739
10
-4.109367
20
0.680578
10
-4.093332
20
0.668835
10
-4.077512
20
0.657504
10
-4.061912
20
0.646579
10
-4.04654
20
0.636054
10
-4.031403
20
0.625923
10
-4.016506
20
0.61618
10
-4.001856
20
0.606818
10
-3.98746
20
0.597831
10
-3.973325
20
0.589213
10
-3.959455
20
0.580957
10
-3.945857
20
0.573056
10
-3.932538
20
0.565505
10
-3.919502
20
0.558295
10
-3.906756
20
0.551421
10
-3.894305
20
0.544875
10
-3.882155
20
0.53865
10
-3.87031
20
0.53274
10
-3.858777
20
0.527136
10
-3.847561
20
0.521831
10
-3.836665
20
0.51682
10
-3.826097
20
0.512093
10
-3.815859
20
0.507643
10
-3.805956
20
0.503463
10
-3.807408
20
0.479634
10
-3.820124
20
0.364778
10
-3.823919
20
0.341208
10
-3.834496
20
0.339295
10
-3.845459
20
0.337192
10
-3.856806
20
0.334892
10
-3.868534
20
0.332384
10
-3.880639
20
0.329662
10
-3.893118
20
0.326716
10
-3.905969
20
0.323539
10
-3.919186
20
0.320123
10
-3.932767
20
0.316459
10
-3.946709
20
0.312539
10
-3.961005
20
0.308355
10
-3.975654
20
0.3039
10
-3.990651
20
0.299165
10
-4.005991
20
0.294143
10
-4.021669
20
0.288825
10
-4.037682
20
0.283205
10
-4.054025
20
0.277274
10
-4.070692
20
0.271025
10
-4.087679
20
0.26445
10
-4.104981
20
0.257542
10
-4.122592
20
0.250294
10
-4.140508
20
0.242698
10
-4.158723
20
0.234746
10
-4.177231
20
0.226433
10
-4.196026
20
0.21775
10
-4.215103
20
0.208691
10
-4.234457
20
0.199249
10
-4.25408
20
0.189417
10
-4.273967
20
0.179188
10
-4.294111
20
0.168556
10
-4.314507
20
0.157513
10
-4.335148
20
0.146055
10
-4.356026
20
0.134173
10
-4.366553
20
0.128072
10
-4.371838
20
0.12498
10
-4.373161
20
0.124203
10
-4.373202
20
0.124179
10
-4.373238
20
0.124155
10
-4.374993
20
0.007577
10
-4.374959
20
0.007552
10
-4.374918
20
0.007526
10
-4.373619
20
0.006709
10
-4.368429
20
0.003461
10
-4.358091
20
-0.002955
10
-4.33758
20
-0.01546
10
-4.317294
20
-0.027535
10
-4.29724
20
-0.039186
10
-4.277424
20
-0.05042
10
-4.257854
20
-0.061243
10
-4.238536
20
-0.071662
10
-4.219476
20
-0.081682
10
-4.20068
20
-0.091312
10
-4.182154
20
-0.100556
10
-4.163905
20
-0.109423
10
-4.145938
20
-0.11792
10
-4.12826
20
-0.126052
10
-4.110874
20
-0.133827
10
-4.093788
20
-0.141253
10
-4.077007
20
-0.148336
10
-4.060535
20
-0.155084
10
-4.044379
20
-0.161505
10
-4.028542
20
-0.167605
10
-4.013031
20
-0.173392
10
-3.997849
20
-0.178874
10
-3.983002
20
-0.184058
10
-3.968494
20
-0.188952
10
-3.954329
20
-0.193564
10
-3.940513
20
-0.197902
10
-3.927048
20
-0.201974
10
-3.913939
20
-0.205786
10
-3.90119
20
-0.209349
10
-3.888805
20
-0.212669
10
-3.876788
20
-0.215754
10
-3.865141
20
-0.218614
10
-3.853868
20
-0.221255
10
-3.842973
20
-0.223687
10
-3.832459
20
-0.225917
10
-3.829375
20
-0.249591
10
-3.820124
20
-0.364778
10
-3.81939
20
-0.38864
10
-3.829413
20
-0.39252
10
-3.839781
20
-0.396659
10
-3.850487
20
-0.401066
10
-3.861528
20
-0.405747
10
-3.872899
20
-0.410711
10
-3.884596
20
-0.415965
10
-3.896613
20
-0.421517
10
-3.908945
20
-0.427373
10
-3.921587
20
-0.433541
10
-3.934535
20
-0.440029
10
-3.947782
20
-0.446842
10
-3.961323
20
-0.453989
10
-3.975152
20
-0.461477
10
-3.989264
20
-0.469311
10
-4.003653
20
-0.4775
10
-4.018313
20
-0.486049
10
-4.033238
20
-0.494966
10
-4.048421
20
-0.504256
10
-4.063857
20
-0.513927
10
-4.079539
20
-0.523985
10
-4.09546
20
-0.534435
10
-4.111615
20
-0.545285
10
-4.127995
20
-0.556539
10
-4.144595
20
-0.568205
10
-4.161408
20
-0.580288
10
-4.178426
20
-0.592794
10
-4.195643
20
-0.605728
10
-4.213051
20
-0.619096
10
-4.230642
20
-0.632904
10
-4.248411
20
-0.647156
10
-4.266348
20
-0.661859
10
-4.284447
20
-0.677017
10
-4.3027
20
-0.692635
10
-4.311881
20
-0.700618
10
-4.316486
20
-0.704654
10
-4.317638
20
-0.705667
10
-4.317674
20
-0.705699
10
-4.317704
20
-0.70573
10
-4.297366
20
-0.820533
10
-4.297327
20
-0.820551
10
-4.297282
20
-0.820569
10
-4.295851
20
-0.821125
10
-4.290141
20
-0.823333
10
-4.278776
20
-0.827676
10
-4.256268
20
-0.836073
10
-4.234064
20
-0.84409
10
-4.212167
20
-0.851736
10
-4.190584
20
-0.859017
10
-4.169319
20
-0.865941
10
-4.148378
20
-0.872515
10
-4.127766
20
-0.878747
10
-4.107487
20
-0.884646
10
-4.087547
20
-0.890217
10
-4.06795
20
-0.89547
10
-4.048699
20
-0.900413
10
-4.029801
20
-0.905052
10
-4.011258
20
-0.909397
10
-3.993076
20
-0.913455
10
-3.975257
20
-0.917234
10
-3.957806
20
-0.920743
10
-3.940726
20
-0.92399
10
-3.924022
20
-0.926982
10
-3.907695
20
-0.929729
10
-3.891751
20
-0.932239
10
-3.876191
20
-0.93452
10
-3.861019
20
-0.93658
10
-3.846237
20
-0.938428
10
-3.831849
20
-0.940073
10
-3.817857
20
-0.941522
10
-3.804264
20
-0.942785
10
-3.791071
20
-0.943871
10
-3.778282
20
-0.944787
10
-3.765897
20
-0.945542
10
-3.75392
20
-0.946146
10
-3.742351
20
-0.946606
10
-3.731193
20
-0.946932
10
-3.720446
20
-0.947132
10
-3.712938
20
-0.969794
10
-3.682054
20
-1.081149
10
-3.676818
20
-1.104441
10
-3.685926
20
-1.110148
10
-3.695323
20
-1.116174
10
-3.705002
20
-1.122527
10
-3.714957
20
-1.129214
10
-3.725184
20
-1.13624
10
-3.735674
20
-1.143613
10
-3.746423
20
-1.151338
10
-3.757424
20
-1.159423
10
-3.768671
20
-1.167872
10
-3.780157
20
-1.176692
10
-3.791875
20
-1.18589
10
-3.803818
20
-1.19547
10
-3.815981
20
-1.20544
10
-3.828355
20
-1.215803
10
-3.840934
20
-1.226567
10
-3.853711
20
-1.237736
10
-3.866679
20
-1.249316
10
-3.87983
20
-1.261312
10
-3.893156
20
-1.27373
10
-3.906651
20
-1.286573
10
-3.920307
20
-1.299848
10
-3.934117
20
-1.313559
10
-3.948071
20
-1.32771
10
-3.962164
20
-1.342307
10
-3.976386
20
-1.357353
10
-3.99073
20
-1.372854
10
-4.005187
20
-1.388812
10
-4.019751
20
-1.405233
10
-4.034411
20
-1.422121
10
-4.049161
20
-1.439478
10
-4.063992
20
-1.45731
10
-4.078895
20
-1.475619
10
-4.093862
20
-1.49441
10
-4.101367
20
-1.503986
10
-4.105124
20
-1.50882
10
-4.106064
20
-1.510033
10
-4.106094
20
-1.510071
10
-4.106118
20
-1.510107
10
-4.06442
20
-1.618987
10
-4.064378
20
-1.618997
10
-4.064331
20
-1.619006
10
-4.062821
20
-1.619281
10
-4.056796
20
-1.620368
10
-4.044814
20
-1.622482
10
-4.021124
20
-1.626468
10
-3.997803
20
-1.630138
10
-3.974855
20
-1.633502
10
-3.952284
20
-1.636567
10
-3.930094
20
-1.639341
10
-3.908287
20
-1.641833
10
-3.886868
20
-1.644052
10
-3.865839
20
-1.646006
10
-3.845205
20
-1.647703
10
-3.824968
20
-1.649152
10
-3.80513
20
-1.650362
10
-3.785695
20
-1.651341
10
-3.766665
20
-1.652098
10
-3.748043
20
-1.652642
10
-3.729831
20
-1.652981
10
-3.712032
20
-1.653124
10
-3.694646
20
-1.653079
10
-3.677677
20
-1.652857
10
-3.661126
20
-1.652464
10
-3.644994
20
-1.651911
10
-3.629284
20
-1.651206
10
-3.613996
20
-1.650357
10
-3.599132
20
-1.649375
10
-3.584693
20
-1.648267
10
-3.570679
20
-1.647042
10
-3.557093
20
-1.64571
10
-3.543933
20
-1.644279
10
-3.531201
20
-1.642758
10
-3.518897
20
-1.641156
10
-3.507022
20
-1.639482
10
-3.495575
20
-1.637744
10
-3.484557
20
-1.635953
10
-3.473967
20
-1.634115
10
-3.462305
20
-1.654947
10
-3.410906
20
-1.758444
10
-3.401356
20
-1.780325
10
-3.40922
20
-1.787652
10
-3.417306
20
-1.795348
10
-3.425608
20
-1.803418
10
-3.434118
20
-1.811868
10
-3.44283
20
-1.820703
10
-3.451736
20
-1.829927
10
-3.460828
20
-1.839547
10
-3.470101
20
-1.849568
10
-3.479545
20
-1.859993
10
-3.489154
20
-1.870827
10
-3.498919
20
-1.882076
10
-3.508834
20
-1.893744
10
-3.51889
20
-1.905835
10
-3.529079
20
-1.918353
10
-3.539394
20
-1.931303
10
-3.549827
20
-1.944688
10
-3.560368
20
-1.958513
10
-3.571011
20
-1.972781
10
-3.581747
20
-1.987496
10
-3.592568
20
-2.002662
10
-3.603465
20
-2.018281
10
-3.614429
20
-2.034358
10
-3.625454
20
-2.050894
10
-3.636529
20
-2.067894
10
-3.647646
20
-2.08536
10
-3.658798
20
-2.103295
10
-3.669974
20
-2.121701
10
-3.681166
20
-2.140582
10
-3.692366
20
-2.159938
10
-3.703564
20
-2.179774
10
-3.714753
20
-2.20009
10
-3.725921
20
-2.220889
10
-3.737062
20
-2.242172
10
-3.742619
20
-2.252996
10
-3.745393
20
-2.258454
10
-3.746087
20
-2.259823
10
-3.746108
20
-2.259866
10
-3.746125
20
-2.259905
10
-3.684575
20
-2.358926
10
-3.684532
20
-2.358928
10
-3.684484
20
-2.358928
10
-3.68295
20
-2.358912
10
-3.676828
20
-2.35884
10
-3.664662
20
-2.358648
10
-3.640646
20
-2.358078
10
-3.617052
20
-2.357269
10
-3.593882
20
-2.356229
10
-3.571139
20
-2.354966
10
-3.548824
20
-2.353491
10
-3.52694
20
-2.351811
10
-3.505488
20
-2.349937
10
-3.48447
20
-2.347875
10
-3.463887
20
-2.345637
10
-3.443741
20
-2.34323
10
-3.424033
20
-2.340664
10
-3.404764
20
-2.337947
10
-3.385935
20
-2.335089
10
-3.367547
20
-2.332098
10
-3.3496
20
-2.328985
10
-3.332095
20
-2.325756
10
-3.315032
20
-2.322423
10
-3.298411
20
-2.318992
10
-3.282234
20
-2.315475
10
-3.266498
20
-2.311879
10
-3.251205
20
-2.308213
10
-3.236354
20
-2.304487
10
-3.221945
20
-2.300709
10
-3.207976
20
-2.296888
10
-3.194448
20
-2.293033
10
-3.181359
20
-2.289154
10
-3.168708
20
-2.285258
10
-3.156494
20
-2.281355
10
-3.144716
20
-2.277454
10
-3.133372
20
-2.273562
10
-3.122461
20
-2.26969
10
-3.111981
20
-2.265846
10
-3.10193
20
-2.262037
10
-3.086536
20
-2.280285
10
-3.016479
20
-2.372185
10
-3.002961
20
-2.391863
10
-3.009295
20
-2.400546
10
-3.015779
20
-2.409633
10
-3.022403
20
-2.419128
10
-3.029161
20
-2.429036
10
-3.036043
20
-2.43936
10
-3.043042
20
-2.450104
10
-3.05015
20
-2.46127
10
-3.057359
20
-2.472864
10
-3.064659
20
-2.484888
10
-3.072044
20
-2.497346
10
-3.079504
20
-2.510239
10
-3.087031
20
-2.523573
10
-3.094617
20
-2.537348
10
-3.102254
20
-2.551569
10
-3.109931
20
-2.566237
10
-3.117642
20
-2.581354
10
-3.125377
20
-2.596925
10
-3.133127
20
-2.612949
10
-3.140884
20
-2.62943
10
-3.148639
20
-2.646369
10
-3.156383
20
-2.663768
10
-3.164107
20
-2.681629
10
-3.171803
20
-2.699953
10
-3.179461
20
-2.718742
10
-3.187072
20
-2.737996
10
-3.194627
20
-2.757718
10
-3.202118
20
-2.777906
10
-3.209535
20
-2.798564
10
-3.216869
20
-2.81969
10
-3.224111
20
-2.841287
10
-3.231252
20
-2.863353
10
-3.238283
20
-2.88589
10
-3.245194
20
-2.908897
10
-3.248602
20
-2.920577
10
-3.250294
20
-2.926461
10
-3.250716
20
-2.927936
10
-3.250729
20
-2.927983
10
-3.250738
20
-2.928025
10
-3.17156
20
-3.013607
10
-3.171518
20
-3.013602
10
-3.171471
20
-3.013592
10
-3.169967
20
-3.013287
10
-3.163969
20
-3.012057
10
-3.15206
20
-3.009566
10
-3.128586
20
-3.004462
10
-3.105571
20
-2.999202
10
-3.083017
20
-2.993795
10
-3.060924
20
-2.988252
10
-3.039291
20
-2.98258
10
-3.018121
20
-2.976789
10
-2.997411
20
-2.970888
10
-2.977163
20
-2.964887
10
-2.957376
20
-2.958793
10
-2.938049
20
-2.952617
10
-2.919183
20
-2.946367
10
-2.900776
20
-2.940053
10
-2.882828
20
-2.933683
10
-2.865338
20
-2.927267
10
-2.848305
20
-2.920813
10
-2.831727
20
-2.91433
10
-2.815603
20
-2.907827
10
-2.799933
20
-2.901314
10
-2.784713
20
-2.894798
10
-2.769942
20
-2.888289
10
-2.75562
20
-2.881795
10
-2.741742
20
-2.875326
10
-2.728308
20
-2.868889
10
-2.715315
20
-2.862494
10
-2.702761
20
-2.856149
10
-2.690642
20
-2.849862
10
-2.678957
20
-2.843642
10
-2.667702
20
-2.837498
10
-2.656876
20
-2.831438
10
-2.646473
20
-2.825471
10
-2.636492
20
-2.819603
10
-2.626929
20
-2.813845
10
-2.61778
20
-2.808203
10
-2.599212
20
-2.823208
10
-2.513028
20
-2.900189
10
-2.49603
20
-2.916953
10
-2.500607
20
-2.926678
10
-2.505254
20
-2.936828
10
-2.509962
20
-2.947405
10
-2.514722
20
-2.958413
10
-2.519526
20
-2.969852
10
-2.524365
20
-2.981726
10
-2.529231
20
-2.994037
10
-2.534115
20
-3.006785
10
-2.539009
20
-3.019974
10
-2.543902
20
-3.033603
10
-2.548787
20
-3.047676
10
-2.553655
20
-3.062193
10
-2.558497
20
-3.077155
10
-2.563304
20
-3.092564
10
-2.568067
20
-3.10842
10
-2.572777
20
-3.124724
10
-2.577426
20
-3.141476
10
-2.582003
20
-3.158678
10
-2.586501
20
-3.176329
10
-2.59091
20
-3.19443
10
-2.595222
20
-3.21298
10
-2.599426
20
-3.23198
10
-2.603515
20
-3.251429
10
-2.607478
20
-3.271328
10
-2.611308
20
-3.291675
10
-2.614995
20
-3.312469
10
-2.618529
20
-3.333711
10
-2.621903
20
-3.355399
10
-2.625106
20
-3.377531
10
-2.62813
20
-3.400108
10
-2.630966
20
-3.423127
10
-2.633605
20
-3.446587
10
-2.636037
20
-3.470486
10
-2.637173
20
-3.4826
10
-2.637721
20
-3.488698
10
-2.637855
20
-3.490227
10
-2.63786
20
-3.490275
10
-2.63786
20
-3.490318
10
-2.543917
20
-3.559369
10
-2.543876
20
-3.559356
10
-2.543832
20
-3.559338
10
-2.542413
20
-3.558753
10
-2.536757
20
-3.55641
10
-2.525534
20
-3.55171
10
-2.50345
20
-3.542256
10
-2.481847
20
-3.532735
10
-2.460723
20
-3.523158
10
-2.440078
20
-3.513534
10
-2.419911
20
-3.50387
10
-2.400218
20
-3.494178
10
-2.381
20
-3.484464
10
-2.362253
20
-3.474739
10
-2.343977
20
-3.465011
10
-2.326168
20
-3.455289
10
-2.308826
20
-3.445582
10
-2.291947
20
-3.435898
10
-2.275529
20
-3.426247
10
-2.259569
20
-3.416636
10
-2.244065
20
-3.407075
10
-2.229013
20
-3.397572
10
-2.214412
20
-3.388135
10
-2.200257
20
-3.378774
10
-2.186545
20
-3.369495
10
-2.173274
20
-3.360309
10
-2.160439
20
-3.351222
10
-2.148036
20
-3.342243
10
-2.136063
20
-3.33338
10
-2.124515
20
-3.324641
10
-2.113388
20
-3.316035
10
-2.102679
20
-3.307569
10
-2.092382
20
-3.29925
10
-2.082494
20
-3.291087
10
-2.073009
20
-3.283088
10
-2.063924
20
-3.275259
10
-2.055234
20
-3.267609
10
-2.046933
20
-3.260145
10
-2.039018
20
-3.252874
10
-2.017945
20
-3.264093
10
-1.91875
20
-3.323372
10
-1.898887
20
-3.336616
10
-1.901541
20
-3.347032
10
-1.904182
20
-3.357878
10
-1.906803
20
-3.369155
10
-1.909394
20
-3.380865
10
-1.911946
20
-3.393007
10
-1.914451
20
-3.405582
10
-1.9169
20
-3.418591
10
-1.919283
20
-3.432033
10
-1.921592
20
-3.445909
10
-1.923817
20
-3.460219
10
-1.925951
20
-3.474962
10
-1.927984
20
-3.490138
10
-1.929907
20
-3.505746
10
-1.93171
20
-3.521786
10
-1.933387
20
-3.538256
10
-1.934926
20
-3.555157
10
-1.93632
20
-3.572487
10
-1.93756
20
-3.590244
10
-1.938636
20
-3.608427
10
-1.939539
20
-3.627035
10
-1.940262
20
-3.646066
10
-1.940795
20
-3.665519
10
-1.941129
20
-3.68539
10
-1.941255
20
-3.705679
10
-1.941165
20
-3.726383
10
-1.940849
20
-3.7475
10
-1.9403
20
-3.769026
10
-1.939508
20
-3.790961
10
-1.938465
20
-3.8133
10
-1.937162
20
-3.836041
10
-1.93559
20
-3.85918
10
-1.933741
20
-3.882716
10
-1.931607
20
-3.906644
10
-1.93043
20
-3.918753
10
-1.929813
20
-3.924845
10
-1.929656
20
-3.926371
10
-1.929651
20
-3.926419
10
-1.929644
20
-3.926462
10
-1.82433
20
-3.976486
10
-1.824293
20
-3.976465
10
-1.824252
20
-3.976439
10
-1.82297
20
-3.975596
10
-1.817859
20
-3.972226
10
-1.807729
20
-3.965487
10
-1.787833
20
-3.952024
10
-1.768422
20
-3.938587
10
-1.749493
20
-3.925185
10
-1.731042
20
-3.911827
10
-1.713068
20
-3.898522
10
-1.695566
20
-3.885278
10
-1.678533
20
-3.872102
10
-1.661965
20
-3.859005
10
-1.64586
20
-3.845994
10
-1.630214
20
-3.833078
10
-1.615022
20
-3.820264
10
-1.60028
20
-3.807561
10
-1.585985
20
-3.794977
10
-1.572133
20
-3.782519
10
-1.558718
20
-3.770197
10
-1.545738
20
-3.758017
10
-1.533186
20
-3.745988
10
-1.521058
20
-3.734116
10
-1.50935
20
-3.722411
10
-1.498057
20
-3.710878
10
-1.487174
20
-3.699526
10
-1.476695
20
-3.688363
10
-1.466615
20
-3.677394
10
-1.45693
20
-3.666628
10
-1.447633
20
-3.656071
10
-1.438719
20
-3.645731
10
-1.430183
20
-3.635614
10
-1.422018
20
-3.625727
10
-1.414219
20
-3.616078
10
-1.406779
20
-3.606671
10
-1.399694
20
-3.597514
10
-1.392956
20
-3.588614
10
-1.38656
20
-3.579977
10
-1.363744
20
-3.587005
10
-1.255123
20
-3.626441
10
-1.233113
20
-3.635686
10
-1.233747
20
-3.646416
10
-1.234289
20
-3.657565
10
-1.234728
20
-3.669135
10
-1.235056
20
-3.681123
10
-1.235264
20
-3.693529
10
-1.235344
20
-3.706351
10
-1.235286
20
-3.719588
10
-1.235082
20
-3.733239
10
-1.234723
20
-3.747301
10
-1.234201
20
-3.761773
10
-1.233506
20
-3.776653
10
-1.23263
20
-3.79194
10
-1.231564
20
-3.80763
10
-1.2303
20
-3.823721
10
-1.228828
20
-3.840211
10
-1.227142
20
-3.857098
10
-1.225231
20
-3.874378
10
-1.223087
20
-3.892049
10
-1.220703
20
-3.910107
10
-1.218068
20
-3.92855
10
-1.215176
20
-3.947374
10
-1.212018
20
-3.966576
10
-1.208585
20
-3.986151
10
-1.20487
20
-4.006098
10
-1.200863
20
-4.02641
10
-1.196557
20
-4.047086
10
-1.191943
20
-4.068119
10
-1.187015
20
-4.089507
10
-1.181763
20
-4.111245
10
-1.176179
20
-4.133329
10
-1.170257
20
-4.155753
10
-1.163987
20
-4.178513
10
-1.157363
20
-4.201604
10
-1.153915
20
-4.213273
10
-1.152157
20
-4.219137
10
-1.151714
20
-4.220606
10
-1.1517
20
-4.220652
10
-1.151685
20
-4.220693
10
-1.038807
20
-4.249883
10
-1.038774
20
-4.249855
10
-1.03874
20
-4.249822
10
-1.03764
20
-4.248751
10
-1.033259
20
-4.244474
10
-1.024587
20
-4.23594
10
-1.007599
20
-4.218955
10
-0.991082
20
-4.202088
10
-0.975031
20
-4.185346
10
-0.959442
20
-4.168738
10
-0.94431
20
-4.152271
10
-0.929631
20
-4.135953
10
-0.915399
20
-4.119793
10
-0.90161
20
-4.103797
10
-0.888258
20
-4.087973
10
-0.875339
20
-4.072329
10
-0.862846
20
-4.056871
10
-0.850776
20
-4.041608
10
-0.839121
20
-4.026546
10
-0.827876
20
-4.011692
10
-0.817036
20
-3.997054
10
-0.806595
20
-3.982638
10
-0.796546
20
-3.96845
10
-0.786885
20
-3.954498
10
-0.777604
20
-3.940788
10
-0.768697
20
-3.927327
10
-0.760159
20
-3.914121
10
-0.751982
20
-3.901176
10
-0.74416
20
-3.888498
10
-0.736687
20
-3.876093
10
-0.729556
20
-3.863968
10
-0.72276
20
-3.852127
10
-0.716293
20
-3.840578
10
-0.710147
20
-3.829324
10
-0.704315
20
-3.818373
10
-0.69879
20
-3.807729
10
-0.693566
20
-3.797397
10
-0.688634
20
-3.787382
10
-0.683988
20
-3.77769
10
-0.660254
20
-3.780274
10
-0.546133
20
-3.79844
10
-0.52277
20
-3.803353
10
-0.521363
20
-3.814008
10
-0.519785
20
-3.825059
10
-0.518026
20
-3.836503
10
-0.51608
20
-3.848336
10
-0.513937
20
-3.860557
10
-0.511588
20
-3.873163
10
-0.509026
20
-3.88615
10
-0.506243
20
-3.899515
10
-0.503229
20
-3.913255
10
-0.499977
20
-3.927367
10
-0.496478
20
-3.941847
10
-0.492725
20
-3.956691
10
-0.488709
20
-3.971896
10
-0.484423
20
-3.987457
10
-0.479857
20
-4.003371
10
-0.475005
20
-4.019633
10
-0.469858
20
-4.03624
10
-0.464409
20
-4.053185
10
-0.45865
20
-4.070466
10
-0.452573
20
-4.088077
10
-0.446171
20
-4.106013
10
-0.439436
20
-4.12427
10
-0.43236
20
-4.142843
10
-0.424937
20
-4.161725
10
-0.417158
20
-4.180913
10
-0.409017
20
-4.200399
10
-0.400507
20
-4.22018
10
-0.39162
20
-4.240249
10
-0.382348
20
-4.2606
10
-0.372687
20
-4.281227
10
-0.362627
20
-4.302126
10
-0.352164
20
-4.323288
10
-0.341289
20
-4.344708
10
-0.335695
20
-4.355513
10
-0.332859
20
-4.360939
10
-0.332146
20
-4.362298
10
-0.332124
20
-4.36234
10
-0.332101
20
-4.362377
10
-0.215739
20
-4.369678
10
-0.215712
20
-4.369644
10
-0.215684
20
-4.369605
10
-0.214807
20
-4.368346
10
-0.211315
20
-4.363317
10
-0.204415
20
-4.353296
10
-0.190948
20
-4.333402
10
-0.177921
20
-4.313714
10
-0.165329
20
-4.294237
10
-0.153165
20
-4.274979
10
-0.141423
20
-4.255946
10
-0.130097
20
-4.237145
10
-0.119181
20
-4.218583
10
-0.108668
20
-4.200267
10
-0.098552
20
-4.182202
10
-0.088827
20
-4.164396
10
-0.079486
20
-4.146853
10
-0.070522
20
-4.129581
10
-0.061928
20
-4.112586
10
-0.053697
20
-4.095872
10
-0.045824
20
-4.079447
10
-0.038299
20
-4.063315
10
-0.031118
20
-4.047482
10
-0.024271
20
-4.031954
10
-0.017752
20
-4.016736
10
-0.011554
20
-4.001832
10
-0.005669
20
-3.987248
10
-0.00009
20
-3.97299
10
0.005191
20
-3.959061
10
0.010181
20
-3.945466
10
0.014888
20
-3.93221
10
0.019321
20
-3.919298
10
0.023486
20
-3.906733
10
0.027391
20
-3.89452
10
0.031045
20
-3.882662
10
0.034455
20
-3.871165
10
0.03763
20
-3.860031
10
0.040577
20
-3.849264
10
0.043305
20
-3.838868
10
0.067099
20
-3.836913
10
0.182596
20
-3.833153
10
0.206466
20
-3.833556
10
0.209864
20
-3.843753
10
0.213506
20
-3.854305
10
0.217398
20
-3.865209
10
0.221549
20
-3.876461
10
0.225966
20
-3.888055
10
0.230658
20
-3.899988
10
0.235631
20
-3.912256
10
0.240894
20
-3.924853
10
0.246453
20
-3.937774
10
0.252317
20
-3.951016
10
0.258493
20
-3.964572
10
0.264988
20
-3.978437
10
0.271809
20
-3.992607
10
0.278963
20
-4.007076
10
0.286458
20
-4.021839
10
0.2943
20
-4.036889
10
0.302496
20
-4.052221
10
0.311054
20
-4.067829
10
0.319979
20
-4.083708
10
0.329279
20
-4.09985
10
0.33896
20
-4.116251
10
0.349028
20
-4.132903
10
0.359491
20
-4.149801
10
0.370354
20
-4.166937
10
0.381623
20
-4.184306
10
0.393305
20
-4.2019
10
0.405405
20
-4.219712
10
0.41793
20
-4.237736
10
0.430885
20
-4.255965
10
0.444276
20
-4.274392
10
0.458108
20
-4.293008
10
0.472388
20
-4.311808
10
0.48712
20
-4.330783
10
0.494657
20
-4.340334
10
0.498469
20
-4.345125
10
0.499427
20
-4.346325
10
0.499456
20
-4.346362
10
0.499486
20
-4.346394
10
0.615127
20
-4.331541
10
0.615147
20
-4.331503
10
0.615166
20
-4.331459
10
0.61579
20
-4.330056
10
0.618267
20
-4.324458
10
0.623146
20
-4.313312
10
0.632604
20
-4.291229
10
0.64167
20
-4.269431
10
0.650348
20
-4.247923
10
0.658648
20
-4.226711
10
0.666576
20
-4.2058
10
0.674139
20
-4.185195
10
0.681345
20
-4.164903
10
0.688201
20
-4.144928
10
0.694716
20
-4.125276
10
0.700895
20
-4.10595
10
0.706748
20
-4.086957
10
0.712281
20
-4.068301
10
0.717503
20
-4.049986
10
0.722422
20
-4.032017
10
0.727045
20
-4.014398
10
0.73138
20
-3.997134
10
0.735436
20
-3.980228
10
0.73922
20
-3.963685
10
0.742741
20
-3.947508
10
0.746006
20
-3.9317
10
0.749025
20
-3.916267
10
0.751805
20
-3.90121
10
0.754354
20
-3.886533
10
0.756681
20
-3.87224
10
0.758795
20
-3.858332
10
0.760703
20
-3.844814
10
0.762415
20
-3.831688
10
0.763939
20
-3.818957
10
0.765283
20
-3.806622
10
0.766455
20
-3.794687
10
0.767466
20
-3.783153
10
0.768322
20
-3.772023
10
0.769033
20
-3.761299
10
0.792027
20
-3.754877
10
0.904725
20
-3.729327
10
0.92824
20
-3.725205
10
0.933507
20
-3.734574
10
0.939079
20
-3.744247
10
0.944965
20
-3.754217
10
0.95117
20
-3.76448
10
0.957702
20
-3.775029
10
0.964567
20
-3.785858
10
0.971772
20
-3.796963
10
0.979324
20
-3.808336
10
0.987228
20
-3.819972
10
0.995492
20
-3.831864
10
1.004122
20
-3.844007
10
1.013123
20
-3.856393
10
1.022503
20
-3.869016
10
1.032266
20
-3.881869
10
1.042419
20
-3.894946
10
1.052967
20
-3.90824
10
1.063917
20
-3.921744
10
1.075274
20
-3.935451
10
1.087043
20
-3.949353
10
1.09923
20
-3.963444
10
1.11184
20
-3.977716
10
1.124878
20
-3.992162
10
1.13835
20
-4.006774
10
1.152259
20
-4.021545
10
1.166612
20
-4.036467
10
1.181412
20
-4.051532
10
1.196665
20
-4.066733
10
1.212374
20
-4.082061
10
1.228545
20
-4.097509
10
1.245181
20
-4.113068
10
1.262287
20
-4.12873
10
1.279866
20
-4.144488
10
1.297923
20
-4.160332
10
1.307132
20
-4.168284
10
1.311781
20
-4.172267
10
1.312949
20
-4.173264
10
1.312985
20
-4.173295
10
1.31302
20
-4.17332
10
1.42376
20
-4.136851
10
1.423773
20
-4.136809
10
1.423783
20
-4.136763
10
1.42413
20
-4.135268
10
1.425503
20
-4.129301
10
1.428184
20
-4.117433
10
1.433293
20
-4.09396
10
1.438069
20
-4.07084
10
1.44252
20
-4.048078
10
1.446656
20
-4.025679
10
1.450483
20
-4.003645
10
1.45401
20
-3.981982
10
1.457245
20
-3.960693
10
1.460198
20
-3.939781
10
1.462875
20
-3.919251
10
1.465285
20
-3.899105
10
1.467438
20
-3.879347
10
1.46934
20
-3.859981
10
1.471002
20
-3.841009
10
1.472431
20
-3.822434
10
1.473636
20
-3.804259
10
1.474626
20
-3.786486
10
1.475409
20
-3.769118
10
1.475994
20
-3.752157
10
1.476389
20
-3.735606
10
1.476604
20
-3.719467
10
1.476647
20
-3.703741
10
1.476527
20
-3.68843
10
1.476253
20
-3.673536
10
1.475833
20
-3.65906
10
1.475277
20
-3.645004
10
1.474592
20
-3.63137
10
1.473789
20
-3.618157
10
1.472876
20
-3.605367
10
1.471861
20
-3.593001
10
1.470754
20
-3.58106
10
1.469563
20
-3.569543
10
1.468298
20
-3.558452
10
1.466966
20
-3.547787
10
1.488329
20
-3.537129
10
1.594155
20
-3.490713
10
1.616465
20
-3.482215
10
1.62341
20
-3.490418
10
1.630712
20
-3.498861
10
1.638378
20
-3.507538
10
1.646414
20
-3.51644
10
1.654824
20
-3.525563
10
1.663615
20
-3.534897
10
1.672791
20
-3.544438
10
1.682359
20
-3.554176
10
1.692322
20
-3.564106
10
1.702688
20
-3.574219
10
1.713459
20
-3.584509
10
1.724642
20
-3.594968
10
1.736241
20
-3.605588
10
1.74826
20
-3.616361
10
1.760704
20
-3.62728
10
1.773578
20
-3.638338
10
1.786886
20
-3.649525
10
1.800631
20
-3.660835
10
1.814819
20
-3.672259
10
1.829452
20
-3.683789
10
1.844535
20
-3.695417
10
1.860072
20
-3.707134
10
1.876065
20
-3.718933
10
1.892519
20
-3.730804
10
1.909436
20
-3.74274
10
1.92682
20
-3.754732
10
1.944674
20
-3.766772
10
1.963
20
-3.77885
10
1.981802
20
-3.790958
10
2.001082
20
-3.803087
10
2.020843
20
-3.815229
10
2.041087
20
-3.827375
10
2.061816
20
-3.839516
10
2.072363
20
-3.845582
10
2.077683
20
-3.848613
10
2.079017
20
-3.84937
10
2.079059
20
-3.849394
10
2.079098
20
-3.849413
10
2.180935
20
-3.792644
10
2.180939
20
-3.792601
10
2.180941
20
-3.792553
10
2.180999
20
-3.79102
10
2.181218
20
-3.784901
10
2.181605
20
-3.77274
10
2.182178
20
-3.748724
10
2.182493
20
-3.725119
10
2.182556
20
-3.701926
10
2.182377
20
-3.679148
10
2.181965
20
-3.656788
10
2.181329
20
-3.634849
10
2.180477
20
-3.613332
10
2.179418
20
-3.59224
10
2.178162
20
-3.571574
10
2.176716
20
-3.551336
10
2.175091
20
-3.531528
10
2.173294
20
-3.512152
10
2.171335
20
-3.493208
10
2.169223
20
-3.474698
10
2.166966
20
-3.456623
10
2.164575
20
-3.438984
10
2.162056
20
-3.421782
10
2.159421
20
-3.405017
10
2.156677
20
-3.388691
10
2.153834
20
-3.372802
10
2.1509
20
-3.357352
10
2.147884
20
-3.34234
10
2.144796
20
-3.327768
10
2.141645
20
-3.313633
10
2.138438
20
-3.299937
10
2.135186
20
-3.286678
10
2.131897
20
-3.273856
10
2.128579
20
-3.26147
10
2.125242
20
-3.249519
10
2.121895
20
-3.238003
10
2.118547
20
-3.22692
10
2.115205
20
-3.216269
10
2.111879
20
-3.206048
10
2.130839
20
-3.19154
10
2.225968
20
-3.125935
10
2.246267
20
-3.113369
10
2.254639
20
-3.120109
10
2.263407
20
-3.127018
10
2.272577
20
-3.134087
10
2.282152
20
-3.141308
10
2.292136
20
-3.148674
10
2.302535
20
-3.156176
10
2.313351
20
-3.163807
10
2.324588
20
-3.171559
10
2.336251
20
-3.179424
10
2.348343
20
-3.187393
10
2.360868
20
-3.195458
10
2.373828
20
-3.203611
10
2.387226
20
-3.211844
10
2.401067
20
-3.220148
10
2.415353
20
-3.228515
10
2.430087
20
-3.236936
10
2.445272
20
-3.245403
10
2.460909
20
-3.253907
10
2.477002
20
-3.26244
10
2.493553
20
-3.270992
10
2.510564
20
-3.279555
10
2.528038
20
-3.28812
10
2.545975
20
-3.296679
10
2.564378
20
-3.305222
10
2.583248
20
-3.313741
10
2.602588
20
-3.322226
10
2.622397
20
-3.330669
10
2.642678
20
-3.339061
10
2.663432
20
-3.347392
10
2.684659
20
-3.355653
10
2.706361
20
-3.363836
10
2.728537
20
-3.371931
10
2.75119
20
-3.37993
10
2.762694
20
-3.38389
10
2.768491
20
-3.385859
10
2.769945
20
-3.386351
10
2.76999
20
-3.386366
10
2.770032
20
-3.386377
10
2.859285
20
-3.311361
10
2.859282
20
-3.311318
10
2.859274
20
-3.311271
10
2.85904
20
-3.309754
10
2.858098
20
-3.303705
10
2.856176
20
-3.291691
10
2.852194
20
-3.268
10
2.848036
20
-3.244761
10
2.843708
20
-3.221975
10
2.839222
20
-3.199643
10
2.834586
20
-3.177766
10
2.829809
20
-3.156343
10
2.824901
20
-3.135377
10
2.819869
20
-3.114866
10
2.814724
20
-3.094811
10
2.809475
20
-3.075213
10
2.80413
20
-3.05607
10
2.798699
20
-3.037384
10
2.79319
20
-3.019153
10
2.787613
20
-3.001378
10
2.781977
20
-2.984057
10
2.77629
20
-2.967189
10
2.770562
20
-2.950774
10
2.764801
20
-2.934811
10
2.759017
20
-2.919299
10
2.753218
20
-2.904235
10
2.747413
20
-2.88962
10
2.741611
20
-2.87545
10
2.735821
20
-2.861725
10
2.730052
20
-2.848442
10
2.724311
20
-2.8356
10
2.718608
20
-2.823196
10
2.712952
20
-2.811229
10
2.70735
20
-2.799695
10
2.701812
20
-2.788591
10
2.696346
20
-2.777917
10
2.69096
20
-2.767668
10
2.685663
20
-2.757842
10
2.680464
20
-2.748435
10
2.696335
20
-2.730601
10
2.777329
20
-2.648178
10
2.794883
20
-2.631997
10
2.804379
20
-2.637032
10
2.814296
20
-2.642156
10
2.824638
20
-2.647362
10
2.835407
20
-2.65264
10
2.846605
20
-2.657983
10
2.858235
20
-2.663382
10
2.8703
20
-2.668829
10
2.882802
20
-2.674314
10
2.895742
20
-2.679829
10
2.909124
20
-2.685366
10
2.922948
20
-2.690915
10
2.937217
20
-2.696468
10
2.951932
20
-2.702016
10
2.967094
20
-2.707551
10
2.982705
20
-2.713063
10
2.998767
20
-2.718544
10
3.015279
20
-2.723984
10
3.032243
20
-2.729375
10
3.049661
20
-2.734707
10
3.067531
20
-2.739973
10
3.085855
20
-2.745162
10
3.104634
20
-2.750266
10
3.123866
20
-2.755275
10
3.143554
20
-2.760181
10
3.163695
20
-2.764974
10
3.184291
20
-2.769646
10
3.20534
20
-2.774188
10
3.226843
20
-2.778589
10
3.248798
20
-2.782842
10
3.271205
20
-2.786937
10
3.294063
20
-2.790865
10
3.317371
20
-2.794617
10
3.341128
20
-2.798184
10
3.353174
20
-2.799895
10
3.359239
20
-2.800732
10
3.360759
20
-2.800939
10
3.360807
20
-2.800946
10
3.36085
20
-2.800948
10
3.434293
20
-2.710397
10
3.434282
20
-2.710356
10
3.434266
20
-2.710311
10
3.433749
20
-2.708866
10
3.431678
20
-2.703104
10
3.427518
20
-2.691671
10
3.419125
20
-2.669162
10
3.410643
20
-2.64713
10
3.402082
20
-2.625575
10
3.39345
20
-2.604495
10
3.384758
20
-2.58389
10
3.376013
20
-2.563759
10
3.367225
20
-2.5441
10
3.358403
20
-2.524912
10
3.349555
20
-2.506194
10
3.340692
20
-2.487943
10
3.331821
20
-2.470158
10
3.322951
20
-2.452837
10
3.314092
20
-2.435979
10
3.305252
20
-2.41958
10
3.296439
20
-2.403638
10
3.287663
20
-2.388152
10
3.278932
20
-2.373118
10
3.270254
20
-2.358533
10
3.261639
20
-2.344396
10
3.253094
20
-2.330702
10
3.244628
20
-2.317449
10
3.23625
20
-2.304634
10
3.227966
20
-2.292252
10
3.219787
20
-2.280302
10
3.21172
20
-2.268778
10
3.203773
20
-2.257678
10
3.195954
20
-2.246997
10
3.188271
20
-2.236731
10
3.180731
20
-2.226877
10
3.173344
20
-2.217429
10
3.166116
20
-2.208385
10
3.159055
20
-2.199739
10
3.152169
20
-2.191486
10
3.164379
20
-2.170971
10
3.22831
20
-2.074709
10
3.242484
20
-2.055498
10
3.252762
20
-2.058645
10
3.26347
20
-2.0618
10
3.27461
20
-2.064954
10
3.286183
20
-2.068099
10
3.29819
20
-2.071227
10
3.310631
20
-2.074327
10
3.323509
20
-2.077392
10
3.336823
20
-2.080412
10
3.350573
20
-2.083378
10
3.364761
20
-2.086282
10
3.379385
20
-2.089115
10
3.394447
20
-2.091867
10
3.409946
20
-2.094531
10
3.425882
20
-2.097096
10
3.442255
20
-2.099554
10
3.459063
20
-2.101896
10
3.476306
20
-2.104113
10
3.493984
20
-2.106196
10
3.512096
20
-2.108136
10
3.53064
20
-2.109924
10
3.549615
20
-2.111551
10
3.56902
20
-2.113009
10
3.588853
20
-2.114288
10
3.609113
20
-2.115379
10
3.629798
20
-2.116275
10
3.650906
20
-2.116964
10
3.672434
20
-2.11744
10
3.694381
20
-2.117693
10
3.716745
20
-2.117714
10
3.739522
20
-2.117494
10
3.76271
20
-2.117025
10
3.786307
20
-2.116298
10
3.810309
20
-2.115304
10
3.822461
20
-2.114705
10
3.828575
20
-2.114379
10
3.830107
20
-2.114295
10
3.830155
20
-2.114292
10
3.830198
20
-2.114287
10
3.885177
20
-2.011473
10
3.885158
20
-2.011434
10
3.885134
20
-2.011393
10
3.884353
20
-2.010072
10
3.881229
20
-2.004806
10
3.87498
20
-1.994367
10
3.862479
20
-1.973853
10
3.849981
20
-1.953825
10
3.837495
20
-1.934279
10
3.82503
20
-1.915214
10
3.812595
20
-1.896627
10
3.800199
20
-1.878514
10
3.787849
20
-1.860874
10
3.775555
20
-1.843702
10
3.763325
20
-1.826996
10
3.751167
20
-1.810752
10
3.739091
20
-1.794968
10
3.727104
20
-1.779639
10
3.715214
20
-1.764761
10
3.70343
20
-1.750332
10
3.69176
20
-1.736346
10
3.680211
20
-1.7228
10
3.668793
20
-1.70969
10
3.657512
20
-1.697012
10
3.646377
20
-1.68476
10
3.635395
20
-1.672931
10
3.624574
20
-1.66152
10
3.613921
20
-1.650522
10
3.603445
20
-1.639932
10
3.593151
20
-1.629745
10
3.583049
20
-1.619956
10
3.573145
20
-1.61056
10
3.563445
20
-1.601552
10
3.553958
20
-1.592926
10
3.544691
20
-1.584677
10
3.535649
20
-1.576798
10
3.52684
20
-1.569285
10
3.51827
20
-1.562131
10
3.509947
20
-1.555331
10
3.518053
20
-1.532876
10
3.562612
20
-1.426255
10
3.572894
20
-1.404709
10
3.583581
20
-1.405853
10
3.594693
20
-1.406925
10
3.606228
20
-1.407914
10
3.618187
20
-1.408812
10
3.630569
20
-1.40961
10
3.643373
20
-1.4103
10
3.656598
20
-1.410872
10
3.670243
20
-1.411318
10
3.684306
20
-1.411629
10
3.698787
20
-1.411795
10
3.713683
20
-1.411809
10
3.728994
20
-1.411661
10
3.744717
20
-1.411343
10
3.76085
20
-1.410846
10
3.777392
20
-1.410161
10
3.794339
20
-1.40928
10
3.811691
20
-1.408193
10
3.829444
20
-1.406893
10
3.847595
20
-1.40537
10
3.866142
20
-1.403617
10
3.885083
20
-1.401624
10
3.904413
20
-1.399383
10
3.92413
20
-1.396885
10
3.94423
20
-1.394123
10
3.96471
20
-1.391087
10
3.985567
20
-1.38777
10
4.006797
20
-1.384162
10
4.028395
20
-1.380257
10
4.050358
20
-1.376045
10
4.072682
20
-1.371519
10
4.095363
20
-1.36667
10
4.118395
20
-1.361491
10
4.141776
20
-1.355972
10
4.153595
20
-1.353084
10
4.159536
20
-1.351607
10
4.161025
20
-1.351234
10
4.161072
20
-1.351222
10
4.161113
20
-1.351209
10
4.195641
20
-1.239848
10
4.195615
20
-1.239814
10
4.195583
20
-1.239778
10
4.194566
20
-1.238628
10
4.190502
20
-1.234049
10
4.18239
20
-1.224981
10
4.166233
20
-1.207204
10
4.15017
20
-1.189903
10
4.134211
20
-1.173073
10
4.118364
20
-1.156712
10
4.102636
20
-1.140814
10
4.087035
20
-1.125375
10
4.07157
20
-1.11039
10
4.056248
20
-1.095855
10
4.041078
20
-1.081766
10
4.026066
20
-1.068117
10
4.011221
20
-1.054903
10
3.996549
20
-1.042119
10
3.982058
20
-1.029761
10
3.967757
20
-1.017822
10
3.95365
20
-1.006298
10
3.939747
20
-0.995183
10
3.926054
20
-0.98447
10
3.912578
20
-0.974156
10
3.899325
20
-0.964233
10
3.886303
20
-0.954696
10
3.873518
20
-0.945539
10
3.860976
20
-0.936756
10
3.848685
20
-0.92834
10
3.83665
20
-0.920285
10
3.824877
20
-0.912585
10
3.813374
20
-0.905233
10
3.802145
20
-0.898224
10
3.791197
20
-0.891549
10
3.780535
20
-0.885202
10
3.770166
20
-0.879178
10
3.760094
20
-0.873467
10
3.750326
20
-0.868065
10
3.740866
20
-0.862963
10
3.744576
20
-0.839379
10
3.768151
20
-0.726252
10
3.77417
20
-0.703149
10
3.784881
20
-0.702251
10
3.795994
20
-0.7012
10
3.807509
20
-0.699988
10
3.819421
20
-0.698607
10
3.831731
20
-0.697047
10
3.844434
20
-0.695301
10
3.857528
20
-0.69336
10
3.87101
20
-0.691216
10
3.884878
20
-0.688859
10
3.899129
20
-0.686282
10
3.913759
20
-0.683477
10
3.928765
20
-0.680434
10
3.944143
20
-0.677146
10
3.959891
20
-0.673605
10
3.976004
20
-0.669802
10
3.992479
20
-0.665729
10
4.009311
20
-0.661378
10
4.026497
20
-0.656742
10
4.044032
20
-0.651811
10
4.061912
20
-0.646579
10
4.080133
20
-0.641038
10
4.09869
20
-0.635179
10
4.117578
20
-0.628995
10
4.136792
20
-0.622479
10
4.156328
20
-0.615622
10
4.17618
20
-0.608417
10
4.196343
20
-0.600857
10
4.216812
20
-0.592935
10
4.237581
20
-0.584643
10
4.258645
20
-0.575974
10
4.279998
20
-0.56692
10
4.301634
20
-0.557475
10
4.323548
20
-0.547632
10
4.334607
20
-0.542559
10
4.340162
20
-0.539984
10
4.341553
20
-0.539336
10
4.341596
20
-0.539316
10
4.341634
20
-0.539295
10
4.354463
20
-0.423412
10
4.354431
20
-0.423384
10
4.354393
20
-0.423354
10
4.353177
20
-0.422418
10
4.34832
20
-0.418691
10
4.338638
20
-0.411321
10
4.319408
20
-0.396923
10
4.300362
20
-0.382975
10
4.281506
20
-0.36947
10
4.262849
20
-0.356403
10
4.244396
20
-0.343769
10
4.226156
20
-0.331561
10
4.208134
20
-0.319774
10
4.190339
20
-0.308402
10
4.172776
20
-0.297438
10
4.155452
20
-0.286876
10
4.138374
20
-0.276711
10
4.121548
20
-0.266935
10
4.104981
20
-0.257542
10
4.088678
20
-0.248526
10
4.072646
20
-0.23988
10
4.05689
20
-0.231596
10
4.041417
20
-0.223669
10
4.026232
20
-0.216092
10
4.011341
20
-0.208856
10
3.99675
20
-0.201956
10
3.982462
20
-0.195384
10
3.968485
20
-0.189133
10
3.954823
20
-0.183195
10
3.941482
20
-0.177563
10
3.928465
20
-0.172231
10
3.915778
20
-0.167189
10
3.903425
20
-0.162431
10
3.891412
20
-0.157949
10
3.879742
20
-0.153735
10
3.86842
20
-0.149781
10
3.857449
20
-0.14608
10
3.846835
20
-0.142624
10
3.83658
20
-0.139404
10
3.83576
20
-0.115545
8
gear
0
LWPOLYLINE
5
1004
100
AcDbEntity
100
AcDbPolyline
90
5
70
0
43
0
10
2.772847
20
2.19664
10
2.754119
20
2.220076
10
2.735192
20
2.243352
10
2.716069
20
2.266467
10
2.696751
20
2.289419
8
gear_texts
0
LWPOLYLINE
5
1005
100
AcDbEntity
100
AcDbPolyline
90
2
70
0
43
0
10
2.6888
20
2.205303
10
2.781584
20
2.281402
8
gear_texts
0
LWPOLYLINE
5
1006
100
AcDbEntity
100
AcDbPolyline
90
5
70
0
43
0
10
2.819877
20
2.233897
10
2.777475
20
2.238903
10
2.735192
20
2.243352
10
2.693035
20
2.247246
10
2.651011
20
2.250588
8
gear_texts
0
LWPOLYLINE
5
1007
100
AcDbEntity
100
AcDbPolyline
90
5
70
0
43
0
10
2.725816
20
2.159382
10
2.730762
20
2.201248
10
2.735192
20
2.243352
10
2.739103
20
2.285688
10
2.742491
20
2.328251
8
gear_texts
0
LWPOLYLINE
5
1008
100
AcDbEntity
100
AcDbPolyline
90
13
70
0
43
0
10
2.857359
20
2.18575
10
2.899774
20
2.179464
10
2.918153
20
2.154794
10
2.936322
20
2.12997
10
2.929847
20
2.087583
10
2.905415
20
2.070175
10
2.86347
20
2.077124
10
2.85655
20
2.035357
10
2.832117
20
2.017949
10
2.790619
20
2.024279
10
2.773351
20
2.047872
10
2.755885
20
2.071317
10
2.762048
20
2.112841
8
gear_texts
0
LWPOLYLINE
5
1009
100
AcDbEntity
100
AcDbPolyline
90
2
70
0
43
0
10
2.845752
20
2.101333
10
2.86347
20
2.077124
8
gear_texts
0
LWPOLYLINE
5
1010
100
AcDbEntity
100
AcDbPolyline
90
7
70
0
43
0
10
3.137516
20
1.820645
10
2.98183
20
1.730303
10
3.005777
20
1.778443
10
3.02912
20
1.827112
10
3.051851
20
1.876303
10
3.073962
20
1.926009
10
2.92143
20
1.830439
8
gear_texts
0
LWPOLYLINE
5
1011
100
AcDbEntity
100
AcDbPolyline
90
5
70
0
43
0
10
3.172696
20
1.631275
10
3.158748
20
1.658122
10
3.144573
20
1.68485
10
3.130171
20
1.711457
10
3.115545
20
1.737941
8
gear_texts
0
LWPOLYLINE
5
1012
100
AcDbEntity
100
AcDbPolyline
90
5
70
0
43
0
10
3.119336
20
1.603839
10
3.105622
20
1.630235
10
3.091686
20
1.656513
10
3.077526
20
1.682673
10
3.063146
20
1.708711
8
gear_texts
0
LWPOLYLINE
5
1013
100
AcDbEntity
100
AcDbPolyline
90
13
70
0
43
0
10
3.226815
20
1.590493
10
3.267208
20
1.576106
10
3.280456
20
1.548342
10
3.293469
20
1.520466
10
3.278902
20
1.480138
10
3.251559
20
1.467795
10
3.211756
20
1.482743
10
3.196872
20
1.443109
10
3.169529
20
1.430766
10
3.130044
20
1.445019
10
3.117677
20
1.471512
10
3.105086
20
1.497898
10
3.11918
20
1.53744
8
gear_texts
0
LWPOLYLINE
5
1014
100
AcDbEntity
100
AcDbPolyline
90
2
70
0
43
0
10
3.199067
20
1.509927
10
3.211756
20
1.482743
8
gear_texts
0
LWPOLYLINE
5
1015
100
AcDbEntity
100
AcDbPolyline
90
13
70
0
43
0
10
3.303534
20
1.424314
10
3.343142
20
1.407891
10
3.354961
20
1.379489
10
3.366539
20
1.350988
10
3.34994
20
1.311453
10
3.322004
20
1.300517
10
3.283014
20
1.317469
10
3.266133
20
1.278644
10
3.238198
20
1.267708
10
3.199489
20
1.283951
10
3.188485
20
1.311038
10
3.177252
20
1.33803
10
3.193339
20
1.376804
8
gear_texts
0
LWPOLYLINE
5
1016
100
AcDbEntity
100
AcDbPolyline
90
2
70
0
43
0
10
3.271723
20
1.345263
10
3.283014
20
1.317469
8
gear_texts
0
LWPOLYLINE
5
1017
100
AcDbEntity
100
AcDbPolyline
90
11
70
0
43
0
10
3.364776
20
1.091875
10
3.373914
20
1.063301
10
3.38281
20
1.03465
10
3.391463
20
1.005925
10
3.428705
20
0.985414
10
3.457537
20
0.993701
10
3.477748
20
1.031517
10
3.468875
20
1.060973
10
3.459752
20
1.090353
10
3.450381
20
1.119654
10
3.27917
20
1.064096
8
gear_texts
0
LWPOLYLINE
5
1018
100
AcDbEntity
100
AcDbPolyline
90
2
70
0
43
0
10
3.329047
20
0.895935
10
3.444924
20
0.927121
8
gear_texts
0
LWPOLYLINE
5
1019
100
AcDbEntity
100
AcDbPolyline
90
2
70
0
43
0
10
3.473894
20
0.934917
10
3.502863
20
0.942713
8
gear_texts
0
LWPOLYLINE
5
1020
100
AcDbEntity
100
AcDbPolyline
90
4
70
0
43
0
10
3.399636
20
0.731768
10
3.364034
20
0.754011
10
3.386736
20
0.789322
10
3.53282
20
0.823369
8
gear_texts
0
LWPOLYLINE
5
1021
100
AcDbEntity
100
AcDbPolyline
90
5
70
0
43
0
10
3.48762
20
0.750707
10
3.481129
20
0.780256
10
3.474386
20
0.80975
10
3.467394
20
0.839185
10
3.460153
20
0.86856
8
gear_texts
0
LWPOLYLINE
5
1022
100
AcDbEntity
100
AcDbPolyline
90
10
70
0
43
0
10
3.402843
20
0.553098
10
3.39803
20
0.581935
10
3.392973
20
0.610731
10
3.387671
20
0.639483
10
3.411558
20
0.674004
10
3.47042
20
0.685633
10
3.505589
20
0.661742
10
3.511075
20
0.63199
10
3.516308
20
0.602191
10
3.521288
20
0.57235
8
gear_texts
0
LWPOLYLINE
5
1023
100
AcDbEntity
100
AcDbPolyline
90
6
70
0
43
0
10
3.471112
20
0.503925
10
3.504985
20
0.478528
10
3.538674
20
0.452593
10
3.542385
20
0.422567
10
3.516024
20
0.38921
10
3.42657
20
0.379308
8
gear_texts
0
LWPOLYLINE
5
1024
100
AcDbEntity
100
AcDbPolyline
90
2
70
0
43
0
10
3.411734
20
0.495305
10
3.589867
20
0.521165
8
gear_texts
0
LWPOLYLINE
5
1025
100
AcDbEntity
100
AcDbPolyline
90
10
70
0
43
0
10
3.443038
20
0.175345
10
3.444401
20
0.14614
10
3.445517
20
0.116925
10
3.446384
20
0.087701
10
3.477
20
0.05898
10
3.596983
20
0.061015
10
3.626326
20
0.09228
10
3.625413
20
0.123029
10
3.624239
20
0.15377
10
3.622805
20
0.1845
8
gear_texts
0
LWPOLYLINE
5
1026
100
AcDbEntity
100
AcDbPolyline
90
2
70
0
43
0
10
3.624239
20
0.15377
10
3.444401
20
0.14614
8
gear_texts
0
LWPOLYLINE
5
1027
100
AcDbEntity
100
AcDbPolyline
90
5
70
0
43
0
10
3.565448
20
-0.120994
10
3.566345
20
-0.090753
10
3.566987
20
-0.060506
10
3.567372
20
-0.030254
10
3.5675
20
0
8
gear_texts
0
LWPOLYLINE
5
1028
100
AcDbEntity
100
AcDbPolyline
90
5
70
0
43
0
10
3.505482
20
-0.11896
10
3.506365
20
-0.089227
10
3.506995
20
-0.059488
10
3.507374
20
-0.029745
10
3.5075
20
0
8
gear_texts
0
LWPOLYLINE
5
1029
100
AcDbEntity
100
AcDbPolyline
90
19
70
0
43
0
10
3.531269
20
-0.209877
10
3.50296
20
-0.178396
10
3.472999
20
-0.176871
10
3.441427
20
-0.204537
10
3.439569
20
-0.233715
10
3.437463
20
-0.262875
10
3.465002
20
-0.294558
10
3.494895
20
-0.297099
10
3.527201
20
-0.269738
10
3.529362
20
-0.239816
10
3.531269
20
-0.209877
10
3.562883
20
-0.181448
10
3.592844
20
-0.182974
10
3.62111
20
-0.215216
10
3.619155
20
-0.245917
10
3.616939
20
-0.276601
10
3.584571
20
-0.304723
10
3.554679
20
-0.302182
10
3.527201
20
-0.269738
8
gear_texts
0
LWPOLYLINE
5
1030
100
AcDbEntity
100
AcDbPolyline
90
2
70
0
43
0
10
3.459508
20
-0.353283
10
3.429663
20
-0.350236
8
gear_texts
0
LWPOLYLINE
5
1031
100
AcDbEntity
100
AcDbPolyline
90
15
70
0
43
0
10
3.407411
20
-0.52422
10
3.411734
20
-0.495305
10
3.415812
20
-0.466354
10
3.419644
20
-0.437369
10
3.42323
20
-0.408354
10
3.482808
20
-0.41546
10
3.508917
20
-0.448787
10
3.504985
20
-0.478528
10
3.5008
20
-0.508235
10
3.526016
20
-0.542467
10
3.555667
20
-0.547029
10
3.589867
20
-0.521165
10
3.594157
20
-0.490703
10
3.598189
20
-0.460205
10
3.572174
20
-0.426121
8
gear_texts
0
LWPOLYLINE
5
1032
100
AcDbEntity
100
AcDbPolyline
90
15
70
0
43
0
10
3.552623
20
-0.733231
10
3.558713
20
-0.703077
10
3.564548
20
-0.672872
10
3.570126
20
-0.642619
10
3.575447
20
-0.612319
10
3.516308
20
-0.602191
10
3.511075
20
-0.63199
10
3.505589
20
-0.661742
10
3.499851
20
-0.691448
10
3.464481
20
-0.715039
10
3.405719
20
-0.702911
10
3.382126
20
-0.668189
10
3.387671
20
-0.639483
10
3.392973
20
-0.610731
10
3.427599
20
-0.586999
8
gear_texts
0
LWPOLYLINE
5
1033
100
AcDbEntity
100
AcDbPolyline
90
11
70
0
43
0
10
3.415955
20
-0.919324
10
3.408036
20
-0.94826
10
3.399872
20
-0.977128
10
3.391463
20
-1.005925
10
3.411498
20
-1.043424
10
3.440187
20
-1.052199
10
3.477748
20
-1.031517
10
3.48637
20
-1.001987
10
3.494742
20
-0.972385
10
3.502863
20
-0.942713
10
3.329047
20
-0.895935
8
gear_texts
0
LWPOLYLINE
5
1034
100
AcDbEntity
100
AcDbPolyline
90
5
70
0
43
0
10
3.354013
20
-1.215588
10
3.364201
20
-1.1871
10
3.374147
20
-1.158528
10
3.383851
20
-1.129872
10
3.393311
20
-1.101134
8
gear_texts
0
LWPOLYLINE
5
1035
100
AcDbEntity
100
AcDbPolyline
90
5
70
0
43
0
10
3.297604
20
-1.195143
10
3.30762
20
-1.167135
10
3.317399
20
-1.139043
10
3.32694
20
-1.110869
10
3.336241
20
-1.082615
8
gear_texts
0
LWPOLYLINE
5
1036
100
AcDbEntity
100
AcDbPolyline
90
9
70
0
43
0
10
3.232549
20
-1.361317
10
3.243977
20
-1.333855
10
3.255172
20
-1.306296
10
3.266133
20
-1.278644
10
3.276859
20
-1.2509
10
3.303381
20
-1.293226
10
3.329417
20
-1.336091
10
3.354961
20
-1.379489
10
3.188485
20
-1.311038
8
gear_texts
0
LWPOLYLINE
5
1037
100
AcDbEntity
100
AcDbPolyline
90
11
70
0
43
0
10
3.172998
20
-1.563967
10
3.15962
20
-1.590819
10
3.146016
20
-1.617557
10
3.132185
20
-1.644178
10
3.144573
20
-1.68485
10
3.171016
20
-1.699018
10
3.211873
20
-1.686009
10
3.226056
20
-1.65871
10
3.240007
20
-1.631292
10
3.253724
20
-1.603757
10
3.092271
20
-1.524177
8
gear_texts
0
LWPOLYLINE
5
1038
100
AcDbEntity
100
AcDbPolyline
90
7
70
0
43
0
10
3.010747
20
-1.679481
10
3.063146
20
-1.708711
10
3.100694
20
-1.764299
10
3.137516
20
-1.820645
10
3.070325
20
-1.816634
10
3.003431
20
-1.811617
10
2.952054
20
-1.780627
8
gear_texts
0
LWPOLYLINE
5
1039
100
AcDbEntity
100
AcDbPolyline
90
5
70
0
43
0
10
3.063146
20
-1.708711
10
3.048545
20
-1.734626
10
3.033725
20
-1.760417
10
3.018687
20
-1.786081
10
3.003431
20
-1.811617
8
gear_texts
0
LWPOLYLINE
5
1040
100
AcDbEntity
100
AcDbPolyline
90
5
70
0
43
0
10
2.957137
20
-1.995594
10
2.973955
20
-1.970444
10
2.990558
20
-1.945153
10
3.006946
20
-1.919722
10
3.023118
20
-1.894152
8
gear_texts
0
LWPOLYLINE
5
1041
100
AcDbEntity
100
AcDbPolyline
90
5
70
0
43
0
10
2.907403
20
-1.962031
10
2.923937
20
-1.937304
10
2.940261
20
-1.912438
10
2.956374
20
-1.887435
10
2.972274
20
-1.862295
8
gear_texts
0
LWPOLYLINE
5
1042
100
AcDbEntity
100
AcDbPolyline
90
15
70
0
43
0
10
2.755885
20
-2.071317
10
2.773351
20
-2.047872
10
2.790619
20
-2.024279
10
2.807685
20
-2.00054
10
2.82455
20
-1.976658
10
2.873708
20
-2.011059
10
2.880982
20
-2.052766
10
2.86347
20
-2.077124
10
2.845752
20
-2.101333
10
2.851811
20
-2.143415
10
2.875793
20
-2.16144
10
2.918153
20
-2.154794
10
2.936322
20
-2.12997
10
2.954279
20
-2.104992
10
2.947445
20
-2.062662
8
gear_texts
0
LWPOLYLINE
5
1043
100
AcDbEntity
100
AcDbPolyline
90
14
70
0
43
0
10
2.791376
20
-2.173046
10
2.772847
20
-2.19664
10
2.754119
20
-2.220076
10
2.735192
20
-2.243352
10
2.693035
20
-2.247246
10
2.670002
20
-2.228026
10
2.665604
20
-2.186278
10
2.684049
20
-2.163593
10
2.702301
20
-2.140754
10
2.744031
20
-2.136189
10
2.815048
20
-2.191475
10
2.819877
20
-2.233897
10
2.824188
20
-2.276558
10
2.80478
20
-2.300427
8
gear_texts
0
LINE
5
1001
100
AcDbEntity
100
AcDbLine
10
0.1
20
0
30
0
11
-0.1
21
0
31
0
8
gear_guides
0
LINE
5
1002
100
AcDbEntity
100
AcDbLine
10
0
20
0.1
30
0
11
0
21
-0.1
31
0
8
gear_guides
0
CIRCLE
5
1003
100
AcDbEntity
100
AcDbCircle
10
4.11176
20
0.330235
30
0
40
0.098125
8
gear_guides
0
CIRCLE
5
1044
100
AcDbEntity
100
AcDbCircle
10
0
20
0
30
0
40
4.125
8
gear_guides
0
CIRCLE
5
1045
100
AcDbEntity
100
AcDbCircle
10
0
20
0
30
0
40
4.375
8
gear_guides
0
CIRCLE
5
1046
100
AcDbEntity
100
AcDbCircle
10
0
20
0
30
0
40
3.707525
8
gear_guides
0
ENDSEC
0
SECTION
2
OBJECTS
0
DICTIONARY
5
21D
330
0
100
AcDbDictionary
281
1
3
ACAD_CIP_PREVIOUS_PRODUCT_INFO
350
291
3
ACAD_COLOR
350
273
3
ACAD_DETAILVIEWSTYLE
350
27B
3
ACAD_GROUP
350
21E
3
ACAD_LAYOUT
350
272
3
ACAD_MATERIAL
350
221
3
ACAD_MLEADERSTYLE
350
276
3
ACAD_MLINESTYLE
350
26F
3
ACAD_PLOTSETTINGS
350
271
3
ACAD_PLOTSTYLENAME
350
21F
3
ACAD_SCALELIST
350
253
3
ACAD_SECTIONVIEWSTYLE
350
278
3
ACAD_TABLESTYLE
350
274
3
ACAD_VISUALSTYLE
350
23A
3
ACDB_RECOMPOSE_DATA
350
1057
3
AcDbVariableDictionary
350
29D
0
DICTIONARY
5
297
330
213
100
AcDbDictionary
280
1
281
1
3
ACAD_LAYERSTATES
360
298
0
DICTIONARY
5
292
330
265
100
AcDbDictionary
280
1
281
1
3
ADSK_XREC_LAYER_RECONCILED
360
293
0
XRECORD
5
291
102
{ACAD_REACTORS
330
21D
102
}
330
21D
100
AcDbXrecord
280
1
300
ACDMAC
300
2013
300
ACDMAC_F_S
0
DICTIONARY
5
273
102
{ACAD_REACTORS
330
21D
102
}
330
21D
100
AcDbDictionary
281
1
0
DICTIONARY
5
27B
102
{ACAD_REACTORS
330
21D
102
}
330
21D
100
AcDbDictionary
281
1
3
Imperial24
350
27C
0
DICTIONARY
5
21E
102
{ACAD_REACTORS
330
21D
102
}
330
21D
100
AcDbDictionary
281
1
0
DICTIONARY
5
272
102
{ACAD_REACTORS
330
21D
102
}
330
21D
100
AcDbDictionary
281
1
3
Layout1
350
280
3
Model
350
284
0
DICTIONARY
5
221
102
{ACAD_REACTORS
330
21D
102
}
330
21D
100
AcDbDictionary
281
1
3
ByBlock
350
22A
3
ByLayer
350
222
3
Global
350
232
0
DICTIONARY
5
276
102
{ACAD_REACTORS
330
21D
102
}
330
21D
100
AcDbDictionary
281
1
3
Standard
350
277
0
DICTIONARY
5
26F
102
{ACAD_REACTORS
330
21D
102
}
330
21D
100
AcDbDictionary
281
1
3
Standard
350
270
0
DICTIONARY
5
271
102
{ACAD_REACTORS
330
21D
102
}
330
21D
100
AcDbDictionary
281
1
0
ACDBDICTIONARYWDFLT
5
21F
102
{ACAD_REACTORS
330
21D
102
}
330
21D
100
AcDbDictionary
281
1
3
Normal
350
220
100
AcDbDictionaryWithDefault
340
220
0
DICTIONARY
5
253
102
{ACAD_REACTORS
330
21D
102
}
330
21D
100
AcDbDictionary
281
1
3
A0
350
254
3
A1
350
255
3
A2
350
256
3
A3
350
257
3
A4
350
258
3
A5
350
259
3
A6
350
25A
3
A7
350
25B
3
A8
350
25C
3
A9
350
25D
3
B0
350
25E
3
B1
350
25F
3
B2
350
260
3
B3
350
261
3
B4
350
262
3
B5
350
263
3
B6
350
264
0
DICTIONARY
5
278
102
{ACAD_REACTORS
330
21D
102
}
330
21D
100
AcDbDictionary
281
1
3
Imperial24
350
27A
0
DICTIONARY
5
274
102
{ACAD_REACTORS
330
21D
102
}
330
21D
100
AcDbDictionary
281
1
3
Standard
350
275
0
DICTIONARY
5
23A
102
{ACAD_REACTORS
330
21D
102
}
330
21D
100
AcDbDictionary
281
1
3
2dWireframe
350
240
3
Basic
350
23F
3
Brighten
350
246
3
ColorChange
350
24A
3
Conceptual
350
243
3
Dim
350
245
3
EdgeColorOff
350
252
3
Facepattern
350
249
3
Flat
350
23B
3
FlatWithEdges
350
23C
3
Gouraud
350
23D
3
GouraudWithEdges
350
23E
3
Hidden
350
242
3
JitterOff
350
250
3
Linepattern
350
248
3
OverhangOff
350
251
3
Realistic
350
244
3
Shaded
350
24F
3
Shaded with edges
350
24E
3
Shades of Gray
350
24B
3
Sketchy
350
24C
3
Thicken
350
247
3
Wireframe
350
241
3
X-Ray
350
24D
0
XRECORD
5
1057
102
{ACAD_REACTORS
330
21D
102
}
330
21D
100
AcDbXrecord
280
1
90
1
330
275
0
DICTIONARY
5
29D
102
{ACAD_REACTORS
330
21D
102
}
330
21D
100
AcDbDictionary
281
1
3
CANNOSCALE
350
2A3
3
CMLEADERSTYLE
350
29F
3
CTABLESTYLE
350
29E
3
CVIEWDETAILSTYLE
350
2A0
3
CVIEWSECTIONSTYLE
350
2A1
3
LAYEREVAL
350
2A5
3
LAYERNOTIFY
350
2A6
3
LIGHTINGUNITS
350
2A4
3
MSLTSCALE
350
2A2
0
DICTIONARY
5
298
102
{ACAD_REACTORS
330
297
102
}
330
297
100
AcDbDictionary
281
1
0
XRECORD
5
293
102
{ACAD_REACTORS
330
292
102
}
330
292
100
AcDbXrecord
280
1
290
1
0
ACDBDETAILVIEWSTYLE
5
27C
102
{ACAD_REACTORS
330
27B
102
}
330
27B
100
AcDbModelDocViewStyle
70
0
3
Imperial24
290
0
100
AcDbDetailViewStyle
70
0
71
0
90
3
71
1
340
266
62
256
40
0.24
340
0
62
256
40
0.24
300

40
0.36
280
3
71
2
340
26D
90
25
62
256
71
3
340
266
62
256
40
0.24
90
1
40
0.75
90
1
300
%<AcVar ViewType  "%tc1">% %<AcVar ViewDetailId>%PSCALE %<AcVar ViewScale  "%sn">%
71
4
340
26D
90
25
62
256
340
26D
90
25
62
256
280
0
0
LAYOUT
5
280
102
{ACAD_REACTORS
330
272
102
}
330
272
100
AcDbPlotSettings
1

2
HP_LaserJet_P1505
4

6

40
0.0
41
0.0
42
0.0
43
0.0
44
0.0
45
0.0
46
0.0
47
0.0
48
0.0
49
0.0
140
0.0
141
0.0
142
1.0
143
1.0
70
688
72
0
73
0
74
5
7

75
16
147
1.0
76
0
77
2
78
300
148
0.0
149
0.0
100
AcDbLayout
1
Layout1
70
1
71
1
10
0.0
20
0.0
11
12.0
21
9.0
12
0.0
22
0.0
32
0.0
14
0.0
24
0.0
34
0.0
15
0.0
25
0.0
35
0.0
146
0.0
13
0.0
23
0.0
33
0.0
16
1.0
26
0.0
36
0.0
17
0.0
27
1.0
37
0.0
76
0
330
27D
0
LAYOUT
5
284
102
{ACAD_REACTORS
330
272
102
}
330
272
100
AcDbPlotSettings
1

2
HP_LaserJet_P1505
4

6

40
0.0
41
0.0
42
0.0
43
0.0
44
0.0
45
0.0
46
0.0
47
0.0
48
0.0
49
0.0
140
0.0
141
0.0
142
1.0
143
1.0
70
1712
72
0
73
0
74
0
7

75
0
147
1.0
76
0
77
2
78
300
148
0.0
149
0.0
100
AcDbLayout
1
Model
70
1
71
0
10
0.0
20
0.0
11
12.0
21
9.0
12
0.0
22
0.0
32
0.0
14
0.0
24
0.0
34
0.0
15
0.0
25
0.0
35
0.0
146
0.0
13
0.0
23
0.0
33
0.0
16
1.0
26
0.0
36
0.0
17
0.0
27
1.0
37
0.0
76
0
330
281
331
285
0
MATERIAL
5
22A
102
{ACAD_XDICTIONARY
360
22B
102
}
102
{ACAD_REACTORS
330
221
102
}
330
221
100
AcDbMaterial
1
ByBlock
72
0
43
0.0208333333333333
43
0.0
43
0.0
43
0.0
43
0.0
43
0.0208333333333333
43
0.0
43
0.0
43
0.0
43
0.0
43
1.0
43
0.0
43
0.0
43
0.0
43
0.0
43
1.0
77
0
47
0.0208333333333333
47
0.0
47
0.0
47
0.0
47
0.0
47
0.0208333333333333
47
0.0
47
0.0
47
0.0
47
0.0
47
1.0
47
0.0
47
0.0
47
0.0
47
0.0
47
1.0
171
0
49
0.0208333333333333
49
0.0
49
0.0
49
0.0
49
0.0
49
0.0208333333333333
49
0.0
49
0.0
49
0.0
49
0.0
49
1.0
49
0.0
49
0.0
49
0.0
49
0.0
49
1.0
175
0
142
0.0208333333333333
142
0.0
142
0.0
142
0.0
142
0.0
142
0.0208333333333333
142
0.0
142
0.0
142
0.0
142
0.0
142
1.0
142
0.0
142
0.0
142
0.0
142
0.0
142
1.0
179
0
144
0.0208333333333333
144
0.0
144
0.0
144
0.0
144
0.0
144
0.0208333333333333
144
0.0
144
0.0
144
0.0
144
0.0
144
1.0
144
0.0
144
0.0
144
0.0
144
0.0
144
1.0
147
0.0208333333333333
147
0.0
147
0.0
147
0.0
147
0.0
147
0.0208333333333333
147
0.0
147
0.0
147
0.0
147
0.0
147
1.0
147
0.0
147
0.0
147
0.0
147
0.0
147
1.0
0
MATERIAL
5
222
102
{ACAD_XDICTIONARY
360
223
102
}
102
{ACAD_REACTORS
330
221
102
}
330
221
100
AcDbMaterial
1
ByLayer
72
0
43
0.0208333333333333
43
0.0
43
0.0
43
0.0
43
0.0
43
0.0208333333333333
43
0.0
43
0.0
43
0.0
43
0.0
43
1.0
43
0.0
43
0.0
43
0.0
43
0.0
43
1.0
77
0
47
0.0208333333333333
47
0.0
47
0.0
47
0.0
47
0.0
47
0.0208333333333333
47
0.0
47
0.0
47
0.0
47
0.0
47
1.0
47
0.0
47
0.0
47
0.0
47
0.0
47
1.0
171
0
49
0.0208333333333333
49
0.0
49
0.0
49
0.0
49
0.0
49
0.0208333333333333
49
0.0
49
0.0
49
0.0
49
0.0
49
1.0
49
0.0
49
0.0
49
0.0
49
0.0
49
1.0
175
0
142
0.0208333333333333
142
0.0
142
0.0
142
0.0
142
0.0
142
0.0208333333333333
142
0.0
142
0.0
142
0.0
142
0.0
142
1.0
142
0.0
142
0.0
142
0.0
142
0.0
142
1.0
179
0
144
0.0208333333333333
144
0.0
144
0.0
144
0.0
144
0.0
144
0.0208333333333333
144
0.0
144
0.0
144
0.0
144
0.0
144
1.0
144
0.0
144
0.0
144
0.0
144
0.0
144
1.0
147
0.0208333333333333
147
0.0
147
0.0
147
0.0
147
0.0
147
0.0208333333333333
147
0.0
147
0.0
147
0.0
147
0.0
147
1.0
147
0.0
147
0.0
147
0.0
147
0.0
147
1.0
0
MATERIAL
5
232
102
{ACAD_XDICTIONARY
360
233
102
}
102
{ACAD_REACTORS
330
221
102
}
330
221
100
AcDbMaterial
1
Global
72
0
43
0.0208333333333333
43
0.0
43
0.0
43
0.0
43
0.0
43
0.0208333333333333
43
0.0
43
0.0
43
0.0
43
0.0
43
1.0
43
0.0
43
0.0
43
0.0
43
0.0
43
1.0
77
0
47
0.0208333333333333
47
0.0
47
0.0
47
0.0
47
0.0
47
0.0208333333333333
47
0.0
47
0.0
47
0.0
47
0.0
47
1.0
47
0.0
47
0.0
47
0.0
47
0.0
47
1.0
171
0
49
0.0208333333333333
49
0.0
49
0.0
49
0.0
49
0.0
49
0.0208333333333333
49
0.0
49
0.0
49
0.0
49
0.0
49
1.0
49
0.0
49
0.0
49
0.0
49
0.0
49
1.0
175
0
142
0.0208333333333333
142
0.0
142
0.0
142
0.0
142
0.0
142
0.0208333333333333
142
0.0
142
0.0
142
0.0
142
0.0
142
1.0
142
0.0
142
0.0
142
0.0
142
0.0
142
1.0
179
0
144
0.0208333333333333
144
0.0
144
0.0
144
0.0
144
0.0
144
0.0208333333333333
144
0.0
144
0.0
144
0.0
144
0.0
144
1.0
144
0.0
144
0.0
144
0.0
144
0.0
144
1.0
147
0.0208333333333333
147
0.0
147
0.0
147
0.0
147
0.0
147
0.0208333333333333
147
0.0
147
0.0
147
0.0
147
0.0
147
1.0
147
0.0
147
0.0
147
0.0
147
0.0
147
1.0
0
MLEADERSTYLE
5
277
102
{ACAD_REACTORS
330
276
102
}
330
276
100
AcDbMLeaderStyle
179
2
170
2
171
1
172
0
90
2
40
0.0
41
0.0
173
1
91
-1056964608
340
26B
92
-2
290
1
42
0.09
291
1
43
0.36
3
Standard
44
0.18
300

342
266
174
1
178
6
175
1
176
0
93
-1056964608
45
0.18
292
0
297
0
46
0.18
94
-1056964608
47
1.0
49
1.0
140
1.0
293
1
141
0.0
294
1
177
0
142
1.0
295
0
296
0
143
0.125
271
0
272
9
273
9
298
0
0
MLINESTYLE
5
270
102
{ACAD_REACTORS
330
26F
102
}
330
26F
100
AcDbMlineStyle
2
STANDARD
70
0
3

62
256
51
90.0
52
90.0
71
2
49
0.5
62
256
6
BYLAYER
49
-0.5
62
256
6
BYLAYER
0
ACDBPLACEHOLDER
5
220
102
{ACAD_REACTORS
330
21F
102
}
330
21F
0
SCALE
5
254
102
{ACAD_REACTORS
330
253
102
}
330
253
100
AcDbScale
70
0
300
1:1
140
1.0
141
1.0
290
1
0
SCALE
5
255
102
{ACAD_REACTORS
330
253
102
}
330
253
100
AcDbScale
70
0
300
1/128" = 1'-0"
140
0.0078125
141
12.0
290
0
0
SCALE
5
256
102
{ACAD_REACTORS
330
253
102
}
330
253
100
AcDbScale
70
0
300
1/64" = 1'-0"
140
0.015625
141
12.0
290
0
0
SCALE
5
257
102
{ACAD_REACTORS
330
253
102
}
330
253
100
AcDbScale
70
0
300
1/32" = 1'-0"
140
0.03125
141
12.0
290
0
0
SCALE
5
258
102
{ACAD_REACTORS
330
253
102
}
330
253
100
AcDbScale
70
0
300
1/16" = 1'-0"
140
0.0625
141
12.0
290
0
0
SCALE
5
259
102
{ACAD_REACTORS
330
253
102
}
330
253
100
AcDbScale
70
0
300
3/32" = 1'-0"
140
0.09375
141
12.0
290
0
0
SCALE
5
25A
102
{ACAD_REACTORS
330
253
102
}
330
253
100
AcDbScale
70
0
300
1/8" = 1'-0"
140
0.125
141
12.0
290
0
0
SCALE
5
25B
102
{ACAD_REACTORS
330
253
102
}
330
253
100
AcDbScale
70
0
300
3/16" = 1'-0"
140
0.1875
141
12.0
290
0
0
SCALE
5
25C
102
{ACAD_REACTORS
330
253
102
}
330
253
100
AcDbScale
70
0
300
1/4" = 1'-0"
140
0.25
141
12.0
290
0
0
SCALE
5
25D
102
{ACAD_REACTORS
330
253
102
}
330
253
100
AcDbScale
70
0
300
3/8" = 1'-0"
140
0.375
141
12.0
290
0
0
SCALE
5
25E
102
{ACAD_REACTORS
330
253
102
}
330
253
100
AcDbScale
70
0
300
1/2" = 1'-0"
140
0.5
141
12.0
290
0
0
SCALE
5
25F
102
{ACAD_REACTORS
330
253
102
}
330
253
100
AcDbScale
70
0
300
3/4" = 1'-0"
140
0.75
141
12.0
290
0
0
SCALE
5
260
102
{ACAD_REACTORS
330
253
102
}
330
253
100
AcDbScale
70
0
300
1" = 1'-0"
140
1.0
141
12.0
290
0
0
SCALE
5
261
102
{ACAD_REACTORS
330
253
102
}
330
253
100
AcDbScale
70
0
300
1-1/2" = 1'-0"
140
1.5
141
12.0
290
0
0
SCALE
5
262
102
{ACAD_REACTORS
330
253
102
}
330
253
100
AcDbScale
70
0
300
3" = 1'-0"
140
3.0
141
12.0
290
0
0
SCALE
5
263
102
{ACAD_REACTORS
330
253
102
}
330
253
100
AcDbScale
70
0
300
6" = 1'-0"
140
6.0
141
12.0
290
0
0
SCALE
5
264
102
{ACAD_REACTORS
330
253
102
}
330
253
100
AcDbScale
70
0
300
1'-0" = 1'-0"
140
12.0
141
12.0
290
0
0
ACDBSECTIONVIEWSTYLE
5
27A
102
{ACAD_REACTORS
330
278
102
}
330
278
100
AcDbModelDocViewStyle
70
0
3
Imperial24
290
0
100
AcDbSectionViewStyle
70
0
71
0
90
78
71
1
340
266
62
256
40
0.24
340
0
340
0
62
256
40
0.24
300
I, O, Q, S, X, Z
40
0.48
90
3
40
0.18
90
1
71
2
340
279
90
25
62
256
340
26D
90
50
62
256
40
0.24
40
0.0
40
0.24
71
3
340
266
62
256
40
0.24
90
1
40
0.75
90
1
300
%<AcVar ViewType  "%tc1">% %<AcVar ViewSectionStartId>%-%<AcVar ViewSectionEndId>%PSCALE %<AcVar ViewScale  "%sn">%
71
4
62
256
62
257
300
ANSI31
40
1.0
90
0
290
0
290
0
90
6
40
0.0
40
1.570796326794896
40
0.2617993877991494
40
1.308996938995747
40
-0.2617993877991494
40
1.832595714594044
0
TABLESTYLE
5
275
102
{ACAD_XDICTIONARY
360
2A7
102
}
102
{ACAD_REACTORS
330
274
102
}
330
274
100
AcDbTableStyle
280
0
3
Standard
70
0
71
0
40
0.06
41
0.06
280
0
281
0
7
STANDARD
140
0.18
170
2
62
0
63
7
283
0
90
512
91
0
1

274
-2
284
1
64
0
275
-2
285
1
65
0
276
-2
286
1
66
0
277
-2
287
1
67
0
278
-2
288
1
68
0
279
-2
289
1
69
0
7
STANDARD
140
0.25
170
5
62
0
63
7
283
0
90
512
91
0
1

274
-2
284
1
64
0
275
-2
285
1
65
0
276
-2
286
1
66
0
277
-2
287
1
67
0
278
-2
288
1
68
0
279
-2
289
1
69
0
7
STANDARD
140
0.18
170
5
62
0
63
7
283
0
90
512
91
0
1

274
-2
284
1
64
0
275
-2
285
1
65
0
276
-2
286
1
66
0
277
-2
287
1
67
0
278
-2
288
1
68
0
279
-2
289
1
69
0
0
VISUALSTYLE
5
240
102
{ACAD_REACTORS
330
23A
102
}
330
23A
100
AcDbVisualStyle
2
2dWireframe
70
4
177
3
291
0
70
58
90
0
176
1
90
2
176
1
90
0
176
1
90
0
176
1
40
0.6
176
1
40
30.0
176
1
62
7
420
16777215
176
1
90
1
176
1
90
4
176
1
62
7
176
1
62
257
176
1
90
1
176
1
90
1
176
1
40
1.0
176
1
90
0
176
1
62
257
176
1
40
1.0
176
1
90
1
176
1
90
6
176
1
90
2
176
1
62
7
176
1
90
5
176
1
90
0
176
1
90
0
176
1
290
0
176
1
90
1
176
1
40
0.0
176
1
90
0
176
1
290
1
176
1
290
1
176
1
290
0
176
1
290
0
176
1
290
0
176
1
290
0
176
1
290
0
176
1
290
0
176
1
290
0
176
1
90
50
176
1
40
0.0
176
1
40
1.0
176
1
90
0
176
1
62
18
176
1
90
50
176
1
90
3
176
1
62
5
420
255
176
1
290
0
176
1
90
50
176
1
90
50
176
1
90
50
176
1
290
0
176
1
90
50
176
1
62
256
176
0
40
1.0
176
0
90
2
176
1
1
strokes_ogs.tif
176
1
290
0
176
1
40
1.0
176
1
40
1.0
176
1
1001
ACAD
1000
AcDbSavedByObjectVersion
1070
0
0
VISUALSTYLE
5
23F
102
{ACAD_REACTORS
330
23A
102
}
330
23A
100
AcDbVisualStyle
2
Basic
70
7
177
3
291
1
70
58
90
1
176
1
90
0
176
1
90
1
176
1
90
0
176
1
40
0.6
176
1
40
30.0
176
1
62
7
420
16777215
176
1
90
0
176
1
90
4
176
1
62
7
176
1
62
257
176
1
90
1
176
1
90
1
176
1
40
1.0
176
1
90
8
176
1
62
7
176
1
40
1.0
176
1
90
1
176
1
90
6
176
1
90
2
176
1
62
7
176
1
90
5
176
1
90
0
176
1
90
0
176
1
290
0
176
1
90
1
176
1
40
0.0
176
1
90
0
176
1
290
0
176
1
290
1
176
1
290
1
176
1
290
0
176
1
290
0
176
1
290
0
176
1
290
0
176
1
290
0
176
1
290
0
176
1
90
50
176
1
40
0.0
176
1
40
1.0
176
1
90
0
176
1
62
18
176
1
90
50
176
1
90
3
176
1
62
5
420
255
176
1
290
0
176
1
90
50
176
1
90
50
176
1
90
50
176
1
290
0
176
1
90
50
176
1
62
256
176
0
40
1.0
176
0
90
2
176
1
1
strokes_ogs.tif
176
1
290
0
176
1
40
1.0
176
1
40
1.0
176
1
1001
ACAD
1000
AcDbSavedByObjectVersion
1070
0
0
VISUALSTYLE
5
246
102
{ACAD_REACTORS
330
23A
102
}
330
23A
100
AcDbVisualStyle
2
Brighten
70
12
177
3
291
1
70
58
90
2
176
1
90
2
176
1
90
0
176
1
90
0
176
1
40
0.6
176
1
40
30.0
176
1
62
7
420
16777215
176
1
90
1
176
1
90
4
176
1
62
7
176
1
62
257
176
1
90
1
176
1
90
1
176
1
40
1.0
176
1
90
8
176
1
62
7
176
1
40
1.0
176
1
90
1
176
1
90
6
176
1
90
2
176
1
62
7
176
1
90
5
176
1
90
0
176
1
90
0
176
1
290
0
176
1
90
1
176
1
40
50.0
176
1
90
0
176
1
290
0
176
1
290
1
176
1
290
1
176
1
290
0
176
1
290
0
176
1
290
0
176
1
290
0
176
1
290
0
176
1
290
0
176
1
90
50
176
1
40
0.0
176
1
40
1.0
176
1
90
0
176
1
62
18
176
1
90
50
176
1
90
3
176
1
62
5
420
255
176
1
290
0
176
1
90
50
176
1
90
50
176
1
90
50
176
1
290
0
176
1
90
50
176
1
62
256
176
0
40
1.0
176
0
90
2
176
1
1
strokes_ogs.tif
176
1
290
0
176
1
40
1.0
176
1
40
1.0
176
1
1001
ACAD
1000
AcDbSavedByObjectVersion
1070
0
0
VISUALSTYLE
5
24A
102
{ACAD_REACTORS
330
23A
102
}
330
23A
100
AcDbVisualStyle
2
ColorChange
70
16
177
3
291
1
70
58
90
2
176
1
90
2
176
1
90
3
176
1
90
0
176
1
40
0.6
176
1
40
30.0
176
1
62
8
420
8421504
176
1
90
1
176
1
90
4
176
1
62
7
176
1
62
257
176
1
90
1
176
1
90
1
176
1
40
1.0
176
1
90
8
176
1
62
8
420
8421504
176
1
40
1.0
176
1
90
1
176
1
90
6
176
1
90
2
176
1
62
7
176
1
90
5
176
1
90
0
176
1
90
0
176
1
290
0
176
1
90
1
176
1
40
0.0
176
1
90
0
176
1
290
0
176
1
290
1
176
1
290
1
176
1
290
0
176
1
290
0
176
1
290
0
176
1
290
0
176
1
290
0
176
1
290
0
176
1
90
50
176
1
40
0.0
176
1
40
1.0
176
1
90
0
176
1
62
18
176
1
90
50
176
1
90
3
176
1
62
5
420
255
176
1
290
0
176
1
90
50
176
1
90
50
176
1
90
50
176
1
290
0
176
1
90
50
176
1
62
256
176
0
40
1.0
176
0
90
2
176
1
1
strokes_ogs.tif
176
1
290
0
176
1
40
1.0
176
1
40
1.0
176
1
1001
ACAD
1000
AcDbSavedByObjectVersion
1070
0
0
VISUALSTYLE
5
243
102
{ACAD_REACTORS
330
23A
102
}
330
23A
100
AcDbVisualStyle
2
Conceptual
70
9
177
3
291
0
70
58
90
3
176
1
90
2
176
1
90
0
176
1
90
0
176
1
40
0.6
176
1
40
30.0
176
1
62
7
420
16777215
176
1
90
2
176
1
90
2
176
1
62
7
176
1
62
257
176
1
90
1
176
1
90
1
176
1
40
179.0
176
1
90
8
176
1
62
7
176
1
40
1.0
176
1
90
1
176
1
90
6
176
1
90
2
176
1
62
7
176
1
90
3
176
1
90
0
176
1
90
0
176
1
290
0
176
1
90
1
176
1
40
0.0
176
1
90
0
176
1
290
0
176
1
290
1
176
1
290
1
176
1
290
0
176
1
290
0
176
1
290
0
176
1
290
0
176
1
290
0
176
1
290
0
176
1
90
50
176
1
40
0.0
176
1
40
1.0
176
1
90
0
176
1
62
18
176
1
90
50
176
1
90
3
176
1
62
5
420
255
176
1
290
0
176
1
90
50
176
1
90
50
176
1
90
50
176
1
290
0
176
1
90
50
176
1
62
256
176
0
40
1.0
176
0
90
2
176
1
1
strokes_ogs.tif
176
1
290
0
176
1
40
1.0
176
1
40
1.0
176
1
1001
ACAD
1000
AcDbSavedByObjectVersion
1070
0
0
VISUALSTYLE
5
245
102
{ACAD_REACTORS
330
23A
102
}
330
23A
100
AcDbVisualStyle
2
Dim
70
11
177
3
291
1
70
58
90
2
176
1
90
2
176
1
90
0
176
1
90
0
176
1
40
0.6
176
1
40
30.0
176
1
62
7
420
16777215
176
1
90
1
176
1
90
4
176
1
62
7
176
1
62
257
176
1
90
1
176
1
90
1
176
1
40
1.0
176
1
90
8
176
1
62
7
176
1
40
1.0
176
1
90
1
176
1
90
6
176
1
90
2
176
1
62
7
176
1
90
5
176
1
90
0
176
1
90
0
176
1
290
0
176
1
90
1
176
1
40
-50.0
176
1
90
0
176
1
290
0
176
1
290
1
176
1
290
1
176
1
290
0
176
1
290
0
176
1
290
0
176
1
290
0
176
1
290
0
176
1
290
0
176
1
90
50
176
1
40
0.0
176
1
40
1.0
176
1
90
0
176
1
62
18
176
1
90
50
176
1
90
3
176
1
62
5
420
255
176
1
290
0
176
1
90
50
176
1
90
50
176
1
90
50
176
1
290
0
176
1
90
50
176
1
62
256
176
0
40
1.0
176
0
90
2
176
1
1
strokes_ogs.tif
176
1
290
0
176
1
40
1.0
176
1
40
1.0
176
1
1001
ACAD
1000
AcDbSavedByObjectVersion
1070
0
0
VISUALSTYLE
5
252
102
{ACAD_REACTORS
330
23A
102
}
330
23A
100
AcDbVisualStyle
2
EdgeColorOff
70
22
177
3
291
1
70
58
90
2
176
0
90
2
176
0
90
0
176
0
90
0
176
0
40
0.6
176
0
40
30.0
176
0
62
7
420
16777215
176
0
90
1
176
0
90
4
176
0
62
7
176
0
62
257
176
0
90
1
176
0
90
1
176
0
40
1.0
176
0
90
8
176
2
62
7
176
0
40
1.0
176
0
90
1
176
0
90
6
176
0
90
2
176
0
62
7
176
0
90
5
176
0
90
0
176
0
90
0
176
0
290
0
176
0
90
1
176
0
40
0.0
176
0
90
0
176
0
290
0
176
1
290
1
176
1
290
1
176
1
290
0
176
1
290
0
176
1
290
0
176
1
290
0
176
1
290
0
176
1
290
0
176
1
90
50
176
0
40
0.0
176
0
40
1.0
176
0
90
0
176
0
62
18
176
0
90
50
176
0
90
3
176
0
62
5
420
255
176
0
290
0
176
1
90
50
176
0
90
50
176
0
90
50
176
0
290
0
176
1
90
50
176
0
62
256
176
0
40
1.0
176
0
90
2
176
0
1
strokes_ogs.tif
176
0
290
0
176
1
40
1.0
176
0
40
1.0
176
0
1001
ACAD
1000
AcDbSavedByObjectVersion
1070
0
0
VISUALSTYLE
5
249
102
{ACAD_REACTORS
330
23A
102
}
330
23A
100
AcDbVisualStyle
2
Facepattern
70
15
177
3
291
1
70
58
90
2
176
1
90
2
176
1
90
0
176
1
90
0
176
1
40
0.6
176
1
40
30.0
176
1
62
7
420
16777215
176
1
90
1
176
1
90
4
176
1
62
7
176
1
62
257
176
1
90
1
176
1
90
1
176
1
40
1.0
176
1
90
8
176
1
62
7
176
1
40
1.0
176
1
90
1
176
1
90
6
176
1
90
2
176
1
62
7
176
1
90
5
176
1
90
0
176
1
90
0
176
1
290
0
176
1
90
1
176
1
40
0.0
176
1
90
0
176
1
290
0
176
1
290
1
176
1
290
1
176
1
290
0
176
1
290
0
176
1
290
0
176
1
290
0
176
1
290
0
176
1
290
0
176
1
90
50
176
1
40
0.0
176
1
40
1.0
176
1
90
0
176
1
62
18
176
1
90
50
176
1
90
3
176
1
62
5
420
255
176
1
290
0
176
1
90
50
176
1
90
50
176
1
90
50
176
1
290
0
176
1
90
50
176
1
62
256
176
0
40
1.0
176
0
90
2
176
1
1
strokes_ogs.tif
176
1
290
0
176
1
40
1.0
176
1
40
1.0
176
1
1001
ACAD
1000
AcDbSavedByObjectVersion
1070
0
0
VISUALSTYLE
5
23B
102
{ACAD_REACTORS
330
23A
102
}
330
23A
100
AcDbVisualStyle
2
Flat
70
0
177
3
291
1
70
58
90
2
176
1
90
1
176
1
90
1
176
1
90
2
176
1
40
0.6
176
1
40
30.0
176
1
62
7
420
16777215
176
1
90
0
176
1
90
0
176
1
62
7
176
1
62
257
176
1
90
1
176
1
90
1
176
1
40
1.0
176
1
90
8
176
1
62
7
176
1
40
1.0
176
1
90
1
176
1
90
6
176
1
90
2
176
1
62
7
176
1
90
5
176
1
90
0
176
1
90
0
176
1
290
0
176
1
90
13
176
1
40
0.0
176
1
90
0
176
1
290
0
176
1
290
1
176
1
290
1
176
1
290
0
176
1
290
0
176
1
290
0
176
1
290
0
176
1
290
0
176
1
290
0
176
1
90
50
176
1
40
0.0
176
1
40
1.0
176
1
90
0
176
1
62
18
176
1
90
50
176
1
90
3
176
1
62
5
420
255
176
1
290
0
176
1
90
50
176
1
90
50
176
1
90
50
176
1
290
0
176
1
90
50
176
1
62
256
176
0
40
1.0
176
0
90
2
176
1
1
strokes_ogs.tif
176
1
290
0
176
1
40
1.0
176
1
40
1.0
176
1
1001
ACAD
1000
AcDbSavedByObjectVersion
1070
0
0
VISUALSTYLE
5
23C
102
{ACAD_REACTORS
330
23A
102
}
330
23A
100
AcDbVisualStyle
2
FlatWithEdges
70
1
177
3
291
1
70
58
90
2
176
1
90
1
176
1
90
1
176
1
90
2
176
1
40
0.6
176
1
40
30.0
176
1
62
7
420
16777215
176
1
90
1
176
1
90
0
176
1
62
7
176
1
62
257
176
1
90
1
176
1
90
1
176
1
40
1.0
176
1
90
0
176
1
62
257
176
1
40
1.0
176
1
90
1
176
1
90
6
176
1
90
2
176
1
62
7
176
1
90
5
176
1
90
0
176
1
90
0
176
1
290
0
176
1
90
13
176
1
40
0.0
176
1
90
0
176
1
290
0
176
1
290
1
176
1
290
1
176
1
290
0
176
1
290
0
176
1
290
0
176
1
290
0
176
1
290
0
176
1
290
0
176
1
90
50
176
1
40
0.0
176
1
40
1.0
176
1
90
0
176
1
62
18
176
1
90
50
176
1
90
3
176
1
62
5
420
255
176
1
290
0
176
1
90
50
176
1
90
50
176
1
90
50
176
1
290
0
176
1
90
50
176
1
62
256
176
0
40
1.0
176
0
90
2
176
1
1
strokes_ogs.tif
176
1
290
0
176
1
40
1.0
176
1
40
1.0
176
1
1001
ACAD
1000
AcDbSavedByObjectVersion
1070
0
0
VISUALSTYLE
5
23D
102
{ACAD_REACTORS
330
23A
102
}
330
23A
100
AcDbVisualStyle
2
Gouraud
70
2
177
3
291
1
70
58
90
2
176
1
90
2
176
1
90
1
176
1
90
2
176
1
40
0.6
176
1
40
30.0
176
1
62
7
420
16777215
176
1
90
0
176
1
90
0
176
1
62
7
176
1
62
257
176
1
90
1
176
1
90
1
176
1
40
1.0
176
1
90
0
176
1
62
7
176
1
40
1.0
176
1
90
1
176
1
90
6
176
1
90
2
176
1
62
7
176
1
90
5
176
1
90
0
176
1
90
0
176
1
290
0
176
1
90
13
176
1
40
0.0
176
1
90
0
176
1
290
0
176
1
290
1
176
1
290
1
176
1
290
0
176
1
290
0
176
1
290
0
176
1
290
0
176
1
290
0
176
1
290
0
176
1
90
50
176
1
40
0.0
176
1
40
1.0
176
1
90
0
176
1
62
18
176
1
90
50
176
1
90
3
176
1
62
5
420
255
176
1
290
0
176
1
90
50
176
1
90
50
176
1
90
50
176
1
290
0
176
1
90
50
176
1
62
256
176
0
40
1.0
176
0
90
2
176
1
1
strokes_ogs.tif
176
1
290
0
176
1
40
1.0
176
1
40
1.0
176
1
1001
ACAD
1000
AcDbSavedByObjectVersion
1070
0
0
VISUALSTYLE
5
23E
102
{ACAD_REACTORS
330
23A
102
}
330
23A
100
AcDbVisualStyle
2
GouraudWithEdges
70
3
177
3
291
1
70
58
90
2
176
1
90
2
176
1
90
1
176
1
90
2
176
1
40
0.6
176
1
40
30.0
176
1
62
7
420
16777215
176
1
90
1
176
1
90
0
176
1
62
7
176
1
62
257
176
1
90
1
176
1
90
1
176
1
40
1.0
176
1
90
0
176
1
62
257
176
1
40
1.0
176
1
90
1
176
1
90
6
176
1
90
2
176
1
62
7
176
1
90
5
176
1
90
0
176
1
90
0
176
1
290
0
176
1
90
13
176
1
40
0.0
176
1
90
0
176
1
290
0
176
1
290
1
176
1
290
1
176
1
290
0
176
1
290
0
176
1
290
0
176
1
290
0
176
1
290
0
176
1
290
0
176
1
90
50
176
1
40
0.0
176
1
40
1.0
176
1
90
0
176
1
62
18
176
1
90
50
176
1
90
3
176
1
62
5
420
255
176
1
290
0
176
1
90
50
176
1
90
50
176
1
90
50
176
1
290
0
176
1
90
50
176
1
62
256
176
0
40
1.0
176
0
90
2
176
1
1
strokes_ogs.tif
176
1
290
0
176
1
40
1.0
176
1
40
1.0
176
1
1001
ACAD
1000
AcDbSavedByObjectVersion
1070
0
0
VISUALSTYLE
5
242
102
{ACAD_REACTORS
330
23A
102
}
330
23A
100
AcDbVisualStyle
2
Hidden
70
6
177
3
291
0
70
58
90
1
176
1
90
2
176
1
90
2
176
1
90
0
176
1
40
0.6
176
1
40
30.0
176
1
62
7
420
16777215
176
1
90
2
176
1
90
2
176
1
62
7
176
1
62
257
176
1
90
2
176
1
90
1
176
1
40
40.0
176
1
90
0
176
1
62
257
176
1
40
1.0
176
1
90
1
176
1
90
6
176
1
90
2
176
1
62
7
176
1
90
3
176
1
90
0
176
1
90
0
176
1
290
0
176
1
90
1
176
1
40
0.0
176
1
90
0
176
1
290
0
176
1
290
1
176
1
290
1
176
1
290
0
176
1
290
0
176
1
290
0
176
1
290
0
176
1
290
0
176
1
290
0
176
1
90
50
176
1
40
0.0
176
1
40
1.0
176
1
90
0
176
1
62
18
176
1
90
50
176
1
90
3
176
1
62
5
420
255
176
1
290
0
176
1
90
50
176
1
90
50
176
1
90
50
176
1
290
0
176
1
90
50
176
1
62
256
176
0
40
1.0
176
0
90
2
176
1
1
strokes_ogs.tif
176
1
290
0
176
1
40
1.0
176
1
40
1.0
176
1
1001
ACAD
1000
AcDbSavedByObjectVersion
1070
0
0
VISUALSTYLE
5
250
102
{ACAD_REACTORS
330
23A
102
}
330
23A
100
AcDbVisualStyle
2
JitterOff
70
20
177
3
291
1
70
58
90
2
176
0
90
2
176
0
90
0
176
0
90
0
176
0
40
0.6
176
0
40
30.0
176
0
62
7
420
16777215
176
0
90
1
176
0
90
4
176
0
62
7
176
0
62
257
176
0
90
1
176
0
90
1
176
0
40
1.0
176
0
90
10
176
2
62
7
176
0
40
1.0
176
0
90
1
176
0
90
6
176
0
90
2
176
0
62
7
176
0
90
5
176
0
90
0
176
0
90
0
176
0
290
0
176
0
90
1
176
0
40
0.0
176
0
90
0
176
0
290
0
176
1
290
1
176
1
290
1
176
1
290
0
176
1
290
0
176
1
290
0
176
1
290
0
176
1
290
0
176
1
290
0
176
1
90
50
176
0
40
0.0
176
0
40
1.0
176
0
90
0
176
0
62
18
176
0
90
50
176
0
90
3
176
0
62
5
420
255
176
0
290
0
176
1
90
50
176
0
90
50
176
0
90
50
176
0
290
0
176
1
90
50
176
0
62
256
176
0
40
1.0
176
0
90
2
176
0
1
strokes_ogs.tif
176
0
290
0
176
1
40
1.0
176
0
40
1.0
176
0
1001
ACAD
1000
AcDbSavedByObjectVersion
1070
0
0
VISUALSTYLE
5
248
102
{ACAD_REACTORS
330
23A
102
}
330
23A
100
AcDbVisualStyle
2
Linepattern
70
14
177
3
291
1
70
58
90
2
176
1
90
2
176
1
90
0
176
1
90
0
176
1
40
0.6
176
1
40
30.0
176
1
62
7
420
16777215
176
1
90
1
176
1
90
4
176
1
62
7
176
1
62
257
176
1
90
7
176
1
90
7
176
1
40
1.0
176
1
90
8
176
1
62
7
176
1
40
1.0
176
1
90
1
176
1
90
6
176
1
90
2
176
1
62
7
176
1
90
5
176
1
90
0
176
1
90
0
176
1
290
0
176
1
90
1
176
1
40
0.0
176
1
90
0
176
1
290
0
176
1
290
1
176
1
290
1
176
1
290
0
176
1
290
0
176
1
290
0
176
1
290
0
176
1
290
0
176
1
290
0
176
1
90
50
176
1
40
0.0
176
1
40
1.0
176
1
90
0
176
1
62
18
176
1
90
50
176
1
90
3
176
1
62
5
420
255
176
1
290
0
176
1
90
50
176
1
90
50
176
1
90
50
176
1
290
0
176
1
90
50
176
1
62
256
176
0
40
1.0
176
0
90
2
176
1
1
strokes_ogs.tif
176
1
290
0
176
1
40
1.0
176
1
40
1.0
176
1
1001
ACAD
1000
AcDbSavedByObjectVersion
1070
0
0
VISUALSTYLE
5
251
102
{ACAD_REACTORS
330
23A
102
}
330
23A
100
AcDbVisualStyle
2
OverhangOff
70
21
177
3
291
1
70
58
90
2
176
0
90
2
176
0
90
0
176
0
90
0
176
0
40
0.6
176
0
40
30.0
176
0
62
7
420
16777215
176
0
90
1
176
0
90
4
176
0
62
7
176
0
62
257
176
0
90
1
176
0
90
1
176
0
40
1.0
176
0
90
9
176
2
62
7
176
0
40
1.0
176
0
90
1
176
0
90
6
176
0
90
2
176
0
62
7
176
0
90
5
176
0
90
0
176
0
90
0
176
0
290
0
176
0
90
1
176
0
40
0.0
176
0
90
0
176
0
290
0
176
1
290
1
176
1
290
1
176
1
290
0
176
1
290
0
176
1
290
0
176
1
290
0
176
1
290
0
176
1
290
0
176
1
90
50
176
0
40
0.0
176
0
40
1.0
176
0
90
0
176
0
62
18
176
0
90
50
176
0
90
3
176
0
62
5
420
255
176
0
290
0
176
1
90
50
176
0
90
50
176
0
90
50
176
0
290
0
176
1
90
50
176
0
62
256
176
0
40
1.0
176
0
90
2
176
0
1
strokes_ogs.tif
176
0
290
0
176
1
40
1.0
176
0
40
1.0
176
0
1001
ACAD
1000
AcDbSavedByObjectVersion
1070
0
0
VISUALSTYLE
5
244
102
{ACAD_REACTORS
330
23A
102
}
330
23A
100
AcDbVisualStyle
2
Realistic
70
8
177
3
291
0
70
58
90
2
176
1
90
3
176
1
90
0
176
1
90
2
176
1
40
0.6
176
1
40
30.0
176
1
62
7
420
16777215
176
1
90
0
176
1
90
0
176
1
62
7
176
1
62
257
176
1
90
1
176
1
90
1
176
1
40
1.0
176
1
90
8
176
1
62
257
176
1
40
1.0
176
1
90
1
176
1
90
6
176
1
90
2
176
1
62
7
176
1
90
3
176
1
90
0
176
1
90
0
176
1
290
0
176
1
90
13
176
1
40
0.0
176
1
90
0
176
1
290
0
176
1
290
1
176
1
290
1
176
1
290
0
176
1
290
0
176
1
290
0
176
1
290
0
176
1
290
0
176
1
290
0
176
1
90
50
176
1
40
0.0
176
1
40
1.0
176
1
90
0
176
1
62
18
176
1
90
50
176
1
90
3
176
1
62
5
420
255
176
1
290
0
176
1
90
50
176
1
90
50
176
1
90
50
176
1
290
0
176
1
90
50
176
1
62
256
176
0
40
1.0
176
0
90
2
176
1
1
strokes_ogs.tif
176
1
290
0
176
1
40
1.0
176
1
40
1.0
176
1
1001
ACAD
1000
AcDbSavedByObjectVersion
1070
0
0
VISUALSTYLE
5
24F
102
{ACAD_REACTORS
330
23A
102
}
330
23A
100
AcDbVisualStyle
2
Shaded
70
27
177
3
291
0
70
58
90
2
176
1
90
2
176
1
90
1
176
1
90
2
176
1
40
0.6
176
1
40
30.0
176
1
62
7
420
16777215
176
1
90
0
176
1
90
4
176
1
62
7
176
1
62
257
176
1
90
1
176
1
90
1
176
1
40
1.0
176
1
90
8
176
1
62
257
176
1
40
1.0
176
1
90
1
176
1
90
6
176
1
90
2
176
1
62
8
420
7895160
176
1
90
3
176
1
90
0
176
1
90
0
176
1
290
0
176
1
90
5
176
1
40
0.0
176
1
90
0
176
1
290
0
176
1
290
1
176
1
290
1
176
1
290
0
176
1
290
0
176
1
290
0
176
1
290
0
176
1
290
0
176
1
290
0
176
1
90
50
176
1
40
0.0
176
1
40
1.0
176
1
90
0
176
1
62
18
176
1
90
50
176
1
90
3
176
1
62
5
420
255
176
1
290
0
176
1
90
50
176
1
90
50
176
1
90
50
176
1
290
0
176
1
90
50
176
1
62
256
176
0
40
1.0
176
0
90
2
176
1
1
strokes_ogs.tif
176
1
290
0
176
1
40
1.0
176
1
40
1.0
176
1
1001
ACAD
1000
AcDbSavedByObjectVersion
1070
0
0
VISUALSTYLE
5
24E
102
{ACAD_REACTORS
330
23A
102
}
330
23A
100
AcDbVisualStyle
2
Shaded with edges
70
26
177
3
291
0
70
58
90
2
176
1
90
2
176
1
90
1
176
1
90
2
176
1
40
0.6
176
1
40
30.0
176
1
62
7
420
16777215
176
1
90
1
176
1
90
10
176
1
62
7
176
1
62
257
176
1
90
2
176
1
90
1
176
1
40
1.0
176
1
90
8
176
1
62
257
176
1
40
1.0
176
1
90
1
176
1
90
6
176
1
90
2
176
1
62
7
176
1
90
3
176
1
90
0
176
1
90
0
176
1
290
0
176
1
90
5
176
1
40
0.0
176
1
90
0
176
1
290
0
176
1
290
1
176
1
290
1
176
1
290
0
176
1
290
0
176
1
290
0
176
1
290
0
176
1
290
0
176
1
290
0
176
1
90
50
176
1
40
0.0
176
1
40
1.0
176
1
90
0
176
1
62
18
176
1
90
50
176
1
90
3
176
1
62
5
420
255
176
1
290
0
176
1
90
50
176
1
90
50
176
1
90
50
176
1
290
0
176
1
90
50
176
1
62
256
176
0
40
1.0
176
0
90
2
176
1
1
strokes_ogs.tif
176
1
290
0
176
1
40
1.0
176
1
40
1.0
176
1
1001
ACAD
1000
AcDbSavedByObjectVersion
1070
0
0
VISUALSTYLE
5
24B
102
{ACAD_REACTORS
330
23A
102
}
330
23A
100
AcDbVisualStyle
2
Shades of Gray
70
23
177
3
291
0
70
58
90
2
176
1
90
2
176
1
90
3
176
1
90
0
176
1
40
0.6
176
1
40
30.0
176
1
62
7
420
16777215
176
1
90
2
176
1
90
2
176
1
62
7
176
1
62
7
176
1
90
1
176
1
90
1
176
1
40
40.0
176
1
90
8
176
1
62
7
176
1
40
1.0
176
1
90
1
176
1
90
6
176
1
90
2
176
1
62
7
176
1
90
3
176
1
90
0
176
1
90
0
176
1
290
0
176
1
90
1
176
1
40
0.0
176
1
90
0
176
1
290
0
176
1
290
1
176
1
290
1
176
1
290
0
176
1
290
0
176
1
290
0
176
1
290
0
176
1
290
0
176
1
290
0
176
1
90
50
176
1
40
0.0
176
1
40
1.0
176
1
90
0
176
1
62
18
176
1
90
50
176
1
90
3
176
1
62
5
420
255
176
1
290
0
176
1
90
50
176
1
90
50
176
1
90
50
176
1
290
0
176
1
90
50
176
1
62
256
176
0
40
1.0
176
0
90
2
176
1
1
strokes_ogs.tif
176
1
290
0
176
1
40
1.0
176
1
40
1.0
176
1
1001
ACAD
1000
AcDbSavedByObjectVersion
1070
0
0
VISUALSTYLE
5
24C
102
{ACAD_REACTORS
330
23A
102
}
330
23A
100
AcDbVisualStyle
2
Sketchy
70
24
177
3
291
0
70
58
90
1
176
1
90
2
176
1
90
2
176
1
90
0
176
1
40
0.6
176
1
40
30.0
176
1
62
7
420
16777215
176
1
90
2
176
1
90
2
176
1
62
7
176
1
62
7
176
1
90
1
176
1
90
1
176
1
40
40.0
176
1
90
11
176
1
62
7
176
1
40
1.0
176
1
90
1
176
1
90
6
176
1
90
2
176
1
62
7
176
1
90
6
176
1
90
0
176
1
90
0
176
1
290
0
176
1
90
1
176
1
40
0.0
176
1
90
0
176
1
290
0
176
1
290
1
176
1
290
1
176
1
290
0
176
1
290
0
176
1
290
0
176
1
290
0
176
1
290
0
176
1
290
0
176
1
90
50
176
1
40
0.0
176
1
40
1.0
176
1
90
0
176
1
62
18
176
1
90
50
176
1
90
3
176
1
62
5
420
255
176
1
290
0
176
1
90
50
176
1
90
50
176
1
90
50
176
1
290
0
176
1
90
50
176
1
62
256
176
0
40
1.0
176
0
90
2
176
1
1
strokes_ogs.tif
176
1
290
0
176
1
40
1.0
176
1
40
1.0
176
1
1001
ACAD
1000
AcDbSavedByObjectVersion
1070
0
0
VISUALSTYLE
5
247
102
{ACAD_REACTORS
330
23A
102
}
330
23A
100
AcDbVisualStyle
2
Thicken
70
13
177
3
291
1
70
58
90
2
176
1
90
2
176
1
90
0
176
1
90
0
176
1
40
0.6
176
1
40
30.0
176
1
62
7
420
16777215
176
1
90
1
176
1
90
4
176
1
62
7
176
1
62
257
176
1
90
1
176
1
90
1
176
1
40
1.0
176
1
90
12
176
1
62
7
176
1
40
1.0
176
1
90
1
176
1
90
6
176
1
90
2
176
1
62
7
176
1
90
5
176
1
90
0
176
1
90
0
176
1
290
0
176
1
90
1
176
1
40
0.0
176
1
90
0
176
1
290
0
176
1
290
1
176
1
290
1
176
1
290
0
176
1
290
0
176
1
290
0
176
1
290
0
176
1
290
0
176
1
290
0
176
1
90
50
176
1
40
0.0
176
1
40
1.0
176
1
90
0
176
1
62
18
176
1
90
50
176
1
90
3
176
1
62
5
420
255
176
1
290
0
176
1
90
50
176
1
90
50
176
1
90
50
176
1
290
0
176
1
90
50
176
1
62
256
176
0
40
1.0
176
0
90
2
176
1
1
strokes_ogs.tif
176
1
290
0
176
1
40
1.0
176
1
40
1.0
176
1
1001
ACAD
1000
AcDbSavedByObjectVersion
1070
0
0
VISUALSTYLE
5
241
102
{ACAD_REACTORS
330
23A
102
}
330
23A
100
AcDbVisualStyle
2
Wireframe
70
5
177
3
291
0
70
58
90
0
176
1
90
2
176
1
90
0
176
1
90
0
176
1
40
0.6
176
1
40
30.0
176
1
62
7
420
16777215
176
1
90
1
176
1
90
4
176
1
62
7
176
1
62
257
176
1
90
1
176
1
90
1
176
1
40
1.0
176
1
90
0
176
1
62
257
176
1
40
1.0
176
1
90
1
176
1
90
6
176
1
90
2
176
1
62
7
176
1
90
3
176
1
90
0
176
1
90
0
176
1
290
0
176
1
90
1
176
1
40
0.0
176
1
90
0
176
1
290
0
176
1
290
1
176
1
290
1
176
1
290
0
176
1
290
0
176
1
290
0
176
1
290
0
176
1
290
0
176
1
290
0
176
1
90
50
176
1
40
0.0
176
1
40
1.0
176
1
90
0
176
1
62
18
176
1
90
50
176
1
90
3
176
1
62
5
420
255
176
1
290
0
176
1
90
50
176
1
90
50
176
1
90
50
176
1
290
0
176
1
90
50
176
1
62
256
176
0
40
1.0
176
0
90
2
176
1
1
strokes_ogs.tif
176
1
290
0
176
1
40
1.0
176
1
40
1.0
176
1
1001
ACAD
1000
AcDbSavedByObjectVersion
1070
0
0
VISUALSTYLE
5
24D
102
{ACAD_REACTORS
330
23A
102
}
330
23A
100
AcDbVisualStyle
2
X-Ray
70
25
177
3
291
0
70
58
90
2
176
1
90
2
176
1
90
1
176
1
90
1
176
1
40
0.5
176
1
40
30.0
176
1
62
7
420
16777215
176
1
90
1
176
1
90
0
176
1
62
7
176
1
62
257
176
1
90
1
176
1
90
1
176
1
40
1.0
176
1
90
8
176
1
62
7
176
1
40
1.0
176
1
90
1
176
1
90
6
176
1
90
2
176
1
62
7
176
1
90
3
176
1
90
0
176
1
90
0
176
1
290
0
176
1
90
13
176
1
40
0.0
176
1
90
0
176
1
290
0
176
1
290
1
176
1
290
1
176
1
290
0
176
1
290
0
176
1
290
0
176
1
290
0
176
1
290
0
176
1
290
0
176
1
90
50
176
1
40
0.0
176
1
40
1.0
176
1
90
0
176
1
62
18
176
1
90
50
176
1
90
3
176
1
62
5
420
255
176
1
290
0
176
1
90
50
176
1
90
50
176
1
90
50
176
1
290
0
176
1
90
50
176
1
62
256
176
0
40
1.0
176
0
90
2
176
1
1
strokes_ogs.tif
176
1
290
0
176
1
40
1.0
176
1
40
1.0
176
1
1001
ACAD
1000
AcDbSavedByObjectVersion
1070
0
0
DICTIONARYVAR
5
2A3
102
{ACAD_REACTORS
330
29D
102
}
330
29D
100
DictionaryVariables
280
0
1
1:1
0
DICTIONARYVAR
5
29F
102
{ACAD_REACTORS
330
29D
102
}
330
29D
100
DictionaryVariables
280
0
1
STANDARD
0
DICTIONARYVAR
5
29E
102
{ACAD_REACTORS
330
29D
102
}
330
29D
100
DictionaryVariables
280
0
1
STANDARD
0
DICTIONARYVAR
5
2A0
102
{ACAD_REACTORS
330
29D
102
}
330
29D
100
DictionaryVariables
280
0
1
Imperial24
0
DICTIONARYVAR
5
2A1
102
{ACAD_REACTORS
330
29D
102
}
330
29D
100
DictionaryVariables
280
0
1
Imperial24
0
DICTIONARYVAR
5
2A5
102
{ACAD_REACTORS
330
29D
102
}
330
29D
100
DictionaryVariables
280
0
1
1
0
DICTIONARYVAR
5
2A6
102
{ACAD_REACTORS
330
29D
102
}
330
29D
100
DictionaryVariables
280
0
1
15
0
DICTIONARYVAR
5
2A4
102
{ACAD_REACTORS
330
29D
102
}
330
29D
100
DictionaryVariables
280
0
1
0
0
DICTIONARYVAR
5
2A2
102
{ACAD_REACTORS
330
29D
102
}
330
29D
100
DictionaryVariables
280
0
1
0
0
DICTIONARY
5
22B
330
22A
100
AcDbDictionary
280
1
281
1
3
BUMPTILE
360
22D
3
DIFFUSETILE
360
22C
3
OPACITYTILE
360
230
3
REFLECTIONTILE
360
22F
3
REFRACTIONTILE
360
231
3
SPECULARTILE
360
22E
0
DICTIONARY
5
223
330
222
100
AcDbDictionary
280
1
281
1
3
BUMPTILE
360
225
3
DIFFUSETILE
360
224
3
OPACITYTILE
360
228
3
REFLECTIONTILE
360
227
3
REFRACTIONTILE
360
229
3
SPECULARTILE
360
226
0
DICTIONARY
5
233
330
232
100
AcDbDictionary
280
1
281
1
3
BUMPTILE
360
235
3
DIFFUSETILE
360
234
3
OPACITYTILE
360
238
3
REFLECTIONTILE
360
237
3
REFRACTIONTILE
360
239
3
SPECULARTILE
360
236
0
DICTIONARY
5
2A7
330
275
100
AcDbDictionary
280
1
281
1
3
ACAD_ROUNDTRIP_2008_TABLESTYLE_CELLSTYLEMAP
360
1056
0
XRECORD
5
22D
102
{ACAD_REACTORS
330
22B
102
}
330
22B
100
AcDbXrecord
280
1
270
1
271
1
0
XRECORD
5
22C
102
{ACAD_REACTORS
330
22B
102
}
330
22B
100
AcDbXrecord
280
1
270
1
271
1
0
XRECORD
5
230
102
{ACAD_REACTORS
330
22B
102
}
330
22B
100
AcDbXrecord
280
1
270
1
271
1
0
XRECORD
5
22F
102
{ACAD_REACTORS
330
22B
102
}
330
22B
100
AcDbXrecord
280
1
270
1
271
1
0
XRECORD
5
231
102
{ACAD_REACTORS
330
22B
102
}
330
22B
100
AcDbXrecord
280
1
270
1
271
1
0
XRECORD
5
22E
102
{ACAD_REACTORS
330
22B
102
}
330
22B
100
AcDbXrecord
280
1
270
1
271
1
0
XRECORD
5
225
102
{ACAD_REACTORS
330
223
102
}
330
223
100
AcDbXrecord
280
1
270
1
271
1
0
XRECORD
5
224
102
{ACAD_REACTORS
330
223
102
}
330
223
100
AcDbXrecord
280
1
270
1
271
1
0
XRECORD
5
228
102
{ACAD_REACTORS
330
223
102
}
330
223
100
AcDbXrecord
280
1
270
1
271
1
0
XRECORD
5
227
102
{ACAD_REACTORS
330
223
102
}
330
223
100
AcDbXrecord
280
1
270
1
271
1
0
XRECORD
5
229
102
{ACAD_REACTORS
330
223
102
}
330
223
100
AcDbXrecord
280
1
270
1
271
1
0
XRECORD
5
226
102
{ACAD_REACTORS
330
223
102
}
330
223
100
AcDbXrecord
280
1
270
1
271
1
0
XRECORD
5
235
102
{ACAD_REACTORS
330
233
102
}
330
233
100
AcDbXrecord
280
1
270
1
271
1
0
XRECORD
5
234
102
{ACAD_REACTORS
330
233
102
}
330
233
100
AcDbXrecord
280
1
270
1
271
1
0
XRECORD
5
238
102
{ACAD_REACTORS
330
233
102
}
330
233
100
AcDbXrecord
280
1
270
1
271
1
0
XRECORD
5
237
102
{ACAD_REACTORS
330
233
102
}
330
233
100
AcDbXrecord
280
1
270
1
271
1
0
XRECORD
5
239
102
{ACAD_REACTORS
330
233
102
}
330
233
100
AcDbXrecord
280
1
270
1
271
1
0
XRECORD
5
236
102
{ACAD_REACTORS
330
233
102
}
330
233
100
AcDbXrecord
280
1
270
1
271
1
0
CELLSTYLEMAP
5
1056
102
{ACAD_REACTORS
330
2A7
102
}
330
2A7
100
AcDbCellStyleMap
90
3
300
CELLSTYLE
1
TABLEFORMAT_BEGIN
90
5
170
1
91
0
92
32768
62
257
93
1
300
CONTENTFORMAT
1
CONTENTFORMAT_BEGIN
90
0
91
0
92
512
93
0
300

40
0.0
140
1.0
94
5
62
0
340
266
144
0.25
309
CONTENTFORMAT_END
171
1
301
MARGIN
1
CELLMARGIN_BEGIN
40
0.06
40
0.06
40
0.06
40
0.06
40
0.18
40
0.18
309
CELLMARGIN_END
94
6
95
1
302
GRIDFORMAT
1
GRIDFORMAT_BEGIN
90
0
91
1
62
0
92
-2
340
0
93
0
40
0.045
309
GRIDFORMAT_END
95
2
302
GRIDFORMAT
1
GRIDFORMAT_BEGIN
90
0
91
1
62
0
92
-2
340
0
93
0
40
0.045
309
GRIDFORMAT_END
95
4
302
GRIDFORMAT
1
GRIDFORMAT_BEGIN
90
0
91
1
62
0
92
-2
340
0
93
0
40
0.045
309
GRIDFORMAT_END
95
8
302
GRIDFORMAT
1
GRIDFORMAT_BEGIN
90
0
91
1
62
0
92
-2
340
0
93
0
40
0.045
309
GRIDFORMAT_END
95
16
302
GRIDFORMAT
1
GRIDFORMAT_BEGIN
90
0
91
1
62
0
92
-2
340
0
93
0
40
0.045
309
GRIDFORMAT_END
95
32
302
GRIDFORMAT
1
GRIDFORMAT_BEGIN
90
0
91
1
62
0
92
-2
340
0
93
0
40
0.045
309
GRIDFORMAT_END
309
TABLEFORMAT_END
1
CELLSTYLE_BEGIN
90
1
91
1
300
_TITLE
309
CELLSTYLE_END
300
CELLSTYLE
1
TABLEFORMAT_BEGIN
90
5
170
1
91
0
92
0
62
257
93
1
300
CONTENTFORMAT
1
CONTENTFORMAT_BEGIN
90
0
91
0
92
512
93
0
300

40
0.0
140
1.0
94
5
62
0
340
266
144
0.18
309
CONTENTFORMAT_END
171
1
301
MARGIN
1
CELLMARGIN_BEGIN
40
0.06
40
0.06
40
0.06
40
0.06
40
0.18
40
0.18
309
CELLMARGIN_END
94
6
95
1
302
GRIDFORMAT
1
GRIDFORMAT_BEGIN
90
0
91
1
62
0
92
-2
340
0
93
0
40
0.045
309
GRIDFORMAT_END
95
2
302
GRIDFORMAT
1
GRIDFORMAT_BEGIN
90
0
91
1
62
0
92
-2
340
0
93
0
40
0.045
309
GRIDFORMAT_END
95
4
302
GRIDFORMAT
1
GRIDFORMAT_BEGIN
90
0
91
1
62
0
92
-2
340
0
93
0
40
0.045
309
GRIDFORMAT_END
95
8
302
GRIDFORMAT
1
GRIDFORMAT_BEGIN
90
0
91
1
62
0
92
-2
340
0
93
0
40
0.045
309
GRIDFORMAT_END
95
16
302
GRIDFORMAT
1
GRIDFORMAT_BEGIN
90
0
91
1
62
0
92
-2
340
0
93
0
40
0.045
309
GRIDFORMAT_END
95
32
302
GRIDFORMAT
1
GRIDFORMAT_BEGIN
90
0
91
1
62
0
92
-2
340
0
93
0
40
0.045
309
GRIDFORMAT_END
309
TABLEFORMAT_END
1
CELLSTYLE_BEGIN
90
2
91
1
300
_HEADER
309
CELLSTYLE_END
300
CELLSTYLE
1
TABLEFORMAT_BEGIN
90
5
170
1
91
0
92
0
62
257
93
1
300
CONTENTFORMAT
1
CONTENTFORMAT_BEGIN
90
0
91
0
92
512
93
0
300

40
0.0
140
1.0
94
2
62
0
340
266
144
0.18
309
CONTENTFORMAT_END
171
1
301
MARGIN
1
CELLMARGIN_BEGIN
40
0.06
40
0.06
40
0.06
40
0.06
40
0.18
40
0.18
309
CELLMARGIN_END
94
6
95
1
302
GRIDFORMAT
1
GRIDFORMAT_BEGIN
90
0
91
1
62
0
92
-2
340
0
93
0
40
0.045
309
GRIDFORMAT_END
95
2
302
GRIDFORMAT
1
GRIDFORMAT_BEGIN
90
0
91
1
62
0
92
-2
340
0
93
0
40
0.045
309
GRIDFORMAT_END
95
4
302
GRIDFORMAT
1
GRIDFORMAT_BEGIN
90
0
91
1
62
0
92
-2
340
0
93
0
40
0.045
309
GRIDFORMAT_END
95
8
302
GRIDFORMAT
1
GRIDFORMAT_BEGIN
90
0
91
1
62
0
92
-2
340
0
93
0
40
0.045
309
GRIDFORMAT_END
95
16
302
GRIDFORMAT
1
GRIDFORMAT_BEGIN
90
0
91
1
62
0
92
-2
340
0
93
0
40
0.045
309
GRIDFORMAT_END
95
32
302
GRIDFORMAT
1
GRIDFORMAT_BEGIN
90
0
91
1
62
0
92
-2
340
0
93
0
40
0.045
309
GRIDFORMAT_END
309
TABLEFORMAT_END
1
CELLSTYLE_BEGIN
90
3
91
2
300
_DATA
309
CELLSTYLE_END
0
ENDSEC
0
SECTION
2
ACDSDATA
70
2
71
2
0
ACDSSCHEMA
90
0
1
AcDb_Thumbnail_Schema
2
AcDbDs::ID
280
10
91
8
2
Thumbnail_Data
280
15
91
0
101
ACDSRECORD
95
0
90
1
2
AcDbDs::TreatedAsObjectData
280
1
291
1
101
ACDSRECORD
95
0
90
2
2
AcDbDs::Legacy
280
1
291
1
101
ACDSRECORD
1
AcDbDs::ID
90
3
2
AcDs:Indexable
280
1
291
1
101
ACDSRECORD
1
AcDbDs::ID
90
4
2
AcDbDs::HandleAttribute
280
7
282
1
0
ACDSSCHEMA
90
1
1
AcDbDs::TreatedAsObjectDataSchema
2
AcDbDs::TreatedAsObjectData
280
1
91
0
0
ACDSSCHEMA
90
2
1
AcDbDs::LegacySchema
2
AcDbDs::Legacy
280
1
91
0
0
ACDSSCHEMA
90
3
1
AcDbDs::IndexedPropertySchema
2
AcDs:Indexable
280
1
91
0
0
ACDSSCHEMA
90
4
1
AcDbDs::HandleAttributeSchema
2
AcDbDs::HandleAttribute
280
7
91
1
284
1
0
ACDSRECORD
90
0
2
AcDbDs::ID
280
10
320
284
2
Thumbnail_Data
280
15
94
1130
310
89504E470D0A1A0A0000000D4948445200000100000000BB0803000000BDD6B05600000300504C54452128300000000000000000000000000000000000000000000000000000000000000000330000660000990000CC0000FF0033000033330033660033990033CC0033FF0066000066330066660066990066CC0066FF0099
310
000099330099660099990099CC0099FF00CC0000CC3300CC6600CC9900CCCC00CCFF00FF0000FF3300FF6600FF9900FFCC00FFFF3300003300333300663300993300CC3300FF3333003333333333663333993333CC3333FF3366003366333366663366993366CC3366FF3399003399333399663399993399CC3399FF33CC00
310
33CC3333CC6633CC9933CCCC33CCFF33FF0033FF3333FF6633FF9933FFCC33FFFF6600006600336600666600996600CC6600FF6633006633336633666633996633CC6633FF6666006666336666666666996666CC6666FF6699006699336699666699996699CC6699FF66CC0066CC3366CC6666CC9966CCCC66CCFF66FF0066
310
FF3366FF6666FF9966FFCC66FFFF9900009900339900669900999900CC9900FF9933009933339933669933999933CC9933FF9966009966339966669966999966CC9966FF9999009999339999669999999999CC9999FF99CC0099CC3399CC6699CC9999CCCC99CCFF99FF0099FF3399FF6699FF9999FFCC99FFFFCC0000CC00
310
33CC0066CC0099CC00CCCC00FFCC3300CC3333CC3366CC3399CC33CCCC33FFCC6600CC6633CC6666CC6699CC66CCCC66FFCC9900CC9933CC9966CC9999CC99CCCC99FFCCCC00CCCC33CCCC66CCCC99CCCCCCCCCCFFCCFF00CCFF33CCFF66CCFF99CCFFCCCCFFFFFF0000FF0033FF0066FF0099FF00CCFF00FFFF3300FF3333
310
FF3366FF3399FF33CCFF33FFFF6600FF6633FF6666FF6699FF66CCFF66FFFF9900FF9933FF9966FF9999FF99CCFF99FFFFCC00FFCC33FFCC66FFCC99FFCCCCFFCCFFFFFF00FFFF33FFFF66FFFF99FFFFCCFFFFFF0000000D0D0D1A1A1A2828283535354343435050505D5D5D6B6B6B787878868686939393A1A1A1AEAEAEBB
310
BBBBC9C9C9D6D6D6E4E4E4F1F1F1FFFFFF000000000000000000000000000000000000000000000000000000000000544354A80000004549444154789CEDC13101000000C2A0F54F6D094FA000000000000000000000000000000000000000000000000000000000000000000000000000000000000000000000E062BBBB00
310
01006808E50000000049454E44AE4260824BBACA0DB465ABDB4063B2B20534072BDA4047AC9A0DF4A42AD9407A015D99E20BA8D8407A019D89143066171752C0D0E513E84D54AE01050C5E7F7B0A18BA7C020A18BA7C02F105C4FF0C2920FE4024FE484C01F1C7E2F11723AEC65C8EBA1E372071982F7D48A87EFCC5989C41
310
49A3B22F9BB861E9DF3E73F299D3F25FC9D901000000000000000000000000000000000000000000E0344F3123803F1ED9B2780000000049454E44AE426082FADAD667F149BFC5000000000000000000000000000000000000000070A90F51C3A687E5D1137C0000000049454E44AE426082
0
ENDSEC
0
EOF
