  0
SECTION
  2
HEADER
  9
$ACADVER
  1
AC1015
  9
$ACADMAINTVER
 70
     6
  9
$DWGCODEPAGE
  3
ANSI_1252
  9
$INSBASE
 10
0.0
 20
0.0
 30
0.0
  9
$EXTMIN
 10
0.0
 20
0.0
 30
0.0
  9
$EXTMAX
 10
300.0
 20
210.0
 30
0.0
  9
$LIMMIN
 10
0.0
 20
0.0
  9
$LIMMAX
 10
300.0
 20
210.0
  9
$ORTHOMODE
 70
     0
  9
$REGENMODE
 70
     1
  9
$FILLMODE
 70
     1
  9
$QTEXTMODE
 70
     0
  9
$MIRRTEXT
 70
     1
  9
$LTSCALE
 40
1.0
  9
$ATTMODE
 70
     1
  9
$TEXTSIZE
 40
3.5
  9
$TRACEWID
 40
1.0
  9
$TEXTSTYLE
  7
Standard
  9
$CLAYER
  8
0
  9
$CELTYPE
  6
ByLayer
  9
$CECOLOR
 62
   256
  9
$CELTSCALE
 40
1.0
  9
$DISPSILH
 70
     0
  9
$DIMSCALE
 40
1.0
  9
$DIMASZ
 40
3.302
  9
$DIMEXO
 40
1.0
  9
$DIMDLI
 40
3.75
  9
$DIMRND
 40
0.0
  9
$DIMDLE
 40
0.0
  9
$DIMEXE
 40
1.0
  9
$DIMTP
 40
0.0
  9
$DIMTM
 40
0.0
  9
$DIMTXT
 40
3.5
  9
$DIMCEN
 40
2.5
  9
$DIMTSZ
 40
0.0
  9
$DIMTOL
 70
     0
  9
$DIMLIM
 70
     0
  9
$DIMTIH
 70
     1
  9
$DIMTOH
 70
     1
  9
$DIMSE1
 70
     0
  9
$DIMSE2
 70
     0
  9
$DIMTAD
 70
     1
  9
$DIMZIN
 70
     1
  9
$DIMBLK
  1

  9
$DIMASO
 70
     1
  9
$DIMSHO
 70
     1
  9
$DIMPOST
  1

  9
$DIMAPOST
  1

  9
$DIMALT
 70
     0
  9
$DIMALTD
 70
     3
  9
$DIMALTF
 40
0.0393700787
  9
$DIMLFAC
 40
1.0
  9
$DIMTOFL
 70
     1
  9
$DIMTVP
 40
0.0
  9
$DIMTIX
 70
     0
  9
$DIMSOXD
 70
     0
  9
$DIMSAH
 70
     0
  9
$DIMBLK1
  1

  9
$DIMBLK2
  1

  9
$DIMSTYLE
  2
ISO-25
  9
$DIMCLRD
 70
     0
  9
$DIMCLRE
 70
     0
  9
$DIMCLRT
 70
     0
  9
$DIMTFAC
 40
1.0
  9
$DIMGAP
 40
1.524
  9
$DIMJUST
 70
     0
  9
$DIMSD1
 70
     0
  9
$DIMSD2
 70
     0
  9
$DIMTOLJ
 70
     0
  9
$DIMTZIN
 70
     1
  9
$DIMALTZ
 70
     0
  9
$DIMALTTZ
 70
     0
  9
$DIMUPT
 70
     0
  9
$DIMDEC
 70
     2
  9
$DIMTDEC
 70
     2
  9
$DIMALTU
 70
     2
  9
$DIMALTTD
 70
     3
  9
$DIMTXSTY
  7
Standard
  9
$DIMAUNIT
 70
     0
  9
$DIMADEC
 70
     2
  9
$DIMALTRND
 40
0.0
  9
$DIMAZIN
 70
     0
  9
$DIMDSEP
 70
    44
  9
$DIMATFIT
 70
     3
  9
$DIMFRAC
 70
     0
  9
$DIMLDRBLK
  1

  9
$DIMLUNIT
 70
     2
  9
$DIMLWD
 70
    -2
  9
$DIMLWE
 70
    -2
  9
$DIMTMOVE
 70
     0
  9
$LUNITS
 70
     2
  9
$LUPREC
 70
     2
  9
$SKETCHINC
 40
1.0
  9
$FILLETRAD
 40
10.0
  9
$AUNITS
 70
     0
  9
$AUPREC
 70
     2
  9
$MENU
  1
.
  9
$ELEVATION
 40
0.0
  9
$PELEVATION
 40
0.0
  9
$THICKNESS
 40
0.0
  9
$LIMCHECK
 70
     0
  9
$CHAMFERA
 40
0.0
  9
$CHAMFERB
 40
0.0
  9
$CHAMFERC
 40
0.0
  9
$CHAMFERD
 40
0.0
  9
$SKPOLY
 70
     0
  9
$TDCREATE
 40
2459025.725310648
  9
$TDUCREATE
 40
2459026.016977315
  9
$TDUPDATE
 40
2459025.725311562
  9
$TDUUPDATE
 40
2459026.016978229
  9
$TDINDWG
 40
0.0000000116
  9
$TDUSRTIMER
 40
0.0000000116
  9
$USRTIMER
 70
     1
  9
$ANGBASE
 50
0.0
  9
$ANGDIR
 70
     0
  9
$PDMODE
 70
     0
  9
$PDSIZE
 40
-1.0
  9
$PLINEWID
 40
0.0
  9
$SPLFRAME
 70
     0
  9
$SPLINETYPE
 70
     6
  9
$SPLINESEGS
 70
     8
  9
$HANDSEED
  5
33F
  9
$SURFTAB1
 70
     6
  9
$SURFTAB2
 70
     6
  9
$SURFTYPE
 70
     6
  9
$SURFU
 70
     6
  9
$SURFV
 70
     6
  9
$UCSBASE
  2

  9
$UCSNAME
  2

  9
$UCSORG
 10
0.0
 20
0.0
 30
0.0
  9
$UCSXDIR
 10
1.0
 20
0.0
 30
0.0
  9
$UCSYDIR
 10
0.0
 20
1.0
 30
0.0
  9
$UCSORTHOREF
  2

  9
$UCSORTHOVIEW
 70
     0
  9
$UCSORGTOP
 10
0.0
 20
0.0
 30
0.0
  9
$UCSORGBOTTOM
 10
0.0
 20
0.0
 30
0.0
  9
$UCSORGLEFT
 10
0.0
 20
0.0
 30
0.0
  9
$UCSORGRIGHT
 10
0.0
 20
0.0
 30
0.0
  9
$UCSORGFRONT
 10
0.0
 20
0.0
 30
0.0
  9
$UCSORGBACK
 10
0.0
 20
0.0
 30
0.0
  9
$PUCSBASE
  2

  9
$PUCSNAME
  2

  9
$PUCSORG
 10
0.0
 20
0.0
 30
0.0
  9
$PUCSXDIR
 10
1.0
 20
0.0
 30
0.0
  9
$PUCSYDIR
 10
0.0
 20
1.0
 30
0.0
  9
$PUCSORTHOREF
  2

  9
$PUCSORTHOVIEW
 70
     0
  9
$PUCSORGTOP
 10
0.0
 20
0.0
 30
0.0
  9
$PUCSORGBOTTOM
 10
0.0
 20
0.0
 30
0.0
  9
$PUCSORGLEFT
 10
0.0
 20
0.0
 30
0.0
  9
$PUCSORGRIGHT
 10
0.0
 20
0.0
 30
0.0
  9
$PUCSORGFRONT
 10
0.0
 20
0.0
 30
0.0
  9
$PUCSORGBACK
 10
0.0
 20
0.0
 30
0.0
  9
$USERI1
 70
     0
  9
$USERI2
 70
     0
  9
$USERI3
 70
     0
  9
$USERI4
 70
     0
  9
$USERI5
 70
     0
  9
$USERR1
 40
0.0
  9
$USERR2
 40
0.0
  9
$USERR3
 40
0.0
  9
$USERR4
 40
0.0
  9
$USERR5
 40
0.0
  9
$WORLDVIEW
 70
     1
  9
$SHADEDGE
 70
     3
  9
$SHADEDIF
 70
    70
  9
$TILEMODE
 70
     1
  9
$MAXACTVP
 70
    64
  9
$PINSBASE
 10
0.0
 20
0.0
 30
0.0
  9
$PLIMCHECK
 70
     0
  9
$PEXTMIN
 10
1.0000000000E+20
 20
1.0000000000E+20
 30
1.0000000000E+20
  9
$PEXTMAX
 10
-1.0000000000E+20
 20
-1.0000000000E+20
 30
-1.0000000000E+20
  9
$PLIMMIN
 10
0.0
 20
0.0
  9
$PLIMMAX
 10
420.0
 20
297.0
  9
$UNITMODE
 70
     0
  9
$VISRETAIN
 70
     1
  9
$PLINEGEN
 70
     0
  9
$PSLTSCALE
 70
     1
  9
$TREEDEPTH
 70
  3020
  9
$CMLSTYLE
  2
Standard
  9
$CMLJUST
 70
     0
  9
$CMLSCALE
 40
20.0
  9
$PROXYGRAPHICS
 70
     1
  9
$MEASUREMENT
 70
     1
  9
$CELWEIGHT
370
    -1
  9
$ENDCAPS
280
     0
  9
$JOINSTYLE
280
     0
  9
$LWDISPLAY
290
     1
  9
$INSUNITS
 70
     4
  9
$HYPERLINKBASE
  1

  9
$STYLESHEET
  1

  9
$XEDIT
290
     1
  9
$CEPSNTYPE
380
     0
  9
$PSTYLEMODE
290
     1
  9
$FINGERPRINTGUID
  2
{0AAC9048-416E-43B6-BC2F-4269B1C17022}
  9
$VERSIONGUID
  2
{FAEB1C32-E019-11D5-929B-00C0DF256EC4}
  9
$EXTNAMES
290
     1
  9
$PSVPSCALE
 40
0.0
  9
$OLESTARTUP
290
     0
  0
ENDSEC
  0
SECTION
  2
CLASSES
  0
CLASS
  1
ACDBDICTIONARYWDFLT
  2
AcDbDictionaryWithDefault
  3
ObjectDBX Classes
 90
        0
280
     0
281
     0
  0
CLASS
  1
VISUALSTYLE
  2
AcDbVisualStyle
  3
ObjectDBX Classes
 90
     4095
280
     0
281
     0
  0
CLASS
  1
MATERIAL
  2
AcDbMaterial
  3
ObjectDBX Classes
 90
     1153
280
     0
281
     0
  0
CLASS
  1
SCALE
  2
AcDbScale
  3
ObjectDBX Classes
 90
     1153
280
     0
281
     0
  0
CLASS
  1
TABLESTYLE
  2
AcDbTableStyle
  3
ObjectDBX Classes
 90
     4095
280
     0
281
     0
  0
CLASS
  1
MLEADERSTYLE
  2
AcDbMLeaderStyle
  3
ACDB_MLEADERSTYLE_CLASS
 90
     4095
280
     0
281
     0
  0
CLASS
  1
SUN
  2
AcDbSun
  3
SCENEOE
 90
     1153
280
     0
281
     0
  0
CLASS
  1
ACDBPLACEHOLDER
  2
AcDbPlaceHolder
  3
ObjectDBX Classes
 90
        0
280
     0
281
     0
  0
CLASS
  1
LAYOUT
  2
AcDbLayout
  3
ObjectDBX Classes
 90
        0
280
     0
281
     0
  0
ENDSEC
  0
SECTION
  2
TABLES
  0
TABLE
  2
VPORT
  5
8
330
0
100
AcDbSymbolTable
 70
     1
  0
VPORT
  5
29
330
8
100
AcDbSymbolTableRecord
100
AcDbViewportTableRecord
  2
*Active
 70
     0
 10
0.0
 20
0.0
 11
1.0
 21
1.0
 12
150.0
 22
105.0
 13
0.0
 23
0.0
 14
10.0
 24
10.0
 15
10.0
 25
10.0
 16
0.0
 26
0.0
 36
1.0
 17
0.0
 27
0.0
 37
0.0
 40
210.0
 41
1.4285714286
 42
50.0
 43
0.0
 44
0.0
 50
0.0
 51
0.0
 71
     0
 72
  2000
 73
     1
 74
     3
 75
     0
 76
     0
 77
     0
 78
     0
281
     0
 65
     1
110
0.0
120
0.0
130
0.0
111
1.0
121
0.0
131
0.0
112
0.0
122
1.0
132
0.0
 79
     0
146
0.0
  0
ENDTAB
  0
TABLE
  2
LTYPE
  5
5
330
0
100
AcDbSymbolTable
 70
     6
  0
LTYPE
  5
14
330
5
100
AcDbSymbolTableRecord
100
AcDbLinetypeTableRecord
  2
ByBlock
 70
     0
  3

 72
    65
 73
     0
 40
0.0
  0
LTYPE
  5
15
330
5
100
AcDbSymbolTableRecord
100
AcDbLinetypeTableRecord
  2
ByLayer
 70
     0
  3

 72
    65
 73
     0
 40
0.0
  0
LTYPE
  5
16
330
5
100
AcDbSymbolTableRecord
100
AcDbLinetypeTableRecord
  2
Continuous
 70
     0
  3
Solid line
 72
    65
 73
     0
 40
0.0
  0
LTYPE
  5
6E
330
5
100
AcDbSymbolTableRecord
100
AcDbLinetypeTableRecord
  2
HIDDEN
 70
     0
  3
Hidden __ __ __ __ __ __ __ __ __ __ __ __ __ __
 72
    65
 73
     2
 40
1.905
 49
1.27
 74
     0
 49
-0.635
 74
     0
  0
LTYPE
  5
6F
330
5
100
AcDbSymbolTableRecord
100
AcDbLinetypeTableRecord
  2
PHANTOM
 70
     0
  3
Phantom ______  __  __  ______  __  __  ______
 72
    65
 73
     6
 40
12.7
 49
6.35
 74
     0
 49
-1.27
 74
     0
 49
1.27
 74
     0
 49
-1.27
 74
     0
 49
1.27
 74
     0
 49
-1.27
 74
     0
  0
LTYPE
  5
70
330
5
100
AcDbSymbolTableRecord
100
AcDbLinetypeTableRecord
  2
CENTER
 70
     0
  3
Center ____ _ ____ _ ____ _ ____ _ ____ _ ____
 72
    65
 73
     4
 40
10.16
 49
6.35
 74
     0
 49
-1.27
 74
     0
 49
1.27
 74
     0
 49
-1.27
 74
     0
  0
LTYPE
  5
71
330
5
100
AcDbSymbolTableRecord
100
AcDbLinetypeTableRecord
  2
CENTERX2
 70
     0
  3
Center (2x) ________  __  ________  __  _____
 72
    65
 73
     4
 40
20.32
 49
12.7
 74
     0
 49
-2.54
 74
     0
 49
2.54
 74
     0
 49
-2.54
 74
     0
  0
LTYPE
  5
72
330
5
100
AcDbSymbolTableRecord
100
AcDbLinetypeTableRecord
  2
DOT2
 70
     0
  3
Dot (.5x) ........................................
 72
    65
 73
     2
 40
0.635
 49
0.0
 74
     0
 49
-0.635
 74
     0
  0
ENDTAB
  0
TABLE
  2
LAYER
  5
2
330
0
100
AcDbSymbolTable
 70
     1
  0
LAYER
  5
10
330
2
100
AcDbSymbolTableRecord
100
AcDbLayerTableRecord
  2
0
 70
     0
 62
     7
  6
Continuous
370
    -3
390
F
  0
ENDTAB
  0
TABLE
  2
STYLE
  5
3
330
0
100
AcDbSymbolTable
 70
     2
  0
STYLE
  5
11
330
3
100
AcDbSymbolTableRecord
100
AcDbTextStyleTableRecord
  2
Standard
 70
     0
 40
0.0
 41
1.0
 50
0.0
 71
     0
 42
3.5
  3
txt
  4

  0
STYLE
  5
7B
330
3
100
AcDbSymbolTableRecord
100
AcDbTextStyleTableRecord
  2
SLDTEXTSTYLE0
 70
     0
 40
0.0
 41
0.75
 50
0.0
 71
     0
 42
3.5
  3
TXT
  4

  0
ENDTAB
  0
TABLE
  2
VIEW
  5
6
330
0
100
AcDbSymbolTable
 70
     0
  0
ENDTAB
  0
TABLE
  2
UCS
  5
7
330
0
100
AcDbSymbolTable
 70
     0
  0
ENDTAB
  0
TABLE
  2
APPID
  5
9
330
0
100
AcDbSymbolTable
 70
     1
  0
APPID
  5
12
330
9
100
AcDbSymbolTableRecord
100
AcDbRegAppTableRecord
  2
ACAD
 70
     0
  0
ENDTAB
  0
TABLE
  2
DIMSTYLE
  5
A
330
0
100
AcDbSymbolTable
 70
     2
100
AcDbDimStyleTable
  0
DIMSTYLE
105
27
330
A
100
AcDbSymbolTableRecord
100
AcDbDimStyleTableRecord
  2
ISO-25
 70
     0
 41
2.5
 42
0.625
 43
3.75
 44
1.25
 73
     0
 74
     0
 77
     1
 78
     8
140
2.5
141
2.5
143
0.0393700787
147
0.625
171
     3
172
     1
178
     0
271
     2
272
     2
274
     3
278
    44
283
     0
284
     8
340
11
  0
DIMSTYLE
105
7C
102
{ACAD_REACTORS
330
7A
102
}
330
A
100
AcDbSymbolTableRecord
100
AcDbDimStyleTableRecord
  2
SLDDIMSTYLE0
 70
     0
 41
3.302
 44
0.0
 45
0.000000001
 73
     0
 74
     0
 77
     1
 78
     4
 79
     1
140
3.5
147
0.875
172
     1
173
     1
178
     0
271
     2
272
     2
276
     2
284
    12
289
     0
340
7B
  0
ENDTAB
  0
TABLE
  2
BLOCK_RECORD
  5
1
330
0
100
AcDbSymbolTable
 70
     2
  0
BLOCK_RECORD
  5
1F
330
1
100
AcDbSymbolTableRecord
100
AcDbBlockTableRecord
  2
*Model_Space
340
22
  0
BLOCK_RECORD
  5
1B
330
1
100
AcDbSymbolTableRecord
100
AcDbBlockTableRecord
  2
*Paper_Space
340
1E
  0
BLOCK_RECORD
  5
23
330
1
100
AcDbSymbolTableRecord
100
AcDbBlockTableRecord
  2
*Paper_Space0
340
26
  0
BLOCK_RECORD
  5
7D
330
1
100
AcDbSymbolTableRecord
100
AcDbBlockTableRecord
  2
_D
340
0
  0
ENDTAB
  0
ENDSEC
  0
SECTION
  2
BLOCKS
  0
BLOCK
  5
20
330
1F
100
AcDbEntity
  8
0
100
AcDbBlockBegin
  2
*Model_Space
 70
     0
 10
0.0
 20
0.0
 30
0.0
  3
*Model_Space
  1

  0
ENDBLK
  5
21
330
1F
100
AcDbEntity
  8
0
100
AcDbBlockEnd
  0
BLOCK
  5
1C
330
1B
100
AcDbEntity
 67
     1
  8
0
100
AcDbBlockBegin
  2
*Paper_Space
 70
     0
 10
0.0
 20
0.0
 30
0.0
  3
*Paper_Space
  1

  0
ENDBLK
  5
1D
330
1B
100
AcDbEntity
 67
     1
  8
0
100
AcDbBlockEnd
  0
BLOCK
  5
24
330
23
100
AcDbEntity
  8
0
100
AcDbBlockBegin
  2
*Paper_Space0
 70
     0
 10
0.0
 20
0.0
 30
0.0
  3
*Paper_Space0
  1

  0
ENDBLK
  5
25
330
23
100
AcDbEntity
  8
0
100
AcDbBlockEnd
  0
BLOCK
  5
7E
330
7D
100
AcDbEntity
  8
0
100
AcDbBlockBegin
  2
_D
 70
     0
 10
0.0
 20
0.0
 30
0.0
  3
_D
  1

  0
SOLID
  5
80
330
7D
100
AcDbEntity
  8
0
  6
Continuous
 62
     7
370
    18
100
AcDbTrace
 10
230.0633550489
 20
40.6928338762
 30
0.0
 11
230.5713550489
 21
43.9948338762
 31
0.0
 12
229.5553550489
 22
43.9948338762
 32
0.0
 13
229.5553550489
 23
43.9948338762
 33
0.0
  0
SOLID
  5
81
330
7D
100
AcDbEntity
  8
0
  6
Continuous
 62
     7
370
    18
100
AcDbTrace
 10
230.0633550489
 20
30.6928338762
 30
0.0
 11
229.5553550489
 21
27.3908338762
 31
0.0
 12
230.5713550489
 22
27.3908338762
 32
0.0
 13
230.5713550489
 23
27.3908338762
 33
0.0
  0
LINE
  5
82
330
7D
100
AcDbEntity
  8
0
  6
Continuous
 62
     7
370
    18
100
AcDbLine
 10
212.7482084691
 20
40.6928338762
 30
0.0
 11
231.0633550489
 21
40.6928338762
 31
0.0
  0
LINE
  5
83
330
7D
100
AcDbEntity
  8
0
  6
Continuous
 62
     7
370
    18
100
AcDbLine
 10
212.7482084691
 20
30.6928338762
 30
0.0
 11
231.0633550489
 21
30.6928338762
 31
0.0
  0
LINE
  5
84
330
7D
100
AcDbEntity
  8
0
  6
Continuous
 62
     7
370
    18
100
AcDbLine
 10
230.0633550489
 20
40.6928338762
 30
0.0
 11
230.0633550489
 21
47.0428338762
 31
0.0
  0
LINE
  5
85
330
7D
100
AcDbEntity
  8
0
  6
Continuous
 62
     7
370
    18
100
AcDbLine
 10
230.0633550489
 20
40.6928338762
 30
0.0
 11
230.0633550489
 21
30.6928338762
 31
0.0
  0
LINE
  5
86
330
7D
100
AcDbEntity
  8
0
  6
Continuous
 62
     7
370
    18
100
AcDbLine
 10
230.0633550489
 20
30.6928338762
 30
0.0
 11
230.0633550489
 21
24.3428338762
 31
0.0
  0
MTEXT
  5
87
330
7D
100
AcDbEntity
  8
0
  6
Continuous
 62
     7
370
    18
100
AcDbMText
 10
225.5516181343
 20
30.4838397301
 30
0.0
 40
3.5
 41
0.0
 71
     1
 72
     1
  1
10.00
  7
SLDTEXTSTYLE0
 11
-7.044195017643634E-15
 21
1.0
 31
0.0
 73
     1
 44
1.0
  0
ENDBLK
  5
7F
330
7D
100
AcDbEntity
  8
0
100
AcDbBlockEnd
  0
ENDSEC
  0
SECTION
  2
ENTITIES
  0
LINE
  5
73
330
1F
100
AcDbEntity
  8
0
  6
Continuous
 62
     7
370
    18
100
AcDbLine
 10
206.7482084691
 20
30.6928338762
 30
0.0
 11
216.7482084691
 21
30.6928338762
 31
0.0
  0
LINE
  5
74
330
1F
100
AcDbEntity
  8
0
  6
Continuous
 62
     7
370
    18
100
AcDbLine
 10
206.7482084691
 20
30.6928338762
 30
0.0
 11
206.7482084691
 21
40.6928338762
 31
0.0
  0
LINE
  5
75
330
1F
100
AcDbEntity
  8
0
  6
Continuous
 62
     7
370
    18
100
AcDbLine
 10
206.7482084691
 20
40.6928338762
 30
0.0
 11
216.7482084691
 21
40.6928338762
 31
0.0
  0
LINE
  5
76
330
1F
100
AcDbEntity
  8
0
  6
Continuous
 62
     7
370
    18
100
AcDbLine
 10
216.7482084691
 20
30.6928338762
 30
0.0
 11
216.7482084691
 21
40.6928338762
 31
0.0
  0
LINE
  5
77
330
1F
100
AcDbEntity
  8
0
  6
CENTERX2
 62
     7
370
    18
100
AcDbLine
 10
211.7482084691
 20
40.6928338762
 30
0.0
 11
211.7482084691
 21
30.6928338762
 31
0.0
  0
LINE
  5
78
330
1F
100
AcDbEntity
  8
0
  6
CENTERX2
 62
     7
370
    18
100
AcDbLine
 10
206.7482084691
 20
35.6928338762
 30
0.0
 11
216.7482084691
 21
35.6928338762
 31
0.0
  0
POINT
  5
79
330
1F
100
AcDbEntity
  8
0
  6
Continuous
 62
     7
370
     0
100
AcDbPoint
 10
211.7482084691
 20
35.6928338762
 30
0.0
  0
DIMENSION
  5
7A
330
1F
100
AcDbEntity
  8
0
  6
Continuous
 62
     7
370
    18
100
AcDbDimension
  2
_D
 10
230.0633550489
 20
30.6928338762
 30
0.0
 11
230.0633550489
 21
36.3025899738
 31
0.0
 70
   160
  1
<>
 71
     2
 42
-1.0
  3
SLDDIMSTYLE0
100
AcDbAlignedDimension
 13
211.7482084691
 23
40.6928338762
 33
0.0
 14
211.7482084691
 24
30.6928338762
 34
0.0
 50
90.0
100
AcDbRotatedDimension
  0
ARC
  5
88
330
1F
100
AcDbEntity
  8
0
  6
Continuous
 62
     7
370
    25
100
AcDbCircle
 10
61.5675831731
 20
26.8535740167
 30
0.0
 40
12.10019603811573
100
AcDbArc
 50
53.7094635377
 51
70.1454230818
  0
LINE
  5
89
330
1F
100
AcDbEntity
  8
0
  6
Continuous
 62
     7
370
    25
100
AcDbLine
 10
68.6687514158
 20
35.9203757933
 30
0.0
 11
68.7294475707
 21
36.6066473751
 31
0.0
  0
ARC
  5
8A
330
1F
100
AcDbEntity
  8
0
  6
Continuous
 62
     7
370
    25
100
AcDbCircle
 10
63.3298685277
 20
46.7790623829
 30
0.0
 40
12.10019603811573
100
AcDbArc
 50
279.7459699378
 51
296.1819294819
  0
LINE
  5
8B
330
1F
100
AcDbEntity
  8
0
  6
Continuous
 62
     7
370
    25
100
AcDbLine
 10
65.3003234389
 20
34.4020634173
 30
0.0
 11
65.3781913193
 21
34.8534968896
 31
0.0
  0
LINE
  5
8C
330
1F
100
AcDbEntity
  8
0
  6
Continuous
 62
     7
370
    25
100
AcDbLine
 10
65.2242995771
 20
33.9503151579
 30
0.0
 11
65.3003234389
 21
34.4020634173
 31
0.0
  0
ARC
  5
8D
330
1F
100
AcDbEntity
  8
0
  6
Continuous
 62
     7
370
    25
100
AcDbCircle
 10
59.3422508518
 20
23.3759954265
 30
0.0
 40
12.10019603811574
100
AcDbArc
 50
44.4786943069
 51
60.914653851
  0
LINE
  5
8E
330
1F
100
AcDbEntity
  8
0
  6
Continuous
 62
     7
370
    25
100
AcDbLine
 10
67.8058773252
 20
31.186276882
 30
0.0
 11
67.9758734973
 21
31.8539252719
 31
0.0
  0
ARC
  5
8F
330
1F
100
AcDbEntity
  8
0
  6
Continuous
 62
     7
370
    25
100
AcDbCircle
 10
64.2779881844
 20
42.7607635005
 30
0.0
 40
12.10019603811574
100
AcDbArc
 50
270.515200707
 51
286.9511602511
  0
LINE
  5
90
330
1F
100
AcDbEntity
  8
0
  6
Continuous
 62
     7
370
    25
100
AcDbLine
 10
64.2375167432
 20
30.2279603882
 30
0.0
 11
64.3867909881
 21
30.6610570504
 31
0.0
  0
LINE
  5
91
330
1F
100
AcDbEntity
  8
0
  6
Continuous
 62
     7
370
    25
100
AcDbLine
 10
64.0900120111
 20
29.7942574351
 30
0.0
 11
64.2375167432
 21
30.2279603882
 31
0.0
  0
ARC
  5
92
330
1F
100
AcDbEntity
  8
0
  6
Continuous
 62
     7
370
    25
100
AcDbCircle
 10
56.5878931637
 20
20.3004189737
 30
0.0
 40
12.10019603811573
100
AcDbArc
 50
35.2479250762
 51
51.6838846203
  0
LINE
  5
93
330
1F
100
AcDbEntity
  8
0
  6
Continuous
 62
     7
370
    25
100
AcDbLine
 10
66.1947768154
 20
26.6518977685
 30
0.0
 11
66.4696697118
 21
27.2836306347
 31
0.0
  0
ARC
  5
94
330
1F
100
AcDbEntity
  8
0
  6
Continuous
 62
     7
370
    25
100
AcDbCircle
 10
64.56924947
 20
38.6424114448
 30
0.0
 40
12.10019603811573
100
AcDbArc
 50
261.2844314762
 51
277.7203910203
  0
LINE
  5
95
330
1F
100
AcDbEntity
  8
0
  6
Continuous
 62
     7
370
    25
100
AcDbLine
 10
62.5188987674
 20
26.2783964379
 30
0.0
 11
62.7357143881
 21
26.6819394408
 31
0.0
  0
LINE
  5
96
330
1F
100
AcDbEntity
  8
0
  6
Continuous
 62
     7
370
    25
100
AcDbLine
 10
62.3037334504
 20
25.8739714725
 30
0.0
 11
62.5188987674
 21
26.2783964379
 31
0.0
  0
ARC
  5
97
330
1F
100
AcDbEntity
  8
0
  6
Continuous
 62
     7
370
    25
100
AcDbCircle
 10
53.375846526
 20
17.7065004729
 30
0.0
 40
12.10019603811574
100
AcDbArc
 50
26.0171558454
 51
42.4531153895
  0
LINE
  5
98
330
1F
100
AcDbEntity
  8
0
  6
Continuous
 62
     7
370
    25
100
AcDbLine
 10
63.8771712752
 20
22.4346782296
 30
0.0
 11
64.2498418661
 21
23.014134097
 31
0.0
  0
ARC
  5
99
330
1F
100
AcDbEntity
  8
0
  6
Continuous
 62
     7
370
    25
100
AcDbCircle
 10
64.1961088702
 20
34.5306693707
 30
0.0
 40
12.10019603811573
100
AcDbArc
 50
252.0536622455
 51
268.4896217896
  0
LINE
  5
9A
330
1F
100
AcDbEntity
  8
0
  6
Continuous
 62
     7
370
    25
100
AcDbLine
 10
60.1889811429
 20
22.6556643127
 30
0.0
 11
60.4677222641
 21
23.0192023544
 31
0.0
  0
LINE
  5
9B
330
1F
100
AcDbEntity
  8
0
  6
Continuous
 62
     7
370
    25
100
AcDbLine
 10
59.911728275
 20
22.2909919201
 30
0.0
 11
60.1889811429
 21
22.6556643127
 31
0.0
  0
ARC
  5
9C
330
1F
100
AcDbEntity
  8
0
  6
Continuous
 62
     7
370
    25
100
AcDbCircle
 10
49.7893012596
 20
15.6614210507
 30
0.0
 40
12.10019603811573
100
AcDbArc
 50
16.7863866146
 51
33.2223461587
  0
LINE
  5
9D
330
1F
100
AcDbEntity
  8
0
  6
Continuous
 62
     7
370
    25
100
AcDbLine
 10
60.9130900326
 20
18.643837723
 30
0.0
 11
61.3738860907
 21
19.1560092597
 31
0.0
  0
ARC
  5
9E
330
1F
100
AcDbEntity
  8
0
  6
Continuous
 62
     7
370
    25
100
AcDbCircle
 10
63.1682305305
 20
30.5320292381
 30
0.0
 40
12.10019603811574
100
AcDbArc
 50
242.8228930147
 51
259.2588525588
  0
LINE
  5
9F
330
1F
100
AcDbEntity
  8
0
  6
Continuous
 62
     7
370
    25
100
AcDbLine
 10
57.3081098469
 20
19.4535910367
 30
0.0
 11
57.6415568562
 21
19.7677075146
 31
0.0
  0
LINE
  5
A0
330
1F
100
AcDbEntity
  8
0
  6
Continuous
 62
     7
370
    25
100
AcDbLine
 10
56.9759499254
 20
19.1381148277
 30
0.0
 11
57.3081098469
 21
19.4535910367
 31
0.0
  0
ARC
  5
A1
330
1F
100
AcDbEntity
  8
0
  6
Continuous
 62
     7
370
    25
100
AcDbCircle
 10
45.9211470029
 20
14.21814719
 30
0.0
 40
12.10019603811574
100
AcDbArc
 50
7.5556173839
 51
23.991576928
  0
LINE
  5
A2
330
1F
100
AcDbEntity
  8
0
  6
Continuous
 62
     7
370
    25
100
AcDbLine
 10
57.3792982819
 20
15.3775609313
 30
0.0
 11
57.9162858399
 21
15.8091842412
 31
0.0
  0
ARC
  5
A3
330
1F
100
AcDbEntity
  8
0
  6
Continuous
 62
     7
370
    25
100
AcDbCircle
 10
61.51223596
 20
26.7500537261
 30
0.0
 40
12.10019603811574
100
AcDbArc
 50
233.5921237839
 51
250.028083328
  0
LINE
  5
A4
330
1F
100
AcDbEntity
  8
0
  6
Continuous
 62
     7
370
    25
100
AcDbLine
 10
53.9508959251
 20
16.7551080911
 30
0.0
 11
54.3304126682
 21
17.011668834
 31
0.0
  0
LINE
  5
A5
330
1F
100
AcDbEntity
  8
0
  6
Continuous
 62
     7
370
    25
100
AcDbLine
 10
53.5724306451
 20
16.4969994901
 30
0.0
 11
53.9508959251
 21
16.7551080911
 31
0.0
  0
ARC
  5
A6
330
1F
100
AcDbEntity
  8
0
  6
Continuous
 62
     7
370
    25
100
AcDbCircle
 10
41.8715669192
 20
13.4140589256
 30
0.0
 40
12.10019603811573
100
AcDbArc
 50
358.3248481531
 51
14.7608076972
  0
LINE
  5
A7
330
1F
100
AcDbEntity
  8
0
  6
Continuous
 62
     7
370
    25
100
AcDbLine
 10
53.3673217492
 20
12.7204417466
 30
0.0
 11
53.9665915044
 21
13.0603372334
 31
0.0
  0
ARC
  5
A8
330
1F
100
AcDbEntity
  8
0
  6
Continuous
 62
     7
370
    25
100
AcDbCircle
 10
59.2710145481
 20
23.2826940138
 30
0.0
 40
12.10019603811573
100
AcDbArc
 50
224.3613545532
 51
240.7973140973
  0
LINE
  5
A9
330
1F
100
AcDbEntity
  8
0
  6
Continuous
 62
     7
370
    25
100
AcDbLine
 10
50.2042895155
 20
14.6301037847
 30
0.0
 11
50.620046814
 21
14.8224628745
 31
0.0
  0
LINE
  5
AA
330
1F
100
AcDbEntity
  8
0
  6
Continuous
 62
     7
370
    25
100
AcDbLine
 10
49.7893229099
 20
14.4360478251
 30
0.0
 11
50.2042895155
 21
14.6301037847
 31
0.0
  0
ARC
  5
AB
330
1F
100
AcDbEntity
  8
0
  6
Continuous
 62
     7
370
    25
100
AcDbCircle
 10
37.7454430056
 20
13.2699817212
 30
0.0
 40
12.10019603811574
100
AcDbArc
 50
349.0940789223
 51
5.5300384664
  0
LINE
  5
AC
330
1F
100
AcDbEntity
  8
0
  6
Continuous
 62
     7
370
    25
100
AcDbLine
 10
48.981067163
 20
10.7412993191
 30
0.0
 11
49.6270995559
 21
10.9806622593
 31
0.0
  0
ARC
  5
AD
330
1F
100
AcDbEntity
  8
0
  6
Continuous
 62
     7
370
    25
100
AcDbCircle
 10
56.5026127523
 20
20.2197528965
 30
0.0
 40
12.10019603811573
100
AcDbArc
 50
215.1305853224
 51
231.5665448665
  0
LINE
  5
AE
330
1F
100
AcDbEntity
  8
0
  6
Continuous
 62
     7
370
    25
100
AcDbLine
 10
46.16532698
 20
13.1336174189
 30
0.0
 11
46.6065564165
 21
13.2567922799
 31
0.0
  0
LINE
  5
AF
330
1F
100
AcDbEntity
  8
0
  6
Continuous
 62
     7
370
    25
100
AcDbLine
 10
45.7246041829
 20
13.0086395173
 30
0.0
 11
46.16532698
 21
13.1336174189
 31
0.0
  0
ARC
  5
B0
330
1F
100
AcDbEntity
  8
0
  6
Continuous
 62
     7
370
    25
100
AcDbCircle
 10
33.6496397041
 20
13.7896471007
 30
0.0
 40
12.10019603811573
100
AcDbArc
 50
339.8633096916
 51
356.2992692357
  0
LINE
  5
B1
330
1F
100
AcDbEntity
  8
0
  6
Continuous
 62
     7
370
    25
100
AcDbLine
 10
44.3341363194
 20
9.4913880555
 30
0.0
 11
45.0101992088
 21
9.6240214287
 31
0.0
  0
ARC
  5
B2
330
1F
100
AcDbEntity
  8
0
  6
Continuous
 62
     7
370
    25
100
AcDbCircle
 10
53.2787307249
 20
17.6405589402
 30
0.0
 40
12.10019603811574
100
AcDbArc
 50
205.8998160916
 51
222.3357756357
  0
LINE
  5
B3
330
1F
100
AcDbEntity
  8
0
  6
Continuous
 62
     7
370
    25
100
AcDbLine
 10
41.9386137715
 20
12.3044050513
 30
0.0
 11
42.393888251
 21
12.3552068351
 31
0.0
  0
LINE
  5
B4
330
1F
100
AcDbEntity
  8
0
  6
Continuous
 62
     7
370
    25
100
AcDbLine
 10
41.4835507022
 20
12.251742485
 30
0.0
 11
41.9386137715
 21
12.3044050513
 31
0.0
  0
ARC
  5
B5
330
1F
100
AcDbEntity
  8
0
  6
Continuous
 62
     7
370
    25
100
AcDbCircle
 10
29.6902361688
 20
14.9595960037
 30
0.0
 40
12.10019603811573
100
AcDbArc
 50
330.6325404608
 51
347.0685000049
  0
LINE
  5
B6
330
1F
100
AcDbEntity
  8
0
  6
Continuous
 62
     7
370
    25
100
AcDbLine
 10
39.5468820557
 20
9.0030863164
 30
0.0
 11
40.2354659951
 21
9.0255516796
 31
0.0
  0
ARC
  5
B7
330
1F
100
AcDbEntity
  8
0
  6
Continuous
 62
     7
370
    25
100
AcDbCircle
 10
49.6828653168
 20
15.6119119136
 30
0.0
 40
12.10019603811574
100
AcDbArc
 50
196.6690468608
 51
213.1050064049
  0
LINE
  5
B8
330
1F
100
AcDbEntity
  8
0
  6
Continuous
 62
     7
370
    25
100
AcDbLine
 10
37.6336205723
 20
12.163941118
 30
0.0
 11
38.0911486196
 21
12.141054797
 31
0.0
  0
LINE
  5
B9
330
1F
100
AcDbEntity
  8
0
  6
Continuous
 62
     7
370
    25
100
AcDbLine
 10
37.1760027688
 20
12.1849592058
 30
0.0
 11
37.6336205723
 21
12.163941118
 31
0.0
  0
ARC
  5
BA
330
1F
100
AcDbEntity
  8
0
  6
Continuous
 62
     7
370
    25
100
AcDbCircle
 10
25.9697788714
 20
16.7495273683
 30
0.0
 40
12.10019603811574
100
AcDbArc
 50
321.40177123
 51
337.8377307741
  0
LINE
  5
BB
330
1F
100
AcDbEntity
  8
0
  6
Continuous
 62
     7
370
    25
100
AcDbLine
 10
34.7432921613
 20
9.2890340118
 30
0.0
 11
35.4265632546
 21
9.200753945
 31
0.0
  0
ARC
  5
BC
330
1F
100
AcDbEntity
  8
0
  6
Continuous
 62
     7
370
    25
100
AcDbCircle
 10
45.8081475535
 20
14.1863527091
 30
0.0
 40
12.10019603811574
100
AcDbArc
 50
187.4382776301
 51
203.8742371742
  0
LINE
  5
BD
330
1F
100
AcDbEntity
  8
0
  6
Continuous
 62
     7
370
    25
100
AcDbLine
 10
33.3618441569
 20
12.7158670901
 30
0.0
 11
33.8097758563
 21
12.6198849855
 31
0.0
  0
LINE
  5
BE
330
1F
100
AcDbEntity
  8
0
  6
Continuous
 62
     7
370
    25
100
AcDbLine
 10
32.9135236303
 20
12.8100200771
 30
0.0
 11
33.3618441569
 21
12.7158670901
 31
0.0
  0
ARC
  5
BF
330
1F
100
AcDbEntity
  8
0
  6
Continuous
 62
     7
370
    25
100
AcDbCircle
 10
22.5846257018
 20
19.1130829122
 30
0.0
 40
12.10019603811573
100
AcDbArc
 50
312.1710019992
 51
328.6069615434
  0
LINE
  5
C0
330
1F
100
AcDbEntity
  8
0
  6
Continuous
 62
     7
370
    25
100
AcDbLine
 10
30.0477774786
 20
10.3418308525
 30
0.0
 11
30.7080386179
 21
10.1450889586
 31
0.0
  0
ARC
  5
C1
330
1F
100
AcDbEntity
  8
0
  6
Continuous
 62
     7
370
    25
100
AcDbCircle
 10
41.7549305896
 20
13.4008025613
 30
0.0
 40
12.10019603811573
100
AcDbArc
 50
178.2075083993
 51
194.6434679434
  0
LINE
  5
C2
330
1F
100
AcDbEntity
  8
0
  6
Continuous
 62
     7
370
    25
100
AcDbLine
 10
29.2339207577
 20
13.9458871661
 30
0.0
 11
29.6606555553
 21
13.7792940466
 31
0.0
  0
LINE
  5
C3
330
1F
100
AcDbEntity
  8
0
  6
Continuous
 62
     7
370
    25
100
AcDbLine
 10
28.8065088885
 20
14.1107349871
 30
0.0
 11
29.2339207577
 21
13.9458871661
 31
0.0
  0
ARC
  5
C4
330
1F
100
AcDbEntity
  8
0
  6
Continuous
 62
     7
370
    25
100
AcDbCircle
 10
19.6224503488
 20
21.9890477885
 30
0.0
 40
12.10019603811573
100
AcDbArc
 50
302.9402327685
 51
319.3761923126
  0
LINE
  5
C5
330
1F
100
AcDbEntity
  8
0
  6
Continuous
 62
     7
370
    25
100
AcDbLine
 10
25.5819478976
 20
12.1342077135
 30
0.0
 11
26.2020997675
 21
11.8341001897
 31
0.0
  0
ARC
  5
C6
330
1F
100
AcDbEntity
  8
0
  6
Continuous
 62
     7
370
    25
100
AcDbCircle
 10
37.6281906155
 20
13.2756068063
 30
0.0
 40
12.10019603811574
100
AcDbArc
 50
168.9767391685
 51
185.4126987126
  0
LINE
  5
C7
330
1F
100
AcDbEntity
  8
0
  6
Continuous
 62
     7
370
    25
100
AcDbLine
 10
25.3567624809
 20
15.8221445261
 30
0.0
 11
25.7512474405
 21
15.5892542778
 31
0.0
  0
LINE
  5
C8
330
1F
100
AcDbEntity
  8
0
  6
Continuous
 62
     7
370
    25
100
AcDbLine
 10
24.961329435
 20
16.0534198611
 30
0.0
 11
25.3567624809
 21
15.8221445261
 31
0.0
  0
ARC
  5
C9
330
1F
100
AcDbEntity
  8
0
  6
Continuous
 62
     7
370
    25
100
AcDbCircle
 10
17.1599715982
 20
25.3029360174
 30
0.0
 40
12.10019603811573
100
AcDbArc
 50
293.7094635377
 51
310.1454230818
  0
LINE
  5
CA
330
1F
100
AcDbEntity
  8
0
  6
Continuous
 62
     7
370
    25
100
AcDbLine
 10
21.4614685597
 20
14.6197437523
 30
0.0
 11
22.0254477086
 21
14.2240434168
 31
0.0
  0
ARC
  5
CB
330
1F
100
AcDbEntity
  8
0
  6
Continuous
 62
     7
370
    25
100
AcDbCircle
 10
33.5348080287
 20
13.8140079485
 30
0.0
 40
12.10019603811574
100
AcDbArc
 50
159.7459699378
 51
176.1819294819
  0
LINE
  5
CC
330
1F
100
AcDbEntity
  8
0
  6
Continuous
 62
     7
370
    25
100
AcDbLine
 10
21.8307845267
 20
18.2960427581
 30
0.0
 11
22.1828039708
 21
18.0028903513
 31
0.0
  0
LINE
  5
CD
330
1F
100
AcDbEntity
  8
0
  6
Continuous
 62
     7
370
    25
100
AcDbLine
 10
21.477571127
 20
18.5877553402
 30
0.0
 11
21.8307845267
 21
18.2960427581
 31
0.0
  0
ARC
  5
CE
330
1F
100
AcDbEntity
  8
0
  6
Continuous
 62
     7
370
    25
100
AcDbCircle
 10
15.260966356
 20
28.9689196346
 30
0.0
 40
12.10019603811573
100
AcDbArc
 50
284.4786943069
 51
300.914653851
  0
LINE
  5
CF
330
1F
100
AcDbEntity
  8
0
  6
Continuous
 62
     7
370
    25
100
AcDbLine
 10
17.7930541309
 20
17.7340622275
 30
0.0
 11
18.2862564894
 21
17.2530173539
 31
0.0
  0
ARC
  5
D0
330
1F
100
AcDbEntity
  8
0
  6
Continuous
 62
     7
370
    25
100
AcDbCircle
 10
29.5807992883
 20
15.0020616811
 30
0.0
 40
12.10019603811574
100
AcDbArc
 50
150.515200707
 51
166.9511602511
  0
LINE
  5
D1
330
1F
100
AcDbEntity
  8
0
  6
Continuous
 62
     7
370
    25
100
AcDbLine
 10
18.7473095926
 20
21.3035143195
 30
0.0
 11
19.0477449419
 21
20.9576881705
 31
0.0
  0
LINE
  5
D2
330
1F
100
AcDbEntity
  8
0
  6
Continuous
 62
     7
370
    25
100
AcDbLine
 10
18.4454642209
 20
21.6481073974
 30
0.0
 11
18.7473095926
 21
21.3035143195
 31
0.0
  0
ARC
  5
D3
330
1F
100
AcDbEntity
  8
0
  6
Continuous
 62
     7
370
    25
100
AcDbCircle
 10
13.9746178607
 20
32.89205159
 30
0.0
 40
12.10019603811573
100
AcDbArc
 50
275.2479250762
 51
291.6838846203
  0
LINE
  5
D4
330
1F
100
AcDbEntity
  8
0
  6
Continuous
 62
     7
370
    25
100
AcDbLine
 10
14.6717190715
 20
21.3965068786
 30
0.0
 11
15.0813687565
 21
20.8425767003
 31
0.0
  0
ARC
  5
D5
330
1F
100
AcDbEntity
  8
0
  6
Continuous
 62
     7
370
    25
100
AcDbCircle
 10
25.8685711435
 20
16.8089980365
 30
0.0
 40
12.10019603811574
100
AcDbArc
 50
141.2844314762
 51
157.7203910203
  0
LINE
  5
D6
330
1F
100
AcDbEntity
  8
0
  6
Continuous
 62
     7
370
    25
100
AcDbLine
 10
16.1861967268
 20
24.7666615276
 30
0.0
 11
16.4272658499
 21
24.3771228223
 31
0.0
  0
LINE
  5
D7
330
1F
100
AcDbEntity
  8
0
  6
Continuous
 62
     7
370
    25
100
AcDbLine
 10
15.943535042
 20
25.155213031
 30
0.0
 11
16.1861967268
 21
24.7666615276
 31
0.0
  0
ARC
  5
D8
330
1F
100
AcDbEntity
  8
0
  6
Continuous
 62
     7
370
    25
100
AcDbCircle
 10
13.3342418624
 20
36.9707248267
 30
0.0
 40
12.10019603811573
100
AcDbArc
 50
266.0171558454
 51
282.4531153895
  0
LINE
  5
D9
330
1F
100
AcDbEntity
  8
0
  6
Continuous
 62
     7
370
    25
100
AcDbLine
 10
12.1783003183
 20
25.5122225015
 30
0.0
 11
12.4937895658
 21
24.8997521801
 31
0.0
  0
ARC
  5
DA
330
1F
100
AcDbEntity
  8
0
  6
Continuous
 62
     7
370
    25
100
AcDbCircle
 10
22.4942683534
 20
19.1880183122
 30
0.0
 40
12.10019603811574
100
AcDbArc
 50
132.0536622455
 51
148.4896217896
  0
LINE
  5
DB
330
1F
100
AcDbEntity
  8
0
  6
Continuous
 62
     7
370
    25
100
AcDbLine
 10
14.2137765857
 20
28.5957942931
 30
0.0
 11
14.3892377587
 21
28.1726292549
 31
0.0
  0
LINE
  5
DC
330
1F
100
AcDbEntity
  8
0
  6
Continuous
 62
     7
370
    25
100
AcDbLine
 10
14.0365868779
 20
29.018239419
 30
0.0
 11
14.2137765857
 21
28.5957942931
 31
0.0
  0
ARC
  5
DD
330
1F
100
AcDbEntity
  8
0
  6
Continuous
 62
     7
370
    25
100
AcDbCircle
 10
13.3564237633
 20
41.0993038504
 30
0.0
 40
12.10019603811574
100
AcDbArc
 50
256.7863866146
 51
273.2223461587
  0
LINE
  5
DE
330
1F
100
AcDbEntity
  8
0
  6
Continuous
 62
     7
370
    25
100
AcDbLine
 10
10.3773776414
 20
29.9746117769
 30
0.0
 11
10.590535027
 21
29.3194654612
 31
0.0
  0
ARC
  5
DF
330
1F
100
AcDbEntity
  8
0
  6
Continuous
 62
     7
370
    25
100
AcDbCircle
 10
19.5452835879
 20
22.0775071327
 30
0.0
 40
12.10019603811573
100
AcDbArc
 50
122.8228930147
 51
139.2588525588
  0
LINE
  5
E0
330
1F
100
AcDbEntity
  8
0
  6
Continuous
 62
     7
370
    25
100
AcDbLine
 10
12.8811359378
 20
32.6917393348
 30
0.0
 11
12.9864443066
 21
32.2459077677
 31
0.0
  0
LINE
  5
E1
330
1F
100
AcDbEntity
  8
0
  6
Continuous
 62
     7
370
    25
100
AcDbLine
 10
12.774005902
 20
33.1371369055
 30
0.0
 11
12.8811359378
 21
32.6917393348
 31
0.0
  0
ARC
  5
E2
330
1F
100
AcDbEntity
  8
0
  6
Continuous
 62
     7
370
    25
100
AcDbCircle
 10
14.0405890637
 20
45.1708606329
 30
0.0
 40
12.10019603811573
100
AcDbArc
 50
247.5556173839
 51
263.991576928
  0
LINE
  5
E3
330
1F
100
AcDbEntity
  8
0
  6
Continuous
 62
     7
370
    25
100
AcDbLine
 10
9.3155954005
 20
34.6681026957
 30
0.0
 11
9.4208981814
 21
33.987247686
 31
0.0
  0
ARC
  5
E4
330
1F
100
AcDbEntity
  8
0
  6
Continuous
 62
     7
370
    25
100
AcDbCircle
 10
17.0979940032
 20
25.4026282553
 30
0.0
 40
12.10019603811574
100
AcDbArc
 50
113.5921237839
 51
130.028083328
  0
LINE
  5
E5
330
1F
100
AcDbEntity
  8
0
  6
Continuous
 62
     7
370
    25
100
AcDbLine
 10
12.2227877351
 20
36.9484135397
 30
0.0
 11
12.2552163871
 21
36.491462796
 31
0.0
  0
LINE
  5
E6
330
1F
100
AcDbEntity
  8
0
  6
Continuous
 62
     7
370
    25
100
AcDbLine
 10
12.1884908499
 20
37.4052280775
 30
0.0
 11
12.2227877351
 21
36.9484135397
 31
0.0
  0
ARC
  5
E7
330
1F
100
AcDbEntity
  8
0
  6
Continuous
 62
     7
370
    25
100
AcDbCircle
 10
15.3690182416
 20
49.0799439922
 30
0.0
 40
12.10019603811573
100
AcDbArc
 50
238.3248481531
 51
254.7608076972
  0
LINE
  5
E8
330
1F
100
AcDbEntity
  8
0
  6
Continuous
 62
     7
370
    25
100
AcDbLine
 10
9.0204518261
 20
39.4711363577
 30
0.0
 11
9.0151730897
 21
38.7822062574
 31
0.0
  0
ARC
  5
E9
330
1F
100
AcDbEntity
  8
0
  6
Continuous
 62
     7
370
    25
100
AcDbCircle
 10
15.2157831143
 20
29.0772627896
 30
0.0
 40
12.10019603811574
100
AcDbArc
 50
104.3613545532
 51
120.7973140973
  0
LINE
  5
EA
330
1F
100
AcDbEntity
  8
0
  6
Continuous
 62
     7
370
    25
100
AcDbLine
 10
12.2557826313
 20
41.2555714818
 30
0.0
 11
12.2144933762
 21
40.7993358775
 31
0.0
  0
LINE
  5
EB
330
1F
100
AcDbEntity
  8
0
  6
Continuous
 62
     7
370
    25
100
AcDbLine
 10
12.2952092411
 20
41.7119716974
 30
0.0
 11
12.2557826313
 21
41.2555714818
 31
0.0
  0
ARC
  5
EC
330
1F
100
AcDbEntity
  8
0
  6
Continuous
 62
     7
370
    25
100
AcDbCircle
 10
17.3073056793
 20
52.7253107227
 30
0.0
 40
12.10019603811573
100
AcDbArc
 50
229.0940789223
 51
245.5300384664
  0
LINE
  5
ED
330
1F
100
AcDbEntity
  8
0
  6
Continuous
 62
     7
370
    25
100
AcDbLine
 10
9.499589351
 20
44.2593165888
 30
0.0
 11
9.3838687958
 21
43.5801542579
 31
0.0
  0
ARC
  5
EE
330
1F
100
AcDbEntity
  8
0
  6
Continuous
 62
     7
370
    25
100
AcDbCircle
 10
13.9473991943
 20
33.0062396313
 30
0.0
 40
12.10019603811574
100
AcDbArc
 50
95.1305853224
 51
111.5665448665
  0
LINE
  5
EF
330
1F
100
AcDbEntity
  8
0
  6
Continuous
 62
     7
370
    25
100
AcDbLine
 10
12.9792693975
 20
45.5016599251
 30
0.0
 11
12.8653276684
 21
45.0579559645
 31
0.0
  0
LINE
  5
F0
330
1F
100
AcDbEntity
  8
0
  6
Continuous
 62
     7
370
    25
100
AcDbLine
 10
13.0913969102
 20
45.9458253561
 30
0.0
 11
12.9792693975
 21
45.5016599251
 31
0.0
  0
ARC
  5
F1
330
1F
100
AcDbEntity
  8
0
  6
Continuous
 62
     7
370
    25
100
AcDbCircle
 10
19.8052507502
 20
56.012547741
 30
0.0
 40
12.10019603811574
100
AcDbArc
 50
219.8633096916
 51
236.2992692357
  0
LINE
  5
F2
330
1F
100
AcDbEntity
  8
0
  6
Continuous
 62
     7
370
    25
100
AcDbLine
 10
10.7406008961
 20
48.9086316182
 30
0.0
 11
10.5174336555
 21
48.2568278192
 31
0.0
  0
ARC
  5
F3
330
1F
100
AcDbEntity
  8
0
  6
Continuous
 62
     7
370
    25
100
AcDbCircle
 10
13.3256927206
 20
37.087800344
 30
0.0
 40
12.10019603811574
100
AcDbArc
 50
85.8998160916
 51
102.3357756357
  0
LINE
  5
F4
330
1F
100
AcDbEntity
  8
0
  6
Continuous
 62
     7
370
    25
100
AcDbLine
 10
14.3745060982
 20
49.5767074852
 30
0.0
 11
14.1908641877
 21
49.1570265247
 31
0.0
  0
LINE
  5
F5
330
1F
100
AcDbEntity
  8
0
  6
Continuous
 62
     7
370
    25
100
AcDbLine
 10
14.55643065
 20
49.997134435
 30
0.0
 11
14.3745060982
 21
49.5767074852
 31
0.0
  0
ARC
  5
F6
330
1F
100
AcDbEntity
  8
0
  6
Continuous
 62
     7
370
    25
100
AcDbCircle
 10
22.798157989
 20
58.8565173349
 30
0.0
 40
12.10019603811573
100
AcDbArc
 50
210.6325404608
 51
227.0685000049
  0
LINE
  5
F7
330
1F
100
AcDbEntity
  8
0
  6
Continuous
 62
     7
370
    25
100
AcDbLine
 10
12.7113446566
 20
53.2986664428
 30
0.0
 11
12.3865105184
 21
52.6911023288
 31
0.0
  0
ARC
  5
F8
330
1F
100
AcDbEntity
  8
0
  6
Continuous
 62
     7
370
    25
100
AcDbCircle
 10
13.3667655642
 20
41.2162346492
 30
0.0
 40
12.10019603811574
100
AcDbArc
 50
76.6690468608
 51
93.1050064049
  0
LINE
  5
F9
330
1F
100
AcDbEntity
  8
0
  6
Continuous
 62
     7
370
    25
100
AcDbLine
 10
16.4053574177
 20
53.3751717983
 30
0.0
 11
16.156774384
 21
52.9903847008
 31
0.0
  0
LINE
  5
FA
330
1F
100
AcDbEntity
  8
0
  6
Continuous
 62
     7
370
    25
100
AcDbLine
 10
16.6523683789
 20
53.7609721749
 30
0.0
 11
16.4053574177
 21
53.3751717983
 31
0.0
  0
ARC
  5
FB
330
1F
100
AcDbEntity
  8
0
  6
Continuous
 62
     7
370
    25
100
AcDbCircle
 10
26.2085126704
 20
61.1835621858
 30
0.0
 40
12.10019603811574
100
AcDbArc
 50
201.40177123
 51
217.8377307741
  0
LINE
  5
FC
330
1F
100
AcDbEntity
  8
0
  6
Continuous
 62
     7
370
    25
100
AcDbLine
 10
15.3607804301
 20
57.3157224088
 30
0.0
 11
14.9426910999
 21
56.7681326746
 31
0.0
  0
ARC
  5
FD
330
1F
100
AcDbEntity
  8
0
  6
Continuous
 62
     7
370
    25
100
AcDbCircle
 10
14.0695539602
 20
45.2846182671
 30
0.0
 40
12.10019603811575
100
AcDbArc
 50
67.4382776301
 51
83.8742371742
  0
LINE
  5
FE
330
1F
100
AcDbEntity
  8
0
  6
Continuous
 62
     7
370
    25
100
AcDbLine
 10
19.0192278447
 20
56.7986763297
 30
0.0
 11
18.7121391269
 21
56.4587473153
 31
0.0
  0
LINE
  5
FF
330
1F
100
AcDbEntity
  8
0
  6
Continuous
 62
     7
370
    25
100
AcDbLine
 10
19.3249270292
 20
57.1398570417
 30
0.0
 11
19.0192278447
 21
56.7986763297
 31
0.0
  0
LINE
  5
100
330
1F
100
AcDbEntity
  8
0
  6
Continuous
 62
     7
370
    25
100
AcDbLine
 10
18.6202865066
 20
60.8557596086
 30
0.0
 11
18.1197714033
 21
60.3823273657
 31
0.0
  0
ARC
  5
101
330
1F
100
AcDbEntity
  8
0
  6
Continuous
 62
     7
370
    25
100
AcDbCircle
 10
15.4158560582
 20
49.1875821988
 30
0.0
 40
12.10019603811573
100
AcDbArc
 50
58.2075083993
 51
74.6434679434
  0
LINE
  5
102
330
1F
100
AcDbEntity
  8
0
  6
Continuous
 62
     7
370
    25
100
AcDbLine
 10
22.1484176787
 20
59.7585517196
 30
0.0
 11
21.7907767715
 21
59.472285512
 31
0.0
  0
LINE
  5
103
330
1F
100
AcDbEntity
  8
0
  6
Continuous
 62
     7
370
    25
100
AcDbLine
 10
22.5048869821
 20
60.0462782411
 30
0.0
 11
22.1484176787
 21
59.7585517196
 31
0.0
  0
ARC
  5
104
330
1F
100
AcDbEntity
  8
0
  6
Continuous
 62
     7
370
    25
100
AcDbCircle
 10
33.9197347192
 20
64.0607497224
 30
0.0
 40
12.10019603811574
100
AcDbArc
 50
182.9402327685
 51
199.3761923126
  0
LINE
  5
105
330
1F
100
AcDbEntity
  8
0
  6
Continuous
 62
     7
370
    25
100
AcDbLine
 10
22.4054440828
 20
63.8270921289
 30
0.0
 11
21.8354672166
 21
63.4400791703
 31
0.0
  0
ARC
  5
106
330
1F
100
AcDbEntity
  8
0
  6
Continuous
 62
     7
370
    25
100
AcDbCircle
 10
17.370803341
 20
52.8240417286
 30
0.0
 40
12.10019603811574
100
AcDbArc
 50
48.9767391685
 51
65.4126987126
  0
LINE
  5
107
330
1F
100
AcDbEntity
  8
0
  6
Continuous
 62
     7
370
    25
100
AcDbLine
 10
25.7118832292
 20
62.178140807
 30
0.0
 11
25.312953067
 21
61.9529525964
 31
0.0
  0
LINE
  5
108
330
1F
100
AcDbEntity
  8
0
  6
Continuous
 62
     7
370
    25
100
AcDbLine
 10
26.1098904507
 20
62.4049588321
 30
0.0
 11
25.7118832292
 21
62.178140807
 31
0.0
  0
ARC
  5
109
330
1F
100
AcDbEntity
  8
0
  6
Continuous
 62
     7
370
    25
100
AcDbCircle
 10
38.0208854861
 20
64.5363747623
 30
0.0
 40
12.10019603811573
100
AcDbArc
 50
173.7094635377
 51
190.1454230818
  0
LINE
  5
10A
330
1F
100
AcDbEntity
  8
0
  6
Continuous
 62
     7
370
    25
100
AcDbLine
 10
26.6182202818
 20
66.1527666478
 30
0.0
 11
25.9935440468
 21
65.8621940045
 31
0.0
  0
ARC
  5
10B
330
1F
100
AcDbEntity
  8
0
  6
Continuous
 62
     7
370
    25
100
AcDbCircle
 10
19.883763701
 20
56.0998144651
 30
0.0
 40
12.10019603811573
100
AcDbArc
 50
39.7459699378
 51
56.1819294819
  0
LINE
  5
10C
330
1F
100
AcDbEntity
  8
0
  6
Continuous
 62
     7
370
    25
100
AcDbLine
 10
29.6173322918
 20
63.9947786211
 30
0.0
 11
29.1874449672
 21
63.8364966242
 31
0.0
  0
LINE
  5
10D
330
1F
100
AcDbEntity
  8
0
  6
Continuous
 62
     7
370
    25
100
AcDbLine
 10
30.0465686219
 20
64.154813367
 30
0.0
 11
29.6173322918
 21
63.9947786211
 31
0.0
  0
ARC
  5
10E
330
1F
100
AcDbEntity
  8
0
  6
Continuous
 62
     7
370
    25
100
AcDbCircle
 10
42.1452230495
 20
64.3479697353
 30
0.0
 40
12.10019603811573
100
AcDbArc
 50
164.4786943069
 51
180.914653851
  0
LINE
  5
10F
330
1F
100
AcDbEntity
  8
0
  6
Continuous
 62
     7
370
    25
100
AcDbLine
 10
31.1495069387
 20
67.7725452213
 30
0.0
 11
30.4863093393
 21
67.585941705
 31
0.0
  0
ARC
  5
110
330
1F
100
AcDbEntity
  8
0
  6
Continuous
 62
     7
370
    25
100
AcDbCircle
 10
22.8896527847
 20
58.9300596148
 30
0.0
 40
12.10019603811574
100
AcDbArc
 50
30.515200707
 51
46.9511602511
  0
LINE
  5
111
330
1F
100
AcDbEntity
  8
0
  6
Continuous
 62
     7
370
    25
100
AcDbLine
 10
33.7636153186
 20
65.16141102
 30
0.0
 11
33.313904793
 21
65.0741386442
 31
0.0
  0
LINE
  5
112
330
1F
100
AcDbEntity
  8
0
  6
Continuous
 62
     7
370
    25
100
AcDbLine
 10
34.2129649567
 20
65.250519964
 30
0.0
 11
33.7636153186
 21
65.16141102
 31
0.0
  0
ARC
  5
113
330
1F
100
AcDbEntity
  8
0
  6
Continuous
 62
     7
370
    25
100
AcDbCircle
 10
46.185929233
 20
63.5004142327
 30
0.0
 40
12.10019603811573
100
AcDbArc
 50
155.2479250762
 51
171.6838846203
  0
LINE
  5
114
330
1F
100
AcDbEntity
  8
0
  6
Continuous
 62
     7
370
    25
100
AcDbLine
 10
35.8819455346
 20
68.644479218
 30
0.0
 11
35.1974022547
 21
68.5666765301
 31
0.0
  0
ARC
  5
115
330
1F
100
AcDbEntity
  8
0
  6
Continuous
 62
     7
370
    25
100
AcDbCircle
 10
26.3106196438
 20
61.2414753151
 30
0.0
 40
12.10019603811574
100
AcDbArc
 50
21.2844314762
 51
37.7203910203
  0
LINE
  5
116
330
1F
100
AcDbEntity
  8
0
  6
Continuous
 62
     7
370
    25
100
AcDbLine
 10
38.0433461019
 20
65.6478258996
 30
0.0
 11
37.5854600193
 21
65.6338225334
 31
0.0
  0
LINE
  5
117
330
1F
100
AcDbEntity
  8
0
  6
Continuous
 62
     7
370
    25
100
AcDbLine
 10
38.5011710956
 20
65.6637012242
 30
0.0
 11
38.0433461019
 21
65.6478258996
 31
0.0
  0
ARC
  5
118
330
1F
100
AcDbEntity
  8
0
  6
Continuous
 62
     7
370
    25
100
AcDbCircle
 10
50.0383518689
 20
62.0156594968
 30
0.0
 40
12.10019603811574
100
AcDbArc
 50
146.0171558454
 51
162.4531153895
  0
LINE
  5
119
330
1F
100
AcDbEntity
  8
0
  6
Continuous
 62
     7
370
    25
100
AcDbLine
 10
40.6929679653
 20
68.745985928
 30
0.0
 11
40.0048091747
 21
68.7789994507
 31
0.0
  0
ARC
  5
11A
330
1F
100
AcDbEntity
  8
0
  6
Continuous
 62
     7
370
    25
100
AcDbCircle
 10
30.0580630337
 20
62.9741971135
 30
0.0
 40
12.10019603811574
100
AcDbArc
 50
12.0536622455
 51
28.4896217896
  0
LINE
  5
11B
330
1F
100
AcDbEntity
  8
0
  6
Continuous
 62
     7
370
    25
100
AcDbLine
 10
42.3456820632
 20
65.4414261906
 30
0.0
 11
41.8914793032
 21
65.5010531871
 31
0.0
  0
LINE
  5
11C
330
1F
100
AcDbEntity
  8
0
  6
Continuous
 62
     7
370
    25
100
AcDbLine
 10
42.8001248716
 20
65.3836543886
 30
0.0
 11
42.3456820632
 21
65.4414261906
 31
0.0
  0
ARC
  5
11D
330
1F
100
AcDbEntity
  8
0
  6
Continuous
 62
     7
370
    25
100
AcDbCircle
 10
53.6027152344
 20
59.9321598953
 30
0.0
 40
12.10019603811573
100
AcDbArc
 50
136.7863866146
 51
153.2223461587
  0
LINE
  5
11E
330
1F
100
AcDbEntity
  8
0
  6
Continuous
 62
     7
370
    25
100
AcDbLine
 10
45.4579716521
 20
68.0744352965
 30
0.0
 11
44.7840200709
 21
68.2174100755
 31
0.0
  0
ARC
  5
11F
330
1F
100
AcDbEntity
  8
0
  6
Continuous
 62
     7
370
    25
100
AcDbCircle
 10
34.034926139
 20
64.0833484256
 30
0.0
 40
12.10019603811574
100
AcDbArc
 50
2.8228930147
 51
19.2588525588
  0
LINE
  5
120
330
1F
100
AcDbEntity
  8
0
  6
Continuous
 62
     7
370
    25
100
AcDbLine
 10
46.5591949383
 20
64.5475539594
 30
0.0
 11
46.1204390945
 21
64.6792690484
 31
0.0
  0
LINE
  5
121
330
1F
100
AcDbEntity
  8
0
  6
Continuous
 62
     7
370
    25
100
AcDbLine
 10
46.9984853613
 20
64.4176325975
 30
0.0
 11
46.5591949383
 21
64.5475539594
 31
0.0
  0
ARC
  5
122
330
1F
100
AcDbEntity
  8
0
  6
Continuous
 62
     7
370
    25
100
AcDbCircle
 10
56.7867041908
 20
57.3038769736
 30
0.0
 40
12.10019603811574
100
AcDbArc
 50
127.5556173839
 51
143.991576928
  0
LINE
  5
123
330
1F
100
AcDbEntity
  8
0
  6
Continuous
 62
     7
370
    25
100
AcDbLine
 10
50.0535456436
 20
66.6472207038
 30
0.0
 11
49.411256236
 21
66.8964538007
 31
0.0
  0
ARC
  5
124
330
1F
100
AcDbEntity
  8
0
  6
Continuous
 62
     7
370
    25
100
AcDbCircle
 10
38.1382102941
 20
64.5402028151
 30
0.0
 40
12.10019603811574
100
AcDbArc
 50
353.5921237839
 51
10.028083328
  0
LINE
  5
125
330
1F
100
AcDbEntity
  8
0
  6
Continuous
 62
     7
370
    25
100
AcDbLine
 10
50.5747565972
 20
62.9893637477
 30
0.0
 11
50.162811202
 21
63.1897545634
 31
0.0
  0
LINE
  5
126
330
1F
100
AcDbEntity
  8
0
  6
Continuous
 62
     7
370
    25
100
AcDbLine
 10
50.9875178309
 20
62.7906567632
 30
0.0
 11
50.5747565972
 21
62.9893637477
 31
0.0
  0
ARC
  5
127
330
1F
100
AcDbEntity
  8
0
  6
Continuous
 62
     7
370
    25
100
AcDbCircle
 10
59.5078550966
 20
54.1988818787
 30
0.0
 40
12.10019603811574
100
AcDbArc
 50
118.3248481531
 51
134.7608076972
  0
LINE
  5
128
330
1F
100
AcDbEntity
  8
0
  6
Continuous
 62
     7
370
    25
100
AcDbLine
 10
54.360666682
 20
64.5013063429
 30
0.0
 11
53.7666747319
 21
64.8503418295
 31
0.0
  0
ARC
  5
129
330
1F
100
AcDbEntity
  8
0
  6
Continuous
 62
     7
370
    25
100
AcDbCircle
 10
42.261642595
 20
64.3329279931
 30
0.0
 40
12.10019603811574
100
AcDbArc
 50
344.3613545532
 51
0.7973140973
  0
LINE
  5
12A
330
1F
100
AcDbEntity
  8
0
  6
Continuous
 62
     7
370
    25
100
AcDbLine
 10
54.2883671792
 20
60.8072079001
 30
0.0
 11
53.9139009984
 21
61.0710851132
 31
0.0
  0
LINE
  5
12B
330
1F
100
AcDbEntity
  8
0
  6
Continuous
 62
     7
370
    25
100
AcDbLine
 10
54.6639081063
 20
60.5448636441
 30
0.0
 11
54.2883671792
 21
60.8072079001
 31
0.0
  0
ARC
  5
12C
330
1F
100
AcDbEntity
  8
0
  6
Continuous
 62
     7
370
    25
100
AcDbCircle
 10
61.6956915725
 20
50.6975923525
 30
0.0
 40
12.10019603811573
100
AcDbArc
 50
109.0940789223
 51
125.5300384664
  0
LINE
  5
12D
330
1F
100
AcDbEntity
  8
0
  6
Continuous
 62
     7
370
    25
100
AcDbLine
 10
58.2677837434
 20
61.6922698198
 30
0.0
 11
57.7374719056
 21
62.1320682792
 31
0.0
  0
ARC
  5
12E
330
1F
100
AcDbEntity
  8
0
  6
Continuous
 62
     7
370
    25
100
AcDbCircle
 10
46.2984283108
 20
63.4668922687
 30
0.0
 40
12.10019603811574
100
AcDbArc
 50
335.1305853224
 51
351.5665448665
  0
LINE
  5
12F
330
1F
100
AcDbEntity
  8
0
  6
Continuous
 62
     7
370
    25
100
AcDbLine
 10
57.6038438799
 20
58.0576083838
 30
0.0
 11
57.2765566381
 21
58.3781360863
 31
0.0
  0
LINE
  5
130
330
1F
100
AcDbEntity
  8
0
  6
Continuous
 62
     7
370
    25
100
AcDbLine
 10
57.9324405613
 20
57.738419923
 30
0.0
 11
57.6038438799
 21
58.0576083838
 31
0.0
  0
ARC
  5
131
330
1F
100
AcDbEntity
  8
0
  6
Continuous
 62
     7
370
    25
100
AcDbCircle
 10
63.2935498031
 20
46.8906899548
 30
0.0
 40
12.10019603811572
100
AcDbArc
 50
99.8633096916
 51
116.2992692357
  0
LINE
  5
132
330
1F
100
AcDbEntity
  8
0
  6
Continuous
 62
     7
370
    25
100
AcDbLine
 10
61.6737030419
 20
58.2928641914
 30
0.0
 11
61.2208083244
 21
58.8120355486
 31
0.0
  0
ARC
  5
133
330
1F
100
AcDbEntity
  8
0
  6
Continuous
 62
     7
370
    25
100
AcDbCircle
 10
50.1440168119
 20
61.9645255122
 30
0.0
 40
12.10019603811574
100
AcDbArc
 50
325.8998160916
 51
342.3357756357
  0
LINE
  5
134
330
1F
100
AcDbEntity
  8
0
  6
Continuous
 62
     7
370
    25
100
AcDbLine
 10
60.4353215518
 20
54.8117741226
 30
0.0
 11
60.1636882844
 21
55.1806523679
 31
0.0
  0
LINE
  5
135
330
1F
100
AcDbEntity
  8
0
  6
Continuous
 62
     7
370
    25
100
AcDbLine
 10
60.7084598365
 20
54.4440088077
 30
0.0
 11
60.4353215518
 21
54.8117741226
 31
0.0
  0
ARC
  5
136
330
1F
100
AcDbEntity
  8
0
  6
Continuous
 62
     7
370
    25
100
AcDbCircle
 10
64.2600460996
 20
42.8767714579
 30
0.0
 40
12.10019603811573
100
AcDbArc
 50
90.6325404608
 51
107.0685000049
  0
LINE
  5
137
330
1F
100
AcDbEntity
  8
0
  6
Continuous
 62
     7
370
    25
100
AcDbLine
 10
64.4902124973
 20
54.3911320372
 30
0.0
 11
64.1264639767
 21
54.9762307881
 31
0.0
  0
ARC
  5
138
330
1F
100
AcDbEntity
  8
0
  6
Continuous
 62
     7
370
    25
100
AcDbCircle
 10
53.6988093763
 20
59.8647382336
 30
0.0
 40
12.10019603811574
100
AcDbArc
 50
316.6690468608
 51
333.1050064049
  0
LINE
  5
139
330
1F
100
AcDbEntity
  8
0
  6
Continuous
 62
     7
370
    25
100
AcDbLine
 10
62.7094622674
 20
51.1537709488
 30
0.0
 11
62.5005181851
 21
51.5614452987
 31
0.0
  0
LINE
  5
13A
330
1F
100
AcDbEntity
  8
0
  6
Continuous
 62
     7
370
    25
100
AcDbLine
 10
62.9200696918
 20
50.7469543471
 30
0.0
 11
62.7094622674
 21
51.1537709488
 31
0.0
  0
ARC
  5
13B
330
1F
100
AcDbEntity
  8
0
  6
Continuous
 62
     7
370
    25
100
AcDbCircle
 10
64.5701487155
 20
38.7597952424
 30
0.0
 40
12.10019603811574
100
AcDbArc
 50
81.40177123
 51
97.8377307741
  0
LINE
  5
13C
330
1F
100
AcDbEntity
  8
0
  6
Continuous
 62
     7
370
    25
100
AcDbLine
 10
66.6443672003
 20
50.0881274445
 30
0.0
 11
66.3791861357
 21
50.7239972456
 31
0.0
  0
ARC
  5
13D
330
1F
100
AcDbEntity
  8
0
  6
Continuous
 62
     7
370
    25
100
AcDbCircle
 10
56.8707387437
 20
57.2219138203
 30
0.0
 40
12.10019603811574
100
AcDbArc
 50
307.4382776301
 51
323.8742371742
  0
LINE
  5
13E
330
1F
100
AcDbEntity
  8
0
  6
Continuous
 62
     7
370
    25
100
AcDbLine
 10
64.3673673244
 20
47.1783413766
 30
0.0
 11
64.2265252741
 21
47.614253427
 31
0.0
  0
LINE
  5
13F
330
1F
100
AcDbEntity
  8
0
  6
Continuous
 62
     7
370
    25
100
AcDbLine
 10
64.5099900635
 20
46.743008609
 30
0.0
 11
64.3673673244
 21
47.1783413766
 31
0.0
  0
ARC
  5
140
330
1F
100
AcDbEntity
  8
0
  6
Continuous
 62
     7
370
    25
100
AcDbCircle
 10
64.215826156
 20
34.6463888298
 30
0.0
 40
12.10019603811573
100
AcDbArc
 50
72.1710019992
 51
88.6069615433
  0
LINE
  5
141
330
1F
100
AcDbEntity
  8
0
  6
Continuous
 62
     7
370
    25
100
AcDbLine
 10
68.0803772034
 20
45.495293404
 30
0.0
 11
67.9206293049
 21
46.1654675408
 31
0.0
  0
ARC
  5
142
330
1F
100
AcDbEntity
  8
0
  6
Continuous
 62
     7
370
    25
100
AcDbCircle
 10
59.5776536096
 20
54.1045000364
 30
0.0
 40
12.10019603811574
100
AcDbArc
 50
298.2075083993
 51
314.6434679434
  0
LINE
  5
143
330
1F
100
AcDbEntity
  8
0
  6
Continuous
 62
     7
370
    25
100
AcDbLine
 10
65.3661008897
 20
42.988445445
 30
0.0
 11
65.2970079305
 21
43.4413047722
 31
0.0
  0
LINE
  5
144
330
1F
100
AcDbEntity
  8
0
  6
Continuous
 62
     7
370
    25
100
AcDbLine
 10
65.6772203716
 20
38.2345063361
 30
0.0
 11
65.6797945472
 21
38.6925992014
 31
0.0
  0
CIRCLE
  5
145
330
1F
100
AcDbEntity
  8
0
  6
Continuous
 62
     7
370
    25
100
AcDbCircle
 10
38.9161467525
 20
38.8976282655
 30
0.0
 40
1.600000000000001
  0
ARC
  5
146
330
1F
100
AcDbEntity
  8
0
  6
Continuous
 62
     7
370
    25
100
AcDbCircle
 10
58.7213110659
 20
32.6592637405
 30
0.0
 40
3.000000000000004
100
AcDbArc
 50
240.0
 51
342.5162628336
  0
ARC
  5
147
330
1F
100
AcDbEntity
  8
0
  6
Continuous
 62
     7
370
    25
100
AcDbCircle
 10
38.9161467524
 20
38.8976282655
 30
0.0
 40
23.76443414663126
100
AcDbArc
 50
342.5162628336
 51
17.4837371664
  0
ARC
  5
148
330
1F
100
AcDbEntity
  8
0
  6
Continuous
 62
     7
370
    25
100
AcDbCircle
 10
58.7213110659
 20
45.1359927905
 30
0.0
 40
3.000000000000004
100
AcDbArc
 50
17.4837371664
 51
120.0
  0
LINE
  5
149
330
1F
100
AcDbEntity
  8
0
  6
Continuous
 62
     7
370
    25
100
AcDbLine
 10
57.221310583
 20
47.7340690075
 30
0.0
 11
44.6598929325
 21
40.4817307815
 31
0.0
  0
ARC
  5
14A
330
1F
100
AcDbEntity
  8
0
  6
Continuous
 62
     7
370
    25
100
AcDbCircle
 10
45.4098928413
 20
39.1826927028
 30
0.0
 40
1.499999999999994
100
AcDbArc
 50
120.0
 51
182.5135737496
  0
ARC
  5
14B
330
1F
100
AcDbEntity
  8
0
  6
Continuous
 62
     7
370
    25
100
AcDbCircle
 10
38.9161467524
 20
38.8976282655
 30
0.0
 40
5.000000000000414
100
AcDbArc
 50
357.4864262504
 51
2.5135737496
  0
ARC
  5
14C
330
1F
100
AcDbEntity
  8
0
  6
Continuous
 62
     7
370
    25
100
AcDbCircle
 10
45.4098928413
 20
38.6125638282
 30
0.0
 40
1.5
100
AcDbArc
 50
177.4864262504
 51
240.0
  0
LINE
  5
14D
330
1F
100
AcDbEntity
  8
0
  6
Continuous
 62
     7
370
    25
100
AcDbLine
 10
44.6598929325
 20
37.3135257494
 30
0.0
 11
57.221310583
 21
30.0611875235
 31
0.0
  0
ARC
  5
14E
330
1F
100
AcDbEntity
  8
0
  6
Continuous
 62
     7
370
    25
100
AcDbCircle
 10
43.4161467525
 20
18.6266705814
 30
0.0
 40
3.0
100
AcDbArc
 50
180.0
 51
282.5162628336
  0
ARC
  5
14F
330
1F
100
AcDbEntity
  8
0
  6
Continuous
 62
     7
370
    25
100
AcDbCircle
 10
38.9161467525
 20
38.8976282655
 30
0.0
 40
23.76443414663125
100
AcDbArc
 50
282.5162628336
 51
317.4837371664
  0
ARC
  5
150
330
1F
100
AcDbEntity
  8
0
  6
Continuous
 62
     7
370
    25
100
AcDbCircle
 10
54.2213110659
 20
24.8650351064
 30
0.0
 40
3.000000000000004
100
AcDbArc
 50
317.4837371664
 51
60.0
  0
LINE
  5
151
330
1F
100
AcDbEntity
  8
0
  6
Continuous
 62
     7
370
    25
100
AcDbLine
 10
55.7213112684
 20
27.463111396
 30
0.0
 11
43.1598926867
 21
34.7154497384
 31
0.0
  0
ARC
  5
152
330
1F
100
AcDbEntity
  8
0
  6
Continuous
 62
     7
370
    25
100
AcDbCircle
 10
42.4098928413
 20
33.4164114055
 30
0.0
 40
1.500000000000001
100
AcDbArc
 50
60.0
 51
122.5135737496
  0
ARC
  5
153
330
1F
100
AcDbEntity
  8
0
  6
Continuous
 62
     7
370
    25
100
AcDbCircle
 10
38.9161467525
 20
38.8976282655
 30
0.0
 40
5.000000000000423
100
AcDbArc
 50
297.4864262504
 51
302.5135737496
  0
ARC
  5
154
330
1F
100
AcDbEntity
  8
0
  6
Continuous
 62
     7
370
    25
100
AcDbCircle
 10
41.9161467525
 20
33.1313469681
 30
0.0
 40
1.500000000000007
100
AcDbArc
 50
117.4864262504
 51
180.0
  0
LINE
  5
155
330
1F
100
AcDbEntity
  8
0
  6
Continuous
 62
     7
370
    25
100
AcDbLine
 10
40.4161467655
 20
33.1313468731
 30
0.0
 11
40.4161467655
 21
18.6266697227
 31
0.0
  0
ARC
  5
156
330
1F
100
AcDbEntity
  8
0
  6
Continuous
 62
     7
370
    25
100
AcDbCircle
 10
54.2213110659
 20
52.9302214246
 30
0.0
 40
3.0
100
AcDbArc
 50
300.0
 51
42.5162628336
  0
ARC
  5
157
330
1F
100
AcDbEntity
  8
0
  6
Continuous
 62
     7
370
    25
100
AcDbCircle
 10
38.9161467525
 20
38.8976282655
 30
0.0
 40
23.76443414663123
100
AcDbArc
 50
42.5162628336
 51
77.4837371664
  0
ARC
  5
158
330
1F
100
AcDbEntity
  8
0
  6
Continuous
 62
     7
370
    25
100
AcDbCircle
 10
43.4161467525
 20
59.1685859496
 30
0.0
 40
3.0
100
AcDbArc
 50
77.4837371664
 51
180.0
  0
LINE
  5
159
330
1F
100
AcDbEntity
  8
0
  6
Continuous
 62
     7
370
    25
100
AcDbLine
 10
40.4161467655
 20
59.1685868083
 30
0.0
 11
40.4161467655
 21
44.6639096579
 31
0.0
  0
ARC
  5
15A
330
1F
100
AcDbEntity
  8
0
  6
Continuous
 62
     7
370
    25
100
AcDbCircle
 10
41.9161467525
 20
44.6639095628
 30
0.0
 40
1.500000000000002
100
AcDbArc
 50
180.0
 51
242.5135737496
  0
ARC
  5
15B
330
1F
100
AcDbEntity
  8
0
  6
Continuous
 62
     7
370
    25
100
AcDbCircle
 10
38.9161467525
 20
38.8976282655
 30
0.0
 40
5.000000000000417
100
AcDbArc
 50
57.4864262504
 51
62.5135737496
  0
ARC
  5
15C
330
1F
100
AcDbEntity
  8
0
  6
Continuous
 62
     7
370
    25
100
AcDbCircle
 10
42.4098928413
 20
44.3788451255
 30
0.0
 40
1.500000000000001
100
AcDbArc
 50
237.4864262504
 51
300.0
  0
LINE
  5
15D
330
1F
100
AcDbEntity
  8
0
  6
Continuous
 62
     7
370
    25
100
AcDbLine
 10
43.1598926867
 20
43.0798067926
 30
0.0
 11
55.7213112684
 21
50.332145135
 31
0.0
  0
ARC
  5
15E
330
1F
100
AcDbEntity
  8
0
  6
Continuous
 62
     7
370
    25
100
AcDbCircle
 10
34.4161467525
 20
59.1685859496
 30
0.0
 40
3.0
100
AcDbArc
 50
0.0
 51
102.5162628336
  0
ARC
  5
15F
330
1F
100
AcDbEntity
  8
0
  6
Continuous
 62
     7
370
    25
100
AcDbCircle
 10
38.9161467525
 20
38.8976282655
 30
0.0
 40
23.76443414663125
100
AcDbArc
 50
102.5162628336
 51
137.4837371664
  0
ARC
  5
160
330
1F
100
AcDbEntity
  8
0
  6
Continuous
 62
     7
370
    25
100
AcDbCircle
 10
23.610982439
 20
52.9302214246
 30
0.0
 40
3.000000000000005
100
AcDbArc
 50
137.4837371664
 51
240.0
  0
LINE
  5
161
330
1F
100
AcDbEntity
  8
0
  6
Continuous
 62
     7
370
    25
100
AcDbLine
 10
22.1109822365
 20
50.332145135
 30
0.0
 11
34.6724008182
 21
43.0798067926
 31
0.0
  0
ARC
  5
162
330
1F
100
AcDbEntity
  8
0
  6
Continuous
 62
     7
370
    25
100
AcDbCircle
 10
35.4224006636
 20
44.3788451255
 30
0.0
 40
1.499999999999997
100
AcDbArc
 50
240.0
 51
302.5135737496
  0
ARC
  5
163
330
1F
100
AcDbEntity
  8
0
  6
Continuous
 62
     7
370
    25
100
AcDbCircle
 10
38.9161467525
 20
38.8976282655
 30
0.0
 40
5.000000000000422
100
AcDbArc
 50
117.4864262504
 51
122.5135737496
  0
ARC
  5
164
330
1F
100
AcDbEntity
  8
0
  6
Continuous
 62
     7
370
    25
100
AcDbCircle
 10
35.9161467525
 20
44.6639095628
 30
0.0
 40
1.500000000000005
100
AcDbArc
 50
297.4864262504
 51
0.0
  0
LINE
  5
165
330
1F
100
AcDbEntity
  8
0
  6
Continuous
 62
     7
370
    25
100
AcDbLine
 10
37.4161467394
 20
44.6639096579
 30
0.0
 11
37.4161467394
 21
59.1685868083
 31
0.0
  0
ARC
  5
166
330
1F
100
AcDbEntity
  8
0
  6
Continuous
 62
     7
370
    25
100
AcDbCircle
 10
23.610982439
 20
24.8650351064
 30
0.0
 40
3.0
100
AcDbArc
 50
120.0
 51
222.5162628336
  0
ARC
  5
167
330
1F
100
AcDbEntity
  8
0
  6
Continuous
 62
     7
370
    25
100
AcDbCircle
 10
38.9161467525
 20
38.8976282655
 30
0.0
 40
23.76443414663125
100
AcDbArc
 50
222.5162628336
 51
257.4837371664
  0
ARC
  5
168
330
1F
100
AcDbEntity
  8
0
  6
Continuous
 62
     7
370
    25
100
AcDbCircle
 10
34.4161467525
 20
18.6266705814
 30
0.0
 40
3.0
100
AcDbArc
 50
257.4837371664
 51
0.0
  0
LINE
  5
169
330
1F
100
AcDbEntity
  8
0
  6
Continuous
 62
     7
370
    25
100
AcDbLine
 10
37.4161467394
 20
18.6266697227
 30
0.0
 11
37.4161467394
 21
33.1313468731
 31
0.0
  0
ARC
  5
16A
330
1F
100
AcDbEntity
  8
0
  6
Continuous
 62
     7
370
    25
100
AcDbCircle
 10
35.9161467525
 20
33.1313469681
 30
0.0
 40
1.500000000000002
100
AcDbArc
 50
0.0
 51
62.5135737496
  0
ARC
  5
16B
330
1F
100
AcDbEntity
  8
0
  6
Continuous
 62
     7
370
    25
100
AcDbCircle
 10
38.9161467525
 20
38.8976282655
 30
0.0
 40
5.00000000000042
100
AcDbArc
 50
237.4864262504
 51
242.5135737496
  0
ARC
  5
16C
330
1F
100
AcDbEntity
  8
0
  6
Continuous
 62
     7
370
    25
100
AcDbCircle
 10
35.4224006636
 20
33.4164114055
 30
0.0
 40
1.499999999999999
100
AcDbArc
 50
57.4864262504
 51
120.0
  0
LINE
  5
16D
330
1F
100
AcDbEntity
  8
0
  6
Continuous
 62
     7
370
    25
100
AcDbLine
 10
34.6724008182
 20
34.7154497384
 30
0.0
 11
22.1109822365
 21
27.463111396
 31
0.0
  0
ARC
  5
16E
330
1F
100
AcDbEntity
  8
0
  6
Continuous
 62
     7
370
    25
100
AcDbCircle
 10
19.110982439
 20
45.1359927905
 30
0.0
 40
3.000000000000004
100
AcDbArc
 50
60.0
 51
162.5162628336
  0
ARC
  5
16F
330
1F
100
AcDbEntity
  8
0
  6
Continuous
 62
     7
370
    25
100
AcDbCircle
 10
38.9161467525
 20
38.8976282655
 30
0.0
 40
23.76443414663125
100
AcDbArc
 50
162.5162628336
 51
197.4837371664
  0
ARC
  5
170
330
1F
100
AcDbEntity
  8
0
  6
Continuous
 62
     7
370
    25
100
AcDbCircle
 10
19.110982439
 20
32.6592637405
 30
0.0
 40
3.000000000000004
100
AcDbArc
 50
197.4837371664
 51
300.0
  0
LINE
  5
171
330
1F
100
AcDbEntity
  8
0
  6
Continuous
 62
     7
370
    25
100
AcDbLine
 10
20.6109829219
 20
30.0611875235
 30
0.0
 11
33.1724005724
 21
37.3135257494
 31
0.0
  0
ARC
  5
172
330
1F
100
AcDbEntity
  8
0
  6
Continuous
 62
     7
370
    25
100
AcDbCircle
 10
32.4224006636
 20
38.6125638282
 30
0.0
 40
1.5
100
AcDbArc
 50
300.0
 51
2.5135737496
  0
ARC
  5
173
330
1F
100
AcDbEntity
  8
0
  6
Continuous
 62
     7
370
    25
100
AcDbCircle
 10
38.9161467525
 20
38.8976282655
 30
0.0
 40
5.000000000000414
100
AcDbArc
 50
177.4864262504
 51
182.5135737496
  0
ARC
  5
174
330
1F
100
AcDbEntity
  8
0
  6
Continuous
 62
     7
370
    25
100
AcDbCircle
 10
32.4224006636
 20
39.1826927028
 30
0.0
 40
1.499999999999999
100
AcDbArc
 50
357.4864262504
 51
60.0
  0
LINE
  5
175
330
1F
100
AcDbEntity
  8
0
  6
Continuous
 62
     7
370
    25
100
AcDbLine
 10
33.1724005724
 20
40.4817307815
 30
0.0
 11
20.6109829219
 21
47.7340690075
 31
0.0
  0
ARC
  5
176
330
1F
100
AcDbEntity
  8
0
  6
Continuous
 62
     7
370
    25
100
AcDbCircle
 10
29.9479883995
 20
62.9334130544
 30
0.0
 40
12.10019603811573
100
AcDbArc
 50
192.1710019992
 51
208.6069615434
  0
LINE
  5
177
330
1F
100
AcDbEntity
  8
0
  6
Continuous
 62
     7
370
    25
100
AcDbLine
 10
65.6797945472
 20
38.6925992014
 30
0.0
 11
65.6842388185
 21
39.1506777476
 31
0.0
  0
ARC
  5
178
330
1F
100
AcDbEntity
  8
0
  6
Continuous
 62
     7
370
    25
100
AcDbCircle
 10
61.7494463009
 20
50.5932362615
 30
0.0
 40
12.10019603811574
100
AcDbArc
 50
288.9767391685
 51
305.4126987126
  0
LINE
  5
179
330
1F
100
AcDbEntity
  8
0
  6
Continuous
 62
     7
370
    25
100
AcDbLine
 10
68.7610473456
 20
40.7315839064
 30
0.0
 11
68.7108732732
 21
41.418704738
 31
0.0
  0
ARC
  5
17A
330
1F
100
AcDbEntity
  8
0
  6
Continuous
 62
     7
370
    25
100
AcDbCircle
 10
63.2062551893
 20
30.6430872855
 30
0.0
 40
12.10019603811573
100
AcDbArc
 50
62.9402327685
 51
79.3761923126
  0
LINE
  5
17B
330
1F
100
AcDbEntity
  8
0
  6
Continuous
 62
     7
370
    25
100
AcDbLine
 10
65.4370453181
 20
42.535871801
 30
0.0
 11
65.3661008897
 21
42.988445445
 31
0.0
  0
ARC
  5
17C
330
1F
100
AcDbEntity
  8
0
  6
Continuous
 62
     7
370
    25
100
AcDbCircle
 10
114.355273641
 20
27.882882307
 30
0.0
 40
8.848030048774547
100
AcDbArc
 50
51.4752926583
 51
71.0437401739
  0
LINE
  5
17D
330
1F
100
AcDbEntity
  8
0
  6
Continuous
 62
     7
370
    25
100
AcDbLine
 10
119.8009699523
 20
34.215035486
 30
0.0
 11
119.8662873297
 21
34.8050469634
 31
0.0
  0
ARC
  5
17E
330
1F
100
AcDbEntity
  8
0
  6
Continuous
 62
     7
370
    25
100
AcDbCircle
 10
115.9374935645
 20
42.1750094825
 30
0.0
 40
8.848030048774548
100
AcDbArc
 50
276.3217686786
 51
295.8902161942
  0
ARC
  5
17F
330
1F
100
AcDbEntity
  8
0
  6
Continuous
 62
     7
370
    25
100
AcDbCircle
 10
123.8523433164
 20
31.5099046448
 30
0.0
 40
7.188308498192383
100
AcDbArc
 50
164.914107026
 51
168.2283902866
  0
ARC
  5
180
330
1F
100
AcDbEntity
  8
0
  6
Continuous
 62
     7
370
    25
100
AcDbCircle
 10
123.8523340347
 20
31.5098601062
 30
0.0
 40
7.18830849819238
100
AcDbArc
 50
168.2280276568
 51
171.5423109174
  0
ARC
  5
181
330
1F
100
AcDbEntity
  8
0
  6
Continuous
 62
     7
370
    25
100
AcDbCircle
 10
112.3362051083
 20
24.8941150727
 30
0.0
 40
8.848030048774554
100
AcDbArc
 50
40.5662017492
 51
60.1346492648
  0
LINE
  5
182
330
1F
100
AcDbEntity
  8
0
  6
Continuous
 62
     7
370
    25
100
AcDbLine
 10
118.8818588792
 20
30.081233113
 30
0.0
 11
119.0576553284
 21
30.6482208994
 31
0.0
  0
ARC
  5
183
330
1F
100
AcDbEntity
  8
0
  6
Continuous
 62
     7
370
    25
100
AcDbCircle
 10
116.5946351091
 20
38.628527802
 30
0.0
 40
8.84803004877455
100
AcDbArc
 50
265.4126777695
 51
284.9811252852
  0
ARC
  5
184
330
1F
100
AcDbEntity
  8
0
  6
Continuous
 62
     7
370
    25
100
AcDbCircle
 10
122.3480688532
 20
26.658260138
 30
0.0
 40
7.188308498192367
100
AcDbArc
 50
154.0050161169
 51
157.3192993776
  0
ARC
  5
185
330
1F
100
AcDbEntity
  8
0
  6
Continuous
 62
     7
370
    25
100
AcDbCircle
 10
122.3480513103
 20
26.6582181609
 30
0.0
 40
7.18830849819238
100
AcDbArc
 50
157.3189367477
 51
160.6332200083
  0
ARC
  5
186
330
1F
100
AcDbEntity
  8
0
  6
Continuous
 62
     7
370
    25
100
AcDbCircle
 10
109.7879958562
 20
22.3414699883
 30
0.0
 40
8.848030048774541
100
AcDbArc
 50
29.6571108401
 51
49.2255583557
  0
LINE
  5
187
330
1F
100
AcDbEntity
  8
0
  6
Continuous
 62
     7
370
    25
100
AcDbLine
 10
117.1970292865
 20
26.196076638
 30
0.0
 11
117.4769531875
 21
26.7195488428
 31
0.0
  0
ARC
  5
188
330
1F
100
AcDbEntity
  8
0
  6
Continuous
 62
     7
370
    25
100
AcDbCircle
 10
116.5687251788
 20
35.0217708105
 30
0.0
 40
8.848030048774541
100
AcDbArc
 50
254.5035868604
 51
274.0720343761
  0
ARC
  5
189
330
1F
100
AcDbEntity
  8
0
  6
Continuous
 62
     7
370
    25
100
AcDbCircle
 10
119.9527988292
 20
22.1789769819
 30
0.0
 40
7.188308498192379
100
AcDbArc
 50
143.0959252078
 51
146.4102084685
  0
ARC
  5
18A
330
1F
100
AcDbEntity
  8
0
  6
Continuous
 62
     7
370
    25
100
AcDbCircle
 10
119.952773659
 20
22.1789390834
 30
0.0
 40
7.188308498192383
100
AcDbArc
 50
146.4098458386
 51
149.7241290993
  0
ARC
  5
18B
330
1F
100
AcDbEntity
  8
0
  6
Continuous
 62
     7
370
    25
100
AcDbCircle
 10
106.8027448062
 20
20.3172062978
 30
0.0
 40
8.848030048774547
100
AcDbArc
 50
18.748019931
 51
38.3164674466
  0
LINE
  5
18C
330
1F
100
AcDbEntity
  8
0
  6
Continuous
 62
     7
370
    25
100
AcDbLine
 10
114.807376632
 20
22.6999866878
 30
0.0
 11
115.1813100963
 21
23.1610230272
 31
0.0
  0
ARC
  5
18D
330
1F
100
AcDbEntity
  8
0
  6
Continuous
 62
     7
370
    25
100
AcDbCircle
 10
115.8607002259
 20
31.4850961031
 30
0.0
 40
8.848030048774545
100
AcDbArc
 50
243.5944959514
 51
263.162943467
  0
ARC
  5
18E
330
1F
100
AcDbEntity
  8
0
  6
Continuous
 62
     7
370
    25
100
AcDbCircle
 10
116.7531045437
 20
18.2339481404
 30
0.0
 40
7.188308498192368
100
AcDbArc
 50
132.1868342987
 51
135.5011175594
  0
ARC
  5
18F
330
1F
100
AcDbEntity
  8
0
  6
Continuous
 62
     7
370
    25
100
AcDbCircle
 10
116.7530726561
 20
18.2339156902
 30
0.0
 40
7.188308498192375
100
AcDbArc
 50
135.5007549295
 51
138.8150381902
  0
ARC
  5
190
330
1F
100
AcDbEntity
  8
0
  6
Continuous
 62
     7
370
    25
100
AcDbCircle
 10
103.4883467093
 20
18.8944861652
 30
0.0
 40
8.84803004877455
100
AcDbArc
 50
7.8389290219
 51
27.4073765375
  0
LINE
  5
191
330
1F
100
AcDbEntity
  8
0
  6
Continuous
 62
     7
370
    25
100
AcDbLine
 10
111.7992680459
 20
19.7193195214
 30
0.0
 11
112.2536957203
 21
20.1012567719
 31
0.0
  0
ARC
  5
192
330
1F
100
AcDbEntity
  8
0
  6
Continuous
 62
     7
370
    25
100
AcDbCircle
 10
114.496150117
 20
28.1463283183
 30
0.0
 40
8.848030048774541
100
AcDbArc
 50
232.6854050423
 51
252.2538525579
  0
ARC
  5
193
330
1F
100
AcDbEntity
  8
0
  6
Continuous
 62
     7
370
    25
100
AcDbCircle
 10
112.8646312851
 20
14.9657572345
 30
0.0
 40
7.188308498192367
100
AcDbArc
 50
121.2777433896
 51
124.5920266503
  0
ARC
  5
194
330
1F
100
AcDbEntity
  8
0
  6
Continuous
 62
     7
370
    25
100
AcDbCircle
 10
112.8645938325
 20
14.9657314055
 30
0.0
 40
7.188308498192375
100
AcDbArc
 50
124.5916640204
 51
127.9059472811
  0
ARC
  5
195
330
1F
100
AcDbEntity
  8
0
  6
Continuous
 62
     7
370
    25
100
AcDbCircle
 10
99.9645925484
 20
18.1247304029
 30
0.0
 40
8.848030048774547
100
AcDbArc
 50
356.9298381128
 51
16.4982856285
  0
LINE
  5
196
330
1F
100
AcDbEntity
  8
0
  6
Continuous
 62
     7
370
    25
100
AcDbLine
 10
108.2814261257
 20
17.3618068089
 30
0.0
 11
108.7999232053
 21
17.6508409073
 31
0.0
  0
ARC
  5
197
330
1F
100
AcDbEntity
  8
0
  6
Continuous
 62
     7
370
    25
100
AcDbCircle
 10
112.5243932483
 20
25.1261392231
 30
0.0
 40
8.848030048774556
100
AcDbArc
 50
221.7763141332
 51
241.3447616488
  0
ARC
  5
198
330
1F
100
AcDbEntity
  8
0
  6
Continuous
 62
     7
370
    25
100
AcDbCircle
 10
108.4279186082
 20
12.4925251987
 30
0.0
 40
7.188308498192371
100
AcDbArc
 50
110.3686524805
 51
113.6829357412
  0
ARC
  5
199
330
1F
100
AcDbEntity
  8
0
  6
Continuous
 62
     7
370
    25
100
AcDbCircle
 10
108.4278769442
 20
12.4925069244
 30
0.0
 40
7.188308498192378
100
AcDbArc
 50
113.6825731113
 51
116.996856372
  0
ARC
  5
19A
330
1F
100
AcDbEntity
  8
0
  6
Continuous
 62
     7
370
    25
100
AcDbCircle
 10
96.3588399798
 20
18.0357599899
 30
0.0
 40
8.848030048774547
100
AcDbArc
 50
346.0207472037
 51
5.5891947194
  0
LINE
  5
19B
330
1F
100
AcDbEntity
  8
0
  6
Continuous
 62
     7
370
    25
100
AcDbLine
 10
104.3809927008
 20
15.7126524587
 30
0.0
 11
104.9448200441
 21
15.8983358284
 31
0.0
  0
ARC
  5
19C
330
1F
100
AcDbEntity
  8
0
  6
Continuous
 62
     7
370
    25
100
AcDbCircle
 10
110.0166940505
 20
22.5336863203
 30
0.0
 40
8.848030048774534
100
AcDbArc
 50
210.8672232241
 51
230.4356707397
  0
ARC
  5
19D
330
1F
100
AcDbEntity
  8
0
  6
Continuous
 62
     7
370
    25
100
AcDbCircle
 10
103.6033208688
 20
10.9036410827
 30
0.0
 40
7.188308498192374
100
AcDbArc
 50
99.4595615715
 51
102.7738448321
  0
ARC
  5
19E
330
1F
100
AcDbEntity
  8
0
  6
Continuous
 62
     7
370
    25
100
AcDbCircle
 10
103.6032764994
 20
10.9036310236
 30
0.0
 40
7.188308498192378
100
AcDbArc
 50
102.7734822022
 51
106.0877654629
  0
ARC
  5
19F
330
1F
100
AcDbEntity
  8
0
  6
Continuous
 62
     7
370
    25
100
AcDbCircle
 10
92.8014102962
 20
18.6307905486
 30
0.0
 40
8.848030048774554
100
AcDbArc
 50
335.1116562946
 51
354.6801038103
  0
LINE
  5
1A0
330
1F
100
AcDbEntity
  8
0
  6
Continuous
 62
     7
370
    25
100
AcDbLine
 10
100.238941371
 20
14.8314611157
 30
0.0
 11
100.8277207087
 21
14.9070863714
 31
0.0
  0
ARC
  5
1A1
330
1F
100
AcDbEntity
  8
0
  6
Continuous
 62
     7
370
    25
100
AcDbCircle
 10
107.0636873062
 20
20.4626676124
 30
0.0
 40
8.848030048774541
100
AcDbArc
 50
199.958132315
 51
219.5265798306
  0
ARC
  5
1A2
330
1F
100
AcDbEntity
  8
0
  6
Continuous
 62
     7
370
    25
100
AcDbCircle
 10
98.5652115997
 20
10.2565312983
 30
0.0
 40
7.188308498192372
100
AcDbArc
 50
88.5504706624
 51
91.864753923
  0
ARC
  5
1A3
330
1F
100
AcDbEntity
  8
0
  6
Continuous
 62
     7
370
    25
100
AcDbCircle
 10
98.5651661284
 20
10.256529818
 30
0.0
 40
7.188308498192376
100
AcDbArc
 50
91.8643912932
 51
95.1786745538
  0
ARC
  5
1A4
330
1F
100
AcDbEntity
  8
0
  6
Continuous
 62
     7
370
    25
100
AcDbCircle
 10
89.4208782749
 20
19.8883161242
 30
0.0
 40
8.848030048774548
100
AcDbArc
 50
324.2025653856
 51
343.7710129012
  0
LINE
  5
1A5
330
1F
100
AcDbEntity
  8
0
  6
Continuous
 62
     7
370
    25
100
AcDbLine
 10
96.0049758372
 20
14.7500840118
 30
0.0
 11
96.5974270306
 21
14.7129149278
 31
0.0
  0
ARC
  5
1A6
330
1F
100
AcDbEntity
  8
0
  6
Continuous
 62
     7
370
    25
100
AcDbCircle
 10
103.7721023733
 20
18.9879351115
 30
0.0
 40
8.848030048774547
100
AcDbArc
 50
189.0490414059
 51
208.6174889215
  0
ARC
  5
1A7
330
1F
100
AcDbEntity
  8
0
  6
Continuous
 62
     7
370
    25
100
AcDbCircle
 10
93.4956811965
 20
10.5745840792
 30
0.0
 40
7.188308498192368
100
AcDbArc
 50
77.6413797533
 51
80.9556630139
  0
ARC
  5
1A8
330
1F
100
AcDbEntity
  8
0
  6
Continuous
 62
     7
370
    25
100
AcDbCircle
 10
93.4956362668
 20
10.5745912311
 30
0.0
 40
7.188308498192371
100
AcDbArc
 50
80.9553003841
 51
84.2695836447
  0
ARC
  5
1A9
330
1F
100
AcDbEntity
  8
0
  6
Continuous
 62
     7
370
    25
100
AcDbCircle
 10
86.3394251513
 20
21.7628864662
 30
0.0
 40
8.848030048774547
100
AcDbArc
 50
313.2934744765
 51
332.8619219921
  0
LINE
  5
1AA
330
1F
100
AcDbEntity
  8
0
  6
Continuous
 62
     7
370
    25
100
AcDbLine
 10
91.8321227594
 20
15.471460401
 30
0.0
 11
92.4068330727
 21
15.3228399446
 31
0.0
  0
ARC
  5
1AB
330
1F
100
AcDbEntity
  8
0
  6
Continuous
 62
     7
370
    25
100
AcDbCircle
 10
100.2609057072
 20
18.1627894926
 30
0.0
 40
8.84803004877455
100
AcDbArc
 50
178.1399504968
 51
197.7083980124
  0
ARC
  5
1AC
330
1F
100
AcDbEntity
  8
0
  6
Continuous
 62
     7
370
    25
100
AcDbCircle
 10
88.5779556965
 20
11.846304169
 30
0.0
 40
7.188308498192375
100
AcDbArc
 50
66.7322888442
 51
70.0465721048
  0
ARC
  5
1AD
330
1F
100
AcDbEntity
  8
0
  6
Continuous
 62
     7
370
    25
100
AcDbCircle
 10
88.5779129322
 20
11.8463196948
 30
0.0
 40
7.188308498192381
100
AcDbArc
 50
70.046209475
 51
73.3604927356
  0
ARC
  5
1AE
330
1F
100
AcDbEntity
  8
0
  6
Continuous
 62
     7
370
    25
100
AcDbCircle
 10
83.6684226697
 20
24.186749718
 30
0.0
 40
8.848030048774538
100
AcDbArc
 50
302.3843835674
 51
321.952831083
  0
LINE
  5
1AF
330
1F
100
AcDbEntity
  8
0
  6
Continuous
 62
     7
370
    25
100
AcDbLine
 10
87.8711994677
 20
16.9695188393
 30
0.0
 11
88.4073981955
 21
16.714818879
 31
0.0
  0
ARC
  5
1B0
330
1F
100
AcDbEntity
  8
0
  6
Continuous
 62
     7
370
    25
100
AcDbCircle
 10
96.6570011039
 20
18.0170536682
 30
0.0
 40
8.848030048774547
100
AcDbArc
 50
167.2308595877
 51
186.7993071033
  0
ARC
  5
1B1
330
1F
100
AcDbEntity
  8
0
  6
Continuous
 62
     7
370
    25
100
AcDbCircle
 10
83.9897745122
 20
14.0257282905
 30
0.0
 40
7.18830849819237
100
AcDbArc
 50
55.8231979351
 51
59.1374811957
  0
ARC
  5
1B2
330
1F
100
AcDbEntity
  8
0
  6
Continuous
 62
     7
370
    25
100
AcDbCircle
 10
83.989735459
 20
14.0257516288
 30
0.0
 40
7.188308498192375
100
AcDbArc
 50
59.1371185659
 51
62.4514018265
  0
ARC
  5
1B3
330
1F
100
AcDbEntity
  8
0
  6
Continuous
 62
     7
370
    25
100
AcDbCircle
 10
81.5044078192
 20
27.0723011466
 30
0.0
 40
8.848030048774548
100
AcDbArc
 50
291.4752926583
 51
311.0437401739
  0
LINE
  5
1B4
330
1F
100
AcDbEntity
  8
0
  6
Continuous
 62
     7
370
    25
100
AcDbLine
 10
84.2653652593
 20
19.1901140948
 30
0.0
 11
84.7436711132
 21
18.8385416855
 31
0.0
  0
ARC
  5
1B5
330
1F
100
AcDbEntity
  8
0
  6
Continuous
 62
     7
370
    25
100
AcDbCircle
 10
93.0906430657
 20
18.5559949107
 30
0.0
 40
8.848030048774536
100
AcDbArc
 50
156.3217686786
 51
175.8902161942
  0
ARC
  5
1B6
330
1F
100
AcDbEntity
  8
0
  6
Continuous
 62
     7
370
    25
100
AcDbCircle
 10
79.8969664662
 20
17.0340863773
 30
0.0
 40
7.188308498192376
100
AcDbArc
 50
44.914107026
 51
48.2283902866
  0
ARC
  5
1B7
330
1F
100
AcDbEntity
  8
0
  6
Continuous
 62
     7
370
    25
100
AcDbCircle
 10
79.8969325355
 20
17.0341166848
 30
0.0
 40
7.188308498192377
100
AcDbArc
 50
48.2280276568
 51
51.5423109174
  0
ARC
  5
1B8
330
1F
100
AcDbEntity
  8
0
  6
Continuous
 62
     7
370
    25
100
AcDbCircle
 10
79.9255937347
 20
30.315249405
 30
0.0
 40
8.848030048774547
100
AcDbArc
 50
280.5662017492
 51
300.1346492648
  0
LINE
  5
1B9
330
1F
100
AcDbEntity
  8
0
  6
Continuous
 62
     7
370
    25
100
AcDbLine
 10
81.1449438273
 20
22.0529885133
 30
0.0
 11
81.548070529
 21
21.617249689
 31
0.0
  0
ARC
  5
1BA
330
1F
100
AcDbEntity
  8
0
  6
Continuous
 62
     7
370
    25
100
AcDbCircle
 10
89.6907290639
 20
19.7601344795
 30
0.0
 40
8.848030048774552
100
AcDbArc
 50
145.4126777695
 51
164.9811252852
  0
ARC
  5
1BB
330
1F
100
AcDbEntity
  8
0
  6
Continuous
 62
     7
370
    25
100
AcDbCircle
 10
76.4474563048
 20
20.7626485301
 30
0.0
 40
7.188308498192363
100
AcDbArc
 50
34.0050161169
 51
37.3192993776
  0
ARC
  5
1BC
330
1F
100
AcDbEntity
  8
0
  6
Continuous
 62
     7
370
    25
100
AcDbCircle
 10
76.447428723
 20
20.7626847112
 30
0.0
 40
7.188308498192368
100
AcDbArc
 50
37.3189367477
 51
40.6332200083
  0
ARC
  5
1BD
330
1F
100
AcDbEntity
  8
0
  6
Continuous
 62
     7
370
    25
100
AcDbCircle
 10
78.9890428708
 20
33.7983858938
 30
0.0
 40
8.848030048774543
100
AcDbArc
 50
269.6571108401
 51
289.2255583557
  0
LINE
  5
1BE
330
1F
100
AcDbEntity
  8
0
  6
Continuous
 62
     7
370
    25
100
AcDbLine
 10
78.622713679
 20
25.4546712254
 30
0.0
 11
78.9360925495
 21
24.9505146508
 31
0.0
  0
ARC
  5
1BF
330
1F
100
AcDbEntity
  8
0
  6
Continuous
 62
     7
370
    25
100
AcDbCircle
 10
86.5801408492
 20
21.5859516331
 30
0.0
 40
8.84803004877454
100
AcDbArc
 50
134.5035868604
 51
154.0720343761
  0
ARC
  5
1C0
330
1F
100
AcDbEntity
  8
0
  6
Continuous
 62
     7
370
    25
100
AcDbCircle
 10
73.7659183128
 20
25.0766547978
 30
0.0
 40
7.188308498192356
100
AcDbArc
 50
23.0959252078
 51
26.4102084685
  0
ARC
  5
1C1
330
1F
100
AcDbEntity
  8
0
  6
Continuous
 62
     7
370
    25
100
AcDbCircle
 10
73.7658980769
 20
25.0766955451
 30
0.0
 40
7.188308498192386
100
AcDbArc
 50
26.4098458386
 51
29.7241290993
  0
ARC
  5
1C2
330
1F
100
AcDbEntity
  8
0
  6
Continuous
 62
     7
370
    25
100
AcDbCircle
 10
78.7286046159
 20
37.395820985
 30
0.0
 40
8.848030048774541
100
AcDbArc
 50
258.748019931
 51
278.3164674466
  0
LINE
  5
1C3
330
1F
100
AcDbEntity
  8
0
  6
Continuous
 62
     7
370
    25
100
AcDbLine
 10
76.7898373245
 20
29.2722164755
 30
0.0
 11
77.002139756
 21
28.7178634768
 31
0.0
  0
ARC
  5
1C4
330
1F
100
AcDbEntity
  8
0
  6
Continuous
 62
     7
370
    25
100
AcDbCircle
 10
83.8713031841
 20
23.9674565825
 30
0.0
 40
8.848030048774547
100
AcDbArc
 50
123.5944959513
 51
143.162943467
  0
ARC
  5
1C5
330
1F
100
AcDbEntity
  8
0
  6
Continuous
 62
     7
370
    25
100
AcDbCircle
 10
71.9492702601
 20
29.8201857541
 30
0.0
 40
7.188308498192371
100
AcDbArc
 50
12.1868342987
 51
15.5011175594
  0
ARC
  5
1C6
330
1F
100
AcDbEntity
  8
0
  6
Continuous
 62
     7
370
    25
100
AcDbCircle
 10
71.9492581013
 20
29.8202295947
 30
0.0
 40
7.188308498192372
100
AcDbArc
 50
15.5007549295
 51
18.8150381902
  0
ARC
  5
1C7
330
1F
100
AcDbEntity
  8
0
  6
Continuous
 62
     7
370
    25
100
AcDbCircle
 10
79.153691887
 20
40.9775340014
 30
0.0
 40
8.848030048774538
100
AcDbArc
 50
247.8389290219
 51
267.4073765375
  0
LINE
  5
1C8
330
1F
100
AcDbEntity
  8
0
  6
Continuous
 62
     7
370
    25
100
AcDbLine
 10
75.712557876
 20
33.3676476599
 30
0.0
 11
75.8161116331
 21
32.7831335468
 31
0.0
  0
ARC
  5
1C9
330
1F
100
AcDbEntity
  8
0
  6
Continuous
 62
     7
370
    25
100
AcDbCircle
 10
81.6621205196
 20
26.8185755339
 30
0.0
 40
8.84803004877455
100
AcDbArc
 50
112.6854050423
 51
132.2538525579
  0
ARC
  5
1CA
330
1F
100
AcDbEntity
  8
0
  6
Continuous
 62
     7
370
    25
100
AcDbCircle
 10
71.0631705405
 20
34.821797831
 30
0.0
 40
7.188308498192377
100
AcDbArc
 50
1.2777433896
 51
4.5920266503
  0
ARC
  5
1CB
330
1F
100
AcDbEntity
  8
0
  6
Continuous
 62
     7
370
    25
100
AcDbCircle
 10
71.0631668983
 20
34.8218431804
 30
0.0
 40
7.188308498192383
100
AcDbArc
 50
4.5916640204
 51
7.9059472811
  0
ARC
  5
1CC
330
1F
100
AcDbEntity
  8
0
  6
Continuous
 62
     7
370
    25
100
AcDbCircle
 10
80.2489409226
 20
44.4140725026
 30
0.0
 40
8.848030048774545
100
AcDbArc
 50
236.9298381128
 51
256.4982856285
  0
LINE
  5
1CD
330
1F
100
AcDbEntity
  8
0
  6
Continuous
 62
     7
370
    25
100
AcDbLine
 10
75.4298120677
 20
37.5929456073
 30
0.0
 11
75.4208750962
 21
36.9993967921
 31
0.0
  0
ARC
  5
1CE
330
1F
100
AcDbEntity
  8
0
  6
Continuous
 62
     7
370
    25
100
AcDbCircle
 10
80.0324384732
 20
30.0362616199
 30
0.0
 40
8.84803004877454
100
AcDbArc
 50
101.7763141332
 51
121.3447616488
  0
ARC
  5
1CF
330
1F
100
AcDbEntity
  8
0
  6
Continuous
 62
     7
370
    25
100
AcDbCircle
 10
71.1396451065
 20
39.9007197364
 30
0.0
 40
7.18830849819237
100
AcDbArc
 50
350.3686524805
 51
353.6829357412
  0
ARC
  5
1D0
330
1F
100
AcDbEntity
  8
0
  6
Continuous
 62
     7
370
    25
100
AcDbCircle
 10
71.1396501125
 20
39.9007649556
 30
0.0
 40
7.188308498192385
100
AcDbArc
 50
353.6825731113
 51
356.996856372
  0
ARC
  5
1D1
330
1F
100
AcDbEntity
  8
0
  6
Continuous
 62
     7
370
    25
100
AcDbCircle
 10
81.974766569
 20
47.5812310332
 30
0.0
 40
8.848030048774545
100
AcDbArc
 50
226.0207472037
 51
245.5891947194
  0
LINE
  5
1D2
330
1F
100
AcDbEntity
  8
0
  6
Continuous
 62
     7
370
    25
100
AcDbLine
 10
75.9518202334
 20
41.795396815
 30
0.0
 11
75.8307129084
 21
41.2142654983
 31
0.0
  0
ARC
  5
1D3
330
1F
100
AcDbEntity
  8
0
  6
Continuous
 62
     7
370
    25
100
AcDbCircle
 10
79.0411580002
 20
33.5042192816
 30
0.0
 40
8.848030048774545
100
AcDbArc
 50
90.8672232241
 51
110.4356707397
  0
ARC
  5
1D4
330
1F
100
AcDbEntity
  8
0
  6
Continuous
 62
     7
370
    25
100
AcDbCircle
 10
72.1759299681
 20
44.8733859997
 30
0.0
 40
7.18830849819237
100
AcDbArc
 50
339.4595615715
 51
342.7738448321
  0
ARC
  5
1D5
330
1F
100
AcDbEntity
  8
0
  6
Continuous
 62
     7
370
    25
100
AcDbCircle
 10
72.1759434414
 20
44.8734294543
 30
0.0
 40
7.18830849819239
100
AcDbArc
 50
342.7734822022
 51
346.0877654629
  0
ARC
  5
1D6
330
1F
100
AcDbEntity
  8
0
  6
Continuous
 62
     7
370
    25
100
AcDbCircle
 10
84.2687929907
 20
50.3645402321
 30
0.0
 40
8.848030048774536
100
AcDbArc
 50
215.1116562946
 51
234.6801038103
  0
LINE
  5
1D7
330
1F
100
AcDbEntity
  8
0
  6
Continuous
 62
     7
370
    25
100
AcDbLine
 10
77.2597119152
 20
45.8231140961
 30
0.0
 11
77.0308151781
 21
45.2754042213
 31
0.0
  0
ARC
  5
1D8
330
1F
100
AcDbEntity
  8
0
  6
Continuous
 62
     7
370
    25
100
AcDbCircle
 10
78.7241065596
 20
37.0971074937
 30
0.0
 40
8.848030048774543
100
AcDbArc
 50
79.958132315
 51
99.5265798306
  0
ARC
  5
1D9
330
1F
100
AcDbEntity
  8
0
  6
Continuous
 62
     7
370
    25
100
AcDbCircle
 10
74.1345710903
 20
49.560071506
 30
0.0
 40
7.188308498192363
100
AcDbArc
 50
328.5504706624
 51
331.864753923
  0
ARC
  5
1DA
330
1F
100
AcDbEntity
  8
0
  6
Continuous
 62
     7
370
    25
100
AcDbCircle
 10
74.134592544
 20
49.5601116255
 30
0.0
 40
7.188308498192379
100
AcDbArc
 50
331.8643912932
 51
335.1786745538
  0
ARC
  5
1DB
330
1F
100
AcDbEntity
  8
0
  6
Continuous
 62
     7
370
    25
100
AcDbCircle
 10
87.0481080958
 20
52.663404053
 30
0.0
 40
8.848030048774556
100
AcDbArc
 50
204.2025653856
 51
223.7710129012
  0
LINE
  5
1DC
330
1F
100
AcDbEntity
  8
0
  6
Continuous
 62
     7
370
    25
100
AcDbLine
 10
79.3062206297
 20
49.5305239325
 30
0.0
 11
78.9778046249
 21
49.0360316922
 31
0.0
  0
ARC
  5
1DD
330
1F
100
AcDbEntity
  8
0
  6
Continuous
 62
     7
370
    25
100
AcDbCircle
 10
79.0927432165
 20
40.6850699148
 30
0.0
 40
8.848030048774541
100
AcDbArc
 50
69.0490414059
 51
88.6174889215
  0
ARC
  5
1DE
330
1F
100
AcDbEntity
  8
0
  6
Continuous
 62
     7
370
    25
100
AcDbCircle
 10
76.9448067386
 20
53.7914225643
 30
0.0
 40
7.18830849819238
100
AcDbArc
 50
320.9553003841
 51
324.2695836447
  0
ARC
  5
1DF
330
1F
100
AcDbEntity
  8
0
  6
Continuous
 62
     7
370
    25
100
AcDbCircle
 10
90.2122601949
 20
54.3947355677
 30
0.0
 40
8.848030048774545
100
AcDbArc
 50
193.2934744765
 51
212.8619219921
  0
LINE
  5
1E0
330
1F
100
AcDbEntity
  8
0
  6
Continuous
 62
     7
370
    25
100
AcDbLine
 10
82.0173770129
 20
52.7836327543
 30
0.0
 11
81.601312378
 21
52.3602292975
 31
0.0
  0
ARC
  5
1E1
330
1F
100
AcDbEntity
  8
0
  6
Continuous
 62
     7
370
    25
100
AcDbCircle
 10
80.1337444817
 20
44.1384282347
 30
0.0
 40
8.848030048774548
100
AcDbArc
 50
58.1399504968
 51
77.7083980124
  0
ARC
  5
1E2
330
1F
100
AcDbEntity
  8
0
  6
Continuous
 62
     7
370
    25
100
AcDbCircle
 10
80.5049827343
 20
57.4144023969
 30
0.0
 40
7.188308498192369
100
AcDbArc
 50
306.7322888442
 51
310.0465721048
  0
ARC
  5
1E3
330
1F
100
AcDbEntity
  8
0
  6
Continuous
 62
     7
370
    25
100
AcDbCircle
 10
80.5050175621
 20
57.414431669
 30
0.0
 40
7.188308498192375
100
AcDbArc
 50
310.046209475
 51
313.3604927356
  0
ARC
  5
1E4
330
1F
100
AcDbEntity
  8
0
  6
Continuous
 62
     7
370
    25
100
AcDbCircle
 10
93.6468885871
 20
55.4959599443
 30
0.0
 40
8.84803004877455
100
AcDbArc
 50
182.3843835674
 51
201.952831083
  0
LINE
  5
1E5
330
1F
100
AcDbEntity
  8
0
  6
Continuous
 62
     7
370
    25
100
AcDbLine
 10
85.2951938226
 20
55.4648638805
 30
0.0
 11
84.8065195545
 21
55.1278517683
 31
0.0
  0
ARC
  5
1E6
330
1F
100
AcDbEntity
  8
0
  6
Continuous
 62
     7
370
    25
100
AcDbCircle
 10
81.8094858572
 20
47.3323690862
 30
0.0
 40
8.848030048774545
100
AcDbArc
 50
47.2308595877
 51
66.7993071033
  0
ARC
  5
1E7
330
1F
100
AcDbEntity
  8
0
  6
Continuous
 62
     7
370
    25
100
AcDbCircle
 10
84.6865099812
 20
60.2981717989
 30
0.0
 40
7.188308498192371
100
AcDbArc
 50
295.8231979351
 51
299.1374811957
  0
ARC
  5
1E8
330
1F
100
AcDbEntity
  8
0
  6
Continuous
 62
     7
370
    25
100
AcDbCircle
 10
84.6865497194
 20
60.2981939508
 30
0.0
 40
7.188308498192371
100
AcDbArc
 50
299.1371185659
 51
302.4514018265
  0
ARC
  5
1E9
330
1F
100
AcDbEntity
  8
0
  6
Continuous
 62
     7
370
    25
100
AcDbCircle
 10
97.2278568534
 20
55.9272760648
 30
0.0
 40
8.84803004877454
100
AcDbArc
 50
171.4752926583
 51
191.0437401739
  0
LINE
  5
1EA
330
1F
100
AcDbEntity
  8
0
  6
Continuous
 62
     7
370
    25
100
AcDbLine
 10
89.0212031021
 20
57.4773104032
 30
0.0
 11
88.4775798707
 21
57.238871335
 31
0.0
  0
ARC
  5
1EB
330
1F
100
AcDbEntity
  8
0
  6
Continuous
 62
     7
370
    25
100
AcDbCircle
 10
84.0594016835
 20
50.1514551251
 30
0.0
 40
8.848030048774538
100
AcDbArc
 50
36.3217686786
 51
55.8902161942
  0
ARC
  5
1EC
330
1F
100
AcDbEntity
  8
0
  6
Continuous
 62
     7
370
    25
100
AcDbCircle
 10
89.3382285311
 20
62.3384684962
 30
0.0
 40
7.188308498192376
100
AcDbArc
 50
284.914107026
 51
288.2283902866
  0
ARC
  5
1ED
330
1F
100
AcDbEntity
  8
0
  6
Continuous
 62
     7
370
    25
100
AcDbCircle
 10
89.3382717435
 20
62.3384827273
 30
0.0
 40
7.188308498192378
100
AcDbArc
 50
288.2280276568
 51
291.5423109174
  0
ARC
  5
1EE
330
1F
100
AcDbEntity
  8
0
  6
Continuous
 62
     7
370
    25
100
AcDbCircle
 10
100.8257394706
 20
55.6730950406
 30
0.0
 40
8.848030048774543
100
AcDbArc
 50
160.5662017492
 51
180.1346492648
  0
LINE
  5
1EF
330
1F
100
AcDbEntity
  8
0
  6
Continuous
 62
     7
370
    25
100
AcDbLine
 10
93.060737004
 20
58.748237892
 30
0.0
 11
92.4818119905
 21
58.6169884642
 31
0.0
  0
ARC
  5
1F0
330
1F
100
AcDbEntity
  8
0
  6
Continuous
 62
     7
370
    25
100
AcDbCircle
 10
86.8021741406
 20
52.4937972368
 30
0.0
 40
8.848030048774556
100
AcDbArc
 50
25.4126777695
 51
44.9811252852
  0
ARC
  5
1F1
330
1F
100
AcDbEntity
  8
0
  6
Continuous
 62
     7
370
    25
100
AcDbCircle
 10
94.2920131557
 20
63.4615508502
 30
0.0
 40
7.188308498192369
100
AcDbArc
 50
274.0050161169
 51
277.3192993776
  0
ARC
  5
1F2
330
1F
100
AcDbEntity
  8
0
  6
Continuous
 62
     7
370
    25
100
AcDbCircle
 10
94.2920582804
 20
63.4615566462
 30
0.0
 40
7.188308498192383
100
AcDbArc
 50
277.3189367477
 51
280.6332200083
  0
ARC
  5
1F3
330
1F
100
AcDbEntity
  8
0
  6
Continuous
 62
     7
370
    25
100
AcDbCircle
 10
104.3104995867
 20
54.7426036363
 30
0.0
 40
8.848030048774543
100
AcDbArc
 50
149.6571108401
 51
169.2255583557
  0
LINE
  5
1F4
330
1F
100
AcDbEntity
  8
0
  6
Continuous
 62
     7
370
    25
100
AcDbLine
 10
97.2677953481
 20
59.2317116549
 30
0.0
 11
96.6744936244
 21
59.2123960247
 31
0.0
  0
ARC
  5
1F5
330
1F
100
AcDbEntity
  8
0
  6
Continuous
 62
     7
370
    25
100
AcDbCircle
 10
89.9386722857
 20
54.2747370747
 30
0.0
 40
8.848030048774547
100
AcDbArc
 50
14.5035868604
 51
34.0720343761
  0
ARC
  5
1F6
330
1F
100
AcDbEntity
  8
0
  6
Continuous
 62
     7
370
    25
100
AcDbCircle
 10
99.3688211716
 20
63.6268277386
 30
0.0
 40
7.188308498192365
100
AcDbArc
 50
263.0959252078
 51
266.4102084685
  0
ARC
  5
1F7
330
1F
100
AcDbEntity
  8
0
  6
Continuous
 62
     7
370
    25
100
AcDbCircle
 10
99.3688665777
 20
63.6268248898
 30
0.0
 40
7.188308498192371
100
AcDbArc
 50
266.4098458386
 51
269.7241290993
  0
ARC
  5
1F8
330
1F
100
AcDbEntity
  8
0
  6
Continuous
 62
     7
370
    25
100
AcDbCircle
 10
107.5561888916
 20
53.1694322356
 30
0.0
 40
8.848030048774541
100
AcDbArc
 50
138.748019931
 51
158.3164674466
  0
LINE
  5
1F9
330
1F
100
AcDbEntity
  8
0
  6
Continuous
 62
     7
370
    25
100
AcDbLine
 10
101.4903245899
 20
58.910256355
 30
0.0
 11
100.9040893926
 21
59.0035730143
 31
0.0
  0
ARC
  5
1FA
330
1F
100
AcDbEntity
  8
0
  6
Continuous
 62
     7
370
    25
100
AcDbCircle
 10
93.3555349037
 20
55.4299068327
 30
0.0
 40
8.848030048774538
100
AcDbArc
 50
3.5944959513
 51
23.162943467
  0
ARC
  5
1FB
330
1F
100
AcDbEntity
  8
0
  6
Continuous
 62
     7
370
    25
100
AcDbCircle
 10
104.3851635097
 20
62.8283256238
 30
0.0
 40
7.188308498192379
100
AcDbArc
 50
252.1868342987
 51
255.5011175594
  0
ARC
  5
1FC
330
1F
100
AcDbEntity
  8
0
  6
Continuous
 62
     7
370
    25
100
AcDbCircle
 10
104.3852075562
 20
62.8283142334
 30
0.0
 40
7.188308498192368
100
AcDbArc
 50
255.5007549295
 51
258.8150381902
  0
ARC
  5
1FD
330
1F
100
AcDbEntity
  8
0
  6
Continuous
 62
     7
370
    25
100
AcDbCircle
 10
110.4454997173
 20
51.0104393518
 30
0.0
 40
8.848030048774556
100
AcDbArc
 50
127.8389290219
 51
147.4073765375
  0
LINE
  5
1FE
330
1F
100
AcDbEntity
  8
0
  6
Continuous
 62
     7
370
    25
100
AcDbLine
 10
105.5757114603
 20
57.7954911729
 30
0.0
 11
105.0177309602
 21
57.998068734
 31
0.0
  0
ARC
  5
1FF
330
1F
100
AcDbEntity
  8
0
  6
Continuous
 62
     7
370
    25
100
AcDbCircle
 10
96.929267677
 20
55.9175556661
 30
0.0
 40
8.84803004877454
100
AcDbArc
 50
352.6854050423
 51
12.2538525579
  0
ARC
  5
200
330
1F
100
AcDbEntity
  8
0
  6
Continuous
 62
     7
370
    25
100
AcDbCircle
 10
109.159736488
 20
61.0949044529
 30
0.0
 40
7.188308498192361
100
AcDbArc
 50
241.2777433896
 51
244.5920266503
  0
ARC
  5
201
330
1F
100
AcDbEntity
  8
0
  6
Continuous
 62
     7
370
    25
100
AcDbCircle
 10
109.1597775828
 20
61.0948849324
 30
0.0
 40
7.188308498192376
100
AcDbArc
 50
244.5916640204
 51
247.9059472811
  0
ARC
  5
202
330
1F
100
AcDbEntity
  8
0
  6
Continuous
 62
     7
370
    25
100
AcDbCircle
 10
112.8740048426
 20
48.3436566128
 30
0.0
 40
8.848030048774545
100
AcDbArc
 50
116.9298381128
 51
136.4982856284
  0
LINE
  5
203
330
1F
100
AcDbEntity
  8
0
  6
Continuous
 62
     7
370
    25
100
AcDbLine
 10
109.3763001203
 20
55.9277069857
 30
0.0
 11
108.8667400121
 21
56.2322215279
 31
0.0
  0
ARC
  5
204
330
1F
100
AcDbEntity
  8
0
  6
Continuous
 62
     7
370
    25
100
AcDbCircle
 10
100.5307065921
 20
55.7200586754
 30
0.0
 40
8.848030048774547
100
AcDbArc
 50
341.7763141332
 51
1.3447616488
  0
ARC
  5
205
330
1F
100
AcDbEntity
  8
0
  6
Continuous
 62
     7
370
    25
100
AcDbCircle
 10
113.5199745989
 20
58.4892145832
 30
0.0
 40
7.188308498192372
100
AcDbArc
 50
230.3686524805
 51
233.6829357412
  0
ARC
  5
206
330
1F
100
AcDbEntity
  8
0
  6
Continuous
 62
     7
370
    25
100
AcDbCircle
 10
113.5200112568
 20
58.4891876383
 30
0.0
 40
7.188308498192381
100
AcDbArc
 50
233.6825731113
 51
236.996856372
  0
ARC
  5
207
330
1F
100
AcDbEntity
  8
0
  6
Continuous
 62
     7
370
    25
100
AcDbCircle
 10
114.7539317647
 20
45.2654684952
 30
0.0
 40
8.84803004877454
100
AcDbArc
 50
106.0207472037
 51
125.5891947194
  0
LINE
  5
208
330
1F
100
AcDbEntity
  8
0
  6
Continuous
 62
     7
370
    25
100
AcDbLine
 10
112.7547258451
 20
53.3744116416
 30
0.0
 11
112.3120048954
 21
53.7698567947
 31
0.0
  0
ARC
  5
209
330
1F
100
AcDbEntity
  8
0
  6
Continuous
 62
     7
370
    25
100
AcDbCircle
 10
104.0296862629
 20
54.8445539164
 30
0.0
 40
8.848030048774538
100
AcDbArc
 50
330.8672232241
 51
350.4356707397
  0
ARC
  5
20A
330
1F
100
AcDbEntity
  8
0
  6
Continuous
 62
     7
370
    25
100
AcDbCircle
 10
117.3082874767
 20
55.1054324359
 30
0.0
 40
7.18830849819238
100
AcDbArc
 50
219.4595615715
 51
222.7738448321
  0
ARC
  5
20B
330
1F
100
AcDbEntity
  8
0
  6
Continuous
 62
     7
370
    25
100
AcDbCircle
 10
117.3083183728
 20
55.1053990404
 30
0.0
 40
7.188308498192377
100
AcDbArc
 50
222.7734822022
 51
226.0877654629
  0
ARC
  5
20C
330
1F
100
AcDbEntity
  8
0
  6
Continuous
 62
     7
370
    25
100
AcDbCircle
 10
116.0173350267
 20
41.8871287376
 30
0.0
 40
8.848030048774541
100
AcDbArc
 50
95.1116562946
 51
114.6801038103
  0
LINE
  5
20D
330
1F
100
AcDbEntity
  8
0
  6
Continuous
 62
     7
370
    25
100
AcDbLine
 10
115.5888847946
 20
50.2278843065
 30
0.0
 11
115.2290031253
 21
50.6999698569
 31
0.0
  0
ARC
  5
20E
330
1F
100
AcDbEntity
  8
0
  6
Continuous
 62
     7
370
    25
100
AcDbCircle
 10
107.2997444478
 20
53.3226844122
 30
0.0
 40
8.848030048774543
100
AcDbArc
 50
319.958132315
 51
339.5265798306
  0
ARC
  5
20F
330
1F
100
AcDbEntity
  8
0
  6
Continuous
 62
     7
370
    25
100
AcDbCircle
 10
120.3877556235
 20
51.065856714
 30
0.0
 40
7.188308498192378
100
AcDbArc
 50
208.5504706624
 51
211.864753923
  0
ARC
  5
210
330
1F
100
AcDbEntity
  8
0
  6
Continuous
 62
     7
370
    25
100
AcDbCircle
 10
120.3877796412
 20
51.0658180748
 30
0.0
 40
7.188308498192388
100
AcDbArc
 50
211.8643912932
 51
215.1786745538
  0
ARC
  5
211
330
1F
100
AcDbEntity
  8
0
  6
Continuous
 62
     7
370
    25
100
AcDbCircle
 10
116.6185519429
 20
38.3307393411
 30
0.0
 40
8.848030048774547
100
AcDbArc
 50
84.2025653856
 51
103.7710129012
  0
LINE
  5
212
330
1F
100
AcDbEntity
  8
0
  6
Continuous
 62
     7
370
    25
100
AcDbLine
 10
117.7763417303
 20
46.6018506428
 30
0.0
 11
117.5123061924
 21
47.1335138296
 31
0.0
  0
ARC
  5
213
330
1F
100
AcDbEntity
  8
0
  6
Continuous
 62
     7
370
    25
100
AcDbCircle
 10
110.2226927238
 20
51.209454492
 30
0.0
 40
8.848030048774552
100
AcDbArc
 50
309.0490414059
 51
328.6174889215
  0
ARC
  5
214
330
1F
100
AcDbEntity
  8
0
  6
Continuous
 62
     7
370
    25
100
AcDbCircle
 10
122.6470790372
 20
46.5164882091
 30
0.0
 40
7.188308498192363
100
AcDbArc
 50
197.6413797533
 51
200.9556630139
  0
ARC
  5
215
330
1F
100
AcDbEntity
  8
0
  6
Continuous
 62
     7
370
    25
100
AcDbCircle
 10
122.6470953083
 20
46.5164457228
 30
0.0
 40
7.188308498192383
100
AcDbArc
 50
200.9553003841
 51
204.2695836447
  0
ARC
  5
216
330
1F
100
AcDbEntity
  8
0
  6
Continuous
 62
     7
370
    25
100
AcDbCircle
 10
116.5358529675
 20
34.7248374845
 30
0.0
 40
8.848030048774547
100
AcDbArc
 50
73.2934744765
 51
92.8619219921
  0
LINE
  5
217
330
1F
100
AcDbEntity
  8
0
  6
Continuous
 62
     7
370
    25
100
AcDbLine
 10
119.2380394726
 20
42.6273658973
 30
0.0
 11
119.0793923973
 21
43.1993902763
 31
0.0
  0
ARC
  5
218
330
1F
100
AcDbEntity
  8
0
  6
Continuous
 62
     7
370
    25
100
AcDbCircle
 10
112.6928881247
 20
48.581241791
 30
0.0
 40
8.848030048774548
100
AcDbArc
 50
298.1399504968
 51
317.7083980124
  0
ARC
  5
219
330
1F
100
AcDbEntity
  8
0
  6
Continuous
 62
     7
370
    25
100
AcDbCircle
 10
124.0045998829
 20
41.6217529523
 30
0.0
 40
7.188308498192381
100
AcDbArc
 50
186.7322888442
 51
190.0465721048
  0
ARC
  5
21A
330
1F
100
AcDbEntity
  8
0
  6
Continuous
 62
     7
370
    25
100
AcDbCircle
 10
124.4112531352
 20
36.5585139386
 30
0.0
 40
7.188308498192376
100
AcDbArc
 50
179.1371185659
 51
182.4514018265
  0
LINE
  5
21B
330
1F
100
AcDbEntity
  8
0
  6
Continuous
 62
     7
370
    25
100
AcDbLine
 10
96.170846134
 20
38.48581981
 30
0.0
 11
96.170846134
 21
35.4358198689
 31
0.0
  0
LINE
  5
21C
330
1F
100
AcDbEntity
  8
0
  6
Continuous
 62
     7
370
    25
100
AcDbLine
 10
96.170846134
 20
35.4358198689
 30
0.0
 11
99.2208460751
 21
35.4358198689
 31
0.0
  0
LINE
  5
21D
330
1F
100
AcDbEntity
  8
0
  6
Continuous
 62
     7
370
    25
100
AcDbLine
 10
99.2208460751
 20
35.4358198689
 30
0.0
 11
99.2208460751
 21
38.48581981
 31
0.0
  0
LINE
  5
21E
330
1F
100
AcDbEntity
  8
0
  6
Continuous
 62
     7
370
    25
100
AcDbLine
 10
99.2208460751
 20
38.48581981
 30
0.0
 11
96.170846134
 21
38.48581981
 31
0.0
  0
ARC
  5
21F
330
1F
100
AcDbEntity
  8
0
  6
Continuous
 62
     7
370
    25
100
AcDbCircle
 10
109.9049327894
 20
31.1156941852
 30
0.0
 40
3.000000000000005
100
AcDbArc
 50
225.0
 51
334.417134056
  0
ARC
  5
220
330
1F
100
AcDbEntity
  8
0
  6
Continuous
 62
     7
370
    25
100
AcDbCircle
 10
97.6958461045
 20
36.9608198394
 30
0.0
 40
16.53614759050008
100
AcDbArc
 50
334.417134056
 51
25.582865944
  0
ARC
  5
221
330
1F
100
AcDbEntity
  8
0
  6
Continuous
 62
     7
370
    25
100
AcDbCircle
 10
109.9049327894
 20
42.8059454936
 30
0.0
 40
3.000000000000004
100
AcDbArc
 50
25.582865944
 51
135.0
  0
LINE
  5
222
330
1F
100
AcDbEntity
  8
0
  6
Continuous
 62
     7
370
    25
100
AcDbLine
 10
107.7836127891
 20
44.9272655984
 30
0.0
 11
102.0161076388
 21
39.1597609137
 31
0.0
  0
ARC
  5
223
330
1F
100
AcDbEntity
  8
0
  6
Continuous
 62
     7
370
    25
100
AcDbCircle
 10
103.0767676507
 20
38.0991006985
 30
0.0
 40
1.500000000000007
100
AcDbArc
 50
135.0
 51
191.9442688491
  0
ARC
  5
224
330
1F
100
AcDbEntity
  8
0
  6
Continuous
 62
     7
370
    25
100
AcDbCircle
 10
97.6958461045
 20
36.9608198394
 30
0.0
 40
4.000000000000045
100
AcDbArc
 50
348.0557311509
 51
11.9442688491
  0
ARC
  5
225
330
1F
100
AcDbEntity
  8
0
  6
Continuous
 62
     7
370
    25
100
AcDbCircle
 10
103.0767676507
 20
35.8225389804
 30
0.0
 40
1.500000000000007
100
AcDbArc
 50
168.0557311509
 51
225.0
  0
LINE
  5
226
330
1F
100
AcDbEntity
  8
0
  6
Continuous
 62
     7
370
    25
100
AcDbLine
 10
102.0161076388
 20
34.7618787651
 30
0.0
 11
107.7836127891
 21
28.9943740805
 31
0.0
  0
ARC
  5
227
330
1F
100
AcDbEntity
  8
0
  6
Continuous
 62
     7
370
    25
100
AcDbCircle
 10
103.5409717587
 20
49.1699065243
 30
0.0
 40
3.000000000000014
100
AcDbArc
 50
315.0
 51
64.417134056
  0
ARC
  5
228
330
1F
100
AcDbEntity
  8
0
  6
Continuous
 62
     7
370
    25
100
AcDbCircle
 10
97.6958461045
 20
36.9608198394
 30
0.0
 40
16.53614759050007
100
AcDbArc
 50
64.417134056
 51
115.582865944
  0
ARC
  5
229
330
1F
100
AcDbEntity
  8
0
  6
Continuous
 62
     7
370
    25
100
AcDbCircle
 10
91.8507204504
 20
49.1699065243
 30
0.0
 40
2.999999999999994
100
AcDbArc
 50
115.582865944
 51
225.0
  0
LINE
  5
22A
330
1F
100
AcDbEntity
  8
0
  6
Continuous
 62
     7
370
    25
100
AcDbLine
 10
89.7294003456
 20
47.048586524
 30
0.0
 11
95.4969050302
 21
41.2810813737
 31
0.0
  0
ARC
  5
22B
330
1F
100
AcDbEntity
  8
0
  6
Continuous
 62
     7
370
    25
100
AcDbCircle
 10
96.5575652455
 20
42.3417413856
 30
0.0
 40
1.500000000000001
100
AcDbArc
 50
225.0
 51
281.9442688491
  0
ARC
  5
22C
330
1F
100
AcDbEntity
  8
0
  6
Continuous
 62
     7
370
    25
100
AcDbCircle
 10
97.6958461045
 20
36.9608198394
 30
0.0
 40
4.000000000000044
100
AcDbArc
 50
78.0557311509
 51
101.9442688491
  0
ARC
  5
22D
330
1F
100
AcDbEntity
  8
0
  6
Continuous
 62
     7
370
    25
100
AcDbCircle
 10
98.8341269636
 20
42.3417413856
 30
0.0
 40
1.500000000000002
100
AcDbArc
 50
258.0557311509
 51
315.0
  0
LINE
  5
22E
330
1F
100
AcDbEntity
  8
0
  6
Continuous
 62
     7
370
    25
100
AcDbLine
 10
99.8947871788
 20
41.2810813737
 30
0.0
 11
105.6622918635
 21
47.048586524
 31
0.0
  0
ARC
  5
22F
330
1F
100
AcDbEntity
  8
0
  6
Continuous
 62
     7
370
    25
100
AcDbCircle
 10
91.8507204504
 20
24.7517331546
 30
0.0
 40
3.000000000000004
100
AcDbArc
 50
135.0
 51
244.417134056
  0
ARC
  5
230
330
1F
100
AcDbEntity
  8
0
  6
Continuous
 62
     7
370
    25
100
AcDbCircle
 10
97.6958461045
 20
36.9608198394
 30
0.0
 40
16.53614759050007
100
AcDbArc
 50
244.417134056
 51
295.582865944
  0
ARC
  5
231
330
1F
100
AcDbEntity
  8
0
  6
Continuous
 62
     7
370
    25
100
AcDbCircle
 10
103.5409717587
 20
24.7517331546
 30
0.0
 40
3.000000000000003
100
AcDbArc
 50
295.582865944
 51
45.0
  0
LINE
  5
232
330
1F
100
AcDbEntity
  8
0
  6
Continuous
 62
     7
370
    25
100
AcDbLine
 10
105.6622918635
 20
26.8730531548
 30
0.0
 11
99.8947871788
 21
32.6405583051
 31
0.0
  0
ARC
  5
233
330
1F
100
AcDbEntity
  8
0
  6
Continuous
 62
     7
370
    25
100
AcDbCircle
 10
98.8341269636
 20
31.5798982933
 30
0.0
 40
1.499999999999997
100
AcDbArc
 50
45.0
 51
101.9442688491
  0
ARC
  5
234
330
1F
100
AcDbEntity
  8
0
  6
Continuous
 62
     7
370
    25
100
AcDbCircle
 10
97.6958461045
 20
36.9608198394
 30
0.0
 40
4.000000000000053
100
AcDbArc
 50
258.0557311509
 51
281.9442688491
  0
ARC
  5
235
330
1F
100
AcDbEntity
  8
0
  6
Continuous
 62
     7
370
    25
100
AcDbCircle
 10
96.5575652455
 20
31.5798982933
 30
0.0
 40
1.500000000000005
100
AcDbArc
 50
78.0557311509
 51
135.0
  0
LINE
  5
236
330
1F
100
AcDbEntity
  8
0
  6
Continuous
 62
     7
370
    25
100
AcDbLine
 10
95.4969050302
 20
32.6405583051
 30
0.0
 11
89.7294003456
 21
26.8730531548
 31
0.0
  0
ARC
  5
237
330
1F
100
AcDbEntity
  8
0
  6
Continuous
 62
     7
370
    25
100
AcDbCircle
 10
85.4867594197
 20
42.8059454936
 30
0.0
 40
3.000000000000004
100
AcDbArc
 50
45.0
 51
154.417134056
  0
ARC
  5
238
330
1F
100
AcDbEntity
  8
0
  6
Continuous
 62
     7
370
    25
100
AcDbCircle
 10
97.6958461045
 20
36.9608198394
 30
0.0
 40
16.53614759050008
100
AcDbArc
 50
154.417134056
 51
205.582865944
  0
ARC
  5
239
330
1F
100
AcDbEntity
  8
0
  6
Continuous
 62
     7
370
    25
100
AcDbCircle
 10
85.4867594197
 20
31.1156941852
 30
0.0
 40
3.000000000000005
100
AcDbArc
 50
205.582865944
 51
315.0
  0
LINE
  5
23A
330
1F
100
AcDbEntity
  8
0
  6
Continuous
 62
     7
370
    25
100
AcDbLine
 10
87.6080794199
 20
28.9943740805
 30
0.0
 11
93.3755845702
 21
34.7618787651
 31
0.0
  0
ARC
  5
23B
330
1F
100
AcDbEntity
  8
0
  6
Continuous
 62
     7
370
    25
100
AcDbCircle
 10
92.3149245584
 20
35.8225389804
 30
0.0
 40
1.499999999999997
100
AcDbArc
 50
315.0
 51
11.9442688491
  0
ARC
  5
23C
330
1F
100
AcDbEntity
  8
0
  6
Continuous
 62
     7
370
    25
100
AcDbCircle
 10
97.6958461045
 20
36.9608198394
 30
0.0
 40
4.00000000000006
100
AcDbArc
 50
168.0557311509
 51
191.9442688491
  0
ARC
  5
23D
330
1F
100
AcDbEntity
  8
0
  6
Continuous
 62
     7
370
    25
100
AcDbCircle
 10
92.3149245584
 20
38.0991006985
 30
0.0
 40
1.499999999999997
100
AcDbArc
 50
348.0557311509
 51
45.0
  0
LINE
  5
23E
330
1F
100
AcDbEntity
  8
0
  6
Continuous
 62
     7
370
    25
100
AcDbLine
 10
93.3755845702
 20
39.1597609137
 30
0.0
 11
87.6080794199
 21
44.9272655984
 31
0.0
  0
ARC
  5
23F
330
1F
100
AcDbEntity
  8
0
  6
Continuous
 62
     7
370
    25
100
AcDbCircle
 10
76.9447780799
 20
53.79138723
 30
0.0
 40
7.18830849819237
100
AcDbArc
 50
317.6413797533
 51
320.9556630139
  0
ARC
  5
240
330
1F
100
AcDbEntity
  8
0
  6
Continuous
 62
     7
370
    25
100
AcDbCircle
 10
124.4112538202
 20
36.5585594289
 30
0.0
 40
7.188308498192365
100
AcDbArc
 50
175.8231979351
 51
179.1374811957
  0
ARC
  5
241
330
1F
100
AcDbEntity
  8
0
  6
Continuous
 62
     7
370
    25
100
AcDbCircle
 10
114.6210513525
 20
45.533036764
 30
0.0
 40
8.84803004877454
100
AcDbArc
 50
287.2308595877
 51
306.7993071033
  0
LINE
  5
242
330
1F
100
AcDbEntity
  8
0
  6
Continuous
 62
     7
370
    25
100
AcDbLine
 10
119.921144092
 20
38.4480773806
 30
0.0
 11
119.8736205637
 21
39.0397881725
 31
0.0
  0
ARC
  5
243
330
1F
100
AcDbEntity
  8
0
  6
Continuous
 62
     7
370
    25
100
AcDbCircle
 10
115.7722270568
 20
31.199749856
 30
0.0
 40
8.848030048774548
100
AcDbArc
 50
62.3843835674
 51
81.952831083
  0
ARC
  5
244
330
1F
100
AcDbEntity
  8
0
  6
Continuous
 62
     7
370
    25
100
AcDbCircle
 10
124.0046078193
 20
41.6217081545
 30
0.0
 40
7.188308498192379
100
AcDbArc
 50
190.046209475
 51
193.3604927356
  0
ARC
  5
245
330
1F
100
AcDbEntity
  8
0
  6
Continuous
 62
     7
370
    25
100
AcDbCircle
 10
185.9361499483
 20
27.5512938865
 30
0.0
 40
12.10019603811582
100
AcDbArc
 50
53.7094635377
 51
70.1454230818
  0
LINE
  5
246
330
1F
100
AcDbEntity
  8
0
  6
Continuous
 62
     7
370
    25
100
AcDbLine
 10
193.0373181911
 20
36.618095663
 30
0.0
 11
193.0980143459
 21
37.3043672448
 31
0.0
  0
ARC
  5
247
330
1F
100
AcDbEntity
  8
0
  6
Continuous
 62
     7
370
    25
100
AcDbCircle
 10
187.6984353029
 20
47.4767822526
 30
0.0
 40
12.10019603811582
100
AcDbArc
 50
279.7459699378
 51
296.1819294819
  0
LINE
  5
248
330
1F
100
AcDbEntity
  8
0
  6
Continuous
 62
     7
370
    25
100
AcDbLine
 10
189.6688902141
 20
35.099783287
 30
0.0
 11
189.7467580946
 21
35.5512167593
 31
0.0
  0
LINE
  5
249
330
1F
100
AcDbEntity
  8
0
  6
Continuous
 62
     7
370
    25
100
AcDbLine
 10
189.5928663523
 20
34.6480350276
 30
0.0
 11
189.6688902141
 21
35.099783287
 31
0.0
  0
ARC
  5
24A
330
1F
100
AcDbEntity
  8
0
  6
Continuous
 62
     7
370
    25
100
AcDbCircle
 10
183.710817627
 20
24.0737152963
 30
0.0
 40
12.10019603811581
100
AcDbArc
 50
44.4786943069
 51
60.914653851
  0
LINE
  5
24B
330
1F
100
AcDbEntity
  8
0
  6
Continuous
 62
     7
370
    25
100
AcDbLine
 10
192.1744441004
 20
31.8839967517
 30
0.0
 11
192.3444402726
 21
32.5516451416
 31
0.0
  0
ARC
  5
24C
330
1F
100
AcDbEntity
  8
0
  6
Continuous
 62
     7
370
    25
100
AcDbCircle
 10
188.6465549596
 20
43.4584833702
 30
0.0
 40
12.10019603811581
100
AcDbArc
 50
270.515200707
 51
286.9511602511
  0
LINE
  5
24D
330
1F
100
AcDbEntity
  8
0
  6
Continuous
 62
     7
370
    25
100
AcDbLine
 10
188.6060835184
 20
30.9256802579
 30
0.0
 11
188.7553577633
 21
31.3587769201
 31
0.0
  0
LINE
  5
24E
330
1F
100
AcDbEntity
  8
0
  6
Continuous
 62
     7
370
    25
100
AcDbLine
 10
188.4585787864
 20
30.4919773048
 30
0.0
 11
188.6060835184
 21
30.9256802579
 31
0.0
  0
ARC
  5
24F
330
1F
100
AcDbEntity
  8
0
  6
Continuous
 62
     7
370
    25
100
AcDbCircle
 10
180.9564599389
 20
20.9981388434
 30
0.0
 40
12.10019603811581
100
AcDbArc
 50
35.2479250762
 51
51.6838846203
  0
LINE
  5
250
330
1F
100
AcDbEntity
  8
0
  6
Continuous
 62
     7
370
    25
100
AcDbLine
 10
190.5633435906
 20
27.3496176382
 30
0.0
 11
190.838236487
 21
27.9813505044
 31
0.0
  0
ARC
  5
251
330
1F
100
AcDbEntity
  8
0
  6
Continuous
 62
     7
370
    25
100
AcDbCircle
 10
188.9378162453
 20
39.3401313145
 30
0.0
 40
12.10019603811581
100
AcDbArc
 50
261.2844314762
 51
277.7203910203
  0
LINE
  5
252
330
1F
100
AcDbEntity
  8
0
  6
Continuous
 62
     7
370
    25
100
AcDbLine
 10
186.8874655427
 20
26.9761163076
 30
0.0
 11
187.1042811633
 21
27.3796593105
 31
0.0
  0
LINE
  5
253
330
1F
100
AcDbEntity
  8
0
  6
Continuous
 62
     7
370
    25
100
AcDbLine
 10
186.6723002256
 20
26.5716913423
 30
0.0
 11
186.8874655427
 21
26.9761163076
 31
0.0
  0
ARC
  5
254
330
1F
100
AcDbEntity
  8
0
  6
Continuous
 62
     7
370
    25
100
AcDbCircle
 10
177.7444133013
 20
18.4042203426
 30
0.0
 40
12.10019603811582
100
AcDbArc
 50
26.0171558454
 51
42.4531153895
  0
LINE
  5
255
330
1F
100
AcDbEntity
  8
0
  6
Continuous
 62
     7
370
    25
100
AcDbLine
 10
188.2457380505
 20
23.1323980993
 30
0.0
 11
188.6184086414
 21
23.7118539667
 31
0.0
  0
ARC
  5
256
330
1F
100
AcDbEntity
  8
0
  6
Continuous
 62
     7
370
    25
100
AcDbCircle
 10
188.5646756454
 20
35.2283892404
 30
0.0
 40
12.10019603811581
100
AcDbArc
 50
252.0536622455
 51
268.4896217896
  0
LINE
  5
257
330
1F
100
AcDbEntity
  8
0
  6
Continuous
 62
     7
370
    25
100
AcDbLine
 10
184.5575479181
 20
23.3533841824
 30
0.0
 11
184.8362890394
 21
23.7169222241
 31
0.0
  0
LINE
  5
258
330
1F
100
AcDbEntity
  8
0
  6
Continuous
 62
     7
370
    25
100
AcDbLine
 10
184.2802950503
 20
22.9887117898
 30
0.0
 11
184.5575479181
 21
23.3533841824
 31
0.0
  0
ARC
  5
259
330
1F
100
AcDbEntity
  8
0
  6
Continuous
 62
     7
370
    25
100
AcDbCircle
 10
174.1578680349
 20
16.3591409204
 30
0.0
 40
12.10019603811581
100
AcDbArc
 50
16.7863866146
 51
33.2223461587
  0
LINE
  5
25A
330
1F
100
AcDbEntity
  8
0
  6
Continuous
 62
     7
370
    25
100
AcDbLine
 10
185.2816568078
 20
19.3415575927
 30
0.0
 11
185.742452866
 21
19.8537291294
 31
0.0
  0
ARC
  5
25B
330
1F
100
AcDbEntity
  8
0
  6
Continuous
 62
     7
370
    25
100
AcDbCircle
 10
187.5367973057
 20
31.2297491078
 30
0.0
 40
12.10019603811581
100
AcDbArc
 50
242.8228930147
 51
259.2588525588
  0
LINE
  5
25C
330
1F
100
AcDbEntity
  8
0
  6
Continuous
 62
     7
370
    25
100
AcDbLine
 10
181.6766766222
 20
20.1513109064
 30
0.0
 11
182.0101236315
 21
20.4654273843
 31
0.0
  0
LINE
  5
25D
330
1F
100
AcDbEntity
  8
0
  6
Continuous
 62
     7
370
    25
100
AcDbLine
 10
181.3445167006
 20
19.8358346974
 30
0.0
 11
181.6766766222
 21
20.1513109064
 31
0.0
  0
ARC
  5
25E
330
1F
100
AcDbEntity
  8
0
  6
Continuous
 62
     7
370
    25
100
AcDbCircle
 10
170.2897137781
 20
14.9158670597
 30
0.0
 40
12.10019603811582
100
AcDbArc
 50
7.5556173839
 51
23.991576928
  0
LINE
  5
25F
330
1F
100
AcDbEntity
  8
0
  6
Continuous
 62
     7
370
    25
100
AcDbLine
 10
181.7478650571
 20
16.075280801
 30
0.0
 11
182.2848526151
 21
16.5069041109
 31
0.0
  0
ARC
  5
260
330
1F
100
AcDbEntity
  8
0
  6
Continuous
 62
     7
370
    25
100
AcDbCircle
 10
185.8808027352
 20
27.4477735958
 30
0.0
 40
12.10019603811581
100
AcDbArc
 50
233.5921237839
 51
250.028083328
  0
LINE
  5
261
330
1F
100
AcDbEntity
  8
0
  6
Continuous
 62
     7
370
    25
100
AcDbLine
 10
178.3194627003
 20
17.4528279608
 30
0.0
 11
178.6989794434
 21
17.7093887037
 31
0.0
  0
LINE
  5
262
330
1F
100
AcDbEntity
  8
0
  6
Continuous
 62
     7
370
    25
100
AcDbLine
 10
177.9409974204
 20
17.1947193598
 30
0.0
 11
178.3194627003
 21
17.4528279608
 31
0.0
  0
ARC
  5
263
330
1F
100
AcDbEntity
  8
0
  6
Continuous
 62
     7
370
    25
100
AcDbCircle
 10
166.2401336944
 20
14.1117787953
 30
0.0
 40
12.10019603811582
100
AcDbArc
 50
358.3248481531
 51
14.7608076972
  0
LINE
  5
264
330
1F
100
AcDbEntity
  8
0
  6
Continuous
 62
     7
370
    25
100
AcDbLine
 10
177.7358885245
 20
13.4181616163
 30
0.0
 11
178.3351582797
 21
13.7580571031
 31
0.0
  0
ARC
  5
265
330
1F
100
AcDbEntity
  8
0
  6
Continuous
 62
     7
370
    25
100
AcDbCircle
 10
183.6395813234
 20
23.9804138835
 30
0.0
 40
12.10019603811582
100
AcDbArc
 50
224.3613545532
 51
240.7973140973
  0
LINE
  5
266
330
1F
100
AcDbEntity
  8
0
  6
Continuous
 62
     7
370
    25
100
AcDbLine
 10
174.5728562908
 20
15.3278236544
 30
0.0
 11
174.9886135892
 21
15.5201827442
 31
0.0
  0
LINE
  5
267
330
1F
100
AcDbEntity
  8
0
  6
Continuous
 62
     7
370
    25
100
AcDbLine
 10
174.1578896852
 20
15.1337676948
 30
0.0
 11
174.5728562908
 21
15.3278236544
 31
0.0
  0
ARC
  5
268
330
1F
100
AcDbEntity
  8
0
  6
Continuous
 62
     7
370
    25
100
AcDbCircle
 10
162.1140097808
 20
13.9677015909
 30
0.0
 40
12.10019603811581
100
AcDbArc
 50
349.0940789223
 51
5.5300384664
  0
LINE
  5
269
330
1F
100
AcDbEntity
  8
0
  6
Continuous
 62
     7
370
    25
100
AcDbLine
 10
173.3496339382
 20
11.4390191888
 30
0.0
 11
173.9956663312
 21
11.678382129
 31
0.0
  0
ARC
  5
26A
330
1F
100
AcDbEntity
  8
0
  6
Continuous
 62
     7
370
    25
100
AcDbCircle
 10
180.8711795276
 20
20.9174727662
 30
0.0
 40
12.10019603811583
100
AcDbArc
 50
215.1305853224
 51
231.5665448665
  0
LINE
  5
26B
330
1F
100
AcDbEntity
  8
0
  6
Continuous
 62
     7
370
    25
100
AcDbLine
 10
170.5338937552
 20
13.8313372886
 30
0.0
 11
170.9751231918
 21
13.9545121496
 31
0.0
  0
LINE
  5
26C
330
1F
100
AcDbEntity
  8
0
  6
Continuous
 62
     7
370
    25
100
AcDbLine
 10
170.0931709581
 20
13.706359387
 30
0.0
 11
170.5338937552
 21
13.8313372886
 31
0.0
  0
ARC
  5
26D
330
1F
100
AcDbEntity
  8
0
  6
Continuous
 62
     7
370
    25
100
AcDbCircle
 10
158.0182064793
 20
14.4873669704
 30
0.0
 40
12.10019603811581
100
AcDbArc
 50
339.8633096916
 51
356.2992692357
  0
LINE
  5
26E
330
1F
100
AcDbEntity
  8
0
  6
Continuous
 62
     7
370
    25
100
AcDbLine
 10
168.7027030946
 20
10.1891079253
 30
0.0
 11
169.378765984
 21
10.3217412984
 31
0.0
  0
ARC
  5
26F
330
1F
100
AcDbEntity
  8
0
  6
Continuous
 62
     7
370
    25
100
AcDbCircle
 10
177.6472975001
 20
18.3382788099
 30
0.0
 40
12.10019603811581
100
AcDbArc
 50
205.8998160916
 51
222.3357756357
  0
LINE
  5
270
330
1F
100
AcDbEntity
  8
0
  6
Continuous
 62
     7
370
    25
100
AcDbLine
 10
166.3071805467
 20
13.002124921
 30
0.0
 11
166.7624550262
 21
13.0529267048
 31
0.0
  0
LINE
  5
271
330
1F
100
AcDbEntity
  8
0
  6
Continuous
 62
     7
370
    25
100
AcDbLine
 10
165.8521174775
 20
12.9494623547
 30
0.0
 11
166.3071805467
 21
13.002124921
 31
0.0
  0
ARC
  5
272
330
1F
100
AcDbEntity
  8
0
  6
Continuous
 62
     7
370
    25
100
AcDbCircle
 10
154.058802944
 20
15.6573158734
 30
0.0
 40
12.1001960381158
100
AcDbArc
 50
330.6325404608
 51
347.0685000049
  0
LINE
  5
273
330
1F
100
AcDbEntity
  8
0
  6
Continuous
 62
     7
370
    25
100
AcDbLine
 10
163.915448831
 20
9.7008061862
 30
0.0
 11
164.6040327703
 21
9.7232715493
 31
0.0
  0
ARC
  5
274
330
1F
100
AcDbEntity
  8
0
  6
Continuous
 62
     7
370
    25
100
AcDbCircle
 10
174.0514320921
 20
16.3096317833
 30
0.0
 40
12.10019603811582
100
AcDbArc
 50
196.6690468608
 51
213.1050064049
  0
LINE
  5
275
330
1F
100
AcDbEntity
  8
0
  6
Continuous
 62
     7
370
    25
100
AcDbLine
 10
162.0021873475
 20
12.8616609877
 30
0.0
 11
162.4597153948
 21
12.8387746667
 31
0.0
  0
LINE
  5
276
330
1F
100
AcDbEntity
  8
0
  6
Continuous
 62
     7
370
    25
100
AcDbLine
 10
161.5445695441
 20
12.8826790756
 30
0.0
 11
162.0021873475
 21
12.8616609877
 31
0.0
  0
ARC
  5
277
330
1F
100
AcDbEntity
  8
0
  6
Continuous
 62
     7
370
    25
100
AcDbCircle
 10
150.3383456467
 20
17.447247238
 30
0.0
 40
12.10019603811582
100
AcDbArc
 50
321.40177123
 51
337.8377307741
  0
LINE
  5
278
330
1F
100
AcDbEntity
  8
0
  6
Continuous
 62
     7
370
    25
100
AcDbLine
 10
159.1118589365
 20
9.9867538815
 30
0.0
 11
159.7951300298
 21
9.8984738147
 31
0.0
  0
ARC
  5
279
330
1F
100
AcDbEntity
  8
0
  6
Continuous
 62
     7
370
    25
100
AcDbCircle
 10
170.1767143287
 20
14.8840725788
 30
0.0
 40
12.10019603811582
100
AcDbArc
 50
187.4382776301
 51
203.8742371742
  0
LINE
  5
27A
330
1F
100
AcDbEntity
  8
0
  6
Continuous
 62
     7
370
    25
100
AcDbLine
 10
157.7304109321
 20
13.4135869598
 30
0.0
 11
158.1783426316
 21
13.3176048553
 31
0.0
  0
LINE
  5
27B
330
1F
100
AcDbEntity
  8
0
  6
Continuous
 62
     7
370
    25
100
AcDbLine
 10
157.2820904055
 20
13.5077399468
 30
0.0
 11
157.7304109321
 21
13.4135869598
 31
0.0
  0
ARC
  5
27C
330
1F
100
AcDbEntity
  8
0
  6
Continuous
 62
     7
370
    25
100
AcDbCircle
 10
146.953192477
 20
19.8108027819
 30
0.0
 40
12.10019603811582
100
AcDbArc
 50
312.1710019992
 51
328.6069615434
  0
LINE
  5
27D
330
1F
100
AcDbEntity
  8
0
  6
Continuous
 62
     7
370
    25
100
AcDbLine
 10
154.4163442539
 20
11.0395507222
 30
0.0
 11
155.0766053931
 21
10.8428088283
 31
0.0
  0
ARC
  5
27E
330
1F
100
AcDbEntity
  8
0
  6
Continuous
 62
     7
370
    25
100
AcDbCircle
 10
166.1234973648
 20
14.098522431
 30
0.0
 40
12.10019603811582
100
AcDbArc
 50
178.2075083993
 51
194.6434679434
  0
LINE
  5
27F
330
1F
100
AcDbEntity
  8
0
  6
Continuous
 62
     7
370
    25
100
AcDbLine
 10
153.6024875329
 20
14.6436070358
 30
0.0
 11
154.0292223306
 21
14.4770139163
 31
0.0
  0
LINE
  5
280
330
1F
100
AcDbEntity
  8
0
  6
Continuous
 62
     7
370
    25
100
AcDbLine
 10
153.1750756638
 20
14.8084548568
 30
0.0
 11
153.6024875329
 21
14.6436070358
 31
0.0
  0
ARC
  5
281
330
1F
100
AcDbEntity
  8
0
  6
Continuous
 62
     7
370
    25
100
AcDbCircle
 10
143.9910171241
 20
22.6867676582
 30
0.0
 40
12.10019603811581
100
AcDbArc
 50
302.9402327685
 51
319.3761923126
  0
LINE
  5
282
330
1F
100
AcDbEntity
  8
0
  6
Continuous
 62
     7
370
    25
100
AcDbLine
 10
149.9505146728
 20
12.8319275832
 30
0.0
 11
150.5706665428
 21
12.5318200594
 31
0.0
  0
ARC
  5
283
330
1F
100
AcDbEntity
  8
0
  6
Continuous
 62
     7
370
    25
100
AcDbCircle
 10
161.9967573907
 20
13.973326676
 30
0.0
 40
12.10019603811582
100
AcDbArc
 50
168.9767391685
 51
185.4126987126
  0
LINE
  5
284
330
1F
100
AcDbEntity
  8
0
  6
Continuous
 62
     7
370
    25
100
AcDbLine
 10
149.7253292562
 20
16.5198643958
 30
0.0
 11
150.1198142157
 21
16.2869741475
 31
0.0
  0
LINE
  5
285
330
1F
100
AcDbEntity
  8
0
  6
Continuous
 62
     7
370
    25
100
AcDbLine
 10
149.3298962103
 20
16.7511397308
 30
0.0
 11
149.7253292562
 21
16.5198643958
 31
0.0
  0
ARC
  5
286
330
1F
100
AcDbEntity
  8
0
  6
Continuous
 62
     7
370
    25
100
AcDbCircle
 10
141.5285383734
 20
26.0006558871
 30
0.0
 40
12.10019603811582
100
AcDbArc
 50
293.7094635377
 51
310.1454230818
  0
LINE
  5
287
330
1F
100
AcDbEntity
  8
0
  6
Continuous
 62
     7
370
    25
100
AcDbLine
 10
145.830035335
 20
15.317463622
 30
0.0
 11
146.3940144838
 21
14.9217632865
 31
0.0
  0
ARC
  5
288
330
1F
100
AcDbEntity
  8
0
  6
Continuous
 62
     7
370
    25
100
AcDbCircle
 10
157.903374804
 20
14.5117278183
 30
0.0
 40
12.10019603811583
100
AcDbArc
 50
159.7459699378
 51
176.1819294819
  0
LINE
  5
289
330
1F
100
AcDbEntity
  8
0
  6
Continuous
 62
     7
370
    25
100
AcDbLine
 10
146.1993513019
 20
18.9937626278
 30
0.0
 11
146.551370746
 21
18.700610221
 31
0.0
  0
LINE
  5
28A
330
1F
100
AcDbEntity
  8
0
  6
Continuous
 62
     7
370
    25
100
AcDbLine
 10
145.8461379023
 20
19.2854752099
 30
0.0
 11
146.1993513019
 21
18.9937626278
 31
0.0
  0
ARC
  5
28B
330
1F
100
AcDbEntity
  8
0
  6
Continuous
 62
     7
370
    25
100
AcDbCircle
 10
139.6295331313
 20
29.6666395043
 30
0.0
 40
12.1001960381158
100
AcDbArc
 50
284.4786943069
 51
300.914653851
  0
LINE
  5
28C
330
1F
100
AcDbEntity
  8
0
  6
Continuous
 62
     7
370
    25
100
AcDbLine
 10
142.1616209061
 20
18.4317820972
 30
0.0
 11
142.6548232646
 21
17.9507372236
 31
0.0
  0
ARC
  5
28D
330
1F
100
AcDbEntity
  8
0
  6
Continuous
 62
     7
370
    25
100
AcDbCircle
 10
153.9493660635
 20
15.6997815508
 30
0.0
 40
12.10019603811583
100
AcDbArc
 50
150.515200707
 51
166.9511602511
  0
LINE
  5
28E
330
1F
100
AcDbEntity
  8
0
  6
Continuous
 62
     7
370
    25
100
AcDbLine
 10
143.1158763678
 20
22.0012341892
 30
0.0
 11
143.4163117172
 21
21.6554080402
 31
0.0
  0
LINE
  5
28F
330
1F
100
AcDbEntity
  8
0
  6
Continuous
 62
     7
370
    25
100
AcDbLine
 10
142.8140309961
 20
22.3458272671
 30
0.0
 11
143.1158763678
 21
22.0012341892
 31
0.0
  0
ARC
  5
290
330
1F
100
AcDbEntity
  8
0
  6
Continuous
 62
     7
370
    25
100
AcDbCircle
 10
138.3431846359
 20
33.5897714597
 30
0.0
 40
12.10019603811581
100
AcDbArc
 50
275.2479250762
 51
291.6838846203
  0
LINE
  5
291
330
1F
100
AcDbEntity
  8
0
  6
Continuous
 62
     7
370
    25
100
AcDbLine
 10
139.0402858467
 20
22.0942267483
 30
0.0
 11
139.4499355318
 21
21.54029657
 31
0.0
  0
ARC
  5
292
330
1F
100
AcDbEntity
  8
0
  6
Continuous
 62
     7
370
    25
100
AcDbCircle
 10
150.2371379188
 20
17.5067179062
 30
0.0
 40
12.10019603811583
100
AcDbArc
 50
141.2844314762
 51
157.7203910203
  0
LINE
  5
293
330
1F
100
AcDbEntity
  8
0
  6
Continuous
 62
     7
370
    25
100
AcDbLine
 10
140.554763502
 20
25.4643813973
 30
0.0
 11
140.7958326252
 21
25.074842692
 31
0.0
  0
LINE
  5
294
330
1F
100
AcDbEntity
  8
0
  6
Continuous
 62
     7
370
    25
100
AcDbLine
 10
140.3121018173
 20
25.8529329007
 30
0.0
 11
140.554763502
 21
25.4643813973
 31
0.0
  0
ARC
  5
295
330
1F
100
AcDbEntity
  8
0
  6
Continuous
 62
     7
370
    25
100
AcDbCircle
 10
137.7028086377
 20
37.6684446964
 30
0.0
 40
12.10019603811581
100
AcDbArc
 50
266.0171558454
 51
282.4531153895
  0
LINE
  5
296
330
1F
100
AcDbEntity
  8
0
  6
Continuous
 62
     7
370
    25
100
AcDbLine
 10
136.5468670936
 20
26.2099423712
 30
0.0
 11
136.862356341
 21
25.5974720498
 31
0.0
  0
ARC
  5
297
330
1F
100
AcDbEntity
  8
0
  6
Continuous
 62
     7
370
    25
100
AcDbCircle
 10
146.8628351287
 20
19.8857381819
 30
0.0
 40
12.10019603811581
100
AcDbArc
 50
132.0536622455
 51
148.4896217896
  0
LINE
  5
298
330
1F
100
AcDbEntity
  8
0
  6
Continuous
 62
     7
370
    25
100
AcDbLine
 10
138.5823433609
 20
29.2935141629
 30
0.0
 11
138.757804534
 21
28.8703491246
 31
0.0
  0
LINE
  5
299
330
1F
100
AcDbEntity
  8
0
  6
Continuous
 62
     7
370
    25
100
AcDbLine
 10
138.4051536532
 20
29.7159592887
 30
0.0
 11
138.5823433609
 21
29.2935141629
 31
0.0
  0
ARC
  5
29A
330
1F
100
AcDbEntity
  8
0
  6
Continuous
 62
     7
370
    25
100
AcDbCircle
 10
137.7249905385
 20
41.7970237201
 30
0.0
 40
12.10019603811581
100
AcDbArc
 50
256.7863866146
 51
273.2223461587
  0
LINE
  5
29B
330
1F
100
AcDbEntity
  8
0
  6
Continuous
 62
     7
370
    25
100
AcDbLine
 10
134.7459444167
 20
30.6723316466
 30
0.0
 11
134.9591018022
 21
30.0171853309
 31
0.0
  0
ARC
  5
29C
330
1F
100
AcDbEntity
  8
0
  6
Continuous
 62
     7
370
    25
100
AcDbCircle
 10
143.9138503631
 20
22.7752270024
 30
0.0
 40
12.10019603811582
100
AcDbArc
 50
122.8228930147
 51
139.2588525588
  0
LINE
  5
29D
330
1F
100
AcDbEntity
  8
0
  6
Continuous
 62
     7
370
    25
100
AcDbLine
 10
137.249702713
 20
33.3894592045
 30
0.0
 11
137.3550110818
 21
32.9436276374
 31
0.0
  0
LINE
  5
29E
330
1F
100
AcDbEntity
  8
0
  6
Continuous
 62
     7
370
    25
100
AcDbLine
 10
137.1425726773
 20
33.8348567752
 30
0.0
 11
137.249702713
 21
33.3894592045
 31
0.0
  0
ARC
  5
29F
330
1F
100
AcDbEntity
  8
0
  6
Continuous
 62
     7
370
    25
100
AcDbCircle
 10
138.4091558389
 20
45.8685805026
 30
0.0
 40
12.10019603811582
100
AcDbArc
 50
247.5556173839
 51
263.991576928
  0
LINE
  5
2A0
330
1F
100
AcDbEntity
  8
0
  6
Continuous
 62
     7
370
    25
100
AcDbLine
 10
133.6841621758
 20
35.3658225654
 30
0.0
 11
133.7894649567
 21
34.6849675557
 31
0.0
  0
ARC
  5
2A1
330
1F
100
AcDbEntity
  8
0
  6
Continuous
 62
     7
370
    25
100
AcDbCircle
 10
141.4665607785
 20
26.100348125
 30
0.0
 40
12.10019603811581
100
AcDbArc
 50
113.5921237839
 51
130.028083328
  0
LINE
  5
2A2
330
1F
100
AcDbEntity
  8
0
  6
Continuous
 62
     7
370
    25
100
AcDbLine
 10
136.5913545103
 20
37.6461334094
 30
0.0
 11
136.6237831624
 21
37.1891826658
 31
0.0
  0
LINE
  5
2A3
330
1F
100
AcDbEntity
  8
0
  6
Continuous
 62
     7
370
    25
100
AcDbLine
 10
136.5570576252
 20
38.1029479472
 30
0.0
 11
136.5913545103
 21
37.6461334094
 31
0.0
  0
ARC
  5
2A4
330
1F
100
AcDbEntity
  8
0
  6
Continuous
 62
     7
370
    25
100
AcDbCircle
 10
139.7375850169
 20
49.7776638619
 30
0.0
 40
12.10019603811581
100
AcDbArc
 50
238.3248481531
 51
254.7608076972
  0
LINE
  5
2A5
330
1F
100
AcDbEntity
  8
0
  6
Continuous
 62
     7
370
    25
100
AcDbLine
 10
133.3890186013
 20
40.1688562274
 30
0.0
 11
133.383739865
 21
39.4799261271
 31
0.0
  0
ARC
  5
2A6
330
1F
100
AcDbEntity
  8
0
  6
Continuous
 62
     7
370
    25
100
AcDbCircle
 10
139.5843498895
 20
29.7749826593
 30
0.0
 40
12.10019603811581
100
AcDbArc
 50
104.3613545532
 51
120.7973140973
  0
LINE
  5
2A7
330
1F
100
AcDbEntity
  8
0
  6
Continuous
 62
     7
370
    25
100
AcDbLine
 10
136.6243494065
 20
41.9532913515
 30
0.0
 11
136.5830601515
 21
41.4970557472
 31
0.0
  0
LINE
  5
2A8
330
1F
100
AcDbEntity
  8
0
  6
Continuous
 62
     7
370
    25
100
AcDbLine
 10
136.6637760164
 20
42.4096915672
 30
0.0
 11
136.6243494065
 21
41.9532913515
 31
0.0
  0
ARC
  5
2A9
330
1F
100
AcDbEntity
  8
0
  6
Continuous
 62
     7
370
    25
100
AcDbCircle
 10
141.6758724545
 20
53.4230305925
 30
0.0
 40
12.10019603811582
100
AcDbArc
 50
229.0940789223
 51
245.5300384664
  0
LINE
  5
2AA
330
1F
100
AcDbEntity
  8
0
  6
Continuous
 62
     7
370
    25
100
AcDbLine
 10
133.8681561263
 20
44.9570364585
 30
0.0
 11
133.7524355711
 21
44.2778741276
 31
0.0
  0
ARC
  5
2AB
330
1F
100
AcDbEntity
  8
0
  6
Continuous
 62
     7
370
    25
100
AcDbCircle
 10
138.3159659695
 20
33.703959501
 30
0.0
 40
12.10019603811583
100
AcDbArc
 50
95.1305853224
 51
111.5665448665
  0
LINE
  5
2AC
330
1F
100
AcDbEntity
  8
0
  6
Continuous
 62
     7
370
    25
100
AcDbLine
 10
137.3478361727
 20
46.1993797949
 30
0.0
 11
137.2338944436
 21
45.7556758342
 31
0.0
  0
LINE
  5
2AD
330
1F
100
AcDbEntity
  8
0
  6
Continuous
 62
     7
370
    25
100
AcDbLine
 10
137.4599636854
 20
46.6435452258
 30
0.0
 11
137.3478361727
 21
46.1993797949
 31
0.0
  0
ARC
  5
2AE
330
1F
100
AcDbEntity
  8
0
  6
Continuous
 62
     7
370
    25
100
AcDbCircle
 10
144.1738175254
 20
56.7102676107
 30
0.0
 40
12.10019603811582
100
AcDbArc
 50
219.8633096916
 51
236.2992692357
  0
LINE
  5
2AF
330
1F
100
AcDbEntity
  8
0
  6
Continuous
 62
     7
370
    25
100
AcDbLine
 10
135.1091676713
 20
49.6063514879
 30
0.0
 11
134.8860004307
 21
48.9545476889
 31
0.0
  0
ARC
  5
2B0
330
1F
100
AcDbEntity
  8
0
  6
Continuous
 62
     7
370
    25
100
AcDbCircle
 10
137.6942594958
 20
37.7855202137
 30
0.0
 40
12.10019603811582
100
AcDbArc
 50
85.8998160916
 51
102.3357756357
  0
LINE
  5
2B1
330
1F
100
AcDbEntity
  8
0
  6
Continuous
 62
     7
370
    25
100
AcDbLine
 10
138.7430728735
 20
50.2744273549
 30
0.0
 11
138.5594309629
 21
49.8547463944
 31
0.0
  0
LINE
  5
2B2
330
1F
100
AcDbEntity
  8
0
  6
Continuous
 62
     7
370
    25
100
AcDbLine
 10
138.9249974252
 20
50.6948543047
 30
0.0
 11
138.7430728735
 21
50.2744273549
 31
0.0
  0
ARC
  5
2B3
330
1F
100
AcDbEntity
  8
0
  6
Continuous
 62
     7
370
    25
100
AcDbCircle
 10
147.1667247642
 20
59.5542372046
 30
0.0
 40
12.10019603811582
100
AcDbArc
 50
210.6325404608
 51
227.0685000049
  0
LINE
  5
2B4
330
1F
100
AcDbEntity
  8
0
  6
Continuous
 62
     7
370
    25
100
AcDbLine
 10
137.0799114318
 20
53.9963863125
 30
0.0
 11
136.7550772936
 21
53.3888221985
 31
0.0
  0
ARC
  5
2B5
330
1F
100
AcDbEntity
  8
0
  6
Continuous
 62
     7
370
    25
100
AcDbCircle
 10
137.7353323395
 20
41.913954519
 30
0.0
 40
12.10019603811581
100
AcDbArc
 50
76.6690468608
 51
93.1050064049
  0
LINE
  5
2B6
330
1F
100
AcDbEntity
  8
0
  6
Continuous
 62
     7
370
    25
100
AcDbLine
 10
140.7739241929
 20
54.072891668
 30
0.0
 11
140.5253411592
 21
53.6881045705
 31
0.0
  0
LINE
  5
2B7
330
1F
100
AcDbEntity
  8
0
  6
Continuous
 62
     7
370
    25
100
AcDbLine
 10
141.0209351541
 20
54.4586920446
 30
0.0
 11
140.7739241929
 21
54.072891668
 31
0.0
  0
ARC
  5
2B8
330
1F
100
AcDbEntity
  8
0
  6
Continuous
 62
     7
370
    25
100
AcDbCircle
 10
150.5770794456
 20
61.8812820555
 30
0.0
 40
12.10019603811581
100
AcDbArc
 50
201.40177123
 51
217.8377307741
  0
LINE
  5
2B9
330
1F
100
AcDbEntity
  8
0
  6
Continuous
 62
     7
370
    25
100
AcDbLine
 10
139.7293472053
 20
58.0134422785
 30
0.0
 11
139.3112578751
 21
57.4658525443
 31
0.0
  0
ARC
  5
2BA
330
1F
100
AcDbEntity
  8
0
  6
Continuous
 62
     7
370
    25
100
AcDbCircle
 10
138.4381207355
 20
45.9823381368
 30
0.0
 40
12.10019603811582
100
AcDbArc
 50
67.4382776301
 51
83.8742371742
  0
LINE
  5
2BB
330
1F
100
AcDbEntity
  8
0
  6
Continuous
 62
     7
370
    25
100
AcDbLine
 10
143.3877946199
 20
57.4963961994
 30
0.0
 11
143.0807059021
 21
57.156467185
 31
0.0
  0
LINE
  5
2BC
330
1F
100
AcDbEntity
  8
0
  6
Continuous
 62
     7
370
    25
100
AcDbLine
 10
143.6934938045
 20
57.8375769114
 30
0.0
 11
143.3877946199
 21
57.4963961994
 31
0.0
  0
ARC
  5
2BD
330
1F
100
AcDbEntity
  8
0
  6
Continuous
 62
     7
370
    25
100
AcDbCircle
 10
154.3165551748
 20
63.6311329241
 30
0.0
 40
12.1001960381158
100
AcDbArc
 50
192.1710019992
 51
208.6069615434
  0
LINE
  5
2BE
330
1F
100
AcDbEntity
  8
0
  6
Continuous
 62
     7
370
    25
100
AcDbLine
 10
142.9888532819
 20
61.5534794783
 30
0.0
 11
142.4883381785
 21
61.0800472354
 31
0.0
  0
ARC
  5
2BF
330
1F
100
AcDbEntity
  8
0
  6
Continuous
 62
     7
370
    25
100
AcDbCircle
 10
139.7844228334
 20
49.8853020685
 30
0.0
 40
12.10019603811581
100
AcDbArc
 50
58.2075083993
 51
74.6434679434
  0
LINE
  5
2C0
330
1F
100
AcDbEntity
  8
0
  6
Continuous
 62
     7
370
    25
100
AcDbLine
 10
146.8734537573
 20
60.7439981108
 30
0.0
 11
146.5169844539
 21
60.4562715894
 31
0.0
  0
ARC
  5
2C1
330
1F
100
AcDbEntity
  8
0
  6
Continuous
 62
     7
370
    25
100
AcDbCircle
 10
158.2883014945
 20
64.7584695922
 30
0.0
 40
12.10019603811583
100
AcDbArc
 50
182.9402327685
 51
199.3761923126
  0
LINE
  5
2C2
330
1F
100
AcDbEntity
  8
0
  6
Continuous
 62
     7
370
    25
100
AcDbLine
 10
146.7740108581
 20
64.5248119986
 30
0.0
 11
146.2040339918
 21
64.13779904
 31
0.0
  0
ARC
  5
2C3
330
1F
100
AcDbEntity
  8
0
  6
Continuous
 62
     7
370
    25
100
AcDbCircle
 10
141.7393701163
 20
53.5217615984
 30
0.0
 40
12.1001960381158
100
AcDbArc
 50
48.9767391685
 51
65.4126987126
  0
LINE
  5
2C4
330
1F
100
AcDbEntity
  8
0
  6
Continuous
 62
     7
370
    25
100
AcDbLine
 10
150.0804500045
 20
62.8758606767
 30
0.0
 11
149.6815198423
 21
62.6506724661
 31
0.0
  0
LINE
  5
2C5
330
1F
100
AcDbEntity
  8
0
  6
Continuous
 62
     7
370
    25
100
AcDbLine
 10
150.478457226
 20
63.1026787018
 30
0.0
 11
150.0804500045
 21
62.8758606767
 31
0.0
  0
ARC
  5
2C6
330
1F
100
AcDbEntity
  8
0
  6
Continuous
 62
     7
370
    25
100
AcDbCircle
 10
162.3894522614
 20
65.234094632
 30
0.0
 40
12.10019603811584
100
AcDbArc
 50
173.7094635377
 51
190.1454230818
  0
LINE
  5
2C7
330
1F
100
AcDbEntity
  8
0
  6
Continuous
 62
     7
370
    25
100
AcDbLine
 10
150.9867870571
 20
66.8504865175
 30
0.0
 11
150.362110822
 21
66.5599138742
 31
0.0
  0
ARC
  5
2C8
330
1F
100
AcDbEntity
  8
0
  6
Continuous
 62
     7
370
    25
100
AcDbCircle
 10
144.2523304762
 20
56.7975343348
 30
0.0
 40
12.10019603811582
100
AcDbArc
 50
39.7459699378
 51
56.1819294819
  0
LINE
  5
2C9
330
1F
100
AcDbEntity
  8
0
  6
Continuous
 62
     7
370
    25
100
AcDbLine
 10
153.9858990671
 20
64.6924984908
 30
0.0
 11
153.5560117425
 21
64.5342164939
 31
0.0
  0
LINE
  5
2CA
330
1F
100
AcDbEntity
  8
0
  6
Continuous
 62
     7
370
    25
100
AcDbLine
 10
154.4151353972
 20
64.8525332367
 30
0.0
 11
153.9858990671
 21
64.6924984908
 31
0.0
  0
ARC
  5
2CB
330
1F
100
AcDbEntity
  8
0
  6
Continuous
 62
     7
370
    25
100
AcDbCircle
 10
166.5137898248
 20
65.045689605
 30
0.0
 40
12.10019603811581
100
AcDbArc
 50
164.4786943069
 51
180.914653851
  0
LINE
  5
2CC
330
1F
100
AcDbEntity
  8
0
  6
Continuous
 62
     7
370
    25
100
AcDbLine
 10
155.5180737139
 20
68.470265091
 30
0.0
 11
154.8548761146
 21
68.2836615747
 31
0.0
  0
ARC
  5
2CD
330
1F
100
AcDbEntity
  8
0
  6
Continuous
 62
     7
370
    25
100
AcDbCircle
 10
147.2582195599
 20
59.6277794845
 30
0.0
 40
12.10019603811582
100
AcDbArc
 50
30.515200707
 51
46.9511602511
  0
LINE
  5
2CE
330
1F
100
AcDbEntity
  8
0
  6
Continuous
 62
     7
370
    25
100
AcDbLine
 10
158.1321820938
 20
65.8591308897
 30
0.0
 11
157.6824715683
 21
65.7718585139
 31
0.0
  0
LINE
  5
2CF
330
1F
100
AcDbEntity
  8
0
  6
Continuous
 62
     7
370
    25
100
AcDbLine
 10
158.5815317319
 20
65.9482398337
 30
0.0
 11
158.1321820938
 21
65.8591308897
 31
0.0
  0
ARC
  5
2D0
330
1F
100
AcDbEntity
  8
0
  6
Continuous
 62
     7
370
    25
100
AcDbCircle
 10
170.5544960082
 20
64.1981341024
 30
0.0
 40
12.10019603811584
100
AcDbArc
 50
155.2479250762
 51
171.6838846203
  0
LINE
  5
2D1
330
1F
100
AcDbEntity
  8
0
  6
Continuous
 62
     7
370
    25
100
AcDbLine
 10
160.2505123099
 20
69.3421990877
 30
0.0
 11
159.5659690299
 21
69.2643963998
 31
0.0
  0
ARC
  5
2D2
330
1F
100
AcDbEntity
  8
0
  6
Continuous
 62
     7
370
    25
100
AcDbCircle
 10
150.6791864191
 20
61.9391951848
 30
0.0
 40
12.10019603811582
100
AcDbArc
 50
21.2844314762
 51
37.7203910203
  0
LINE
  5
2D3
330
1F
100
AcDbEntity
  8
0
  6
Continuous
 62
     7
370
    25
100
AcDbLine
 10
162.4119128772
 20
66.3455457693
 30
0.0
 11
161.9540267946
 21
66.3315424031
 31
0.0
  0
LINE
  5
2D4
330
1F
100
AcDbEntity
  8
0
  6
Continuous
 62
     7
370
    25
100
AcDbLine
 10
162.8697378708
 20
66.3614210939
 30
0.0
 11
162.4119128772
 21
66.3455457693
 31
0.0
  0
ARC
  5
2D5
330
1F
100
AcDbEntity
  8
0
  6
Continuous
 62
     7
370
    25
100
AcDbCircle
 10
174.4069186441
 20
62.7133793665
 30
0.0
 40
12.10019603811583
100
AcDbArc
 50
146.0171558454
 51
162.4531153895
  0
LINE
  5
2D6
330
1F
100
AcDbEntity
  8
0
  6
Continuous
 62
     7
370
    25
100
AcDbLine
 10
165.0615347405
 20
69.4437057977
 30
0.0
 11
164.37337595
 21
69.4767193204
 31
0.0
  0
ARC
  5
2D7
330
1F
100
AcDbEntity
  8
0
  6
Continuous
 62
     7
370
    25
100
AcDbCircle
 10
154.426629809
 20
63.6719169833
 30
0.0
 40
12.10019603811581
100
AcDbArc
 50
12.0536622455
 51
28.4896217896
  0
LINE
  5
2D8
330
1F
100
AcDbEntity
  8
0
  6
Continuous
 62
     7
370
    25
100
AcDbLine
 10
166.7142488384
 20
66.1391460603
 30
0.0
 11
166.2600460784
 21
66.1987730568
 31
0.0
  0
LINE
  5
2D9
330
1F
100
AcDbEntity
  8
0
  6
Continuous
 62
     7
370
    25
100
AcDbLine
 10
167.1686916468
 20
66.0813742584
 30
0.0
 11
166.7142488384
 21
66.1391460603
 31
0.0
  0
ARC
  5
2DA
330
1F
100
AcDbEntity
  8
0
  6
Continuous
 62
     7
370
    25
100
AcDbCircle
 10
177.9712820097
 20
60.629879765
 30
0.0
 40
12.10019603811581
100
AcDbArc
 50
136.7863866146
 51
153.2223461587
  0
LINE
  5
2DB
330
1F
100
AcDbEntity
  8
0
  6
Continuous
 62
     7
370
    25
100
AcDbLine
 10
169.8265384273
 20
68.7721551662
 30
0.0
 11
169.1525868462
 21
68.9151299452
 31
0.0
  0
ARC
  5
2DC
330
1F
100
AcDbEntity
  8
0
  6
Continuous
 62
     7
370
    25
100
AcDbCircle
 10
158.4034929142
 20
64.7810682954
 30
0.0
 40
12.10019603811581
100
AcDbArc
 50
2.8228930147
 51
19.2588525588
  0
LINE
  5
2DD
330
1F
100
AcDbEntity
  8
0
  6
Continuous
 62
     7
370
    25
100
AcDbLine
 10
170.9277617135
 20
65.2452738291
 30
0.0
 11
170.4890058698
 21
65.3769889181
 31
0.0
  0
LINE
  5
2DE
330
1F
100
AcDbEntity
  8
0
  6
Continuous
 62
     7
370
    25
100
AcDbLine
 10
171.3670521365
 20
65.1153524673
 30
0.0
 11
170.9277617135
 21
65.2452738291
 31
0.0
  0
ARC
  5
2DF
330
1F
100
AcDbEntity
  8
0
  6
Continuous
 62
     7
370
    25
100
AcDbCircle
 10
181.1552709661
 20
58.0015968433
 30
0.0
 40
12.10019603811583
100
AcDbArc
 50
127.5556173839
 51
143.991576928
  0
LINE
  5
2E0
330
1F
100
AcDbEntity
  8
0
  6
Continuous
 62
     7
370
    25
100
AcDbLine
 10
174.4221124188
 20
67.3449405735
 30
0.0
 11
173.7798230113
 21
67.5941736704
 31
0.0
  0
ARC
  5
2E1
330
1F
100
AcDbEntity
  8
0
  6
Continuous
 62
     7
370
    25
100
AcDbCircle
 10
162.5067770694
 20
65.2379226848
 30
0.0
 40
12.10019603811583
100
AcDbArc
 50
353.5921237839
 51
10.028083328
  0
LINE
  5
2E2
330
1F
100
AcDbEntity
  8
0
  6
Continuous
 62
     7
370
    25
100
AcDbLine
 10
174.9433233724
 20
63.6870836174
 30
0.0
 11
174.5313779773
 21
63.8874744331
 31
0.0
  0
LINE
  5
2E3
330
1F
100
AcDbEntity
  8
0
  6
Continuous
 62
     7
370
    25
100
AcDbLine
 10
175.3560846062
 20
63.4883766329
 30
0.0
 11
174.9433233724
 21
63.6870836174
 31
0.0
  0
ARC
  5
2E4
330
1F
100
AcDbEntity
  8
0
  6
Continuous
 62
     7
370
    25
100
AcDbCircle
 10
183.8764218718
 20
54.8966017484
 30
0.0
 40
12.10019603811581
100
AcDbArc
 50
118.3248481531
 51
134.7608076972
  0
LINE
  5
2E5
330
1F
100
AcDbEntity
  8
0
  6
Continuous
 62
     7
370
    25
100
AcDbLine
 10
178.7292334573
 20
65.1990262126
 30
0.0
 11
178.1352415071
 21
65.5480616992
 31
0.0
  0
ARC
  5
2E6
330
1F
100
AcDbEntity
  8
0
  6
Continuous
 62
     7
370
    25
100
AcDbCircle
 10
166.6302093702
 20
65.0306478628
 30
0.0
 40
12.10019603811579
100
AcDbArc
 50
344.3613545532
 51
0.7973140973
  0
LINE
  5
2E7
330
1F
100
AcDbEntity
  8
0
  6
Continuous
 62
     7
370
    25
100
AcDbLine
 10
178.6569339545
 20
61.5049277699
 30
0.0
 11
178.2824677737
 21
61.7688049829
 31
0.0
  0
LINE
  5
2E8
330
1F
100
AcDbEntity
  8
0
  6
Continuous
 62
     7
370
    25
100
AcDbLine
 10
179.0324748815
 20
61.2425835138
 30
0.0
 11
178.6569339545
 21
61.5049277699
 31
0.0
  0
ARC
  5
2E9
330
1F
100
AcDbEntity
  8
0
  6
Continuous
 62
     7
370
    25
100
AcDbCircle
 10
186.0642583477
 20
51.3953122222
 30
0.0
 40
12.10019603811581
100
AcDbArc
 50
109.0940789223
 51
125.5300384664
  0
LINE
  5
2EA
330
1F
100
AcDbEntity
  8
0
  6
Continuous
 62
     7
370
    25
100
AcDbLine
 10
182.6363505186
 20
62.3899896895
 30
0.0
 11
182.1060386808
 21
62.829788149
 31
0.0
  0
ARC
  5
2EB
330
1F
100
AcDbEntity
  8
0
  6
Continuous
 62
     7
370
    25
100
AcDbCircle
 10
170.666995086
 20
64.1646121384
 30
0.0
 40
12.1001960381158
100
AcDbArc
 50
335.1305853224
 51
351.5665448665
  0
LINE
  5
2EC
330
1F
100
AcDbEntity
  8
0
  6
Continuous
 62
     7
370
    25
100
AcDbLine
 10
181.9724106552
 20
58.7553282535
 30
0.0
 11
181.6451234133
 21
59.075855956
 31
0.0
  0
LINE
  5
2ED
330
1F
100
AcDbEntity
  8
0
  6
Continuous
 62
     7
370
    25
100
AcDbLine
 10
182.3010073365
 20
58.4361397928
 30
0.0
 11
181.9724106552
 21
58.7553282535
 31
0.0
  0
ARC
  5
2EE
330
1F
100
AcDbEntity
  8
0
  6
Continuous
 62
     7
370
    25
100
AcDbCircle
 10
187.6621165784
 20
47.5884098245
 30
0.0
 40
12.10019603811581
100
AcDbArc
 50
99.8633096916
 51
116.2992692357
  0
LINE
  5
2EF
330
1F
100
AcDbEntity
  8
0
  6
Continuous
 62
     7
370
    25
100
AcDbLine
 10
186.0422698171
 20
58.9905840611
 30
0.0
 11
185.5893750997
 21
59.5097554183
 31
0.0
  0
ARC
  5
2F0
330
1F
100
AcDbEntity
  8
0
  6
Continuous
 62
     7
370
    25
100
AcDbCircle
 10
174.5125835872
 20
62.6622453819
 30
0.0
 40
12.10019603811583
100
AcDbArc
 50
325.8998160916
 51
342.3357756357
  0
LINE
  5
2F1
330
1F
100
AcDbEntity
  8
0
  6
Continuous
 62
     7
370
    25
100
AcDbLine
 10
184.803888327
 20
55.5094939923
 30
0.0
 11
184.5322550596
 21
55.8783722376
 31
0.0
  0
LINE
  5
2F2
330
1F
100
AcDbEntity
  8
0
  6
Continuous
 62
     7
370
    25
100
AcDbLine
 10
185.0770266117
 20
55.1417286774
 30
0.0
 11
184.803888327
 21
55.5094939923
 31
0.0
  0
ARC
  5
2F3
330
1F
100
AcDbEntity
  8
0
  6
Continuous
 62
     7
370
    25
100
AcDbCircle
 10
188.6286128748
 20
43.5744913276
 30
0.0
 40
12.10019603811582
100
AcDbArc
 50
90.6325404608
 51
107.0685000049
  0
LINE
  5
2F4
330
1F
100
AcDbEntity
  8
0
  6
Continuous
 62
     7
370
    25
100
AcDbLine
 10
188.8587792726
 20
55.0888519069
 30
0.0
 11
188.495030752
 21
55.6739506578
 31
0.0
  0
ARC
  5
2F5
330
1F
100
AcDbEntity
  8
0
  6
Continuous
 62
     7
370
    25
100
AcDbCircle
 10
178.0673761515
 20
60.5624581033
 30
0.0
 40
12.10019603811582
100
AcDbArc
 50
316.6690468608
 51
333.1050064049
  0
LINE
  5
2F6
330
1F
100
AcDbEntity
  8
0
  6
Continuous
 62
     7
370
    25
100
AcDbLine
 10
187.0780290426
 20
51.8514908185
 30
0.0
 11
186.8690849604
 21
52.2591651684
 31
0.0
  0
LINE
  5
2F7
330
1F
100
AcDbEntity
  8
0
  6
Continuous
 62
     7
370
    25
100
AcDbLine
 10
187.288636467
 20
51.4446742168
 30
0.0
 11
187.0780290426
 21
51.8514908185
 31
0.0
  0
ARC
  5
2F8
330
1F
100
AcDbEntity
  8
0
  6
Continuous
 62
     7
370
    25
100
AcDbCircle
 10
188.9387154908
 20
39.4575151121
 30
0.0
 40
12.10019603811581
100
AcDbArc
 50
81.40177123
 51
97.8377307741
  0
LINE
  5
2F9
330
1F
100
AcDbEntity
  8
0
  6
Continuous
 62
     7
370
    25
100
AcDbLine
 10
191.0129339756
 20
50.7858473143
 30
0.0
 11
190.747752911
 21
51.4217171153
 31
0.0
  0
ARC
  5
2FA
330
1F
100
AcDbEntity
  8
0
  6
Continuous
 62
     7
370
    25
100
AcDbCircle
 10
181.2393055189
 20
57.91963369
 30
0.0
 40
12.10019603811582
100
AcDbArc
 50
307.4382776301
 51
323.8742371742
  0
LINE
  5
2FB
330
1F
100
AcDbEntity
  8
0
  6
Continuous
 62
     7
370
    25
100
AcDbLine
 10
188.7359340997
 20
47.8760612464
 30
0.0
 11
188.5950920494
 21
48.3119732967
 31
0.0
  0
LINE
  5
2FC
330
1F
100
AcDbEntity
  8
0
  6
Continuous
 62
     7
370
    25
100
AcDbLine
 10
188.8785568388
 20
47.4407284787
 30
0.0
 11
188.7359340997
 21
47.8760612464
 31
0.0
  0
ARC
  5
2FD
330
1F
100
AcDbEntity
  8
0
  6
Continuous
 62
     7
370
    25
100
AcDbCircle
 10
188.5843929313
 20
35.3441086995
 30
0.0
 40
12.10019603811581
100
AcDbArc
 50
72.1710019992
 51
88.6069615433
  0
LINE
  5
2FE
330
1F
100
AcDbEntity
  8
0
  6
Continuous
 62
     7
370
    25
100
AcDbLine
 10
192.4489439787
 20
46.1930132737
 30
0.0
 11
192.2891960801
 21
46.8631874105
 31
0.0
  0
ARC
  5
2FF
330
1F
100
AcDbEntity
  8
0
  6
Continuous
 62
     7
370
    25
100
AcDbCircle
 10
183.9462203848
 20
54.8022199061
 30
0.0
 40
12.10019603811582
100
AcDbArc
 50
298.2075083993
 51
314.6434679434
  0
LINE
  5
300
330
1F
100
AcDbEntity
  8
0
  6
Continuous
 62
     7
370
    25
100
AcDbLine
 10
189.7346676649
 20
43.6861653147
 30
0.0
 11
189.6655747057
 21
44.1390246419
 31
0.0
  0
LINE
  5
301
330
1F
100
AcDbEntity
  8
0
  6
Continuous
 62
     7
370
    25
100
AcDbLine
 10
190.0457871468
 20
38.9322262058
 30
0.0
 11
190.0483613224
 21
39.3903190711
 31
0.0
  0
CIRCLE
  5
302
330
1F
100
AcDbEntity
  8
0
  6
Continuous
 62
     7
370
    25
100
AcDbCircle
 10
159.7773106424
 20
41.6203481352
 30
0.0
 40
0.9499999999999957
  0
CIRCLE
  5
303
330
1F
100
AcDbEntity
  8
0
  6
Continuous
 62
     7
370
    25
100
AcDbCircle
 10
163.2847135277
 20
39.5953481352
 30
0.0
 40
1.699999999999996
  0
CIRCLE
  5
304
330
1F
100
AcDbEntity
  8
0
  6
Continuous
 62
     7
370
    25
100
AcDbCircle
 10
163.2847135277
 20
43.6453481352
 30
0.0
 40
0.9499999999999957
  0
CIRCLE
  5
305
330
1F
100
AcDbEntity
  8
0
  6
Continuous
 62
     7
370
    25
100
AcDbCircle
 10
166.792116413
 20
41.6203481352
 30
0.0
 40
0.9499999999999957
  0
CIRCLE
  5
306
330
1F
100
AcDbEntity
  8
0
  6
Continuous
 62
     7
370
    25
100
AcDbCircle
 10
166.792116413
 20
37.5703481352
 30
0.0
 40
0.9499999999999957
  0
CIRCLE
  5
307
330
1F
100
AcDbEntity
  8
0
  6
Continuous
 62
     7
370
    25
100
AcDbCircle
 10
163.2847135277
 20
35.5453481352
 30
0.0
 40
0.9499999999999957
  0
CIRCLE
  5
308
330
1F
100
AcDbEntity
  8
0
  6
Continuous
 62
     7
370
    25
100
AcDbCircle
 10
159.7773106424
 20
37.5703481352
 30
0.0
 40
0.9499999999999957
  0
ARC
  5
309
330
1F
100
AcDbEntity
  8
0
  6
Continuous
 62
     7
370
    25
100
AcDbCircle
 10
172.0020130127
 20
38.6038648153
 30
0.0
 40
2.000000000000005
100
AcDbArc
 50
173.5112089999
 51
240.0
  0
LINE
  5
30A
330
1F
100
AcDbEntity
  8
0
  6
Continuous
 62
     7
370
    25
100
AcDbLine
 10
171.0020128028
 20
36.8718140094
 30
0.0
 11
181.5898773582
 21
30.7589073932
 31
0.0
  0
ARC
  5
30B
330
1F
100
AcDbEntity
  8
0
  6
Continuous
 62
     7
370
    25
100
AcDbCircle
 10
183.0898778411
 20
33.3569836102
 30
0.0
 40
3.000000000000011
100
AcDbArc
 50
240.0
 51
342.5162628336
  0
ARC
  5
30C
330
1F
100
AcDbEntity
  8
0
  6
Continuous
 62
     7
370
    25
100
AcDbCircle
 10
163.2847135277
 20
39.5953481352
 30
0.0
 40
23.76443414663095
100
AcDbArc
 50
342.5162628336
 51
17.4837371664
  0
ARC
  5
30D
330
1F
100
AcDbEntity
  8
0
  6
Continuous
 62
     7
370
    25
100
AcDbCircle
 10
183.0898778411
 20
45.8337126602
 30
0.0
 40
3.000000000000014
100
AcDbArc
 50
17.4837371664
 51
120.0
  0
LINE
  5
30E
330
1F
100
AcDbEntity
  8
0
  6
Continuous
 62
     7
370
    25
100
AcDbLine
 10
181.5898773582
 20
48.4317888772
 30
0.0
 11
171.0020128028
 21
42.318882261
 31
0.0
  0
ARC
  5
30F
330
1F
100
AcDbEntity
  8
0
  6
Continuous
 62
     7
370
    25
100
AcDbCircle
 10
172.0020130127
 20
40.5868314551
 30
0.0
 40
2.000000000000004
100
AcDbArc
 50
120.0
 51
186.4887910001
  0
ARC
  5
310
330
1F
100
AcDbEntity
  8
0
  6
Continuous
 62
     7
370
    25
100
AcDbCircle
 10
163.2847135277
 20
39.5953481352
 30
0.0
 40
6.773502691896293
100
AcDbArc
 50
353.5112089999
 51
6.4887910001
  0
ARC
  5
311
330
1F
100
AcDbEntity
  8
0
  6
Continuous
 62
     7
370
    25
100
AcDbCircle
 10
166.7847135277
 20
31.5502036688
 30
0.0
 40
2.0
100
AcDbArc
 50
113.5112089999
 51
180.0
  0
LINE
  5
312
330
1F
100
AcDbEntity
  8
0
  6
Continuous
 62
     7
370
    25
100
AcDbLine
 10
164.7847135407
 20
31.5502037561
 30
0.0
 11
164.7847135407
 21
19.3243895924
 31
0.0
  0
ARC
  5
313
330
1F
100
AcDbEntity
  8
0
  6
Continuous
 62
     7
370
    25
100
AcDbCircle
 10
167.7847135277
 20
19.3243904511
 30
0.0
 40
3.0
100
AcDbArc
 50
180.0
 51
282.5162628336
  0
ARC
  5
314
330
1F
100
AcDbEntity
  8
0
  6
Continuous
 62
     7
370
    25
100
AcDbCircle
 10
163.2847135277
 20
39.5953481352
 30
0.0
 40
23.76443414663096
100
AcDbArc
 50
282.5162628336
 51
317.4837371664
  0
ARC
  5
315
330
1F
100
AcDbEntity
  8
0
  6
Continuous
 62
     7
370
    25
100
AcDbCircle
 10
178.5898778411
 20
25.5627549761
 30
0.0
 40
3.000000000000028
100
AcDbArc
 50
317.4837371664
 51
60.0
  0
LINE
  5
316
330
1F
100
AcDbEntity
  8
0
  6
Continuous
 62
     7
370
    25
100
AcDbLine
 10
180.0898780437
 20
28.1608312657
 30
0.0
 11
169.5020130226
 21
34.2737378819
 31
0.0
  0
ARC
  5
317
330
1F
100
AcDbEntity
  8
0
  6
Continuous
 62
     7
370
    25
100
AcDbCircle
 10
168.5020130127
 20
32.5416869888
 30
0.0
 40
2.000000000000004
100
AcDbArc
 50
60.0
 51
126.4887910001
  0
ARC
  5
318
330
1F
100
AcDbEntity
  8
0
  6
Continuous
 62
     7
370
    25
100
AcDbCircle
 10
163.2847135277
 20
39.5953481352
 30
0.0
 40
6.773502691896263
100
AcDbArc
 50
293.5112089999
 51
306.4887910001
  0
ARC
  5
319
330
1F
100
AcDbEntity
  8
0
  6
Continuous
 62
     7
370
    25
100
AcDbCircle
 10
168.5020130127
 20
46.6490092816
 30
0.0
 40
1.999999999999996
100
AcDbArc
 50
233.5112089999
 51
300.0
  0
LINE
  5
31A
330
1F
100
AcDbEntity
  8
0
  6
Continuous
 62
     7
370
    25
100
AcDbLine
 10
169.5020130226
 20
44.9169583885
 30
0.0
 11
180.0898780437
 21
51.0298650047
 31
0.0
  0
ARC
  5
31B
330
1F
100
AcDbEntity
  8
0
  6
Continuous
 62
     7
370
    25
100
AcDbCircle
 10
178.5898778411
 20
53.6279412943
 30
0.0
 40
3.000000000000008
100
AcDbArc
 50
300.0
 51
42.5162628336
  0
ARC
  5
31C
330
1F
100
AcDbEntity
  8
0
  6
Continuous
 62
     7
370
    25
100
AcDbCircle
 10
163.2847135277
 20
39.5953481352
 30
0.0
 40
23.76443414663097
100
AcDbArc
 50
42.5162628336
 51
77.4837371664
  0
ARC
  5
31D
330
1F
100
AcDbEntity
  8
0
  6
Continuous
 62
     7
370
    25
100
AcDbCircle
 10
167.7847135277
 20
59.8663058193
 30
0.0
 40
3.0
100
AcDbArc
 50
77.4837371664
 51
180.0
  0
LINE
  5
31E
330
1F
100
AcDbEntity
  8
0
  6
Continuous
 62
     7
370
    25
100
AcDbLine
 10
164.7847135407
 20
59.866306678
 30
0.0
 11
164.7847135407
 21
47.6404925143
 31
0.0
  0
ARC
  5
31F
330
1F
100
AcDbEntity
  8
0
  6
Continuous
 62
     7
370
    25
100
AcDbCircle
 10
166.7847135277
 20
47.6404926016
 30
0.0
 40
2.0
100
AcDbArc
 50
180.0
 51
246.4887910001
  0
ARC
  5
320
330
1F
100
AcDbEntity
  8
0
  6
Continuous
 62
     7
370
    25
100
AcDbCircle
 10
163.2847135277
 20
39.5953481352
 30
0.0
 40
6.773502691896275
100
AcDbArc
 50
53.5112089999
 51
66.4887910001
  0
ARC
  5
321
330
1F
100
AcDbEntity
  8
0
  6
Continuous
 62
     7
370
    25
100
AcDbCircle
 10
159.7847135277
 20
47.6404926016
 30
0.0
 40
1.999999999999992
100
AcDbArc
 50
293.5112089999
 51
0.0
  0
LINE
  5
322
330
1F
100
AcDbEntity
  8
0
  6
Continuous
 62
     7
370
    25
100
AcDbLine
 10
161.7847135147
 20
47.6404925143
 30
0.0
 11
161.7847135147
 21
59.866306678
 31
0.0
  0
ARC
  5
323
330
1F
100
AcDbEntity
  8
0
  6
Continuous
 62
     7
370
    25
100
AcDbCircle
 10
158.7847135277
 20
59.8663058193
 30
0.0
 40
3.0
100
AcDbArc
 50
0.0
 51
102.5162628336
  0
ARC
  5
324
330
1F
100
AcDbEntity
  8
0
  6
Continuous
 62
     7
370
    25
100
AcDbCircle
 10
163.2847135277
 20
39.5953481352
 30
0.0
 40
23.76443414663099
100
AcDbArc
 50
102.5162628336
 51
137.4837371664
  0
ARC
  5
325
330
1F
100
AcDbEntity
  8
0
  6
Continuous
 62
     7
370
    25
100
AcDbCircle
 10
147.9795492142
 20
53.6279412943
 30
0.0
 40
3.000000000000011
100
AcDbArc
 50
137.4837371664
 51
240.0
  0
LINE
  5
326
330
1F
100
AcDbEntity
  8
0
  6
Continuous
 62
     7
370
    25
100
AcDbLine
 10
146.4795490117
 20
51.0298650047
 30
0.0
 11
157.0674140328
 21
44.9169583885
 31
0.0
  0
ARC
  5
327
330
1F
100
AcDbEntity
  8
0
  6
Continuous
 62
     7
370
    25
100
AcDbCircle
 10
158.0674140427
 20
46.6490092816
 30
0.0
 40
2.000000000000004
100
AcDbArc
 50
240.0
 51
306.4887910001
  0
ARC
  5
328
330
1F
100
AcDbEntity
  8
0
  6
Continuous
 62
     7
370
    25
100
AcDbCircle
 10
163.2847135277
 20
39.5953481352
 30
0.0
 40
6.773502691896275
100
AcDbArc
 50
113.5112089999
 51
126.4887910001
  0
ARC
  5
329
330
1F
100
AcDbEntity
  8
0
  6
Continuous
 62
     7
370
    25
100
AcDbCircle
 10
158.0674140427
 20
32.5416869888
 30
0.0
 40
2.000000000000004
100
AcDbArc
 50
53.5112089999
 51
120.0
  0
LINE
  5
32A
330
1F
100
AcDbEntity
  8
0
  6
Continuous
 62
     7
370
    25
100
AcDbLine
 10
157.0674140328
 20
34.2737378819
 30
0.0
 11
146.4795490117
 21
28.1608312657
 31
0.0
  0
ARC
  5
32B
330
1F
100
AcDbEntity
  8
0
  6
Continuous
 62
     7
370
    25
100
AcDbCircle
 10
147.9795492142
 20
25.5627549761
 30
0.0
 40
2.999999999999992
100
AcDbArc
 50
120.0
 51
222.5162628336
  0
ARC
  5
32C
330
1F
100
AcDbEntity
  8
0
  6
Continuous
 62
     7
370
    25
100
AcDbCircle
 10
163.2847135277
 20
39.5953481352
 30
0.0
 40
23.76443414663096
100
AcDbArc
 50
222.5162628336
 51
257.4837371664
  0
ARC
  5
32D
330
1F
100
AcDbEntity
  8
0
  6
Continuous
 62
     7
370
    25
100
AcDbCircle
 10
158.7847135277
 20
19.3243904511
 30
0.0
 40
3.0
100
AcDbArc
 50
257.4837371664
 51
0.0
  0
LINE
  5
32E
330
1F
100
AcDbEntity
  8
0
  6
Continuous
 62
     7
370
    25
100
AcDbLine
 10
161.7847135147
 20
19.3243895924
 30
0.0
 11
161.7847135147
 21
31.5502037561
 31
0.0
  0
ARC
  5
32F
330
1F
100
AcDbEntity
  8
0
  6
Continuous
 62
     7
370
    25
100
AcDbCircle
 10
159.7847135277
 20
31.5502036688
 30
0.0
 40
2.0
100
AcDbArc
 50
0.0
 51
66.4887910001
  0
ARC
  5
330
330
1F
100
AcDbEntity
  8
0
  6
Continuous
 62
     7
370
    25
100
AcDbCircle
 10
163.2847135277
 20
39.5953481352
 30
0.0
 40
6.773502691896277
100
AcDbArc
 50
233.5112089999
 51
246.4887910001
  0
ARC
  5
331
330
1F
100
AcDbEntity
  8
0
  6
Continuous
 62
     7
370
    25
100
AcDbCircle
 10
154.5674140427
 20
40.5868314551
 30
0.0
 40
2.000000000000004
100
AcDbArc
 50
353.5112089999
 51
60.0
  0
LINE
  5
332
330
1F
100
AcDbEntity
  8
0
  6
Continuous
 62
     7
370
    25
100
AcDbLine
 10
155.5674142526
 20
42.318882261
 30
0.0
 11
144.9795496972
 21
48.4317888772
 31
0.0
  0
ARC
  5
333
330
1F
100
AcDbEntity
  8
0
  6
Continuous
 62
     7
370
    25
100
AcDbCircle
 10
143.4795492142
 20
45.8337126602
 30
0.0
 40
3.000000000000012
100
AcDbArc
 50
60.0
 51
162.5162628336
  0
ARC
  5
334
330
1F
100
AcDbEntity
  8
0
  6
Continuous
 62
     7
370
    25
100
AcDbCircle
 10
163.2847135277
 20
39.5953481352
 30
0.0
 40
23.76443414663098
100
AcDbArc
 50
162.5162628336
 51
197.4837371664
  0
ARC
  5
335
330
1F
100
AcDbEntity
  8
0
  6
Continuous
 62
     7
370
    25
100
AcDbCircle
 10
143.4795492142
 20
33.3569836102
 30
0.0
 40
3.00000000000001
100
AcDbArc
 50
197.4837371664
 51
300.0
  0
LINE
  5
336
330
1F
100
AcDbEntity
  8
0
  6
Continuous
 62
     7
370
    25
100
AcDbLine
 10
144.9795496972
 20
30.7589073932
 30
0.0
 11
155.5674142526
 21
36.8718140094
 31
0.0
  0
ARC
  5
337
330
1F
100
AcDbEntity
  8
0
  6
Continuous
 62
     7
370
    25
100
AcDbCircle
 10
154.5674140427
 20
38.6038648153
 30
0.0
 40
2.000000000000005
100
AcDbArc
 50
300.0
 51
6.4887910001
  0
ARC
  5
338
330
1F
100
AcDbEntity
  8
0
  6
Continuous
 62
     7
370
    25
100
AcDbCircle
 10
163.2847135277
 20
39.5953481352
 30
0.0
 40
6.773502691896264
100
AcDbArc
 50
173.5112089999
 51
186.4887910001
  0
LINE
  5
339
330
1F
100
AcDbEntity
  8
0
  6
Continuous
 62
     7
370
    25
100
AcDbLine
 10
146.5169844539
 20
60.4562715894
 30
0.0
 11
146.1593435468
 21
60.1700053817
 31
0.0
  0
LINE
  5
33A
330
1F
100
AcDbEntity
  8
0
  6
Continuous
 62
     7
370
    25
100
AcDbLine
 10
190.0483613224
 20
39.3903190711
 30
0.0
 11
190.0528055937
 21
39.8483976173
 31
0.0
  0
ARC
  5
33B
330
1F
100
AcDbEntity
  8
0
  6
Continuous
 62
     7
370
    25
100
AcDbCircle
 10
186.1180130761
 20
51.2909561312
 30
0.0
 40
12.10019603811583
100
AcDbArc
 50
288.9767391685
 51
305.4126987126
  0
LINE
  5
33C
330
1F
100
AcDbEntity
  8
0
  6
Continuous
 62
     7
370
    25
100
AcDbLine
 10
193.1296141209
 20
41.4293037761
 30
0.0
 11
193.0794400485
 21
42.1164246077
 31
0.0
  0
ARC
  5
33D
330
1F
100
AcDbEntity
  8
0
  6
Continuous
 62
     7
370
    25
100
AcDbCircle
 10
187.5748219645
 20
31.3408071552
 30
0.0
 40
12.10019603811582
100
AcDbArc
 50
62.9402327685
 51
79.3761923126
  0
LINE
  5
33E
330
1F
100
AcDbEntity
  8
0
  6
Continuous
 62
     7
370
    25
100
AcDbLine
 10
189.8056120933
 20
43.2335916707
 30
0.0
 11
189.7346676649
 21
43.6861653147
 31
0.0
  0
ENDSEC
  0
SECTION
  2
OBJECTS
  0
DICTIONARY
  5
C
330
0
100
AcDbDictionary
281
     1
  3
ACAD_GROUP
350
D
  3
ACAD_LAYOUT
350
1A
  3
ACAD_MLINESTYLE
350
17
  3
ACAD_PLOTSETTINGS
350
19
  3
ACAD_PLOTSTYLENAME
350
E
  3
ACAD_SCALELIST
350
47
  0
DICTIONARY
  5
D
102
{ACAD_REACTORS
330
C
102
}
330
C
100
AcDbDictionary
281
     1
  0
DICTIONARY
  5
1A
102
{ACAD_REACTORS
330
C
102
}
330
C
100
AcDbDictionary
281
     1
  3
Layout1
350
1E
  3
Layout2
350
26
  3
Model
350
22
  0
DICTIONARY
  5
17
102
{ACAD_REACTORS
330
C
102
}
330
C
100
AcDbDictionary
281
     1
  3
Standard
350
18
  0
DICTIONARY
  5
19
102
{ACAD_REACTORS
330
C
102
}
330
C
100
AcDbDictionary
281
     1
  0
ACDBDICTIONARYWDFLT
  5
E
102
{ACAD_REACTORS
330
C
102
}
330
C
100
AcDbDictionary
281
     1
  3
Normal
350
F
100
AcDbDictionaryWithDefault
340
F
  0
DICTIONARY
  5
47
102
{ACAD_REACTORS
330
C
102
}
330
C
100
AcDbDictionary
281
     1
  3
A0
350
48
  3
A1
350
49
  3
A2
350
4A
  3
A3
350
4B
  3
A4
350
4C
  3
A5
350
4D
  3
A6
350
4E
  3
A7
350
4F
  3
A8
350
50
  3
A9
350
51
  3
B0
350
52
  3
B1
350
53
  3
B2
350
54
  3
B3
350
55
  3
B4
350
56
  3
B5
350
57
  3
B6
350
58
  3
B7
350
59
  3
B8
350
5A
  3
B9
350
5B
  3
C0
350
5C
  3
C1
350
5D
  3
C2
350
5E
  3
C3
350
5F
  3
C4
350
60
  3
C5
350
61
  3
C6
350
62
  3
C7
350
63
  3
C8
350
64
  3
C9
350
65
  3
D0
350
66
  3
D1
350
67
  3
D2
350
68
  0
LAYOUT
  5
1E
102
{ACAD_REACTORS
330
1A
102
}
330
1A
100
AcDbPlotSettings
  1

  2
none_device
  4

  6

 40
0.0
 41
0.0
 42
0.0
 43
0.0
 44
0.0
 45
0.0
 46
0.0
 47
0.0
 48
0.0
 49
0.0
140
0.0
141
0.0
142
1.0
143
1.0
 70
   688
 72
     1
 73
     0
 74
     5
  7

 75
    16
147
1.0
148
0.0
149
0.0
100
AcDbLayout
  1
Layout1
 70
     1
 71
     1
 10
0.0
 20
0.0
 11
420.0
 21
297.0
 12
0.0
 22
0.0
 32
0.0
 14
1.0000000000E+20
 24
1.0000000000E+20
 34
1.0000000000E+20
 15
-1.0000000000E+20
 25
-1.0000000000E+20
 35
-1.0000000000E+20
146
0.0
 13
0.0
 23
0.0
 33
0.0
 16
1.0
 26
0.0
 36
0.0
 17
0.0
 27
1.0
 37
0.0
 76
     0
330
1B
  0
LAYOUT
  5
26
102
{ACAD_REACTORS
330
1A
102
}
330
1A
100
AcDbPlotSettings
  1

  2
none_device
  4

  6

 40
0.0
 41
0.0
 42
0.0
 43
0.0
 44
0.0
 45
0.0
 46
0.0
 47
0.0
 48
0.0
 49
0.0
140
0.0
141
0.0
142
1.0
143
1.0
 70
   688
 72
     1
 73
     0
 74
     5
  7

 75
    16
147
1.0
148
0.0
149
0.0
100
AcDbLayout
  1
Layout2
 70
     1
 71
     2
 10
0.0
 20
0.0
 11
0.0
 21
0.0
 12
0.0
 22
0.0
 32
0.0
 14
0.0
 24
0.0
 34
0.0
 15
0.0
 25
0.0
 35
0.0
146
0.0
 13
0.0
 23
0.0
 33
0.0
 16
1.0
 26
0.0
 36
0.0
 17
0.0
 27
1.0
 37
0.0
 76
     0
330
23
  0
LAYOUT
  5
22
102
{ACAD_REACTORS
330
1A
102
}
330
1A
100
AcDbPlotSettings
  1

  2
none_device
  4
Letter_(8.50_x_11.00_Inches)
  6

 40
6.35
 41
6.35
 42
6.35000508
 43
6.35000508
 44
215.9
 45
279.4
 46
0.0
 47
0.0
 48
0.0
 49
0.0
140
0.0
141
0.0
142
1.0
143
1.0
 70
  1712
 72
     1
 73
     0
 74
     0
  7

 75
     0
147
1.0
148
0.0
149
0.0
100
AcDbLayout
  1
Model
 70
     1
 71
     0
 10
0.0
 20
0.0
 11
300.0
 21
210.0
 12
0.0
 22
0.0
 32
0.0
 14
0.0
 24
0.0
 34
0.0
 15
300.0
 25
210.0
 35
0.0
146
0.0
 13
0.0
 23
0.0
 33
0.0
 16
1.0
 26
0.0
 36
0.0
 17
0.0
 27
1.0
 37
0.0
 76
     0
330
1F
331
29
  0
MLINESTYLE
  5
18
102
{ACAD_REACTORS
330
17
102
}
330
17
100
AcDbMlineStyle
  2
Standard
 70
     0
  3

 62
   256
 51
90.0
 52
90.0
 71
     2
 49
0.5
 62
   256
  6
BYLAYER
 49
-0.5
 62
   256
  6
BYLAYER
  0
ACDBPLACEHOLDER
  5
F
102
{ACAD_REACTORS
330
E
102
}
330
E
  0
SCALE
  5
48
102
{ACAD_REACTORS
330
47
102
}
330
47
100
AcDbScale
 70
     0
300
1:1
140
1.0
141
1.0
290
     1
  0
SCALE
  5
49
102
{ACAD_REACTORS
330
47
102
}
330
47
100
AcDbScale
 70
     0
300
1:2
140
1.0
141
2.0
290
     0
  0
SCALE
  5
4A
102
{ACAD_REACTORS
330
47
102
}
330
47
100
AcDbScale
 70
     0
300
1:4
140
1.0
141
4.0
290
     0
  0
SCALE
  5
4B
102
{ACAD_REACTORS
330
47
102
}
330
47
100
AcDbScale
 70
     0
300
1:5
140
1.0
141
5.0
290
     0
  0
SCALE
  5
4C
102
{ACAD_REACTORS
330
47
102
}
330
47
100
AcDbScale
 70
     0
300
1:8
140
1.0
141
8.0
290
     0
  0
SCALE
  5
4D
102
{ACAD_REACTORS
330
47
102
}
330
47
100
AcDbScale
 70
     0
300
1:10
140
1.0
141
10.0
290
     0
  0
SCALE
  5
4E
102
{ACAD_REACTORS
330
47
102
}
330
47
100
AcDbScale
 70
     0
300
1:16
140
1.0
141
16.0
290
     0
  0
SCALE
  5
4F
102
{ACAD_REACTORS
330
47
102
}
330
47
100
AcDbScale
 70
     0
300
1:20
140
1.0
141
20.0
290
     0
  0
SCALE
  5
50
102
{ACAD_REACTORS
330
47
102
}
330
47
100
AcDbScale
 70
     0
300
1:30
140
1.0
141
30.0
290
     0
  0
SCALE
  5
51
102
{ACAD_REACTORS
330
47
102
}
330
47
100
AcDbScale
 70
     0
300
1:40
140
1.0
141
40.0
290
     0
  0
SCALE
  5
52
102
{ACAD_REACTORS
330
47
102
}
330
47
100
AcDbScale
 70
     0
300
1:50
140
1.0
141
50.0
290
     0
  0
SCALE
  5
53
102
{ACAD_REACTORS
330
47
102
}
330
47
100
AcDbScale
 70
     0
300
1:100
140
1.0
141
100.0
290
     0
  0
SCALE
  5
54
102
{ACAD_REACTORS
330
47
102
}
330
47
100
AcDbScale
 70
     0
300
2:1
140
2.0
141
1.0
290
     0
  0
SCALE
  5
55
102
{ACAD_REACTORS
330
47
102
}
330
47
100
AcDbScale
 70
     0
300
4:1
140
4.0
141
1.0
290
     0
  0
SCALE
  5
56
102
{ACAD_REACTORS
330
47
102
}
330
47
100
AcDbScale
 70
     0
300
8:1
140
8.0
141
1.0
290
     0
  0
SCALE
  5
57
102
{ACAD_REACTORS
330
47
102
}
330
47
100
AcDbScale
 70
     0
300
10:1
140
10.0
141
1.0
290
     0
  0
SCALE
  5
58
102
{ACAD_REACTORS
330
47
102
}
330
47
100
AcDbScale
 70
     0
300
100:1
140
100.0
141
1.0
290
     0
  0
SCALE
  5
59
102
{ACAD_REACTORS
330
47
102
}
330
47
100
AcDbScale
 70
     0
300
1/128" = 1'-0"
140
0.0078125
141
12.0
290
     0
  0
SCALE
  5
5A
102
{ACAD_REACTORS
330
47
102
}
330
47
100
AcDbScale
 70
     0
300
1/64" = 1'-0"
140
0.015625
141
12.0
290
     0
  0
SCALE
  5
5B
102
{ACAD_REACTORS
330
47
102
}
330
47
100
AcDbScale
 70
     0
300
1/32" = 1'-0"
140
0.03125
141
12.0
290
     0
  0
SCALE
  5
5C
102
{ACAD_REACTORS
330
47
102
}
330
47
100
AcDbScale
 70
     0
300
1/16" = 1'-0"
140
0.0625
141
12.0
290
     0
  0
SCALE
  5
5D
102
{ACAD_REACTORS
330
47
102
}
330
47
100
AcDbScale
 70
     0
300
3/32" = 1'-0"
140
0.09375
141
12.0
290
     0
  0
SCALE
  5
5E
102
{ACAD_REACTORS
330
47
102
}
330
47
100
AcDbScale
 70
     0
300
1/8" = 1'-0"
140
0.125
141
12.0
290
     0
  0
SCALE
  5
5F
102
{ACAD_REACTORS
330
47
102
}
330
47
100
AcDbScale
 70
     0
300
3/16" = 1'-0"
140
0.1875
141
12.0
290
     0
  0
SCALE
  5
60
102
{ACAD_REACTORS
330
47
102
}
330
47
100
AcDbScale
 70
     0
300
1/4" = 1'-0"
140
0.25
141
12.0
290
     0
  0
SCALE
  5
61
102
{ACAD_REACTORS
330
47
102
}
330
47
100
AcDbScale
 70
     0
300
3/8" = 1'-0"
140
0.375
141
12.0
290
     0
  0
SCALE
  5
62
102
{ACAD_REACTORS
330
47
102
}
330
47
100
AcDbScale
 70
     0
300
1/2" = 1'-0"
140
0.5
141
12.0
290
     0
  0
SCALE
  5
63
102
{ACAD_REACTORS
330
47
102
}
330
47
100
AcDbScale
 70
     0
300
3/4" = 1'-0"
140
0.75
141
12.0
290
     0
  0
SCALE
  5
64
102
{ACAD_REACTORS
330
47
102
}
330
47
100
AcDbScale
 70
     0
300
1" = 1'-0"
140
1.0
141
12.0
290
     0
  0
SCALE
  5
65
102
{ACAD_REACTORS
330
47
102
}
330
47
100
AcDbScale
 70
     0
300
1-1/2" = 1'-0"
140
1.5
141
12.0
290
     0
  0
SCALE
  5
66
102
{ACAD_REACTORS
330
47
102
}
330
47
100
AcDbScale
 70
     0
300
3" = 1'-0"
140
3.0
141
12.0
290
     0
  0
SCALE
  5
67
102
{ACAD_REACTORS
330
47
102
}
330
47
100
AcDbScale
 70
     0
300
6" = 1'-0"
140
6.0
141
12.0
290
     0
  0
SCALE
  5
68
102
{ACAD_REACTORS
330
47
102
}
330
47
100
AcDbScale
 70
     0
300
1'-0" = 1'-0"
140
12.0
141
12.0
290
     0
  0
ENDSEC
  0
EOF
